<svg xmlns="http://www.w3.org/2000/svg" viewBox="0 0 1577 986.54"><defs><style>.cls-1{fill:#ecd397;}.cls-2{fill:#eca700;}.cls-3{fill:#ecc76d;}.cls-4{opacity:0.1;}.cls-5{fill:#d69800;}.cls-6{fill:#f0e9d0;}.cls-7{fill:#e0dac3;}.cls-8{fill:#fffcf2;}.cls-9{fill:#dfe6e5;}.cls-10{fill:#602d2d;}.cls-11{fill:#f2faf9;}.cls-12{fill:#ecc192;}.cls-13{fill:#876c5b;}.cls-14{fill:#ad6f5e;}.cls-15{fill:#af8b7f;}.cls-16{fill:#9ca08b;}.cls-17{fill:#b1b59d;}.cls-18{fill:#7aa0bb;}.cls-19{fill:#dab6a5;}.cls-20{fill:#997f67;}.cls-21{fill:#7292a8;}.cls-22{fill:#eccfb2;}.cls-23{fill:#293a53;}.cls-24{fill:#504e51;}.cls-25{fill:#2d405c;}.cls-26{fill:#3e506b;}</style></defs><title>drinking</title><g id="Layer_2" data-name="Layer 2"><g id="object"><path class="cls-1" d="M635.76,386.92,566,588.21a30.64,30.64,0,0,1-39,18.93L421,570.41a30.64,30.64,0,0,1-18.93-39l69.72-201.29-8.89-3.08L390.88,535a34,34,0,0,0,21,43.22L529.41,618.9a34,34,0,0,0,43.22-21l72-207.92Z"/><path class="cls-2" d="M421,570.41l106,36.73a30.64,30.64,0,0,0,39-18.93l63.74-184-164-56.8-63.74,184A30.64,30.64,0,0,0,421,570.41Z"/><path class="cls-1" d="M655.57,435.27,622.93,424l-7.61,22,30.13,10.44S666.11,463.51,658,487l-20.61,59.49s-5.47,24.74-32.27,15.46l-26.75-9.27-7.6,21.93,32.64,11.31a42.27,42.27,0,0,0,53.78-26.11L681.67,489A42.26,42.26,0,0,0,655.57,435.27Z"/><path class="cls-3" d="M499.19,394.37l-30.75-10.65L422.28,517h0l-.1.27a16.27,16.27,0,1,0,30.75,10.65l.09-.27h0Z"/><path class="cls-3" d="M574.13,420.33,604.88,431,558.72,564.24h0c0,.09-.05.18-.08.27a16.27,16.27,0,1,1-30.75-10.65c0-.09.06-.18.1-.27h0Z"/><path class="cls-3" d="M552,412.68,521.28,402,475.13,535.28h0l-.1.27a16.27,16.27,0,1,0,30.75,10.65l.09-.27h0Z"/><path class="cls-1" d="M629.94,403.71,566,588.21a30.64,30.64,0,0,1-39,18.93L421,570.41a30.64,30.64,0,0,1-18.93-39L466,346.92l-8.89-3.08L390.88,535a34,34,0,0,0,21,43.22L529.41,618.9a34,34,0,0,0,43.22-21l66.2-191.13Z"/><g class="cls-4"><path d="M408.78,576.94a32.11,32.11,0,0,0,3.09,1.24L529.41,618.9a34,34,0,0,0,43.22-21L609,493.05S543.87,606.6,408.78,576.94Z"/></g><polygon class="cls-5" points="629.77 404.21 465.98 346.93 622.92 423.97 629.77 404.21"/><path class="cls-6" d="M678.93,384.32a29.79,29.79,0,0,0-13.53-31.14,43.52,43.52,0,0,0-63.16-52.8,24.16,24.16,0,0,0-30.58-9.84,46.13,46.13,0,0,0-92-1.47,30.18,30.18,0,0,0-8.53-3.1,29.79,29.79,0,0,0-35,23.4c-3.21,16.14,5,29.49,21,34.47l183.79,64.21c.87.25,1.76.48,2.67.66C659.68,411.92,675.71,400.46,678.93,384.32Z"/><path class="cls-7" d="M665.48,353.22h-.07s-38.32,45.25-208.25-9.6c44.52,15.59,183.72,64.43,183.72,64.43.87.25,1.76.48,2.67.66,16.13,3.21,32.16-8.25,35.38-24.39A29.81,29.81,0,0,0,665.48,353.22Z"/><path class="cls-8" d="M552.48,264l.61.22a39.78,39.78,0,0,0-66.33,31.58A51.7,51.7,0,0,1,552.48,264Z"/><path class="cls-1" d="M115,182.63,232.52,403.12a35.93,35.93,0,0,0,48.62,14.82L397.3,356.06a36,36,0,0,0,14.82-48.63L294.65,86.94l9.73-5.19L425.72,309.5a39.84,39.84,0,0,1-16.43,53.9L280.54,432a39.84,39.84,0,0,1-53.9-16.43L105.3,187.81Z"/><path class="cls-2" d="M397.3,356.06,281.14,417.94a35.93,35.93,0,0,1-48.62-14.82L125.13,201.56l179.6-95.69L412.12,307.43A36,36,0,0,1,397.3,356.06Z"/><path class="cls-1" d="M100.9,242.25l35.76-19.05,12.82,24.05-33,17.59s-22.63,12.05-8.93,37.76l34.72,65.17s10.85,27.66,40.2,12l29.31-15.62,12.79,24-35.75,19a49.56,49.56,0,0,1-67.06-20.44L80.46,309.31A49.57,49.57,0,0,1,100.9,242.25Z"/><path class="cls-3" d="M274.62,166.37l33.68-18,77.77,146h0l.17.29a19.09,19.09,0,1,1-33.69,17.95l-.15-.3h0Z"/><path class="cls-3" d="M192.53,210.1,158.85,228l77.77,146h0l.15.3a19.09,19.09,0,0,0,33.69-17.95c0-.1-.11-.19-.17-.29h0Z"/><path class="cls-3" d="M216.73,197.2l33.69-17.94,77.76,146h0l.16.29a19.08,19.08,0,1,1-33.68,18l-.15-.3h0Z"/><path class="cls-1" d="M124.84,201l107.68,202.1a35.93,35.93,0,0,0,48.62,14.82L397.3,356.06a36,36,0,0,0,14.82-48.63L304.44,105.33l9.74-5.19L425.72,309.5a39.84,39.84,0,0,1-16.43,53.9L280.54,432a39.84,39.84,0,0,1-53.9-16.43L115.1,206.21Z"/><g class="cls-4"><path d="M412.64,361.4c-1.07.71-2.19,1.38-3.35,2L280.54,432a39.84,39.84,0,0,1-53.9-16.43L165.45,300.7S261.54,420.38,412.64,361.4Z"/></g><polygon class="cls-5" points="125.13 201.56 304.45 105.34 136.66 223.21 125.13 201.56"/><path class="cls-6" d="M64.55,187.49a35,35,0,0,1,10-38.56A51,51,0,0,1,138.1,76.25a28.3,28.3,0,0,1,33.63-17A54.1,54.1,0,0,1,278,40.82,34.94,34.94,0,0,1,332.2,56.38c6.67,18.11-.42,35.08-18,43.76L113,208c-1,.45-1.94.87-3,1.25C91.88,216,71.22,205.59,64.55,187.49Z"/><path class="cls-7" d="M74.47,149l.08,0s52.64,45.45,239.51-49.07C265.33,126.08,113,208,113,208c-1,.45-1.94.87-3,1.25-18.11,6.66-38.77-3.7-45.44-21.8A35,35,0,0,1,74.47,149Z"/><path class="cls-8" d="M189.11,25l-.67.36A46.64,46.64,0,0,1,271,49.88,60.61,60.61,0,0,0,189.11,25Z"/><path class="cls-1" d="M1503.68,247.21l-106.57,200A32.6,32.6,0,0,1,1353,460.68l-105.37-56.14a32.62,32.62,0,0,1-13.45-44.11l106.57-200-8.83-4.71L1221.84,362.31a36.15,36.15,0,0,0,14.91,48.89l116.79,62.23a36.16,36.16,0,0,0,48.9-14.91l110.07-206.6Z"/><path class="cls-2" d="M1247.63,404.54,1353,460.68a32.6,32.6,0,0,0,44.11-13.45l97.42-182.84-162.93-86.8-97.42,182.84A32.62,32.62,0,0,0,1247.63,404.54Z"/><path class="cls-1" d="M1516.5,301.3,1484.07,284l-11.63,21.82,29.94,16s20.53,10.94,8.11,34.25L1479,415.16s-9.84,25.1-36.47,10.91l-26.59-14.16-11.61,21.79L1436.76,451a45,45,0,0,0,60.83-18.55l37.46-70.3A45,45,0,0,0,1516.5,301.3Z"/><path class="cls-3" d="M1358.92,232.46l-30.56-16.28L1257.81,348.6h0l-.15.26a17.31,17.31,0,1,0,30.56,16.28c0-.09.09-.18.13-.27h0Z"/><path class="cls-3" d="M1433.38,272.14l30.56,16.28-70.55,132.41h0c0,.09-.08.18-.13.27a17.31,17.31,0,0,1-30.56-16.28l.15-.27h0Z"/><path class="cls-3" d="M1411.43,260.44l-30.56-16.28-70.55,132.41h0l-.15.26a17.31,17.31,0,1,0,30.56,16.28c0-.09.09-.18.13-.27h0Z"/><path class="cls-1" d="M1494.79,263.9l-97.68,183.33A32.6,32.6,0,0,1,1353,460.68l-105.37-56.14a32.62,32.62,0,0,1-13.45-44.11l97.68-183.34-8.83-4.7L1221.84,362.31a36.15,36.15,0,0,0,14.91,48.89l116.79,62.23a36.16,36.16,0,0,0,48.9-14.91L1503.62,268.6Z"/><g class="cls-4"><path d="M1233.71,409.39c1,.64,2,1.25,3,1.81l116.79,62.23a36.16,36.16,0,0,0,48.9-14.91L1458,354.32S1370.78,462.89,1233.71,409.39Z"/></g><polygon class="cls-5" points="1494.53 264.39 1331.86 177.1 1484.06 284.03 1494.53 264.39"/><path class="cls-6" d="M1549.48,251.62a31.71,31.71,0,0,0-9.07-35,46.3,46.3,0,0,0-57.65-65.93,25.67,25.67,0,0,0-30.5-15.4,49.08,49.08,0,0,0-92.17-27.77,49.62,49.62,0,0,0-4.27,11,31.71,31.71,0,0,0-49.14,14.12c-6,16.43.38,31.82,16.35,39.7l182.54,97.87c.87.42,1.77.8,2.69,1.14C1524.69,277.45,1543.43,268.05,1549.48,251.62Z"/><path class="cls-7" d="M1540.49,216.71h-.08s-47.75,41.22-217.27-44.52c44.21,23.74,182.43,98.08,182.43,98.08.87.42,1.77.8,2.69,1.14,16.43,6.05,35.17-3.35,41.22-19.78A31.73,31.73,0,0,0,1540.49,216.71Z"/><path class="cls-8" d="M1436.49,104.24l.6.33a42.31,42.31,0,0,0-74.93,22.22A55,55,0,0,1,1436.49,104.24Z"/><path class="cls-9" d="M1117,393.25a92.86,92.86,0,0,0,66.16-105.94,94.15,94.15,0,0,0-6.1-20.36l-51-123.13-9.52,1.71-1.7.31-50.19,9-48.95,8.8-3,.53-8.19,1.47-5,133.21a94.18,94.18,0,0,0,1.37,21.21,92.88,92.88,0,0,0,97.59,76.39L1114,482.79a264,264,0,0,0-54.07,22.3l1.33,7.42,66.15-11.89,66.15-11.88-1.34-7.42a264.46,264.46,0,0,0-59.7-2Z"/><path class="cls-10" d="M1162.27,258.88l-151.7,27.25-.41,9.81a81.73,81.73,0,0,0,95.67,84.6c44.19-7.94,73.56-50.35,65.59-94.73a82.28,82.28,0,0,0-5.35-17.88Z"/><g class="cls-4"><path d="M1183.18,287.31a94.15,94.15,0,0,0-6.1-20.36l-28.34-68.36s36.4,145.84-119.07,173.77h0a92.46,92.46,0,0,0,68.78,24.1L1114,482.79a264,264,0,0,0-54.07,22.3l1.33,7.42,66.15-11.89,66.15-11.88-1.34-7.42a264.46,264.46,0,0,0-59.7-2L1117,393.25A92.86,92.86,0,0,0,1183.18,287.31Z"/></g><path class="cls-11" d="M1013,252.83l2.95-61.55a21.33,21.33,0,0,1,17.54-20l17.27-3.11S1019.81,180.77,1013,252.83Z"/><g class="cls-4"><path d="M1192.18,481.32a264.48,264.48,0,0,0-58.57-2.08s31.64-.42,47.85,11.66l12.06-2.16Z"/></g><polygon class="cls-12" points="709.67 511.36 708.54 483.52 649.52 462.43 644.27 481.95 676.19 505.51 635.64 584.33 607 585.54 605 601.54 587 669.54 647 697.54 660.48 583.97 710.65 535.3 709.67 511.36"/><polygon class="cls-12" points="639.51 481.39 664.98 508.88 629.39 570.96 601.44 569.36 590.72 545.67 625.53 480.59 639.51 481.39"/><polygon class="cls-13" points="74 605.54 98 426.54 41 361.54 62 314.54 125 303.54 129 325.54 99.25 344.57 125.13 392.27 140.28 406.18 182.95 409.9 165 440.54 177 605.54 74 605.54"/><polygon class="cls-13" points="148 316.54 115 341.54 140 388.54 179 394.54 183 368.54 148 316.54"/><polygon class="cls-14" points="460 986.54 566 647.54 665 697.54 649 986.54 460 986.54"/><path class="cls-15" d="M1151,450.54l3-52-11-15.68-21.73,8.76-.27-.08-107-39-16,23,61,60,39,26s-22,249-18,248,109-3,109-3S1158.05,516.82,1151,450.54Z"/><polygon class="cls-16" points="229 986.54 194.78 586.1 56.71 558.49 0 986.54 229 986.54"/><polygon class="cls-17" points="183 551.54 72 521.54 67 560.54 183 584.54 183 551.54"/><polygon class="cls-18" points="1025 986.54 1077 594.54 1189 608.54 1227 986.54 1025 986.54"/><path class="cls-19" d="M1498.7,477.62l11.94-36.74,8.57-15-12.85-51.23-11.51,5.77,0-.29-18.56-2.42-10.5,18.89-7.47-9.41-18,2.09L1437,399l-5.38-13.74-13.61,7.37,8.07,19-.71.23-5.57,49.36,3,14.33,2.11,23.07-54,227,149.07-7L1494.92,488.9Z"/><polygon class="cls-20" points="1359 718.54 1530 718.54 1540 850.54 1577 986.54 1319 986.54 1359 718.54"/><path class="cls-21" d="M1062.25,705.71S1035,595.54,1030,588.54s33-18,33-18,19,25,39,18,32,3,40,6,33-11,37-15,41,17,39,23-21.67,78.87-21.67,78.87Z"/><path class="cls-9" d="M852.16,253.42a93.14,93.14,0,0,0,124.2-64.29l33.78-128.95-8.62-4.4L1000,55,954.55,31.84,910.24,9.25l-2.71-1.38-7.4-3.78L815.62,107.18a93.14,93.14,0,0,0,19.82,137.56L795.6,322.89A263.89,263.89,0,0,0,739.05,308l-3.42,6.71L795.5,345.2l59.87,30.53L858.8,369a264.87,264.87,0,0,0-46.36-37.68Z"/><path class="cls-10" d="M969.44,173.74l-137.31-70-6.26,7.57a82,82,0,0,0-10.29,15.56c-20.48,40.17-4.65,89.27,35.36,109.66s89,4.37,109.52-35.8A82.63,82.63,0,0,0,967,183.25Z"/><g class="cls-4"><path d="M968.91,209a93.46,93.46,0,0,0,7.45-19.9l18.76-71.6S936,255.71,795.22,184h0a92.4,92.4,0,0,0,40.22,60.77L795.6,322.89A263.89,263.89,0,0,0,739.05,308l-3.42,6.71L795.5,345.2l59.87,30.53L858.8,369a264.87,264.87,0,0,0-46.36-37.68l39.72-77.91A92.86,92.86,0,0,0,968.91,209Z"/></g><path class="cls-11" d="M854.18,78.67l39.56-47.25a21.33,21.33,0,0,1,26-5.31l15.64,8S903.19,25.4,854.18,78.67Z"/><g class="cls-4"><path d="M858.8,369a265.45,265.45,0,0,0-45.4-37.07s25.46,18.8,31.06,38.23l10.91,5.56Z"/></g><polygon class="cls-22" points="829 331.54 802 271.54 802 205.72 824 219.54 836.82 263.19 969 202.54 982 217.54 895 331.54 913 582.54 796 582.54 829 331.54"/><polygon class="cls-23" points="736 986.54 760 517.54 807 469.54 910 500.54 947 546.54 980 986.54 736 986.54"/><path class="cls-24" d="M824,341.54s32,19,76,3.15l2,16.55s-43,17.3-81-3.94Z"/><polygon class="cls-25" points="807 469.54 812 424.54 910 440.54 910 500.54 807 469.54"/><polygon class="cls-26" points="816.67 425.31 812.99 471.35 821.27 473.84 823.62 426.44 816.67 425.31"/><polygon class="cls-26" points="831.14 427.67 827.44 475.7 835.09 478 838.06 428.8 831.14 427.67"/><polygon class="cls-26" points="845.24 429.97 845.24 481.05 853.11 483.42 852.22 431.11 845.24 429.97"/><polygon class="cls-26" points="860 432.54 858.82 485.44 866.18 487.66 869.15 434.04 860 432.54"/><polygon class="cls-26" points="877.16 435.35 877.16 490.96 886.01 493.63 886.01 436.79 877.16 435.35"/><polygon class="cls-26" points="893.57 438.02 893.57 495.9 902.08 498.46 903.81 439.7 893.57 438.02"/></g></g></svg>