<svg xmlns="http://www.w3.org/2000/svg" viewBox="0 0 395.62 432.85"><defs><style>.cls-1{fill:#263238;}.cls-2{fill:#fafafa;}.cls-3{fill:#ff725e;}.cls-4{fill:#b5836d;}.cls-5{fill:#7f594b;}.cls-6{fill:#455a64;}.cls-7{opacity:0.3;}.cls-8{fill:#fff;}.cls-9{fill:#ffbe8d;}.cls-10{opacity:0.2;}.cls-11{fill:#eb996e;}</style></defs><title>eating</title><g id="Layer_2" data-name="Layer 2"><g id="Box"><path class="cls-1" d="M395.62,432.44c0,.15-88.57.26-197.8.26S0,432.59,0,432.44s88.55-.26,197.82-.26S395.62,432.3,395.62,432.44Z"/><polygon class="cls-2" points="325.44 32.06 300.7 0.32 294.64 40.24 261.99 39.13 282.42 65.96 261.86 92.94 295.91 86.23 300.83 120.49 328.36 93.69 363.06 117.81 355.47 82.74 394.85 76.55 364.22 58.47 382.07 27.67 351.46 39.64 347.74 1.66 325.44 32.06"/><path class="cls-1" d="M325.44,32.06c.55-.74,8-11,22.2-30.48l.2-.27,0,.33c1,10.49,2.31,23.33,3.77,38l-.24-.14,30.6-12,.54-.21-.29.5L364.41,58.58l-.08-.3L395,76.34l.57.34-.66.1L355.51,83l.2-.3c2.42,11.17,5,23,7.61,35.07l.14.64-.54-.38L332,96.55l-3.8-2.64.33,0L301,120.67l-.36.35-.08-.5q-2.51-17.52-4.91-34.25l.3.21-34,6.7-.62.12.38-.5,20.57-27v.27L261.83,39.26l-.27-.35.44,0,32.65,1.13-.19.15Q298,16.92,300.57.3l0-.3.19.24q23.77,30.71,24.64,31.82L300.59.4l.24-.06q-2.5,16.59-6,39.92l0,.16h-.16L262,39.34l.17-.33L282.6,65.83l.1.13-.1.14-20.55,27-.24-.38L295.86,86l.26-.06,0,.27q2.4,16.71,4.92,34.25l-.43-.15,27.53-26.79.16-.15.17.12,3.81,2.64,30.89,21.48-.4.27C360.2,105.8,357.64,94,355.22,82.8l-.06-.26.27,0,39.38-6.19-.08.44L364.1,58.66l-.19-.11.11-.19L381.9,27.57l.25.29L351.53,39.8l-.22.09,0-.23c-1.42-14.66-2.66-27.51-3.67-38l.22.06Z"/><path class="cls-3" d="M344.06,57.38a12.18,12.18,0,0,0-3.1-6.65,11.68,11.68,0,0,0-6.1-3.8,9.49,9.49,0,0,0-10.46,4.82,9.47,9.47,0,0,0-10.2-4.56,11.73,11.73,0,0,0-6.14,3.74,12.21,12.21,0,0,0-3.18,6.62,14.89,14.89,0,0,0,1.81,9.16,21,21,0,0,0,7.21,6.83c4.72,2.88,10.94,6.48,10.94,6.48s5.29-3.91,10-6.74a21.11,21.11,0,0,0,7.29-6.76A14.83,14.83,0,0,0,344.06,57.38Z"/><circle class="cls-2" cx="252.43" cy="67.68" r="7.28"/><path class="cls-1" d="M259.7,67.68c-.05,0,0-.65-.32-1.75A7.27,7.27,0,0,0,256.72,62a7.06,7.06,0,0,0-6.69-1,7,7,0,0,0-3.26,2.46,7,7,0,0,0,0,8.3A7,7,0,0,0,250,74.29a7.13,7.13,0,0,0,6.69-1,7.27,7.27,0,0,0,2.66-3.89c.29-1.1.27-1.75.32-1.75a1.43,1.43,0,0,1,0,.47,5.9,5.9,0,0,1-.15,1.33A7.38,7.38,0,0,1,253.81,75a7.56,7.56,0,0,1-3.94-.3,7.44,7.44,0,0,1-3.51-2.61,7.47,7.47,0,0,1,0-8.9,7.44,7.44,0,0,1,3.51-2.61,7.56,7.56,0,0,1,3.94-.3,7.38,7.38,0,0,1,5.77,5.56,5.9,5.9,0,0,1,.15,1.33A1.43,1.43,0,0,1,259.7,67.68Z"/><path class="cls-1" d="M199.76,68.73c3.23-7.9-.56-17.5-7.4-22.6s-16-6.24-24.42-5-16.36,4.75-24.17,8.18A27.22,27.22,0,0,0,97.46,64.13,17.3,17.3,0,0,0,76.82,86.72l38.07,13.65L156.09,174c12.11,10.48,32,10.32,44-.34s14.38-30.44,5.35-43.67a28.65,28.65,0,0,0,5.9-7.21c6.63-4,11.84-10.37,13.6-18C228.67,88.67,216.16,70.76,199.76,68.73Z"/><path class="cls-4" d="M173.51,221.41c-2.29-11.95-3.89-20.13-3.87-20s22.56-8.61,21.21-40.05C190.18,145.67,184.38,121,179,101c-4.86-18-21.52-38-39.33-32.37L85.71,94.49c-5.41,1.7-6.39,6.77-5.15,12.31l.07,2.7L101,196.18l8.58,38.74a32.69,32.69,0,0,0,36.32,25h0A32.7,32.7,0,0,0,173.51,221.41Z"/><path class="cls-1" d="M174.1,131.44a4,4,0,0,1-3,4.7,3.81,3.81,0,0,1-4.74-2.7,4,4,0,0,1,3-4.71A3.81,3.81,0,0,1,174.1,131.44Z"/><path class="cls-1" d="M175.86,118.18c-.39.6-3.79-1-8-.12s-6.85,3.59-7.42,3.17c-.27-.18,0-1.2,1.19-2.45a10.91,10.91,0,0,1,5.8-3.17,10.5,10.5,0,0,1,6.49.73C175.42,117.07,176.05,117.9,175.86,118.18Z"/><path class="cls-1" d="M137.43,137.76a4,4,0,0,1-3,4.71,3.81,3.81,0,0,1-4.74-2.71,4,4,0,0,1,3-4.7A3.81,3.81,0,0,1,137.43,137.76Z"/><path class="cls-1" d="M135.56,125.52c-.39.61-3.79-1-8-.11s-6.86,3.59-7.42,3.17c-.27-.19,0-1.21,1.19-2.46a11,11,0,0,1,5.8-3.17,10.57,10.57,0,0,1,6.49.73C135.12,124.41,135.75,125.25,135.56,125.52Z"/><path class="cls-1" d="M156.64,152.21c-.07-.23,2.45-1.21,6.58-2.61,1.05-.33,2-.75,2.05-1.52s-.59-1.89-1.36-3c-1.54-2.39-3.14-4.9-4.83-7.53-6.77-10.74-11.91-19.66-11.47-19.93s6.28,8.22,13,19q2.47,4,4.71,7.61c.66,1.14,1.64,2.38,1.42,4.1a2.78,2.78,0,0,1-1.45,1.93,7.54,7.54,0,0,1-1.77.62C159.34,151.89,156.71,152.45,156.64,152.21Z"/><path class="cls-5" d="M169.64,201.36a79.08,79.08,0,0,1-43-2.6s14.66,19.41,44.56,10.37Z"/><path class="cls-1" d="M133.27,114.11c-.28,1.21-4.6,1.15-9.53,2.33s-8.82,3-9.6,2c-.35-.46.22-1.63,1.72-2.94a17,17,0,0,1,14.58-3.33C132.36,112.74,133.39,113.54,133.27,114.11Z"/><path class="cls-1" d="M173.49,105.89c-.68,1.13-4.31.83-8.43,1.62s-7.48,2.19-8.49,1.35c-.45-.41-.09-1.48,1.25-2.69a13.56,13.56,0,0,1,6.53-3,13.36,13.36,0,0,1,7.1.56C173.11,104.46,173.78,105.34,173.49,105.89Z"/><path class="cls-1" d="M99.07,74.35A21.26,21.26,0,0,0,127.8,90c4.48-1.79,9.11-5.16,13.64-3.49,4.76,1.76,6.22,8.11,10.63,10.62,6.31,3.58,14-2.51,21.2-1.85,5.58.5,9.88,4.88,14.23,8.41s10.39,6.51,15.34,3.89c-1.28-4.67-2.59-9.39-4.91-13.64s-5.77-8-10.27-9.84c-2.47-1-5.17-1.34-7.52-2.57-5.08-2.65-7.33-8.59-11-13A23.28,23.28,0,0,0,149.4,60.5c-6.12.59-11.93,3.63-18.07,3.33-4.54-.22-8.87-2.27-13.41-2.22-8.85.09-15.54,7.79-20.5,15.12"/><path class="cls-1" d="M128.78,81c-4-.33-12.36-1.24-15.07-4.14-5.89-6.3-14.72-9.64-22.65-7.59A19.66,19.66,0,0,0,76.76,88C67.08,90,58.84,98,56,108.1a32.79,32.79,0,0,0,6.86,29.71,58.64,58.64,0,0,1,4.59,6.73,47.81,47.81,0,0,0-5.07,7.59C55.86,166.37,73.33,172,73.33,172c0,9.6,8.84,9.62,14.52,9.63,5.46,0,8.72,15.16,13.14,14.6L96.8,149.4a6.1,6.1,0,0,0,2.07.39c10.7.26,8-20,4.61-25.27,3-4,6.12-8.12,8.1-12.86S113.77,95,112.14,90C115.87,89.49,130.55,81.15,128.78,81Z"/><path class="cls-4" d="M98.39,151.88c-1.63-6.41-9.56-9.32-14.53-4.95-2.72,2.41-4.36,6.46-2.7,13.29,4.44,18.2,21.8,10,21.7,9.46C102.8,169.35,100.29,159.4,98.39,151.88Z"/><path class="cls-5" d="M95.62,164.14c-.09,0-.26.3-.74.68a3.26,3.26,0,0,1-2.36.62c-2.09-.23-4.45-2.89-5.34-6.15a10.78,10.78,0,0,1-.22-4.76,3.76,3.76,0,0,1,1.79-3,1.65,1.65,0,0,1,2.08.41c.37.45.34.84.45.85s.31-.4,0-1.12a2.05,2.05,0,0,0-1-1,2.45,2.45,0,0,0-1.87,0c-1.38.44-2.33,2-2.62,3.63a11,11,0,0,0,.14,5.34c1,3.64,3.72,6.62,6.54,6.74a3.5,3.5,0,0,0,2.78-1.19C95.7,164.59,95.69,164.16,95.62,164.14Z"/><path class="cls-1" d="M66.25,117.14a4.42,4.42,0,0,1-.89-.51,21.17,21.17,0,0,1-2.33-1.8A21.76,21.76,0,0,1,56.87,106,17.15,17.15,0,0,1,56,98.47a15.51,15.51,0,0,1,3.21-8,12.37,12.37,0,0,1,8.35-4.63A11.47,11.47,0,0,1,77.22,89l-.8.55-.09-.19c-3.09-6.33-4-13.55-1.86-19.43s6.71-10,11.29-11.05a13.84,13.84,0,0,1,10.63,1.65,11,11,0,0,1,2.26,1.92,4.05,4.05,0,0,1,.6.85,16.8,16.8,0,0,0-3.06-2.45,13.67,13.67,0,0,0-10.25-1.29c-4.31,1.1-8.72,5-10.61,10.67s-1.12,12.55,1.89,18.7c0,.07.06.13.08.19l1.29,2.75-2.09-2.2a10.58,10.58,0,0,0-8.87-2.93A11.47,11.47,0,0,0,59.88,91a14.75,14.75,0,0,0-3.11,7.58,16.59,16.59,0,0,0,.75,7.17,22.45,22.45,0,0,0,5.77,8.82C65.11,116.29,66.3,117.06,66.25,117.14Z"/><path class="cls-5" d="M145.35,160.07a17,17,0,0,0-.27,6.8,8.47,8.47,0,0,0,3.59,5.62,8.86,8.86,0,0,0,6.57.85h.07a6.36,6.36,0,0,0,4.87-5.92l.27-5.86C156.38,161.21,149.42,160.4,145.35,160.07Z"/><path class="cls-1" d="M160,170.86c0,.07-.45.38-1.27,1a13.81,13.81,0,0,1-1.58,1.1,7.6,7.6,0,0,1-2.45.85,10.17,10.17,0,0,1-3.15.12,7.59,7.59,0,0,1-3.45-1.25,9.46,9.46,0,0,1-3.75-7.25,19.74,19.74,0,0,1,.5-5.48l.09-.44.44,0c4.36.45,8.13.89,10.81,1.24a20.71,20.71,0,0,1,4.25.74,21.31,21.31,0,0,1-4.31-.1c-2.69-.18-6.47-.48-10.83-.88l.53-.4a19.66,19.66,0,0,0-.44,5.19,8.67,8.67,0,0,0,3.26,6.55,8.3,8.3,0,0,0,5.93,1.18,7.69,7.69,0,0,0,2.31-.64c.64-.3,1.16-.66,1.62-.92C159.42,171,160,170.8,160,170.86Z"/><path class="cls-5" d="M144.85,152.44a23.69,23.69,0,0,0-3.56-3.38,16.57,16.57,0,0,0-4.71-2.38A15.25,15.25,0,0,0,124.09,148,16.65,16.65,0,0,0,120,151.3a24.07,24.07,0,0,0-2.77,4,5.72,5.72,0,0,1,.49-1.24,14.29,14.29,0,0,1,2-3,15.8,15.8,0,0,1,21.81-2.29,14.28,14.28,0,0,1,2.6,2.56A5.89,5.89,0,0,1,144.85,152.44Z"/><path class="cls-5" d="M145.35,160.07a17,17,0,0,0-.27,6.8,8.47,8.47,0,0,0,3.59,5.62,8.86,8.86,0,0,0,6.57.85h.07a6.36,6.36,0,0,0,4.87-5.92l.27-5.86C156.38,161.21,149.42,160.4,145.35,160.07Z"/><path class="cls-1" d="M160,170.86c0,.07-.45.38-1.27,1a13.81,13.81,0,0,1-1.58,1.1,7.6,7.6,0,0,1-2.45.85,10.17,10.17,0,0,1-3.15.12,7.59,7.59,0,0,1-3.45-1.25,9.46,9.46,0,0,1-3.75-7.25,19.74,19.74,0,0,1,.5-5.48l.09-.44.44,0c4.36.45,8.13.89,10.81,1.24a20.71,20.71,0,0,1,4.25.74,21.31,21.31,0,0,1-4.31-.1c-2.69-.18-6.47-.48-10.83-.88l.53-.4a19.66,19.66,0,0,0-.44,5.19,8.67,8.67,0,0,0,3.26,6.55,8.3,8.3,0,0,0,5.93,1.18,7.69,7.69,0,0,0,2.31-.64c.64-.3,1.16-.66,1.62-.92C159.42,171,160,170.8,160,170.86Z"/><path class="cls-5" d="M144.85,152.44a23.69,23.69,0,0,0-3.56-3.38,16.57,16.57,0,0,0-4.71-2.38A15.25,15.25,0,0,0,124.09,148,16.65,16.65,0,0,0,120,151.3a24.07,24.07,0,0,0-2.77,4,5.72,5.72,0,0,1,.49-1.24,14.29,14.29,0,0,1,2-3,15.8,15.8,0,0,1,21.81-2.29,14.28,14.28,0,0,1,2.6,2.56A5.89,5.89,0,0,1,144.85,152.44Z"/><path class="cls-6" d="M86.48,169.54a9.34,9.34,0,0,0-4.8,7.81,13.46,13.46,0,0,0,.1,4.76A10.61,10.61,0,0,0,84.2,187a12.42,12.42,0,0,0,4.94,3.38,10.74,10.74,0,0,0,6.36.49,11.26,11.26,0,0,0,5.59-3.11,11.12,11.12,0,0,0,2.85-5.24,12.17,12.17,0,0,0-1.75-9.81,9.36,9.36,0,0,0-5.66-3.72,9.78,9.78,0,0,0-2.56-.12,2.23,2.23,0,0,1,.66-.14,7.27,7.27,0,0,1,1.93.06,9.43,9.43,0,0,1,5.93,3.7,12.47,12.47,0,0,1,1.91,10.14,11.53,11.53,0,0,1-3,5.49,11.76,11.76,0,0,1-5.83,3.26,11.23,11.23,0,0,1-6.66-.52,12.72,12.72,0,0,1-5.12-3.55,11.08,11.08,0,0,1-2.49-5.06,13.52,13.52,0,0,1,0-4.91,11.28,11.28,0,0,1,3-6.36,7.36,7.36,0,0,1,1.56-1.13A2.9,2.9,0,0,1,86.48,169.54Z"/><path class="cls-6" d="M105.54,216.7,77.4,227.18,58.11,284.24l27.63,95.64L69.48,432.43H237.56l-15.38-46c2.45-17,13.3-56.35,11.81-74.63-3.21-39.58-18.87-95.52-18.87-95.52l-43.19-2.13C162,239.62,117.53,241.56,105.54,216.7Z"/><g class="cls-7"><path d="M162.81,229.72s.22.46.62,1.25c1.92,3.81,7.95,15.28,12.47,18.86,5.46,4.33,12,10,12,10,6.43,41.69,19.12,77.76,36.63,109.47L213.36,311.2,194.55,242,163,230.18"/></g><g class="cls-7"><path d="M109,377.62,73.29,427.68c19.79-5,38.43-17.07,47.84-35.19,1.12-2.14,2.17-4.4,4-6,3.36-3,8.25-4.46,12.52-5.83,13.28-4.26,19.34-8.85,24.23-18.53C149.55,377.87,127.3,383.45,109,377.62Z"/></g><path class="cls-6" d="M214.43,216.45s11.3-2.44,26.16,16.43c13,16.51,29.27,42.65,29.27,42.65L230.71,292.3l-16.09-70Z"/><path class="cls-6" d="M17.41,315.93s13.48-64.58,26.75-74.77c13.53-10.38,41.58-16.67,41.58-16.67L84.43,332.13Z"/><path class="cls-1" d="M72.69,270.69a3.3,3.3,0,0,1,.2.58c.12.38.28,1,.47,1.69.38,1.48.9,3.62,1.43,6.3a180,180,0,0,1,2.85,21.09,173.15,173.15,0,0,1,.41,21.29c-.07,2.72-.28,4.92-.4,6.44-.06.71-.12,1.29-.16,1.75a2.49,2.49,0,0,1-.09.6,2.59,2.59,0,0,1,0-.61c0-.46,0-1,.06-1.75,0-1.53.21-3.72.23-6.44a200.11,200.11,0,0,0-.56-21.24,206.79,206.79,0,0,0-2.7-21.06c-.47-2.68-.93-4.83-1.25-6.32-.16-.7-.28-1.27-.38-1.71A2.74,2.74,0,0,1,72.69,270.69Z"/><path class="cls-1" d="M171.59,334.25a2.63,2.63,0,0,1,0,.61c0,.4,0,1,0,1.76a40.56,40.56,0,0,1-.73,6.42,44.07,44.07,0,0,1-25.61,32.18,41.84,41.84,0,0,1-6.1,2.15c-.73.21-1.32.31-1.71.4a2.71,2.71,0,0,1-.6.1,2.1,2.1,0,0,1,.58-.2c.38-.12,1-.25,1.68-.5a46.48,46.48,0,0,0,6-2.29A44.94,44.94,0,0,0,170.53,343a47.13,47.13,0,0,0,.89-6.36c.07-.76.07-1.35.1-1.75A2.7,2.7,0,0,1,171.59,334.25Z"/><path class="cls-8" d="M73,278a10.36,10.36,0,0,1-1.39-1c-.87-.67-2.15-1.59-3.75-2.71a104.62,104.62,0,0,0-13.1-7.75,103.56,103.56,0,0,0-14.12-5.69c-1.86-.59-3.37-1-4.42-1.33a12.16,12.16,0,0,1-1.62-.51,10.48,10.48,0,0,1,1.67.31c1.07.23,2.6.63,4.48,1.18A89.82,89.82,0,0,1,68.1,274c1.58,1.16,2.83,2.14,3.66,2.85A10.45,10.45,0,0,1,73,278Z"/><path class="cls-8" d="M172.39,241.8l-.24.06-.73.13-2.8.46L158.3,244.1c-8.7,1.4-20.71,3.42-33.94,5.88s-25.17,4.89-33.79,6.71l-10.22,2.16-2.78.58-.72.14a.84.84,0,0,1-.26,0,.75.75,0,0,1,.24-.08l.72-.19,2.76-.67c2.4-.58,5.87-1.38,10.18-2.33,8.61-1.91,20.54-4.4,33.78-6.86s25.26-4.42,34-5.73c4.36-.66,7.89-1.16,10.34-1.49l2.81-.36.74-.08A.69.69,0,0,1,172.39,241.8Z"/><path class="cls-8" d="M239.62,233.46c.1.09-2.89,3.66-6.69,8s-7,7.72-7.08,7.62a103.38,103.38,0,0,1,6.69-8A102.56,102.56,0,0,1,239.62,233.46Z"/><path class="cls-4" d="M108.7,313.26l-34,41.39.62-25L26.55,318.13s-.21,14-.12,43.49c0,7.86,2.32,33.8,5.54,45.85,4.15,15.58,32.29,29.61,48.11,16.11,13.68-11.67,58.31-99.38,58.31-99.38Z"/><path class="cls-5" d="M108.7,313.26a3,3,0,0,1-.4.62c-.27.4-.69,1-1.26,1.7-1.11,1.46-2.77,3.53-4.84,6.07-4.14,5.08-9.93,12-16.33,19.72L69.5,361.06c-2,2.51-3.71,4.55-4.91,6l-1.31,1.65a4.77,4.77,0,0,1-.49.55,3.37,3.37,0,0,1,.4-.62l1.24-1.7c1.11-1.46,2.74-3.56,4.78-6.12,4.1-5.12,9.86-12.11,16.26-19.79Z"/><path class="cls-5" d="M177.35,261.6a14.06,14.06,0,0,0-7.18,10.87c-.61,7.58,0,27.07,0,27.07l11.28-1.44Z"/><path class="cls-9" d="M176.39,280.52c-.26-4.21-1-8.51-3.08-12.16a24.69,24.69,0,0,0-6.82-7.22,35.83,35.83,0,0,0-10.12-5.38,30.21,30.21,0,0,0-39,34.8l-.07-.29c0,.22.09.44.14.65s0,.24.08.36c1.51,7.09,3.77,12.86,9.37,17.65,3.67,3.15,8.49,4.62,13.23,5.56,7.3,1.43,15.2,1.7,21.83-1.68,5.56-2.83,9.7-8.05,12-13.86A43.3,43.3,0,0,0,176.39,280.52Z"/><path class="cls-3" d="M175.84,276.05c.48,3.9-1.81,7.63-3.24,11.3-.93,2.37-2,4.92-4.21,6.18-1.63.93-3.66,1-5.16,2.13-1.23.92-1.94,2.41-3.19,3.3-3,2.11-7.4-.12-10.67,1.51a20.48,20.48,0,0,0-2.71,2,3.8,3.8,0,0,1-3.12.85c-1.28-.34-2-1.65-3.17-2.34-1.42-.86-3.21-.63-4.88-.67a14.08,14.08,0,0,1-12.39-8.61s-2.66,3.3-4,2a7.57,7.57,0,0,1-1.81-3.39l.07.29a30.21,30.21,0,0,1,39-34.8,35.83,35.83,0,0,1,10.12,5.38,24.69,24.69,0,0,1,6.82,7.22A20.93,20.93,0,0,1,175.84,276.05Z"/><g class="cls-7"><path class="cls-8" d="M170.34,271.21a7.9,7.9,0,0,0-1.46-2.89,28,28,0,0,0-14.6-10.44c-5.83-1.75-11.65-.82-17.33,1.36a2.63,2.63,0,0,0-1.88,3.19,4,4,0,0,0,2.88,2.71,8.66,8.66,0,0,0,4.11-.05,38.5,38.5,0,0,1,4.06-.84,14.89,14.89,0,0,1,9.3,2.57,67.23,67.23,0,0,1,7.69,6.12,9.45,9.45,0,0,0,3.07,1.94,3.4,3.4,0,0,0,3.42-.63A3.32,3.32,0,0,0,170.34,271.21Z"/></g><g class="cls-7"><path class="cls-8" d="M149.42,284.63h0c-2.66-.73-5.38.67-7.86,1.87s-5.5,2.22-7.89.84c-2.16-1.26-3.38-4.29-5.88-4.38a3.65,3.65,0,0,0-3.4,2.87,6.73,6.73,0,0,0,.8,4.64,12.39,12.39,0,0,0,12.86,6.3c2.38-.43,4.61-1.58,7-1.81,2.15-.21,4.62.22,6.19-1.26,1.25-1.18,2.44-2.1,3-4.57C154.63,287.23,153.75,285.44,149.42,284.63Z"/></g><g class="cls-7"><path class="cls-8" d="M162.71,284.9c-.37-1.37-2.18-2.06-3.6-1.94H159a2.87,2.87,0,0,0-1.66,4.14,3,3,0,0,0,3.65,1.32A3,3,0,0,0,162.71,284.9Z"/></g><g class="cls-7"><path d="M138.58,283.22a16.46,16.46,0,0,1,15.43-.91,13.52,13.52,0,0,1,7.22-3.9,15.95,15.95,0,0,0-25.14-4.23c-1.54,1.46-2.85,3.63-2.11,5.62.65,1.71,2.53,2.56,4.23,3.23"/></g><path class="cls-1" d="M165.74,278.67a17.51,17.51,0,0,0-3.69-.22,10.43,10.43,0,0,0-3.85,1.17,32.62,32.62,0,0,0-4.28,2.79l-.11.08-.13-.05a21.45,21.45,0,0,0-2.14-.66,17.53,17.53,0,0,0-5.81-.46,18.72,18.72,0,0,0-4.67,1.07c-2.58,1-4,1.94-4.06,1.85a4.9,4.9,0,0,1,1-.71,20.14,20.14,0,0,1,2.94-1.48,18,18,0,0,1,4.76-1.21,17.5,17.5,0,0,1,6,.43,21.63,21.63,0,0,1,2.19.69l-.24,0a31,31,0,0,1,4.37-2.78,10.59,10.59,0,0,1,4-1.1,10.28,10.28,0,0,1,2.77.24A3.34,3.34,0,0,1,165.74,278.67Z"/><path class="cls-1" d="M161.16,277.92a21.9,21.9,0,0,0-3.42-3.93,16.32,16.32,0,0,0-4.83-2.86,15.19,15.19,0,0,0-6.76-.93,16.15,16.15,0,0,0-6.51,2.07,15.62,15.62,0,0,0-4.29,3.61,9.2,9.2,0,0,0-1.78,3.31c-.24.87-.23,1.38-.28,1.38s0-.13,0-.37a5.73,5.73,0,0,1,.12-1.06,8.89,8.89,0,0,1,1.69-3.49,15.26,15.26,0,0,1,4.34-3.8,16.3,16.3,0,0,1,6.71-2.17,15.22,15.22,0,0,1,7,1,16,16,0,0,1,4.9,3,15.12,15.12,0,0,1,2.52,3,9.51,9.51,0,0,1,.52.92C161.13,277.79,161.18,277.91,161.16,277.92Z"/><path class="cls-8" d="M122.52,289.08a5.67,5.67,0,0,1-.19-1.24,26.91,26.91,0,0,1-.17-3.41,37.47,37.47,0,0,1,.36-5.06,40.94,40.94,0,0,1,1.36-6.07,42.69,42.69,0,0,1,2.3-5.78,36.7,36.7,0,0,1,2.56-4.38,26.23,26.23,0,0,1,2.06-2.73,5.27,5.27,0,0,1,.86-.91c.08.06-1.08,1.42-2.61,3.84a42,42,0,0,0-2.44,4.39,47.41,47.41,0,0,0-2.24,5.72,46.16,46.16,0,0,0-1.37,6,42.2,42.2,0,0,0-.47,5C122.43,287.3,122.62,289.07,122.52,289.08Z"/><path class="cls-8" d="M130.44,298.42a10.74,10.74,0,0,1-.52-1.69,17.92,17.92,0,0,1-.47-2c-.14-.79-.36-1.68-.45-2.7s-.27-2.11-.31-3.3-.06-2.47-.05-3.81a48.77,48.77,0,0,1,1.14-8.65,47.82,47.82,0,0,1,2.78-8.28c.58-1.21,1.1-2.37,1.71-3.4s1.17-2,1.73-2.84,1.11-1.58,1.59-2.23a18.72,18.72,0,0,1,1.3-1.6,12.59,12.59,0,0,1,1.2-1.28,10.23,10.23,0,0,1-1,1.41c-.36.44-.78,1-1.23,1.65s-1,1.38-1.51,2.25-1.12,1.79-1.66,2.84-1.09,2.19-1.65,3.39a46.61,46.61,0,0,0-3.88,16.76c0,1.33-.07,2.59,0,3.77s.13,2.28.23,3.28.26,1.9.38,2.69a19,19,0,0,0,.38,2A11.86,11.86,0,0,1,130.44,298.42Z"/><path class="cls-8" d="M141.51,301.34a9.54,9.54,0,0,1-1.11-2.44,25.66,25.66,0,0,1-1-12.77,9.38,9.38,0,0,1,.7-2.58,23.53,23.53,0,0,1-.33,2.63,32,32,0,0,0-.14,6.36,33.24,33.24,0,0,0,1.16,6.25C141.21,300.36,141.58,301.31,141.51,301.34Z"/><path class="cls-8" d="M145.27,267.06a16,16,0,0,1,1.41-6.05,15.46,15.46,0,0,1,3.21-5.31c.13.09-1.47,2.36-2.73,5.51S145.43,267.09,145.27,267.06Z"/><path class="cls-8" d="M155.86,270.69a17.77,17.77,0,0,1,2.39-10.88c.14.06-.92,2.35-1.57,5.36S156,270.69,155.86,270.69Z"/><path class="cls-8" d="M154.55,298.78a6.12,6.12,0,0,1-1-1.66,25.25,25.25,0,0,1-2.59-9,5.76,5.76,0,0,1,0-2c.16,0,.34,3,1.36,6.46S154.69,298.71,154.55,298.78Z"/><path class="cls-8" d="M168.14,267.69a7.48,7.48,0,0,1-.39,1.29,20.59,20.59,0,0,0-.65,3.6A48.63,48.63,0,0,0,167,278a55.18,55.18,0,0,1-.13,6.73,18.47,18.47,0,0,1-.66,3.45,11.71,11.71,0,0,1-.59,1.59,2.43,2.43,0,0,1-.55.7,1.24,1.24,0,0,1-.91.27,2.21,2.21,0,0,1-1.32-1c-.31-.39-.59-.77-.85-1.15a20,20,0,0,1-1.31-2.22,18.22,18.22,0,0,1-1.33-3.46,4.72,4.72,0,0,1-.25-1.34,30.87,30.87,0,0,0,1.91,4.63,20.29,20.29,0,0,0,1.33,2.14c.27.36.55.74.86,1.11s.63.75,1,.8.73-.3,1-.74a10.15,10.15,0,0,0,.54-1.5,18.85,18.85,0,0,0,.63-3.36,58.52,58.52,0,0,0,.17-6.66,43.3,43.3,0,0,1,.24-5.49,17.35,17.35,0,0,1,.83-3.62A5.73,5.73,0,0,1,168.14,267.69Z"/><path class="cls-4" d="M184.31,284.91l-3.83-9.59s-3.69,1.85-3.49,8.41-1,8.62-1,8.62-3.9-.82-4.93,5.94S163.25,312,163.25,312L143,313.52s-11.71-4.15-16.43-8-3.28-9-4.3-18.46-7-4.92-7-4.92,1,8.41-1.64,16-4.92,14.35-4.92,15.17l19.69,18.87a13.11,13.11,0,0,1,11.89-7.59s28.3.21,31.38-2.05,4.31-7.38,4.31-7.38,6.75-9.82,8.59-12.82C186.92,298.42,184.31,284.91,184.31,284.91Z"/><path class="cls-5" d="M175,292.91s.06-.07.21-.17a1.91,1.91,0,0,1,.76-.2,3,3,0,0,1,2.49,1.29,6.07,6.07,0,0,1,.78,4.1c-.13,1.55-.3,3.25-.5,5a67,67,0,0,1-1.57,9.05c-.29,1.14-.59,2.05-.8,2.67a4.28,4.28,0,0,1-.4.94c-.09,0,.35-1.41.84-3.69a91,91,0,0,0,1.41-9c.19-1.77.37-3.45.54-5a5.87,5.87,0,0,0-.6-3.85,2.91,2.91,0,0,0-2.19-1.3A3.87,3.87,0,0,0,175,292.91Z"/><path class="cls-5" d="M125.75,334.77a9,9,0,0,1,1.31-2.32,23,23,0,0,1,4.39-4.7,19,19,0,0,1,3-2,12.92,12.92,0,0,1,2.73-1,7.5,7.5,0,0,1,1.1-.21,4.46,4.46,0,0,1,.84-.06,2.28,2.28,0,0,1,.72.06c0,.1-1,.09-2.56.57a13.56,13.56,0,0,0-2.6,1.1,22.75,22.75,0,0,0-2.88,1.94,28.64,28.64,0,0,0-4.42,4.52C126.35,334,125.82,334.81,125.75,334.77Z"/><path class="cls-9" d="M208.06,167a12.61,12.61,0,0,1,7.27,8.83c1.61,6.74-1.24,11.32-4.46,14.34-3.05,2.84-17,16.23-28,17.51s-17.79,2.34-25-2.92c-6.41-4.67-5.83-14.52,0-19.66s19.32-13,26.18-16.87S201.85,162.64,208.06,167Z"/><path class="cls-3" d="M209.85,171.53a7,7,0,0,1-4.35,5.17c-2.31.83-5,1.46-6.23,3.61-.76,1.36-.9,3.31-2.34,3.92-1.18.5-2.61-.22-3.77.31-2.53,1.14-.4,5.89-2.72,7.41-1.29.85-3,0-4.26-.91s-2.75-2-4.22-1.47c-2.31.79-2.12,4.51-4.24,5.73-1.23.72-2.81.3-4.08-.35a13.55,13.55,0,0,0-3.88-1.76,8.21,8.21,0,0,0-4.83,1.19,11.42,11.42,0,0,1-4.76,1.58c-1.69,0-5.11-1-5.18-2.66,0,0-2.51-2.85,2.89-8.17,4.13-4.08,18.13-12.5,18.13-12.5s13.35-9.66,25.17-8.18C201.18,164.45,211.36,165.33,209.85,171.53Z"/><path class="cls-1" d="M195.49,174.1c0,.08-1.38.67-3.49,2s-4.83,3.38-8,5.53a27.18,27.18,0,0,1-8.79,4.21,13.78,13.78,0,0,1-2.94.39,3.82,3.82,0,0,1-1.08-.06,32.61,32.61,0,0,0,3.93-.69,29.8,29.8,0,0,0,8.59-4.28c3.11-2.14,5.88-4.2,8.08-5.41a22.76,22.76,0,0,1,2.64-1.32A3.89,3.89,0,0,1,195.49,174.1Z"/><g class="cls-7"><path d="M195.48,170.3a3.38,3.38,0,0,0-2,.15c-4.79,1.43-8.62,4.94-12.47,8.13s-8.19,6.29-13.18,6.61a9.75,9.75,0,0,0,6.76.62c8.73-2.61,13.79-9,20.86-11.71a2.47,2.47,0,0,0,1.36-2.07A2.22,2.22,0,0,0,195.48,170.3Z"/></g><path class="cls-8" d="M160.44,194.75a2.27,2.27,0,0,1-1.54.18,4.33,4.33,0,0,1-3.57-5.73,2.45,2.45,0,0,1,.84-1.31c.08.05-.28.53-.48,1.41a4.23,4.23,0,0,0,3.27,5.26C159.84,194.77,160.43,194.66,160.44,194.75Z"/><path class="cls-8" d="M175.68,194a4,4,0,0,1-2.33-.35c-1.24-.44-2.11-1.08-2-1.2a8.58,8.58,0,0,1,2.21.7A8.34,8.34,0,0,1,175.68,194Z"/><path class="cls-8" d="M181.58,184a5.58,5.58,0,0,1-1.67,1.06,18.65,18.65,0,0,1-9.26,1.91,5.63,5.63,0,0,1-2-.31,42.75,42.75,0,0,0,6.6-.56A43.78,43.78,0,0,0,181.58,184Z"/><path class="cls-8" d="M188.56,190.17c0,.14-.93.29-2-.19s-1.54-1.29-1.42-1.37.72.49,1.64.9S188.56,190,188.56,190.17Z"/><path class="cls-8" d="M196.31,182.23c0,.15-.39.28-.87.3s-.88-.09-.89-.23.38-.28.87-.29S196.3,182.09,196.31,182.23Z"/><path class="cls-8" d="M207.34,172.93c.06,0,0,.5-.41,1.16a5.52,5.52,0,0,1-2.25,1.94,10.08,10.08,0,0,1-2.81.85c-.73.12-1.19.14-1.21.07s.42-.22,1.13-.43a16.66,16.66,0,0,0,2.66-1,6.56,6.56,0,0,0,2.18-1.68C207.09,173.33,207.27,172.9,207.34,172.93Z"/><g class="cls-10"><path class="cls-8" d="M181.92,169.88l-1.11.75Z"/><path class="cls-8" d="M181.92,169.88Z"/><path class="cls-8" d="M204.3,166.07a6.44,6.44,0,0,0-3.68-1.08,31.34,31.34,0,0,0-18.7,4.89,6.45,6.45,0,0,0-1.93,1.75,1.8,1.8,0,0,0,.31,2.39c.8.56,1.89.17,2.76-.27,2.88-1.46,5.61-3.28,8.67-4.3s6.65-1.17,9.34.62c.86.58,1.73,1.37,2.76,1.26a2.4,2.4,0,0,0,1.84-2.58A3.61,3.61,0,0,0,204.3,166.07Z"/></g><g class="cls-10"><path class="cls-8" d="M176.61,188.94a1.53,1.53,0,0,0-.6-.16l-7.95-.91c-2.47-.29-5-.56-7.39.18a2.67,2.67,0,0,0-2.35,2.34,2.08,2.08,0,0,0,2.12,2,5.55,5.55,0,0,0,2.6-1.43,7.81,7.81,0,0,1,5.76-1.35c2.28.37,4.47,1.77,6.73,1.33a1.91,1.91,0,0,0,1.24-.67A.93.93,0,0,0,176.61,188.94Z"/></g><path class="cls-11" d="M214.25,180.52a1.56,1.56,0,0,0-1.29-.94c-1.09.23-.89,1.5-.6,2.06a1.05,1.05,0,0,0,1.45.36A1.25,1.25,0,0,0,214.25,180.52Z"/><path class="cls-11" d="M200.35,192.14a.9.9,0,0,0-.74-.54c-.63.13-.51.86-.35,1.19a.59.59,0,0,0,.83.2A.71.71,0,0,0,200.35,192.14Z"/><path class="cls-11" d="M209.56,179.58a.88.88,0,0,0-.74-.54c-.62.13-.51.86-.35,1.18a.61.61,0,0,0,.84.21A.71.71,0,0,0,209.56,179.58Z"/><path class="cls-4" d="M189.17,253.33s30.43,100.45,32.32,106.13,14,39.33,39.31,31.65c28.59-8.68,7.23-66.26,7.23-66.26l-12-43.61-19.21,6.31-15.5-47.93Z"/><path class="cls-4" d="M156.85,205.11s4.2,21.76,6.61,25.06,15.61,16.48,15.61,16.48l14.29,9.45,28.13-16-5.05-22.42-6.29-26.49-7.24,5.61.78,8.13s-10.57-17.59-14.52-13.74,3.09,11.76,5.29,18.35.44,10.11.44,10.11-1.76.44-4.18-3.73c-1.75-3-8.22-16.79-13.75-21.56a3.24,3.24,0,0,0-5.38,2.65l.23,3.3,8.57,21.54,3.08,5.26-8.22-6.14s-3.73-11.14-7.63-17.33a5.51,5.51,0,0,0-7.52-1.83h0l1.83,7.29S161.89,204.89,156.85,205.11Z"/><path class="cls-5" d="M179,238.77a6.41,6.41,0,0,1-1.31-.71c-.81-.5-1.94-1.3-3.3-2.32s-3-2.26-4.79-3.59a8.55,8.55,0,0,1-2.3-2.79,9.12,9.12,0,0,1-.69-1.78c-.17-.61-.34-1.23-.52-1.86-1.33-5-2.3-9.64-3.15-12.93-.42-1.65-.78-3-1-3.89a7.6,7.6,0,0,1-.36-1.44,8.4,8.4,0,0,1,.55,1.38c.32.9.74,2.21,1.2,3.86.95,3.27,2,7.87,3.31,12.88a19.18,19.18,0,0,0,1.15,3.55,8.24,8.24,0,0,0,2.15,2.64c1.79,1.34,3.38,2.62,4.71,3.68s2.42,1.89,3.19,2.45A11.18,11.18,0,0,1,179,238.77Z"/><path class="cls-5" d="M191.6,232.68a2.43,2.43,0,0,1-1.28.1,7.65,7.65,0,0,1-3-.87A7.91,7.91,0,0,1,185,230c-.5-.62-.7-1.07-.64-1.11a16.86,16.86,0,0,0,3.29,2.58A17.34,17.34,0,0,0,191.6,232.68Z"/><path class="cls-5" d="M204.79,220.93a10.71,10.71,0,0,1-3.26-.62,11.19,11.19,0,0,1-3.12-1.13,10.71,10.71,0,0,1,3.26.62A11.36,11.36,0,0,1,204.79,220.93Z"/><path class="cls-5" d="M210,220.05a7.66,7.66,0,0,1-1.26-2.07,49.05,49.05,0,0,1-2.14-5.42c-.74-2.15-1.42-4.08-2-5.45a20.89,20.89,0,0,1-.92-2.22A7.88,7.88,0,0,1,205,207a50.54,50.54,0,0,1,2.14,5.43c.74,2.14,1.41,4.08,2,5.44A20.89,20.89,0,0,1,210,220.05Z"/><path class="cls-5" d="M269.68,368.5a1,1,0,0,1,0-.23c0-.18.1-.39.17-.66a22.24,22.24,0,0,0,.62-2.53,27.15,27.15,0,0,0,.27-9.52c-.51-4-2.1-8.62-4.07-13.6-1-2.5-2-5.11-3.06-7.86-.48-1.4-1-2.77-1.58-4.16s-1.28-2.74-2.06-4.07a170.85,170.85,0,0,0-9.65-14.55c-3.11-4.38-5.88-8.36-8-11.85A60.52,60.52,0,0,1,238,290.9c-.45-1-.67-1.91-.87-2.47-.08-.26-.14-.48-.2-.65a.82.82,0,0,1,0-.23.93.93,0,0,1,.1.21l.25.64c.24.55.48,1.4,1,2.43a66.5,66.5,0,0,0,4.54,8.45c2.14,3.45,4.93,7.4,8.06,11.76,1.57,2.19,3.22,4.48,4.87,6.9s3.34,4.95,4.84,7.68c.79,1.34,1.44,2.74,2.08,4.12s1.12,2.81,1.59,4.18c1,2.74,2.05,5.36,3,7.86,2,5,3.53,9.65,4,13.73a26.26,26.26,0,0,1-.43,9.61,18.31,18.31,0,0,1-.72,2.52l-.22.65C269.72,368.43,269.69,368.51,269.68,368.5Z"/><path class="cls-5" d="M179.07,246.65s-.22-.19-.62-.59l-1.79-1.76c-1.57-1.56-3.87-3.87-6.79-6.89-1.46-1.52-3.08-3.2-4.79-5.11a12.61,12.61,0,0,1-2.37-3.25,36.53,36.53,0,0,1-1.43-4.1c-1.67-5.75-3.13-12.41-4.62-19.8l0-.22h.22a5.71,5.71,0,0,1,3.48.82,4.28,4.28,0,0,1,1.81,3.32l-.4.05c-.57-2.26-1.2-4.74-1.84-7.29l0-.15.14-.09a8.6,8.6,0,0,1,1.45-.75,4.91,4.91,0,0,1,1.66-.29,5,5,0,0,1,4.35,2.39c.31.48.63,1,.9,1.46.59,1,1.13,2,1.64,3.05a117.14,117.14,0,0,1,5.49,13.42l-.09-.12,8.22,6.13-.36.33-3.08-5.26v0h0l-6.94-17.43a24.11,24.11,0,0,1-1.52-4.65,20.21,20.21,0,0,1-.34-2.46,3.58,3.58,0,0,1,.68-2.5,3.7,3.7,0,0,1,2.19-1.41,3.55,3.55,0,0,1,2.58.44c.19.12.36.27.54.4l.45.44c.3.3.61.59.88.92.57.62,1.1,1.27,1.62,1.94a92.86,92.86,0,0,1,7.18,11.62l3.11,5.9a15.62,15.62,0,0,0,1.79,2.7,6.09,6.09,0,0,0,1.15,1.07,2.28,2.28,0,0,0,1.3.48l-.16.13a12.83,12.83,0,0,0,.36-6.74,23.41,23.41,0,0,0-2.18-6.42c-1-2-2.1-4-3.09-6a25.87,25.87,0,0,1-1.34-3.05,9.53,9.53,0,0,1-.67-3.26A4.27,4.27,0,0,1,189,191a2.17,2.17,0,0,1,1.63-.6,3.78,3.78,0,0,1,1.61.48,18.74,18.74,0,0,1,4.7,4.19,78.39,78.39,0,0,1,6.94,9.73l-.41.13c-.26-2.8-.52-5.5-.76-8.13v-.12l.09-.07L210,191l.25-.19.07.3c3.53,15,6.46,27.26,8.28,35.75.93,4.23,1.65,7.52,2.15,9.77.23,1.11.42,2,.54,2.55s.17.88.17.88-.08-.29-.22-.86l-.6-2.54c-.52-2.25-1.28-5.53-2.25-9.75-1.89-8.48-4.88-20.67-8.46-35.71l.31.11L203,196.92l.08-.18c.26,2.63.52,5.33.79,8.13l.09.93-.5-.8a78.41,78.41,0,0,0-6.91-9.65,18.46,18.46,0,0,0-4.57-4.07,2.24,2.24,0,0,0-2.68,0,3.74,3.74,0,0,0-1.1,2.74,9,9,0,0,0,.64,3.1,27.2,27.2,0,0,0,1.32,3c1,2,2.1,3.92,3.1,6a24.14,24.14,0,0,1,2.23,6.55,13.2,13.2,0,0,1-.41,7.06l0,.12H195a2.46,2.46,0,0,1-1.72-.55,6.86,6.86,0,0,1-1.25-1.15,16.08,16.08,0,0,1-1.85-2.79l-3.12-5.9a91.23,91.23,0,0,0-7.14-11.55,19.41,19.41,0,0,0-3.35-3.58,3.1,3.1,0,0,0-4.07.84c-1,1.24-.49,3-.25,4.55a23.81,23.81,0,0,0,1.48,4.56c2.38,6,4.7,11.81,6.93,17.43v0l3.07,5.26.62,1.05-1-.73-8.22-6.14-.06,0,0-.07a117.86,117.86,0,0,0-5.44-13.36c-.51-1-1-2.06-1.61-3A10,10,0,0,0,166,202a4.68,4.68,0,0,0-2.93-1,4.58,4.58,0,0,0-1.51.27,7.22,7.22,0,0,0-1.38.71l.1-.23c.63,2.55,1.25,5,1.81,7.3l-.4,0a3.94,3.94,0,0,0-1.62-3,5.41,5.41,0,0,0-3.24-.76l.18-.23c1.46,7.39,2.9,14.05,4.53,19.79a35.91,35.91,0,0,0,1.4,4.07,12.19,12.19,0,0,0,2.31,3.19c1.69,1.92,3.3,3.61,4.74,5.14l6.72,7c.76.78,1.34,1.39,1.75,1.8S179.07,246.65,179.07,246.65Z"/><path class="cls-8" d="M194.61,165.9a6.33,6.33,0,0,1-3.22-3.7l-.79-4.77-.44,5a7.08,7.08,0,0,1-3,4,6.36,6.36,0,0,1,3.27,3.87l.52,3.88.79-4.1a6.34,6.34,0,0,1,2.88-3.89l.21-.12Z"/><polygon class="cls-3" points="202.11 432.72 200.75 393.41 347.31 393.02 347.31 432.2 202.11 432.72"/><polygon class="cls-3" points="262.21 393.41 229.4 318.2 310.65 318.2 347.31 393.02 262.21 393.41"/><polygon class="cls-3" points="229.4 318.2 218.36 335.5 241.56 388.79 262.21 393.41 229.4 318.2"/><path class="cls-1" d="M347.31,393a2.3,2.3,0,0,1-.43,0l-1.26,0-4.87.07-17.91.16-59.1.35H262l-.07-.16-23.15-53.26c-2.92-6.8-5.29-12.29-6.94-16.12-.8-1.88-1.42-3.36-1.86-4.38-.2-.49-.36-.87-.47-1.15l-.15-.4a2.5,2.5,0,0,1,.2.38c.12.27.3.65.52,1.12.45,1,1.11,2.48,1.94,4.35,1.69,3.81,4.11,9.29,7.1,16.05,6,13.6,14.17,32.38,23.29,53.2l-.24-.15h1.53l59.09-.19h17.91l4.88,0,1.26,0A2.3,2.3,0,0,1,347.31,393Z"/><path class="cls-1" d="M262.21,432.79c-.14,0-.26-8.82-.26-19.69s.12-19.69.26-19.69.26,8.81.26,19.69S262.35,432.79,262.21,432.79Z"/><path class="cls-8" d="M307,358.18a16.73,16.73,0,0,0-.22-3.77,12.82,12.82,0,0,0-1.61-4.09,15.86,15.86,0,0,0-3.91-4.31,19.48,19.48,0,0,0-18.61-2.56,17.52,17.52,0,0,0-3.95,2.26,11.91,11.91,0,0,0-2.29,17,17.54,17.54,0,0,0,3.21,3.23,19.5,19.5,0,0,0,18.63,2.45,15.94,15.94,0,0,0,4.91-3.12,12.65,12.65,0,0,0,2.63-3.52,17,17,0,0,0,1.21-3.57,1,1,0,0,1,0,.25q0,.29-.12.72a6.11,6.11,0,0,1-.29,1.16c-.08.23-.14.48-.24.73l-.36.8a12.59,12.59,0,0,1-2.61,3.64,16,16,0,0,1-5,3.25,19.89,19.89,0,0,1-15.16-.17,20.1,20.1,0,0,1-3.91-2.22A18.05,18.05,0,0,1,276,363a12.37,12.37,0,0,1,2.39-17.7,17.64,17.64,0,0,1,4.08-2.32,19.73,19.73,0,0,1,4.35-1.11,19.94,19.94,0,0,1,14.67,3.84,16,16,0,0,1,3.93,4.45,12.64,12.64,0,0,1,1.56,4.2,9.31,9.31,0,0,1,.17,1.63,6.58,6.58,0,0,1,0,1.2l-.08.73A1.43,1.43,0,0,1,307,358.18Z"/><path class="cls-8" d="M307,358.18a3.52,3.52,0,0,0-.48-.06,1.64,1.64,0,0,0-1.16.66,11.71,11.71,0,0,0-1.27,1.85,9.91,9.91,0,0,1-1.85,2.41,7.87,7.87,0,0,1-1.41,1.09,3.84,3.84,0,0,1-1.9.59,2.71,2.71,0,0,1-1.94-.9,6.64,6.64,0,0,0-1.52-1.4,3,3,0,0,0-2-.15,6.06,6.06,0,0,0-2,1c-.65.44-1.29.95-2,1.39a5.14,5.14,0,0,1-2.47.85,2.93,2.93,0,0,1-2.49-.94,4.16,4.16,0,0,1-.78-2.44,9.62,9.62,0,0,0-.28-2.28,2.09,2.09,0,0,0-1.24-1.49,2.62,2.62,0,0,0-1.9.36,8.34,8.34,0,0,1-1.92.79,3.06,3.06,0,0,1-2-.31A4.32,4.32,0,0,1,275,358a5,5,0,0,1-1-2.89,10,10,0,0,1,.21-2.29c.12-.61.25-1.08.34-1.4a1.64,1.64,0,0,1,.17-.47s-.12.68-.31,1.91a9.59,9.59,0,0,0-.11,2.23,4.68,4.68,0,0,0,1,2.68,3.16,3.16,0,0,0,3,1.3,8.61,8.61,0,0,0,1.8-.78,3,3,0,0,1,2.24-.41,2.54,2.54,0,0,1,1.57,1.8,9.39,9.39,0,0,1,.31,2.39,3.74,3.74,0,0,0,.68,2.15,2.41,2.41,0,0,0,2.06.75c1.63-.07,2.9-1.26,4.24-2.15a6.69,6.69,0,0,1,2.2-1,3.48,3.48,0,0,1,2.38.2,6.77,6.77,0,0,1,1.62,1.51,2.24,2.24,0,0,0,1.63.78,4.9,4.9,0,0,0,3.05-1.51,9.49,9.49,0,0,0,1.85-2.3,12.23,12.23,0,0,1,1.37-1.83,1.77,1.77,0,0,1,1.31-.63.92.92,0,0,1,.37.1C307,358.15,307,358.17,307,358.18Z"/><path class="cls-8" d="M299.38,352.51a5.84,5.84,0,0,1-2.12.79A12.88,12.88,0,0,1,286.82,351a5.72,5.72,0,0,1-1.58-1.62c.06-.06.67.55,1.8,1.32a14.44,14.44,0,0,0,4.86,2.11,14.65,14.65,0,0,0,5.29.18C298.54,352.72,299.35,352.43,299.38,352.51Z"/><path class="cls-8" d="M263.53,346.55l.82-1.48a1.87,1.87,0,1,1,3.25,1.81l-.82,1.47Zm3.43,0a1.15,1.15,0,1,0-2-1.12l-.38.69,2,1.12Z"/><path class="cls-8" d="M270.2,342.08l.53.45-1.83,2.21L266,342.37l1.79-2.16.53.44-1.25,1.5.62.52,1.11-1.33.51.42-1.1,1.33.66.55Z"/><path class="cls-8" d="M268.67,339.37l.65-.56,2,2.27,1.4-1.23.46.53-2.05,1.79Z"/><path class="cls-8" d="M271.39,337.15l.71-.48,2.1,3.05-.7.49Z"/><path class="cls-8" d="M273.77,337.73a1.91,1.91,0,0,1,.9-2.63,1.89,1.89,0,0,1,1.66-.12l-.25.7a1.2,1.2,0,0,0-1,.05,1.18,1.18,0,1,0,1.09,2.1,1.18,1.18,0,0,0,.63-.82l.72.2a2,2,0,0,1-3.72.52Z"/><path class="cls-8" d="M276.9,334.15l.81-.31,1.32,3.47-.8.31Z"/><path class="cls-8" d="M279.05,335.27a2,2,0,1,1,2.45,1.35A1.92,1.92,0,0,1,279.05,335.27Zm3.1-.8a1.16,1.16,0,1,0-.83,1.44A1.14,1.14,0,0,0,282.15,334.47Z"/><path class="cls-8" d="M283.74,334.38l-.24-2.07.85-.1.24,2c.09.7.43,1,.94.9s.79-.39.7-1.09l-.24-2,.85-.1.24,2.06a1.68,1.68,0,1,1-3.34.4Z"/><path class="cls-8" d="M287.71,335.2l.28-.65a2.13,2.13,0,0,0,1.23.37c.51,0,.71-.17.71-.4,0-.7-2.16-.19-2.17-1.57,0-.63.49-1.16,1.55-1.17a2.49,2.49,0,0,1,1.29.31l-.26.66a2,2,0,0,0-1-.28c-.51,0-.7.19-.7.43,0,.68,2.16.18,2.17,1.54,0,.62-.5,1.16-1.56,1.17A2.62,2.62,0,0,1,287.71,335.2Z"/><path class="cls-8" d="M293.36,332l1.66.31a1.86,1.86,0,1,1-.67,3.65l-1.66-.3Zm1.07,3.26a1.15,1.15,0,1,0,.42-2.26l-.77-.15-.42,2.27Z"/><path class="cls-8" d="M297.27,334.66a2,2,0,1,1,1.2,2.53A1.93,1.93,0,0,1,297.27,334.66Zm3,1.16a1.16,1.16,0,1,0-1.51.69A1.13,1.13,0,0,0,300.24,335.82Z"/><path class="cls-8" d="M305.65,336.8l-2,3.13-.59-.38-.36-2.89-1.2,1.9-.72-.45,2-3.13.6.38.35,2.89,1.2-1.9Z"/><path class="cls-8" d="M305.31,339.16l1.42-1.52.63.59-1.4,1.49c-.48.52-.46.94-.08,1.3s.81.35,1.29-.17l1.4-1.5.62.58-1.42,1.52a1.68,1.68,0,1,1-2.46-2.29Z"/><path class="cls-8" d="M309.89,341.86l-.74-.93.55-.43,2,2.52-.55.44-.74-.93-2.35,1.88-.53-.67Z"/><path class="cls-8" d="M309.13,345.16l.71-.1a2.22,2.22,0,0,0,.31,1.25c.27.43.52.52.72.4.59-.37-1-1.95.21-2.68.54-.33,1.25-.17,1.81.72a2.49,2.49,0,0,1,.4,1.27l-.69.12a2.08,2.08,0,0,0-.3-1c-.27-.43-.53-.5-.73-.38-.58.37,1,1.95-.2,2.67-.53.32-1.25.17-1.81-.73A2.67,2.67,0,0,1,309.13,345.16Z"/><path class="cls-8" d="M314,357.46a.93.93,0,0,1-.27.14l-.84.38,0-.06a16.27,16.27,0,0,1-.52,3.92,18.49,18.49,0,0,1-2.67,5.86,20.14,20.14,0,0,1-6,5.78,22.13,22.13,0,0,1-9.18,3.11,25.82,25.82,0,0,1-11.45-1.3,30.7,30.7,0,0,1-8.28-4.49,34.91,34.91,0,0,1-4.69-4.29c-.49-.56-.87-1-1.11-1.32a2.47,2.47,0,0,1-.35-.49s.57.6,1.61,1.67a37.92,37.92,0,0,0,4.76,4.14,31,31,0,0,0,8.22,4.32,25.64,25.64,0,0,0,11.23,1.24,21.92,21.92,0,0,0,9-3,19.82,19.82,0,0,0,5.94-5.6,18.71,18.71,0,0,0,2.73-5.69,19.68,19.68,0,0,0,.66-3.86v-.05h0l.88-.31A.8.8,0,0,1,314,357.46Z"/><path class="cls-8" d="M202.11,420.39c-.12-.09,3.93-6.19,9-13.64s9.36-13.42,9.48-13.34-3.93,6.18-9,13.63S202.23,420.47,202.11,420.39Z"/><path class="cls-8" d="M210.55,432.69c-.11-.09,6.07-8.9,13.82-19.68s14.11-19.46,14.23-19.37-6.07,8.89-13.81,19.68S210.67,432.77,210.55,432.69Z"/><path class="cls-8" d="M256.18,393.41c.12.08-5.76,8.94-13.13,19.78s-13.45,19.58-13.57,19.5,5.76-8.94,13.14-19.79S256.06,393.33,256.18,393.41Z"/><path class="cls-8" d="M277.77,393.64a2.52,2.52,0,0,1-.26.42l-.82,1.14-3.06,4.16c-2.57,3.51-6.05,8.43-9.86,13.88s-7.35,10.35-10,13.81c-1.33,1.73-2.42,3.12-3.19,4.06l-.9,1.08a1.88,1.88,0,0,1-.34.36,1.63,1.63,0,0,1,.26-.42l.82-1.14,3.06-4.16c2.57-3.52,6-8.43,9.86-13.89s7.34-10.34,10-13.8c1.32-1.73,2.41-3.12,3.19-4.07l.9-1.08C277.64,393.75,277.75,393.63,277.77,393.64Z"/><path class="cls-8" d="M302.24,393.38a2.52,2.52,0,0,1-.26.42l-.81,1.13c-.72,1-1.74,2.4-3,4.16-2.5,3.53-5.78,8.53-9.34,14.09s-6.9,10.54-9.48,14c-1.29,1.74-2.35,3.14-3.12,4.07l-.89,1.08a2.24,2.24,0,0,1-.33.35s.07-.15.25-.42l.81-1.13c.72-1,1.74-2.4,3-4.16,2.49-3.53,5.77-8.53,9.33-14.09s6.9-10.54,9.48-14c1.29-1.74,2.35-3.14,3.12-4.07l.89-1.08C302.11,393.49,302.22,393.37,302.24,393.38Z"/><path class="cls-8" d="M327.77,393.9s-.07.16-.25.42l-.8,1.12c-.71,1-1.72,2.37-3,4.12-2.48,3.5-5.73,8.44-9.25,14s-6.82,10.44-9.38,13.89c-1.28,1.72-2.33,3.1-3.1,4l-.88,1.06a1.78,1.78,0,0,1-.33.35s.07-.15.25-.41l.8-1.13c.71-1,1.72-2.37,3-4.12,2.48-3.49,5.73-8.44,9.25-13.95s6.82-10.44,9.38-13.89c1.28-1.73,2.33-3.11,3.1-4l.88-1.07A1.78,1.78,0,0,1,327.77,393.9Z"/><path class="cls-8" d="M347.31,396.59c.12.08-5.35,8.2-12.22,18.13s-12.54,17.91-12.66,17.83,5.36-8.2,12.23-18.13S347.2,396.51,347.31,396.59Z"/><g class="cls-7"><polygon points="262.21 393.41 262.21 432.79 347.31 432.2 347.31 393.02 262.21 393.41"/></g></g></g></svg>