<svg xmlns="http://www.w3.org/2000/svg" viewBox="0 0 114.15 209.11"><defs><style>.cls-1{fill:#dadada;}.cls-2{fill:#00a19a;}.cls-3{fill:#a3195b;}.cls-4{fill:#1d1d1b;}</style></defs><title>fashion</title><g id="Layer_2" data-name="Layer 2"><g id="Layer_1-2" data-name="Layer 1"><path class="cls-1" d="M20.26,135.37c.18,5.26.81,10.49,1.39,15.72s.79,10.77,2.56,15.7a3.46,3.46,0,0,0,6.77-.92c.53-5.22-.6-10.71-1.37-15.86a103.12,103.12,0,0,0-3.21-15.47c-1-3.29-6.26-2.8-6.14.83Z"/><path class="cls-1" d="M38.57,140.56c1.78-6.88,4-13.58,6.41-20.28s4.94-14.53,3.6-21.84c-.55-3-5.37-2.94-6,0-.72,3.48-1.07,7-1.85,10.5s-1.83,6.85-2.83,10.24c-2,6.75-4.12,13.71-3.43,20.83.21,2.22,3.45,3,4.08.55Z"/><path class="cls-1" d="M49.88,47.7a116.85,116.85,0,0,0-4.59,15.68c-1.23,5.51-2.93,11.41-2.85,17.09.07,4.48,6.3,4.24,6.79,0,.59-5.2.48-10.45,1.24-15.66.79-5.37,2.25-10.71,3.52-16,.66-2.71-3.16-3.67-4.11-1.13Z"/><path class="cls-2" d="M111.31,84.7c-5-1.19-10-.24-15,.65a84.13,84.13,0,0,0-15.25,4.39,72.23,72.23,0,0,0-13.38,6.65l-.46.3a22.38,22.38,0,0,0,2.94-6c.71-2.36-1.2-4.23-3.39-4.45a15.29,15.29,0,0,0-7.95,1.44,23.12,23.12,0,0,0,4-8,3.34,3.34,0,0,0-3.17-4.15,14.06,14.06,0,0,0-6,.85,15.54,15.54,0,0,0,2.36-5.06,3.1,3.1,0,0,0-3-3.87C49,67.19,45,69,41.42,71.38a69.17,69.17,0,0,0,3.88-6.3,3.36,3.36,0,0,0-4.57-4.57c-.89.51-1.75,1.07-2.58,1.66l.21-.47c1.21-2.79-2.29-6.32-4.6-3.55l-.63.77a15.5,15.5,0,0,0,.42-3.58c0-1.48-1.83-2.79-3.17-1.82a34.4,34.4,0,0,0-2.75,2.2,14.78,14.78,0,0,0,.7-5.5,1.79,1.79,0,0,0-3-1.26c-3.64,2.88-6.42,6.95-8.74,11a58.86,58.86,0,0,1,1.57-8.74,64.08,64.08,0,0,0,2.09-9.07A1.48,1.48,0,0,0,18,40.89c-4.62,2.8-6.83,8.65-8.53,13.5-.91,2.61-1.55,5.28-2.21,8-1,4.2-.4,8.62-1.18,12.85-.35,1.88,2.48,2.7,2.88.8a70.32,70.32,0,0,0,.92-9.83,39.73,39.73,0,0,1,1.85-8.53c1.08-3.65,2.51-8.09,5-11.39-.38,1.72-.89,3.4-1.4,5.13a57.25,57.25,0,0,0-1.61,8.51c-.36,2.65-.68,5.32-1.09,8a24.46,24.46,0,0,0-2.11,9.7,1.67,1.67,0,0,0,2,1.6,37.05,37.05,0,0,0-1.29,4.69,2,2,0,0,0,.31,1.59,50.27,50.27,0,0,0-2.59,5.26c-.83,2,.69,3.24,2.37,3.43-.27.49-.54,1-.8,1.49a3.39,3.39,0,0,0,2.63,5c-.2.46-.4.92-.58,1.4-1.42,3.51,3.41,5.31,5.75,3.34a36,36,0,0,0,2.7-2.54c.32,2.19,2.93,4,5.13,2.57,6.56-4.09,11.5-10.2,17.71-14.76,2.91-2.15,6.37-5.42,10.1-7.25-2.34,3.18-5.62,5.81-8.47,8.32-4.88,4.29-9.94,8.82-12,15.17-.93,2.81,1.9,4.77,4.37,4.36,6.08-1,10.75-5.93,15-10a45,45,0,0,1,6.9-6l-1,1.21a29.86,29.86,0,0,0-5.54,9c-1,2.72,2,5.08,4.46,4.46,4.32-1.06,8.15-3.4,11.87-5.76a74.14,74.14,0,0,1,12-6.48A91.25,91.25,0,0,1,96,93.09a38,38,0,0,1,10.14-1.19,3.81,3.81,0,0,0,2.18.61l2,0C114.67,92.46,115.74,85.74,111.31,84.7ZM44.86,76.78c-2.33,2.16-4.88,4.08-7.17,6.28-1.62,1.57-3.29,3.11-4.93,4.67.81-1,1.65-2,2.54-2.9a63.83,63.83,0,0,1,8-6.9C43.78,77.55,44.31,77.16,44.86,76.78ZM21.75,69.54a53.29,53.29,0,0,1,5.31-7.37l-.57,1A92.86,92.86,0,0,1,21,71.35C21.26,70.75,21.5,70.14,21.75,69.54ZM24.1,55.09c-1,3.08-2.78,6.06-4,8.82l-.77,1.73L18.6,66.7a67,67,0,0,0-3.77,6.69c.2-1.06.38-2.13.54-3.2a58,58,0,0,1,3.11-6.54A48.75,48.75,0,0,1,24.1,55.09Z"/><path class="cls-2" d="M24.83,192.08A10,10,0,0,0,29.45,197c2.63,1.09,5-.33,5.9-2.87.53-1.44-1.55-2.57-2.55-1.48s-1.58,1.54-3,.74a14.51,14.51,0,0,1-3.12-2.68c-.95-1-2.41.26-1.82,1.41Z"/><path class="cls-2" d="M42.64,176.64c-2.48-3.34-1.3-7.32-2.4-11.11a1.3,1.3,0,0,0-2.35-.31c-.27.4-.51.81-.75,1.23a16.64,16.64,0,0,1,.79-3.55c.69-1.72-1.65-2.56-2.79-1.63a18.06,18.06,0,0,0-3.5,4,12.64,12.64,0,0,0,0-2c-.15-1.79-2.87-1.85-2.82,0,.14,5.27-3.26,9.84-3.43,15.13a1.92,1.92,0,0,0,3.56,1c1.58-3,2.78-6.27,4.31-9.31-.24.82-.5,1.63-.74,2.45a43.74,43.74,0,0,0-1.86,9.07c-.15,1.95,2.35,2.13,3.29.89,2.4-3.16,2.85-7.1,3.9-10.79,0,2.9.25,5.75,2.91,6.95C41.85,179,43.56,177.89,42.64,176.64Z"/><path class="cls-2" d="M31.84,176.05a64.74,64.74,0,0,1-4-11.82,1.6,1.6,0,0,0-3.07,0,13.24,13.24,0,0,0-.56,3.72,21.93,21.93,0,0,0-2.4-7.71A1,1,0,0,0,20,161c1.68,5.49,1,11.45,3.19,16.79.52,1.25,2.44,1.92,3.19.42a10.8,10.8,0,0,0,1-3.8,18.24,18.24,0,0,0,1.71,3.24A1.59,1.59,0,0,0,31.84,176.05Z"/><path class="cls-3" d="M31.55,21.56c1.59.31,3.87,1.16,5.45.42a.77.77,0,0,0,0-1.32,5.68,5.68,0,0,0-2.74-.39,2,2,0,0,0-1.27.36,3,3,0,0,1-.64.65,7,7,0,0,0-.8.12.08.08,0,0,0,0,.16Z"/><path class="cls-4" d="M28.76,122.67s0,0,0,0A0,0,0,0,0,28.76,122.67Z"/><path class="cls-4" d="M67.5,92.82a87.94,87.94,0,0,0-8,6.89A57.86,57.86,0,0,0,62,93.43c.59-1.79-1.53-3-2.92-2.34.3-2,.54-4,.69-6a2,2,0,0,0-3.73-1c-.57,1.17-1.11,2.37-1.62,3.59a17,17,0,0,0-.4-1.91A15.65,15.65,0,0,0,52.43,82c0-.27,0-.56,0-.85.07-1.71.07-3.43.07-5.14a3.8,3.8,0,0,1,.54.18c.56.23,1-.73.41-1a4.12,4.12,0,0,0-.95-.33c0-.21,0-.41,0-.62a57.94,57.94,0,0,0-.46-7.44c3.08-5.92,4-12.81,3.73-19.41a43.15,43.15,0,0,0-1.66-10.1c-.29-1-.52-3.1-1.28-3.86-.52-.52-1.92-.41-2.57-.39a24,24,0,0,0-6.12,1.43c-2.48.74-4.68,1-5.07-1.72a.5.5,0,0,0,.31-.42c.44-3.87,1.85-7.49,3.07-11.16a23.48,23.48,0,0,1,.11,4.36.44.44,0,0,0,0,.37c0,.33-.07.67-.12,1a.52.52,0,0,0,0,.28.46.46,0,0,0,.39.68,3.7,3.7,0,0,0,.87-.11.5.5,0,0,0,.8-.05l.26-.37a10.54,10.54,0,0,0,4.14-4.91,13.48,13.48,0,0,0,1-4.83c0-.09.09-.17.13-.26a.51.51,0,0,0-.13-.63,19.61,19.61,0,0,0-.36-3.14c.07-.18.15-.37.22-.56a.46.46,0,0,0-.49-.6C47.76,6.59,43,.41,36.51.59l-.15,0a.44.44,0,0,0-.45.23c-.38.78-.84,1.51-1.21,2.29,0-.86,0-1.72-.05-2.58A.49.49,0,0,0,34.3.09a3.57,3.57,0,0,0-1.9.08l-.15,0a.43.43,0,0,0-.45,0A7.11,7.11,0,0,0,27.52,2,26.23,26.23,0,0,0,20,10.83c-1.37,2.9-2.59,7.65-1.19,10.76,1.28,2.81,4,4.42,6.52,6.15v.38a.5.5,0,0,0,.9.27l.23.17a.64.64,0,0,0,.92-.38c.07-.23.14-.47.2-.7,0,.09,0,.18-.05.26-.27,1.16-.5,2.32-.8,3.47a9.76,9.76,0,0,1-1,2.58.2.2,0,0,0-.14.21l-.22.29c-1,1.25-2.36.14-3.3-.6a.26.26,0,0,0-.37.36c1.33,1.55,2.83,1.75,3.94.73.26,3.27,1.09,7.62,3.57,10A20.74,20.74,0,0,1,23,42.05c-2.69-1.6-5.6-3.91-5.77-7.1.2.48.4,1,.63,1.47.11.25.48.11.49-.14a4.83,4.83,0,0,0-.74-2.71l1.41.7a18.9,18.9,0,0,0,5.85,2.22c.17,0,.25-.27.09-.33-2.35-1-4.73-1.9-7-3l-1-.47a8.85,8.85,0,0,0-2.62-1.91,5.1,5.1,0,0,0-2.41-.89,9.84,9.84,0,0,0-1.61-.27c-.19,0-.24.31,0,.33l.28,0a5.35,5.35,0,0,0-1.2.42,3,3,0,0,0-2.23-.1A4.48,4.48,0,0,0,5,32.81a20.4,20.4,0,0,0-1.07,4.1,14.5,14.5,0,0,0-.68,2.16.52.52,0,0,0,.34.63c-.13,1.55-.18,3.09-.22,4.56a45.39,45.39,0,0,0,1,12.31c.81,3.16,3.11,9.22-.77,11.17a.62.62,0,0,0,0,1.06l.18.12c-.69,1-1.45,1.93-2.11,3a.61.61,0,0,0,.69.9c1.9-.51,3-.21,2.26,1.85a11.37,11.37,0,0,1-1,2.14l-.35.29a1.86,1.86,0,0,0-.61,1.22.54.54,0,0,0,0,.51,2.75,2.75,0,0,0,.6,1.32,4.71,4.71,0,0,0,1.61,1.22c-.5,3.67-.44,7.52-2,11A27.9,27.9,0,0,1,.47,95.8,4.77,4.77,0,0,0,0,98.54c.08,2.61.72,8.2,3.9,7.79a6.6,6.6,0,0,0,0,2.08.46.46,0,0,0,.76.2A13.11,13.11,0,0,0,8.13,103c.13-.42-.45-.61-.67-.28-1,1.45-1.58,3-2.65,4.39,0-.33.08-.71.13-1.11l.4-.2a.49.49,0,0,0-.26-.91c.23-2,.29-4.2-1.21-4.1a.16.16,0,0,0,0,.31c1.11.3.36,3.28.25,4l0,.23c-1.72.42-2.27-1.62-2.6-3.28s-1-4.16-.14-5.74A26.08,26.08,0,0,1,3,94a11.89,11.89,0,0,0,1.57-3.66c.77-2.8.8-5.76,1.17-8.63.73.28,1.49.49,2.19.74s1.48.59,2.23.82a.73.73,0,0,0-.45.72c.21,2.51.65,5,.81,7.52-.51,3.75-1.85,7.39-2.18,11.16,0,.21.32.25.37,0,.6-2.73,1.69-5.56,2.09-8.39a29.81,29.81,0,0,0,.88,10.19.84.84,0,0,0,.13.25c-.34.33-.67.67-1,1a.15.15,0,0,0,.2.21q.56-.51,1.14-1a.85.85,0,0,0,1.08-.5c.3-.26.6-.5.9-.74a25.16,25.16,0,0,0,.38,5.49c.53,3.62,1.4,7.16,2.28,10.7.61,2.45,1.19,4.89,1.77,7.33l-.48.23c-4,1.92-9.24,4.49-10.74,9a.81.81,0,0,0,.56,1c1.56.51,3.39,0,4.91-.44,2.43-.66,4.81-1.57,7.19-2.41l.38-.13c.87,3.23,1.82,6.44,3,9.63,0,.05.11,0,.09,0-.92-3.23-1.88-6.46-2.76-9.7a53,53,0,0,1,6.73-2c.53-.11,1.16-.24,1.81-.31,0,.35-.07.7-.11,1.05s.38.46.62.32c-.12,2.13-.34,4.26-.43,6.39,0,.27,0,.54,0,.82a44.32,44.32,0,0,0-5.32,5.38c-1.43,1.92-2.27,4.77-.62,6.79,1.42,1.75,4.37,2,6.59,2.15-.87,5.87-1.81,11.73-1.42,17.68-1-.44-1.91-.92-2.89-1.43a.52.52,0,0,0-.78.45c.21,2.11.41,5.25,1.64,7.28L26,182.23c-.85-4.44-2.17-8.85-2.48-13.36.07.28.15.55.24.82.18.54,1.06.64,1.18,0a6.46,6.46,0,0,0,.11-.75c.25.2.5.41.73.63s.9-.11.62-.48c-.47-.63-.9-1.26-1.37-1.88a14.84,14.84,0,0,0-.33-1.94,12,12,0,0,0,3-.8c.18-.07.36-.14.54-.23.43-.2.06-.85-.37-.64a10.09,10.09,0,0,1-3.33.81c-.15-.55-.3-1.09-.44-1.62-.72-2.68-1.6-5.3-2.15-8-1.25-6.12.5-12.45-1.08-18.54-.11-.42-.82-.34-.77.11.56,6-.75,11.91,0,17.84a52.14,52.14,0,0,0,1.82,7.47c.28,1,.48,1.93.67,2.92l-.84.09a3,3,0,0,1-.31,0,.21.21,0,0,0-.21.11l-.14,0c-.31.06-.33.44-.17.64a11.33,11.33,0,0,0,1.91,1.82,117,117,0,0,0,2.22,15.87.5.5,0,0,0,.8.3c-.26,2-.48,3.93-.57,5.91,0,.42,0,.86,0,1.32l-.06,0c-.18-.13-.39.16-.23.31a3.47,3.47,0,0,0,.29.25c0,3,.57,6.42,3.25,7.85a4.78,4.78,0,0,0,5.9-1.17l.07.49-2.14,1.15c-2,1.08-.62,4.52,1.57,3.72,2.8-1,5.57-2.14,8.35-3.22a40,40,0,0,1,4.07-1.29c-3.38,2.54-7.16,4.62-10.26,7.53a1.71,1.71,0,0,0,1.2,2.9c5.52.12,10.24-3.68,15.47-5.2a6.5,6.5,0,0,1-.52,1.1,1.55,1.55,0,0,0,1.32,2.3c2.1.18,3.51-.65,5-2,1-.89-.27-2.36-1.37-1.78a6.92,6.92,0,0,1-1.8.69,9.71,9.71,0,0,1,.35-1.65,1.28,1.28,0,0,0-1.24-1.62c-4.13.06-7.76,2-11.54,3.37a94.33,94.33,0,0,0,8.38-7.2,1.06,1.06,0,0,0-.74-1.79,13.84,13.84,0,0,0-2.88.08,2.26,2.26,0,0,0-.94-2.47c-4.47-2.72-11.58-5.38-11.25-11.63A.56.56,0,0,0,36,181c1.07-1.49,2-3.06,3-4.6l.32,0a.48.48,0,0,0,.27-.79h0c.46-.48.68-.52.67-1.16a.36.36,0,0,0-.61-.25c-.37.38-.71.78-1,1.19a22.84,22.84,0,0,1-3.15-.33,159.64,159.64,0,0,0,5.53-21.61,88.57,88.57,0,0,0,1.07-16.62c1.82-4.78,3.22-9.73,4.73-14.62.75-2.43,1.58-4.84,2.31-7.26,3-1.79,6-4,7.43-6.34A52.18,52.18,0,0,0,70.2,95.51C71.33,93.94,69.08,91.68,67.5,92.82ZM25.05,13.9c-.59.75-1.22,1.48-1.86,2.21C23.79,15.35,24.4,14.6,25.05,13.9Zm-5.36,6.35c-.06-.27-.11-.55-.15-.83a.58.58,0,0,0,.52.32l-.29.36A1.09,1.09,0,0,0,19.69,20.25Zm.31.91a1.88,1.88,0,0,1-.12-.3.5.5,0,0,0,.23.09Zm-.2-2.58a.5.5,0,0,0-.07.25l-.14.18a.34.34,0,0,0-.07.15,9.62,9.62,0,0,1,0-1.61.54.54,0,0,0,.83.2C20.16,18,20,18.29,19.8,18.58Zm.75,3.53,0,0c.15-.19.31-.37.47-.56a.52.52,0,0,0,.74.54l-.25.41a.5.5,0,0,0,.4.73c-.21.51.53.87.88.41a22.43,22.43,0,0,1,2.32-3c0,.13-.09.25-.14.37a14.58,14.58,0,0,0-2.16,3.39A11.83,11.83,0,0,1,20.55,22.11Zm3.25,2.63a.45.45,0,0,0,0,.37L23.6,25a.86.86,0,0,0,.07-.1c.09-.14.19-.28.28-.43ZM25.38,26a.55.55,0,0,0,0,.17L25,26c.33-.47.63-1,.93-1.44C25.71,25,25.53,25.53,25.38,26Zm.07-9.35c-.2.15-.41.31-.6.47.26-.32.52-.65.76-1,.15-.11.3-.2.45-.3A9.68,9.68,0,0,1,25.45,16.69Zm1,2.76-.15.15a.57.57,0,0,0,0-.13.49.49,0,0,0-.15-.35l.35-.46c0,.25,0,.5,0,.74ZM22,165.41l.67-.08h.12a2.56,2.56,0,0,1,.05.27v0c0,.19,0,.38,0,.58C22.51,166,22.22,165.69,22,165.41ZM49.42,98.8a14.71,14.71,0,0,0-.85-4.92.05.05,0,0,0-.1,0,15.33,15.33,0,0,1,.52,5,10.9,10.9,0,0,1-1.63.06,12.85,12.85,0,0,0-5.06-1.71C41.17,97.09,40,97,38.88,97c3.06-1.16,6-2.67,9-3.82a.41.41,0,0,0,.21-.15,11.31,11.31,0,0,1,2.76,1.31.91.91,0,0,1,.16.11c0,1.25-.08,2.49-.14,3.74A3.26,3.26,0,0,1,49.42,98.8Zm-9.74-3.39c-1.24.48-2.49.93-3.76,1.32l-1.11.33c-.16,0-.31,0-.47,0,0-.22,0-.44.06-.65C36.17,96.1,37.94,95.78,39.68,95.41ZM34.21,97.1c-1.25.08-2.49.18-3.71.31-.77.08-1.55.18-2.33.3,2-.47,4.08-.87,6.13-1.26C34.28,96.67,34.24,96.88,34.21,97.1Zm-.28,1.43c-.07.34-.15.67-.23,1-2,.36-4.07.73-6.12.93C29.66,99.7,31.8,99.12,33.93,98.53Zm.22-.06.82-.22c2-.06,4,0,5.94.1a13.26,13.26,0,0,1,1.78.23,43.5,43.5,0,0,0-8.74.9C34,99.15,34.09,98.81,34.15,98.47Zm2.1,1.72a46,46,0,0,1,9.87-.39c.88.46,1.74,1,2.68,1.6-.09,1-.21,2-.3,3a63.61,63.61,0,0,1-1.86,10.1,113.39,113.39,0,0,1-10.53,5.11l-4.55,2c0-.27,0-.54,0-.81a.35.35,0,0,0-.69-.09l-.18.61c.12-2.24.24-4.48.42-6.71a58.74,58.74,0,0,1,1.48-9.79c.34-1.37.74-2.7,1.08-4Zm12.51-.41.18,0a.57.57,0,0,1,0,.13Zm2.12-13.31c0,.84.09,1.69.12,2.53a23.43,23.43,0,0,0-1.43-1.89A2.78,2.78,0,0,0,50.88,86.47Zm.17,3.72c0,.8,0,1.61,0,2.42,0,.23,0,.45,0,.68-2.09-1.4-5.37-1.78-7.44-2.1-1.14-.17-2.28-.31-3.43-.43,2.61-.19,5.21-.29,7.82-.33a.42.42,0,0,0,.43-.4l2.5.17ZM46.46,23.63c-.45.61-.93,1.19-1.4,1.78-.49.33-1,.61-1.52.92,0-.16.05-.33.07-.49,1.58-1.63,2.81-3.6,4.53-5.07A10,10,0,0,1,46.46,23.63Zm-2.7-.52a.44.44,0,0,0,.37-.16l1.4-1.63c.44-.47.88-.94,1.3-1.43a16.22,16.22,0,0,1,1.3-1.19c-1.28,1.88-2.92,3.51-4.37,5.28C43.77,23.69,43.76,23.4,43.76,23.11Zm4.38-8.86a15.23,15.23,0,0,1-1.38,2l-.55.57a19.28,19.28,0,0,0,1.63-2.31Zm-1.22-3.77c.06-.15.12-.3.17-.45.28.63.53,1.28.75,1.94-.19.13-.38.27-.55.41A.49.49,0,0,0,46.5,12c.16-.37.32-.75.46-1.12A.4.4,0,0,0,46.92,10.48ZM45.77,7.71a.49.49,0,0,0,0-.12c.16.24.31.48.45.73a.4.4,0,0,0-.18.1.52.52,0,0,0-.48-.11C45.64,8.11,45.71,7.91,45.77,7.71Zm-.41,11.6c.69-.77,1.39-1.53,2-2.33.24-.24.5-.47.76-.69a11.59,11.59,0,0,1-1.92,2.83c-.52.53-1,1.08-1.49,1.63-.36.39-.72.79-1,1.19l-.06-.68.05,0C44.28,20.61,44.82,20,45.36,19.31Zm-1.47-1.26-.31.42c-.28.37.22.84.59.71l-.68.78c-.12-.81-.27-1.62-.43-2.43l.18-.09A.47.47,0,0,0,43.89,18.05Zm-1.52-3.73a.62.62,0,0,0,.37-.2.34.34,0,0,0,.12.06l0,.06h0a.61.61,0,0,0,0,.12c-.15.38.27.67.61.59a.49.49,0,0,0,.28.21c-.18.28-.36.55-.55.82l-.31.42c-.15-.68-.32-1.37-.48-2.05C42.34,14.35,42.36,14.34,42.37,14.32ZM28.76,9.9c4.09.22,8.1-1.35,12,.59a.67.67,0,0,0,.19,0,81.39,81.39,0,0,0,1.25,8.38c-.33.45-.64.91-1,1.37a.41.41,0,0,0-.39.35c0,.11,0,.23-.07.34A13.58,13.58,0,0,1,37,25.21a3.83,3.83,0,0,1-3.45.5,30.76,30.76,0,0,1-4.19-3.62.79.79,0,0,0-.23-.14l-.44-.56c.08-1.12.12-2.24.13-3.36a4.48,4.48,0,0,0,1.07.7.27.27,0,0,0,.33-.42c-.36-.42-.82-.72-1.21-1.1-.07-.06-.12-.13-.18-.19,0-1.79-.09-3.58-.18-5.34a.32.32,0,0,0,0-.14L28.5,9.81A.48.48,0,0,0,28.76,9.9Zm6.76,46.4a26.64,26.64,0,0,1-1.11-5.19l.3-.13C35.93,52.66,35.79,54.36,35.52,56.3Zm-4.6-6.23a1.09,1.09,0,0,1-.08-.15h.26l.09,0a4.23,4.23,0,0,0,.89.35.32.32,0,0,0,.51.16l0,0a4.11,4.11,0,0,0,2.07-.13C33.57,50.92,31.63,51.16,30.92,50.07Zm1.5,7a17.47,17.47,0,0,1,0-5.59h.1C32.67,53.36,33,55.17,32.42,57Zm2.47-7.65a2.86,2.86,0,0,1-1.54.36A14.2,14.2,0,0,0,34.73,48C35.1,48.46,35.34,49,34.89,49.37Zm-1.64-2.65a1.92,1.92,0,0,1,.71.41l.07.06-.51.84A3.49,3.49,0,0,0,33.25,46.72ZM30.93,48.5c0-.68,1-1.25,1.6-1.61a2,2,0,0,1,.11,1.66,1.67,1.67,0,0,1-1.3.71A.89.89,0,0,1,30.93,48.5Zm1.45,1.15.1,0,0,0Zm2-3.11a3.37,3.37,0,0,0-.38-.28,3,3,0,0,1,.45.15A.54.54,0,0,1,34.4,46.54Zm1.49,2.29a2.77,2.77,0,0,0-.66-1.39l-.1-.12.18-.31A2.12,2.12,0,0,1,35.89,48.83ZM11.75,30.89a4.63,4.63,0,0,1,3,.88A20.52,20.52,0,0,0,11.75,30.89Zm-.7.11ZM6.11,32.69a2.07,2.07,0,0,1,1.76-1.38,11.63,11.63,0,0,0-2.08,2.22C5.88,33.25,6,33,6.11,32.69Zm4,44.89-.75-.51A5.69,5.69,0,0,0,5.34,76a6.58,6.58,0,0,0,.78-3c0-1.5-1.34-1.76-2.59-1.65.54-.74,1.1-1.46,1.6-2.23A.6.6,0,0,0,5,68.28c4.2-3.34.25-11.21-.31-15.38a61.3,61.3,0,0,1,.23-14.64c0-.22,0-.44.07-.66,1.09-2.47,2.87-5.09,5-6.19a4.49,4.49,0,0,0,1.72-.14l0,0A32.9,32.9,0,0,1,16,32.83a6.31,6.31,0,0,1,.6.86c-1.26,3,1.62,6.13,3.78,7.93,2.72,2.27,6.52,4.33,10.13,4.62a4.71,4.71,0,0,0-1.87,1.83c-.6,1.16.21,2.22,1.1,2.91.08.06.19,0,.12-.11a2.25,2.25,0,0,1,.38-3.71,5.78,5.78,0,0,1,.86-.52,3.4,3.4,0,0,0-.94,3.43,1.42,1.42,0,0,0,.17.35.24.24,0,0,0-.1.12,21.58,21.58,0,0,0-.79,6.89.36.36,0,0,0,.67.18,10.57,10.57,0,0,0,.91-6,.25.25,0,0,0-.49,0c-.12,1.21-.12,2.43-.34,3.61a28,28,0,0,1,.45-4.38,2.64,2.64,0,0,0,1.66.61,13.21,13.21,0,0,0-.11,6.4.22.22,0,0,0,.4,0,10.34,10.34,0,0,0,.36-6.46,5.28,5.28,0,0,0,.72-.08,3.9,3.9,0,0,0,.67-.18,20.87,20.87,0,0,0,1.12,6.07.23.23,0,0,0,.41,0c.32-2.05,1-4.85-.71-6.43a2.63,2.63,0,0,0,1.25-3.16,2.7,2.7,0,0,0-.76-1.16c.13-.26.25-.51.36-.77a37.54,37.54,0,0,0,6.43-2.44C46,41.55,49.9,39,51.07,35c.23-.77-1-1.09-1.2-.33-1.1,3.42-4.56,5.56-7.57,7.13a30.92,30.92,0,0,1-5.69,2.25A15.83,15.83,0,0,0,37.05,35c0-.15-.25-.08-.23.07a16.19,16.19,0,0,1-1.31,9.32,23.87,23.87,0,0,1-3.63.59,8.28,8.28,0,0,1-1.22,0c-3.17-2.39-4-6.88-4.51-10.72a4.49,4.49,0,0,0,.49-.87,32,32,0,0,0,1.75-7.27.13.13,0,0,0-.21-.12,1.52,1.52,0,0,0-.32.52c.22-.92.4-1.86.53-2.8,1.69,3.13,6.44,6.64,10,6.09a10.58,10.58,0,0,0-.09,1.69.43.43,0,0,0,.15.33c0,.1,0,.19,0,.29l0,.24a.64.64,0,0,0,0,.2,5.68,5.68,0,0,0,.14,1.89c1.34,2.88,5.45,1.17,7.67.57a27.18,27.18,0,0,1,2.81-.64c1.46-.24,2.72-.44,3.22,1.1a48.08,48.08,0,0,1,2,10.38A38.56,38.56,0,0,1,51.65,64c-.14-.82-.29-1.64-.47-2.46-.54-2.49-4.52-1.92-4.42.6a115.72,115.72,0,0,1-.6,12.07c0,.11,0,.22,0,.33-.32-.55-.65-1.1-1-1.64s-2.38-2.8-1.71-.86c0,0,0,0,0,0,0-.35-.27-.56,0-.24a4.59,4.59,0,0,1,.64,1c.64,1.09,1.24,2.19,1.82,3.3l0,.27c-1.22.66-2.35,1.4-3.33,2a116.37,116.37,0,0,0-12.21,9.12c-2.12,1.72-4.24,3.43-6.43,5.07-1.1.82-2.23,1.61-3.36,2.38C19.09,96,18,97,17.13,94.7,15.72,91,18.54,86.87,17.78,83a.38.38,0,0,0-.46-.26c-.36.06-.71.11-1.07.15.16-.91.31-1.83.44-2.75a7.06,7.06,0,0,0,2.8-4.07.47.47,0,0,0-.57-.57,11.61,11.61,0,0,1-1.77.11.19.19,0,0,1,0-.08,41,41,0,0,0-.47-7.91l.21-.38a.15.15,0,0,0-.21-.21l-.08,0c-.53-3.51-1.33-7-1.91-10.51-.11-1.07-.23-2.13-.38-3.19a.41.41,0,0,0-.1-.22A38.76,38.76,0,0,1,14,47.78a.1.1,0,1,0-.19,0,36,36,0,0,0,0,5.29.54.54,0,0,0-.35.58c.46,3.24.62,6.5,1,9.76a10.87,10.87,0,0,1-.05,4.29,19.38,19.38,0,0,1-2,3.51.53.53,0,0,0,.08.61c-1.15,1.24-2.43,2.4-3.45,3.72h0l-.08.09c-.35.46.38,1,.76.59a34.41,34.41,0,0,1,4.61-3.91.73.73,0,0,1,.24.22C13,74.22,11.28,75.67,10.15,77.58Zm6.7,1.4c.1-.81.18-1.63.24-2.45.44,0,.88,0,1.31,0a6.2,6.2,0,0,1-.94,1.87l-.42.44Zm-2.93,4.19c.49-.58,1-1.15,1.49-1.71-.1.52-.2,1.05-.32,1.58Zm1,.67c-.07.29-.13.58-.2.87a.86.86,0,0,0-.86-.13.74.74,0,0,0-.5-.47C13.73,84,14.32,83.93,14.92,83.84Zm-.76-2.06a4.3,4.3,0,0,1,.63-1.84.4.4,0,0,0,.27-.14A6.56,6.56,0,0,0,16,78.08c-.09.72-.19,1.45-.32,2.18Zm1.1-14a6.75,6.75,0,0,0,.23-1.54c.07.54.15,1.08.21,1.62A.53.53,0,0,0,15.26,67.78Zm.61,1.52c0,.33.07.66.1,1-.23.09-.45.18-.67.29Zm0,2.85.19-.27,0,.51A2.19,2.19,0,0,0,15.9,72.15Zm-4.11,6.57c-.26-.21-.54-.4-.81-.59a26.59,26.59,0,0,1,2.62-2.58.53.53,0,0,0,.35.39C13.24,76.87,12.5,77.78,11.79,78.72Zm1.05.88-.19-.18c.45-.49.92-1,1.4-1.44A10.2,10.2,0,0,1,12.84,79.6Zm.46,23.1c-.05-6.47,1.64-12.7,2.81-19,.6-.06,1.07,0,1.11.09.55,1.87-.3,4.11-.72,5.94-.66,2.83-.63,5.39,1.24,7.73a.48.48,0,0,0,.56.07c5.56-3.21,10.49-7.35,15.52-11.32,2.81-2.22,5.67-4.38,8.68-6.34.92-.6,2-1.37,3.25-2.08a29,29,0,0,0-.28,3.48L44.74,81c-.4-.15-.7.34-.52.67A16.84,16.84,0,0,0,45.77,84,5.15,5.15,0,0,0,47,86.36a2.74,2.74,0,0,0,1.37.75c.59.68,1.16,1.38,1.69,2.12-4.64-.32-9.11-1-13.66.5a.51.51,0,0,0-.34.37c-.9.09-1.79.2-2.68.33h0l-.14,0c-.61.08-.45,1,.14,1,2.51,0,5,.11,7.53.33a45.84,45.84,0,0,1,5.51.73c-10,3-21.62,2.89-30.6,8.39a.77.77,0,0,0-1.16.32c-.07.18-.13.37-.19.56C14.08,102.11,13.69,102.4,13.3,102.7Zm4.61,18.4c-.66-3.51-1.4-7-1.86-10.55a42.5,42.5,0,0,1-.09-8A38.79,38.79,0,0,1,28.9,98.74a37.73,37.73,0,0,0-5.09,1.93c-.59.28-.27,1.15.31,1.16a43.51,43.51,0,0,0,9.24-1.07c-.45,1.57-1,3.13-1.39,4.72a56.88,56.88,0,0,0-1.3,8.13c-.32,2.86-.52,5.73-.7,8.61-3.68,1.58-7.35,3.18-11,4.91C18.62,125.12,18.29,123.11,17.91,121.1Zm12.72,11a3,3,0,0,1,1.85.75c1.88,1.84-.64,5.15-1.88,6.5l-.34.35c0-.36,0-.72,0-1.08C30.39,136.45,30.58,134.28,30.63,132.1ZM14.8,134.77a18.53,18.53,0,0,1-5.52,1.31c1.08-2.06,3.27-3.53,5.18-4.72A49.75,49.75,0,0,1,19,128.93c.33,1.35.67,2.7,1,4C18.24,133.57,16.53,134.2,14.8,134.77Zm14.59-4.38a29.69,29.69,0,0,0-7.06,1.78c-.7.22-1.39.46-2.08.7-.05-.18-.1-.35-.14-.52-.3-1.19-.56-2.39-.8-3.59l1.76-.83c2.9-1.36,5.84-2.63,8.79-3.88C29.72,126.16,29.58,128.28,29.39,130.39Zm-4.75,21.53c-2.45-2.13,1.64-6.22,3.09-7.61.43-.41.95-.88,1.51-1.39a19.17,19.17,0,0,0,1.35,7.21c-.14,1.12-.29,2.24-.45,3.37C28.13,153.38,26,153.12,24.64,151.92Zm2,34.86c.14-2.22.54-4.5.7-6.76a8,8,0,0,0,2.51.18,27.93,27.93,0,0,1,3.85.57.32.32,0,0,0-.09.15,2.36,2.36,0,0,1,0,.28,6.18,6.18,0,0,0-.36,5.52c0,1.26.11,2.51.23,3.76a7.32,7.32,0,0,1-7,.79C26.39,189.63,26.55,188,26.62,186.78ZM35,191.89a8.93,8.93,0,0,1-.31,3.1c-.2-1.31-.4-2.63-.55-4a2.53,2.53,0,0,0,.67-1.08C34.92,190.6,35,191.25,35,191.89Zm-.24-2.3a.26.26,0,0,0-.37,0l-.37.37q-.09-.94-.15-1.89a9.71,9.71,0,0,0,.83,1.14Zm-1.22,7.52a4,4,0,0,1-5.34.13c-1.29-1.23-1.71-3.28-1.8-5.37a8.35,8.35,0,0,0,4.32.55,6.84,6.84,0,0,0,2.78-.88c.18,1.58.4,3.17.64,4.74A5.29,5.29,0,0,1,33.57,197.11Zm7.87-2.52q-3.13,1.65-6.26,3.35L35,197a5.2,5.2,0,0,0,.62-1.84,18.33,18.33,0,0,0-.13-5A31.57,31.57,0,0,0,41.44,194.59Zm-3.63-18c-.48.68-.93,1.38-1.39,2.09s-.71,1.58-1.73,1.29a23.68,23.68,0,0,0-2.64-.52c-1-.16-3.91.09-4.43-.76-.09-.14-.16-.28-.24-.43,0-.54,0-1.08-.07-1.61a.27.27,0,0,0-.53,0s0,.1,0,.15a20.41,20.41,0,0,1-.82-4.13c.89.44,1.76.86,2.63,1.24,0,.27.05.54.08.81l-.39,0c-.56,0-.69.88-.13,1l.19,0,.66.16a.6.6,0,0,0,.43,0c1.55.25,3.14.5,4.73.64l-.15.76a.38.38,0,0,0,.74.2l.3-.9A21.34,21.34,0,0,0,37.81,176.55ZM29.6,174.3c.82.33,1.66.64,2.5.9q-1.22-.15-2.43-.33C29.64,174.68,29.62,174.49,29.6,174.3ZM39.9,154c-1.31,7.06-3.86,13.82-5.41,20.81a27.5,27.5,0,0,1-5-1.66c-.52-6,.37-12.05,1.08-18.07h0c.8.07,1.59.12,2.39.2s1-.84.57-1.33l.11.09c.4.29.88-.35.52-.67a10.85,10.85,0,0,1-3-4.7,54.77,54.77,0,0,0,.08-5.73.06.06,0,0,0-.11,0c0,1.57-.13,3.13-.28,4.69a23.94,23.94,0,0,1-.63-5.63c3-2.83,6.25-6.66,3.51-10.17a4.08,4.08,0,0,0-3.09-1.44v-1a48.83,48.83,0,0,0,.85-6c3.63-1.54,7.25-3.09,10.8-4.81.94-.45,2.27-1.09,3.77-1.88l-.27,1c-.93,3.42-2,6.78-3.21,10.12.06-.31.13-.61.2-.91s-.21-.23-.25-.07l-.66,2.64c0-.38,0-.76-.05-1.14a.14.14,0,0,0-.28,0c0,.89-.08,1.79-.11,2.69-1.2,3.31-2.43,6.62-3.57,9.95-.06.2.24.27.31.09q1.23-3.1,2.41-6.21c-1.51,6.55-2.86,13.16-4.1,19.74a.33.33,0,0,0,.64.18c1.27-4.51,2.16-9.12,3-13.75a.27.27,0,0,0,.33-.12c.26-.6.52-1.19.77-1.79A95.75,95.75,0,0,1,39.9,154Zm-9.16-.47c.09-.86.18-1.72.26-2.58a9.33,9.33,0,0,0,2.28,2.79,1,1,0,0,0-.3-.08C32.29,153.59,31.53,153.56,30.74,153.53Zm10.61-19.48c0,.95-.05,1.89-.07,2.83-.28.79-.56,1.58-.85,2.36C40.73,137.51,41,135.78,41.35,134.05ZM46.15,122c-1.41,4.18-2.67,8.4-4.06,12.57,0-1.13-.08-2.26-.13-3.38,1.79-4.89,3.43-9.84,4.78-14.86.58-.31,1.16-.64,1.76-1C47.73,117.53,46.9,119.74,46.15,122Zm4.5-19.11a.85.85,0,0,0-.33.6c-.18,1.73-.51,3.43-.63,5.16-.26,1.31-.56,2.61-.85,3.92a.86.86,0,0,0,.1.59c-.54.33-1.09.67-1.64,1A84.3,84.3,0,0,0,49,104.38c.11-.87.21-1.76.29-2.66l.31.2c.72.45,1.36-.67.66-1.14l-.88-.58c0-.17,0-.34,0-.5a5.12,5.12,0,0,0,1.44-.42l-.12,2.44C50.7,102.1,50.68,102.47,50.65,102.85Z"/><path class="cls-4" d="M28.49,65.62s1-1,1.25-1.3c.91-.92,1.86-1.8,2.82-2.66s2.21-2.06,3.41-3a16.37,16.37,0,0,0-2.6,4.9c-.09.33.25.73.6.6,2.56-1,4.05-3.32,6.22-4.85,0,.21.07.41.1.61a.49.49,0,0,0,.47.36,4.41,4.41,0,0,0,2.84-.71c.49-.38,0-1.22-.49-.84a3.17,3.17,0,0,1-1.94.57,7.45,7.45,0,0,1-.14-.8.49.49,0,0,0-.73-.42c-2.1,1.24-3.53,3.45-5.61,4.67A29.77,29.77,0,0,1,38.37,57c.3-.42-.27-.87-.66-.66a32.15,32.15,0,0,0-6.1,4.87c-1.05.95-2.09,1.93-3.08,2.95-.31.32-1.06.94-1,1.46S28.56,66.25,28.49,65.62Z"/></g></g></svg>