<svg xmlns="http://www.w3.org/2000/svg" xmlns:xlink="http://www.w3.org/1999/xlink" viewBox="0 0 691.49 423.7"><defs><style>.cls-1{fill:none;}.cls-2{clip-path:url(#clip-path);}.cls-3{fill:#e0e0e0;}.cls-4{fill:#ebebeb;}.cls-5{fill:#fff;}.cls-6{fill:#375a64;}.cls-7{fill:#f4f4f4;}.cls-8{fill:#f9f9f9;}.cls-9{fill:#1a2e35;}.cls-10{fill:#ff735d;}.cls-11{fill:#ffbe9c;}.cls-12{fill:#ff996c;}.cls-13{opacity:0.3;}.cls-14{clip-path:url(#clip-path-9);}</style><clipPath id="clip-path" transform="translate(-22.97 -54.77)"><rect class="cls-1" width="750" height="500"/></clipPath><clipPath id="clip-path-9" transform="translate(-22.97 -54.77)"><rect class="cls-1" x="307.45" y="251.31" width="12.74" height="69.53"/></clipPath></defs><title>fitness</title><g id="Layer_2" data-name="Layer 2"><g id="Layer_1-2" data-name="Layer 1"><g class="cls-2"><g class="cls-2"><rect class="cls-3" x="496.62" y="0.18" width="75.14" height="78.33"/><rect class="cls-4" x="491.53" y="0.18" width="75.14" height="78.33"/><rect class="cls-5" x="501.63" y="10.71" width="54.94" height="57.27"/><g class="cls-2"><path class="cls-3" d="M524.6,123.13a11.07,11.07,0,0,1-1.37,1.56c-.89.92-2.12,2.17-3.51,3.53s-2.64,2.58-3.58,3.44a10.31,10.31,0,0,1-1.57,1.35,10.3,10.3,0,0,1,1.37-1.56c.88-.92,2.12-2.17,3.51-3.53s2.65-2.59,3.58-3.45a10.37,10.37,0,0,1,1.57-1.34" transform="translate(-22.97 -54.77)"/><path class="cls-3" d="M579.53,123a9.75,9.75,0,0,1,1.56,1.37c.92.88,2.17,2.12,3.53,3.5s2.58,2.65,3.45,3.59a10.84,10.84,0,0,1,1.34,1.56,10.07,10.07,0,0,1-1.55-1.36c-.92-.88-2.18-2.12-3.54-3.51s-2.58-2.65-3.45-3.59a10.07,10.07,0,0,1-1.34-1.56" transform="translate(-22.97 -54.77)"/><path class="cls-3" d="M579.38,65.64a11,11,0,0,1,1.38-1.56c.88-.92,2.12-2.17,3.5-3.53s2.65-2.58,3.58-3.45a10.54,10.54,0,0,1,1.57-1.34A10.59,10.59,0,0,1,588,57.31c-.88.92-2.12,2.18-3.5,3.54s-2.66,2.58-3.59,3.45a9.81,9.81,0,0,1-1.57,1.34" transform="translate(-22.97 -54.77)"/><path class="cls-3" d="M524.45,65.78a11,11,0,0,1-1.56-1.38c-.92-.88-2.17-2.12-3.53-3.5s-2.58-2.65-3.45-3.58a10.54,10.54,0,0,1-1.34-1.57,10.59,10.59,0,0,1,1.55,1.37c.92.88,2.18,2.12,3.54,3.5s2.59,2.66,3.45,3.59a9.81,9.81,0,0,1,1.34,1.57" transform="translate(-22.97 -54.77)"/><path class="cls-3" d="M579.38,122.75s0-.1,0-.28,0-.45,0-.79c0-.72,0-1.75,0-3.09,0-2.71,0-6.66,0-11.67,0-10-.06-24.32-.1-41.44l.18.18-54.78,0h0l.2-.21c0,21,0,40.69,0,57.27l-.18-.18,39.68.09,11.14,0,2.94,0h0l-2.91,0-11.1,0-39.79.09h-.18v-.18c0-16.58,0-36.25,0-57.27v-.2h.21l54.78,0h.19v.18c0,17.17-.06,31.5-.09,41.55,0,5,0,8.93,0,11.63,0,1.33,0,2.35,0,3.06,0,.33,0,.59,0,.77s0,.26,0,.26" transform="translate(-22.97 -54.77)"/><path class="cls-4" d="M539.1,89.41s-1.18,14.18,14.18,14.18c0-7.57-6.25-13.54-14.18-14.18" transform="translate(-22.97 -54.77)"/><path class="cls-4" d="M567.19,89.42S553,88.24,553,103.6c7.57,0,13.54-6.25,14.18-14.18" transform="translate(-22.97 -54.77)"/><path class="cls-3" d="M552.59,81.66s-11.58,10.39.64,21.93c5.68-6,5.2-15.46-.64-21.93" transform="translate(-22.97 -54.77)"/><rect class="cls-3" x="111.79" y="0.02" width="75.48" height="78.68"/><rect class="cls-6" x="106.68" y="0.02" width="75.48" height="78.68"/><rect class="cls-7" x="106.66" width="75.52" height="78.73"/><rect class="cls-5" x="116.83" y="10.6" width="55.19" height="57.53"/><path class="cls-3" d="M139.8,123.28a9.35,9.35,0,0,1-1.36,1.58c-.89.93-2.12,2.19-3.51,3.56s-2.67,2.58-3.61,3.45a9.39,9.39,0,0,1-1.59,1.33,8.43,8.43,0,0,1,1.35-1.58c.88-.93,2.12-2.19,3.52-3.56s2.67-2.59,3.61-3.46a8.57,8.57,0,0,1,1.59-1.32" transform="translate(-22.97 -54.77)"/><path class="cls-3" d="M195,123.14a8.61,8.61,0,0,1,1.59,1.36c.93.88,2.18,2.12,3.55,3.51s2.59,2.66,3.45,3.6a8.26,8.26,0,0,1,1.33,1.6,9.35,9.35,0,0,1-1.58-1.36c-.93-.88-2.19-2.12-3.56-3.51s-2.59-2.67-3.46-3.61a9.42,9.42,0,0,1-1.32-1.59" transform="translate(-22.97 -54.77)"/><path class="cls-3" d="M194.83,65.52a9.35,9.35,0,0,1,1.36-1.58c.88-.93,2.12-2.19,3.51-3.56s2.67-2.58,3.61-3.45a8.57,8.57,0,0,1,1.59-1.32,9,9,0,0,1-1.35,1.57c-.88.93-2.13,2.19-3.52,3.56s-2.67,2.6-3.61,3.46a8,8,0,0,1-1.59,1.32" transform="translate(-22.97 -54.77)"/><path class="cls-3" d="M139.65,65.66a8.25,8.25,0,0,1-1.59-1.36c-.93-.88-2.19-2.12-3.55-3.51s-2.59-2.66-3.45-3.6a8.26,8.26,0,0,1-1.33-1.6A9.57,9.57,0,0,1,131.3,57c.93.88,2.2,2.12,3.57,3.51s2.59,2.68,3.45,3.62a9,9,0,0,1,1.33,1.58" transform="translate(-22.97 -54.77)"/><path class="cls-3" d="M194.83,122.9s0-.1,0-.28,0-.46,0-.81c0-.72,0-1.76,0-3.1,0-2.73,0-6.69-.05-11.73,0-10.07-.07-24.42-.11-41.61l.21.21-55,0h0l.24-.24c0,21.11,0,40.87,0,57.53l-.21-.21,39.85.1,11.19.06,3,0h.76a1.39,1.39,0,0,1,.27,0h-1l-2.93,0-11.14.06-40,.11h-.21v-.21c0-16.66,0-36.42,0-57.53v-.24h.25l55,0H195v.21c0,17.24-.08,31.64-.1,41.75,0,5-.05,9-.06,11.68,0,1.32,0,2.35,0,3.06,0,.33,0,.59,0,.78a1,1,0,0,1,0,.26" transform="translate(-22.97 -54.77)"/><path class="cls-7" d="M173.53,106.27a34.46,34.46,0,0,0-5.06-11.34c-.88-1.29-2-2.63-3.6-2.75a3.56,3.56,0,0,0-3.05,1.6,6.73,6.73,0,0,0-1.08,3.39c-2.67-1.38-6-1.85-8.65-.5s-4.3,4.87-3,7.55,4.76,3.46,7.73,3.94a3.32,3.32,0,0,0-.83,4.09,4.92,4.92,0,0,0,3.61,2.48,7.17,7.17,0,0,0,4.49-.43,26,26,0,0,0,9.39-8" transform="translate(-22.97 -54.77)"/><path class="cls-3" d="M184.18,107.64a6.24,6.24,0,0,1-1.18,0c-.76,0-1.86-.13-3.21-.27-2.7-.27-6.32-.74-10.51-1.5s-7.75-1.6-10.37-2.29c-1.32-.35-2.38-.65-3.1-.88a5.67,5.67,0,0,1-1.11-.4,6.44,6.44,0,0,1,1.16.21l3.13.73c2.64.61,6.3,1.4,10.38,2.14s7.77,1.28,10.46,1.64l3.19.43a4.83,4.83,0,0,1,1.16.21" transform="translate(-22.97 -54.77)"/><path class="cls-3" d="M164.44,94.58a3.43,3.43,0,0,1,.45.76c.26.5.61,1.24,1,2.19a33.24,33.24,0,0,1,2.06,7.75l0,.19-.17.08-.66.28a39.66,39.66,0,0,0-7.29,4.2c-1.75,1.27-2.76,2.16-2.81,2.1a3.34,3.34,0,0,1,.64-.7c.44-.42,1.1-1,2-1.68a34.15,34.15,0,0,1,7.3-4.37l.66-.29-.15.26a39.47,39.47,0,0,0-1.89-7.7c-.68-1.91-1.2-3-1.13-3.07" transform="translate(-22.97 -54.77)"/><path class="cls-3" d="M157.85,97.8A13.13,13.13,0,0,1,159,99.57c.69,1.12,1.72,2.62,2.87,4.33l.19.29-.34.09-.69.16c-2.17.5-4.15.83-5.58,1.09a15.06,15.06,0,0,1-2.32.35,9.07,9.07,0,0,1,2.25-.69c1.42-.35,3.39-.73,5.54-1.23l.68-.16-.15.37c-1.13-1.71-2.12-3.26-2.74-4.43a7.27,7.27,0,0,1-.87-1.94" transform="translate(-22.97 -54.77)"/><path class="cls-7" d="M178.12,91.75a34.58,34.58,0,0,0,3.39-11.94c.15-1.56.11-3.33-1-4.42a3.59,3.59,0,0,0-3.37-.73,6.75,6.75,0,0,0-3,1.91c-1.16-2.76-3.4-5.25-6.32-5.92s-6.42,1-7.1,3.9,1.44,5.71,3.41,8a3.34,3.34,0,0,0-3.27,2.61,5,5,0,0,0,1.2,4.22,7.17,7.17,0,0,0,3.72,2.54,25.88,25.88,0,0,0,12.35-.15" transform="translate(-22.97 -54.77)"/><path class="cls-3" d="M178.12,76.34a2.58,2.58,0,0,1-.05.88,23.58,23.58,0,0,1-.44,2.37,33,33,0,0,1-2.73,7.55l-.08.17-.19,0-.7-.14a40,40,0,0,0-8.38-.72c-2.16,0-3.5.2-3.51.12a3.7,3.7,0,0,1,.93-.21c.6-.09,1.47-.2,2.56-.26a34.57,34.57,0,0,1,8.49.58l.71.15-.27.13a40,40,0,0,0,2.84-7.41c.54-2,.75-3.18.82-3.17" transform="translate(-22.97 -54.77)"/><path class="cls-3" d="M171.24,74.26a9.84,9.84,0,0,1,.12,2.07c0,1.28,0,3.06,0,5.06v.31l-.31-.08-.57-.16c-2-.56-3.9-1.1-5.24-1.52a9.74,9.74,0,0,1-2.13-.77,9.87,9.87,0,0,1,2.22.43c1.36.33,3.23.82,5.29,1.39l.57.16-.32.23c0-2,.11-3.78.19-5.06a8.09,8.09,0,0,1,.21-2.06" transform="translate(-22.97 -54.77)"/><path class="cls-3" d="M166.24,76.07s.14.09.37.31l1,1c.43.41.92,1,1.48,1.59s1.2,1.35,1.85,2.2a67,67,0,0,1,4.3,6.1,85,85,0,0,1,4.39,8,83.84,83.84,0,0,1,3.43,8.49,64.14,64.14,0,0,1,2,7.2l.31,1.49c.08.47.15.91.21,1.34.13.83.24,1.55.28,2.14s.08,1,.11,1.37a2,2,0,0,1,0,.48,1.69,1.69,0,0,1-.1-.47c-.06-.37-.12-.81-.2-1.35s-.21-1.3-.36-2.13c-.08-.42-.16-.86-.25-1.32l-.34-1.47a70.56,70.56,0,0,0-2.08-7.14c-.92-2.64-2.09-5.49-3.45-8.42s-2.89-5.61-4.32-8S172,83,170.64,81.33c-.63-.85-1.24-1.59-1.78-2.23s-1-1.21-1.41-1.63-.66-.75-.91-1a2,2,0,0,1-.3-.38" transform="translate(-22.97 -54.77)"/><polygon class="cls-3" points="420.55 6.17 420.55 97.84 288.88 97.84 284.14 6.81 420.55 6.17"/><rect class="cls-5" x="284.14" y="6.81" width="131.66" height="90.83"/><path class="cls-3" d="M439.39,153H306.49V61h132.9Zm-131.66-1.25H438.15V62.2H307.73Z" transform="translate(-22.97 -54.77)"/><rect class="cls-5" x="298.4" y="18.09" width="103.14" height="68.26"/><path class="cls-3" d="M424.51,72.86s-.18,0-.51,0l-1.46,0-5.67,0L395.62,73l-74.25.14.3-.3c0,20.86,0,44,0,68.26h0l-.33-.33,103.14.07-.26.26c.06-20.78.11-37.81.14-49.67,0-5.93.05-10.56.06-13.73,0-1.57,0-2.78,0-3.61s0-1.26,0-1.26,0,.4,0,1.2,0,2,0,3.56c0,3.16,0,7.78.06,13.68,0,11.9.08,29,.14,49.83v.26h-.26l-103.14.06H321v-.32h0c0-24.29,0-47.4,0-68.26v-.29h.3l74.44.14,21.19.08,5.6,0,1.44,0h.47" transform="translate(-22.97 -54.77)"/><path class="cls-3" d="M307.11,61.32a11.41,11.41,0,0,1,2.26,1.47c1.35,1,3.18,2.35,5.16,3.94s3.73,3.08,5,4.21a10.32,10.32,0,0,1,1.89,1.93c-.12.13-3.29-2.48-7.24-5.64s-7.14-5.76-7-5.91" transform="translate(-22.97 -54.77)"/><path class="cls-3" d="M438.77,61.58c.11.14-3,2.78-6.93,5.9s-7.22,5.53-7.33,5.38,3-2.78,6.93-5.89,7.22-5.53,7.33-5.39" transform="translate(-22.97 -54.77)"/><path class="cls-5" d="M438.67,152.43,424,140.53" transform="translate(-22.97 -54.77)"/><path class="cls-3" d="M424,140.53c.11-.14,3.49,2.41,7.54,5.7s7.25,6.06,7.14,6.2-3.49-2.41-7.55-5.7-7.25-6.06-7.13-6.2" transform="translate(-22.97 -54.77)"/><path class="cls-3" d="M307.11,152.41c-.11-.14,3-2.75,6.85-5.83s7.15-5.47,7.26-5.33-3,2.75-6.85,5.84-7.15,5.46-7.26,5.32" transform="translate(-22.97 -54.77)"/><rect class="cls-3" x="319.34" y="39.36" width="64.9" height="22.86"/><polygon class="cls-3" points="587.88 423.44 137.2 422.45 185.95 390.42 541.08 390.42 587.88 423.44"/><path class="cls-3" d="M165.45,474.63a66.15,66.15,0,0,1-8.37.26,65.92,65.92,0,0,1-8.36-.26,68.24,68.24,0,0,1,8.36-.26,68.48,68.48,0,0,1,8.37.26" transform="translate(-22.97 -54.77)"/><path class="cls-3" d="M173.35,471.34a68.24,68.24,0,0,1-8.36.26,68.48,68.48,0,0,1-8.37-.26,66.15,66.15,0,0,1,8.37-.26,65.92,65.92,0,0,1,8.36.26" transform="translate(-22.97 -54.77)"/><path class="cls-3" d="M179.28,467.78a66.15,66.15,0,0,1-8.37.26,65.92,65.92,0,0,1-8.36-.26,68.24,68.24,0,0,1,8.36-.26,68.48,68.48,0,0,1,8.37.26" transform="translate(-22.97 -54.77)"/><path class="cls-3" d="M185.21,464.22a66.15,66.15,0,0,1-8.37.26,65.92,65.92,0,0,1-8.36-.26,68.24,68.24,0,0,1,8.36-.26,68.48,68.48,0,0,1,8.37.26" transform="translate(-22.97 -54.77)"/><path class="cls-3" d="M191.13,460.67a68.24,68.24,0,0,1-8.36.26,68.48,68.48,0,0,1-8.37-.26,66.15,66.15,0,0,1,8.37-.26,65.92,65.92,0,0,1,8.36.26" transform="translate(-22.97 -54.77)"/><path class="cls-3" d="M197.06,457.11a65.92,65.92,0,0,1-8.36.26,66.15,66.15,0,0,1-8.37-.26,68.48,68.48,0,0,1,8.37-.26,68.24,68.24,0,0,1,8.36.26" transform="translate(-22.97 -54.77)"/><path class="cls-3" d="M203,453.55a64.85,64.85,0,0,1-8.36.27,64.82,64.82,0,0,1-8.37-.27,68.34,68.34,0,0,1,8.37-.26,68.38,68.38,0,0,1,8.36.26" transform="translate(-22.97 -54.77)"/><path class="cls-3" d="M208.92,450a68.48,68.48,0,0,1-8.37.26,68.24,68.24,0,0,1-8.36-.26,65.92,65.92,0,0,1,8.36-.26,66.15,66.15,0,0,1,8.37.26" transform="translate(-22.97 -54.77)"/><path class="cls-3" d="M214.84,446.44a65.92,65.92,0,0,1-8.36.26,65.92,65.92,0,0,1-8.36-.26,68.24,68.24,0,0,1,8.36-.26,68.24,68.24,0,0,1,8.36.26" transform="translate(-22.97 -54.77)"/><path class="cls-3" d="M602.07,478.21c0-.14,5.75-.26,12.84-.26s12.84.12,12.84.26-5.75.26-12.84.26-12.84-.11-12.84-.26" transform="translate(-22.97 -54.77)"/><path class="cls-3" d="M597.39,472.5c0-.14,4.82-.26,10.77-.26s10.78.12,10.78.26-4.82.26-10.78.26-10.77-.11-10.77-.26" transform="translate(-22.97 -54.77)"/><path class="cls-3" d="M591.48,469c0-.15,4.82-.26,10.77-.26S613,468.8,613,469s-4.81.26-10.76.26-10.77-.12-10.77-.26" transform="translate(-22.97 -54.77)"/><path class="cls-3" d="M587.68,465.74a177.75,177.75,0,0,1,19.4-.35,92.1,92.1,0,0,1-9.69.44,90,90,0,0,1-9.71-.09" transform="translate(-22.97 -54.77)"/><path class="cls-3" d="M582.14,461.83a174.05,174.05,0,0,1,19,0,174.05,174.05,0,0,1-19,0" transform="translate(-22.97 -54.77)"/><path class="cls-3" d="M577.45,458.28a152.11,152.11,0,0,1,17.78,0,152.11,152.11,0,0,1-17.78,0" transform="translate(-22.97 -54.77)"/><path class="cls-3" d="M572.57,454.72a134.69,134.69,0,0,1,16.73,0,134.69,134.69,0,0,1-16.73,0" transform="translate(-22.97 -54.77)"/><path class="cls-3" d="M566.65,451.16a134.69,134.69,0,0,1,16.73,0,134.69,134.69,0,0,1-16.73,0" transform="translate(-22.97 -54.77)"/><path class="cls-3" d="M560.72,447.61a134.69,134.69,0,0,1,16.73,0,134.69,134.69,0,0,1-16.73,0" transform="translate(-22.97 -54.77)"/><rect class="cls-8" x="460.83" y="156.27" width="48.65" height="12.87"/><path class="cls-3" d="M511.88,237.46a2.07,2.07,0,0,1,0-.23c0-.17,0-.39,0-.66,0-.61,0-1.45,0-2.53,0-2.22,0-5.42-.08-9.45l.15.15-48.65.1.25-.25h0v6.53q0,3.23,0,6.33l-.24-.24,34.67.11,10.23.07,2.77,0,.73,0h.25s-.07,0-.22,0l-.7,0-2.71,0-10.18.07-34.84.11H463v-.25c0-2.07,0-4.18,0-6.33V224.6h0l.25-.24,48.65.09H512v.15c0,4.07-.06,7.29-.08,9.54,0,1.07,0,1.9,0,2.5,0,.26,0,.46,0,.63s0,.21,0,.2" transform="translate(-22.97 -54.77)"/><path class="cls-3" d="M687.36,142s0-.08,0-.23,0-.39,0-.67c0-.6,0-1.45,0-2.53,0-2.22,0-5.41-.09-9.44l.15.15-48.65.1.25-.25h0v6.52q0,3.23,0,6.33l-.24-.24,34.67.11,10.24.07,2.76,0h.73l.25,0-.22,0h-.7l-2.71,0-10.18.07-34.84.11h-.24v-6.57c0-1.08,0-2.16,0-3.25v-3.27h0l.25-.25,48.65.1h.16v.15c0,4.06-.06,7.29-.08,9.53,0,1.07,0,1.9,0,2.5,0,.26,0,.47,0,.63s0,.21,0,.21" transform="translate(-22.97 -54.77)"/><path class="cls-3" d="M694,129.14a1.41,1.41,0,0,1,0-.25c0-.18,0-.41,0-.68,0-.63,0-1.49,0-2.58,0-2.26-.06-5.44-.1-9.36l.18.18-29.23.07c-.22.22.3-.31.25-.25h0v3.33c0,1.11,0,2.2,0,3.28,0,2.15,0,4.24,0,6.24l-.23-.24,20.91.11,6.09.07,1.64,0,.59,0a3.28,3.28,0,0,1-.53,0l-1.59,0-6,.06-21.07.11h-.24v-.24c0-2,0-4.09,0-6.24v-6.61h0l.25-.25,29.23.07h.18v.18c0,4-.07,7.19-.1,9.47,0,1.07,0,1.92,0,2.54a6.65,6.65,0,0,1,0,.86" transform="translate(-22.97 -54.77)"/><path class="cls-3" d="M133.2,183.81a1,1,0,0,1,0-.23c0-.17,0-.39,0-.66,0-.61,0-1.45,0-2.53,0-2.22,0-5.42-.09-9.45l.16.15-48.65.1c.11-.11-.25.25.24-.25h0v12.86l-.25-.24,34.67.11,10.24.07,2.77,0,.72,0h.26l-.23,0-.69,0-2.72,0-10.18.07-34.84.11H84.3V171h0c.49-.49.13-.13.25-.24l48.65.09h.15v.15c0,4.07-.07,7.29-.09,9.54,0,1.07,0,1.9,0,2.5,0,.26,0,.46,0,.63a1.23,1.23,0,0,1,0,.2" transform="translate(-22.97 -54.77)"/><path class="cls-3" d="M139.79,170.94s0-.09,0-.24,0-.41,0-.68c0-.64,0-1.5,0-2.58,0-2.26-.06-5.45-.1-9.37l.18.18-29.23.07.25-.25h0v6.62q0,3.24,0,6.24l-.24-.23,20.91.11,6.09.06,1.65,0,.58,0a3.28,3.28,0,0,1-.53,0l-1.59,0-6,.07-21.07.11h-.24V164.7c0-1.07,0-2.17,0-3.27v-3.35h0l.25-.25,29.23.07H140v.18c0,4-.07,7.19-.09,9.47,0,1.07,0,1.92,0,2.55a4.69,4.69,0,0,1,0,.85" transform="translate(-22.97 -54.77)"/></g><g class="cls-2"><path class="cls-9" d="M708.7,445.21c0,.14-149.41.26-333.68.26s-333.72-.12-333.72-.26S190.68,445,375,445s333.68.12,333.68.26" transform="translate(-22.97 -54.77)"/></g><g class="cls-2"><path class="cls-3" d="M658.82,318c-.1-2-1.25-25-1.5-29.93,0-.6-.05-.93-.05-.93s-7.31-3.76-15.1-3.14h0a28.27,28.27,0,0,0-10.39,3.74v30.91a10.79,10.79,0,0,0,10.5,9.74h2.8v.05l3.75-.18a10.79,10.79,0,0,0,10-10.26" transform="translate(-22.97 -54.77)"/><path class="cls-9" d="M658.82,318a5.3,5.3,0,0,1-.08,1.35,10.77,10.77,0,0,1-1.32,3.62,11.29,11.29,0,0,1-1.7,2.23,11,11,0,0,1-2.7,1.94,12.46,12.46,0,0,1-3.66,1.15l-.51.09-.51,0-1.06.05-2.19.12H645v-.18l.13.12a24.12,24.12,0,0,1-4.44-.2,11.43,11.43,0,0,1-4.46-1.81,11.06,11.06,0,0,1-4.35-6.38,6.39,6.39,0,0,1-.21-1.38c0-.46,0-.92,0-1.39,0-7.4,0-15.51,0-24v-5.7l.08-.05a30.44,30.44,0,0,1,5.13-2.45,23.7,23.7,0,0,1,5.34-1.32L642,284h0v-.18h.18a27.26,27.26,0,0,1,8.08.7,34.34,34.34,0,0,1,7.1,2.47l.08,0v.1c.44,9.26.8,17,1.06,22.39.11,2.69.2,4.8.27,6.27,0,.7,0,1.26,0,1.65,0,.17,0,.31,0,.42V318s0,0,0-.14,0-.25,0-.42c0-.39-.06-.94-.1-1.65-.09-1.46-.21-3.58-.36-6.26-.29-5.42-.7-13.13-1.19-22.38l.09.13a34.33,34.33,0,0,0-7-2.43,27.25,27.25,0,0,0-8-.67l.16-.19h0v.17l-.17,0a27.32,27.32,0,0,0-10.31,3.72l.09-.16v5.6c0,8.51,0,16.62,0,24v1.38a6.47,6.47,0,0,0,.19,1.31,11.47,11.47,0,0,0,.93,2.45,10.89,10.89,0,0,0,3.28,3.76,11.2,11.2,0,0,0,4.34,1.78,24.13,24.13,0,0,0,4.38.22h.12v.17l-.14-.12,2.18-.1,1.06-.05.51,0,.5-.08a12,12,0,0,0,3.59-1.1,10.65,10.65,0,0,0,2.68-1.88,12.28,12.28,0,0,0,1.7-2.17,11.48,11.48,0,0,0,1.37-3.57,7.49,7.49,0,0,0,.13-1,2.3,2.3,0,0,1,0-.34" transform="translate(-22.97 -54.77)"/><path class="cls-9" d="M658.82,318l-.28-4.81-26.76.24v5.22a10.79,10.79,0,0,0,10.5,9.74l2.8.05,3.74-.18a10.79,10.79,0,0,0,10-10.26" transform="translate(-22.97 -54.77)"/><path class="cls-9" d="M648.78,294.47s0-.31-.18-.84a3.49,3.49,0,0,0-1.27-1.82,3.32,3.32,0,1,0,0,5.31,3.49,3.49,0,0,0,1.27-1.82c.15-.52.14-.84.18-.83s0,.07,0,.22a2.32,2.32,0,0,1-.06.64,3.43,3.43,0,0,1-1.25,2,3.59,3.59,0,0,1-3.43.56,3.63,3.63,0,0,1,0-6.85,3.59,3.59,0,0,1,3.43.56,3.46,3.46,0,0,1,1.25,2,2.32,2.32,0,0,1,.06.64.6.6,0,0,1,0,.23" transform="translate(-22.97 -54.77)"/><path class="cls-9" d="M644.87,293.28c0,.05-.37.21-.56.74a1.18,1.18,0,0,0,.11.92,1.09,1.09,0,0,0,.93.53,1.11,1.11,0,0,0,.94-.54,1.21,1.21,0,0,0,.09-.92c-.19-.53-.6-.68-.56-.74s.48,0,.8.65a1.37,1.37,0,0,1,0,1.17,1.43,1.43,0,0,1-1.24.75,1.41,1.41,0,0,1-1.24-.74,1.38,1.38,0,0,1,0-1.17c.31-.64.81-.69.8-.65" transform="translate(-22.97 -54.77)"/><path class="cls-9" d="M645.3,292.76c.11,0,.19.38.19.84s-.08.84-.19.84-.18-.37-.18-.84.08-.84.18-.84" transform="translate(-22.97 -54.77)"/><path class="cls-5" d="M645.87,302.22a.47.47,0,1,1-.46-.46.46.46,0,0,1,.46.46" transform="translate(-22.97 -54.77)"/><path class="cls-6" d="M634.21,315.79a.22.22,0,1,1-.22-.22.22.22,0,0,1,.22.22" transform="translate(-22.97 -54.77)"/><path class="cls-6" d="M634.21,317a.22.22,0,1,1-.22-.22.22.22,0,0,1,.22.22" transform="translate(-22.97 -54.77)"/><path class="cls-6" d="M635.72,315.79a.22.22,0,1,1-.22-.22.22.22,0,0,1,.22.22" transform="translate(-22.97 -54.77)"/><path class="cls-6" d="M635.72,317a.22.22,0,1,1-.22-.22.22.22,0,0,1,.22.22" transform="translate(-22.97 -54.77)"/><path class="cls-6" d="M637.23,315.79a.22.22,0,1,1-.22-.22.22.22,0,0,1,.22.22" transform="translate(-22.97 -54.77)"/><path class="cls-6" d="M637.23,317a.22.22,0,1,1-.22-.22.22.22,0,0,1,.22.22" transform="translate(-22.97 -54.77)"/><path class="cls-6" d="M638.73,315.79a.22.22,0,1,1-.22-.22.22.22,0,0,1,.22.22" transform="translate(-22.97 -54.77)"/><path class="cls-6" d="M638.73,317a.22.22,0,1,1-.22-.22.22.22,0,0,1,.22.22" transform="translate(-22.97 -54.77)"/><path class="cls-6" d="M640.24,315.79a.22.22,0,0,1-.22.22.22.22,0,0,1,0-.44.22.22,0,0,1,.22.22" transform="translate(-22.97 -54.77)"/><path class="cls-6" d="M640.24,317a.22.22,0,0,1-.22.22.22.22,0,0,1,0-.44.22.22,0,0,1,.22.22" transform="translate(-22.97 -54.77)"/><path class="cls-6" d="M641.75,315.79a.22.22,0,1,1-.22-.22.22.22,0,0,1,.22.22" transform="translate(-22.97 -54.77)"/><path class="cls-6" d="M641.75,317a.22.22,0,1,1-.22-.22.22.22,0,0,1,.22.22" transform="translate(-22.97 -54.77)"/><path class="cls-6" d="M643.26,315.79a.22.22,0,1,1-.22-.22.22.22,0,0,1,.22.22" transform="translate(-22.97 -54.77)"/><path class="cls-6" d="M643.26,317a.22.22,0,1,1-.22-.22.22.22,0,0,1,.22.22" transform="translate(-22.97 -54.77)"/><path class="cls-6" d="M644.77,315.79a.22.22,0,1,1-.22-.22.22.22,0,0,1,.22.22" transform="translate(-22.97 -54.77)"/><path class="cls-6" d="M644.77,317a.22.22,0,1,1-.22-.22.22.22,0,0,1,.22.22" transform="translate(-22.97 -54.77)"/><path class="cls-6" d="M646.28,315.79a.22.22,0,0,1-.22.22.22.22,0,1,1,0-.44.22.22,0,0,1,.22.22" transform="translate(-22.97 -54.77)"/><path class="cls-6" d="M646.28,317a.22.22,0,0,1-.22.22.22.22,0,0,1,0-.44.22.22,0,0,1,.22.22" transform="translate(-22.97 -54.77)"/><path class="cls-6" d="M647.78,315.79a.22.22,0,0,1-.22.22.22.22,0,0,1,0-.44.22.22,0,0,1,.22.22" transform="translate(-22.97 -54.77)"/><path class="cls-6" d="M647.78,317a.22.22,0,0,1-.22.22.22.22,0,0,1,0-.44.22.22,0,0,1,.22.22" transform="translate(-22.97 -54.77)"/><path class="cls-6" d="M649.29,315.79a.22.22,0,1,1-.22-.22.22.22,0,0,1,.22.22" transform="translate(-22.97 -54.77)"/><path class="cls-6" d="M649.29,317a.22.22,0,1,1-.22-.22.22.22,0,0,1,.22.22" transform="translate(-22.97 -54.77)"/><path class="cls-6" d="M650.8,315.79a.22.22,0,1,1-.22-.22.22.22,0,0,1,.22.22" transform="translate(-22.97 -54.77)"/><path class="cls-6" d="M650.8,317a.22.22,0,1,1-.22-.22.22.22,0,0,1,.22.22" transform="translate(-22.97 -54.77)"/><path class="cls-6" d="M652.31,315.79a.22.22,0,1,1-.22-.22.22.22,0,0,1,.22.22" transform="translate(-22.97 -54.77)"/><path class="cls-6" d="M652.31,317a.22.22,0,1,1-.22-.22.22.22,0,0,1,.22.22" transform="translate(-22.97 -54.77)"/><path class="cls-6" d="M653.82,315.79a.22.22,0,1,1-.22-.22.22.22,0,0,1,.22.22" transform="translate(-22.97 -54.77)"/><path class="cls-6" d="M653.82,317a.22.22,0,1,1-.22-.22.22.22,0,0,1,.22.22" transform="translate(-22.97 -54.77)"/><path class="cls-6" d="M655.32,315.79a.22.22,0,0,1-.22.22.22.22,0,0,1,0-.44.22.22,0,0,1,.22.22" transform="translate(-22.97 -54.77)"/><path class="cls-6" d="M655.32,317a.22.22,0,0,1-.22.22.22.22,0,0,1,0-.44.22.22,0,0,1,.22.22" transform="translate(-22.97 -54.77)"/><path class="cls-6" d="M656.83,315.79a.22.22,0,1,1-.22-.22.22.22,0,0,1,.22.22" transform="translate(-22.97 -54.77)"/><path class="cls-6" d="M656.83,317a.22.22,0,1,1-.22-.22.22.22,0,0,1,.22.22" transform="translate(-22.97 -54.77)"/><path class="cls-6" d="M634.21,318.32a.22.22,0,1,1-.22-.22.22.22,0,0,1,.22.22" transform="translate(-22.97 -54.77)"/><path class="cls-6" d="M634.21,319.55a.22.22,0,1,1-.22-.22.22.22,0,0,1,.22.22" transform="translate(-22.97 -54.77)"/><path class="cls-6" d="M635.72,318.32a.22.22,0,1,1-.22-.22.22.22,0,0,1,.22.22" transform="translate(-22.97 -54.77)"/><path class="cls-6" d="M635.72,319.55a.22.22,0,1,1-.22-.22.22.22,0,0,1,.22.22" transform="translate(-22.97 -54.77)"/><path class="cls-6" d="M637.23,318.32a.22.22,0,1,1-.22-.22.22.22,0,0,1,.22.22" transform="translate(-22.97 -54.77)"/><path class="cls-6" d="M637.23,319.55a.22.22,0,1,1-.22-.22.22.22,0,0,1,.22.22" transform="translate(-22.97 -54.77)"/><path class="cls-6" d="M638.73,318.32a.22.22,0,1,1-.22-.22.22.22,0,0,1,.22.22" transform="translate(-22.97 -54.77)"/><path class="cls-6" d="M638.73,319.55a.22.22,0,1,1-.22-.22.22.22,0,0,1,.22.22" transform="translate(-22.97 -54.77)"/><path class="cls-6" d="M640.24,318.32a.22.22,0,0,1-.22.22.22.22,0,0,1,0-.44.22.22,0,0,1,.22.22" transform="translate(-22.97 -54.77)"/><path class="cls-6" d="M640.24,319.55a.22.22,0,0,1-.22.22.22.22,0,0,1,0-.44.22.22,0,0,1,.22.22" transform="translate(-22.97 -54.77)"/><path class="cls-6" d="M641.75,318.32a.22.22,0,1,1-.22-.22.22.22,0,0,1,.22.22" transform="translate(-22.97 -54.77)"/><path class="cls-6" d="M641.75,319.55a.22.22,0,1,1-.22-.22.22.22,0,0,1,.22.22" transform="translate(-22.97 -54.77)"/><path class="cls-6" d="M643.26,318.32a.22.22,0,1,1-.22-.22.22.22,0,0,1,.22.22" transform="translate(-22.97 -54.77)"/><path class="cls-6" d="M643.26,319.55a.22.22,0,1,1-.22-.22.22.22,0,0,1,.22.22" transform="translate(-22.97 -54.77)"/><path class="cls-6" d="M644.77,318.32a.22.22,0,1,1-.22-.22.22.22,0,0,1,.22.22" transform="translate(-22.97 -54.77)"/><path class="cls-6" d="M644.77,319.55a.22.22,0,1,1-.22-.22.22.22,0,0,1,.22.22" transform="translate(-22.97 -54.77)"/><path class="cls-6" d="M646.28,318.32a.22.22,0,0,1-.22.22.22.22,0,0,1,0-.44.22.22,0,0,1,.22.22" transform="translate(-22.97 -54.77)"/><path class="cls-6" d="M646.28,319.55a.22.22,0,0,1-.22.22.22.22,0,1,1,0-.44.22.22,0,0,1,.22.22" transform="translate(-22.97 -54.77)"/><path class="cls-6" d="M647.78,318.32a.22.22,0,0,1-.22.22.22.22,0,0,1,0-.44.22.22,0,0,1,.22.22" transform="translate(-22.97 -54.77)"/><path class="cls-6" d="M647.78,319.55a.22.22,0,0,1-.22.22.22.22,0,0,1,0-.44.22.22,0,0,1,.22.22" transform="translate(-22.97 -54.77)"/><path class="cls-6" d="M649.29,318.32a.22.22,0,1,1-.22-.22.22.22,0,0,1,.22.22" transform="translate(-22.97 -54.77)"/><path class="cls-6" d="M649.29,319.55a.22.22,0,1,1-.22-.22.22.22,0,0,1,.22.22" transform="translate(-22.97 -54.77)"/><path class="cls-6" d="M650.8,318.32a.22.22,0,1,1-.22-.22.22.22,0,0,1,.22.22" transform="translate(-22.97 -54.77)"/><path class="cls-6" d="M650.8,319.55a.22.22,0,1,1-.22-.22.22.22,0,0,1,.22.22" transform="translate(-22.97 -54.77)"/><path class="cls-6" d="M652.31,318.32a.22.22,0,1,1-.22-.22.22.22,0,0,1,.22.22" transform="translate(-22.97 -54.77)"/><path class="cls-6" d="M652.31,319.55a.22.22,0,1,1-.22-.22.22.22,0,0,1,.22.22" transform="translate(-22.97 -54.77)"/><path class="cls-6" d="M653.82,318.32a.22.22,0,1,1-.22-.22.22.22,0,0,1,.22.22" transform="translate(-22.97 -54.77)"/><path class="cls-6" d="M653.82,319.55a.22.22,0,1,1-.22-.22.22.22,0,0,1,.22.22" transform="translate(-22.97 -54.77)"/><path class="cls-6" d="M655.32,318.32a.22.22,0,0,1-.22.22.22.22,0,0,1,0-.44.22.22,0,0,1,.22.22" transform="translate(-22.97 -54.77)"/><path class="cls-6" d="M655.32,319.55a.22.22,0,0,1-.22.22.22.22,0,0,1,0-.44.22.22,0,0,1,.22.22" transform="translate(-22.97 -54.77)"/><path class="cls-6" d="M656.83,318.32a.22.22,0,1,1-.22-.22.22.22,0,0,1,.22.22" transform="translate(-22.97 -54.77)"/><path class="cls-6" d="M656.83,319.55a.22.22,0,1,1-.22-.22.22.22,0,0,1,.22.22" transform="translate(-22.97 -54.77)"/><path class="cls-6" d="M634.21,320.75a.22.22,0,1,1-.22-.22.22.22,0,0,1,.22.22" transform="translate(-22.97 -54.77)"/><path class="cls-6" d="M635.72,320.75a.22.22,0,1,1-.22-.22.22.22,0,0,1,.22.22" transform="translate(-22.97 -54.77)"/><path class="cls-6" d="M635.72,322a.22.22,0,1,1-.22-.22.22.22,0,0,1,.22.22" transform="translate(-22.97 -54.77)"/><path class="cls-6" d="M637.23,320.75a.22.22,0,1,1-.22-.22.22.22,0,0,1,.22.22" transform="translate(-22.97 -54.77)"/><path class="cls-6" d="M637.23,322a.22.22,0,1,1-.22-.22.22.22,0,0,1,.22.22" transform="translate(-22.97 -54.77)"/><path class="cls-6" d="M638.73,320.75a.22.22,0,1,1-.22-.22.22.22,0,0,1,.22.22" transform="translate(-22.97 -54.77)"/><path class="cls-6" d="M638.73,322a.22.22,0,1,1-.22-.22.22.22,0,0,1,.22.22" transform="translate(-22.97 -54.77)"/><path class="cls-6" d="M640.24,320.75a.22.22,0,0,1-.22.22.22.22,0,0,1,0-.44.22.22,0,0,1,.22.22" transform="translate(-22.97 -54.77)"/><path class="cls-6" d="M640.24,322a.22.22,0,0,1-.22.22.22.22,0,0,1,0-.44.22.22,0,0,1,.22.22" transform="translate(-22.97 -54.77)"/><path class="cls-6" d="M641.75,320.75a.22.22,0,1,1-.22-.22.22.22,0,0,1,.22.22" transform="translate(-22.97 -54.77)"/><path class="cls-6" d="M641.75,322a.22.22,0,1,1-.22-.22.22.22,0,0,1,.22.22" transform="translate(-22.97 -54.77)"/><path class="cls-6" d="M643.26,320.75a.22.22,0,1,1-.22-.22.22.22,0,0,1,.22.22" transform="translate(-22.97 -54.77)"/><path class="cls-6" d="M643.26,322a.22.22,0,1,1-.22-.22.22.22,0,0,1,.22.22" transform="translate(-22.97 -54.77)"/><path class="cls-6" d="M644.77,320.75a.22.22,0,1,1-.22-.22.22.22,0,0,1,.22.22" transform="translate(-22.97 -54.77)"/><path class="cls-6" d="M644.77,322a.22.22,0,1,1-.22-.22.22.22,0,0,1,.22.22" transform="translate(-22.97 -54.77)"/><path class="cls-6" d="M646.28,320.75a.22.22,0,0,1-.22.22.22.22,0,0,1,0-.44.22.22,0,0,1,.22.22" transform="translate(-22.97 -54.77)"/><path class="cls-6" d="M646.28,322a.22.22,0,0,1-.22.22.22.22,0,1,1,0-.44.22.22,0,0,1,.22.22" transform="translate(-22.97 -54.77)"/><path class="cls-6" d="M647.78,320.75a.22.22,0,0,1-.22.22.22.22,0,0,1,0-.44.22.22,0,0,1,.22.22" transform="translate(-22.97 -54.77)"/><path class="cls-6" d="M647.78,322a.22.22,0,0,1-.22.22.22.22,0,0,1,0-.44.22.22,0,0,1,.22.22" transform="translate(-22.97 -54.77)"/><path class="cls-6" d="M649.29,320.75a.22.22,0,1,1-.22-.22.22.22,0,0,1,.22.22" transform="translate(-22.97 -54.77)"/><path class="cls-6" d="M649.29,322a.22.22,0,1,1-.22-.22.22.22,0,0,1,.22.22" transform="translate(-22.97 -54.77)"/><path class="cls-6" d="M650.8,320.75a.22.22,0,1,1-.22-.22.22.22,0,0,1,.22.22" transform="translate(-22.97 -54.77)"/><path class="cls-6" d="M650.8,322a.22.22,0,1,1-.22-.22.22.22,0,0,1,.22.22" transform="translate(-22.97 -54.77)"/><path class="cls-6" d="M652.31,320.75a.22.22,0,1,1-.22-.22.22.22,0,0,1,.22.22" transform="translate(-22.97 -54.77)"/><path class="cls-6" d="M652.31,322a.22.22,0,1,1-.22-.22.22.22,0,0,1,.22.22" transform="translate(-22.97 -54.77)"/><path class="cls-6" d="M653.82,320.75a.22.22,0,1,1-.22-.22.22.22,0,0,1,.22.22" transform="translate(-22.97 -54.77)"/><path class="cls-6" d="M653.82,322a.22.22,0,1,1-.22-.22.22.22,0,0,1,.22.22" transform="translate(-22.97 -54.77)"/><path class="cls-6" d="M655.32,320.75a.22.22,0,0,1-.22.22.22.22,0,0,1,0-.44.22.22,0,0,1,.22.22" transform="translate(-22.97 -54.77)"/><path class="cls-6" d="M655.32,322a.22.22,0,0,1-.22.22.22.22,0,0,1,0-.44.22.22,0,0,1,.22.22" transform="translate(-22.97 -54.77)"/><path class="cls-6" d="M656.83,320.75a.22.22,0,1,1-.22-.22.22.22,0,0,1,.22.22" transform="translate(-22.97 -54.77)"/><path class="cls-6" d="M635.72,323.16a.22.22,0,1,1-.22-.22.22.22,0,0,1,.22.22" transform="translate(-22.97 -54.77)"/><path class="cls-6" d="M637.23,323.16a.22.22,0,1,1-.22-.22.22.22,0,0,1,.22.22" transform="translate(-22.97 -54.77)"/><path class="cls-6" d="M637.23,324.4a.22.22,0,0,1-.44,0,.22.22,0,0,1,.44,0" transform="translate(-22.97 -54.77)"/><path class="cls-6" d="M638.73,323.16a.22.22,0,1,1-.22-.22.22.22,0,0,1,.22.22" transform="translate(-22.97 -54.77)"/><path class="cls-6" d="M638.73,324.4a.21.21,0,0,1-.22.21.21.21,0,0,1-.21-.21.22.22,0,1,1,.43,0" transform="translate(-22.97 -54.77)"/><path class="cls-6" d="M640.24,323.16a.22.22,0,0,1-.22.22.22.22,0,0,1,0-.44.22.22,0,0,1,.22.22" transform="translate(-22.97 -54.77)"/><path class="cls-6" d="M640.24,324.4a.21.21,0,0,1-.22.21.21.21,0,0,1-.21-.21.21.21,0,0,1,.21-.22.22.22,0,0,1,.22.22" transform="translate(-22.97 -54.77)"/><path class="cls-6" d="M641.75,323.16a.22.22,0,1,1-.22-.22.22.22,0,0,1,.22.22" transform="translate(-22.97 -54.77)"/><path class="cls-6" d="M641.75,324.4a.22.22,0,0,1-.44,0,.22.22,0,0,1,.44,0" transform="translate(-22.97 -54.77)"/><path class="cls-6" d="M643.26,323.16a.22.22,0,1,1-.22-.22.22.22,0,0,1,.22.22" transform="translate(-22.97 -54.77)"/><path class="cls-6" d="M643.26,324.4a.22.22,0,0,1-.44,0,.22.22,0,0,1,.44,0" transform="translate(-22.97 -54.77)"/><path class="cls-6" d="M644.77,323.16a.22.22,0,1,1-.22-.22.22.22,0,0,1,.22.22" transform="translate(-22.97 -54.77)"/><path class="cls-6" d="M644.77,324.4a.22.22,0,0,1-.44,0,.22.22,0,0,1,.44,0" transform="translate(-22.97 -54.77)"/><path class="cls-6" d="M646.28,323.16a.22.22,0,0,1-.22.22.22.22,0,1,1,0-.44.22.22,0,0,1,.22.22" transform="translate(-22.97 -54.77)"/><path class="cls-6" d="M646.28,324.4a.21.21,0,0,1-.22.21.21.21,0,0,1-.22-.21.22.22,0,0,1,.22-.22.22.22,0,0,1,.22.22" transform="translate(-22.97 -54.77)"/><path class="cls-6" d="M647.78,323.16a.22.22,0,0,1-.22.22.22.22,0,0,1,0-.44.22.22,0,0,1,.22.22" transform="translate(-22.97 -54.77)"/><path class="cls-6" d="M647.78,324.4a.21.21,0,0,1-.22.21.21.21,0,0,1-.21-.21.21.21,0,0,1,.21-.22.22.22,0,0,1,.22.22" transform="translate(-22.97 -54.77)"/><path class="cls-6" d="M649.29,323.16a.22.22,0,1,1-.22-.22.22.22,0,0,1,.22.22" transform="translate(-22.97 -54.77)"/><path class="cls-6" d="M649.29,324.4a.22.22,0,0,1-.44,0,.22.22,0,1,1,.44,0" transform="translate(-22.97 -54.77)"/><path class="cls-6" d="M650.8,323.16a.22.22,0,1,1-.22-.22.22.22,0,0,1,.22.22" transform="translate(-22.97 -54.77)"/><path class="cls-6" d="M650.8,324.4a.22.22,0,0,1-.44,0,.22.22,0,1,1,.44,0" transform="translate(-22.97 -54.77)"/><path class="cls-6" d="M652.31,323.16a.22.22,0,1,1-.22-.22.22.22,0,0,1,.22.22" transform="translate(-22.97 -54.77)"/><path class="cls-6" d="M652.31,324.4a.22.22,0,0,1-.44,0,.22.22,0,1,1,.44,0" transform="translate(-22.97 -54.77)"/><path class="cls-6" d="M653.82,323.16a.22.22,0,1,1-.22-.22.22.22,0,0,1,.22.22" transform="translate(-22.97 -54.77)"/><path class="cls-6" d="M653.82,324.4a.22.22,0,0,1-.44,0,.22.22,0,0,1,.44,0" transform="translate(-22.97 -54.77)"/><path class="cls-6" d="M655.32,323.16a.22.22,0,0,1-.22.22.22.22,0,0,1,0-.44.22.22,0,0,1,.22.22" transform="translate(-22.97 -54.77)"/><path class="cls-9" d="M661,267.6a1.57,1.57,0,0,1-.32-.26l-.86-.81a14.65,14.65,0,0,0-1.4-1.23l-.91-.72-.5-.4c-.18-.13-.37-.24-.56-.36a21,21,0,0,0-2.57-1.53c-.48-.23-1-.52-1.49-.72l-1.64-.64a23.77,23.77,0,0,0-7.7-1.23,23.15,23.15,0,0,0-7.67,1.46c-.56.22-1.12.41-1.64.64l-1.49.75-.7.36-.65.4-1.21.76a30,30,0,0,0-3.4,2.69l-.88.78a1.76,1.76,0,0,1-.33.26,1.33,1.33,0,0,1,.27-.31l.84-.84a26.15,26.15,0,0,1,3.35-2.79l1.21-.79.65-.42c.23-.13.47-.25.71-.37l1.5-.78c.52-.23,1.09-.43,1.65-.66a22.91,22.91,0,0,1,7.78-1.51,23.57,23.57,0,0,1,7.82,1.28l1.66.66c.54.21,1,.51,1.51.75a19.88,19.88,0,0,1,2.57,1.58l.56.38.49.41.9.75a11.8,11.8,0,0,1,1.37,1.29l.81.86a1.63,1.63,0,0,1,.27.31" transform="translate(-22.97 -54.77)"/><path class="cls-9" d="M655.94,274.59a22.18,22.18,0,0,0-3.34-2.7c-.28-.17-.57-.36-.89-.53l-1-.48-.54-.25-.57-.2c-.4-.13-.79-.29-1.21-.41a21.08,21.08,0,0,0-5.62-.77,19.66,19.66,0,0,0-5.61.84l-1.22.4c-.39.14-.74.33-1.1.48a14.12,14.12,0,0,0-1.91,1,12.63,12.63,0,0,0-1.46,1,7,7,0,0,0-1,.87,6.66,6.66,0,0,1-.87.77,7.58,7.58,0,0,1,.77-.87,6.64,6.64,0,0,1,1-.94,10.72,10.72,0,0,1,1.45-1.08,12.75,12.75,0,0,1,1.92-1.08c.36-.16.72-.36,1.12-.5l1.23-.43a19.59,19.59,0,0,1,5.71-.88,20.5,20.5,0,0,1,5.71.81c.43.12.83.29,1.23.43l.59.22.54.26,1,.51c.32.17.61.38.89.56s.56.34.8.53l.66.55.57.48c.16.17.29.33.42.46a6.57,6.57,0,0,1,.75.9" transform="translate(-22.97 -54.77)"/><path class="cls-9" d="M650.37,281.25a21.32,21.32,0,0,0-2-1.42,12.26,12.26,0,0,0-5.69-1.48,10.94,10.94,0,0,0-5.7,1.38c-1.31.77-1.94,1.51-2,1.45s.13-.2.43-.52a3.9,3.9,0,0,1,.58-.54,7,7,0,0,1,.85-.62,10.63,10.63,0,0,1,5.85-1.53,11.79,11.79,0,0,1,5.82,1.63l.47.3.39.31a4.7,4.7,0,0,1,.59.52c.31.32.46.5.44.52" transform="translate(-22.97 -54.77)"/><rect class="cls-6" x="567.79" y="338.68" width="11.28" height="52.2"/><rect class="cls-6" x="663.68" y="338.68" width="11.28" height="52.2"/><rect class="cls-6" x="549.12" y="271.72" width="142.36" height="13.17"/><polygon class="cls-6" points="685.81 339.35 557.79 339.62 557.79 284.89 685.81 284.89 685.81 339.35"/><path class="cls-9" d="M714.45,339.67c0,.14-31.87.25-71.17.25s-71.19-.11-71.19-.25,31.87-.26,71.19-.26,71.17.11,71.17.26" transform="translate(-22.97 -54.77)"/><path class="cls-9" d="M708.31,394.39c0,.15-28.45.26-63.54.26s-63.54-.11-63.54-.26,28.44-.25,63.54-.25,63.54.11,63.54.25" transform="translate(-22.97 -54.77)"/><path class="cls-9" d="M698.23,383.3s0-.21,0-.62,0-1,0-1.82c0-1.61,0-4,0-7,0-6.09,0-15-.09-26.06l.17.17-106.91.09h0l.26-.26c0,12.34,0,24.31,0,35.51l-.25-.24,76.47.11,22.34.07,6,0,1.56,0h.54a4.9,4.9,0,0,1-.51,0l-1.53,0-6,0-22.29.07-76.64.11h-.24v-.25c0-11.2,0-23.17,0-35.51v-.26h.26l106.91.09h.17v.17c0,11.16-.07,20-.09,26.16,0,3,0,5.37,0,7,0,.78,0,1.37,0,1.79s0,.59,0,.59" transform="translate(-22.97 -54.77)"/><path class="cls-9" d="M595.55,378.64a17.31,17.31,0,0,1-4.09,4.39,9,9,0,0,1,1.86-2.37,9.32,9.32,0,0,1,2.23-2" transform="translate(-22.97 -54.77)"/><path class="cls-9" d="M595.55,352.45a10.18,10.18,0,0,1-2.31-2.15,9.75,9.75,0,0,1-1.92-2.5,10,10,0,0,1,2.3,2.15,9.57,9.57,0,0,1,1.93,2.5" transform="translate(-22.97 -54.77)"/><path class="cls-9" d="M698.42,347.9a9.57,9.57,0,0,1-2.33,2.47,14.91,14.91,0,0,1-2.67,2.08,9.4,9.4,0,0,1,2.33-2.47,14.37,14.37,0,0,1,2.67-2.08" transform="translate(-22.97 -54.77)"/><path class="cls-9" d="M698.23,383.31a11.23,11.23,0,0,1-2.58-2.15,11.07,11.07,0,0,1-2.22-2.51,11.34,11.34,0,0,1,2.58,2.14,11.06,11.06,0,0,1,2.22,2.52" transform="translate(-22.97 -54.77)"/><path class="cls-9" d="M693.42,378.65s0-.16,0-.47,0-.75,0-1.33c0-1.18,0-2.9,0-5.14,0-4.48-.05-11-.08-19.26l.15.15-97.86.1h0l.26-.25c0,9,0,17.78,0,26.2l-.25-.25,69.84.11,20.55.07,5.54,0,1.44,0,.5,0H693l-1.41,0-5.49,0-20.5.07-70,.12h-.25v-.25c0-8.42,0-17.2,0-26.2v-.26h.27l97.86.1h.16v.16c0,8.29-.07,14.85-.09,19.36,0,2.22,0,3.93,0,5.1,0,.56,0,1,0,1.31s0,.43,0,.43" transform="translate(-22.97 -54.77)"/><path class="cls-3" d="M654.18,363.1a10.7,10.7,0,0,0-2.62-1.19,8.5,8.5,0,0,0-2.6-.4h-7.21a8.28,8.28,0,0,0-5.73,2.21,4.6,4.6,0,0,0-.86,1,3,3,0,0,0,.28,3.53c.92.86,2.81.44,3-.82a3.14,3.14,0,0,0,3.32,2.95,4.22,4.22,0,0,0,3.54-3.08,2.81,2.81,0,0,0,5.6.43c.89,1.16,2.2,2.24,3.72,1.75a2.7,2.7,0,0,0,1.73-1.93,4.34,4.34,0,0,0-2.14-4.49" transform="translate(-22.97 -54.77)"/><path class="cls-9" d="M643,361.47a14.43,14.43,0,0,0-3,2.71,15,15,0,0,0-1.67,3.65c-.06,0-.11-.48,0-1.23a7,7,0,0,1,1.21-2.72,7.2,7.2,0,0,1,2.22-2,2.36,2.36,0,0,1,1.16-.42" transform="translate(-22.97 -54.77)"/><path class="cls-9" d="M645.8,361.77a16.32,16.32,0,0,1-.6,5.68,8.15,8.15,0,0,1,0-2.87,8,8,0,0,1,.55-2.81" transform="translate(-22.97 -54.77)"/><path class="cls-9" d="M649.27,361.69c0-.05.41.1.84.57a4.5,4.5,0,0,1,1,2.22,8,8,0,0,1,0,2.4c-.08.61-.18,1-.25,1s-.1-.38-.11-1a14.29,14.29,0,0,0-.15-2.29,5.6,5.6,0,0,0-.8-2.09c-.31-.48-.59-.73-.55-.79" transform="translate(-22.97 -54.77)"/></g><g class="cls-2"><path class="cls-9" d="M634.84,199.08a3.63,3.63,0,1,1-4-3.25,3.62,3.62,0,0,1,4,3.25" transform="translate(-22.97 -54.77)"/><path class="cls-9" d="M634.19,197.93c-.16.15-2.81-2.6-5.4-6.5s-4.62-7-4.46-7.15,2.56,2.83,5.12,6.71,4.91,6.79,4.74,6.94" transform="translate(-22.97 -54.77)"/><path class="cls-9" d="M630.58,179.62c.2,0-.38,2-2.27,3.51s-3.93,1.66-3.93,1.45,1.73-.69,3.43-2.07,2.55-3,2.77-2.89" transform="translate(-22.97 -54.77)"/><path class="cls-9" d="M632.49,182.86c.21,0-.28,2-2.23,3.34s-4,1.12-3.92.91,1.76-.36,3.46-1.57,2.48-2.77,2.69-2.68" transform="translate(-22.97 -54.77)"/><path class="cls-9" d="M639.09,163.18a4.39,4.39,0,1,1,2.4-5.73,4.39,4.39,0,0,1-2.4,5.73" transform="translate(-22.97 -54.77)"/><path class="cls-9" d="M640.2,162c-.36-.21,1.83-4.32,5.47-8.67s6.65-7.69,7-7.46-2.19,4.12-5.81,8.42-6.28,7.93-6.64,7.71" transform="translate(-22.97 -54.77)"/><path class="cls-9" d="M661.65,156.91c-.09.34-3.66-.49-6.76-3.67a10.27,10.27,0,0,1-2.79-4.84c-.32-1.45,0-2.37.22-2.34s.28.85.81,2a14,14,0,0,0,2.85,4.11c2.77,2.86,5.87,4.28,5.67,4.72" transform="translate(-22.97 -54.77)"/><path class="cls-9" d="M648.09,174.19a4.39,4.39,0,1,1,2.4-5.73,4.4,4.4,0,0,1-2.4,5.73" transform="translate(-22.97 -54.77)"/><path class="cls-9" d="M649.2,173c-.36-.21,1.83-4.32,5.47-8.68s6.65-7.68,7-7.45-2.19,4.12-5.81,8.42-6.28,7.93-6.64,7.71" transform="translate(-22.97 -54.77)"/><path class="cls-9" d="M659.84,159.3c-.06.39-3.52-.18-6.53-3.06s-3.81-6.27-3.42-6.35,1.72,2.7,4.46,5.25,5.62,3.73,5.49,4.16" transform="translate(-22.97 -54.77)"/><path class="cls-9" d="M629.06,237.19a3.27,3.27,0,1,1-1.65-4.32,3.27,3.27,0,0,1,1.65,4.32" transform="translate(-22.97 -54.77)"/><path class="cls-9" d="M629.07,236c-.31.08-1.24-3.27-1.52-7.48s-.35-7.57-.06-7.62.93,3.35,1.2,7.53.68,7.5.38,7.57" transform="translate(-22.97 -54.77)"/><path class="cls-9" d="M638,222.22c.13.23-2.22,1.61-5.53,1.5a7.82,7.82,0,0,1-4-1.18c-.92-.62-1.2-1.3-1.08-1.38s.58.32,1.47.68a10.59,10.59,0,0,0,3.65.74c3,.12,5.36-.7,5.48-.36" transform="translate(-22.97 -54.77)"/><path class="cls-9" d="M639.57,238.5a3.27,3.27,0,1,1-1.65-4.32,3.27,3.27,0,0,1,1.65,4.32" transform="translate(-22.97 -54.77)"/><path class="cls-9" d="M639.58,237.31c-.3.08-1.24-3.27-1.51-7.48s-.36-7.57-.07-7.61.94,3.34,1.2,7.52.69,7.51.38,7.57" transform="translate(-22.97 -54.77)"/><path class="cls-9" d="M638.25,224.43c.17.24-2,1.72-5.09,1.71s-5.28-1.42-5.1-1.66,2.31.57,5.1.53,5-.88,5.09-.58" transform="translate(-22.97 -54.77)"/><path class="cls-9" d="M656.52,202.77a1.62,1.62,0,1,1-1.08-3.05,1.62,1.62,0,1,1,1.08,3.05" transform="translate(-22.97 -54.77)"/><path class="cls-9" d="M657,202.37a9,9,0,0,1,2.17-3.08,15.55,15.55,0,0,1,2.71-2.62c.13.11-.88,1.48-2.29,3a21.69,21.69,0,0,1-2.59,2.71" transform="translate(-22.97 -54.77)"/><path class="cls-9" d="M664.94,200.9a4.52,4.52,0,0,1-3.36-3.32c-.08-.54.07-.87.13-.85s.09.32.26.76a5.25,5.25,0,0,0,1,1.56c1,1.11,2.08,1.69,2,1.85" transform="translate(-22.97 -54.77)"/><path class="cls-9" d="M659.62,207a1.62,1.62,0,1,1,1-2.06,1.63,1.63,0,0,1-1,2.06" transform="translate(-22.97 -54.77)"/><path class="cls-9" d="M660.05,206.6a9.07,9.07,0,0,1,2.17-3.09,15.15,15.15,0,0,1,2.72-2.61,11.21,11.21,0,0,1-2.3,3,21.74,21.74,0,0,1-2.59,2.71" transform="translate(-22.97 -54.77)"/><path class="cls-9" d="M664.22,201.74c0,.15-1.29-.13-2.34-1.25a3.24,3.24,0,0,1-1.14-2.4c.16-.05.59,1,1.55,2s2,1.48,1.93,1.63" transform="translate(-22.97 -54.77)"/></g><g class="cls-2"><path class="cls-9" d="M99.38,275.23l.37.08,1.07.28c.24.07.5.12.79.22l.92.36,1.07.43,1.17.59a37.08,37.08,0,0,1,11.76,10.28,47.63,47.63,0,0,1,3,4.26,42.66,42.66,0,0,1,2.81,4.9,52.6,52.6,0,0,1,4,11.8c1.89,8.6,2.07,18.3,2.05,28.38,0,20.18-.07,38.45-.1,51.7,0,6.6-.06,11.94-.09,15.67,0,1.83,0,3.26,0,4.26,0,.47,0,.83,0,1.11a1.88,1.88,0,0,1,0,.38,1.88,1.88,0,0,1,0-.38c0-.28,0-.64,0-1.11,0-1,0-2.43,0-4.26,0-3.73,0-9.07-.08-15.67,0-13.25,0-31.52,0-51.7,0-10.08-.15-19.74-2-28.28a52.26,52.26,0,0,0-3.88-11.71,40.59,40.59,0,0,0-2.76-4.87,47.41,47.41,0,0,0-2.93-4.26,37.78,37.78,0,0,0-11.56-10.32l-1.15-.61-1.06-.45-.9-.38c-.29-.1-.55-.17-.78-.24l-1.06-.33a2,2,0,0,1-.35-.13" transform="translate(-22.97 -54.77)"/><path class="cls-6" d="M103.07,276.4c2.56-3,1-7.24-1.24-10.53-5.18-7.65-14.87-10.94-24.09-11.51-11.14-.7-16.84,4-25.86,6A70.41,70.41,0,0,1,23,260.13c5.7,5.5,11.43,11,17.9,15.6s13.74,8.22,21.56,9.52c9.27,1.54,18.85-.27,28.15,1.14,2.69.41,5.38,1.08,8.09.91s4.7-1.12,5.62-3.68a7.44,7.44,0,0,0-1.22-7.22" transform="translate(-22.97 -54.77)"/><path class="cls-9" d="M165.48,363.72s-.62-.15-1.74-.4a24,24,0,0,0-4.81-.58,33.47,33.47,0,0,0-27.59,13.58,36.94,36.94,0,0,0-2.64,4.07,15.45,15.45,0,0,1-.89,1.56,1.55,1.55,0,0,1,.15-.44c.13-.28.29-.7.56-1.21a29,29,0,0,1,2.52-4.19A32.66,32.66,0,0,1,159,362.37a21.58,21.58,0,0,1,4.84.75,10.68,10.68,0,0,1,1.27.41c.28.11.43.17.42.19" transform="translate(-22.97 -54.77)"/><path class="cls-9" d="M128.06,356.38a35.59,35.59,0,0,0-2.86-4l-.8-.87c-.3-.29-.62-.57-1-.87a24.68,24.68,0,0,0-2.23-1.74,26.72,26.72,0,0,0-5.82-2.85,25.79,25.79,0,0,0-6.37-1.2,20.33,20.33,0,0,0-2.83,0c-.44,0-.87,0-1.28.11l-1.17.2a42.94,42.94,0,0,0-4.7,1.39,6.07,6.07,0,0,1,1.18-.61l.65-.31.8-.27a13.5,13.5,0,0,1,2-.56l1.18-.24c.42-.08.86-.09,1.31-.15a22.6,22.6,0,0,1,2.89-.08,25.09,25.09,0,0,1,6.5,1.19,25.83,25.83,0,0,1,5.93,2.94,24,24,0,0,1,2.25,1.82l1,.9.79.92a12.28,12.28,0,0,1,1.24,1.66l.47.71.32.64a6.18,6.18,0,0,1,.55,1.22" transform="translate(-22.97 -54.77)"/><path class="cls-9" d="M149.29,309.89a38.86,38.86,0,0,0-4.46.35,20.89,20.89,0,0,0-9.69,4.31,20,20,0,0,0-4,4.3,17.38,17.38,0,0,0-2.12,4.3,43.25,43.25,0,0,0-1,4.35,4.66,4.66,0,0,1,0-1.21,17.06,17.06,0,0,1,2.72-7.71,20.14,20.14,0,0,1,14-8.71,17.54,17.54,0,0,1,3.3-.14,4.68,4.68,0,0,1,1.21.16" transform="translate(-22.97 -54.77)"/><path class="cls-9" d="M122.33,297.14a19.5,19.5,0,0,0-2.66-2.74,17.58,17.58,0,0,0-8.34-3.59,14.28,14.28,0,0,0-8.84,1.72,26.82,26.82,0,0,0-3.11,2.23,3.19,3.19,0,0,1,.67-.8,12,12,0,0,1,2.26-1.74,13.87,13.87,0,0,1,9.09-1.93,16.9,16.9,0,0,1,8.51,3.83,10.64,10.64,0,0,1,1.92,2.11,3.22,3.22,0,0,1,.5.91" transform="translate(-22.97 -54.77)"/><path class="cls-6" d="M164.4,363.5c-3.87-.55-10.52,0-13.45,2.57a13.72,13.72,0,0,0-4.51,10.46c.16,6.08,4.52,11.46,9.88,14.35s11.57,3.7,17.65,4,12.22.23,18.16,1.54,11.82,4.25,15.17,9.33c-2.42-6.62-4.88-13.53-4.19-20.54.47-4.67,2.32-9.26,1.69-13.91-.77-5.71-5.11-10.27-9.7-13.74-5.25-4-11.55-7.19-18.1-6.66s-13,6-12.6,12.58" transform="translate(-22.97 -54.77)"/><path class="cls-9" d="M207.17,404.52s-.12-.19-.31-.56-.49-1-.82-1.63c-.72-1.42-1.75-3.47-3.08-6s-2.94-5.47-4.91-8.66a78.79,78.79,0,0,0-7.05-9.92,45.31,45.31,0,0,0-9-8.19,34.11,34.11,0,0,0-8.86-4.39,28.61,28.61,0,0,0-6.55-1.33c-.79-.1-1.41-.09-1.82-.13s-.64-.05-.64-.05a21.88,21.88,0,0,1,2.47.06,27.72,27.72,0,0,1,6.61,1.24,33.68,33.68,0,0,1,9,4.37,45.43,45.43,0,0,1,9,8.21,79,79,0,0,1,7.06,10c2,3.2,3.55,6.19,4.86,8.71s2.3,4.59,3,6l.78,1.66c.17.38.25.59.25.59" transform="translate(-22.97 -54.77)"/><path class="cls-6" d="M147,309.83c-3,.34-5.86,3.53-5.53,6.23s1.88,5.07,3.52,7.24c3.23,4.27,7.09,8.25,12,10.46,6.58,3,14.13,2.43,21.35,2.74s15.15,2,19.46,7.77a50.89,50.89,0,0,0-21.06-38.71c-4.75-3.37-12.46-6-18.29-5.78s-12.3,2-11.42,10.05" transform="translate(-22.97 -54.77)"/><path class="cls-9" d="M147,309.83s.23-.05.67-.1,1.08-.14,1.91-.19a48.49,48.49,0,0,1,7.09-.05,43.19,43.19,0,0,1,10.31,2,45.42,45.42,0,0,1,11.49,5.75,48.91,48.91,0,0,1,15.42,17.33,46.44,46.44,0,0,1,2.84,6.49c.29.78.45,1.41.58,1.83s.18.65.18.65-.09-.22-.24-.63-.33-1-.64-1.81a48.63,48.63,0,0,0-2.92-6.43,49.44,49.44,0,0,0-15.39-17.17,45.38,45.38,0,0,0-11.41-5.73,43.88,43.88,0,0,0-10.24-2.05,50.87,50.87,0,0,0-7.06,0c-.83,0-1.48.11-1.92.13s-.67,0-.67,0" transform="translate(-22.97 -54.77)"/><path class="cls-9" d="M26.92,262s.26.12.74.39,1.21.63,2.15,1.07a65,65,0,0,0,8.38,2.86A130.11,130.11,0,0,0,51,269.14c2.44.4,5,.77,7.69,1a42.14,42.14,0,0,0,8.3-.18c5.66-.61,11-1.7,16-1.84a27.75,27.75,0,0,1,12.9,2.21,17.26,17.26,0,0,1,6.85,5.54,12.68,12.68,0,0,1,1.22,2.08c.22.51.32.78.32.78s-.14-.25-.37-.75a14.32,14.32,0,0,0-1.26-2,17.51,17.51,0,0,0-6.85-5.41A27.77,27.77,0,0,0,83,268.39c-4.94.16-10.29,1.25-16,1.86a42.64,42.64,0,0,1-8.35.18c-2.7-.22-5.27-.6-7.72-1a122.86,122.86,0,0,1-12.83-2.9,62,62,0,0,1-8.37-3,23.05,23.05,0,0,1-2.13-1.12l-.71-.45" transform="translate(-22.97 -54.77)"/><path class="cls-9" d="M128.67,263.27a9.67,9.67,0,0,1-.58,1.45c-.21.45-.46,1-.71,1.67s-.59,1.4-.88,2.25a61.25,61.25,0,0,0-1.87,6,62.62,62.62,0,0,0-1.41,7.54,60.93,60.93,0,0,0-.4,7.66,56.22,56.22,0,0,0,.45,6.25c.09.89.25,1.69.36,2.39s.23,1.3.33,1.79a9.63,9.63,0,0,1,.26,1.54,7.89,7.89,0,0,1-.46-1.5c-.13-.48-.28-1.08-.42-1.78s-.32-1.49-.43-2.39a50.13,50.13,0,0,1-.57-6.29,56.49,56.49,0,0,1,.36-7.73,59.27,59.27,0,0,1,1.47-7.6,54,54,0,0,1,2-6c.31-.84.66-1.58,1-2.23s.56-1.21.8-1.65a9.07,9.07,0,0,1,.76-1.36" transform="translate(-22.97 -54.77)"/><path class="cls-6" d="M127.33,266.13c-3.68,2.12-6.69,1.34-8.7-.49a10.64,10.64,0,0,1-3.72-7c-.24-4.23,3-8,6.84-9.85s8.17-2.18,12.37-2.75,8.57-1.49,11.85-4.19a62.59,62.59,0,0,1,3.12,12.51,20.94,20.94,0,0,1-2.17,12.52c-2.13,3.74-6.09,6.58-10.39,6.64s-8.64-3.12-9.2-7.39" transform="translate(-22.97 -54.77)"/><path class="cls-9" d="M145,245.48s0,.1-.12.25-.22.4-.41.69a23.91,23.91,0,0,1-1.78,2.34,74.58,74.58,0,0,1-7,6.66,33.84,33.84,0,0,0-6.4,7.14,18.41,18.41,0,0,0-1.33,2.59,7.84,7.84,0,0,1-.42,1,.91.91,0,0,1,.06-.27c.06-.18.12-.44.24-.77a15.78,15.78,0,0,1,1.27-2.65,31.43,31.43,0,0,1,6.37-7.26,87.49,87.49,0,0,0,7.05-6.58c.82-.92,1.43-1.7,1.84-2.26s.61-.88.63-.87" transform="translate(-22.97 -54.77)"/><rect class="cls-10" x="76.41" y="340.82" width="61.03" height="10.17"/><polygon class="cls-10" points="81.34 345.91 87.63 390.22 126.21 390.22 131.95 345.91 81.34 345.91"/><path class="cls-9" d="M159.49,405.66c0,.08-13.45.15-30,.15s-30-.07-30-.15,13.44-.16,30-.16,30,.07,30,.16" transform="translate(-22.97 -54.77)"/><path class="cls-6" d="M101.08,294.23c-3.53-6.81-19.4-5.49-26.32,1.21-4,3.91-6.37,9.23-8.15,14.55a96.11,96.11,0,0,0-4.27,19.1,43.7,43.7,0,0,1,25.23-14.93c4.09-.78,8.32-1,12.26-2.31s7.72-4.15,8.75-8.19-3.34-9.55-7.5-9.43" transform="translate(-22.97 -54.77)"/><path class="cls-9" d="M100.22,294a13.63,13.63,0,0,1-1.59,1.35,25.54,25.54,0,0,1-4.92,2.86c-2.19,1-4.9,1.95-7.86,3.06a35.84,35.84,0,0,0-9.14,4.64,29.77,29.77,0,0,0-6.84,7.6,53.63,53.63,0,0,0-3.9,7.44c-1,2.19-1.66,4-2.15,5.25-.23.58-.42,1.06-.58,1.44s-.21.49-.21.49a4.6,4.6,0,0,1,.16-.51c.13-.39.3-.87.51-1.46.46-1.26,1.13-3.09,2.07-5.3a50.91,50.91,0,0,1,3.86-7.51,29.43,29.43,0,0,1,6.9-7.69A35.57,35.57,0,0,1,85.75,301c3-1.1,5.68-2,7.87-3a27.44,27.44,0,0,0,4.94-2.74c.57-.37.94-.73,1.23-.94l.43-.32" transform="translate(-22.97 -54.77)"/><path class="cls-6" d="M102.22,345.32c-9.1-8.43-22.29-6.86-32.08.75s-14.47,20.46-14.65,32.86,3.58,24.53,8,36.1a54.54,54.54,0,0,1,28.54-35c4.44-2.16,9.18-3.71,13.46-6.16s8.23-6,9.71-10.72c2.42-7.74-1.91-15.86-13-17.8" transform="translate(-22.97 -54.77)"/><path class="cls-9" d="M102.22,345.32l-.56.18c-.37.12-.92.24-1.61.48a35.07,35.07,0,0,0-5.71,2.36,42,42,0,0,0-7.6,5.08,61.9,61.9,0,0,0-7.88,8,77.3,77.3,0,0,0-10.55,17.39c-1.09,2.38-1.9,4.33-2.46,5.68L65.21,386a4.85,4.85,0,0,1-.24.54s.06-.2.19-.56.34-.94.58-1.58c.52-1.37,1.31-3.34,2.37-5.73a74.49,74.49,0,0,1,10.51-17.5,61.23,61.23,0,0,1,7.94-8,41.72,41.72,0,0,1,7.68-5.05,33.18,33.18,0,0,1,5.77-2.28c.7-.22,1.26-.32,1.64-.42s.57-.12.57-.12" transform="translate(-22.97 -54.77)"/></g><g class="cls-2"><path class="cls-11" d="M233.71,201.87s42.51,24.65,51.59,30.37,22.5,8.82,28.36,14.7c4.53,4.55,27.56,21.63,35.27,23.55s9.71-26.8,9.71-26.8S323,219.44,314,214.17s-73.6-26.63-73.6-26.63Z" transform="translate(-22.97 -54.77)"/><path class="cls-11" d="M210.32,196.64s7.71,6.73,9.83,6.94,14.54-1.87,14.54-1.87l6.94-13.47s-11.84-9.41-14.58-10.86-19-6.44-19-6.44a1.42,1.42,0,0,0-.75,2.07s-5.43-3.45-7.14-.3a1.27,1.27,0,0,0-2,.7,3.66,3.66,0,0,0,.12,3s-2.13,2-.67,3.94S210,190,210,190l4.94,5.1s-4.37-3.33-6.08-3.29-1.44,2.05-1.44,2.05Z" transform="translate(-22.97 -54.77)"/><path class="cls-12" d="M213.78,186.94a85.55,85.55,0,0,1-8-5,85.87,85.87,0,0,1-7.7-5.43,86.22,86.22,0,0,1,8,5,88.28,88.28,0,0,1,7.71,5.42" transform="translate(-22.97 -54.77)"/><path class="cls-12" d="M216.12,182.65a14.8,14.8,0,0,1-2.35-1.33l-5.55-3.42c-2.17-1.34-4.12-2.57-5.51-3.48a13.62,13.62,0,0,1-2.2-1.58,15.3,15.3,0,0,1,2.39,1.26c1.44.84,3.43,2,5.59,3.36s4.1,2.6,5.48,3.55a13.17,13.17,0,0,1,2.15,1.64" transform="translate(-22.97 -54.77)"/><path class="cls-12" d="M219.73,179.18c-.08.13-2.75-1.41-6.11-3.14s-6.16-3-6.1-3.15a7.45,7.45,0,0,1,1.92.64c1.16.47,2.73,1.18,4.42,2.05s3.18,1.74,4.23,2.41a7.75,7.75,0,0,1,1.64,1.19" transform="translate(-22.97 -54.77)"/><path class="cls-12" d="M223.19,198.4a6.15,6.15,0,0,1-2.14-.31,17.72,17.72,0,0,1-8.8-5.45,6.89,6.89,0,0,1-1.24-1.78,31.07,31.07,0,0,0,5.5,4.72,30.24,30.24,0,0,0,6.68,2.82" transform="translate(-22.97 -54.77)"/><path class="cls-9" d="M324.61,243.82l-19.19-61c-12.9-1.43-25.94,5.5-33.44,16.08s-9.83,24.29-8.05,37.14c.84,6.06,2.53,12,3.12,18.08s0,12.57-3.45,17.64-9.45,8.46-11.78,14.18c-3,7.3,1.06,15.35,4.26,22.56s5.2,16.71-.53,22.12a13.08,13.08,0,0,0,10.6-5.66,12.19,12.19,0,0,1-.76,9.36c8.83,2.21,18.13-1.37,25.82-6.27a77.29,77.29,0,0,0,33.4-84.27" transform="translate(-22.97 -54.77)"/><path class="cls-11" d="M281.29,203.31l-1.56,4.92c-.09,4,1.89,11.41,4.13,13.07l51,35.84a19.41,19.41,0,0,0,11.93,3.51l4.51-.19c10.33-.43,17-11.47,12.16-20.6a6.28,6.28,0,0,0-.82-1.25,11,11,0,0,0-1-1,45,45,0,0,0-7.4-5.88c-4.36-3.45-6.16-4.84-6.12-4.81s5.62-10.47-5-21.73c-5.28-5.6-15.39-12.91-23.85-18.63a16.67,16.67,0,0,0-5.55-2.2c-14-3.22-28.08,5.27-32.42,19" transform="translate(-22.97 -54.77)"/><path class="cls-9" d="M327.25,196.7a2,2,0,0,1,.41,2.71,1.87,1.87,0,0,1-2.63.52,2,2,0,0,1-.42-2.71,1.89,1.89,0,0,1,2.64-.52" transform="translate(-22.97 -54.77)"/><path class="cls-9" d="M322.74,192.63c.06.35-1.72.86-3,2.53s-1.4,3.55-1.74,3.57c-.16,0-.38-.46-.35-1.29a5.37,5.37,0,0,1,1.14-3.05,5.16,5.16,0,0,1,2.65-1.82c.79-.21,1.29-.1,1.3.06" transform="translate(-22.97 -54.77)"/><path class="cls-9" d="M315.32,212.59a2,2,0,0,1,.41,2.71,1.87,1.87,0,0,1-2.63.52,2,2,0,0,1-.42-2.71,1.89,1.89,0,0,1,2.64-.52" transform="translate(-22.97 -54.77)"/><path class="cls-9" d="M310.39,209.3c.05.35-1.73.85-3,2.53s-1.39,3.54-1.74,3.56c-.16,0-.37-.45-.35-1.29a5.39,5.39,0,0,1,1.14-3,5.2,5.2,0,0,1,2.65-1.81c.79-.21,1.29-.11,1.31.06" transform="translate(-22.97 -54.77)"/><path class="cls-9" d="M327.46,212.79a14.23,14.23,0,0,1,1.6-3.09c.29-.46.51-.93.28-1.22a2.69,2.69,0,0,0-1.49-.69l-4.22-1.25c-6-1.82-10.76-3.48-10.68-3.72s5,1,10.95,2.85l4.2,1.31a3.17,3.17,0,0,1,1.85,1.07,1.36,1.36,0,0,1,.08,1.19,3,3,0,0,1-.46.8,13.59,13.59,0,0,1-2.11,2.75" transform="translate(-22.97 -54.77)"/><path class="cls-12" d="M348.12,226.89a38.93,38.93,0,0,1-16.83,12.88s11.52,2.39,19.74-10.6Z" transform="translate(-22.97 -54.77)"/><path class="cls-12" d="M330.94,216.61a3.77,3.77,0,0,0-3.2,1.83,3.5,3.5,0,0,0-.45,2.69,2.2,2.2,0,0,0,1.89,1.66,2.56,2.56,0,0,0,2.25-1.76,8.14,8.14,0,0,0,.37-3.12,2.49,2.49,0,0,0-.13-.86.7.7,0,0,0-.62-.47" transform="translate(-22.97 -54.77)"/><path class="cls-9" d="M324.82,218.6c.19-.28,2,1.11,4.49.55s3.78-2.64,4-2.46,0,.7-.58,1.54a5.7,5.7,0,0,1-3.27,2.13,4.92,4.92,0,0,1-3.68-.58c-.81-.51-1.11-1.06-1-1.18" transform="translate(-22.97 -54.77)"/><path class="cls-9" d="M304.25,205.06c.33.52-1.17,2-2.45,4.16s-2,4.14-2.57,4.09c-.28,0-.5-.64-.45-1.62a8.4,8.4,0,0,1,3.83-6.28c.85-.5,1.48-.59,1.64-.35" transform="translate(-22.97 -54.77)"/><path class="cls-9" d="M315.06,187.48c.16.59-1.13,1.44-2.21,2.81s-1.72,2.75-2.32,2.71c-.29,0-.53-.51-.49-1.29a4.9,4.9,0,0,1,1.15-2.78,5,5,0,0,1,2.51-1.67c.76-.19,1.28,0,1.36.22" transform="translate(-22.97 -54.77)"/><path class="cls-11" d="M306.79,233.52c-.9-.7-3.83-1.3-4.66-.51-2.2,2.09-5.32,6.52.69,11.22,8.22,6.42,13-3.15,12.74-3.35s-5.65-5-8.77-7.36" transform="translate(-22.97 -54.77)"/><path class="cls-12" d="M310.49,241c-.05,0,0,.22-.09.55a1.87,1.87,0,0,1-.81,1.09c-1,.62-2.95.27-4.46-.85a6.16,6.16,0,0,1-1.74-2,2.1,2.1,0,0,1-.25-1.94.92.92,0,0,1,1.05-.53c.32.07.44.25.49.21s0-.28-.39-.48a1.19,1.19,0,0,0-.77-.08,1.37,1.37,0,0,0-.83.63,2.55,2.55,0,0,0,.11,2.49,6.19,6.19,0,0,0,1.9,2.29c1.69,1.24,3.9,1.6,5.18.68a1.94,1.94,0,0,0,.8-1.48c0-.41-.15-.6-.19-.58" transform="translate(-22.97 -54.77)"/><polygon class="cls-6" points="289.59 203.14 297.23 264.35 284.48 266.07 284.48 196.54 289.59 203.14"/><g class="cls-13"><g class="cls-14"><polygon points="289.59 203.14 297.23 264.35 284.48 266.07 284.48 196.54 289.59 203.14"/></g></g><path class="cls-6" d="M297.35,247q-.27,46.38-.52,92.75s.92,1.56,5.58,0,8.27,3.64,8.27,3.64l-1.45-88.14-1.78-15.74Z" transform="translate(-22.97 -54.77)"/><path class="cls-6" d="M293.23,213.18s1-16.32,5.81-22.19,15.17-6.54,15.17-6.54-4.17-4.1-14.87-1.88a22.94,22.94,0,0,0-16,11.22c-3,5-3.59,14.44-3.59,14.44Z" transform="translate(-22.97 -54.77)"/><path class="cls-11" d="M341.28,242.22s43.24-5.72,52.79,2.06,35.53,29.45,44.22,43.47c3.92,6.32,9.46,29.66,8.06,46.19l-51.27,1.7-3-25.34-35.48-18.24S332.17,281.36,330.7,265s10.58-22.77,10.58-22.77" transform="translate(-22.97 -54.77)"/><path class="cls-10" d="M341.28,242.22s32.11,14.17,34.27,20.09h0s3.48,8.15,2.17,13.6L364.18,296l25.11,12.9,29.88-43.6-19.74-19.86c-2.51-2.19-6.8-5.69-10-6.59A110.25,110.25,0,0,0,377.94,237c-4.28-.61-18.29-.45-18.29-.45Z" transform="translate(-22.97 -54.77)"/><path class="cls-12" d="M411.45,307.38a92.27,92.27,0,0,1-9.58,1.76,94.5,94.5,0,0,1-9.66,1.24,91,91,0,0,1,9.58-1.76,90.9,90.9,0,0,1,9.66-1.24" transform="translate(-22.97 -54.77)"/><path class="cls-9" d="M400.78,255c-.08,0-.58-1.08-1.64-2.74a25.14,25.14,0,0,0-11.62-9.65c-1.82-.74-3-1-3-1.12a3,3,0,0,1,.86.12,16.34,16.34,0,0,1,2.27.66,22.69,22.69,0,0,1,11.8,9.8,15.81,15.81,0,0,1,1.06,2.11c.21.52.31.81.27.82" transform="translate(-22.97 -54.77)"/><polygon class="cls-3" points="389.09 203.36 358.88 250.28 366.32 254.11 396.2 210.51 389.09 203.36"/><path class="cls-8" d="M246.38,424.65l-23,2-5.21-5.62c-2.53-2.63-4.19-.09-6.82,2.44l-32.17,30.83s1.58,4.68,4.92,3.41S215,449.16,215,449.16l23.43-1.28Z" transform="translate(-22.97 -54.77)"/><path class="cls-9" d="M246.38,424.65a2.15,2.15,0,0,1-.12.39c-.09.29-.22.68-.38,1.18l-1.53,4.59c-1.37,4.05-3.33,9.89-5.77,17.13l0,.12h-.13L215,449.39h0L197.91,454l-9.21,2.57c-1.56.46-3.12.91-4.69,1.44a3.09,3.09,0,0,1-2.6-.3,5.66,5.66,0,0,1-1.76-1.92,8,8,0,0,1-.68-1.42l-.05-.15.12-.12,24.35-23.31c3.72-3.56,7.24-6.88,10.5-10.05a4.61,4.61,0,0,1,1.49-.9,2.26,2.26,0,0,1,1.75.12,4.48,4.48,0,0,1,1.32,1l1.07,1.16,4,4.37-.14-.05,16.92-1.39,4.51-.35,1.16-.09.38,0a3.81,3.81,0,0,1-.42.05l-1.19.12-4.56.45-16.77,1.58h-.09l-.06-.07-4.06-4.34a9.57,9.57,0,0,0-2.27-2.1,1.87,1.87,0,0,0-1.45-.09,4.37,4.37,0,0,0-1.35.83c-3.2,3.15-6.74,6.51-10.44,10.08L179.4,454.5l.07-.27a7.9,7.9,0,0,0,.62,1.32,5.23,5.23,0,0,0,1.59,1.74,2.54,2.54,0,0,0,2.18.25c1.55-.53,3.14-1,4.7-1.43l9.21-2.57,17.15-4.61h0l23.44-1.22-.16.12c2.5-7.16,4.52-12.93,5.92-16.93.7-2,1.25-3.53,1.63-4.61.18-.51.33-.91.43-1.21l.16-.42" transform="translate(-22.97 -54.77)"/><path class="cls-9" d="M209.24,425.91c.06-.07.72.49,1.92,1.12a12,12,0,0,0,10.23.55c1.27-.5,2-1,2-.91a5.12,5.12,0,0,1-1.87,1.27,11.09,11.09,0,0,1-10.58-.57,5.28,5.28,0,0,1-1.73-1.46" transform="translate(-22.97 -54.77)"/><path class="cls-9" d="M188.72,445.22a3.45,3.45,0,0,1,1.42.88,7.11,7.11,0,0,1,2.17,3.45,9.79,9.79,0,0,1,.22,4.05,4.38,4.38,0,0,1-.43,1.62,6.29,6.29,0,0,1,0-1.65,12.29,12.29,0,0,0-.35-3.87,7.92,7.92,0,0,0-1.91-3.31c-.7-.72-1.22-1.1-1.16-1.17" transform="translate(-22.97 -54.77)"/><path class="cls-10" d="M392.56,323.62l1.66,8.14-7.85,7.17s-20.17,11.43-17.62,35.58L340.6,407.16s-45.06,6.38-57.09,8.24c-10,1.55-49,10.5-49,10.5l1.39,23.75s94.92-2.66,100.92-3.19c12-1,21.15,1.8,31-6.43,7.11-5.91,55.81-54.35,55.81-54.35l-.39-66.18Z" transform="translate(-22.97 -54.77)"/><path class="cls-11" d="M225.46,206.58S268,231.24,277.05,237s22.5,8.83,28.36,14.71c4.53,4.54,27.57,21.63,35.27,23.54s9.71-26.8,9.71-26.8-35.62-24.25-44.59-29.52-73.6-26.63-73.6-26.63Z" transform="translate(-22.97 -54.77)"/><path class="cls-12" d="M355.84,272.68c-.08,0-.58-1.21-1.55-3.13A42.47,42.47,0,0,0,344,256.47c-1.63-1.4-2.72-2.17-2.67-2.24a3.18,3.18,0,0,1,.82.45,25.14,25.14,0,0,1,2.09,1.5,36.51,36.51,0,0,1,10.43,13.21,25.11,25.11,0,0,1,1,2.38,3.14,3.14,0,0,1,.25.91" transform="translate(-22.97 -54.77)"/><path class="cls-12" d="M346,245.42a1.54,1.54,0,0,1-.29-.16l-.81-.5-3.1-2-11.36-7.4-16.8-11-4.86-3.2-2.5-1.65-.64-.41-.67-.34-1.36-.68c-3.73-1.7-7.7-3.24-11.78-4.79-16.35-6.12-31.32-11.22-42.14-15l-12.81-4.4-3.48-1.22-.9-.32a1.38,1.38,0,0,1-.3-.13l.31.08.92.28,3.51,1.11L249.81,198c10.85,3.66,25.84,8.69,42.2,14.83,4.09,1.55,8.06,3.09,11.82,4.81l1.39.7.69.35.63.42,2.51,1.65,4.84,3.21,16.75,11.12,11.27,7.54,3,2.07.78.55a1.23,1.23,0,0,1,.26.2" transform="translate(-22.97 -54.77)"/><path class="cls-12" d="M225.46,206.58a1.33,1.33,0,0,1,.32.15l.89.49,3.41,1.93,12.5,7.18,18.48,10.76,10.87,6.44,5.7,3.47a61,61,0,0,0,6.06,3.18c4.21,1.95,8.44,3.57,12.44,5.41a50.87,50.87,0,0,1,5.72,3c.45.29.9.56,1.32.87l1.25,1c.79.7,1.54,1.4,2.26,2.07,3,2.64,6.05,5,8.91,7.12s5.56,4.09,8.07,5.81a128.43,128.43,0,0,0,12.21,7.62,32.75,32.75,0,0,0,3.53,1.67l1,.34.32.13-.33-.08-1-.29a28.42,28.42,0,0,1-3.6-1.59,117.48,117.48,0,0,1-12.31-7.5c-2.53-1.7-5.25-3.64-8.13-5.76s-5.92-4.46-9-7.11c-2.77-3-6.48-5-10.45-6.82s-8.21-3.44-12.44-5.4a58,58,0,0,1-6.11-3.21l-5.7-3.47-10.84-6.46L242.4,216.65,230,209.32l-3.36-2-.87-.53-.29-.2" transform="translate(-22.97 -54.77)"/><path class="cls-11" d="M202.07,201.36s7.71,6.72,9.83,6.94,14.54-1.88,14.54-1.88L233.39,193s-11.85-9.41-14.59-10.87-19-6.43-19-6.43a1.41,1.41,0,0,0-.75,2.06s-5.42-3.44-7.13-.3a1.28,1.28,0,0,0-2.06.7,3.64,3.64,0,0,0,.13,3s-2.14,2-.67,3.94,12.5,9.62,12.5,9.62l4.93,5.11s-4.36-3.34-6.08-3.3-1.44,2.05-1.44,2.05Z" transform="translate(-22.97 -54.77)"/><path class="cls-12" d="M205.53,191.66a86.22,86.22,0,0,1-8-5,86.44,86.44,0,0,1-7.71-5.42,84.72,84.72,0,0,1,8,5,85.22,85.22,0,0,1,7.71,5.43" transform="translate(-22.97 -54.77)"/><path class="cls-12" d="M207.87,187.37a16.1,16.1,0,0,1-2.35-1.34L200,182.62c-2.16-1.35-4.12-2.57-5.51-3.49a13.62,13.62,0,0,1-2.2-1.58,14,14,0,0,1,2.39,1.27c1.45.83,3.43,2,5.59,3.35s4.11,2.6,5.48,3.55a12.2,12.2,0,0,1,2.15,1.65" transform="translate(-22.97 -54.77)"/><path class="cls-12" d="M211.48,183.89a6.5,6.5,0,0,1-.89-.44l-2.48-1.3c-2.14-1.09-5.22-2.61-8.93-4.34l-.11-.05,0-.12a4.5,4.5,0,0,1-.05-1.11,1.18,1.18,0,0,1,.73-1.11h0l.07,0,10,3.26,5.05,1.67c.82.27,1.62.52,2.4.81a15.64,15.64,0,0,1,2.14,1.25c2.62,1.79,4.88,3.52,6.77,5s3.41,2.66,4.44,3.5l1.19,1a2.82,2.82,0,0,1,.39.37,2.68,2.68,0,0,1-.46-.29l-1.24-.91L226,187.68c-1.92-1.41-4.2-3.11-6.82-4.86a16.8,16.8,0,0,0-2-1.19c-.76-.27-1.58-.52-2.39-.79l-5-1.66-10-3.3h.11c-.15,0-.33.38-.35.69a3.64,3.64,0,0,0,0,1l-.13-.17c3.7,1.78,6.76,3.35,8.87,4.52,1,.58,1.87,1.06,2.42,1.4a5.23,5.23,0,0,1,.82.57" transform="translate(-22.97 -54.77)"/><path class="cls-12" d="M214.94,203.12a6.37,6.37,0,0,1-2.14-.32,17.42,17.42,0,0,1-4.81-2.06,17.61,17.61,0,0,1-4-3.39,6.37,6.37,0,0,1-1.23-1.78,23.62,23.62,0,0,0,12.17,7.55" transform="translate(-22.97 -54.77)"/><path class="cls-8" d="M501.55,407.23l1.32,31.65-.16,7.66c0,3.65,3,3,6.6,3l44.55.22s2.13-4.47-1.16-5.88-28.12-15.28-28.12-15.28l1.62-23.4Z" transform="translate(-22.97 -54.77)"/><path class="cls-9" d="M501.55,407.23a1.88,1.88,0,0,1,.41-.06l1.24-.12,4.85-.44,18.13-1.6.21,0v.21c-.45,6.64-1,14.59-1.57,23.41l-.12-.22,16.13,8.89c2.85,1.56,5.77,3.15,8.76,4.73l2.27,1.17c.39.19.75.34,1.16.56a3.06,3.06,0,0,1,.59.37,1.94,1.94,0,0,1,.49.5,3.67,3.67,0,0,1,.69,2.63,8.24,8.24,0,0,1-.68,2.62L554,450h-.17l-2.71,0-34.9-.19-7.84,0a17.85,17.85,0,0,1-3.79-.15,2.51,2.51,0,0,1-1.64-1.05,3.43,3.43,0,0,1-.48-1.84q.09-3.59.15-6.91c0-2.21-.13-4.35-.19-6.38-.29-8.1-.54-14.66-.7-19.23-.08-2.24-.14-4-.18-5.2,0-.57,0-1,0-1.34a2.33,2.33,0,0,1,0-.44s0,.17,0,.48,0,.79.07,1.37c.07,1.22.15,3,.27,5.24.21,4.55.52,11.09.9,19.16.07,2,.25,4.13.23,6.34s-.08,4.51-.12,6.9a3,3,0,0,0,.41,1.6,2.09,2.09,0,0,0,1.37.87,17.94,17.94,0,0,0,3.69.12h7.84l34.9.15,2.71,0-.23.14a7.58,7.58,0,0,0,.63-2.43,3.17,3.17,0,0,0-.57-2.27,5.5,5.5,0,0,0-2.07-1.29l-2.27-1.18c-3-1.58-5.92-3.18-8.77-4.74l-16.12-8.93-.12-.07v-.14c.63-8.82,1.2-16.77,1.67-23.4l.19.19-18,1.39-4.89.36-1.28.09-.45,0" transform="translate(-22.97 -54.77)"/><path class="cls-9" d="M512.53,449.28c-.09,0-.17-.84-.6-2.14a12,12,0,0,0-7-7.5c-1.26-.52-2.11-.67-2.1-.76a5.17,5.17,0,0,1,2.23.39,11.08,11.08,0,0,1,7.21,7.76,4.94,4.94,0,0,1,.22,2.25" transform="translate(-22.97 -54.77)"/><path class="cls-9" d="M540.71,449.68a3.38,3.38,0,0,1-.41-1.63,7.22,7.22,0,0,1,.83-4A10.05,10.05,0,0,1,543.8,441a4.41,4.41,0,0,1,1.44-.86c0,.07-.45.47-1.19,1.16a12.1,12.1,0,0,0-2.43,3,7.93,7.93,0,0,0-.93,3.71,9.2,9.2,0,0,1,0,1.64" transform="translate(-22.97 -54.77)"/><path class="cls-10" d="M446.29,316.41l.91,7.33S497,311,514.23,311c9.93,0,20.24,11.32,18.27,29.42-2.18,20-7.34,87-7.34,87L502.46,429s-5.8-39.29-6.24-54a92.51,92.51,0,0,1,1.23-19.75s-13,9.1-24.23,14c-9.11,4-34.65,18.18-55.67,16.92-20-1.19-31.18-15.77-29.06-32.22,2.39-18.58,11.88-25.9,11.88-25.9l22.9-8.45Z" transform="translate(-22.97 -54.77)"/><path class="cls-9" d="M423.65,385.68a3.54,3.54,0,0,1-.74.15,18.26,18.26,0,0,1-2.17.27,28.69,28.69,0,0,1-8-.51A32.79,32.79,0,0,1,407.4,384a33.32,33.32,0,0,1-5.67-2.93,29,29,0,0,1-13.62-24.6,33.78,33.78,0,0,1,.52-6.36,32.84,32.84,0,0,1,1.51-5.36,28.46,28.46,0,0,1,3.81-7,17.42,17.42,0,0,1,1.38-1.69,4.77,4.77,0,0,1,.52-.56,4.5,4.5,0,0,1-.44.62c-.28.41-.79,1-1.29,1.75a29.87,29.87,0,0,0-3.64,7.06,32.84,32.84,0,0,0-1.42,5.3,33.17,33.17,0,0,0-.47,6.28A28.85,28.85,0,0,0,402,380.69a34,34,0,0,0,5.57,2.93,34.4,34.4,0,0,0,5.25,1.61,30.58,30.58,0,0,0,7.92.67c.94,0,1.67-.15,2.16-.18a4.34,4.34,0,0,1,.76,0" transform="translate(-22.97 -54.77)"/><path class="cls-9" d="M454,321.79c0,.14-4.75,1.62-10.7,3.32s-10.8,2.95-10.84,2.81,4.75-1.62,10.7-3.31,10.8-3,10.84-2.82" transform="translate(-22.97 -54.77)"/><path class="cls-9" d="M506.53,339c.06.06-.77,1-2,2.49a44.88,44.88,0,0,0-7.34,13.32,28.57,28.57,0,0,1-1,3,3,3,0,0,1,.12-.85c.1-.54.29-1.32.57-2.27a37,37,0,0,1,7.4-13.43,20.59,20.59,0,0,1,1.61-1.7c.4-.38.63-.58.66-.56" transform="translate(-22.97 -54.77)"/></g></g></g></g></g></svg>