<svg xmlns="http://www.w3.org/2000/svg" xmlns:xlink="http://www.w3.org/1999/xlink" viewBox="0 0 449.4 438.94"><defs><style>.cls-1,.cls-12,.cls-13,.cls-21,.cls-22,.cls-4,.cls-8{fill:#fff;}.cls-1,.cls-11{stroke:#92e3a9;}.cls-1,.cls-11,.cls-17,.cls-21,.cls-22,.cls-23,.cls-24,.cls-25,.cls-26,.cls-27,.cls-28,.cls-5{stroke-linecap:round;stroke-linejoin:round;}.cls-2,.cls-24{fill:#92e3a9;}.cls-3{opacity:0.7;}.cls-11,.cls-14,.cls-17,.cls-27,.cls-5{fill:none;}.cls-14,.cls-5{stroke:#515b60;}.cls-6{fill:#515b60;}.cls-7{clip-path:url(#clip-path);}.cls-10,.cls-8{opacity:0.8;}.cls-9{fill:#e4f8e9;}.cls-12,.cls-18{opacity:0.2;}.cls-13{opacity:0.3;}.cls-14{stroke-miterlimit:10;}.cls-15,.cls-16,.cls-23{fill:#263238;}.cls-15{opacity:0.1;}.cls-17{stroke:#3c464c;}.cls-19,.cls-28{fill:#757575;}.cls-20{fill:#5c5c5c;}.cls-21{stroke:#676f74;}.cls-22,.cls-23,.cls-24,.cls-25,.cls-26,.cls-27,.cls-28{stroke:#263238;}.cls-25{fill:#bfbfbf;}.cls-26{fill:#999;}</style><clipPath id="clip-path"><path class="cls-1" d="M6.52,248.89,46.05,192l23.22-7,5.18-17.88a31.51,31.51,0,0,1,16.19-19.45h0l9.6-29.25,29.42-7,33.91-68.79L186,41.87l20.9-10.06,18.58-7.74,20.13,23.22,18.58,44.13,27.25,19.25,27.87,55.74h0a116.15,116.15,0,0,1,58.06,46.82l25.82,40.68L145.14,267.83Z"/></clipPath></defs><title>hiking</title><g id="Layer_2" data-name="Layer 2"><g id="Character"><path class="cls-2" d="M449.4,211.7c0,1,0,1.92,0,2.87,0,.42,0,.83,0,1.24q0,1-.06,2c0,.4,0,.82-.05,1.22,0,1-.08,2-.14,3s-.13,2.11-.22,3.15c0,.63-.1,1.26-.16,1.89s-.11,1.29-.17,1.92c-.1,1-.21,2.06-.34,3.08-.08.72-.16,1.44-.26,2.16l-.15,1.13c0,.2-.05.4-.09.6a180.22,180.22,0,0,1-28.91,75.18C291,415.09,164.77,421.7,40.31,323,15.61,291.32,1.15,253,1.15,211.7c0-38.54,31.58-145,205.78-208.54,60-21.85,179.79,74,224.81,154.12C442.84,177,449.4,195.83,449.4,211.7Z"/><g class="cls-3"><path class="cls-4" d="M449.4,211.7c0,1,0,1.92,0,2.87,0,.42,0,.83,0,1.24q0,1-.06,2c0,.4,0,.82-.05,1.22,0,1-.08,2-.14,3s-.13,2.11-.22,3.15c0,.63-.1,1.26-.16,1.89s-.11,1.29-.17,1.92c-.1,1-.21,2.06-.34,3.08-.08.72-.16,1.44-.26,2.16l-.15,1.13c0,.2-.05.4-.09.6a180.22,180.22,0,0,1-28.91,75.18C291,415.09,164.77,421.7,40.31,323,15.61,291.32,1.15,253,1.15,211.7c0-38.54,31.58-145,205.78-208.54,60-21.85,179.79,74,224.81,154.12C442.84,177,449.4,195.83,449.4,211.7Z"/></g><path class="cls-5" d="M300.58,148.36l62.85,2.23c10,.35,10.53-12.4-.53-15.65l-.42-.12c10.23-9.68-22.35-31.06-37-1.21C323.64,125.37,306,129,306.26,139,300.78,132.69,292.43,143.08,300.58,148.36Z"/><path class="cls-5" d="M79.49,111.72l53.07-.89c8.46-.14,7.61-11.53-2-13.93l-.37-.09c7.64-9.09-21.9-26.67-31.25.63-2.36-7.27-16.85-3.24-15.61,5.68C78.09,97.74,72.1,107.39,79.49,111.72Z"/><path class="cls-6" d="M289.39,70.86a11.56,11.56,0,0,1-1.88-.61c-1.13-.44-2.58-1.19-4.09-1.92a12.48,12.48,0,0,0-4-1.2c-1.07-.12-1.79,0-1.89-.28s.52-.8,1.83-1a8.23,8.23,0,0,1,4.88.84,14.77,14.77,0,0,1,3.8,2.82C288.87,70.3,289.39,70.86,289.39,70.86Z"/><path class="cls-6" d="M296,65.55l-1.36.53c-.81.33-1.83.79-3,1.29-2.27,1-4.21,2-4.52,1.6-.15-.21.15-.72.8-1.36a10,10,0,0,1,3-2,6.84,6.84,0,0,1,3.6-.51,5.9,5.9,0,0,1,1.08.26A3.68,3.68,0,0,1,296,65.55Z"/><path class="cls-6" d="M277.15,74.82l-.37-.22c-.24-.15-.58-.35-1-.58a23.8,23.8,0,0,0-3.33-1.45c-2.65-.94-5-.73-5.09-1.14,0-.17.55-.48,1.57-.62a8.74,8.74,0,0,1,4,.44,8,8,0,0,1,3.31,2.22,7.3,7.3,0,0,1,.71,1Z"/><path class="cls-6" d="M279.74,69.36l-.95.54-2.11,1.19c-1.59.87-2.82,1.9-3.13,1.62-.14-.13,0-.55.41-1.11A6.34,6.34,0,0,1,276,69.86a5.35,5.35,0,0,1,2.62-.64A4.33,4.33,0,0,1,279.74,69.36Z"/><path class="cls-6" d="M275,66.24s-.9-.31-2.27-.89-3.21-1.39-5.23-2.06a14.28,14.28,0,0,0-5.3-.73c-1.39.08-2.27.34-2.39.09s.6-.93,2.15-1.39a10.48,10.48,0,0,1,6.12.25,15.64,15.64,0,0,1,5.14,3A21.38,21.38,0,0,1,275,66.24Z"/><path class="cls-6" d="M281,58.52l-.51.15c-.32.08-.78.22-1.34.4a34.83,34.83,0,0,0-4.06,1.6c-3.08,1.37-5.05,3.41-5.48,3.09-.2-.15.06-.9.84-1.88A10.84,10.84,0,0,1,274.34,59a9.51,9.51,0,0,1,4.74-.83,7.19,7.19,0,0,1,1.44.24Z"/><path class="cls-4" d="M6.52,248.89,46.05,192l23.22-7,5.18-17.88a31.51,31.51,0,0,1,16.19-19.45h0l9.6-29.25,29.42-7,33.91-68.79L186,41.87l20.9-10.06,18.58-7.74,20.13,23.22,18.58,44.13,27.25,19.25,27.87,55.74h0a116.15,116.15,0,0,1,58.06,46.82l25.82,40.68L145.14,267.83Z"/><g class="cls-7"><path class="cls-2" d="M152.13,99c-1.1,3.18-2.25,6.42-4.33,9.06a15.53,15.53,0,0,1-9.07,5.6,28.37,28.37,0,0,0,13.8,1.67A29.17,29.17,0,0,1,163,89.94a48.67,48.67,0,0,1,5.74-28.63c1.25-2.26,2.71-4.51,3-7.08.14-1.48-.27-3.72-1.54-4.69-2.79-2.13-2.09,0-3.36,2-2.51,4-3.09,11-4.46,15.56Q157.59,83.12,152.13,99Z"/><path class="cls-8" d="M152.13,99c-1.1,3.18-2.25,6.42-4.33,9.06a15.53,15.53,0,0,1-9.07,5.6,28.37,28.37,0,0,0,13.8,1.67A29.17,29.17,0,0,1,163,89.94a48.67,48.67,0,0,1,5.74-28.63c1.25-2.26,2.71-4.51,3-7.08.14-1.48-.27-3.72-1.54-4.69-2.79-2.13-2.09,0-3.36,2-2.51,4-3.09,11-4.46,15.56Q157.59,83.12,152.13,99Z"/><path class="cls-2" d="M94.83,180.85a3.12,3.12,0,0,0-.69-3.26,7.9,7.9,0,0,0,7.81-2.91,23.49,23.49,0,0,1,3.86-20.36c-.88,2.66-1.77,5.4-1.63,8.2s1.57,5.72,4.15,6.82c6.54,2.78,14.22-7.35,20.1-3.36l-7,6.06,18.93-3.53,2.58-5.85c.92,2.18,1.85,4.36,2.77,6.53a24.09,24.09,0,0,1,12-16.39c-5.71,5.63-4.27,16.74-11.24,20.71-2.94,1.68-6.54,1.47-9.92,1.69-10.23.69-19.59,5.67-29.2,9.24-8.75,3.26-21,6.24-29.49.86C80.27,184.33,94.11,182.7,94.83,180.85Z"/><path class="cls-8" d="M94.83,180.85a3.12,3.12,0,0,0-.69-3.26,7.9,7.9,0,0,0,7.81-2.91,23.49,23.49,0,0,1,3.86-20.36c-.88,2.66-1.77,5.4-1.63,8.2s1.57,5.72,4.15,6.82c6.54,2.78,14.22-7.35,20.1-3.36l-7,6.06,18.93-3.53,2.58-5.85c.92,2.18,1.85,4.36,2.77,6.53a24.09,24.09,0,0,1,12-16.39c-5.71,5.63-4.27,16.74-11.24,20.71-2.94,1.68-6.54,1.47-9.92,1.69-10.23.69-19.59,5.67-29.2,9.24-8.75,3.26-21,6.24-29.49.86C80.27,184.33,94.11,182.7,94.83,180.85Z"/><path class="cls-2" d="M56.34,251.93c6.84-10.18,18.3-18.92,20.47-31l3.42-19S72.11,227,68.3,230.35s-15.2,18.54-15.2,18.54Z"/><path class="cls-9" d="M253.18,148.75l-.13-.89-.46-.89C252.78,147.56,253,148.16,253.18,148.75Z"/><path class="cls-2" d="M119.62,229.29l-1.35-5.18q-3.15,8.17-6.31,16.35c-1.19,3.09-2.4,6.26-2.41,9.57a10.12,10.12,0,0,0,5.33,8.36,24.25,24.25,0,0,1,3.43-15.89c2.92-4.79,6.58-9.13,9.2-14.09,5.65-10.69,7.54-23.57,11.71-34.87-3.68.11-8,12.76-9.65,16.1Z"/><path class="cls-2" d="M142,114.64,129.66,112l-29.42,6.43,24.62,15.94,11.88-1.9,10.93-6.65,14.73,4.28,3.33,3.32,22.81,1.43,29-6.65,28.52-1.43,11.4-12.36,19,1,15-4.67L264.22,91.42l-16.75,10.14s1.9,4.28-4.75,6.18-13.31,3.33-13.31,3.33H216.58L206.13,113l-24.72,4.75s-27.09-3.8-29-2.85S142,114.64,142,114.64Z"/><path class="cls-8" d="M142,114.64,129.66,112l-29.42,6.43,24.62,15.94,11.88-1.9,10.93-6.65,14.73,4.28,3.33,3.32,22.81,1.43,29-6.65,28.52-1.43,11.4-12.36,19,1,15-4.67L264.22,91.42l-16.75,10.14s1.9,4.28-4.75,6.18-13.31,3.33-13.31,3.33H216.58L206.13,113l-24.72,4.75s-27.09-3.8-29-2.85S142,114.64,142,114.64Z"/><path class="cls-2" d="M177.14,171c1.22-5.18,1.93-12.16,3.15-17.34-7.15,8.48-8.23,20.83-15.32,29.35-3.07,3.68-7.12,6.45-10.27,10.07-4.85,5.56-7.29,12.76-9.62,19.76-5.18,15.59-10.43,31.88-8,48.12,4.86-11.49,4.92-16.77,13.95-28.18,5.26-6.65,7.25-22,11.49-29.3,4.68-8.12,9.17-9.13,10-15.17a63.68,63.68,0,0,1,3.81-15.2Z"/><path class="cls-2" d="M248.17,139.73c4.32,9.65,9.76,17.91,15,26.47,4.7,7.69,18.3,10.05,22.72,17.91,11,19.63,17.81,26.23,24.55,40.63l10-2.09a182.89,182.89,0,0,0-27.15-39.25c5.57,1.43,17,2.08,17.1,1-10.31-2.73-13.93-5.44-23-11.05-12.86-7.95-30.36-20.14-38.91-32.62"/><path class="cls-2" d="M306.32,173.77c.34.92.67,1.85,1,2.78L293,175.17c6.71,3.07,13.64,6.3,18.44,11.9,2.31,2.69,4.25,6,7.56,7.27,1.71.66,3.6.67,5.37,1.16,5.74,1.62,8.75,7.74,11.08,13.23l10.08-5.42c-3,.14-5.83-1.59-7.75-3.88a29.39,29.39,0,0,1-4.25-7.88c-.59-1.43-1.2-3-.82-4.49s2.24-2.7,3.53-1.82c-.2-2.29-3-3.15-5.17-3.9s-4.52-3.17-3.09-5c1.27-1.59,3.8-.48,5.45.71C327.05,172.87,313.33,171.11,306.32,173.77Z"/><path class="cls-8" d="M56.34,251.93c6.84-10.18,18.3-18.92,20.47-31l3.42-19S72.11,227,68.3,230.35s-15.2,18.54-15.2,18.54Z"/><path class="cls-8" d="M119.62,229.29l-1.35-5.18q-3.15,8.17-6.31,16.35c-1.19,3.09-2.4,6.26-2.41,9.57a10.12,10.12,0,0,0,5.33,8.36,24.25,24.25,0,0,1,3.43-15.89c2.92-4.79,6.58-9.13,9.2-14.09,5.65-10.69,7.54-23.57,11.71-34.87-3.68.11-8,12.76-9.65,16.1Z"/><g class="cls-10"><path class="cls-4" d="M177.14,171c1.22-5.18,1.93-12.16,3.15-17.34-7.15,8.48-8.23,20.83-15.32,29.35-3.07,3.68-7.12,6.45-10.27,10.07-4.85,5.56-7.29,12.76-9.62,19.76-5.18,15.59-10.43,31.88-8,48.12,4.86-11.49,4.92-16.77,13.95-28.18,5.26-6.65,7.25-22,11.49-29.3,4.68-8.12,9.17-9.13,10-15.17a63.68,63.68,0,0,1,3.81-15.2Z"/></g><path class="cls-8" d="M248.17,139.73c4.32,9.65,9.76,17.91,15,26.47,4.7,7.69,18.3,10.05,22.72,17.91,11,19.63,17.81,26.23,24.55,40.63l10-2.09a182.89,182.89,0,0,0-27.15-39.25c5.57,1.43,17,2.08,17.1,1-10.31-2.73-13.93-5.44-23-11.05-12.86-7.95-30.36-20.14-38.91-32.62"/><path class="cls-8" d="M306.32,173.77c.34.92.67,1.85,1,2.78L293,175.17c6.71,3.07,13.64,6.3,18.44,11.9,2.31,2.69,4.25,6,7.56,7.27,1.71.66,3.6.67,5.37,1.16,5.74,1.62,8.75,7.74,11.08,13.23l10.08-5.42c-3,.14-5.83-1.59-7.75-3.88a29.39,29.39,0,0,1-4.25-7.88c-.59-1.43-1.2-3-.82-4.49s2.24-2.7,3.53-1.82c-.2-2.29-3-3.15-5.17-3.9s-4.52-3.17-3.09-5c1.27-1.59,3.8-.48,5.45.71C327.05,172.87,313.33,171.11,306.32,173.77Z"/><path class="cls-2" d="M122,189.62l-2.17,3.14a18.93,18.93,0,0,1,10.73-2.28c-.45.76-.9,1.53-1.36,2.29l9-5c.14,1.15.29,2.3.43,3.45l12.68-13.33c-16.23,2.22-33.14,5.42-48.5,11.25C105,189.35,120.92,191.13,122,189.62Z"/><path class="cls-8" d="M122,189.62l-2.17,3.14a18.93,18.93,0,0,1,10.73-2.28c-.45.76-.9,1.53-1.36,2.29l9-5c.14,1.15.29,2.3.43,3.45l12.68-13.33c-16.23,2.22-33.14,5.42-48.5,11.25C105,189.35,120.92,191.13,122,189.62Z"/><path class="cls-2" d="M180.87,94.9c1.82-1.45,4.72-.18,5.84,1.85s1,4.49,1.13,6.82.47,4.86,2.2,6.42c-1.71-4,.77-8.87,4.44-11.28s8.2-3,12.56-3.46A15.23,15.23,0,0,0,196.17,89c-1.43-.13-3-.13-4-1.18a5,5,0,0,1-1-2.43q-2-9.75-4.1-19.51a32.26,32.26,0,0,1-2.24,9.68c1.73-4.31-6-15.51-10.53-13.16C181.43,69.52,181.66,85.43,180.87,94.9Z"/><path class="cls-8" d="M180.87,94.9c1.82-1.45,4.72-.18,5.84,1.85s1,4.49,1.13,6.82.47,4.86,2.2,6.42c-1.71-4,.77-8.87,4.44-11.28s8.2-3,12.56-3.46A15.23,15.23,0,0,0,196.17,89c-1.43-.13-3-.13-4-1.18a5,5,0,0,1-1-2.43q-2-9.75-4.1-19.51a32.26,32.26,0,0,1-2.24,9.68c1.73-4.31-6-15.51-10.53-13.16C181.43,69.52,181.66,85.43,180.87,94.9Z"/><path class="cls-2" d="M190.09,46.62c6.77,6.06,10.68,14.58,14.42,22.86l11.28,25a9.81,9.81,0,0,0,1.43-10.35c.26,6.19,6.47,11.46,12.62,10.7q-.24-6.94-.49-13.89l6,11.27a61.91,61.91,0,0,0-2.4-17.7c3.44,2.86,4.54,7.57,6.21,11.72s4.95,8.48,9.43,8.35c1.39-.24,2,2.09.87,3s-2.73.56-4-.06S243,96,241.62,95.83c-3.56-.34-5.53,3.86-7.94,6.49-4.15,4.52-11,4.88-17.15,4.93C216,97.64,202,87.88,201.37,85.4c-5.22-19.48-2.46-28.25-10.91-37.15l2.36,2.46"/><path class="cls-8" d="M190.09,46.62c6.77,6.06,10.68,14.58,14.42,22.86l11.28,25a9.81,9.81,0,0,0,1.43-10.35c.26,6.19,6.47,11.46,12.62,10.7q-.24-6.94-.49-13.89l6,11.27a61.91,61.91,0,0,0-2.4-17.7c3.44,2.86,4.54,7.57,6.21,11.72s4.95,8.48,9.43,8.35c1.39-.24,2,2.09.87,3s-2.73.56-4-.06S243,96,241.62,95.83c-3.56-.34-5.53,3.86-7.94,6.49-4.15,4.52-11,4.88-17.15,4.93C216,97.64,202,87.88,201.37,85.4c-5.22-19.48-2.46-28.25-10.91-37.15l2.36,2.46"/><path class="cls-2" d="M213,42.49c3.15,1,6.61.92,9.73,2a11.51,11.51,0,0,0-.11-5.22,22.19,22.19,0,0,1,3.47,10.44L201,50l-2-2.21,4.35-2.71a5.44,5.44,0,0,0,6.22,1.37c-1.49-2.15-3.12-5.23-2.5-7.67C209.25,39.29,210.55,41.68,213,42.49Z"/><path class="cls-8" d="M213,42.49c3.15,1,6.61.92,9.73,2a11.51,11.51,0,0,0-.11-5.22,22.19,22.19,0,0,1,3.47,10.44L201,50l-2-2.21,4.35-2.71a5.44,5.44,0,0,0,6.22,1.37c-1.49-2.15-3.12-5.23-2.5-7.67C209.25,39.29,210.55,41.68,213,42.49Z"/><path class="cls-2" d="M148.15,128.65s.95,8.08-1,14.26,2.85,7.6,8.07.47,6.18-10.45,1-12.83S148.15,128.65,148.15,128.65Z"/><path class="cls-8" d="M148.15,128.65s.95,8.08-1,14.26,2.85,7.6,8.07.47,6.18-10.45,1-12.83S148.15,128.65,148.15,128.65Z"/><path class="cls-2" d="M109.18,130.55s3.32,8.08,2.85,13.78,4.27-.47,4.27-.47l-1.42,8.55s7.13-9.5,6.18-14.73S109.18,130.55,109.18,130.55Z"/><path class="cls-8" d="M109.18,130.55s3.32,8.08,2.85,13.78,4.27-.47,4.27-.47l-1.42,8.55s7.13-9.5,6.18-14.73S109.18,130.55,109.18,130.55Z"/><path class="cls-2" d="M306.25,159.92c-.64-2.2-4.31-2.51-5.31-.45,1-1.93-1.36-3.75-2.89-5.29-3.92-4-3.06-10.45-1.91-15.9A14.15,14.15,0,0,0,290,152.43a4.27,4.27,0,0,0-7.86,3.31,25.42,25.42,0,0,1-8,.45,8.53,8.53,0,0,1-6.45-4.21c-.58-1.18-1.19-2.81-2.5-2.68-.88.09-1.4,1-2.1,1.55-2.25,1.73-5.45-.76-6.48-3.41s-1.32-5.83-3.57-7.57c-.13,1.85-.27,3.7-.41,5.55l.35,2.44q5.19,10,10.37,19.95c.85-2.31,2-4.91,4.34-5.61,2.05-.6,4.17.5,6.09,1.45a49.44,49.44,0,0,0,26.78,4.85q.66-2.53,1.33-5.07l13.33,4.9Z"/><path class="cls-8" d="M306.25,159.92c-.64-2.2-4.31-2.51-5.31-.45,1-1.93-1.36-3.75-2.89-5.29-3.92-4-3.06-10.45-1.91-15.9A14.15,14.15,0,0,0,290,152.43a4.27,4.27,0,0,0-7.86,3.31,25.42,25.42,0,0,1-8,.45,8.53,8.53,0,0,1-6.45-4.21c-.58-1.18-1.19-2.81-2.5-2.68-.88.09-1.4,1-2.1,1.55-2.25,1.73-5.45-.76-6.48-3.41s-1.32-5.83-3.57-7.57c-.13,1.85-.27,3.7-.41,5.55l.35,2.44q5.19,10,10.37,19.95c.85-2.31,2-4.91,4.34-5.61,2.05-.6,4.17.5,6.09,1.45a49.44,49.44,0,0,0,26.78,4.85q.66-2.53,1.33-5.07l13.33,4.9Z"/></g><path class="cls-11" d="M6.52,248.89,46.05,192l23.22-7,5.18-17.88a31.51,31.51,0,0,1,16.19-19.45h0l9.6-29.25,29.42-7,33.91-68.79L186,41.87l20.9-10.06,18.58-7.74,20.13,23.22,18.58,44.13,27.25,19.25,27.87,55.74h0a116.15,116.15,0,0,1,58.06,46.82l25.82,40.68L145.14,267.83Z"/><path class="cls-11" d="M117.11,226q-4.17,15.12-8.36,30.23"/><path class="cls-11" d="M242.67,114.13,260.31,105"/><path class="cls-11" d="M256.09,129.1a45.48,45.48,0,0,1,12.39-8.26c3.92-1.77,8.6-.28,12.9-.31"/><path class="cls-11" d="M56.34,251.93c6.84-10.18,18.3-18.92,20.47-31l3.42-19"/><path class="cls-11" d="M167.16,46.91l5.22,9a16.49,16.49,0,0,0-7.6,10.93c-1.43,7.6-1.9,24.24-1.9,24.24s-5.23,1.9-7.13,6.65-3.33,17.11-3.33,17.11l29,2.85,20-3.8"/><path class="cls-11" d="M187.59,46.43l6.18,6.66L200.9,85.4l9,6.18,5.7,15.68,18.06-2.37s.95-6.66,5.7-7.61a7.07,7.07,0,0,1,7.13,2.38l4.75-2.85"/><path class="cls-1" d="M201.85,51.19h22.34l5.22-2.38s4.28,2.38,7.13,1.42a25.12,25.12,0,0,1,6.66-.95"/><path class="cls-11" d="M287.39,112.49l-10.93,2.85s-15.21-1-19-1-11.4,12.36-11.4,12.36l-28.52,1.43-29,6.65s-21.86.47-25.19-2.85-15.68-6.18-15.68-6.18l-10.93,6.65-11.88,1.9-17.11-9"/><path class="cls-11" d="M73.53,185.68l25.19,2.38,19.49-8.56s10.93-3.32,28.51-4.27"/><path class="cls-11" d="M274.56,164.29s18.54,4.28,26.14,3.33c0,0-.95-4.75,2.85-4.75s7.13,4.75,7.13,4.75l5.7-.47"/><polyline class="cls-11" points="247.95 139.58 263.16 166.19 285.97 183.3 304.5 215.15 309.25 223.7"/><path class="cls-11" d="M335.87,208s-2.85-5.23-6.18-10-10.93-3.33-10.93-3.33l-7.6-10-24.72-11.88"/><path class="cls-11" d="M144.34,185.21s-7.6,13.3-10.45,24.71a184.57,184.57,0,0,1-6.18,20s-6.18,6.18-9,10.93-3.8,15.68-3.8,15.68"/><path class="cls-11" d="M138.39,261.2a53.16,53.16,0,0,1,12.79-28.91l8.28-26.66c2.18-7,6.73-10,12.87-14v-3l5.23-19.48"/><path class="cls-2" d="M449.1,222c-.27,4.7-.74,9.33-1.38,13.93a173.45,173.45,0,0,1-3.48,17.95,179.29,179.29,0,0,1-15.09,39.73A181.93,181.93,0,0,1,419,310.91C343.85,313.19,189,315,140.44,293.66h0L139,293l-1.36-.67c-.62-.31-1.21-.63-1.79-.95h0c-.58-.33-1.13-.65-1.66-1l-.1-.05c-.5-.33-1-.64-1.43-1a25.41,25.41,0,0,1-2.64-2.11l-.57-.54c-.18-.17-.34-.35-.52-.53v0a12.11,12.11,0,0,1-.95-1.13,7.21,7.21,0,0,1-.43-.58c-.27-.39-.51-.78-.73-1.17-.12-.21-.21-.43-.32-.63s-.06-.12-.09-.19c-.1-.23-.19-.46-.28-.7s-.17-.51-.25-.77-.13-.52-.19-.78-.1-.63-.14-1a11.07,11.07,0,0,1,.59-4.68c.09-.26.18-.51.28-.77a18,18,0,0,1,1.16-2.39c.32-.53.67-1.08,1.05-1.62.18-.27.39-.55.61-.84a31,31,0,0,1,2.15-2.55h0l.83-.87h0l.52-.28.36-.2c1.15-.59,3.47-1.71,7.15-3.22.22-.1.43-.19.66-.27l1.65-.68h0c2.15-.84,4.68-1.78,7.6-2.8l1-.36q3.65-1.25,8.11-2.64l1.29-.4,1.66-.5c1.14-.35,2.31-.69,3.53-1,4.43-1.28,9.35-2.62,14.81-4l3.64-.9,3.78-.9c4.51-1.06,9.33-2.14,14.49-3.21l4.5-.93,2.31-.46c1.1-.22,2.2-.44,3.33-.65l3.86-.74q3.69-.7,7.57-1.39l6.86-1.2c1.87-.3,3.76-.63,5.69-.93l3.85-.62,3.33-.52,5.35-.82,3-.44c3-.45,6.14-.88,9.32-1.32l6.28-.84,3.45-.45,3.34-.42q6.84-.85,14.08-1.69l7-.77c.47,0,.94-.09,1.4-.15h0l2.27-.24q3.7-.39,7.52-.77l1.76-.17,5.95-.58c2.57-.25,5.19-.49,7.83-.71l4.43-.4,6.32-.53q9.09-.73,18.68-1.43l4.4-.31,4.46-.3,9.43-.6c2.94-.18,5.93-.36,8.94-.52l4.73-.26,5.48-.29c3-.15,6-.31,9-.45l5-.23Z"/><path class="cls-12" d="M449.1,222c-.27,4.7-.74,9.33-1.38,13.93a173.45,173.45,0,0,1-3.48,17.95,179.29,179.29,0,0,1-15.09,39.73A181.93,181.93,0,0,1,419,310.91C343.85,313.19,189,315,140.44,293.66h0L139,293l-1.36-.67c-.62-.31-1.21-.63-1.79-.95h0c-.58-.33-1.13-.65-1.66-1l-.1-.05c-.5-.33-1-.64-1.43-1a25.41,25.41,0,0,1-2.64-2.11l-.57-.54c-.18-.17-.34-.35-.52-.53v0a12.11,12.11,0,0,1-.95-1.13,7.21,7.21,0,0,1-.43-.58c-.27-.39-.51-.78-.73-1.17-.12-.21-.21-.43-.32-.63s-.06-.12-.09-.19c-.1-.23-.19-.46-.28-.7s-.17-.51-.25-.77-.13-.52-.19-.78-.1-.63-.14-1a11.07,11.07,0,0,1,.59-4.68c.09-.26.18-.51.28-.77a18,18,0,0,1,1.16-2.39c.32-.53.67-1.08,1.05-1.62.18-.27.39-.55.61-.84a31,31,0,0,1,2.15-2.55h0l.83-.87h0l.52-.28.36-.2c1.15-.59,3.47-1.71,7.15-3.22.22-.1.43-.19.66-.27l1.65-.68h0c2.15-.84,4.68-1.78,7.6-2.8l1-.36q3.65-1.25,8.11-2.64l1.29-.4,1.66-.5c1.14-.35,2.31-.69,3.53-1,4.43-1.28,9.35-2.62,14.81-4l3.64-.9,3.78-.9c4.51-1.06,9.33-2.14,14.49-3.21l4.5-.93,2.31-.46c1.1-.22,2.2-.44,3.33-.65l3.86-.74q3.69-.7,7.57-1.39l6.86-1.2c1.87-.3,3.76-.63,5.69-.93l3.85-.62,3.33-.52,5.35-.82,3-.44c3-.45,6.14-.88,9.32-1.32l6.28-.84,3.45-.45,3.34-.42q6.84-.85,14.08-1.69l7-.77c.47,0,.94-.09,1.4-.15h0l2.27-.24q3.7-.39,7.52-.77l1.76-.17,5.95-.58c2.57-.25,5.19-.49,7.83-.71l4.43-.4,6.32-.53q9.09-.73,18.68-1.43l4.4-.31,4.46-.3,9.43-.6c2.94-.18,5.93-.36,8.94-.52l4.73-.26,5.48-.29c3-.15,6-.31,9-.45l5-.23Z"/><path class="cls-2" d="M449.1,222c-.27,4.7-.74,9.33-1.38,13.93a173.45,173.45,0,0,1-3.48,17.95h-41c-76.24,3.42-132.65,10-173.66,17h0c-49.8,8.52-76.88,17.72-89.11,22.74h0L139,293l-1.36-.67c-.62-.31-1.21-.63-1.79-.95h0c-.58-.33-1.13-.65-1.66-1l-.1-.05c-.5-.33-1-.64-1.43-1a22.19,22.19,0,0,1-2.64-2.11l-.57-.54c-.18-.17-.34-.35-.52-.53v0a12.11,12.11,0,0,1-.95-1.13,7.21,7.21,0,0,1-.43-.58,10.32,10.32,0,0,1-.73-1.17c-.12-.21-.21-.43-.32-.63s-.06-.12-.09-.19c-.1-.23-.19-.46-.28-.7s-.17-.51-.25-.77-.13-.52-.19-.78-.1-.63-.14-1a11.07,11.07,0,0,1,.59-4.68c.09-.26.18-.51.28-.77a18,18,0,0,1,1.16-2.39c.31-.53.66-1.08,1.05-1.62.18-.27.39-.55.61-.84a31,31,0,0,1,2.15-2.55h0l.82-.87h0l.52-.28.36-.2c1.15-.59,3.47-1.71,7.15-3.22.22-.1.43-.19.66-.27l1.65-.68h0c2.15-.84,4.68-1.78,7.6-2.8l1-.36q3.65-1.25,8.11-2.64l1.29-.4,1.66-.5c1.14-.35,2.31-.69,3.53-1,4.43-1.28,9.35-2.62,14.81-4l3.64-.9,3.78-.9c4.51-1.06,9.33-2.14,14.49-3.21l4.5-.93,2.31-.46c1.1-.22,2.2-.44,3.33-.65l3.86-.74q3.69-.7,7.57-1.39l6.86-1.2c1.87-.3,3.76-.63,5.69-.93l3.85-.62,3.33-.52,5.35-.82,3-.44c3-.45,6.14-.88,9.32-1.32l6.28-.84,3.45-.45,3.34-.42q6.84-.85,14.08-1.69l7-.77c.47,0,.94-.09,1.4-.15h0l2.27-.24,7.52-.77,1.76-.17,5.95-.58q3.86-.36,7.83-.71l4.43-.4,6.32-.53q9.09-.73,18.68-1.43l4.4-.31,4.46-.3,9.43-.6c2.94-.18,5.93-.36,8.94-.52l4.73-.26,5.48-.29c3-.15,6-.31,9-.45l5-.23Z"/><path class="cls-13" d="M449.1,222c-.27,4.7-.74,9.33-1.38,13.93a173.45,173.45,0,0,1-3.48,17.95h-41c-76.24,3.42-132.65,10-173.66,17h0c-49.8,8.52-76.88,17.72-89.11,22.74h0L139,293l-1.36-.67c-.62-.31-1.21-.63-1.79-.95h0c-.58-.33-1.13-.65-1.66-1l-.1-.05c-.5-.33-1-.64-1.43-1a22.19,22.19,0,0,1-2.64-2.11l-.57-.54c-.18-.17-.34-.35-.52-.53v0a12.11,12.11,0,0,1-.95-1.13,7.21,7.21,0,0,1-.43-.58,10.32,10.32,0,0,1-.73-1.17c-.12-.21-.21-.43-.32-.63s-.06-.12-.09-.19c-.1-.23-.19-.46-.28-.7s-.17-.51-.25-.77-.13-.52-.19-.78-.1-.63-.14-1a11.07,11.07,0,0,1,.59-4.68c.09-.26.18-.51.28-.77a18,18,0,0,1,1.16-2.39c.31-.53.66-1.08,1.05-1.62.18-.27.39-.55.61-.84a31,31,0,0,1,2.15-2.55h0l.82-.87h0l.52-.28.36-.2c1.15-.59,3.47-1.71,7.15-3.22.22-.1.43-.19.66-.27l1.65-.68h0c2.15-.84,4.68-1.78,7.6-2.8l1-.36q3.65-1.25,8.11-2.64l1.29-.4,1.66-.5c1.14-.35,2.31-.69,3.53-1,4.43-1.28,9.35-2.62,14.81-4l3.64-.9,3.78-.9c4.51-1.06,9.33-2.14,14.49-3.21l4.5-.93,2.31-.46c1.1-.22,2.2-.44,3.33-.65l3.86-.74q3.69-.7,7.57-1.39l6.86-1.2c1.87-.3,3.76-.63,5.69-.93l3.85-.62,3.33-.52,5.35-.82,3-.44c3-.45,6.14-.88,9.32-1.32l6.28-.84,3.45-.45,3.34-.42q6.84-.85,14.08-1.69l7-.77c.47,0,.94-.09,1.4-.15h0l2.27-.24,7.52-.77,1.76-.17,5.95-.58q3.86-.36,7.83-.71l4.43-.4,6.32-.53q9.09-.73,18.68-1.43l4.4-.31,4.46-.3,9.43-.6c2.94-.18,5.93-.36,8.94-.52l4.73-.26,5.48-.29c3-.15,6-.31,9-.45l5-.23Z"/><path class="cls-14" d="M444.24,253.91h-41c-76.24,3.42-132.65,10-173.66,17h0c-49.8,8.52-76.88,17.72-89.11,22.74"/><path class="cls-2" d="M418.84,311.08l-220.73,7L40.31,323a183.21,183.21,0,0,1-36-78.36c3.09.37,33.54,4,76.85,9.09l30.94,3.63c9.8,1.14,20,2.34,30.49,3.55h0c27.82,3.24,57.57,6.66,87,10,70,8,138.23,15.45,174.08,18.66a173.34,173.34,0,0,1,25.51,4.06A181.93,181.93,0,0,1,419,310.91Z"/><path class="cls-15" d="M418.84,311.08l-220.73,7L40.31,323a183.21,183.21,0,0,1-36-78.36c3.09.37,33.54,4,76.85,9.09l30.94,3.63c9.8,1.14,20,2.34,30.49,3.55h0c27.82,3.24,57.57,6.66,87,10,70,8,138.23,15.45,174.08,18.66a173.34,173.34,0,0,1,25.51,4.06A181.93,181.93,0,0,1,419,310.91Z"/><path class="cls-14" d="M4.28,244.63c3.09.37,33.54,4,76.85,9.09l30.94,3.63c9.8,1.14,20,2.34,30.49,3.55h0c27.82,3.24,57.57,6.66,87,10,70,8,138.23,15.45,174.08,18.66a173.34,173.34,0,0,1,25.51,4.06"/><polygon class="cls-4" points="317.53 284.57 326.89 268.1 336.48 284.44 317.53 284.57"/><polygon class="cls-16" points="320.14 284.37 326.87 272.52 333.77 284.28 320.14 284.37"/><line class="cls-17" x1="326.87" y1="272.52" x2="326.95" y2="284.5"/><polygon class="cls-16" points="326.89 268.1 336.48 284.44 356.32 284.3 346.74 267.96 326.89 268.1"/><polygon class="cls-16" points="335.84 272.28 339.63 278.74 347.49 278.69 343.7 272.22 335.84 272.28"/><path class="cls-2" d="M449.4,211.7c0,1,0,1.92,0,2.87,0,.42,0,.83,0,1.24q0,1-.06,2c0,.4,0,.82-.05,1.22,0,1-.08,2-.14,3s-.13,2.11-.22,3.15c0,.63-.1,1.26-.16,1.89s-.11,1.29-.17,1.92c-.1,1-.21,2.06-.34,3.08-.08.72-.16,1.44-.26,2.16l-.15,1.13c0,.2-.05.4-.08.6h0c-18.22,5.79-60.67,11.21-154.8-4.75,0,0,1.47-.41,4.1-1.39h0c12.7-4.68,52.38-22.23,84.12-67.91,17.76-25.57,36.07-19,50.6-4.63C442.84,177,449.4,195.83,449.4,211.7Z"/><g class="cls-18"><path class="cls-4" d="M449.4,211.7c0,1,0,1.92,0,2.87,0,.42,0,.83,0,1.24q0,1-.06,2c0,.4,0,.82-.05,1.22,0,1-.08,2-.14,3s-.13,2.11-.22,3.15c0,.63-.1,1.26-.16,1.89s-.11,1.29-.17,1.92c-.1,1-.21,2.06-.34,3.08-.08.72-.16,1.44-.26,2.16l-.15,1.13c0,.2-.05.4-.08.6h0c-18.22,5.79-60.67,11.21-154.8-4.75,0,0,1.47-.41,4.1-1.39h0c12.7-4.68,52.38-22.23,84.12-67.91,17.76-25.57,36.07-19,50.6-4.63C442.84,177,449.4,195.83,449.4,211.7Z"/></g><path class="cls-14" d="M447.71,236c-18.22,5.79-60.67,11.21-154.8-4.75"/><polygon class="cls-2" points="0 276.76 14.98 234.33 4.25 234.33 17.1 197.93 8.51 197.93 29.95 137.17 51.4 197.93 42.81 197.93 55.66 234.33 44.93 234.33 59.91 276.76 0 276.76"/><polygon class="cls-6" points="31.94 303.44 29.52 179.05 28.92 302.69 31.94 303.44"/><path class="cls-6" d="M29.22,180s-4.76,8.19-13.31,10.66c0,0,9-2,13.55-9.08Z"/><path class="cls-6" d="M30.58,246.89s-8.49,14.34-22.7,18.48c0,0,15.14-3.93,22.64-15.63Z"/><path class="cls-6" d="M29.33,210S21.89,222.59,9.09,226.3c0,0,13.51-3.05,20.28-13.59Z"/><path class="cls-6" d="M30.06,218.88s6.87,12.24,19.23,16c0,0-13-3.06-19.56-13.59Z"/><path class="cls-6" d="M31.16,253.56s7.61,13.58,21.33,17.73c0,0-14.48-3.4-21.71-15.08Z"/><path class="cls-6" d="M29.92,183.35s4.59,8.18,12.85,10.68c0,0-8.72-2.05-13.07-9.09Z"/><polygon class="cls-2" points="352.94 276.72 358.42 261.21 354.5 261.21 359.19 247.91 356.05 247.91 363.89 225.7 371.73 247.91 368.59 247.91 373.29 261.21 369.37 261.21 374.84 276.72 352.94 276.72"/><polygon class="cls-6" points="364.62 286.47 363.73 241.01 363.51 286.2 364.62 286.47"/><path class="cls-6" d="M363.62,241.36a9.3,9.3,0,0,1-4.86,3.9,8.76,8.76,0,0,0,4.95-3.32Z"/><path class="cls-6" d="M364.12,265.8s-3.1,5.25-8.3,6.76c0,0,5.54-1.44,8.28-5.71Z"/><path class="cls-6" d="M363.66,252.3s-2.72,4.62-7.39,6c0,0,4.93-1.12,7.41-5Z"/><path class="cls-6" d="M363.93,255.57s2.51,4.47,7,5.84c0,0-4.77-1.12-7.15-5Z"/><path class="cls-6" d="M364.33,268.24s2.78,5,7.8,6.48c0,0-5.29-1.24-7.94-5.51Z"/><path class="cls-6" d="M363.88,242.58a9.14,9.14,0,0,0,4.69,3.9,8.46,8.46,0,0,1-4.77-3.32Z"/><polygon class="cls-2" points="70.76 291.87 84.15 253.95 74.56 253.95 86.05 221.41 78.36 221.41 97.53 167.11 116.71 221.41 109.02 221.41 120.51 253.95 110.92 253.95 124.31 291.87 70.76 291.87"/><polygon class="cls-6" points="99.31 315.72 97.15 204.54 96.61 315.05 99.31 315.72"/><path class="cls-6" d="M96.88,205.41s-4.25,7.32-11.9,9.53c0,0,8.07-1.82,12.11-8.12Z"/><path class="cls-6" d="M98.1,265.17S90.5,278,77.81,281.7c0,0,13.53-3.52,20.23-14Z"/><path class="cls-6" d="M97,232.16s-6.64,11.3-18.08,14.61c0,0,12.08-2.73,18.12-12.15Z"/><path class="cls-6" d="M97.63,240.14s6.14,10.94,17.19,14.28c0,0-11.66-2.73-17.49-12.14Z"/><path class="cls-6" d="M98.61,271.14s6.81,12.13,19.07,15.85c0,0-12.94-3-19.41-13.49Z"/><path class="cls-6" d="M97.51,208.38s4.1,7.31,11.48,9.55c0,0-7.79-1.83-11.68-8.12Z"/><polygon class="cls-2" points="373.59 271.29 385.18 238.47 376.88 238.47 386.82 210.31 380.17 210.31 396.76 163.31 413.35 210.31 406.7 210.31 416.64 238.47 408.35 238.47 419.93 271.29 373.59 271.29"/><polygon class="cls-6" points="398.3 291.93 396.43 195.71 395.96 291.34 398.3 291.93"/><path class="cls-6" d="M396.2,196.46s-3.69,6.33-10.3,8.25c0,0,7-1.58,10.48-7Z"/><path class="cls-6" d="M397.25,248.18s-6.57,11.1-17.56,14.3c0,0,11.71-3,17.51-12.09Z"/><path class="cls-6" d="M396.28,219.61s-5.75,9.78-15.65,12.65c0,0,10.45-2.37,15.68-10.52Z"/><path class="cls-6" d="M396.85,226.52s5.31,9.46,14.87,12.36c0,0-10.09-2.37-15.13-10.51Z"/><path class="cls-6" d="M397.69,253.34s5.89,10.5,16.5,13.72c0,0-11.2-2.63-16.79-11.67Z"/><path class="cls-6" d="M396.74,199s3.55,6.32,9.93,8.25c0,0-6.74-1.58-10.11-7Z"/><path class="cls-19" d="M416.47,311.6c-38.9,58.39-111,97.59-193.52,97.59-76.81,0-144.59-34-185-85.74Z"/><path class="cls-2" d="M135.91,312l4.41,3.82q-1.48-6-3-11.94l5.55,11.4q-.36-6.18-.74-12.37,1.62,6.53,3.25,13.06,1.67-6.74,3.32-13.46.09,11.32.17,22.66c-3.39.11-7.76,1.51-9.58-1.72S138.41,315.65,135.91,312Z"/><path class="cls-2" d="M317.11,306.73l5.87,5.09q-2-7.95-4-15.89,3.71,7.59,7.39,15.17-.5-8.24-1-16.46L329.76,312l4.41-17.89q.12,15.06.23,30.12c-4.51.16-10.33,2-12.74-2.28S320.44,311.53,317.11,306.73Z"/><path class="cls-2" d="M398.4,290.39l7.4,6.42q-2.49-10-5-20.05,4.65,9.57,9.32,19.14-.63-10.38-1.25-20.76l5.46,21.91q2.79-11.3,5.57-22.58.15,19,.29,38c-5.69.2-13,2.54-16.09-2.88C401,304,402.6,296.45,398.4,290.39Z"/><path class="cls-16" d="M149.66,397.87,164,371.77l24.84-4.25,12.55-10.13s14-3.9,27.93-3.17,21.61,4,21.61,4l5.6,5.25,13.37,2.79s12.73,11,14.29,10.55,21.14,1.37,21.14,1.37l9.06,14.6S243.72,455.62,149.66,397.87Z"/><path class="cls-20" d="M200.83,367.35a17.5,17.5,0,0,1,20.26-2.47c.23-1.52.45-3,.68-4.56l7.14,1.92c.28,1.51.55,3,.83,4.54a39.73,39.73,0,0,1,22.62,4.9c-.08,1.89-.17,3.77-.25,5.66a6.85,6.85,0,0,1,13.1,2.41,7.2,7.2,0,0,1,7.11,1.64l6.84-4.21c-5-5.72-13.17-7.13-20.29-9.82-11-4.15-21.55-12.18-33.22-10.55l2.16,2.27a4.38,4.38,0,0,1-6.68-2.26l-19.63,2.1a26.13,26.13,0,0,1,0,2.8c-.43-.3-1-.63-1.36-.94C200.1,362.05,202,366.22,200.83,367.35Z"/><path class="cls-20" d="M182.5,387.87q-3-5.26-6.11-10.52c7.39-.2,14,4.22,20.07,8.45l-7.13-12.29a3.92,3.92,0,0,0-1.81-1.91,3.88,3.88,0,0,0-2,0c-4.3.79-14.81.85-17.65,4,1.73,2.59,4.75,4.73,7.17,6.7C176.92,383.86,181.33,385.89,182.5,387.87Z"/><path class="cls-20" d="M280.42,386.53a5.82,5.82,0,0,1,3.43,2.25c.69,1.22.08,3.18-1.32,3.24L299,386.41a14.21,14.21,0,0,1-6.81,6.49l6.75-2.7q1.44,2.94,2.86,5.9a22.12,22.12,0,0,1,2.51-10.82,13.57,13.57,0,0,0,5,8.85,29.49,29.49,0,0,0-2.72-8.46c-1.46-2.59-3.9-4.8-6.84-5.24-2.64-.4-5.26.65-7.91,1-3.86.54-7.8-.36-11.7-.08-3.18.23-7.22,1.66-8.39,4.86C274.56,386.65,277.19,385.44,280.42,386.53Z"/><path class="cls-21" d="M34.61,299.28S9.47,300.49,9.47,311.86v11.38l21.64,2.24Z"/><path class="cls-21" d="M40.53,283c-2.44,3.38-3.57,7.51-4.65,11.54q-4.14,15.38-8.27,30.76a132.73,132.73,0,0,0,68.2.28c3.85-1,8.2-2.73,9.3-6.55,1.23-4.27-2.34-8.29-5.59-11.3l-13-12.09C77.07,286.93,52.13,266.9,40.53,283Z"/><path class="cls-21" d="M101.3,300.83A21.57,21.57,0,0,0,98.41,308l-5.13,19.08a82.35,82.35,0,0,0,42.31.17c2.38-.63,5.08-1.7,5.76-4.07.77-2.64-1.44-5.13-3.46-7l-8.09-7.5C124,303.25,108.49,290.83,101.3,300.83Z"/><path class="cls-21" d="M381.39,290.16c-7.49.38-15.26,2.3-20.74,7.42s-7.86,14.05-3.83,20.38c2.31,3.63,6.32,5.92,10.48,7s8.52,1.17,12.83,1.22l22.68.28c3.78,0,7.61.08,11.26-.9s7.15-3.13,8.9-6.48c3-5.7-.5-8.48-4.23-11.8s-4.94-5.48-7.89-9C404.29,290.52,391.36,289.65,381.39,290.16Z"/><path class="cls-21" d="M333.66,325.12c2.72,4.45,8.93,4.79,14.14,4.63l27.28-.88c3.94-.12,8.66-.72,10.38-4.27,1.94-4-1.42-8.49-5-11.12-8.35-6.19-18.36-8.73-28.38-6.5C345,308.57,327,314.23,333.66,325.12Z"/><polygon class="cls-16" points="295.9 404.25 291.89 404.25 289.38 171.41 298.42 171.41 295.9 404.25"/><path class="cls-22" d="M303.22,170.13c-.5-.93-1.55-.79-2.75-2.78s-3.58-1.18-4.33-1.42-.8-.55-.6-1.57.57-4.39-1-4.18-2.28,3.78-2.5,4.64a42.51,42.51,0,0,1-2.5,4.65,13.05,13.05,0,0,1-2.22.62c-.87.12-1.68,1.89-1.72,2.71,0,.53,1.07,2.07,1.91,3.15a25.32,25.32,0,0,0,1.49,2.7s1.05,1,3.63.35,8,1.93,8.59,1.34,1.75-3.71,2.19-5.42A7.84,7.84,0,0,0,303.22,170.13Z"/><path class="cls-22" d="M285.16,177.19a4.76,4.76,0,0,1,.71-2.56c.71-.76,1.65-3.25,2.51-3.72s6.65-1.82,9.9.56,2.87,5.88,3.13,7.56-3.91,7.28-5,7.49,2.79-7.59-1.37-10C293.93,175.92,288.71,176.68,285.16,177.19Z"/><g id="freepik--character-2--inject-2"><path class="cls-22" d="M238.06,92.64s1.63-2.52,2.22.76-.82,6.8-2.71,8.07-2.72,0-2.72-1.27S238.06,92.64,238.06,92.64Z"/><path class="cls-22" d="M206.27,93.91a2.27,2.27,0,0,0-2.87,1.2,1.83,1.83,0,0,0-.11,1.06c0,3,4.34,7.32,6.24,6.31S206.27,93.91,206.27,93.91Z"/><path class="cls-23" d="M222,64.38s-4.24,6.55-8.69,8.32c-5.71,2.28-10.32,9.09-10,14.64s9,23.71,10.32,24.22,18.48-.75,19-1.51,3-8.32,5.15-15.65S240,83.3,240,83.3A21.64,21.64,0,0,0,241.11,76c-.17-3-5.55-7.6-5.55-7.6s-4.68-5.08-6.65-4a23.19,23.19,0,0,0-5.15,4.29Z"/><path class="cls-22" d="M186.63,228.12s3.67,5.17,3.87,7.18.19,5.75.38,7a1.71,1.71,0,0,1-1.54,2.16,2,2,0,0,1-1.54-.9,19.74,19.74,0,0,0,.57,3.05c.38,1.27,2.51,2.34,2.32,3.59s-2.32,1.8-5.22,1.8a8.79,8.79,0,0,1-8.12-5.17c-1.74-3.76-3.48-14.54-3.48-16.55S184.7,226.68,186.63,228.12Z"/><path class="cls-5" d="M182.57,234.76s.77,1.61-.78,4.14a16,16,0,0,0-2.31,4.85,17,17,0,0,0,1.73,3.59c.78,1.44,3.34,1.26,3.49,2.52a2.6,2.6,0,0,1-.39,2"/><path class="cls-5" d="M185,242.44a17.46,17.46,0,0,0,1,4.14c.78,1.8,4.83,2.88,3.34,4.85"/><path class="cls-5" d="M182.57,243.2a15.08,15.08,0,0,0,1,3.41c.58,1,4.46,2.15,3.68,5"/><path class="cls-5" d="M187.8,243.56s-.39-2.87-.58-3.95a21.43,21.43,0,0,1-.2-3.1"/><path class="cls-22" d="M251.22,117.92a42.06,42.06,0,0,0-17.38-7.31c-10.87-2-25.27,1.26-31,4.79a13.73,13.73,0,0,0-6.24,9.59Z"/><path class="cls-24" d="M298.87,179.44c.47,7.28-15.62,15.21-23.23,6.05-5.62-6.76-14.32-35.34-14.32-35.34s-2.05,44.12-2.05,46.91a31.45,31.45,0,0,1-1.25,7s-.44,3.08-2.34,4.34-2.68,5-26.07,6.75A130.66,130.66,0,0,1,188,211.85c-1.06-.26-1.61-6.06-1.61-6.06l-.82,16.9a9.39,9.39,0,0,1-3.53,2.28c-2.17.75-8.42.24-9.77-.51s-4.11-21.19-3.82-24.72,2.57-52.45,7.41-63.91c3.92-9.31,10.47-13.53,19.71-16.06s28-2.09,29.06-2.34c0,0,18.1,1,26.82-.5,0,0,16.31-.65,21.32,8.66,3.57,6.63,7.81,19.38,10,26.19a77.56,77.56,0,0,0,3.67,9.38l3.57,7.62C294.42,170.23,298.6,175.13,298.87,179.44Z"/><path class="cls-5" d="M215.72,134.52s3.67,13.45,14.47,18.94"/><path class="cls-5" d="M231.62,159.42c.82.39,1.65.78,2.5,1.15"/><path class="cls-5" d="M215.72,148.47a63.46,63.46,0,0,0,11.95,8.85"/><path class="cls-22" d="M264.86,202.51c-41.56,17.41-78.78,3.28-78.78,3.28s.55,5.8,1.63,6.06a131.13,131.13,0,0,0,41.57,3.28c23.39-1.77,33.14-5,35-6.31s1.63-5,1.63-5a12.4,12.4,0,0,1,.12-1.48Z"/><path class="cls-22" d="M169,221.93s6.25,2.53,11.42,1,6.51-3,7.33-2.77.82,6.3,0,8.06-2.72,3-8.42,3.54-8.69-2.07-9.24-3.54A48.4,48.4,0,0,1,169,221.93Z"/></g><path class="cls-5" d="M185.52,143.62a195.77,195.77,0,0,0,4.18,39.1"/><path class="cls-25" d="M203,78.13c-2.55,5.49-2.57,9-.33,14.59,2.82,7,9.38,9.24,13.37,9.62,7.34.69,14.5.34,20.72-3.42s8.89-12.07,7.68-18.93c-1-5.89-4.77-14-10.69-16.14C220.08,58.88,208.63,66,203,78.13Z"/><path class="cls-26" d="M205.53,72.92c-2.8,4.93-3.28,8.28-2,13.92a13.7,13.7,0,0,0,12,10.83c7.34.8,14.5.3,20.27-4.23,5.45-4.27,6.65-12.85,4.63-19.18-1.6-5-5.38-11.24-10.09-12.76C220,58.11,211,63.23,205.53,72.92Z"/><ellipse class="cls-23" cx="222.9" cy="71.49" rx="3.17" ry="2.79"/><path class="cls-27" d="M214.76,76.21C211,82.12,211.12,89.76,212,97.08"/><path class="cls-27" d="M224.46,77.5a91.5,91.5,0,0,1,.91,20.18"/><path class="cls-27" d="M233.34,74.88a24.51,24.51,0,0,1,3.6,16.57"/><path class="cls-5" d="M290,174a9.28,9.28,0,0,1-2.69,8.36"/><path class="cls-5" d="M274.71,142.53c-.12.72-.25,1.45-.42,2.17"/><path class="cls-5" d="M273.41,126.46A34.56,34.56,0,0,1,275,140.55"/><path class="cls-22" d="M190.58,215s-4.78,19.12-4,27.2-.6,32.14,2.43,50.59c4.3,26.17,3.07,51.08,3.55,63.76A36.44,36.44,0,0,1,191,369.5c-1,2.93-1.27,7.48,2.25,13.25.06,1,2.27.69,2.58,1.68,0,0,4.07,2.52,6.52,2.77s-.63,2.75,12-4.28c2.82-1.57,4.36-10.62,3.2-14.33-1.78-5.71,1-14.61.36-42.23-.31-12.61-1.13-7.87,2.26-27.27,5.3-30.39,4.2-51.4,4.2-51.4a68.87,68.87,0,0,1,.88,7c.4,12.31,3.37,48.67,3.95,79.53.48,25.29,3.22,55.43,3.22,57.44s-.5,6.41-.5,8.18-.16,5,.65,6.22a20.43,20.43,0,0,1,1.63,3.79s9.79,1.51,12.5,1.51,5.77-2.13,5.77-2.13l.48-2c1.17-4.74,3.24-5.75,3.75-10.6,3.19-30.25,5.25-41.73,5.44-130.77,0-3.5-3.25-48.6-3.25-48.6l-.55-6.06s-28.52,3.54-42.11,1.77-24.72-2.28-24.72-2.28Z"/><path class="cls-28" d="M214.09,409.79c0,2.07-4.28,2.94-8.56,3.1a14.59,14.59,0,0,1-7.61-2.06s-3.65.28-4.92-1.19-.63-4.86.17-6,3.89-3.89,5-6c.7-1.36-2.39-6.42-2.72-15.44a5.68,5.68,0,0,1,3-1.49l.57,5.89s10.54-1.74,13.09.3c.35.28.63.31.87.15a19.38,19.38,0,0,0,.16,9.49C215.79,405.44,214.09,408.94,214.09,409.79Z"/><path class="cls-16" d="M213,387c-.24.16-.52.13-.87-.15-2.55-2-13.09-.3-13.09-.3l-.57-5.89a32.16,32.16,0,0,1,10-.58c2.29.23,5,1.63,5.45,2.72C214.05,383.15,213.43,384.74,213,387Z"/><path class="cls-25" d="M197.94,410.78a14.4,14.4,0,0,0,7.61,2.06c4.28-.15,8.56-1,8.56-3.09v-1.63a20.38,20.38,0,0,1-7,1.48c-5.71.29-8.25-1.33-9.35-1.47-.9-.12-3.37.44-5.45-.45a3.48,3.48,0,0,0,.69,1.92C194.28,411.07,197.94,410.78,197.94,410.78Z"/><line class="cls-5" x1="197.92" y1="403.7" x2="198.56" y2="410.78"/><path class="cls-28" d="M232.26,435c0,2.3,4.74,3.25,9.48,3.43a16,16,0,0,0,8.42-2.28s4,.31,5.45-1.31.7-5.39-.19-6.68-4.31-4.31-5.54-6.62c-.78-1.5,2.64-7.11,3-17.1a6.31,6.31,0,0,0-3.3-1.65l-.63,6.52s-11.68-1.93-14.49.34c-.39.31-.7.34-1,.16a21.35,21.35,0,0,1-.18,10.51C230.38,430.2,232.26,434.07,232.26,435Z"/><path class="cls-16" d="M233.5,409.82c.27.18.58.15,1-.16,2.81-2.27,14.49-.34,14.49-.34l.63-6.52a35.73,35.73,0,0,0-11.1-.64c-2.54.26-5.53,1.81-6,3C232.31,405.51,233,407.28,233.5,409.82Z"/><path class="cls-25" d="M255.61,434.8a3.79,3.79,0,0,0,.77-2.12c-2.31,1-5,.36-6,.49-1.23.16-4,2-10.36,1.63a22.53,22.53,0,0,1-7.75-1.64V435c0,2.28,4.74,3.25,9.48,3.42a15.92,15.92,0,0,0,8.42-2.28S254.2,436.42,255.61,434.8Z"/><line class="cls-5" x1="249.46" y1="436.11" x2="250.17" y2="428.27"/><path class="cls-5" d="M195.75,306.7A43.23,43.23,0,0,0,210,329.49"/><path class="cls-5" d="M194.66,298.47a39.3,39.3,0,0,0,.46,5.08"/><path class="cls-5" d="M201.3,309.85a15.56,15.56,0,0,0,11.29,5.78"/><path class="cls-5" d="M234.68,345.76A29.41,29.41,0,0,0,252.07,334"/><path class="cls-5" d="M236.88,335.69a16.57,16.57,0,0,0,10.66-4.91"/><polygon class="cls-16" points="196.57 161.44 188.02 120.1 199.9 117.72 203.7 160.49 196.57 161.44"/><polygon class="cls-16" points="251.85 159.54 260.4 118.19 248.52 115.82 244.72 158.59 251.85 159.54"/><polygon class="cls-23" points="215.34 153.37 215.34 177.95 215.23 177.95 211.87 183.36 208.52 177.95 208.42 177.95 208.42 160.45 208.4 160.45 208.4 153.37 215.34 153.37"/><rect class="cls-23" x="233.39" y="115.34" width="6.93" height="10.13"/><rect class="cls-23" x="233.39" y="130.55" width="6.93" height="17.74"/><path class="cls-22" d="M256,135.49l-4.09,12c-1.49,5.7-6,10.17-11.6,13.11V178h0V153.37H244v-5.08h-3.7V130.55H244v-5.08h-3.7V115.34h-6.93v10.13h-3.7v5.08h3.7v17.74h-3.7v5.08h3.7v9.95l-1.13.28-1.06.23a.65.65,0,0,1-.16,0,3.73,3.73,0,0,1-.46.09l-.68.12-.25,0-.62.1-.7.09a.15.15,0,0,0-.09,0l-.69.06-.16,0-.7.06h-.07l-.71,0-.71,0-.1,0h-.73a33.18,33.18,0,0,1-9-1.27V178h0V153.37H219v-5.08h-3.69V130.55H219v-5.08h-3.69V115.34H208.4v10.13h-3.69v5.08h3.69v17.74h-3.69v5.08h3.69v7.08c-5.57-3.06-10-7.66-11.48-13.35l-4.22-11.61,11.51-20.25h40Z"/><polygon class="cls-22" points="246.62 183.36 246.62 183.56 202.98 183.56 224.79 194.62 246.62 183.56 246.62 210.34 202.2 210.34 202.2 183.36 246.62 183.36"/><path class="cls-16" d="M271.27,238.43,250,235.88a203,203,0,0,0-48.52,0l-20.93,2.52-.58-3a51.4,51.4,0,0,1,.58-21.95h0l32.91,3.12a130.85,130.85,0,0,0,24.56,0l33.27-3.13h0a54.31,54.31,0,0,1,.12,24.46Z"/><rect class="cls-22" x="221.78" y="212.13" width="8.73" height="25.77"/><path class="cls-28" d="M256,135.49v74.24c0,4.58-4,8.3-8.92,8.3H201.63c-4.93,0-8.93-3.72-8.93-8.3V135.49l4.22,11.61c1.52,5.69,5.91,10.29,11.48,13.35V178h.1l3.37,5.41H202.2v27h44.42v-27h-9.75l3.37-5.41h.1V160.63c5.64-2.94,10.11-7.41,11.6-13.11Z"/><rect class="cls-5" x="208.4" y="160.45" width="0.01" height="17.5"/><polygon class="cls-5" points="211.87 183.36 208.5 177.95 208.52 177.95 211.87 183.36"/><path class="cls-28" d="M236.86,183.36h-25l3.37-5.41h.1V163.28a33.18,33.18,0,0,0,9,1.27h.73l.1,0,.71,0,.71,0h.07l.7-.06.16,0,.69-.06a.15.15,0,0,1,.09,0l.7-.09.62-.1.25,0,.68-.12a3.73,3.73,0,0,0,.46-.09.65.65,0,0,0,.16,0l1.06-.23,1.13-.28V178h.1Z"/><polygon class="cls-5" points="233.41 163.31 233.41 177.95 233.39 177.95 233.39 163.32 233.41 163.31"/><polygon class="cls-5" points="236.86 183.36 233.49 177.95 233.51 177.95 236.86 183.36"/><path class="cls-22" d="M246.62,183.56l-12.08,8.27a17.24,17.24,0,0,1-19.5,0L203,183.56Z"/><path class="cls-22" d="M269.18,193v17.35H256v-27h2.8C264.54,183.36,269.18,187.67,269.18,193Z"/><path class="cls-22" d="M192.7,183.36v27H179.54V193c0-5.32,4.64-9.63,10.36-9.63Z"/><rect class="cls-23" x="208.4" y="130.55" width="6.93" height="17.74"/><rect class="cls-5" x="208.4" y="160.45" width="0.01" height="17.5"/><polygon class="cls-5" points="211.87 183.36 208.5 177.95 208.52 177.95 211.87 183.36"/><rect class="cls-23" x="208.4" y="115.34" width="6.93" height="10.13"/><polygon class="cls-23" points="240.32 153.37 240.32 177.95 240.22 177.95 236.86 183.36 233.51 177.95 233.41 177.95 233.41 163.31 233.39 163.32 233.39 153.37 240.32 153.37"/><polygon class="cls-5" points="233.41 163.31 233.41 177.95 233.39 177.95 233.39 163.32 233.41 163.31"/><polygon class="cls-5" points="236.86 183.36 233.49 177.95 233.51 177.95 236.86 183.36"/><rect class="cls-24" x="204.71" y="125.47" width="14.33" height="5.08"/><rect class="cls-24" x="229.69" y="125.47" width="14.33" height="5.08"/><rect class="cls-24" x="204.71" y="148.29" width="14.33" height="5.08"/><rect class="cls-24" x="229.69" y="148.29" width="14.33" height="5.08"/><path class="cls-5" d="M224.35,251.54a25.69,25.69,0,0,0,24.88,3.59"/><path class="cls-5" d="M225.08,256.2A76.28,76.28,0,0,1,208.27,282"/><path class="cls-23" d="M224.42,249.54l-1,3.57c-1.37,5.1-2.39,9.08-4.68,13.84L214.5,275l10.1-16.22Z"/><path class="cls-23" d="M224.35,251.54l2,20.4,1.05-3.83c.71-4.73,4-8.44,7.69-11.5h0a23.91,23.91,0,0,1-8.19-3.45Z"/><path class="cls-5" d="M187.27,237.45c.43,8,4.45,13.17,9.83,15.24"/><path class="cls-5" d="M259.83,237.21c-.29,8-3,13.18-6.65,15.24"/><path class="cls-5" d="M182.2,175.31a48.66,48.66,0,0,1,3.48,8.95"/><path class="cls-5" d="M179,170c.44.65.87,1.3,1.28,2"/><path class="cls-5" d="M169.56,187.11a24.85,24.85,0,0,0,3.27,13.32"/><path class="cls-5" d="M258.7,141.14,262.51,154"/></g></g></svg>