<svg xmlns="http://www.w3.org/2000/svg" xmlns:xlink="http://www.w3.org/1999/xlink" viewBox="0 0 2886.16 2771.04"><defs><style>.cls-1{fill:none;}.cls-2,.cls-36{fill:#d8dee8;}.cls-3{isolation:isolate;}.cls-4{fill:#f4f7fa;}.cls-5{fill:#97a6b7;}.cls-53,.cls-6{fill:#bfc8d6;}.cls-7{fill:url(#linear-gradient);}.cls-10,.cls-11,.cls-35,.cls-36,.cls-41,.cls-48,.cls-59,.cls-8{opacity:0.3;}.cls-10,.cls-11,.cls-19,.cls-32,.cls-35,.cls-36,.cls-41,.cls-48,.cls-53,.cls-57,.cls-58,.cls-8{mix-blend-mode:multiply;}.cls-8{fill:url(#linear-gradient-2);}.cls-9{fill:url(#linear-gradient-3);}.cls-10{fill:url(#linear-gradient-4);}.cls-11{fill:url(#linear-gradient-5);}.cls-12{fill:url(#linear-gradient-6);}.cls-13{fill:#abc;}.cls-14{clip-path:url(#clip-path);}.cls-15{opacity:0.8;}.cls-15,.cls-59{mix-blend-mode:soft-light;}.cls-16,.cls-59{fill:#fff;}.cls-17{clip-path:url(#clip-path-2);}.cls-18{fill:url(#linear-gradient-7);}.cls-19,.cls-32{opacity:0.2;}.cls-19{fill:url(#linear-gradient-8);}.cls-20{fill:url(#linear-gradient-9);}.cls-21{fill:url(#linear-gradient-10);}.cls-22{fill:url(#linear-gradient-11);}.cls-23{fill:url(#linear-gradient-12);}.cls-24{fill:url(#linear-gradient-13);}.cls-25{fill:url(#linear-gradient-14);}.cls-26{fill:url(#linear-gradient-15);}.cls-27{fill:url(#linear-gradient-16);}.cls-28{fill:url(#linear-gradient-17);}.cls-29{fill:url(#linear-gradient-18);}.cls-30{fill:url(#linear-gradient-19);}.cls-31{fill:url(#linear-gradient-20);}.cls-32{fill:url(#linear-gradient-21);}.cls-33{fill:url(#linear-gradient-22);}.cls-34{fill:url(#linear-gradient-23);}.cls-35{fill:url(#linear-gradient-24);}.cls-37{fill:url(#linear-gradient-25);}.cls-38{fill:url(#linear-gradient-26);}.cls-39{fill:url(#linear-gradient-27);}.cls-40{fill:url(#linear-gradient-28);}.cls-41{fill:url(#linear-gradient-29);}.cls-42{fill:url(#linear-gradient-30);}.cls-43{fill:url(#linear-gradient-31);}.cls-44{fill:url(#linear-gradient-32);}.cls-45{fill:url(#linear-gradient-33);}.cls-46{fill:url(#linear-gradient-34);}.cls-47{fill:url(#linear-gradient-35);}.cls-48{fill:url(#linear-gradient-36);}.cls-49{fill:url(#linear-gradient-37);}.cls-50{fill:url(#linear-gradient-38);}.cls-51{fill:url(#linear-gradient-39);}.cls-52{fill:url(#linear-gradient-40);}.cls-53,.cls-57{opacity:0.4;}.cls-54{fill:url(#linear-gradient-41);}.cls-55{fill:url(#linear-gradient-42);}.cls-56{fill:url(#linear-gradient-43);}.cls-57{fill:url(#linear-gradient-44);}.cls-58{opacity:0.6;fill:url(#linear-gradient-45);}</style><linearGradient id="linear-gradient" x1="2277.4" y1="456.44" x2="2021.11" y2="1168.34" gradientUnits="userSpaceOnUse"><stop offset="0" stop-color="#ffc444"/><stop offset="0.92" stop-color="#f47555"/><stop offset="1" stop-color="#f36f56"/></linearGradient><linearGradient id="linear-gradient-2" x1="2211.55" y1="465.6" x2="2259.74" y2="1276.07" gradientUnits="userSpaceOnUse"><stop offset="0" stop-color="#ffc444"/><stop offset="1" stop-color="#f36f56"/></linearGradient><linearGradient id="linear-gradient-3" x1="2912.66" y1="144.12" x2="2665.15" y2="1007.12" gradientTransform="matrix(0.83, 0.55, -0.55, 0.83, 329.77, -983)" gradientUnits="userSpaceOnUse"><stop offset="0" stop-color="#e38ddd"/><stop offset="1" stop-color="#9571f6"/></linearGradient><linearGradient id="linear-gradient-4" x1="2712.72" y1="486.51" x2="2831.59" y2="486.51" xlink:href="#linear-gradient-3"/><linearGradient id="linear-gradient-5" x1="2871.47" y1="453.32" x2="3016.61" y2="453.32" xlink:href="#linear-gradient-3"/><linearGradient id="linear-gradient-6" x1="2325.71" y1="1066.45" x2="2187.71" y2="1631.59" gradientUnits="userSpaceOnUse"><stop offset="0.49" stop-color="#ebeff2"/><stop offset="1" stop-color="#fff"/></linearGradient><clipPath id="clip-path" transform="translate(86.16)"><path class="cls-1" d="M1142.35,1565.85c80.21-362.34,406.42-1411.18-261-1363.25-429.76,30.86-147.32,409.28-433.7,527s-327.53,464,53.09,909.77,872.49,612.89,872.49,612.89S1062.14,1928.18,1142.35,1565.85Z"/></clipPath><clipPath id="clip-path-2" transform="translate(86.16)"><path class="cls-2" d="M971.53,1862.41C874.76,1713.76,880.75,1653.32,750,1444.6c-147.49-235.44-237-373-400.35-371.72-111.33.9-242.07,66.25-298.63,151.19-94.64,142.16,25.64,328.43,66.74,392.09,68.88,106.67,138.87,139.17,135.5,238.95-2.85,84.21-54.24,106.56-55.27,169.56-2.92,178.86,407,256.58,473.4,269.16,260,49.31,511,15.82,702.64-31.92C1163.81,2119.4,1043.35,1972.73,971.53,1862.41Z"/></clipPath><linearGradient id="linear-gradient-7" x1="2347.4" y1="-43.51" x2="1255.02" y2="2095.73" gradientUnits="userSpaceOnUse"><stop offset="0" stop-color="#40447e"/><stop offset="1" stop-color="#3c3b6b"/></linearGradient><linearGradient id="linear-gradient-8" x1="1362.41" y1="3553.65" x2="1487.09" y2="-1219.66" xlink:href="#linear-gradient-7"/><linearGradient id="linear-gradient-9" x1="1807.84" y1="1688.64" x2="1830.9" y2="805.72" xlink:href="#linear-gradient-2"/><linearGradient id="linear-gradient-10" x1="996.1" y1="1677.39" x2="1019.16" y2="794.47" xlink:href="#linear-gradient-2"/><linearGradient id="linear-gradient-11" x1="1470.57" y1="3174.32" x2="1353.98" y2="1452.97" xlink:href="#linear-gradient-2"/><linearGradient id="linear-gradient-12" x1="1478.05" y1="3173.81" x2="1361.46" y2="1452.47" xlink:href="#linear-gradient-2"/><linearGradient id="linear-gradient-13" x1="1344.03" y1="1571.28" x2="1131.44" y2="2835.42" xlink:href="#linear-gradient-2"/><linearGradient id="linear-gradient-14" x1="1092.92" y1="1339.7" x2="1259.72" y2="1339.7" gradientUnits="userSpaceOnUse"><stop offset="0" stop-color="#311944"/><stop offset="1" stop-color="#6b3976"/></linearGradient><linearGradient id="linear-gradient-15" x1="-5882.56" y1="1339.7" x2="-5715.76" y2="1339.7" gradientTransform="matrix(-1, 0, 0, 1, -4174.5, 0)" xlink:href="#linear-gradient-14"/><linearGradient id="linear-gradient-16" x1="1050.48" y1="1248.52" x2="1300.62" y2="1248.52" xlink:href="#linear-gradient-14"/><linearGradient id="linear-gradient-17" x1="-5935.51" y1="1248.52" x2="-5685.38" y2="1248.52" gradientTransform="matrix(-1, 0, 0, 1, -4174.07, 0)" xlink:href="#linear-gradient-14"/><linearGradient id="linear-gradient-18" x1="1327.84" y1="1788.74" x2="1404.25" y2="1681.76" gradientUnits="userSpaceOnUse"><stop offset="0" stop-color="#ff9085"/><stop offset="1" stop-color="#fb6fbb"/></linearGradient><linearGradient id="linear-gradient-19" x1="966.77" y1="1252.18" x2="968.15" y2="1199.04" xlink:href="#linear-gradient-7"/><linearGradient id="linear-gradient-20" x1="1395.07" y1="1223.04" x2="1408.47" y2="710.04" gradientUnits="userSpaceOnUse"><stop offset="0" stop-color="#aa80f9"/><stop offset="1" stop-color="#6165d7"/></linearGradient><linearGradient id="linear-gradient-21" x1="1385.98" y1="1589.68" x2="1427.6" y2="-4.1" xlink:href="#linear-gradient-20"/><linearGradient id="linear-gradient-22" x1="343.64" y1="1299.79" x2="254.51" y2="2577.27" gradientTransform="matrix(1, 0, 0, 1, 0, 0)" xlink:href="#linear-gradient-3"/><linearGradient id="linear-gradient-23" x1="392.04" y1="845.35" x2="306.48" y2="1692.08" gradientTransform="matrix(1, 0, 0, 1, 0, 0)" xlink:href="#linear-gradient-3"/><linearGradient id="linear-gradient-24" x1="35.4" y1="1935.87" x2="528.2" y2="1935.87" gradientTransform="matrix(1, 0, 0, 1, 0, 0)" xlink:href="#linear-gradient-3"/><linearGradient id="linear-gradient-25" x1="1772.75" y1="104.94" x2="1508.41" y2="707.55" gradientTransform="matrix(1, 0, 0, 1, 535.47, 1768.21)" gradientUnits="userSpaceOnUse"><stop offset="0.01" stop-color="#97a6b7"/><stop offset="0.28" stop-color="#ebeff2"/><stop offset="1" stop-color="#97a6b7"/></linearGradient><linearGradient id="linear-gradient-26" x1="2428.71" y1="104.93" x2="2164.37" y2="707.55" gradientTransform="translate(144.13 1168)" xlink:href="#linear-gradient-25"/><linearGradient id="linear-gradient-27" x1="2526.78" y1="1377.81" x2="2325.25" y2="1837.22" xlink:href="#linear-gradient-6"/><linearGradient id="linear-gradient-28" x1="1741.33" y1="176.58" x2="1519.9" y2="681.36" gradientTransform="matrix(1, 0, 0, 1, 535.47, 1768.21)" xlink:href="#linear-gradient-18"/><linearGradient id="linear-gradient-29" x1="1830.43" y1="215.66" x2="1609" y2="720.44" gradientTransform="translate(977.81 3539.04) rotate(-66.21)" xlink:href="#linear-gradient-18"/><linearGradient id="linear-gradient-30" x1="1881.72" y1="2425.46" x2="1652.06" y2="2447.27" xlink:href="#linear-gradient-14"/><linearGradient id="linear-gradient-31" x1="1893.99" y1="2554.7" x2="1664.34" y2="2576.51" xlink:href="#linear-gradient-14"/><linearGradient id="linear-gradient-32" x1="1674.14" y1="2305.43" x2="1870.76" y2="2305.43" xlink:href="#linear-gradient-14"/><linearGradient id="linear-gradient-33" x1="1696.37" y1="2202.36" x2="1848.52" y2="2202.36" gradientTransform="matrix(1, 0, 0, 1, 0, 0)" xlink:href="#linear-gradient-25"/><linearGradient id="linear-gradient-34" x1="1610.21" y1="2303.27" x2="1762.36" y2="2303.27" gradientTransform="matrix(1, 0, 0, 1, 0, 0)" xlink:href="#linear-gradient-25"/><linearGradient id="linear-gradient-35" x1="1628.52" y1="1964.49" x2="1744.04" y2="1964.49" xlink:href="#linear-gradient-18"/><linearGradient id="linear-gradient-36" x1="1660.24" y1="1966.89" x2="1744.04" y2="1966.89" xlink:href="#linear-gradient-18"/><linearGradient id="linear-gradient-37" x1="1658.13" y1="2603.03" x2="1982.72" y2="2502.96" xlink:href="#linear-gradient-14"/><linearGradient id="linear-gradient-38" x1="1636.41" y1="2816.11" x2="1479.88" y2="2596.72" gradientTransform="translate(4089.78 1110.41) rotate(89.79)" xlink:href="#linear-gradient-14"/><linearGradient id="linear-gradient-39" x1="1578.1" y1="2622.91" x2="1902.69" y2="2522.84" gradientTransform="translate(4370.48 702.24) rotate(89.79)" xlink:href="#linear-gradient-14"/><linearGradient id="linear-gradient-40" x1="813.13" y1="1206.74" x2="732.94" y2="1887.14" gradientUnits="userSpaceOnUse"><stop offset="0" stop-color="#fff"/><stop offset="1" stop-color="#d8dee8"/></linearGradient><linearGradient id="linear-gradient-41" x1="317.92" y1="2369.7" x2="1140.63" y2="2369.7" xlink:href="#linear-gradient-18"/><linearGradient id="linear-gradient-42" x1="572.77" y1="2023.37" x2="884.81" y2="2023.37" xlink:href="#linear-gradient-40"/><linearGradient id="linear-gradient-43" x1="572.77" y1="2023.37" x2="639.95" y2="2023.37" xlink:href="#linear-gradient-40"/><linearGradient id="linear-gradient-44" x1="369.07" y1="2431.32" x2="1089.48" y2="2431.32" xlink:href="#linear-gradient-18"/><linearGradient id="linear-gradient-45" x1="402.21" y1="2251.85" x2="1056.54" y2="2251.85" xlink:href="#linear-gradient-18"/></defs><title>make-up</title><g class="cls-3"><g id="Layer_2" data-name="Layer 2"><g id="Illustration"><path class="cls-4" d="M1901.19,59.1c-209.42-46.72-427.14-69.11-640-54.84C1072.49,16.91,858.62,51.44,706.79,175.13,634.43,234.07,548.14,340,524.47,433.41c0,0-124.58,491.82-373.74,597.2S-271.46,2934.62,1618,2759c0,0,1109.78-46,1176.6-1371.77,16.14-320.26,7.12-672.34-186.26-940.13C2460.17,241.86,2252.55,150.62,2014,86.78Q1958.07,71.81,1901.19,59.1Z" transform="translate(86.16)"/><rect class="cls-5" x="1885.93" y="1225.64" width="115.51" height="460.74" transform="translate(635.7 -532.52) rotate(18.13)"/><path class="cls-6" d="M2173.33,870.69l-52.14-36.38L1960.83,1218c27.48,39.79,64.08,51.77,114.86,56.92Z" transform="translate(86.16)"/><path class="cls-7" d="M2060.18,830.27c-54.44-57.43-47.11-141-45.23-162.4,16.74-190.79,220.49-231.09,276.71-465,14.8-61.59,10.52-99.75,24.68-101.89,33.74-5.1,126.33,201.31,106.59,416.91-4.07,44.48-34,319.89-187.68,361.07C2178.18,894.21,2104.51,877.06,2060.18,830.27Z" transform="translate(86.16)"/><path class="cls-8" d="M2088.88,831c-5.34-9.92-34.23-63.59-30.26-128.56,10.46-170.77,240-262.5,268.74-487.92,6.73-52.74,1.6-103,6.62-103.3,7.9-.46,51.39,122.56,26.71,251.47-38.8,202.66-230.72,339.77-187.46,436.63,5.11,11.43,22.68,42.9,9.89,62.53-9.15,14-32.11,17.68-49.09,13.42C2119.56,871.62,2105.08,861.08,2088.88,831Z" transform="translate(86.16)"/><path class="cls-9" d="M2199.4,1089.48c-6.13-31.73,8.57-67.41,38.23-137.49,50.42-119.1,75.63-178.66,127.23-204.73,44.12-22.28,92.19-14.54,188.34.94,110.68,17.83,166,26.74,181.94,62.33,14.14,31.61-9.5,62.77-184.36,284.4-66.61,84.42-100.7,126.79-139.3,134.5C2325.38,1246.61,2216,1175.19,2199.4,1089.48Z" transform="translate(86.16)"/><path class="cls-10" d="M2447.07,734c-60,97.14-144,239.6-227.9,404,15.29,24.25,37.45,45.63,62.95,61.86,96-190.32,193.41-353.33,256.42-453.93C2501.49,739.91,2472,735.45,2447.07,734Z" transform="translate(86.16)"/><path class="cls-11" d="M2735.14,810.53c-5-11.14-13.82-19.66-27-26.66-66.36,93.36-200.13,265.82-390.39,434.3,30.79,12.43,63.68,17.26,93.73,11.26,38.6-7.71,72.69-50.08,139.3-134.5C2725.64,873.3,2749.28,842.14,2735.14,810.53Z" transform="translate(86.16)"/><polygon class="cls-5" points="2039.82 1759.18 1980.3 1719.91 2351.77 1174.87 2397.58 1205.1 2039.82 1759.18"/><path class="cls-12" d="M2181.8,1083.9,2168,1116.66a22,22,0,0,0,8,26.89l194.29,130.06a22,22,0,0,0,27.51-2.4l26.22-25.09a22.06,22.06,0,0,0-3-34.28l-206.68-137.72A22,22,0,0,0,2181.8,1083.9Z" transform="translate(86.16)"/><path class="cls-13" d="M1142.35,1565.85c80.21-362.34,404.85-1429.5-261-1363.25-448,44.57-147.32,409.28-433.7,527s-327.53,464,53.09,909.77,872.49,612.89,872.49,612.89S1062.14,1928.18,1142.35,1565.85Z" transform="translate(86.16)"/><g class="cls-14"><g class="cls-15"><path class="cls-16" d="M1441,2293.55a5.11,5.11,0,0,1-2.3-.54c-728.9-364.45-630.08-1126.31-571-1581.5,6.94-53.52,13.5-104.08,17.89-148.23,21-211-22.5-319.86-62.71-374-43.23-58.21-92-67.24-92.47-67.33a5.14,5.14,0,0,1,1.72-10.14c2.13.36,52.7,9.5,98.41,70.54,41.61,55.55,86.71,166.92,65.29,382-4.41,44.3-11,94.93-17.93,148.53-58.69,452.48-156.93,1209.8,565.43,1571a5.14,5.14,0,0,1-2.3,9.74Z" transform="translate(86.16)"/><path class="cls-16" d="M843.58,972.13a5.12,5.12,0,0,1-4.34-2.37c-.57-.89-58.46-90.63-149.94-172.88-84-75.49-214.3-160-358.3-133.8A5.14,5.14,0,0,1,329.16,653c117.29-21.33,244.26,25.85,367.19,136.43,92.46,83.18,151,173.92,151.56,174.83a5.14,5.14,0,0,1-4.33,7.91Z" transform="translate(86.16)"/><path class="cls-16" d="M853.22,1487.1a5.15,5.15,0,0,1-3.92-1.81c-.8-.94-80.85-94.45-203.49-177.25C533,1231.89,360,1149.46,176.42,1189.23a5.15,5.15,0,1,1-2.18-10.06c187.23-40.54,363,43.15,477.54,120.49,123.75,83.59,204.56,178,205.36,179a5.14,5.14,0,0,1-3.92,8.47Z" transform="translate(86.16)"/><path class="cls-16" d="M871.85,715a5.14,5.14,0,0,1-4.32-7.91c.58-.91,59.1-91.65,151.56-174.83C1142,421.64,1269,374.46,1386.27,395.78a5.14,5.14,0,1,1-1.84,10.12c-144-26.19-274.32,58.32-358.29,133.81-91.48,82.25-149.38,172-150,172.88A5.14,5.14,0,0,1,871.85,715Z" transform="translate(86.16)"/><path class="cls-16" d="M835.15,1314.18a5.22,5.22,0,0,1-2.54-.67,5.16,5.16,0,0,1-1.93-7c.62-1.08,62.81-109.49,161.7-196.64,58.3-51.38,117.82-85.49,176.88-101.39,74.16-20,147.68-11.13,218.49,26.25a5.14,5.14,0,0,1-4.8,9.1c-124.52-65.74-253.64-40.92-383.77,73.76-97.62,86-158.94,192.94-159.55,194A5.16,5.16,0,0,1,835.15,1314.18Z" transform="translate(86.16)"/><path class="cls-16" d="M927.73,1766.8a5,5,0,0,1-2.53-.67,5.13,5.13,0,0,1-1.93-7c.61-1.09,62.8-109.49,161.69-196.64,58.31-51.38,117.82-85.5,176.89-101.4,74.16-20,147.67-11.13,218.48,26.26a5.14,5.14,0,1,1-4.8,9.09c-124.52-65.74-253.63-40.92-383.77,73.77-97.62,86-158.94,192.93-159.55,194A5.14,5.14,0,0,1,927.73,1766.8Z" transform="translate(86.16)"/></g></g><path class="cls-2" d="M971.53,1862.41C874.76,1713.76,880.75,1653.32,750,1444.6c-147.49-235.44-237-373-400.35-371.72-111.33.9-242.07,66.25-298.63,151.19-94.64,142.16,25.64,328.43,66.74,392.09,68.88,106.67,138.87,139.17,135.5,238.95-2.85,84.21-54.24,106.56-55.27,169.56-2.92,178.86,407,256.58,473.4,269.16,260,49.31,511,15.82,702.64-31.92C1163.81,2119.4,1043.35,1972.73,971.53,1862.41Z" transform="translate(86.16)"/><g class="cls-17"><g class="cls-15"><path class="cls-16" d="M1414.72,2273.72a4.49,4.49,0,0,1-.73-.06C1188.3,2236.48,980.37,2154,796,2028.45,648.47,1928.05,515.63,1800.06,401.13,1648c-194.91-258.8-270-501-270.76-503.4A4.5,4.5,0,0,1,139,1142c.73,2.4,75.49,243.3,269.54,500.86,178.94,237.51,498.89,538.21,1006.92,621.9a4.51,4.51,0,0,1-.73,8.95Z" transform="translate(86.16)"/><path class="cls-16" d="M411.31,1658.5a4.51,4.51,0,0,1-4-6.66c1.21-2.23,120.79-226.81,95.18-536.1a4.51,4.51,0,0,1,9-.74c25.84,312.09-95,538.89-96.24,541.14A4.52,4.52,0,0,1,411.31,1658.5Z" transform="translate(86.16)"/><path class="cls-16" d="M396.13,1657.83c-25.34,0-79-2-146.41-16.2-87-18.26-215.65-61-334.28-160.9a4.5,4.5,0,0,1-.54-6.35,4.5,4.5,0,0,1,6.35-.54c117.09,98.6,244.09,140.84,330,158.91,93.2,19.6,159.54,15.79,160.2,15.75a4.5,4.5,0,1,1,.56,9C411.83,1657.51,406.22,1657.83,396.13,1657.83Z" transform="translate(86.16)"/><path class="cls-16" d="M492.85,2005.46c-107.54,0-274.77-31-507.59-158.81a4.51,4.51,0,0,1-1.79-6.12,4.51,4.51,0,0,1,6.12-1.78C250,1981.66,427.22,2002.67,530,1995.13c111-8.15,161.37-50.46,161.87-50.89a4.51,4.51,0,0,1,5.89,6.82c-2.08,1.81-52.47,44.41-166.09,53C519.73,2004.94,506.78,2005.46,492.85,2005.46Z" transform="translate(86.16)"/><path class="cls-16" d="M317.16,2439.92a4.51,4.51,0,0,1-.45-9C613,2401.1,771,2317.74,851.41,2253.05c86.49-69.57,103.63-132.37,103.8-133a4.51,4.51,0,0,1,8.72,2.27c-.7,2.68-18.09,66.33-106.87,137.75-81.35,65.45-241,149.77-539.44,179.83A3.62,3.62,0,0,1,317.16,2439.92Z" transform="translate(86.16)"/><path class="cls-16" d="M716.61,1969.46a4.51,4.51,0,0,1-3.24-7.63c.42-.44,42.33-44.68,71.82-129.31,27.21-78.11,49.1-207.62-1.18-381a4.51,4.51,0,1,1,8.66-2.51c51,175.94,28.62,307.55.85,387-30.17,86.32-71.9,130.27-73.66,132.1A4.55,4.55,0,0,1,716.61,1969.46Z" transform="translate(86.16)"/></g></g><path class="cls-18" d="M2190.61,2382.1c-228.4,181.72-704.85,33.75-791.37,4.7-86.52,29-563,177-791.41-4.7-251.79-200.33-118.9-407.33,56-548.86s104.91-245.76,66.44-646.41q-4.08-42.72-5.28-80.56c-10.52-330.54,139.75-401.82,343.18-553.8,107.33-80.16,231.9-85,331.11-69,99.18-16,223.78-11.15,331.07,69,219,163.6,376.37,233.71,337.9,634.36-30.56,318.45-81,449.66-12.69,561.14,17.69,28.78,43.26,56.22,79.14,85.27C2309.51,1974.77,2442.41,2181.77,2190.61,2382.1Z" transform="translate(86.16)"/><path class="cls-19" d="M2190.61,2382.1c-228.4,181.72-704.85,33.75-791.37,4.7-86.52,29-563,177-791.41-4.7-251.79-200.33-118.9-407.33,56-548.86s104.91-245.76,66.44-646.41q-4.08-42.72-5.28-80.56c14.13,2.7,36.58,65.24,41.55,75,31.79,62.47,64.52,124.6,93.72,188.17,34.38,74.79,61.69,152,87.78,229.67,23.08,68.74,54.31,142,54.66,215.18.56,119.29-140.83,216-112.15,332.51,17,69.17,92.88,104.6,159.22,119.45,163.32,36.6,354.09-13.78,508.25-66.2,95.71-32.55,174.4-83,241.09-155.72,55.12-60.13,110.41-62,185.8-37.23,38,12.46,105.86,46,142,14.19,45.89-40.46-10.59-127.8-31.71-167-14.94-27.75-30.36-66-39.59-106.34,17.69,28.78,43.26,56.22,79.14,85.27C2309.51,1974.77,2442.41,2181.77,2190.61,2382.1Z" transform="translate(86.16)"/><path class="cls-20" d="M1749.13,1317.89s154.78-130.9,168.27-50.79c28.14,167-104.25,259.24-176.1,209.3S1749.13,1317.89,1749.13,1317.89Z" transform="translate(86.16)"/><path class="cls-21" d="M1071.17,1328s-154.78-130.9-168.28-50.78c-28.13,167,104.26,259.23,176.11,209.29S1071.17,1328,1071.17,1328Z" transform="translate(86.16)"/><path class="cls-22" d="M2458.43,2484.3c-65,39.39-181.36,32.67-744.32,36.41-108.46.72-233.48,1.82-377.91,3.7q-108.17,1.44-201.83,2.88c-440.38,6.59-651.91,9.43-742.75-41.9C309,2438.72,359.35,2365.86,370,2350.5c41.43-59.94,139.19-97,174.81-110.21,168.54-62.37,398.21-81.4,617.32-87,99.1-2.54,196-2.33,284.19-2.12,97.52.2,180.16.37,253.71,2.05,139.42,3.16,246,11.59,358.74,35.6C2369.38,2255,2583,2408.82,2458.43,2484.3Z" transform="translate(86.16)"/><path class="cls-23" d="M1898.79,2333.52l-184.68,187.19c-108.46.72-233.48,1.82-377.91,3.7q-108.17,1.44-201.83,2.88L943.82,2363c-31.85-27.46-19-76.46,23.15-87.3,88.09-22.66,150.73-67.45,195.14-122.38,139.7-172.92,98.14-446.35,98.14-446.35l299.21,22.88c-30.21,213,46.46,343.85,140.55,423.4,59.32,50.17,125.57,79.93,176.32,97.08C1913.84,2263,1925.6,2306.33,1898.79,2333.52Z" transform="translate(86.16)"/><path class="cls-24" d="M1768,1032.64c-79.42-88.35-174.4-128.07-176.67-124.13,0,0-63.25-46.52-171.65-13.26-.33.14-97.13,21.25-108,24C1018.25,993.61,955,1128.81,957.93,1271.51c.15,7.06,122.93,637,438.36,637,286.56,0,402.72-426.62,444.34-652.63C1790.32,1248.52,1861,1136.07,1768,1032.64Z" transform="translate(86.16)"/><path class="cls-25" d="M1257.49,1352.38a58.43,58.43,0,0,1-6.82,3.39,117.26,117.26,0,0,1-18.82,6.34,146.36,146.36,0,0,1-27.73,4.1,144,144,0,0,1-32.44-1.92,115.78,115.78,0,0,1-31.51-10.2,86,86,0,0,1-23.64-17.17c-1.44-1.62-2.82-3.11-4.06-4.6l-3.23-4.48a73.21,73.21,0,0,1-4.4-7.71c-1-2.22-1.62-4.08-2.1-5.28s-.64-1.88-.64-1.88,2.43,1.55,6.16,4.26c2,1.22,4.3,2.8,7,4.35l4.28,2.47,4.82,2.44a159.28,159.28,0,0,0,23.32,9.1l6.66,1.92c2.3.53,4.59,1.14,6.92,1.72,4.71,1,9.47,2.13,14.35,2.89,19.4,3.54,39.67,5.3,55.27,7,7.79.82,14.42,1.6,19.12,2.22S1257.49,1352.38,1257.49,1352.38Z" transform="translate(86.16)"/><path class="cls-26" d="M1543.49,1352.38a57.38,57.38,0,0,0,6.82,3.39,116.92,116.92,0,0,0,18.82,6.34,146.24,146.24,0,0,0,27.72,4.1,144.05,144.05,0,0,0,32.45-1.92,116,116,0,0,0,31.51-10.2,86.14,86.14,0,0,0,23.64-17.17c1.43-1.62,2.82-3.11,4.06-4.6l3.23-4.48a72.92,72.92,0,0,0,4.39-7.71c1-2.22,1.63-4.08,2.1-5.28s.64-1.88.64-1.88-2.42,1.55-6.15,4.26c-2,1.22-4.3,2.8-7,4.35l-4.27,2.47-4.82,2.44a159.43,159.43,0,0,1-23.33,9.1l-6.66,1.92c-2.3.53-4.59,1.14-6.91,1.72-4.71,1-9.47,2.13-14.36,2.89-19.4,3.54-39.67,5.3-55.26,7-7.8.82-14.43,1.6-19.13,2.22S1543.49,1352.38,1543.49,1352.38Z" transform="translate(86.16)"/><path class="cls-27" d="M1155.15,1216.15c-41.7-12-69.31,16.58-90.89,49,1.12-1.69,10.24-2.52,12.11-3,27.84-7.15,40.61-21.93,69.64-14.71,26.22,6.52,138.1,36.24,143,36.24,6,0,8.26-26.85,8.26-26.85C1290.51,1247,1172.63,1221.18,1155.15,1216.15Z" transform="translate(86.16)"/><path class="cls-28" d="M1656.77,1216.15c41.7-12,69.31,16.58,90.9,49-1.13-1.69-10.24-2.52-12.12-3-27.84-7.15-40.61-21.93-69.64-14.71-26.22,6.52-138.09,36.24-143,36.24-6,0-8.26-26.85-8.26-26.85C1521.42,1247,1639.3,1221.18,1656.77,1216.15Z" transform="translate(86.16)"/><path class="cls-29" d="M1514,1688.76s-41.69-36-80.4-19.14a81.47,81.47,0,0,0-18,10.91,26.35,26.35,0,0,1-32.93,0,79,79,0,0,0-17.74-10.91c-38.71-16.91-80.4,19.14-80.4,19.14,3-.1,19.08,22.26,22.78,26,20.14,20.58,53.82,34.06,92,34.06s71.82-13.48,92-34C1494.91,1711,1511,1688.67,1514,1688.76Z" transform="translate(86.16)"/><path class="cls-30" d="M975.11,1195.85s9.08,63.66-17.47,60.69C958.53,1211.28,975.11,1195.85,975.11,1195.85Z" transform="translate(86.16)"/><path class="cls-31" d="M1869.37,1151.05c-10.46,62.57-28.91,105.51-28.91,105.51-45.29-217.2-383.12-278.4-441.68-287.45-58.6,9-395.84,70.25-441.14,287.45,0,0-22.18-51.75-31.65-124.41-20.37-156.29,18.14-409.48,462.88-453.07v-1.57c3.43.24,7.37.51,10.28.79,2.92-.28,6.86-.55,10.29-.79v1.57C1872.59,724.48,1895.05,997.15,1869.37,1151.05Z" transform="translate(86.16)"/><path class="cls-32" d="M1869.37,1151.05c-10.46,62.57-28.91,105.51-28.91,105.51-45.29-217.2-383.12-278.4-441.68-287.45-58.6,9-395.84,70.25-441.14,287.45,0,0-22.18-51.75-31.65-124.41,11.32-67.34,45.85-156.05,145.7-182,164.59-42.86,234.88-181.74,418.33-102.87s171.45,118.3,282.89,152.59C1828.46,1016.91,1859.29,1083.12,1869.37,1151.05Z" transform="translate(86.16)"/><path class="cls-33" d="M630,1456.75c-32.28,291-69,593.07-101.78,886.71-2.17,19.25-4.31,38.67-6.41,57.86-129.44,0-247.79,13.56-377.19,13.56C110.18,2103,69.79,1766.43,35.4,1456.75Z" transform="translate(86.16)"/><path class="cls-34" d="M615.58,1415.71H49.8c-7.79,0-12.91,6.61-12.91,14.4v26.64H626.4v-26.64C626.4,1422.32,623.37,1415.71,615.58,1415.71Z" transform="translate(86.16)"/><path class="cls-35" d="M528.2,2343.88q-3.26,28.86-6.41,57.64C392.35,2401.52,274,2415,144.6,2415c-34.42-311.85-74.81-648.55-109.2-958.23h65.93c-6.09,56-4,143.75,67,201.4,6.42,5.19,12.38,10.57,17.88,15.71,84.52,78.7,64.45,149.82,21.71,262.53a181.17,181.17,0,0,0-6.83,22.53c-29.64,124.95,45.74,337.06,223.64,366.85C466.51,2332.77,500.61,2338.53,528.2,2343.88Z" transform="translate(86.16)"/><path class="cls-36" d="M529.39,2370.87v223.86h-3.77c-2.38,18.66-87.82,31.19-192.93,31.19s-190.55-12.53-192.93-31.19h1.6V2370.87h-1.6c2.38,14.92,87.82,31.18,192.93,31.18s190.55-16.26,192.93-31.18Z" transform="translate(86.16)"/><path class="cls-2" d="M529.39,2370.87v190.28h-3.77c-2.38,14.93-87.82,31.19-192.93,31.19s-190.55-16.26-192.93-31.19h1.6V2370.87h-1.6c2.38,14.92,87.82,31.18,192.93,31.18s190.55-16.26,192.93-31.18Z" transform="translate(86.16)"/><rect class="cls-2" x="350.65" y="2579.81" width="108.2" height="22.39" rx="11.14"/><ellipse class="cls-5" cx="2114.62" cy="2314.41" rx="336.38" ry="404.28" transform="translate(-769.99 3315.71) rotate(-66.21)"/><ellipse class="cls-37" cx="2114.62" cy="2314.41" rx="319.56" ry="384.06" transform="translate(-769.99 3315.71) rotate(-66.21)"/><ellipse class="cls-5" cx="2379.22" cy="1714.2" rx="336.38" ry="404.27" transform="translate(-62.92 3199.75) rotate(-66.21)"/><ellipse class="cls-38" cx="2379.22" cy="1714.2" rx="319.56" ry="384.06" transform="translate(-62.92 3199.75) rotate(-66.21)"/><path class="cls-39" d="M2693.21,1852.62a240.48,240.48,0,0,1-33.24,54.43c-28.46,35.2-66.41,62-110.06,79.49a327.18,327.18,0,0,1-79.78,20.45c-65.51,8.46-137.28-1.2-206.09-31.53-173.42-76.46-262.41-255.38-198.81-399.67,29.1-66,85.08-113.31,153.88-137.93a336.79,336.79,0,0,1,85.93-18.22c49.13-3.94,101.26,2.07,152.65,19.16,12.28,4.07,24.55,8.79,36.7,14.15C2667.82,1529.41,2756.84,1708.33,2693.21,1852.62Z" transform="translate(86.16)"/><ellipse class="cls-40" cx="2114.62" cy="2314.41" rx="267.68" ry="321.7" transform="translate(-769.99 3315.71) rotate(-66.21)"/><path class="cls-41" d="M2222.6,2069.47c-144.32-63.62-302.46-30.13-377.88,72.82,50.37-.2,98.27,10.32,139.35,37.22,86.11,56.38,81.91,145.19,153.11,226.88,41.1,47.15,107,91.55,218.56,112.49a227.3,227.3,0,0,0,53.25-74.7C2468.62,2308.91,2385.17,2141.15,2222.6,2069.47Z" transform="translate(86.16)"/><path class="cls-16" d="M2470.13,2007c-65.51,8.46-137.28-1.2-206.09-31.53-173.42-76.46-262.41-255.38-198.81-399.67,29.1-66,85.08-113.31,153.88-137.93Z" transform="translate(86.16)"/><path class="cls-16" d="M2660,1907.05c-28.46,35.2-66.41,62-110.06,79.49L2305,1419.64c49.13-3.94,101.26,2.07,152.65,19.16Z" transform="translate(86.16)"/><rect class="cls-42" x="1674.14" y="2305.43" width="196.62" height="260.82"/><ellipse class="cls-43" cx="1772.45" cy="2566.25" rx="98.31" ry="22.93"/><ellipse class="cls-44" cx="1772.45" cy="2305.43" rx="98.31" ry="22.93"/><rect class="cls-45" x="1696.37" y="2101.45" width="152.15" height="201.83"/><path class="cls-46" d="M1762.36,2303.27c0,9.8-34.06,17.74-76.08,17.74s-76.07-7.94-76.07-17.74,34.06-17.74,76.07-17.74S1762.36,2293.47,1762.36,2303.27Z" transform="translate(86.16)"/><ellipse class="cls-5" cx="1772.45" cy="2101.45" rx="76.07" ry="17.74"/><path class="cls-47" d="M1674,1826.11l-20.83,38.4a203.7,203.7,0,0,0-24.67,97.17v139.77c0,7.44,25.86,13.47,57.76,13.47s57.76-6,57.76-13.47V1967.17a337.81,337.81,0,0,0-18.84-111.23L1716,1829.5C1709.39,1810.64,1683.55,1808.55,1674,1826.11Z" transform="translate(86.16)"/><path class="cls-48" d="M1725.2,1855.94,1716,1829.5a22.76,22.76,0,0,0-7.58-10.63,127.35,127.35,0,0,1,9.09,49.35c-1.22,53.11-37.72,75.76-52,132.83-6.67,26.64-9.28,64,6.44,113.45,4.6.27,9.41.42,14.36.42,31.9,0,57.76-6,57.76-13.47V1967.17A337.81,337.81,0,0,0,1725.2,1855.94Z" transform="translate(86.16)"/><polygon class="cls-49" points="1569.62 2721.5 1570.45 2493.41 1919.41 2431.3 1918.58 2659.39 1569.62 2721.5"/><ellipse class="cls-50" cx="1487.64" cy="2607.6" rx="114.04" ry="75.26" transform="translate(-1039.22 4085.68) rotate(-89.79)"/><ellipse class="cls-51" cx="1832.83" cy="2544.38" rx="114.04" ry="75.26" transform="translate(-632.07 4367.88) rotate(-89.79)"/><path class="cls-52" d="M794,1851.93H663.05c-10.79,0-18.27,7.91-18.27,18.69v104.75h168V1870.62C812.8,1859.84,804.74,1851.93,794,1851.93Z" transform="translate(86.16)"/><circle class="cls-6" cx="729.32" cy="1913.8" r="33.83" transform="translate(-590.7 424.78) rotate(-22.5)"/><circle class="cls-53" cx="729.32" cy="1913.8" r="10.93" transform="translate(-1214.68 2183.91) rotate(-76.72)"/><path class="cls-54" d="M1140.08,2436.88c-4.64,84.57-52.83,153.51-109,205.8-.94.87-1.9,1.73-2.87,2.56a81.85,81.85,0,0,1-52.85,19.35H483.26a81.68,81.68,0,0,1-55.7-21.9c-56.22-52.29-104.47-121.24-109.09-205.81-6.8-124.34,50.44-245,98.69-323a82.3,82.3,0,0,1,69.63-39.11h484.9a82.27,82.27,0,0,1,69.62,39.09C1089.59,2191.85,1146.88,2312.53,1140.08,2436.88Z" transform="translate(86.16)"/><path class="cls-55" d="M863.26,1971.94H593.74c-10.78,0-21,8.36-21,19.14v83.73h312v-83.73C884.81,1980.3,874,1971.94,863.26,1971.94Z" transform="translate(86.16)"/><path class="cls-56" d="M640,1971.94H593.74c-10.78,0-21,8.36-21,19.14v83.73h44.58v-83.73C617.35,1980.3,629.16,1971.94,640,1971.94Z" transform="translate(86.16)"/><path class="cls-57" d="M1089,2428.73c-4,74.05-46.26,135.58-95.45,181.37-13.25,12.35-30.69,20.2-48.8,20.2H513.86c-18.11,0-35.51-7.92-48.78-20.26-49.22-45.79-91.48-106.75-95.52-180.81-3.4-62.11,11.45-123.36,32.67-177,.18-.43.34-1,.51-1.38,9.59-10.3,152.15-18.53,326.63-18.53,172.6,0,314,8,326.29,18.1.25.65.51,1.27.78,1.93C1077.59,2305.91,1092.38,2366.77,1089,2428.73Z" transform="translate(86.16)"/><path class="cls-58" d="M1056.54,2251.84a1.64,1.64,0,0,1-.1.51c-4.49,10.56-149.2,19.07-327.07,19.07-179.84,0-325.79-8.69-327.14-19.43a.39.39,0,0,1,0-.15,1.57,1.57,0,0,1,.53-1.11c9.59-10.29,152.15-18.46,326.63-18.46,172.6,0,314,8,326.29,18.13A2,2,0,0,1,1056.54,2251.84Z" transform="translate(86.16)"/><rect class="cls-4" x="600.64" y="2232.54" width="428.62" height="294.89" rx="22.28"/><path class="cls-59" d="M1028.19,2645.24a81.85,81.85,0,0,1-52.85,19.35H483.26a81.68,81.68,0,0,1-55.7-21.9c-56.22-52.29-104.47-121.24-109.09-205.81-6.8-124.34,50.44-245,98.69-323a82.3,82.3,0,0,1,69.63-39.11h54.7c-23.26,13.71-65.31,43.4-71.23,110.91-1.34,15.21-3.66,33.86-5.87,54.47-.8,7.33-1.57,15-2.3,22.85-9.63,106.08-7.57,252.06,130.28,307.45,127.81,51.37,301.11-4.46,396.25,42.76A112.05,112.05,0,0,1,1028.19,2645.24Z" transform="translate(86.16)"/></g></g></g></svg>