<svg xmlns="http://www.w3.org/2000/svg" xmlns:xlink="http://www.w3.org/1999/xlink" viewBox="0 0 453.67 338.45"><defs><style>.cls-1{fill:none;}.cls-2{clip-path:url(#clip-path);}.cls-3{fill:#f5ebdf;}.cls-4{fill:#fff;}.cls-5{fill:#be8277;}.cls-6{fill:#553e47;}.cls-7{fill:#4b456b;}.cls-8{fill:#d19e86;}.cls-9{fill:#e0bc5a;}.cls-10{fill:#c9d8ef;}.cls-11{fill:#8190c5;}.cls-12{fill:#6273b1;}.cls-13{fill:#6c7cb7;}.cls-14{fill:#4d599f;}.cls-15{fill:#403037;}.cls-16{fill:#59373e;}.cls-17{fill:#4f3037;}.cls-18{fill:#9db0d9;}.cls-19{fill:#c98a59;}.cls-20{fill:#3a3555;}.cls-21{fill:#cd9657;}.cls-22{fill:#6f7a67;}.cls-23{fill:#adc29d;}.cls-24{fill:#f2e5d4;}.cls-25{fill:#e8cfaf;}.cls-26{fill:#ba8d71;}</style><clipPath id="clip-path" transform="translate(0 0)"><rect class="cls-1" width="453.67" height="338.45"/></clipPath></defs><title>music</title><g id="Layer_2" data-name="Layer 2"><g id="Box"><g class="cls-2"><path class="cls-3" d="M439,287.9a74,74,0,0,1-12.11,20.94,60.92,60.92,0,0,1-17.07,13.9c-12.9,7.15-27.74,10-42.29,11.19-6.08.51-12.18.8-18.29.91,51.53-6.57,81.52-23.77,94.91-64.15A115.71,115.71,0,0,1,439,287.9ZM367,49.14c14.31,3.69,28.18,9.12,40.59,17.23a93,93,0,0,1,29.28,29.89c8,13.5,12.24,29,14.24,44.5,1.4,10.82,1.07,21.64.41,32.47C444.6,84.8,400.21,60.05,340.33,43.91A261.87,261.87,0,0,1,367,49.14ZM49.54,318.7a98.86,98.86,0,0,1-17.76-8.88A75.22,75.22,0,0,1,19,299.61,63.31,63.31,0,0,1,10.51,289a59.77,59.77,0,0,1-5.16-10.1A57.61,57.61,0,0,1,2.66,270c-.26-1.22-.49-2.45-.67-3.68,0-.13,0-.26-.05-.39v0l0-.22-.09-.77c-.06-.51-.11-1-.15-1.54-.91-11.22,3.14-22,7.3-32.19L9,231C2.14,284,20.18,309.82,62.69,323a131.67,131.67,0,0,1-13.15-4.25ZM1.93,265.9c0-.07,0-.1,0,0ZM40.45,111.58c2.63-9.86,5.34-19.71,8.66-29.37a160.24,160.24,0,0,1,12.34-28A101.35,101.35,0,0,1,79.77,31a115.48,115.48,0,0,1,24-17.21c9.24-5,19.18-9.3,29.58-11.2,7.1-1.29,14.48-1.16,21.69-.79C96.59,6.15,62.15,56.05,32.68,142.07q3.75-15.27,7.77-30.49Zm411.74,74.28c.91-13.33,2.19-26.67,1-40-1.41-15.67-5.16-31.52-12.38-45.58a92.17,92.17,0,0,0-28-32.16c-11.87-8.63-25.4-14.68-39.43-18.82-15-4.42-30.49-6.74-46-8.7-32-7.86-67.79-14.46-104.22-27.42-18.71-6.66-35.6-10.43-51-11.45-2.57-.37-5.14-.63-7.67-.87A181.84,181.84,0,0,0,142,.07C131,.4,120.3,4,110.36,8.69a125,125,0,0,0-25.1,15.46A101.69,101.69,0,0,0,64.82,46a133.69,133.69,0,0,0-13.9,26.81,291.83,291.83,0,0,0-9.58,29.56c-3,10.87-5.82,21.79-8.54,32.73-2.11,8.45-4.15,16.92-6.19,25.39q-3.52,11.1-7,22.9A338.21,338.21,0,0,0,10,224.57c-3.91,10-8.55,19.91-9.71,30.74A46.56,46.56,0,0,0,.8,268.59,57.5,57.5,0,0,0,3,277.14a61.31,61.31,0,0,0,4.63,10.17,63.15,63.15,0,0,0,7.84,10.83,73.17,73.17,0,0,0,11.87,10.57,92,92,0,0,0,16.7,9.4,131.19,131.19,0,0,0,22.45,7.41,193.08,193.08,0,0,0,27.36,4.35c33.46,5.23,76.59,6.65,129.27,7.86,44.43,1,81.42,1.25,111.81-1.37,9.46.18,18.92,0,28.33-.57,14.69-.92,29.64-3.23,43.06-9.55a64.82,64.82,0,0,0,18.06-12.46A69.07,69.07,0,0,0,438.1,293.9c6-12.79,8.75-26.64,10.51-40.57,3.56-18.39,4.66-40.63,3.58-67.47Z" transform="translate(0 0)"/></g><path class="cls-4" d="M451.1,236.29a25,25,0,0,0-8.74-12.44c-6.59-4.78-15.27-5.35-23.12-4.64C399,221.05,380,230.91,362,239.54c-8.31,4-16.64,8.16-25.4,11.08-12.47,4.16-24.76,9.17-37.58,12.2s-25.48,3.17-38-1a104.43,104.43,0,0,1-31.41-17.22c-19.46-15.33-33.33-36.18-44.41-58.08-5.58-11-10.28-22.42-15.6-33.55-4.75-9.94-10.54-19.72-19.33-26.61-8.48-6.65-19-9.85-29.61-10.83a91.37,91.37,0,0,0-32.55,2.81c-18.92,5.32-35,18-48.27,32.14A210.78,210.78,0,0,0,23.65,170l-1.41,4.63q4.16-5.88,8.65-11.49c12.45-15.51,27.31-30.06,45.45-38.7a81,81,0,0,1,28.9-7.38c11.55-.91,23.66,0,34.36,4.73,21.8,9.69,29.27,34,38.59,53.93,10.19,21.84,22.2,43.28,39.45,60.38a119.23,119.23,0,0,0,26.71,20.14c9.8,5.35,20.73,9.56,31.94,10.36,12.46.89,24.76-2.25,36.49-6.12,6.1-2,12.12-4.23,18.19-6.32,4.59-1.58,9.18-3,13.65-4.92,18.41-7.69,35.76-17.79,54.78-24,14.37-4.71,37.18-9.93,47.24,5.35a30.08,30.08,0,0,1,4,9.48c.14-1.23.28-2.48.42-3.74Z" transform="translate(0 0)"/><path class="cls-4" d="M264.07,25.56l-4.27-1.12a383.94,383.94,0,0,0-49.89,8.15,210.08,210.08,0,0,0-24.47,7.25,100.66,100.66,0,0,0-19.74,9.47c-7.76,5-13.55,12.22-20.08,18.64-8.46,8.31-19,16-31.39,16a32.21,32.21,0,0,1-15.9-4.33c-4.3-2.45-8.51-5.93-10.82-10.39a39.29,39.29,0,0,1-3.59-13.08,80.31,80.31,0,0,1-.5-14.12c0-.46,0-.91.08-1.37-.57.69-1.15,1.39-1.72,2.1a69,69,0,0,0,1.85,20.26A25.62,25.62,0,0,0,89.2,74.33a34.61,34.61,0,0,0,13.34,9,32.48,32.48,0,0,0,16.3,1.84,41,41,0,0,0,16.27-6.53A85.6,85.6,0,0,0,149.2,66.55c3.84-3.92,7.47-8.14,11.63-11.72,5.16-4.45,11.31-7.72,17.5-10.46a165.45,165.45,0,0,1,23.61-8.15,354.47,354.47,0,0,1,55.15-9.95q3.48-.37,7-.71Z" transform="translate(0 0)"/><path class="cls-5" d="M201.11,131s-9.67-2.56-8.7-9.12c.15-1-5-9.09-5-9.09s3-7.15,5.46-8.38c1.59-.81,11.06,7.07,11.06,7.07s2.2,16.36,2.16,16.4-4.94,3.12-4.94,3.12Z" transform="translate(0 0)"/><polygon class="cls-5" points="197.43 103.89 194.85 100.86 193.54 103.68 195.2 106.42 197.43 103.89 197.43 103.89"/><path class="cls-6" d="M232.58,159.85c-.46-6.32.65-11.55,2.49-11.68s3.7,4.88,4.16,11.2-.76,11.6-2.6,11.74-3.59-4.94-4-11.26Z" transform="translate(0 0)"/><path class="cls-7" d="M187,123.46l6.35,4.1a4.32,4.32,0,0,0,6-1.29l11.47-17.78a4.16,4.16,0,0,0-1.24-5.76L203,98.47a4.17,4.17,0,0,0-5.77,1.24l-11.47,17.78a4.33,4.33,0,0,0,1.29,6Z" transform="translate(0 0)"/><path class="cls-4" d="M184.78,119.65l13.05,8.42,12.85-19.93a3.69,3.69,0,0,0-1.1-5.1l-6.85-4.41a3.68,3.68,0,0,0-5.1,1.1l-12.85,19.92Z" transform="translate(0 0)"/><path class="cls-8" d="M198.57,128.28s-.1-4.84,1.86-7.67a16.39,16.39,0,0,1,4.94-4.47s1.61-5.07,2.72-6.39,2.34-1.52,2.66-1.06-1,1.56-1,2.55a8.4,8.4,0,0,1-.37,3c-.43,1.38,0,3.85-1.07,7s-2,4.78-3.33,5.74-5.56,4-6.43,1.27Z" transform="translate(0 0)"/><path class="cls-9" d="M193.25,108.48a6.68,6.68,0,1,0,9.24-2,6.68,6.68,0,0,0-9.24,2Z" transform="translate(0 0)"/><path class="cls-7" d="M197,114.57l.48.31a1.59,1.59,0,0,0,2.19-.47l2.06-3.2a1.57,1.57,0,0,0-.47-2.19l-.48-.32a1.58,1.58,0,0,0-2.19.48l-2.07,3.2a1.59,1.59,0,0,0,.48,2.19Z" transform="translate(0 0)"/><path class="cls-7" d="M198.27,116.32a2.55,2.55,0,0,0,.72-.1,4.92,4.92,0,0,0,2.66-2.36.3.3,0,0,0-.13-.41.31.31,0,0,0-.42.13,4.34,4.34,0,0,1-2.27,2,2.81,2.81,0,0,1-3.22-2.06,4.33,4.33,0,0,1,1-2.87.32.32,0,0,0,0-.44.3.3,0,0,0-.43,0,4.87,4.87,0,0,0-1.13,3.36,3,3,0,0,0,1.47,2.09,3.36,3.36,0,0,0,1.8.58Z" transform="translate(0 0)"/><path class="cls-7" d="M195.24,117.71l.27.16,1.33-2.05a.31.31,0,0,0-.1-.43.31.31,0,0,0-.42.09l-1.33,2,.25.18Z" transform="translate(0 0)"/><path class="cls-8" d="M237.63,147.38l-21.31,6.25s-9.63-28.78-10.1-33.1c-.24-2.13-5.25,8-7.65,7.75,0,0,4.42,42,8.42,42.39s31.64-3.44,35-5.91-4.35-17.38-4.35-17.38Z" transform="translate(0 0)"/><path class="cls-5" d="M234.08,167.11c2.43-6.81,2.58-13.17.73-18.9l1.55-.46a3.56,3.56,0,0,1,1.59,1.9l3.92,15.18c-1.23.81-3.22,1.4-7.79,2.28Z" transform="translate(0 0)"/><path class="cls-4" d="M261.69,140.09l-26.89,8.12c3.07,2.75,5,20,1.94,22.9L257,163.47l4.73-23.38Z" transform="translate(0 0)"/><path class="cls-8" d="M119,203.32,95.41,217.49c-2.44,5.69-2,10,3.78,11.49L124,219.17l-5-15.85Z" transform="translate(0 0)"/><polygon class="cls-5" points="112.91 206.96 114.73 222.83 123.22 219.48 112.91 206.96 112.91 206.96"/><path class="cls-8" d="M130.72,251.51l-9.32,15c-.53,8.77.46,9.88,8.67,7.16L147.66,256l-16.94-4.53Z" transform="translate(0 0)"/><path class="cls-4" d="M126.6,258.14l10.28,8.7-5.37,8s5,8.69-3.42,11.85c-2,.75-8-.57-12.74,0-5.43.65-9.83,3.1-14.94,2.4-9.57-1.32-14.59-3.09-15.2-7.24s8.14-1.81,14.78-4.21c9-3.24,18-10.18,19.66-11.46,2.94-2.23,6.95-8.05,6.95-8.05Z" transform="translate(0 0)"/><path class="cls-10" d="M238.1,159.91l10.14-4.12,1.79,9.54-3.81,2.2-9.48,3.58c1.51-1.42,1.81-6.29,1.36-11.2Z" transform="translate(0 0)"/><polygon class="cls-5" points="129.43 253.6 139.47 264.16 141.96 261.71 129.43 253.6 129.43 253.6"/><path class="cls-4" d="M105.7,211.31c1.16,4.07,2.15,8.51,3.51,13.71l-7.93,4.14s-4.77,9.68-11.71,7.48-4.35-7.15-6.29-15.36c-1.38-5.88-3.33-12.34-2.86-18.11.63-7.67,5.74-14.45,9.76-13.09s1.83,7.59,2.47,14A20.49,20.49,0,0,0,98,215.6l7.7-4.29Z" transform="translate(0 0)"/><path class="cls-8" d="M277.53,122.11,282,137.56s-18,20.77-24.66,18.33,10.31-17.78,10.31-17.78l-3.32-9.47s7-9.24,13.25-6.53Z" transform="translate(0 0)"/><path class="cls-5" d="M267,136.39,265.46,132c4.37-2.69,13.26-4.85,13.26-4.85s-4.12,8.7-11.75,9.22Z" transform="translate(0 0)"/><path class="cls-4" d="M269.15,217.87s2.42-8,12.13-25.23,21.36-31.44,18.46-39.77S282,137.56,282,137.56s-8.42,8.8-14,7.45-.31-6.9-.31-6.9-6.58,1-14.17,6.59c-1.4,1-3.42,2.36-3.66,3.43s-2,6.28-3.12,7.66c-4.18,5-6.54,7.93-7.77,11.21-1,5.72.22,8.77-.61,12-1.41,5.48-13.58,21.64-13.58,21.64l44.46,17.22Z" transform="translate(0 0)"/><path class="cls-8" d="M276.83,125.6s-4.24,8.65-11.74,8.86-9.48-1.5-9.9-3,3.42-8.92,3.42-8.92-3.07-1.49-3-2.6c.06-.67,7-7.75,7-7.75l3.16-6.23s2.81-6.18,11.66,0-.69,19.64-.69,19.64Z" transform="translate(0 0)"/><polygon class="cls-10" points="296.38 167.12 281.93 185.69 276.74 184.68 252.79 199.37 279.1 203.89 298.37 177.6 296.38 167.12 296.38 167.12"/><path class="cls-11" d="M281.7,186a.12.12,0,0,0,.13-.06l8.9-11.51a.15.15,0,0,0,0-.21.16.16,0,0,0-.22,0l-8.89,11.51a.16.16,0,0,0,0,.22.11.11,0,0,0,.08,0Z" transform="translate(0 0)"/><path class="cls-6" d="M273.34,179.3c-2.88-4.84-3.94-9.52-2.36-10.46s5.2,2.22,8.08,7.06,3.94,9.52,2.36,10.46-5.2-2.22-8.08-7.06Z" transform="translate(0 0)"/><path class="cls-5" d="M275.81,119.84s-8.78-.27-10.37-5.33a7.9,7.9,0,0,0-.66-1s1.16-1.55.23-2.2a4.81,4.81,0,0,1,2-3.77L279.17,114l-3.36,5.82Z" transform="translate(0 0)"/><path class="cls-10" d="M244.91,177.72a10.26,10.26,0,0,1-6.44.24c.32-2.43-.1-5.5.11-9.13a13.71,13.71,0,0,0,2.56,3.14c3.2,2.77,6,4.81,3.77,5.75Z" transform="translate(0 0)"/><path class="cls-10" d="M273.63,164.19c-6.68,6.92-12.52,6.24-15.34,12.68s-1.09,12.23-12.59,13.25c1.7.53,7.06-5.46,14-11.38a136.71,136.71,0,0,0,14-14.55Z" transform="translate(0 0)"/><path class="cls-12" d="M274.42,202.41c-12.36-4.58-27.58-8.67-42.81-8.78l-9.54,15.28,29.66,11.2,22.69-17.7Z" transform="translate(0 0)"/><path class="cls-5" d="M268.1,121.77c-.23.82.7,1.8,2.07,2.18s2.67,0,2.9-.79-.69-1.8-2.07-2.18-2.67,0-2.9.79Z" transform="translate(0 0)"/><path class="cls-5" d="M263.8,112.4l-.4,3.37s1.68,1.76,3.17,1.94a22.26,22.26,0,0,0,2.23.2l.08-2.87-5.08-2.64Z" transform="translate(0 0)"/><path class="cls-5" d="M260,127.5c-.06.31.53.69,1.32.85s1.48,0,1.54-.27-.58-.42-1.37-.58-1.43-.31-1.49,0Z" transform="translate(0 0)"/><path class="cls-5" d="M255.67,119.92c-.19.27.46,1,1.44,1.74s1.94,1,2.13.74-.51-.76-1.5-1.45-1.88-1.3-2.07-1Z" transform="translate(0 0)"/><path class="cls-8" d="M281.68,181.7s-10.47,14.3-27.46,18.63-33.48-13.85-35.4-15.89,2.93-8.66,2.93-8.66-.53-2.69.08-3.18,4.66-1.1,5.75-.31a24.13,24.13,0,0,1,3.2,3.89,5.43,5.43,0,0,1,2.65,1.07c1.28,1-.66,6.23-.66,6.23s5,3.17,10.5,1.55,9.18-.14,9.18-.14l18.7-17.78c6.47,3.36,9.76,11.14,10.53,14.59Z" transform="translate(0 0)"/><path class="cls-5" d="M253.27,198.53c-.73-1.84.63-4.1,3-5.05s4.95-.24,5.67,1.6a3.62,3.62,0,0,1,0,2.45,38.64,38.64,0,0,1-7.1,2.62,3,3,0,0,1-1.61-1.62Z" transform="translate(0 0)"/><path class="cls-5" d="M271.16,167.11c4.18,6.68,7.52,12.7,7.73,17.87a23.76,23.76,0,0,0,2.79-3.24,21,21,0,0,0-10.52-14.63Z" transform="translate(0 0)"/><path class="cls-5" d="M221.75,175.78l2.58-2.05s-1.65-.76-2.22-.26-.36,2.31-.36,2.31Z" transform="translate(0 0)"/><path class="cls-5" d="M273.39,139.66c-1.93.87-3.4.94-4.11-.3a1.2,1.2,0,0,0,.89,1.84c1.65.38,3.22-1.54,3.22-1.54Z" transform="translate(0 0)"/><path class="cls-5" d="M230.75,176.18l1.08,3.66s.72-1.56.26-2.46a2.64,2.64,0,0,0-1.34-1.2Z" transform="translate(0 0)"/><path class="cls-11" d="M271.13,167.12l10.12-11.8a.15.15,0,0,1,.22,0,.16.16,0,0,1,0,.22l-10.06,11.74-.29-.14Z" transform="translate(0 0)"/><path class="cls-11" d="M266.14,208.77S187.47,168.88,181,167.72s19.87,48.93,43.77,59.71,41.37-18.66,41.37-18.66Z" transform="translate(0 0)"/><polygon class="cls-11" points="180.48 167.76 113.44 206.72 126.3 218.93 191.9 193.71 180.48 167.76 180.48 167.76"/><path class="cls-13" d="M189,187.13l2.9,6.58-65.6,25.22-2.84-2.7c4-2.89,43.85-31.45,53-31.54,2.19,0,6.78.95,12.55,2.44Z" transform="translate(0 0)"/><path class="cls-13" d="M187.68,186.79c19.39,4.91,70.12,34.63,70.12,34.63l-29.46,7.34a29.5,29.5,0,0,1-3.57-1.33c-13.82-6.24-28.46-25.62-37.09-40.64Z" transform="translate(0 0)"/><path class="cls-11" d="M176,185.89a47,47,0,0,0-6.63,7.17c-2.54,3.53-5.62,8-8.91,12.87-13.13,19.45-29.7,45.58-29.7,45.58l18.09,5.81,37.48-36.63S209.11,234.44,228,231.8c6.25-.88,5.11-7.31-3.08-13.66A133.25,133.25,0,0,0,210,204.62c-13.79-11.19-29.53-21.49-34-18.73Z" transform="translate(0 0)"/><path class="cls-13" d="M141.47,254.2s31.84-49,40.15-50.88,37.29,27.23,37.29,27.23l-8.16,8c-14.85-.19-24.46-17.89-24.46-17.89l-37.48,36.63-7.34-3.12Z" transform="translate(0 0)"/><path class="cls-14" d="M259.52,219.76l.15-.27c-.61-.36-62-35.72-78.89-36.56-7.09-.35-19.2,4.66-36,14.88-12.5,7.61-23,15.42-23.16,15.5l.19.25c.1-.08,10.65-7.88,23.13-15.49,16.51-10,28.9-15.18,35.83-14.83,16.79.84,78.13,36.16,78.75,36.52Z" transform="translate(0 0)"/><path class="cls-14" d="M140.84,251.26c1.46-1.28,35.92-31.29,36.55-34a10.5,10.5,0,0,0-.33-4c-.41-2-.8-4,.44-4.69a.61.61,0,0,1,.52-.06c.71.28,1.26,2,1.79,3.69s1.09,3.45,1.9,3.79a.8.8,0,0,0,.69,0c1.1-.54,1.21-2.72,1.33-5s.25-4.67,1.45-4.67a.67.67,0,0,1,.5.21c.72.73.69,3.18.67,5.34,0,2.51-.06,4.68.9,4.9s1.81-.91,2.68-2.12,1.8-2.48,2.81-2.2c2,.57,18.42,17.3,24.8,25.75l.25-.18c-6.55-8.67-22.84-25.27-25-25.86-1.21-.34-2.19,1-3.14,2.31-.81,1.12-1.58,2.18-2.36,2s-.69-2.52-.66-4.6c0-2.32.06-4.73-.76-5.56a1,1,0,0,0-.72-.3c-1.5,0-1.62,2.41-1.76,5-.1,2.11-.22,4.3-1.15,4.76a.49.49,0,0,1-.44,0c-.68-.28-1.21-2-1.72-3.59-.58-1.83-1.13-3.56-2-3.89a.87.87,0,0,0-.78.08c-1.44.83-1,2.87-.59,5a10.48,10.48,0,0,1,.33,3.91c-.49,2.11-24.06,23.08-36.46,33.86l.21.24Z" transform="translate(0 0)"/><path class="cls-15" d="M267.72,118.05h.4a.31.31,0,0,0,.3-.32.31.31,0,0,0-.32-.3,4.25,4.25,0,0,1-4.2-1.89.31.31,0,1,0-.51.35,4.75,4.75,0,0,0,4.33,2.17Z" transform="translate(0 0)"/><path class="cls-16" d="M298.26,116.49c-.55,3.61.6,7.19.46,10.81a10,10,0,0,1-1.29,4.86,7.45,7.45,0,0,1-8.45,3.31c-.24-.06-.16-.44.08-.37a7.18,7.18,0,0,0,8.06-3.17c1.77-3,1.22-6.61.85-9.86a21,21,0,0,1-.09-5.66c0-.25.41-.17.38.08Z" transform="translate(0 0)"/><path class="cls-16" d="M285.6,105.48a6,6,0,0,1,5.49-.66,10.1,10.1,0,0,1,4.87,4,3.79,3.79,0,0,1,.74,3.23c-.08.24-.46.16-.38-.07.43-1.28-.34-2.53-1.09-3.51a10.62,10.62,0,0,0-2.78-2.61,6,6,0,0,0-6.64-.09c-.2.15-.42-.18-.21-.32Z" transform="translate(0 0)"/><path class="cls-16" d="M286.38,104.91c-5.85,11.62-12.32,25.07-17.23,27.6-.1,1.93,9.79,4.5,20.42,3.26s11.07-21.51,6.06-26.61-9.25-4.25-9.25-4.25Z" transform="translate(0 0)"/><path class="cls-16" d="M275.57,127.9c.38,2,19.08,3.9,20.29-11.55.38-10.54-9.48-11.44-9.48-11.44s-5.26-11.4-15.09-10.55-12.76,10-12.4,14,2.28,5,2.28,5a6.85,6.85,0,0,1,3.05-4.66c2.63-1.49,2.91-1.12,2.91-1.12a6,6,0,0,0-1.61,5.75c.77,3.78,8.49,5,8.49,5l-1.73-1.74a18,18,0,0,0,5.7.48c1.13,4.88.39,7.39-2.41,10.77Z" transform="translate(0 0)"/><path class="cls-17" d="M289.59,128.31c4.27.94,6.92-.62,8.54-2.53-1.11,5.1-3.82,9.44-8.56,10-10.63,1.24-20.52-1.33-20.42-3.26,2.64-1.36,5.73-5.88,8.93-11.57a19.65,19.65,0,0,0,11.51,7.37Z" transform="translate(0 0)"/><path class="cls-9" d="M274.68,128l1.25.88a4.2,4.2,0,0,0,5.85-1.06l1.89-2.72a4.21,4.21,0,0,0-1.05-5.85l-1.26-.87a4.21,4.21,0,0,0-5.85,1l-1.89,2.72a4.2,4.2,0,0,0,1.06,5.85Z" transform="translate(0 0)"/><path class="cls-7" d="M274.67,126.87Zm4.09-7.35a1.18,1.18,0,0,0-.77.49l-3.53,5.08a1.19,1.19,0,0,0,.3,1.65l3.35,2.33a1.22,1.22,0,0,0,.89.2,1.2,1.2,0,0,0,.76-.5l3.53-5.08a1.2,1.2,0,0,0,.2-.88A1.18,1.18,0,0,0,283,122l-3.36-2.33a1.34,1.34,0,0,0-.44-.19,1.09,1.09,0,0,0-.44,0Zm-.83,9.81L274.58,127h0a1.5,1.5,0,0,1-.37-2.09l3.53-5.08a1.56,1.56,0,0,1,1-.62,1.49,1.49,0,0,1,1.12.25l3.35,2.33a1.48,1.48,0,0,1,.62,1,1.52,1.52,0,0,1-.24,1.12L280,129a1.48,1.48,0,0,1-1,.62,1.5,1.5,0,0,1-.56,0,1.7,1.7,0,0,1-.56-.23Z" transform="translate(0 0)"/><path class="cls-9" d="M282.08,119.7a.46.46,0,0,0,.49-.22s1.86-3.09,3.52-6.54c2.27-4.72,3.14-7.9,2.58-9.46-.36-1-.9-1.52-1.63-1.63a2.84,2.84,0,0,0-2,.7l.5.79a2.07,2.07,0,0,1,1.38-.57c.36.06.66.4.88,1,1,2.66-4,11.88-6,15.2a.46.46,0,0,0,.16.64.35.35,0,0,0,.14.06Z" transform="translate(0 0)"/><path class="cls-4" d="M282.47,123.16a18.83,18.83,0,0,1-1.71,2.28c-.17.18-.46-.07-.29-.26a19.69,19.69,0,0,0,1.66-2.19.2.2,0,0,1,.26-.09c.08,0,.14.18.08.26Z" transform="translate(0 0)"/><path class="cls-4" d="M280,126.44l-.56.81a.24.24,0,0,1-.13.07.27.27,0,0,1-.15,0,.21.21,0,0,1,0-.28l.56-.81a.24.24,0,0,1,.13-.07.22.22,0,0,1,.14,0,.2.2,0,0,1,0,.28Z" transform="translate(0 0)"/><path class="cls-16" d="M286.47,105.91a15,15,0,0,0-3.23-6.83c-1.76-2.11-4.43-4.15-7.35-3.52-.24.06-.37-.31-.12-.36a7.28,7.28,0,0,1,6.29,2.1,15.3,15.3,0,0,1,3.73,5.14,15,15,0,0,1,1.07,3.45c0,.24-.34.26-.39,0Z" transform="translate(0 0)"/><path class="cls-14" d="M233.14,226.07l.22-.21c-.1-.11-10.61-10.66-22.75-20.89-16.33-13.75-27.68-20.39-33.74-19.74h0c-3.91,1.31-12.48,14.28-16.47,20.6l.5-.19c4.06-6.39,12.35-18.84,16.06-20.11,14.27-1.48,55.81,40.12,56.22,40.54Z" transform="translate(0 0)"/><path class="cls-17" d="M268.94,115.27c0,.06-5.06-1.47-5.5-2.41s-.14-2.5,1.63-1.51,3.95,3.45,3.87,3.92Z" transform="translate(0 0)"/><path class="cls-8" d="M192.26,103.3c-.06,1.5.55,2.73,1.36,2.76s1.49-1.16,1.55-2.66.2-3.1-1.36-2.77-1.5,1.17-1.55,2.67Z" transform="translate(0 0)"/><path class="cls-8" d="M189.89,106.29c.19,1.7,1,3,1.8,2.91s1.29-1.54,1.09-3.24-.31-3.53-1.79-2.92-1.29,1.54-1.1,3.25Z" transform="translate(0 0)"/><path class="cls-8" d="M187.49,109.35c.18,1.65,1,2.91,1.77,2.83s1.3-1.49,1.13-3.14-.29-3.42-1.77-2.83-1.31,1.49-1.13,3.14Z" transform="translate(0 0)"/><path class="cls-8" d="M186.48,113.76c.48,1.41,1.41,2.36,2.09,2.13s.82-1.56.34-3-.92-2.93-2.09-2.12-.83,1.56-.34,3Z" transform="translate(0 0)"/><polygon class="cls-12" points="148.81 257.32 135.49 244.04 129.43 253.6 140.56 263.32 148.81 257.32 148.81 257.32"/><polygon class="cls-12" points="126.3 218.93 121.51 201.87 112.91 206.96 117.35 221.8 126.3 218.93 126.3 218.93"/><path class="cls-15" d="M264,126.16a9.17,9.17,0,0,0,1.59-.14.15.15,0,0,0-.06-.3,7.39,7.39,0,0,1-6-1.34.16.16,0,0,0-.22,0,.15.15,0,0,0,0,.22,7.06,7.06,0,0,0,4.68,1.56Z" transform="translate(0 0)"/><path class="cls-11" d="M274.45,146.57a14.78,14.78,0,0,1-6.67,1.35,4.78,4.78,0,0,1-2.75-1.06,5,5,0,0,1-1.49-2.3,7.17,7.17,0,0,1,.75-5.57l.53-.17a7.28,7.28,0,0,0-1.06,5.09,4.92,4.92,0,0,0,1.3,2.45,4.42,4.42,0,0,0,2.86,1.19,14.67,14.67,0,0,0,6.18-1.25,23.12,23.12,0,0,0,5.7-3.38,34.18,34.18,0,0,0,4.38-4.21l.35.19a28.39,28.39,0,0,1-10.08,7.67Z" transform="translate(0 0)"/><path class="cls-7" d="M301.39,103.43a1.64,1.64,0,1,1-1.44-1.81,1.64,1.64,0,0,1,1.44,1.81Z" transform="translate(0 0)"/><path class="cls-7" d="M306.12,102.28a1.63,1.63,0,1,1-1.44-1.8,1.63,1.63,0,0,1,1.44,1.8Z" transform="translate(0 0)"/><path class="cls-7" d="M301.18,103.68h-.06a.24.24,0,0,1-.22-.26l.51-6.53a.24.24,0,0,1,.22-.21l5.19-.49a.24.24,0,0,1,.19.08.24.24,0,0,1,.06.2l-1,5.9a.25.25,0,0,1-.28.19.22.22,0,0,1-.19-.27l.91-5.59-4.68.43-.49,6.33a.23.23,0,0,1-.2.21Z" transform="translate(0 0)"/><path class="cls-7" d="M302.33,83a1.51,1.51,0,1,1-2-.63,1.5,1.5,0,0,1,2,.63Z" transform="translate(0 0)"/><path class="cls-7" d="M302.12,83.22a.25.25,0,0,1-.26-.11l-3-5.23a.26.26,0,0,1,0-.24.23.23,0,0,1,.2-.12,4.37,4.37,0,0,1,3.41,1.14.24.24,0,0,1,0,.34.25.25,0,0,1-.33,0,3.78,3.78,0,0,0-2.69-1l2.82,4.89a.25.25,0,0,1-.09.33l-.07,0Z" transform="translate(0 0)"/><path class="cls-7" d="M312.88,91.71a1.38,1.38,0,1,1-1.62-1.1,1.39,1.39,0,0,1,1.62,1.1Z" transform="translate(0 0)"/><path class="cls-7" d="M317.39,88.55a1.38,1.38,0,0,1-1.09,1.62,1.38,1.38,0,1,1-.52-2.72,1.38,1.38,0,0,1,1.61,1.1Z" transform="translate(0 0)"/><path class="cls-7" d="M312.64,91.86a.23.23,0,0,1-.27-.18l-1.46-6.38a.24.24,0,0,1,.14-.27l4.81-2a.27.27,0,0,1,.2,0,.23.23,0,0,1,.13.16l1.18,5.28a.24.24,0,0,1-.47.11l-1.12-5-4.36,1.82,1.41,6.18a.24.24,0,0,1-.18.29Z" transform="translate(0 0)"/><path class="cls-7" d="M311.6,87.21a.24.24,0,0,1-.15-.45l4.77-2.15a.25.25,0,0,1,.32.12.23.23,0,0,1-.12.31l-4.77,2.15,0,0Z" transform="translate(0 0)"/><path class="cls-11" d="M249.36,149.84a13,13,0,0,1-2.43,6c-1.3,1.87-2.9,3.47-4.29,5.26a22.83,22.83,0,0,0-3.4,5.69,8.88,8.88,0,0,0-.55,2.59,34.65,34.65,0,0,0-.15,3.67c0,2.41.93,5.1-.4,7.32a.19.19,0,0,1-.33-.2c1.2-2,.44-4.42.36-6.59a34,34,0,0,1,.08-3.64,11.18,11.18,0,0,1,.42-2.7,20.08,20.08,0,0,1,2.88-5.33c1.31-1.83,2.89-3.43,4.26-5.2a13.79,13.79,0,0,0,3.16-6.86c0-.24.42-.25.39,0Z" transform="translate(0 0)"/><path class="cls-9" d="M143.29,296.4s-10-38.68,13.84-62.87,69.88-9,90.48-18.24,28.79-19.63,39.61-32.08,9.94-30.73,21.6-22.87,35.59,43.71,33.37,79.52-24.07,56.54-24.07,56.54Z" transform="translate(0 0)"/><path class="cls-18" d="M131.51,274.85s5,8.69-3.42,11.85c-1.21.45-3.86.15-6.82,0,.76-6,4.6-9.62,10.24-11.82Z" transform="translate(0 0)"/><path class="cls-18" d="M91,279c3.18,1.23,6.32,5,5.3,9.42-6.88-1.27-10.54-3.08-11.05-6.58-.33-2.32,2.25-2.61,5.75-2.84Z" transform="translate(0 0)"/><path class="cls-18" d="M123,262.82l2.14,1.45a39,39,0,0,0,3.12-4.73l.3.26a39.28,39.28,0,0,1-3.11,4.69c.71.49,1.42,1,2.12,1.51a33.76,33.76,0,0,0,3.06-4.45l.3.25a34.36,34.36,0,0,1-3.05,4.42l1.79,1.31c1.1-1.34,2.12-2.74,3.08-4.18l.3.25q-1.44,2.14-3.07,4.16l2.22,1.7a26.43,26.43,0,0,0,2.71-4.28l.31.25a27.56,27.56,0,0,1-2.72,4.27c.54.42,1.07.85,1.6,1.28l-.21.32q-5.38-4.33-11.14-8.18l.25-.3Z" transform="translate(0 0)"/><path class="cls-18" d="M108.55,222.46c0,.12.07.25.1.38l-4.48,2.27c.17.76.35,1.51.54,2.26l-.36.19q-1.68-6.88-2.91-13.87l.35-.2.27,1.48a41.11,41.11,0,0,1,4-2.34c0,.13.07.26.1.39a38.58,38.58,0,0,0-4,2.36c.09.53.19,1.05.29,1.57,1.38-.77,2.78-1.49,4.2-2.18,0,.13.07.26.1.39q-2.15,1-4.22,2.19c.12.63.25,1.26.38,1.89a26.81,26.81,0,0,1,4.38-2l.09.37a27.89,27.89,0,0,0-4.39,2c.16.82.34,1.63.51,2.44l4.39-2.35c0,.13.06.26.1.39l-4.4,2.36q.24,1.13.51,2.25l4.47-2.26Z" transform="translate(0 0)"/><path class="cls-18" d="M100.16,231.05c-1.81,2.7-5.65,7.16-10.59,5.59-5.26-1.67-5-4.92-5.48-10,5.77-2.33,13.56.59,16.07,4.38Z" transform="translate(0 0)"/><path class="cls-18" d="M90.18,190.08c2.43.82,2.59,3.41,2.48,6.75-2.53,4.17-6.79,5.26-12,4.61,1.18-6.92,5.82-12.62,9.54-11.36Z" transform="translate(0 0)"/><path class="cls-19" d="M339,259c-6.67,24-20.86,37.45-20.86,37.45H143.29s-4.63-38.06,38.55-45.91,40.68,20.05,90.25,28.53c28.69,4.92,51.49-5.32,66.89-20.07Z" transform="translate(0 0)"/><path class="cls-20" d="M80,296.71H393.45a.31.31,0,1,0,0-.62H80a.31.31,0,1,0,0,.62Z" transform="translate(0 0)"/><path class="cls-21" d="M141.09,265.65a51.37,51.37,0,0,1,9.2-24.7,52.62,52.62,0,0,1,20-17.16c9.8-4.71,20.8-5.67,31.53-5.67,5.84,0,11.68.22,17.52.35,6,.14,12.06.23,18.09.21a297.23,297.23,0,0,0,35.92-2c1.52-.19,3-.4,4.56-.62,1-.15,1.4,1.34.41,1.49A270.31,270.31,0,0,1,243,220.18c-11.8.18-23.6-.2-35.39-.45-11-.23-22.39-.09-32.84,3.85a51.22,51.22,0,0,0-31.67,38.84c-.18,1.07-.31,2.15-.41,3.23s-1.64,1-1.55,0Z" transform="translate(0 0)"/><path class="cls-21" d="M233.29,219.2q13.52-4.62,26.89-9.62t26.61-10.37q7.4-3,14.74-6.12a.79.79,0,0,1,1.06.27.78.78,0,0,1-.28,1.06q-13.23,5.63-26.62,10.87T249,215.34q-7.61,2.73-15.25,5.35a.77.77,0,1,1-.42-1.49Z" transform="translate(0 0)"/><path class="cls-21" d="M256.92,210.46q9.27-6.74,18.34-13.73t17.81-14.09q5-4.06,9.93-8.2a.78.78,0,0,1,1.09,0,.76.76,0,0,1,0,1.09q-8.8,7.4-17.8,14.53t-18.23,14.08q-5.15,3.87-10.36,7.66a.77.77,0,0,1-1.06-.28.79.79,0,0,1,.28-1.06Z" transform="translate(0 0)"/><path class="cls-4" d="M52.11,216.44l.59-.18A54.53,54.53,0,0,1,51,201.07,52.49,52.49,0,0,1,61.6,169.88l-.49-.37a53.07,53.07,0,0,0-10.75,31.57,55,55,0,0,0,1.75,15.36Z" transform="translate(0 0)"/><path class="cls-4" d="M60.46,171.17s9.7-3.27,13.53-8.61-2.77-8.35-9.42-1.21-4.11,9.82-4.11,9.82Z" transform="translate(0 0)"/><path class="cls-4" d="M56.78,176.8c0-.08,3.06-21-2.27-16.58s.77,19.64.77,19.64l1.5-3.06Z" transform="translate(0 0)"/><path class="cls-4" d="M52.9,186.29c.49-.13,19.15-3.24,18.13-8.45s-16.35,3.41-16.35,3.41l-1.78,5Z" transform="translate(0 0)"/><path class="cls-4" d="M50.73,205.24S70.32,195.58,67.35,190s-16.51,7.54-16.51,7.54l-.11,7.68Z" transform="translate(0 0)"/><path class="cls-4" d="M51.91,188.84s-1.69-19.49-6.08-14.15S51,195.51,51,195.51l.87-6.67Z" transform="translate(0 0)"/><path class="cls-4" d="M378.46,160.27a66.78,66.78,0,0,0,1.85-18.69,64.47,64.47,0,0,0-13.64-38.18l-.48.38a63.94,63.94,0,0,1,13.5,37.8,66.81,66.81,0,0,1-1.82,18.52l.59.17Z" transform="translate(0 0)"/><path class="cls-4" d="M367.56,105.37s-11.86-3.8-16.62-10.24,3.21-10.21,11.44-1.63,5.18,11.87,5.18,11.87Z" transform="translate(0 0)"/><path class="cls-4" d="M372.14,112.14c-.05-.08-4.11-25.51,2.45-20.2s-.58,23.9-.58,23.9l-1.87-3.7Z" transform="translate(0 0)"/><path class="cls-4" d="M377,123.62c-.6-.15-23.36-3.59-22.2-10s19.95,3.86,19.95,3.86l2.25,6.1Z" transform="translate(0 0)"/><path class="cls-4" d="M380,146.64s-24-11.4-20.49-18.22,20.22,8.88,20.22,8.88l.27,9.34Z" transform="translate(0 0)"/><path class="cls-4" d="M378.27,126.7S380,103,385.41,109.39s-6,25.42-6,25.42l-1.18-8.11Z" transform="translate(0 0)"/><path class="cls-5" d="M209.71,109.79a2,2,0,0,0,.09,1.21,1,1,0,0,0,0,.24v.23c-.53-.27-.51-1-.46-1.53a4.41,4.41,0,0,1,.3-1.35,1.72,1.72,0,0,1,.5-.12,3.17,3.17,0,0,0-.4,1.32Z" transform="translate(0 0)"/><path class="cls-5" d="M209.05,113.84h0l0,0a.41.41,0,0,0-.11-.07l0,0-.14,0h0a.38.38,0,0,0-.15,0h0l-.13,0a.19.19,0,0,1-.15,0,.22.22,0,0,1-.09-.12.2.2,0,0,1,0-.15.24.24,0,0,1,.11-.09.74.74,0,0,1,.39,0l.17,0a.72.72,0,0,1,.19.11.19.19,0,0,1-.14.33h-.05a.26.26,0,0,1-.09,0Z" transform="translate(0 0)"/><path class="cls-5" d="M192.62,105.23a3.25,3.25,0,0,1-.05-.7,2.29,2.29,0,0,1,.32-1.23.73.73,0,0,1,1.08,0,2.25,2.25,0,0,1,.67,1.08,3.74,3.74,0,0,1,.15.74,2.35,2.35,0,0,1-.33.54,5.19,5.19,0,0,0-.19-1.18c-.12-.36-.36-.89-.76-1s-.51.64-.54.91a3.1,3.1,0,0,0,.2,1.45.16.16,0,0,1,0,.12,1.6,1.6,0,0,1-.55-.68Z" transform="translate(0 0)"/><path class="cls-5" d="M191.13,109a1.84,1.84,0,0,1-.52-.55l-.06-.46a4.32,4.32,0,0,1,.09-1.52.75.75,0,0,1,1-.6,2.13,2.13,0,0,1,1,1,2.53,2.53,0,0,1,.18.37,4.2,4.2,0,0,1-.15.77,3.47,3.47,0,0,0-.41-1c-.16-.26-.75-1.11-1.11-.66a1.09,1.09,0,0,0-.17.58,5.2,5.2,0,0,0,0,.88,5.38,5.38,0,0,0,.2,1.2Z" transform="translate(0 0)"/><path class="cls-5" d="M187.93,109.67a1,1,0,0,1,.95-.88c.51,0,.87.49,1.12.88.14.23.26.47.38.71a4,4,0,0,1-.14.66c-.34-.85-1.06-2.4-1.74-1.68-.4.42-.19,1.15,0,1.63a5.2,5.2,0,0,0,.55,1.17,1.33,1.33,0,0,1-.72-.52c-.05-.11-.09-.22-.14-.34a3.14,3.14,0,0,1-.23-1.63Z" transform="translate(0 0)"/><path class="cls-5" d="M187.57,115.56a3.65,3.65,0,0,1-.54-.65c0-.16-.05-.32-.07-.48,0-.5-.08-1.22.36-1.57s1,.09,1.28.44l.54.55a4.09,4.09,0,0,1,.05.76,1,1,0,0,0-.33-.49l-.48-.5c-.22-.23-.68-.81-.94-.31a1.57,1.57,0,0,0-.11.68,4.4,4.4,0,0,0,.06.73,8.39,8.39,0,0,0,.18.84Z" transform="translate(0 0)"/><path class="cls-5" d="M212.67,170.35a41.22,41.22,0,0,1-5.68.32c-.87-.08-1.76-2.13-2.62-5.3,4.28-.43,7,2.81,8.3,5Z" transform="translate(0 0)"/><path class="cls-5" d="M216.32,153.63l1.42,4.81a10,10,0,0,0,.25-5.3l-1.67.49Z" transform="translate(0 0)"/><path class="cls-5" d="M207.21,124.77c0-.16-.09-.32-.13-.48a7.31,7.31,0,0,1-1.88,1.84c-.21.14,0,.47.19.33a7.91,7.91,0,0,0,1.82-1.69Z" transform="translate(0 0)"/><path class="cls-11" d="M242,161.08a.64.64,0,0,0,0,.07,2.46,2.46,0,0,1,0,.26c0,.26.36.24.39,0A21,21,0,0,0,238.93,147l-.38.12a20.78,20.78,0,0,1,3.44,14Z" transform="translate(0 0)"/><path class="cls-11" d="M284.65,181.62a21.28,21.28,0,0,0-6-15.18,20.83,20.83,0,0,0-1.7-1.55,6,6,0,0,0-2.32-1.31.19.19,0,0,1,.1-.37,8.59,8.59,0,0,1,3.63,2.41,20.63,20.63,0,0,1,2.79,3.25,21.88,21.88,0,0,1,3.44,7.88,21,21,0,0,1,.46,4.87.2.2,0,0,1-.39,0Z" transform="translate(0 0)"/><path class="cls-19" d="M311.92,277.36c-9.11,8-22.49,6.27-33.42,4a126.34,126.34,0,0,1-36.67-13.5,109.38,109.38,0,0,1-16-11.14c-4.89-4.07-9.67-8.38-15.24-11.52a33.91,33.91,0,0,0-17.92-4.39,41,41,0,0,0-17.87,4.93c-10.84,5.83-18.62,16.1-23.57,27.17-.62,1.4-1.2,2.83-1.74,4.26-.35.93-1.85.53-1.5-.41,4.3-11.39,11.16-22.08,21.14-29.28s23.11-10.36,35-6.78c6.11,1.86,11.39,5.52,16.31,9.5,5.07,4.08,9.89,8.42,15.3,12.07a117.82,117.82,0,0,0,36.08,15.93,99.59,99.59,0,0,0,18.66,3.39c5.71.38,11.76-.07,16.86-2.88a19.1,19.1,0,0,0,3.48-2.44c.75-.66,1.85.43,1.1,1.09Z" transform="translate(0 0)"/><path class="cls-19" d="M305.26,280.29a.8.8,0,0,1-1.06-.27.78.78,0,0,1,.27-1.06A63.51,63.51,0,0,0,317,271.51a62.78,62.78,0,0,0,10.43-10.05,61.85,61.85,0,0,0,8-12.58,63.23,63.23,0,0,0,6.15-24.59q.52,4.05.68,8.16a65,65,0,0,1-4.62,15.31A62.94,62.94,0,0,1,329.74,261a65.11,65.11,0,0,1-22.81,18.5l-1.67.77Z" transform="translate(0 0)"/><path class="cls-22" d="M345.05,230.87s-14.83-21.08-7.95-25.37,8.93-.12,15,4.35,3.63-5.16,9.41-4.56,4.58,8.19,9.29,9.15S375.85,200,383.94,207s-2.81,29.57-2.81,29.57l-36.08-5.72Z" transform="translate(0 0)"/><path class="cls-23" d="M340.17,233.07s-5.2-5.91-.9-9.71,11.91,5.4,15.11,3.6.53-13,8.12-13.31,8.29,5,12.09,4.48,5.46-14.08,13.64-8.88-2.84,24.32-2.84,24.32l-45.22-.5Z" transform="translate(0 0)"/><path class="cls-22" d="M375.05,234l-.08,0a.16.16,0,0,1-.05-.22l10.86-18.88a.15.15,0,0,1,.27.15l-10.87,18.89a.14.14,0,0,1-.13.08Z" transform="translate(0 0)"/><path class="cls-22" d="M367,233.27a.14.14,0,0,1-.15-.11l-3.47-13.92a.15.15,0,0,1,.3-.07l3.47,13.91a.16.16,0,0,1-.12.19Z" transform="translate(0 0)"/><path class="cls-22" d="M351.17,233.49a.16.16,0,0,1-.11-.05l-6.72-6.66a.16.16,0,0,1,.22-.22l6.72,6.66a.16.16,0,0,1,0,.22.16.16,0,0,1-.11.05Z" transform="translate(0 0)"/><path class="cls-23" d="M352.11,228.53a.14.14,0,0,1-.13-.08L340.8,208.14a.17.17,0,0,1,.06-.22.16.16,0,0,1,.21.07l11.18,20.31a.16.16,0,0,1-.06.21l-.08,0Z" transform="translate(0 0)"/><path class="cls-23" d="M361.67,222.45a.15.15,0,0,1-.15-.15l-.57-13a.15.15,0,0,1,.15-.16.15.15,0,0,1,.16.14l.57,13a.16.16,0,0,1-.15.16Z" transform="translate(0 0)"/><path class="cls-23" d="M374.68,222.45h-.06a.16.16,0,0,1-.09-.2l5.35-13.75a.16.16,0,0,1,.29.11l-5.35,13.75a.14.14,0,0,1-.14.1Z" transform="translate(0 0)"/><path class="cls-20" d="M363.14,296.25a.93.93,0,0,1-.93-.93v-40a.93.93,0,0,1,1.86,0v40a.93.93,0,0,1-.93.93Z" transform="translate(0 0)"/><path class="cls-20" d="M341.47,296.25l-.2,0a.94.94,0,0,1-.71-1.11l9.35-42.92a.93.93,0,0,1,1.11-.71.92.92,0,0,1,.7,1.1l-9.35,42.93a.93.93,0,0,1-.9.73Z" transform="translate(0 0)"/><path class="cls-20" d="M385.39,296.25a.94.94,0,0,1-.91-.73l-9.35-42.93a.92.92,0,0,1,.71-1.1.94.94,0,0,1,1.11.71l9.35,42.92a.94.94,0,0,1-.71,1.11l-.2,0Z" transform="translate(0 0)"/><path class="cls-4" d="M336.77,231.59v9.57a25.73,25.73,0,0,0,25.73,25.73h0a25.73,25.73,0,0,0,25.73-25.73v-9.57Z" transform="translate(0 0)"/><path class="cls-24" d="M380,260a26.05,26.05,0,0,0,4.29-5.18V231.59H380V260Z" transform="translate(0 0)"/><path class="cls-25" d="M343.62,258.64a25.66,25.66,0,0,0,17,8.18V231.59h-17v27Z" transform="translate(0 0)"/><polygon class="cls-26" points="336.77 235.75 388.23 235.75 388.23 235.55 336.77 235.55 336.77 235.75 336.77 235.75"/></g></g></svg>