<svg xmlns="http://www.w3.org/2000/svg" viewBox="0 0 686.95 447.31"><defs><style>.cls-1{fill:#e0e0e0;}.cls-2{fill:#263238;}.cls-3{fill:#455a64;}.cls-4{fill:#f5f5f5;}.cls-5{fill:#ff725e;}.cls-6{opacity:0.3;}.cls-7{fill:#fff;}.cls-8{fill:#ffbf9d;}.cls-9{fill:#ff9a6c;}.cls-10{fill:#ae7461;}.cls-11{fill:#6f4439;}.cls-12{fill:#ebebeb;}.cls-13{opacity:0.2;}.cls-14{fill:#ffcbae;}.cls-15{fill:#ff9458;}</style></defs><title>partying</title><g id="Layer_2" data-name="Layer 2"><g id="Characters"><path class="cls-1" d="M113.26,24.64s-8-8.12-15.3-1.84L96,15.64s14.92-6,19.22,4.71Z"/><path class="cls-1" d="M333.79,57s-8-8.12-15.3-1.84L316.55,48s14.93-6,19.23,4.71Z"/><path class="cls-1" d="M33.76,335.65s-2.61-11.06-12.16-9.47l2-7.13s15.88,2.59,14,13.95Z"/><path class="cls-1" d="M686.31,292.41s-10.41-4.56-14.88,4L667,290.52s11.6-11.13,19.58-2.83Z"/><path class="cls-1" d="M240.46,66.53s-14.1,2.89-12.45,15l-8.95-2.85s3.87-20,18.19-17.25Z"/><path class="cls-1" d="M33,146.54s-11.3,1.26-10.88,10.92l-6.83-2.88s4.49-15.44,15.55-12.25Z"/><path class="cls-1" d="M155.67,248.27s-1.91,11.21,7.5,13.47l-4.67,5.77s-13.6-8.58-7.47-18.33Z"/><path class="cls-1" d="M247.39,431.35s-.45-11.35-10.12-11.62l3.36-6.61s15.09,5.58,11.11,16.38Z"/><path class="cls-1" d="M106.89,224.91s-.45-11.35-10.12-11.62l3.37-6.61s15.08,5.58,11.11,16.38Z"/><path class="cls-1" d="M282.51,233.41s-.46-11.35-10.13-11.62l3.37-6.61s15.08,5.58,11.11,16.38Z"/><path class="cls-1" d="M654,404.09s-.45-11.36-10.12-11.62l3.36-6.61s15.08,5.57,11.11,16.38Z"/><path class="cls-1" d="M668.05,19.87s-4.46,10.45,4.17,14.83l-5.87,4.54s-11.25-11.5-3-19.56Z"/><path class="cls-1" d="M472.47,25.37s10.63,4,14.66-4.77l4.76,5.69s-11,11.69-19.42,3.81Z"/><path class="cls-1" d="M27.18,51.09a3,3,0,1,1-3-3A3,3,0,0,1,27.18,51.09Z"/><path class="cls-1" d="M286.14,103.73a3,3,0,1,1-3-3A3,3,0,0,1,286.14,103.73Z"/><path class="cls-1" d="M269.86,23.72a3,3,0,1,1-3-3A3,3,0,0,1,269.86,23.72Z"/><path class="cls-1" d="M36,233.78a3,3,0,1,1-3-3A3,3,0,0,1,36,233.78Z"/><path class="cls-1" d="M37.83,398.56A5.54,5.54,0,1,1,32.29,393,5.54,5.54,0,0,1,37.83,398.56Z"/><path class="cls-1" d="M422.86,204.83a3,3,0,1,1-3-3A3,3,0,0,1,422.86,204.83Z"/><path class="cls-1" d="M448.62,392.23a3,3,0,1,1-3-3A3,3,0,0,1,448.62,392.23Z"/><path class="cls-1" d="M679.75,349a3,3,0,1,1-3-3A3,3,0,0,1,679.75,349Z"/><path class="cls-1" d="M679.75,106.73a3,3,0,1,1-3-3A3,3,0,0,1,679.75,106.73Z"/><path class="cls-1" d="M140.82,404.09a3,3,0,1,1-3-3A3,3,0,0,1,140.82,404.09Z"/><path class="cls-1" d="M579.56,175.94a3,3,0,1,1-3-3A3,3,0,0,1,579.56,175.94Z"/><path class="cls-1" d="M576.57,23.84a3,3,0,1,1-3-3A3,3,0,0,1,576.57,23.84Z"/><path class="cls-1" d="M358.71,386a3,3,0,1,1-3-3A3,3,0,0,1,358.71,386Z"/><path class="cls-2" d="M0,446.39c0-.15,153.79-.26,343.46-.26s343.49.11,343.49.26-153.76.26-343.49.26S0,446.53,0,446.39Z"/><path class="cls-3" d="M545,115.16c7.68-9.28,11.59-23.22,13.2-35.16s-1.44-24.79-9.59-33.67-21.66-13-32.91-8.67c-12,4.63-19.34,18-19.06,30.94s10,26,20.64,33.29c12.06,8.19,15.64,11,27.72,13.27"/><path class="cls-3" d="M541.58,119a12.16,12.16,0,0,0,1.08-6.33l1.51.69c1.67.65,4,3.39,5,4.89.29.43.53,1,.2,1.44s-1,.28-1.5,0a3.75,3.75,0,0,0-1.4-.86,3.91,3.91,0,0,1,.44,1.66,1.19,1.19,0,0,1-2.33.46,3.77,3.77,0,0,1-.22-1.73,4.1,4.1,0,0,1-1,1.92,1.38,1.38,0,0,1-1.93,0C541,120.55,541.28,119.68,541.58,119Z"/><path class="cls-2" d="M542.25,114.61c-.13.2.73.82,1.92.59s1.77-1.1,1.58-1.25-.85.23-1.74.38S542.35,114.38,542.25,114.61Z"/><path class="cls-4" d="M504.18,79.23a7.42,7.42,0,0,0,.76,1.66,47.52,47.52,0,0,0,2.54,4.27A65.68,65.68,0,0,0,531.57,107a45.57,45.57,0,0,0,4.5,2.1,6.75,6.75,0,0,0,1.72.59c.07-.14-2.3-1.18-5.92-3.24A74.76,74.76,0,0,1,508,84.81C505.59,81.41,504.32,79.16,504.18,79.23Z"/><path class="cls-4" d="M500.7,65.92c-.24,0-.11,1.81.29,4s.92,3.83,1.16,3.79.11-1.82-.29-4S500.94,65.88,500.7,65.92Z"/><path class="cls-2" d="M569.29,253.71s.05-.15.17-.44L570,252c.47-1.1,1.17-2.72,2-4.83a101.13,101.13,0,0,0,5.62-18.37,63.79,63.79,0,0,0,1.19-13.19,50.05,50.05,0,0,0-2.47-14.94A41.07,41.07,0,0,0,573,193.2a45.06,45.06,0,0,0-5-6.94c-3.79-4.43-8.34-8.48-12.37-13.24a38.33,38.33,0,0,1-6.85-11.41,20,20,0,0,1-.69-12.6,15.54,15.54,0,0,1,7.8-8.85,12.41,12.41,0,0,1,5.51-1.35,9.76,9.76,0,0,1,5.23,1.5l.14.09-.06.17a7.11,7.11,0,0,1-3,3.52,9.58,9.58,0,0,1-4.18,1.3,12,12,0,0,1-4.13-.37,12.34,12.34,0,0,1-3.6-1.53,12.55,12.55,0,0,1-4.56-5.31,21.67,21.67,0,0,1-1.82-5.68,45.48,45.48,0,0,1-.62-8.29c0-.94,0-1.67,0-2.19s0-.74,0-.74,0,.25,0,.74,0,1.25,0,2.19a48.12,48.12,0,0,0,.74,8.24,21.48,21.48,0,0,0,1.84,5.59,12.27,12.27,0,0,0,4.48,5.15,12.63,12.63,0,0,0,7.51,1.8,9.14,9.14,0,0,0,4-1.25,6.69,6.69,0,0,0,2.76-3.32l.09.26a9.33,9.33,0,0,0-5-1.42,12,12,0,0,0-5.3,1.33,15,15,0,0,0-7.53,8.58,19.51,19.51,0,0,0,.7,12.27,37.9,37.9,0,0,0,6.76,11.25c4,4.72,8.54,8.77,12.36,13.24a46.24,46.24,0,0,1,5.05,7,41.61,41.61,0,0,1,3.35,7.59,50.05,50.05,0,0,1,2.45,15.09A63.54,63.54,0,0,1,578,228.89a97.24,97.24,0,0,1-5.8,18.38c-.87,2.1-1.61,3.71-2.11,4.79-.25.53-.44.94-.59,1.23S569.29,253.71,569.29,253.71Z"/><path class="cls-5" d="M160,131.19c-12.26-5.56-23-17.62-30.49-28.81s-10.72-25.57-6.9-38.48S138,40.22,151.37,39.05c14.36-1.26,28.25,8.6,34.3,21.68s2.79,31-4.37,43.53C173.22,118.39,171,123,160,131.19"/><path class="cls-5" d="M165.29,133.34a13.57,13.57,0,0,1-4.19-5.81L159.93,129c-1.37,1.47-2.33,5.34-2.59,7.33-.07.58,0,1.3.51,1.55s1.19-.23,1.49-.77a4.17,4.17,0,0,1,1-1.55,4.39,4.39,0,0,0,.37,1.88,1.33,1.33,0,0,0,2.56-.68,4.21,4.21,0,0,0-.63-1.85,4.54,4.54,0,0,0,1.9,1.47,1.55,1.55,0,0,0,2-.9C166.69,134.61,165.94,133.9,165.29,133.34Z"/><path class="cls-2" d="M162.47,129.28c.18.11-.4,1.09-1.67,1.43s-2.26-.19-2.16-.37,1-.06,2-.35S162.31,129.15,162.47,129.28Z"/><g class="cls-6"><path class="cls-7" d="M140.53,47.68c-13.2,8.58-17,23-12.52,38,1.44,4.82,4,9.51,8.71,11.83a10.58,10.58,0,0,0,4,1.08c7,.44,10.39-5.62,11-11.33.43-4.22-.37-8.47-.47-12.71s.62-8.81,3.53-11.91,7.74-4.58,8-9.4a7.42,7.42,0,0,0-2.82-6,12.11,12.11,0,0,0-4.73-2.39,17.46,17.46,0,0,0-13,1.88Z"/></g><path class="cls-7" d="M183.31,75.11a10.73,10.73,0,0,1,0,2c0,1.31-.19,3.2-.49,5.52a74.12,74.12,0,0,1-1.54,8.08,81.36,81.36,0,0,1-3.1,9.58,81.2,81.2,0,0,1-4.36,9.09,72,72,0,0,1-4.45,6.92c-1.38,1.89-2.56,3.37-3.44,4.34a10.66,10.66,0,0,1-1.41,1.47,10.41,10.41,0,0,1,1.18-1.65c.81-1,1.92-2.55,3.24-4.46s2.78-4.27,4.28-7a89.82,89.82,0,0,0,4.26-9,87.33,87.33,0,0,0,3.13-9.49c.77-3,1.33-5.68,1.69-8s.6-4.17.72-5.46A10.19,10.19,0,0,1,183.31,75.11Z"/><path class="cls-7" d="M180.27,60.05c.2,0,.88,1.8,1.53,4.14s1,4.28.81,4.33-.89-1.79-1.53-4.13S180.07,60.11,180.27,60.05Z"/><path class="cls-2" d="M118.54,309.74s-.06-.18-.15-.55l-.42-1.63-.66-2.65c-.23-1.05-.43-2.28-.69-3.66a94,94,0,0,1-1-23.66,101.42,101.42,0,0,1,2.81-16.15A92,92,0,0,1,125,243.81a93.73,93.73,0,0,1,11.2-17.5c4.55-5.62,9.77-11,14.37-17a57,57,0,0,0,7.05-11.79,34.52,34.52,0,0,0,3-12.76,23.93,23.93,0,0,0-.64-6.29,13.74,13.74,0,0,0-2.61-5.47,8.93,8.93,0,0,0-4.88-3.06,6.89,6.89,0,0,0-5.4.83l.08-.1a3.73,3.73,0,0,0,0,3,5.55,5.55,0,0,0,2,2.32,7.2,7.2,0,0,0,5.69,1.24,8.75,8.75,0,0,0,4.54-3.34,17,17,0,0,0,2.43-4.91,33.82,33.82,0,0,0,1.19-5.05c.3-1.65.51-3.25.66-4.8a66.93,66.93,0,0,0-1.17-20.47c-.3-1.36-.55-2.4-.74-3.09l-.2-.79a1.1,1.1,0,0,1-.05-.28s.49,1.41,1.13,4.13a63.88,63.88,0,0,1,1.58,11.94,65.25,65.25,0,0,1-.22,8.59c-.15,1.56-.35,3.17-.64,4.83a34.11,34.11,0,0,1-1.18,5.11,17.26,17.26,0,0,1-2.46,5A9.22,9.22,0,0,1,155,177.6a7.66,7.66,0,0,1-6.05-1.28,6.2,6.2,0,0,1-2.13-2.51,4.18,4.18,0,0,1,0-3.36l0-.06.06,0a7.39,7.39,0,0,1,5.76-.92,9.41,9.41,0,0,1,5.15,3.22,14.25,14.25,0,0,1,2.72,5.66,24.54,24.54,0,0,1,.66,6.42,34.87,34.87,0,0,1-3,13A57.85,57.85,0,0,1,151,209.58c-4.63,6.11-9.86,11.46-14.39,17A93.64,93.64,0,0,0,125.43,244a92,92,0,0,0-6.58,17.53A101.88,101.88,0,0,0,116,277.62a96,96,0,0,0,.83,23.6c.25,1.38.43,2.61.65,3.66s.44,1.93.6,2.66l.37,1.64C118.52,309.55,118.54,309.74,118.54,309.74Z"/><path class="cls-2" d="M406.52,213.45a2,2,0,0,1,.09-.4c.08-.28.18-.66.31-1.14a25.35,25.35,0,0,0,.65-4.5,29.7,29.7,0,0,0-.48-7.16,42.72,42.72,0,0,0-2.83-9.09A74.13,74.13,0,0,0,398.74,181c-2.22-3.53-4.76-7.19-7.23-11.19a59.58,59.58,0,0,1-6.42-13.27,31.31,31.31,0,0,1-1.27-15.7,19.46,19.46,0,0,1,3.06-7.46,10.44,10.44,0,0,1,2.87-2.79,7.31,7.31,0,0,1,3.76-1.2,6.76,6.76,0,0,1,3.76.94,5.37,5.37,0,0,1,1.46,1.31,4.72,4.72,0,0,1,.49.84c.07.15.14.29.2.44l.12.48a5.24,5.24,0,0,1-.56,3.69,7.83,7.83,0,0,1-2.42,2.72,6.88,6.88,0,0,1-3.33,1.24,8.3,8.3,0,0,1-3.41-.5,12.43,12.43,0,0,1-5.21-3.9,17.15,17.15,0,0,1-1.76-2.56c-.25-.44-.46-.9-.67-1.35a14.7,14.7,0,0,1-.59-1.36,23.68,23.68,0,0,1-1.38-5.43,25.86,25.86,0,0,1,.61-9.56,24,24,0,0,1,2.83-6.66,22,22,0,0,1,2.78-3.63l.85-.84.3-.27a1.41,1.41,0,0,1-.26.31l-.81.87a23.45,23.45,0,0,0-2.69,3.66,24.67,24.67,0,0,0-2.72,6.63,25.59,25.59,0,0,0-.52,9.44,22.69,22.69,0,0,0,1.39,5.33,11.15,11.15,0,0,0,.58,1.33c.21.44.41.89.67,1.32a16.59,16.59,0,0,0,1.72,2.5,12,12,0,0,0,5,3.74,7.83,7.83,0,0,0,3.22.46,6.31,6.31,0,0,0,3.1-1.17,7.22,7.22,0,0,0,2.26-2.55,4.78,4.78,0,0,0,.51-3.35l-.11-.42-.18-.4a4.33,4.33,0,0,0-.44-.75,4.81,4.81,0,0,0-1.32-1.18,6.28,6.28,0,0,0-3.49-.86,8.18,8.18,0,0,0-6.22,3.78,19.07,19.07,0,0,0-3,7.26,30.84,30.84,0,0,0,1.25,15.45,59.45,59.45,0,0,0,6.34,13.17c2.45,4,5,7.66,7.18,11.21A72.44,72.44,0,0,1,404.6,191a42.56,42.56,0,0,1,2.78,9.17,30.31,30.31,0,0,1,.4,7.23,23.72,23.72,0,0,1-.76,4.52l-.36,1.13A1.71,1.71,0,0,1,406.52,213.45Z"/><path class="cls-5" d="M384.65,104.13c-10.52-11.61-16.42-29.48-19.21-44.9s.4-32.28,10.46-44.29S403.27-3.24,418.13,1.72C434.05,7,444.32,24,444.72,40.78s-11.4,34.42-24.84,44.47c-15.18,11.35-19.66,15.28-35.23,18.88"/><path class="cls-5" d="M389.31,108.88a15.7,15.7,0,0,1-1.79-8.15l-1.91,1c-2.15.93-5,4.63-6.16,6.63-.35.58-.62,1.38-.18,1.89s1.38.3,2-.13a4.93,4.93,0,0,1,1.77-1.2,5.27,5.27,0,0,0-.47,2.19,1.55,1.55,0,0,0,3.05.45,4.92,4.92,0,0,0,.18-2.26,5.25,5.25,0,0,0,1.35,2.44,1.8,1.8,0,0,0,2.51,0C390.2,110.88,389.73,109.78,389.31,108.88Z"/><path class="cls-2" d="M388.17,103.24c.18.26-.9,1.12-2.46.89s-2.37-1.33-2.12-1.53,1.11.25,2.28.39S388,103,388.17,103.24Z"/><path class="cls-4" d="M435.53,55a9.37,9.37,0,0,1-.89,2.2,61.08,61.08,0,0,1-3,5.7,85.64,85.64,0,0,1-30,29.76,60.07,60.07,0,0,1-5.72,3,9.54,9.54,0,0,1-2.2.87c-.09-.18,2.93-1.67,7.5-4.56a99.14,99.14,0,0,0,16.48-13.12A99.29,99.29,0,0,0,430.9,62.51C433.83,58,435.35,55,435.53,55Z"/><path class="cls-4" d="M439.27,37.55c.31,0,.25,2.35-.15,5.14s-1,5-1.28,5-.25-2.35.14-5.15S439,37.5,439.27,37.55Z"/><polygon class="cls-8" points="493.3 180.08 565.76 106.73 565.9 108.83 583 126.88 516.08 220.09 493.3 180.08"/><path class="cls-8" d="M564.92,107.92s-.37-17.87,0-19.61c.86-4,4.49-9.62,5.18-12.91S571.55,67,571.55,67a3.81,3.81,0,0,1,4.19,2.23c2,4.15-.39,15.86-.39,15.86s24.1-26.29,25.84-27.68,5.38-1.39,5.55,2.08-15.1,22.21-14.57,24.82,2.42.86,2.42.86,18-18.22,21.52-18.57,3.65,1.74,2.78,4.52S600,89.87,600,89.87s4.86,1.73,2.61,6.25c0,0,4,.86,3.82,4.68a8.21,8.21,0,0,1-3.2,5.93s-17.11,19.12-18.15,20.13-6.94,1.53-6.94,1.53Z"/><path class="cls-9" d="M602.25,96.21s-.06.12-.2.31a9.46,9.46,0,0,1-.65.81,22.78,22.78,0,0,1-2.71,2.69,26.59,26.59,0,0,1-4.7,3.19q-.71.38-1.47.72a7,7,0,0,1-1.65.6,2.5,2.5,0,0,1-1.89-.27,2.76,2.76,0,0,1-1.12-1.61,3.61,3.61,0,0,1,0-1.93,4.81,4.81,0,0,1,.89-1.62,15.88,15.88,0,0,1,2.49-2.28l4.39-3.54,3-2.35a6.6,6.6,0,0,1,1.14-.8,7,7,0,0,1-1,1l-2.88,2.48-4.33,3.62a16.17,16.17,0,0,0-2.39,2.23,3.39,3.39,0,0,0-.81,3.1,2.21,2.21,0,0,0,.89,1.3,2,2,0,0,0,1.51.21,7,7,0,0,0,1.55-.55c.5-.22,1-.46,1.45-.7a28.12,28.12,0,0,0,4.68-3,32.79,32.79,0,0,0,2.8-2.54A9.54,9.54,0,0,1,602.25,96.21Z"/><path class="cls-9" d="M606.08,101.44a5.33,5.33,0,0,1-.81,1.08,24,24,0,0,1-2.6,2.61,27,27,0,0,1-4.49,3.12,21.6,21.6,0,0,1-2.94,1.37,3.19,3.19,0,0,1-1.82.13,2.35,2.35,0,0,1-1.46-1.21,3.59,3.59,0,0,1,.19-3.54,9.55,9.55,0,0,1,2.26-2.38l4.21-3.44,2.86-2.28a6.24,6.24,0,0,1,1.1-.78,7.79,7.79,0,0,1-1,.93l-2.76,2.42L594.71,103a9.19,9.19,0,0,0-2.12,2.27,3,3,0,0,0-.17,3,1.83,1.83,0,0,0,1.14,1,2.65,2.65,0,0,0,1.52-.11,23.58,23.58,0,0,0,2.87-1.31,29.59,29.59,0,0,0,4.49-3,32.36,32.36,0,0,0,2.68-2.46A10,10,0,0,1,606.08,101.44Z"/><path class="cls-8" d="M88.25,116.12S73.06,121,71.87,123s-1.79,6-1.79,6-3.13,5.51-2.83,10l-1,12.67s3.28,2.68,4.62-.9l.45-3.28a11.16,11.16,0,0,0,1.86-5.2c0-.33.06-.66.08-1,0,0,1.78.11,2.83-3.32s.59-9.24.59-9.24l7.9-2.23,21.11,3.15S94.81,116.71,88.25,116.12Z"/><path class="cls-8" d="M118.91,141.19s52.61,56.11,52.61,57,58.24,41.16,58.24,41.16l-27.5,30.86-64.65-60s-33.47-53.88-33.47-54S118.91,141.19,118.91,141.19Z"/><path class="cls-3" d="M70.36,127.92c.42-12.28,3.08-14.1,4.6-16.23s2.64-3.32,2.86-6,1.58-14.17,1.93-17.86,2-9.13,1.67-11c0-.13,0-.24,0-.36a6.63,6.63,0,0,1,4.77-.77,7.15,7.15,0,0,1,1,.28,4.61,4.61,0,0,0,2.44.29c.38-.06.75-.15,1.1-.23a5.72,5.72,0,0,1,2.29-.23,4.11,4.11,0,0,1,1.36.45c-.07.32-.16.71-.29,1.19-.5,1.88.59,7.44.59,11.15s.22,15.32.18,18,.95,3.94,2.26,6.22,3.76,4.34,3,16.6-2.3,39.53-2.3,39.53c0,1.27-.11,2.65-.26,3.95-.28,2.5-.91,5.46-2.73,7.37a6.29,6.29,0,0,1-4.9,1.57c-1.84-.06-4.51-.19-7.24-.32s-5.38-.27-7.23-.39a6.58,6.58,0,0,1-4.46-1.73c-2.89-3.1-2.29-8-2.12-11.87C68.77,167.48,69.93,140.2,70.36,127.92Z"/><g class="cls-6"><path d="M77.16,113.17l.55-.77a11.54,11.54,0,0,0,2.77-6.46c.11-1.38.56-5.4,1-9.28v-.08c.37-3.31.76-6.73.92-8.47.06-.58.15-1.22.27-1.89l9.39.46c.05.68.08,1.32.08,1.91,0,1.74,0,5.19.09,8.52v.08c.05,3.91.11,7.94.09,9.33a11.57,11.57,0,0,0,2.12,6.71l.48.81c.17.3.36.6.56.92,1.15,1.8,2.73,4.27,2.09,14.26q-.42,6.61-.81,13.23c-.44,7.78-1,15.55-1.3,23.33-.14,3.16-.16,6.21-2.11,8.89-1.76,2.42-5.69,2.08-8.26,2a69.91,69.91,0,0,1-8.55-.71,7.19,7.19,0,0,1-4-1.77c-1.81-1.82-1.16-6.39-1.07-8.68q.36-8.7.73-17.41Q72.66,138,73,128c.34-10,2.15-12.3,3.48-14C76.74,113.73,77,113.45,77.16,113.17Z"/></g><path class="cls-4" d="M89.39,158.39l8.88.42,1.61-27.54-9.19-.43A13.8,13.8,0,0,0,76.26,144h0A13.78,13.78,0,0,0,89.39,158.39Z"/><path class="cls-3" d="M81.83,78.31l11.56.54A2,2,0,0,0,95.5,77h0a2,2,0,0,0-1.92-2.06L82,74.38a2,2,0,0,0-2.11,1.87h0A2,2,0,0,0,81.83,78.31Z"/><path class="cls-2" d="M93.73,78.83a39.86,39.86,0,0,1-6.31-.06,39.16,39.16,0,0,1-6.28-.58,38.45,38.45,0,0,1,6.31.06A36.9,36.9,0,0,1,93.73,78.83Z"/><path class="cls-7" d="M80.82,107c-.14,0,.27-5.69.91-12.67S83,81.73,83.16,81.74s-.26,5.69-.91,12.67S81,107.05,80.82,107Z"/><path class="cls-7" d="M73.32,125.22a13.55,13.55,0,0,1,.34-5.08,13.35,13.35,0,0,1,1.73-4.78c.14.06-.66,2.17-1.22,4.89S73.47,125.23,73.32,125.22Z"/><path class="cls-7" d="M70.82,172.36a7,7,0,0,1,0-1.32c0-.95.1-2.16.17-3.6.14-3,.25-7.23.38-11.86s.31-8.84.54-11.88c.11-1.52.23-2.74.33-3.59a6.92,6.92,0,0,1,.21-1.31,6.23,6.23,0,0,1,0,1.33c0,1-.1,2.15-.16,3.59-.14,3-.26,7.23-.39,11.87s-.3,8.84-.53,11.88c-.12,1.51-.23,2.74-.34,3.58A5.86,5.86,0,0,1,70.82,172.36Z"/><path class="cls-8" d="M118.53,140.88,105,128l-12.65-5.5-13.58,3.3s-2.2,2.93,3.49,4.22a85.91,85.91,0,0,0,11.92,1.65l5.87,7.34-1.58,20L109,163.62l12.9-19.25Z"/><path class="cls-2" d="M329.09,121.61a10,10,0,0,1,10.24-5.28,13.62,13.62,0,0,1,16.77,0,12.12,12.12,0,0,1,18.48,9.53,10.12,10.12,0,0,1,9.19,16.87,9.73,9.73,0,0,1-3.71,19L331.14,133A10,10,0,0,1,329.09,121.61Z"/><path class="cls-8" d="M381.5,163a41.28,41.28,0,0,0-41.92-37.1l-2.13,0c-23,1.82-34.33,22.38-31.87,45.34L310.5,248l3.35,9.59,32.55,68,30.66-49.86-13.37-34s22.08-3.9,21.9-26.05C385.5,205,383.52,182.94,381.5,163Z"/><path class="cls-9" d="M363.66,241.74s-13.92,1.08-29-8c0,0,7.12,15.84,29,13.46Z"/><path class="cls-2" d="M372.7,184.88a3.16,3.16,0,0,1-3,3.26,3,3,0,0,1-3.32-2.79,3.16,3.16,0,0,1,3-3.25A3,3,0,0,1,372.7,184.88Z"/><path class="cls-2" d="M377.24,175.09c-.39.42-2.82-1.31-6.22-1.23s-5.86,1.84-6.24,1.43c-.19-.18.2-.94,1.27-1.75a8.62,8.62,0,0,1,5-1.65,8.33,8.33,0,0,1,5,1.49C377.06,174.16,377.43,174.9,377.24,175.09Z"/><path class="cls-2" d="M343.21,185.74a3.16,3.16,0,0,1-3,3.25,3,3,0,0,1-3.32-2.79,3.17,3.17,0,0,1,3-3.25A3,3,0,0,1,343.21,185.74Z"/><path class="cls-2" d="M344.67,175.29c-.39.42-2.82-1.31-6.22-1.23s-5.87,1.83-6.24,1.42c-.19-.18.19-.93,1.27-1.74a8.62,8.62,0,0,1,5-1.65,8.33,8.33,0,0,1,5,1.49C344.48,174.36,344.85,175.1,344.67,175.29Z"/><path class="cls-2" d="M356.4,200.28c0-.19,2.08-.6,5.5-1.11.87-.11,1.69-.3,1.82-.9a4.36,4.36,0,0,0-.63-2.56l-2.71-6.57c-3.76-9.34-6.5-17-6.12-17.19s3.73,7.31,7.49,16.66q1.37,3.46,2.6,6.61a5,5,0,0,1,.52,3.4,2.17,2.17,0,0,1-1.4,1.3,6.21,6.21,0,0,1-1.47.24C358.55,200.41,356.41,200.47,356.4,200.28Z"/><path class="cls-2" d="M344.51,165.56c-.39.89-3.33.16-6.9.29s-6.51.94-6.89.07c-.17-.42.41-1.24,1.64-2a10.78,10.78,0,0,1,5.26-1.5,10.31,10.31,0,0,1,5.25,1.23C344.1,164.35,344.68,165.14,344.51,165.56Z"/><path class="cls-2" d="M376.27,165.77c-.51.83-2.93.27-5.74.52s-5.12,1.05-5.75.31c-.28-.37,0-1.18,1-2a8.37,8.37,0,0,1,9.27-.67C376.09,164.61,376.5,165.37,376.27,165.77Z"/><path class="cls-2" d="M379.16,152.92s-6.12-13.75-12.88-16.85c-8.17-3.75-11.48,5.21-19.24,3.21s-15.57-5.6-23.33.53c-8.5,6.71-4.36,11.2-4.69,21-1.34,39.89-8.38,51.31-10.84,32.58-.27-2.05-6-3.57-7-12.24-1.33-11.24-2-24.91.3-32.95,2-6.78,5.73-11.52,12.51-16.79,10.71-8.33,25.64-8.81,35.81-8S379.73,135.53,379.16,152.92Z"/><path class="cls-8" d="M309.58,192.8a6,6,0,0,0-6.61-5.66c-4.12.48-8.67,2.92-8.22,11.45.79,15.13,15.82,11.21,15.82,10.77S310,199.13,309.58,192.8Z"/><path class="cls-9" d="M307,203.84c-.07,0-.25.2-.69.43a2.6,2.6,0,0,1-2,.14c-1.63-.5-3.11-3-3.33-5.69a8.74,8.74,0,0,1,.54-3.81,3.06,3.06,0,0,1,1.88-2.13,1.34,1.34,0,0,1,1.59.64c.22.41.14.72.23.74s.31-.27.15-.89a1.69,1.69,0,0,0-.64-.91,2,2,0,0,0-1.48-.31,3.7,3.7,0,0,0-2.63,2.49,8.86,8.86,0,0,0-.69,4.26c.25,3,2,5.82,4.19,6.34a2.84,2.84,0,0,0,2.39-.53C307,204.21,307,203.87,307,203.84Z"/><path class="cls-2" d="M309.27,163.46c2,1.3,4.1,2.64,6.48,2.83s5.05-1.24,5.4-3.59c.16-1.06-.12-2.28.56-3.11.8-1,2.33-.71,3.61-.6a9.66,9.66,0,0,0,9.88-7.14c1.16,1.66,3.78,1.53,5.46.4s2.73-2.94,4-4.49,3.14-3,5.14-2.71c1.13.13,2.19.78,3.31.66,2-.22,2.91-2.57,3.17-4.55s.45-4.29,2.11-5.39,3.57-.5,5.41-.27,4.19-.24,4.62-2a3.59,3.59,0,0,0-.73-2.73,9.82,9.82,0,0,0-11.66-3.48,13.29,13.29,0,0,0-24.47-2.07,13.49,13.49,0,0,0-21.46,5.36A9.78,9.78,0,0,0,299.4,145c-2.69,1.61-5,4.36-5,7.5s3.13,6.2,6.13,5.31a5.42,5.42,0,0,0,9.48,5.21"/><path class="cls-3" d="M299.46,157.79s-.25,1.28,1,2.89a4.9,4.9,0,0,0,3.07,1.75,5.24,5.24,0,0,0,4.29-1.35l-.64-.08a14.79,14.79,0,0,0,3.1,3.71,8.47,8.47,0,0,0,2.79,1.66,5.84,5.84,0,0,0,3.05.22,6,6,0,0,0,4.32-2.59,8.7,8.7,0,0,0,1.16-3.18c.14-.78.15-1.22.09-1.23a4.44,4.44,0,0,0-.42,1.15,10.23,10.23,0,0,1-1.34,2.91c-1.39,2.2-6,3.4-9.09.4a15.18,15.18,0,0,1-3-3.48l-.27-.44-.37.36a4.59,4.59,0,0,1-3.63,1.23,4.47,4.47,0,0,1-2.77-1.38A7.41,7.41,0,0,1,299.46,157.79Z"/><path class="cls-3" d="M327.36,122.62s.4.09,1.08.37a5.11,5.11,0,0,1,2.39,2l.19.28.2-.28a18.86,18.86,0,0,1,7.2-6.08,14.63,14.63,0,0,1,5.94-1.43,12.26,12.26,0,0,1,6.45,1.7,12.39,12.39,0,0,1,3.89,3.54,10.22,10.22,0,0,1,1.76,4.53l.06.48.45-.14a8.48,8.48,0,0,1,6.31.64,8.25,8.25,0,0,1,3.52,3.61,11.42,11.42,0,0,1,1,4.47A3.17,3.17,0,0,0,368,135a8.48,8.48,0,0,0-.76-3.43,8.63,8.63,0,0,0-3.64-4,9.09,9.09,0,0,0-6.85-.81l.51.34a10.86,10.86,0,0,0-1.86-4.93,13.19,13.19,0,0,0-11.06-5.6,15.42,15.42,0,0,0-6.25,1.59,18.55,18.55,0,0,0-7.26,6.5h.39a5.06,5.06,0,0,0-2.7-1.92A2.13,2.13,0,0,0,327.36,122.62Z"/><path class="cls-9" d="M347.42,205.61s-4.37,9.12,5,11.31a4.53,4.53,0,0,0,2.45-.13h0a4.57,4.57,0,0,0,2.94-3.16l1.29-5C358.65,208.78,347.42,205.61,347.42,205.61Z"/><path class="cls-2" d="M357.2,215.58s-.06.1-.2.25a3.31,3.31,0,0,1-.7.58,5.78,5.78,0,0,1-3.23.86,6.12,6.12,0,0,1-4.51-2,8.72,8.72,0,0,1-2.06-5.69,9.6,9.6,0,0,1,.49-3.14,2.61,2.61,0,0,1,.38-.74,1.2,1.2,0,0,1,.79-.43,3.72,3.72,0,0,1,1.49.31l4.62,1.61,3.11,1.12a6.2,6.2,0,0,1,1.12.48,5,5,0,0,1-1.18-.29l-3.16-1-4.67-1.5c-2.11-1.33-2.42,1.67-2.47,3.54a8.35,8.35,0,0,0,1.9,5.37,5.82,5.82,0,0,0,4.17,1.93,6,6,0,0,0,3.11-.66C356.86,215.87,357.16,215.54,357.2,215.58Z"/><path class="cls-7" d="M492.49,173.94l-14.56,5.22v13.07L446.21,215l-44.82,15.6a17.61,17.61,0,0,0-6.71,4.25l-9.07,12.72L367,243.65l-1.63,31.77-21,33.22-15.49-31.9-10.26-22.32-8.11-13.9-5.35,10.1-2.29,1H283.09l-28.37-1.87L232,238.89l-26.13-14.56-25.38,43.3,9.33,11.57L204,280.32,242.42,300l18.14,16.21,17.3,87.67,11.63,42.52H446.64s-9.92-37.36-11-49.31-3.63-80.9-3.63-80.9l1.59-22.25,70.5-60.27,5.6,3,11.95-11.58Z"/><path class="cls-2" d="M492.49,173.94,521.7,225l0,.07-.06.07-11.94,11.58-.07.06-.08,0-5.6-3,.15,0-70.47,60.31.07-.13c-.49,6.85-1,14.46-1.59,22.25v0c.74,19.63,1.54,40.5,2.58,62.44.27,5.49.53,11.05.94,16.65a68.67,68.67,0,0,0,1.13,8.39c.51,2.8,1.09,5.6,1.7,8.41,2.45,11.24,5.31,22.66,8.35,34.27l.08.29h-.3l-157.15,0h-.2l-.05-.18c-3.67-13.44-7.63-27.9-11.63-42.52h0c-4-20.15-8.19-41.49-12.45-63.1q-2.45-12.35-4.85-24.57l.08.14-18.14-16.21.05,0-38.46-19.67.1,0-14.19-1.13h-.11l-.07-.09q-4.68-5.82-9.33-11.57l-.11-.14.09-.15,25.39-43.3.12-.21.21.12,24.39,13.59c2,1.18,4.09,2.05,6.14,3.06l6.16,2.93,12.19,5.8-.08,0,24.39,1.61c4,.38,8,.23,11.92.26h11.67l2.29-1-.11.1c1.84-3.48,3.6-6.8,5.35-10.09l.19-.37.21.36,8.1,13.9h0l6.53,14.22c1.08,2.33,2.14,4.65,3.2,7s2.19,4.55,3.27,6.8l12.73,26.25-.35,0,21-33.21,0,.09c.59-11.3,1.13-21.77,1.64-31.77v-.21l.2,0,18.64,3.94-.17.07c3.37-4.72,6.26-8.78,9.08-12.72h0a17.72,17.72,0,0,1,6.71-4.26L408.5,228l13.6-4.73,24.07-8.36,0,0,31.75-22.73,0,.06c0-6.17,0-9.88,0-13.07v0h0l14.57-5.17L478,179.22l0-.06c0,3.19,0,6.9,0,13.07v0l0,0-31.7,22.8h0l-24.05,8.4-13.6,4.74-7.22,2.52a17.43,17.43,0,0,0-6.59,4.19l0,0-9.07,12.73-.06.09-.11,0-18.64-3.92.21-.16c-.51,10-1,20.47-1.61,31.77v.05l0,0q-10,15.89-21,33.23l-.2.31-.16-.33-12.75-26.25c-1.08-2.25-2.21-4.5-3.27-6.8s-2.13-4.62-3.2-7l-6.54-14.21v0c-2.64-4.53-5.32-9.1-8.11-13.89h.39l-5.34,10.1,0,.07-.08,0-2.3,1,0,0h-11.8c-3.95,0-7.94.12-11.94-.26L254.7,250h0l0,0-12.21-5.8-6.16-2.93c-2.05-1-4.17-1.88-6.15-3.06l-24.4-13.59.34-.1-25.38,43.31,0-.29L190,279l-.18-.1L204,280.06H204l0,0,38.47,19.67h0l0,0L260.74,316l.06.06,0,.09q2.42,12.21,4.85,24.57c4.26,21.61,8.47,42.95,12.45,63.1v0c4,14.63,7.95,29.08,11.62,42.52l-.24-.19,157.15,0-.23.29c-3-11.62-5.89-23-8.34-34.3-.61-2.81-1.19-5.62-1.7-8.42a71.34,71.34,0,0,1-1.13-8.43c-.41-5.62-.66-11.18-.93-16.67-1-21.95-1.81-42.81-2.54-62.45h0c.57-7.79,1.11-15.39,1.61-22.25v-.07l.06,0L504,233.56l.07-.06.08,0,5.59,3-.15,0,12-11.57,0,.14Z"/><path class="cls-2" d="M342.91,308.35a6.83,6.83,0,0,1-.41-.64c-.26-.46-.63-1.08-1.09-1.87l-4-7c-3.41-6.06-8.18-14.51-13.67-24.25l.38.07a29.07,29.07,0,0,0-4.09,5c-1.25,1.85-2.43,3.82-3.55,5.86a48.18,48.18,0,0,0-3.83,8.56l-.36,1.21-.14-1.26c-.65-6-1.73-11.67-2.68-16.74s-1.85-9.58-2.51-13.36-1.13-6.81-1.38-8.91c-.14-1-.2-1.86-.25-2.41,0-.26,0-.46-.05-.63a.65.65,0,0,1,0-.22.91.91,0,0,1,.05.21c0,.17.05.37.09.62.08.55.17,1.36.34,2.4.3,2.09.82,5.12,1.53,8.88s1.63,8.28,2.62,13.33,2.09,10.7,2.75,16.78l-.5,0a48.12,48.12,0,0,1,3.86-8.67c1.13-2.05,2.32-4,3.58-5.9a29.44,29.44,0,0,1,4.19-5.09L324,274l.16.27,13.51,24.34,3.9,7.12,1,1.91A5.16,5.16,0,0,1,342.91,308.35Z"/><path class="cls-2" d="M365.34,447.31a2.08,2.08,0,0,1-.07-.36q-.07-.39-.18-1.05c-.15-1-.37-2.32-.64-4.06s-.61-3.91-1.06-6.4a65.59,65.59,0,0,0-2-8.35c-1-3-2.14-6.33-3.24-9.91s-2.22-7.44-3.36-11.49c-2.3-8.09-4.93-17.07-5.74-26.81s-1.16-19-1.45-27.4-.55-16-1-22.36-1-11.49-1.5-15c-.21-1.77-.51-3.12-.64-4.05l-.17-1.05a1.44,1.44,0,0,1,0-.37,1.8,1.8,0,0,1,.09.36l.22,1c.17.92.5,2.27.74,4,.61,3.52,1.19,8.65,1.67,15s.79,14,1.09,22.38.57,17.68,1.49,27.36,3.41,18.63,5.68,26.73c1.13,4.06,2.22,7.91,3.32,11.49s2.23,6.88,3.17,9.93a64.42,64.42,0,0,1,1.9,8.41c.42,2.5.72,4.66,1,6.42s.42,3.11.54,4.07l.13,1.06A2,2,0,0,1,365.34,447.31Z"/><path class="cls-3" d="M376.6,283.93s-27.49,40.66-33.27,39-26.6-38.5-26.6-38.5l5-7.43s23,43.79,22.93,43.87L371,278.74Z"/><polygon class="cls-3" points="351.02 321.64 349.14 314.89 342.68 314.89 338.15 321.64 341.29 330.43 348.04 329.33 351.02 321.64"/><path class="cls-3" d="M348,329.33l-6.75,1.1s-15.13,115.12-15.13,116h38.3Z"/><path class="cls-2" d="M247.2,279.79a1.88,1.88,0,0,1,.24.46c.17.36.37.8.61,1.34.52,1.17,1.25,2.87,2.12,5,1.75,4.23,4.07,10.11,6.43,16.69s4.33,12.58,5.67,17c.67,2.18,1.2,4,1.54,5.19.16.57.28,1,.39,1.43a2.6,2.6,0,0,1,.1.5,1.58,1.58,0,0,1-.2-.47l-.48-1.4c-.43-1.29-1-3-1.7-5.14-1.43-4.34-3.45-10.33-5.81-16.9s-4.62-12.46-6.28-16.72l-2-5.05-.52-1.38A1.56,1.56,0,0,1,247.2,279.79Z"/><path class="cls-2" d="M441.49,246.38a3.88,3.88,0,0,1-.14.76c-.12.55-.29,1.27-.49,2.17-.44,1.88-1.06,4.6-1.8,8-1.47,6.74-3.3,16.1-4.84,26.52s-2.46,19.91-3,26.79c-.27,3.44-.46,6.23-.57,8.16q-.11,1.38-.15,2.22c-.05.5-.08.77-.09.77a3.6,3.6,0,0,1,0-.78q0-.84.06-2.22c.05-1.93.18-4.73.4-8.17.44-6.9,1.32-16.41,2.85-26.85s3.43-19.8,5-26.52c.78-3.37,1.46-6.08,2-7.95.25-.89.44-1.61.59-2.14A3.81,3.81,0,0,1,441.49,246.38Z"/><path class="cls-2" d="M346.05,307.43a4.26,4.26,0,0,1,.4-.64l1.24-1.81,4.68-6.67,16-22.54.21-.29.21.3a44.15,44.15,0,0,0,6.32,6.46,39.49,39.49,0,0,1,5.75,6l-.47.09c2.44-11,4-20.8,5.05-27.8.54-3.5.93-6.32,1.2-8.25.12-.94.22-1.68.3-2.23a4.61,4.61,0,0,1,.13-.77,6.42,6.42,0,0,1,0,.78c0,.51-.11,1.27-.21,2.24-.21,1.95-.55,4.77-1,8.28-1,7-2.47,16.84-4.89,27.86l-.12.57-.34-.48a38.63,38.63,0,0,0-5.67-5.88,44.05,44.05,0,0,1-6.4-6.57h.42l-16.18,22.44-4.8,6.58-1.31,1.75A4.32,4.32,0,0,1,346.05,307.43Z"/><g class="cls-6"><polygon points="346.67 306.57 369.15 281.75 381.21 294.16 384.58 267.51 380.68 288.37 368.62 275.92 346.67 306.57"/></g><path class="cls-10" d="M363.18,242c.42,0,3.37-2.38,5.81-.84a6.49,6.49,0,0,1,2.87,4.06s-.7,9.57-2.87,10.45-4.38.84-4.61-2C364.06,249.77,363.18,242,363.18,242Z"/><path class="cls-10" d="M380.67,246.6s.42-4.61-3.78-5.73-5,.84-5,.84-3.78,13-1.12,15.11,4.06,1.4,5.18-2S380.67,246.6,380.67,246.6Z"/><path class="cls-10" d="M389.71,242.23s-3.74-2-5.56-1.24a14.25,14.25,0,0,0-3.75,2.66s-5.76,8.43-3,9.69,5,.84,5.88,0S389.71,242.23,389.71,242.23Z"/><path class="cls-2" d="M174.66,196c-.83-9.59-1.6-19.24-.76-28.82s3.37-19.2,8.68-27.23c.81-1.22,7.11-9.17,8.49-8.7,1,.33-3.55,8.06-3.24,9.06,2.93,9.51,1.91,19.9-1.12,29.38A130.58,130.58,0,0,1,174.66,196"/><path class="cls-10" d="M209.18,284.06c1.61-6.6,8.87-35.67,8.92-35.66s23.26,3,30-19.17c3.25-10.71,8.14-33.29,12.33-53.79a43.15,43.15,0,0,0-30.26-50.1l-2.15-.62c-23.54-5.36-41.24,11.63-45.94,35.31L163,242.32l11.53,22.73c9.2,18.12,30.67,34.76,35.34,15Z"/><path class="cls-11" d="M218.1,248.4s-14.26-3.24-26.48-17c0,0,2.37,18.23,25.15,22.66Z"/><path class="cls-2" d="M248.06,191a3.31,3.31,0,0,1-4,2.32,3.16,3.16,0,0,1-2.44-3.81,3.3,3.3,0,0,1,4-2.32A3.17,3.17,0,0,1,248.06,191Z"/><path class="cls-2" d="M253,180.49c-.52.3-2.41-2.18-5.83-3.16s-6.42,0-6.67-.53c-.13-.24.49-.87,1.81-1.35a9.05,9.05,0,0,1,5.49-.09,8.73,8.73,0,0,1,4.49,3C253.09,179.51,253.23,180.36,253,180.49Z"/><path class="cls-2" d="M219.2,184.42a3.32,3.32,0,0,1-4,2.32,3.17,3.17,0,0,1-2.44-3.82,3.31,3.31,0,0,1,4-2.32A3.18,3.18,0,0,1,219.2,184.42Z"/><path class="cls-2" d="M221,174.31c-.52.3-2.41-2.17-5.83-3.16s-6.42,0-6.67-.52c-.13-.24.48-.87,1.81-1.35a9.05,9.05,0,0,1,5.49-.09,8.73,8.73,0,0,1,4.49,3C221.1,173.33,221.24,174.19,221,174.31Z"/><path class="cls-2" d="M223.74,204.78c0-.2,2.28.05,5.85.61.9.16,1.77.23,2.09-.33a4.58,4.58,0,0,0,.17-2.75c-.21-2.35-.42-4.82-.65-7.4-.85-10.5-1.18-19-.76-19.07s1.45,8.46,2.29,19c.19,2.58.37,5,.53,7.4.05,1.09.29,2.38-.54,3.56a2.29,2.29,0,0,1-1.8.86,6,6,0,0,1-1.54-.23C225.86,205.59,223.7,205,223.74,204.78Z"/><path class="cls-2" d="M224.27,162c-.74.72-3.74-1.24-7.71-2.61s-7.52-1.81-7.64-2.83c0-.49.89-1.05,2.52-1.3a14.2,14.2,0,0,1,11.69,4.15C224.24,160.63,224.61,161.65,224.27,162Z"/><path class="cls-2" d="M256.32,170.21c-.83.6-2.95-.89-5.77-1.75s-5.38-1-5.7-2c-.12-.46.48-1.13,1.74-1.56a8.71,8.71,0,0,1,9.24,3C256.6,169,256.7,169.9,256.32,170.21Z"/><path class="cls-10" d="M179.1,177c-.33-.27-14-8.95-17.9,6.4s12.3,16.12,12.43,15.69S179.1,177,179.1,177Z"/><path class="cls-11" d="M170.43,192.1c-.05-.06-.31.12-.82.21a2.74,2.74,0,0,1-2-.47c-1.47-1-2.17-3.93-1.54-6.72a9.08,9.08,0,0,1,1.73-3.63,3.17,3.17,0,0,1,2.53-1.54,1.4,1.4,0,0,1,1.39,1.14c.1.48-.08.76,0,.81s.39-.18.43-.84a1.78,1.78,0,0,0-.36-1.12,2.11,2.11,0,0,0-1.38-.77,3.89,3.89,0,0,0-3.4,1.67,9.4,9.4,0,0,0-2,4c-.69,3.12.15,6.42,2.21,7.63a3,3,0,0,0,2.55.21C170.31,192.47,170.48,192.14,170.43,192.1Z"/><path class="cls-2" d="M256.74,147.49c2.83-.76-2.66-10.66-8.09-15-8.22-6.47-21.7-12.53-30.82-12.21-11,.38-20.77,3.39-28.23,11.46S177.53,150.28,175.2,161c-.71,3.27-1.2,6.75-.14,9.93,1.31,3.93,4.9,7.09,3.57,11.73a6.61,6.61,0,0,0,.44,5.09c2.08,3.69,6.21,1.73,8.49-.71,4.87-5.19,7-12.29,9-19.12,1.42-4.85,2.85-9.82,2.63-14.87-.12-2.75-.73-5.47-.7-8.22s.84-5.69,3-7.41a9.46,9.46,0,0,1,1.56-1,16.5,16.5,0,0,1,16.66.89c7.91,5.2,21.58,13.42,26.17,11.43,6.6-2.86,8.61-5.29,8.61-5.29Z"/><path class="cls-11" d="M226.24,212.63a52.91,52.91,0,0,0-6.52-2.64,3.25,3.25,0,0,0-2.26-.25,2.7,2.7,0,0,0-1.44,1.83,8,8,0,0,0,2.08,8.61,7.8,7.8,0,0,0,3.54,1.39,4.28,4.28,0,0,0,4.22-2.12,20.06,20.06,0,0,0,2.08-5.93"/><path class="cls-2" d="M224.41,221s-.09.06-.28.14a5,5,0,0,1-.86.23,7.7,7.7,0,0,1-3.27-.16,5.77,5.77,0,0,1-3.85-2.93,9.53,9.53,0,0,1-.56-5.91,11.19,11.19,0,0,1,1.25-3.23l.1-.18.2.06A70.26,70.26,0,0,1,225,211.9c1,.44,1.7.83,2.19,1.12s.76.47.74.5-1.13-.54-3.06-1.32-4.69-1.74-7.9-2.73l.3-.12a11,11,0,0,0-1.18,3.09,9.21,9.21,0,0,0,.49,5.6,5.46,5.46,0,0,0,3.51,2.77,8.37,8.37,0,0,0,3.14.32C224,221.05,224.4,220.91,224.41,221Z"/><path class="cls-12" d="M77.54,316.59l-6,38s-2.42,38.47-2,44.37,0,47.24,0,47.24l130.25,0-2.68-37.27,18.22-56,10.09,1.21,44.49,9.08-4.34-29-5.07-18.33-17.74-14.24-13-21.93L218.6,267l-.5-6.47-2.34-2.88-16.39,16.81s-3.86,29.75-3.86,31.3-6.57-56.53-6.57-56.53L164.6,221.87l-7.26,7.36-5-.32c-22.54,3.75-45.55,15.28-56.65,36.81l-4.07,7.89A142.16,142.16,0,0,0,77.54,316.59Z"/><path class="cls-2" d="M189.52,290.9a3.68,3.68,0,0,1-.14-.76l-.33-2.18c-.29-1.95-.71-4.71-1.22-8.14-1.1-6.93-2.8-16.63-5.29-27.65l.46.08c-2.09,3.16-4.29,6.51-6.55,9.95l-4.58,6.94-.28.42-.17-.47c-4.19-11.44-7.87-21.52-10.53-28.78-1.29-3.59-2.32-6.48-3.06-8.52-.34-1-.6-1.74-.8-2.3-.08-.24-.14-.44-.19-.6a1.23,1.23,0,0,1-.06-.21s0,.06.1.19.14.35.24.58l.89,2.28c.76,2,1.85,4.9,3.2,8.46l10.69,28.72-.46-.05,4.58-6.95c2.26-3.44,4.47-6.78,6.55-9.94l.33-.49.13.58c2.47,11,4.11,20.76,5.12,27.71.5,3.47.85,6.25,1.08,8.17.1.92.18,1.65.23,2.19A7.22,7.22,0,0,1,189.52,290.9Z"/><path class="cls-2" d="M218.6,267a1.44,1.44,0,0,1-.1.43c-.08.28-.21.7-.39,1.22-.35,1.05-.9,2.56-1.61,4.41-1.42,3.7-3.51,8.76-5.73,14.37-.59,1.52-1.16,3-1.68,4.42l-.18.5-.28-.46c-2.47-4.18-4.64-7.84-6.25-10.55l-1.79-3.12A6.8,6.8,0,0,1,200,277a6.53,6.53,0,0,1,.75,1.07l1.92,3,6.41,10.46-.46,0c.52-1.42,1.08-2.91,1.68-4.43,2.22-5.62,4.36-10.65,5.86-14.32.73-1.77,1.32-3.23,1.77-4.34A12.21,12.21,0,0,1,218.6,267Z"/><g class="cls-13"><path d="M197.51,399.32,166.58,385.2a29.63,29.63,0,0,1-7.7-4.5c-4-3.57-5.79-9-7.56-14a249.33,249.33,0,0,0-42.83-76.13l-10.6,3.86c-3.74,27.61,11,55,8.56,82.77-.54,6.18-1.85,12.79,1,18.3,2.18,4.21,6.51,7,11.06,8.32s9.35,1.44,14.09,1.52c-.71,7.37,5.64,14,12.75,16s14.72.53,21.89-1.31q9.36-2.4,18.51-5.56c3.45-1.19,7-2.54,9.55-5.12S199.22,402.54,197.51,399.32Z"/></g><path class="cls-2" d="M228.44,298.2c.14,0-3,13.6-7.08,30.29s-7.45,30.2-7.59,30.16,3-13.59,7.08-30.29S228.3,298.17,228.44,298.2Z"/><path class="cls-10" d="M115.46,343.88l15.64,42.69c3,8.21,13.23,24.66,25.23,34.82A23.46,23.46,0,0,0,184,423.06L272.34,367l-22.29-22.67L181.3,371.59l-6-2.44-8.15-32.89Z"/><path class="cls-12" d="M103.52,259.36c-1.36,1.95-7.63,7.06-5.3,33.68,2.4,27.47,25.53,97.28,25.53,97.28l52.39-27.53s-15.3-90.65-17.27-106.69-9.32-15.73-20.1-15.88S103.52,259.36,103.52,259.36Z"/><path class="cls-2" d="M132.5,241.56h.7c.46,0,1.16,0,2.06.14a25.33,25.33,0,0,1,7.66,2,28.2,28.2,0,0,1,7.53,5c.42.39.82.82,1.23,1.25l.63.64.58.71a34.16,34.16,0,0,1,4.32,6.61,39.71,39.71,0,0,1,1.73,4,44.63,44.63,0,0,1,1.44,4.32c.44,1.49.76,3.05,1.14,4.63s.66,3.23,1,4.89c.63,3.34,1.28,6.81,1.9,10.42,1.27,7.22,2.55,15,3.85,23.13,2.61,16.34,5.35,34.41,8.13,53.51l0,.18-.16.08-9.73,5.11-42.67,22.41-.26.14-.09-.28c-9.08-27.93-16-52.15-20.18-69.5-2.06-8.68-3.49-15.63-4.2-20.44-.1-.59-.2-1.16-.28-1.69l-.18-1.49c-.1-.92-.19-1.7-.26-2.33s-.12-1.09-.16-1.43,0-.48,0-.48,0,.16.08.48.11.81.19,1.42.18,1.41.3,2.32c.06.46.13,1,.2,1.49s.19,1.09.3,1.69c.76,4.79,2.24,11.72,4.33,20.38,4.26,17.32,11.25,41.52,20.36,69.42l-.35-.14,42.66-22.43,9.73-5.11-.14.27c-2.77-19.1-5.49-37.16-8.07-53.51-1.29-8.17-2.56-15.91-3.8-23.12-.62-3.62-1.26-7.09-1.88-10.42-.33-1.67-.66-3.3-1-4.89s-.69-3.14-1.12-4.62-.86-2.93-1.41-4.29a41.69,41.69,0,0,0-1.7-3.94,34.4,34.4,0,0,0-4.25-6.57l-.57-.7-.62-.65c-.41-.42-.8-.85-1.21-1.24a29,29,0,0,0-2.52-2.09,26,26,0,0,0-4.92-2.9,25.76,25.76,0,0,0-7.6-2.08,19,19,0,0,0-2-.18Z"/><path class="cls-12" d="M170.47,343.69s6.82-1.32,8.19,2.45,4,19.72,1.82,21.19-40.68,31.8-46.93,32.36c-5.15.46-13-6.35-17.42-13.85-4.94-8.39.91-15.68.91-15.68C116.11,367,170.47,343.69,170.47,343.69Z"/><path class="cls-2" d="M170.47,343.69l-.25.13-.77.35-3,1.35-11.29,5.05c-4.82,2.18-10.64,4.83-17.2,7.94-3.28,1.56-6.74,3.24-10.33,5.08-1.8.92-3.63,1.88-5.45,2.92-.92.52-1.83,1.06-2.73,1.65-.44.29-.88.6-1.29.93a4.94,4.94,0,0,0-.58.53.86.86,0,0,0-.29.47l0,.11-.09.12a14.91,14.91,0,0,0-2.76,7.27,13.43,13.43,0,0,0,1.75,7.88,38.1,38.1,0,0,0,5.11,6.88,30,30,0,0,0,6.8,5.55,11.6,11.6,0,0,0,4.42,1.53,7.16,7.16,0,0,0,1.14,0,5,5,0,0,0,1.09-.31,21.44,21.44,0,0,0,2.12-1c2.77-1.48,5.38-3.17,7.92-4.86,5.07-3.39,9.85-6.84,14.37-10.16s8.79-6.53,12.77-9.54l5.75-4.37,2.71-2.05a2.49,2.49,0,0,0,.54-1.38,12,12,0,0,0,.14-1.58,43.17,43.17,0,0,0-.32-6c-.2-1.89-.46-3.68-.74-5.34s-.59-3.2-.92-4.6c-.17-.7-.34-1.36-.55-2a3.44,3.44,0,0,0-1-1.46,5.73,5.73,0,0,0-2.86-1.11,16.2,16.2,0,0,0-3.7,0c-.32,0-.48.06-.49.05a3.71,3.71,0,0,1,.48-.1,11.93,11.93,0,0,1,1.41-.16,11.8,11.8,0,0,1,2.33.06,5.8,5.8,0,0,1,3,1.1,3.56,3.56,0,0,1,1.13,1.54c.22.63.41,1.3.58,2,.35,1.41.67,2.95,1,4.61s.57,3.45.79,5.36a44.89,44.89,0,0,1,.36,6.06,13,13,0,0,1-.14,1.63,2.75,2.75,0,0,1-.66,1.62L178,369.48l-5.73,4.39c-4,3-8.22,6.25-12.74,9.59s-9.3,6.79-14.38,10.2c-2.55,1.69-5.16,3.39-8,4.89a19.69,19.69,0,0,1-2.18,1,5.75,5.75,0,0,1-1.2.35,8.71,8.71,0,0,1-1.25,0,12.16,12.16,0,0,1-4.64-1.6A30.39,30.39,0,0,1,121,392.7a38.43,38.43,0,0,1-5.17-7,13.86,13.86,0,0,1-1.81-8.18,15.41,15.41,0,0,1,2.89-7.53l0,.22a1.11,1.11,0,0,1,.4-.94,5.5,5.5,0,0,1,.63-.57c.44-.35.89-.67,1.34-1,.91-.6,1.83-1.14,2.75-1.66,1.85-1,3.68-2,5.48-2.92,3.6-1.83,7.08-3.49,10.37-5,6.57-3.08,12.41-5.7,17.25-7.84s8.7-3.8,11.35-4.93l3-1.27.78-.32Z"/><path class="cls-2" d="M96.82,279.23a8.3,8.3,0,0,1,.13-1.46c.06-.47.14-1,.28-1.71s.26-1.41.49-2.23a41.81,41.81,0,0,1,1.88-5.65,42.69,42.69,0,0,1,7.8-12.28,40.58,40.58,0,0,1,4.31-4.1c.64-.56,1.27-1,1.81-1.4a16.63,16.63,0,0,1,1.43-1,7.5,7.5,0,0,1,1.27-.74,8.26,8.26,0,0,1-1.16.9c-.38.28-.85.62-1.36,1s-1.13.88-1.75,1.45a45.94,45.94,0,0,0-4.2,4.14,49.31,49.31,0,0,0-4.34,5.77,50.16,50.16,0,0,0-3.37,6.38,44.44,44.44,0,0,0-2,5.56c-.26.8-.4,1.55-.57,2.19s-.27,1.22-.36,1.68A7.36,7.36,0,0,1,96.82,279.23Z"/><path class="cls-7" d="M282.72,314.46c-9.46,1.27-17.94-1.82-23.68-12.06-6.25-11.17-5.13-34.2-5.13-34.2l15.85-5.76,13.54-4.82S299,274.44,301.43,287s-3.09,20.8-12.51,26l-.15,0-.27,1.88,12.76,35.88L312,351a.42.42,0,0,1,.13.82l-23.64,8.56a.42.42,0,0,1-.42-.71l9.13-7.62-12.75-35.86Z"/><path class="cls-2" d="M282.72,314.46l.41.46,1.24,1.33h0c1.72,4.87,6.21,17.62,12.64,35.9l.05-.19-8.45,7-.56.46-.14.12a.83.83,0,0,0-.16.21.63.63,0,0,0,0,.52.66.66,0,0,0,.4.33.83.83,0,0,0,.47-.06l.69-.25,2.81-1,5.81-2.09,12.28-4.44,1.6-.58.42-.15a.63.63,0,0,0,.35-.52.64.64,0,0,0-.24-.57.82.82,0,0,0-.54-.13l-3.46-.09-7.07-.17.21.16-12.75-35.89v.12c.09-.59.18-1.24.27-1.88l-.16.2.16-.06h0c4.19-2.28,8.35-5.64,10.79-10.27a22.87,22.87,0,0,0,2.25-13.09A33,33,0,0,0,298,277.47a84,84,0,0,0-6.83-10.61c-2.48-3.32-5-6.46-7.73-9.4l-.1-.11-.15,0L268,262.85,253.84,268l-.13.05v.13a121.17,121.17,0,0,0,.3,13.74,78.52,78.52,0,0,0,1.85,12.22,31.84,31.84,0,0,0,4.08,10,25,25,0,0,0,6.23,6.72,19.53,19.53,0,0,0,6.65,3.16,21.6,21.6,0,0,0,5.4.72c.74,0,1.39,0,1.95,0a12,12,0,0,0,1.41-.12l1.14-.15-1.14.09a12.84,12.84,0,0,1-1.41.09c-.56,0-1.21,0-1.95,0a22.51,22.51,0,0,1-5.35-.77,19.64,19.64,0,0,1-6.56-3.18,24.76,24.76,0,0,1-6.12-6.69,31.2,31.2,0,0,1-4-9.94,77.85,77.85,0,0,1-1.79-12.17,118.27,118.27,0,0,1-.27-13.69l-.14.19,14.14-5.13,15.26-5.43-.25-.06c2.66,2.92,5.22,6.06,7.68,9.36a82.31,82.31,0,0,1,6.78,10.56,32.42,32.42,0,0,1,4,12.17,22.44,22.44,0,0,1-2.2,12.81c-2.38,4.51-6.45,7.81-10.59,10.07l0,0-.15.06-.14,0,0,.15c-.09.64-.18,1.29-.27,1.88v.06l0,.05c4.5,12.66,8.82,24.79,12.77,35.88l.06.15h.16l7.07.16,3.46.08c.17,0,.23,0,.28,0a.2.2,0,0,1,.07.18.18.18,0,0,1-.1.16l-.38.14-1.6.58-12.27,4.46-5.8,2.11-2.81,1-.69.25c-.23.11-.3.06-.39-.07a.21.21,0,0,1,0-.19c0-.05.09-.11.2-.19l.55-.47,8.43-7.06.09-.08,0-.11-12.87-35.81h0l-1.29-1.31C282.87,314.59,282.72,314.46,282.72,314.46Z"/><path class="cls-5" d="M260.45,299.64c5.75,10.34,14.41,12.87,23.94,10.89l.13,0,.07.19,3.09-1.1c8.54-4.7,13.5-12.26,11.22-23.89,0,0-7.69,3.68-13.3,5.68-8.33,3-14-1.46-19.35.45S260.45,299.64,260.45,299.64Z"/><path class="cls-2" d="M253.69,268.32a5.66,5.66,0,0,0,1.26.4,24.42,24.42,0,0,0,3.54.59,27.19,27.19,0,0,0,11.7-1.51,26.91,26.91,0,0,0,9.92-6.39,22.43,22.43,0,0,0,2.33-2.73,6.2,6.2,0,0,0,.71-1.11c-.08-.06-1.12,1.51-3.28,3.59a27.95,27.95,0,0,1-21.35,7.8C255.52,268.76,253.71,268.22,253.69,268.32Z"/><path class="cls-7" d="M263.25,300.45a5,5,0,0,0,.69,1,16.79,16.79,0,0,0,2.3,2.33,19.3,19.3,0,0,0,20.37,2.92,17.26,17.26,0,0,0,2.85-1.59,4.09,4.09,0,0,0,.94-.75,39,39,0,0,1-3.93,2,19.83,19.83,0,0,1-20-2.86A39.14,39.14,0,0,1,263.25,300.45Z"/><path class="cls-10" d="M250.05,344.31s-.45-14.93,1.81-18a122.68,122.68,0,0,1,8.67-9.39l9.32-5.94s3.75,4.4,2.15,6.85a9.88,9.88,0,0,1-4.73,3.43l-3.14,5.07L277.42,320s18.19-15.4,21.72-16.5,4.32,1.43,3.12,3.75-14.38,16.57-14.38,16.57-.49,1.88,1.73,1.39,7.56-5.38,9.81-4.37,5.08,2.47,3.54,5.77a26.63,26.63,0,0,1-3.28,5.34s3.86-1.43,5,1.64a5.14,5.14,0,0,1-1.33,5.37l-3.22,2.74a4.3,4.3,0,0,1,.44,4.16c-.89,2.65-12,12.39-12,12.39s-10.38,6.7-13.51,7.69-17.59,7.66-17.59,7.66l-15.06-24.33Z"/><path class="cls-3" d="M178.11,148.59l82.3,26.85a27.07,27.07,0,0,0,1.38-11.82L181,141.45Z"/><path class="cls-3" d="M195.35,159.77s-26.21,128.61-20.9,139.85a114.68,114.68,0,0,0,13.71,21.29S207,288.38,207,287.55,202.08,161,202.08,161Z"/><polygon class="cls-3" points="190.32 150.42 194.87 142.49 202.68 143.27 207.1 150.79 202.76 162.16 193.99 160.53 190.32 150.42"/><path class="cls-2" d="M190.32,150.42a3.32,3.32,0,0,1,.32.71c.2.52.47,1.19.79,2,.68,1.8,1.61,4.29,2.75,7.31l-.15-.13,8.77,1.58-.27.16c1-2.64,2.1-5.52,3.23-8.51l1.1-2.86,0,.22-4.41-7.53.19.12-7.81-.83.19-.09-3.39,5.72-1,1.56a3.29,3.29,0,0,1-.37.55,3.51,3.51,0,0,1,.27-.56l.85-1.59c.81-1.45,1.91-3.44,3.27-5.87l.06-.11h.12l7.81.74h.12l.06.1c1.38,2.33,2.88,4.85,4.45,7.51l.06.1,0,.12c-.35.94-.72,1.9-1.09,2.87L203,162.24l-.08.2-.2,0L194,160.73l-.11,0,0-.11c-1.07-3.08-2-5.61-2.6-7.45l-.68-2A3.8,3.8,0,0,1,190.32,150.42Z"/><path class="cls-2" d="M203.59,159.77a89.51,89.51,0,0,1-4.51-8.54,94.66,94.66,0,0,1-4.05-8.77,88,88,0,0,1,4.51,8.54A87.51,87.51,0,0,1,203.59,159.77Z"/><path class="cls-2" d="M194.74,177.75a10.22,10.22,0,0,1,0-2.47c.11-1.53.32-3.62.64-5.93.6-4.62,1.59-8.28,1.76-8.23a15.94,15.94,0,0,1-.36,2.44c-.25,1.49-.57,3.57-.89,5.86s-.55,4.2-.78,5.89A14.64,14.64,0,0,1,194.74,177.75Z"/><path class="cls-2" d="M199.19,151.15a21.18,21.18,0,0,1-3.39,2.37,20.8,20.8,0,0,1-3.56,2.1,13.94,13.94,0,0,1,3.28-2.54A13.64,13.64,0,0,1,199.19,151.15Z"/><path class="cls-1" d="M522.1,207.62l13.24,5.81s10.16-5,14.9-8.24c4.29-2.95,13.64-7.72,13.64-7.72s38.35,61.71,37.79,60.54c-1.1-2.33,5.49,71.64,5.49,71.64l2.3,47.8,4.79,68.8-150.4-.12s-1.51-59.19-1.48-60.54c.29-15.36-7.4-69.7-7.4-69.7l-19-43.5,37.23-25.54,6.16-12.7,3-1.54Z"/><g class="cls-6"><polygon points="519.4 287.55 521.61 292.08 521.61 301.25 542.44 423.6 532.81 437.54 527.67 434.06 526.23 426.79 513.44 298.94 517.99 286.27 519.4 287.55"/></g><path class="cls-5" d="M491.32,275.93s18.63,22.76,23.54,19.68,12.46-35,12.46-35l-7-5.66s-7,37.51-7.06,37.57c-1.17,1-19-20.74-23-30.92Z"/><path class="cls-2" d="M526.62,446.39s0-.15-.07-.44-.09-.74-.16-1.28c-.13-1.16-.31-2.82-.55-4.94-.48-4.32-1.17-10.52-2-18.18-1.72-15.34-4.22-36.53-7-59.92s-5.25-44.6-6.87-59.95c-.81-7.68-1.45-13.9-1.85-18.2-.2-2.13-.36-3.79-.46-5-.05-.54-.09-1-.11-1.29a2.91,2.91,0,0,1,0-.44,3.16,3.16,0,0,1,.07.44c0,.31.09.74.16,1.28.13,1.16.32,2.82.56,4.94.48,4.32,1.17,10.52,2,18.18,1.72,15.34,4.22,36.53,7,59.93s5.25,44.58,6.88,59.94c.81,7.68,1.44,13.9,1.85,18.2.2,2.13.35,3.79.46,5,0,.55.08,1,.11,1.29A2.09,2.09,0,0,1,526.62,446.39Z"/><path class="cls-2" d="M504.9,392.23c-.09-.12,17.34-13.23,38.91-29.29S583,334,583,334.07s-17.34,13.22-38.92,29.29S505,392.35,504.9,392.23Z"/><path class="cls-2" d="M500.28,277.79a1.52,1.52,0,0,1-.28-.27c-.17-.19-.43-.46-.74-.84-.63-.74-1.52-1.87-2.56-3.37a82.91,82.91,0,0,1-7.31-13.12l.43-.15c1.36,5.33,1.78,11.73,1.78,18.48,0,.57,0,1.14,0,1.66v.89l-.47-.75c-2.81-4.45-5.05-8.89-7.11-12.9l-5.34-10.7c-1.51-3-2.75-5.48-3.62-7.15l-1-1.93a4.36,4.36,0,0,1-.33-.68,4.76,4.76,0,0,1,.42.63c.26.42.63,1,1.09,1.88.93,1.65,2.22,4.07,3.77,7.09l5.44,10.64c2.08,4,4.34,8.43,7.13,12.84l-.48.14c0-.53,0-1.09,0-1.66,0-6.73-.39-13.1-1.7-18.36l.43-.15a89.43,89.43,0,0,0,7.12,13.15c1,1.51,1.84,2.66,2.44,3.43l.69.88A1.61,1.61,0,0,1,500.28,277.79Z"/><path class="cls-2" d="M509.77,274.43a2,2,0,0,1,.14-.39l.48-1.1c.46-1,1.09-2.38,1.9-4.14l6.9-14.81.12-.26.22.18,15.24,12.49-.42.16c.23-1.69.47-3.48.72-5.29.89-6.5,1.67-12.7,2.1-18.37a131,131,0,0,0,.37-15.07c-.16-4.3-.58-7.75-.9-10.13-.18-1.16-.32-2.07-.42-2.74,0-.29-.08-.52-.1-.71a.94.94,0,0,1,0-.25,1,1,0,0,1,.07.24l.15.7c.12.62.32,1.54.52,2.73a88.87,88.87,0,0,1,1.07,10.14,123.4,123.4,0,0,1-.26,15.13c-.41,5.68-1.18,11.9-2.06,18.4-.25,1.81-.5,3.6-.73,5.29l-.06.46-.36-.29-15.19-12.55.34-.07-7.07,14.73-2,4.09-.55,1.07A2.14,2.14,0,0,1,509.77,274.43Z"/><polygon class="cls-1" points="435.99 272.39 431.94 295.8 430.45 321.07 433.78 362.19 465.35 339.26 455.74 312.7 435.99 272.39"/><path class="cls-2" d="M441.27,296.68a3.25,3.25,0,0,1,.36.59l.95,1.74c.81,1.51,2,3.71,3.3,6.47a138,138,0,0,1,8.65,22.37,181.7,181.7,0,0,1,4.93,23.47l.57,4.11c.14,1.19.26,2.23.36,3.1s.15,1.47.2,2a2.77,2.77,0,0,1,0,.69,3,3,0,0,1-.14-.68c-.08-.5-.18-1.14-.3-1.95s-.28-1.9-.45-3.09-.41-2.58-.65-4.09A200.74,200.74,0,0,0,454,328a149.73,149.73,0,0,0-8.48-22.35c-1.3-2.77-2.4-5-3.15-6.54l-.86-1.78A4.3,4.3,0,0,1,441.27,296.68Z"/><g class="cls-6"><path d="M511,271.78l9.79-11,18.22,11a213.94,213.94,0,0,0-1.44-47.48,233.91,233.91,0,0,1-3,42.3l-15.22-12.52Z"/></g><path class="cls-5" d="M517.42,295.89c0,1.34,21.61,126.32,21.61,126.32l-6.62,9.92-9.7-8.38-9.27-108,1.42-20.14Z"/><path class="cls-5" d="M512.19,298.8S501,397.08,500.94,399s14.13,14.45,14.13,14.45,14.19-21.32,14.18-22-10.61-91.89-10.61-91.89Z"/><path class="cls-2" d="M512.19,298.8l.38,0,1.18.12,4.9.53h.06v.06c.92,7.73,2.73,23.07,5.13,43.28,1.18,10.12,2.5,21.47,3.93,33.68q.53,4.58,1.08,9.32c.18,1.58.37,3.17.55,4.77l.07.6c0,.11,0,.19,0,.32l-.15.37c-.21.37-.41.72-.63,1.07L527.42,395c-3.52,5.52-7.23,11.11-11,16.82l-1.12,1.69-.17.26-.22-.21c-3.13-2.8-6.17-5.61-9.08-8.48a58.39,58.39,0,0,1-4.17-4.46,6.22,6.22,0,0,1-.87-1.31,1,1,0,0,1-.08-.47l0-.38.07-.75c.11-1,.21-2,.32-3,.87-7.85,1.72-15.42,2.52-22.62,1.65-14.4,3.13-27.36,4.38-38.24s2.29-19.63,3-25.72c.36-3,.65-5.37.84-7q.15-1.19.24-1.83c0-.41.09-.6.09-.6s0,.22-.05.63-.1,1-.18,1.81c-.17,1.62-.42,4-.74,7-.67,6.09-1.64,14.88-2.84,25.75s-2.66,23.83-4.26,38.24c-.8,7.2-1.63,14.77-2.5,22.62-.1,1-.2,2-.31,3l-.07.74,0,.37a.47.47,0,0,0,.05.26,5.93,5.93,0,0,0,.79,1.18,56.93,56.93,0,0,0,4.13,4.41c2.9,2.86,5.95,5.67,9.07,8.47l-.39,0c.35-.54.73-1.12,1.12-1.7,3.78-5.7,7.48-11.3,11-16.81l1.29-2.07c.22-.34.42-.69.61-1a.81.81,0,0,1,.1-.18c0-.05,0-.18,0-.27l-.07-.6c-.18-1.61-.37-3.2-.55-4.77-.36-3.16-.72-6.26-1.07-9.32-1.39-12.2-2.69-23.54-3.85-33.67-2.27-20.21-4-35.55-4.87-43.28l.07.07-4.84-.62-1.2-.16Z"/><polygon class="cls-5" points="507.48 294.82 509.77 287.61 515.1 286.27 519.4 291.83 518.53 300.7 512.03 301.25 507.48 294.82"/><path class="cls-2" d="M507.48,294.82a2.91,2.91,0,0,1,.38.44c.26.34.57.76,1,1.26l3.37,4.61-.18-.08,6.5-.6-.22.23c.21-2.26.45-4.71.69-7.27,0-.54.11-1.08.16-1.6l.05.18c-1.51-2-3-3.85-4.28-5.57l.25.08-5.35,1.3.14-.13-1.74,5.21c-.21.57-.37,1-.51,1.43a2.71,2.71,0,0,1-.22.51,2,2,0,0,1,.1-.5l.41-1.44,1.59-5.33,0-.11.11,0L515,286l.15,0,.1.12,4.31,5.55.06.09v.1l-.15,1.6c-.26,2.56-.5,5-.73,7.26l0,.21h-.2l-6.51.51h-.11l-.07-.1c-1.33-1.95-2.44-3.56-3.26-4.77l-.86-1.31A2,2,0,0,1,507.48,294.82Z"/><g class="cls-6"><polygon points="515.07 413.41 531.28 396.52 531.28 388.76 523.68 342.95 529.25 391.45 515.07 413.41"/></g><path class="cls-2" d="M517.32,289.27a21.52,21.52,0,0,1-4.56,3.22,21.88,21.88,0,0,1-5.05,2.4,50.09,50.09,0,0,1,4.78-2.85A49.09,49.09,0,0,1,517.32,289.27Z"/><path class="cls-2" d="M512.76,292.69a40.39,40.39,0,0,1,5.23,7.38,39.14,39.14,0,0,1-5.23-7.38Z"/><g class="cls-6"><path d="M433.78,362.19l.86-41.46L436,272.39c-1.17-.14-6.11,44.88-5.57,53.21C430.49,326.76,433.78,362.19,433.78,362.19Z"/></g><polygon class="cls-14" points="629.63 178.6 624.93 143.75 635.75 128.47 655.33 169.13 655.33 183.42 641.87 187.42 629.63 178.6"/><path class="cls-1" d="M562.81,198.4s7.48-5.63,19.83-3.89c15.7,2.22,43.63,11.28,43.63,11.28l-1.14-12.22-3.32-.49a2.45,2.45,0,0,1-2.07-2.54l.75-13.68A4,4,0,0,1,624.7,173c4.29.19,10.94.28,14.31-.65,5.21-1.45,15.58-4.47,15.58-4.47l1.67-.6a3.52,3.52,0,0,1,4.52,2.11l5.71,15.74a3.53,3.53,0,0,1-1.83,4.41l-1,.48s9.6,29.38,11,41.73c.5,4.4,6.33,26.48-10,30.15C631,269.48,590.37,258,590.37,258L574,225.45Z"/><path class="cls-2" d="M641,220.27a2.6,2.6,0,0,1-.79-.35c-.49-.25-1.18-.65-2-1.19a34.76,34.76,0,0,1-5.94-4.92,34.23,34.23,0,0,1-4.68-6.13,22.32,22.32,0,0,1-1.11-2.05,2.78,2.78,0,0,1-.32-.8c.08,0,.66,1,1.74,2.66a42.66,42.66,0,0,0,4.75,6,43.32,43.32,0,0,0,5.77,5C640,219.57,641.08,220.2,641,220.27Z"/><path class="cls-2" d="M635.91,231.78a6,6,0,0,1-.66-1c-.39-.67-.92-1.65-1.54-2.89a97.91,97.91,0,0,1-4.24-9.92,69.85,69.85,0,0,1-3-10.38,27.73,27.73,0,0,1-.46-3.24,5,5,0,0,1,0-1.2c.09,0,.21,1.69.83,4.37A84.81,84.81,0,0,0,630,217.78c1.45,3.94,2.93,7.45,4.08,9.94.57,1.26,1.06,2.26,1.39,2.95A5.42,5.42,0,0,1,635.91,231.78Z"/><path class="cls-2" d="M664.61,189.82a10.51,10.51,0,0,1-1.54.59c-.5.18-1.12.38-1.85.59s-1.54.46-2.47.68c-1.84.49-4.06.92-6.54,1.35s-5.23.74-8.12,1a99,99,0,0,1-14.85,0c-1.89-.14-3.42-.31-4.48-.46a9.25,9.25,0,0,1-1.62-.3,11.25,11.25,0,0,1,1.65.09c1.05.1,2.58.21,4.47.31a119.51,119.51,0,0,0,14.79-.19c2.88-.23,5.61-.56,8.08-.92s4.69-.8,6.53-1.24c.93-.2,1.76-.41,2.49-.6s1.35-.35,1.86-.5A9.28,9.28,0,0,1,664.61,189.82Z"/><path class="cls-3" d="M587.72,103.64c-.74-12.78,1.84-14.91,3.21-17.28s2.42-3.69,2.4-6.46.28-14.84.29-18.71,1.19-9.65.68-11.61c0-.13-.07-.26-.1-.37a6.93,6.93,0,0,1,5.89-1.06,4.8,4.8,0,0,0,2.56.07c.39-.1.76-.23,1.12-.35a6.1,6.1,0,0,1,2.35-.46,4.68,4.68,0,0,1,1.45.34c0,.34-.09.75-.18,1.26-.34,2,1.32,7.66,1.67,11.51s1.7,15.87,1.91,18.62,1.37,4,2.94,6.23,4.33,4.14,4.7,16.93S620,143.51,620,143.51c.1,1.32.13,2.76.11,4.12-.06,2.62-.43,5.76-2.13,7.91a6.52,6.52,0,0,1-4.93,2.09c-1.92.12-4.7.25-7.53.37s-5.62.23-7.54.28a6.84,6.84,0,0,1-4.8-1.35c-3.29-3-3.13-8.1-3.33-12.11C589.87,144.81,588.45,116.41,587.72,103.64Z"/><g class="cls-6"><path d="M593.36,87.69c.17-.3.34-.58.5-.85a12.1,12.1,0,0,0,2.25-7c0-1.44.07-5.65.15-9.71v-.09c.07-3.47.14-7,.15-8.87,0-.61,0-1.28.09-2l9.78-.42c.12.7.21,1.36.27,2,.16,1.81.54,5.38.91,8.83v.08c.43,4,.87,8.23,1,9.67a12.06,12.06,0,0,0,2.85,6.75l.57.8c.21.3.43.59.67.9,1.37,1.75,3.24,4.16,3.54,14.58q.2,6.91.43,13.81c.28,8.1.5,16.21.88,24.31.16,3.29.44,6.45-1.33,9.42-1.59,2.68-5.7,2.71-8.37,2.85a74.08,74.08,0,0,1-8.94.09,7.58,7.58,0,0,1-4.28-1.46c-2.05-1.71-1.81-6.52-1.94-8.9-.31-6-.6-12.09-.91-18.13-.36-7-.72-13.92-1.12-20.88-.6-10.41,1.06-13,2.27-14.84C593,88.31,593.18,88,593.36,87.69Z"/></g><path class="cls-4" d="M610.38,133.42l9.25-.42-1-28.72-9.58.43a14.37,14.37,0,0,0-13.7,15h0A14.37,14.37,0,0,0,610.38,133.42Z"/><path class="cls-3" d="M594.87,51.09l12-.54a2.08,2.08,0,0,0,2-2.14h0a2.07,2.07,0,0,0-2.19-1.95l-12,.54a2.08,2.08,0,0,0-2,2.14h0A2.09,2.09,0,0,0,594.87,51.09Z"/><path class="cls-2" d="M607.25,50.49a42.46,42.46,0,0,1-6.55.53,40.63,40.63,0,0,1-6.57,0,42.46,42.46,0,0,1,6.55-.53A40.63,40.63,0,0,1,607.25,50.49Z"/><path class="cls-7" d="M596.57,81c-.14,0-.26-5.93-.26-13.23s.12-13.23.26-13.23.26,5.92.26,13.23S596.72,81,596.57,81Z"/><path class="cls-7" d="M590.54,100.56a14.18,14.18,0,0,1-.13-5.3,14.12,14.12,0,0,1,1.33-5.13c.15,0-.49,2.32-.81,5.19S590.69,100.55,590.54,100.56Z"/><path class="cls-7" d="M592.47,149.68a6.36,6.36,0,0,1-.12-1.37c0-1-.1-2.24-.16-3.75-.15-3.16-.43-7.52-.74-12.34s-.53-9.2-.59-12.37c0-1.58,0-2.87,0-3.75a6.32,6.32,0,0,1,.09-1.38,7,7,0,0,1,.11,1.38c.05,1,.1,2.24.17,3.74.15,3.16.43,7.52.74,12.35s.53,9.19.58,12.36c0,1.59,0,2.87,0,3.76A8.4,8.4,0,0,1,592.47,149.68Z"/><path class="cls-14" d="M636,128.63V109.87a7.8,7.8,0,0,0-3.19-5.91c.54-3.55-2.43-6.28-4.58-7.61-1.59-1-14.11-6.66-17.32-8.11a3.23,3.23,0,0,0-1.3-.28l-13.66,0s-.65,1.46.53,4.16,10.12,2.8,10.12,2.8l8.56,4.69L603.52,103s-6.31,3.32-8.77,4.82h0c-2.12,1.41-.82,6.86,2,6l4-1-3.3,2.28a3.89,3.89,0,0,0,1,6.92,1.61,1.61,0,0,0,.75.16,35.78,35.78,0,0,0,9.38-3.82s4.64-2.16,7-1.69c.76.16,7.95,2.57,7.95,2.57l-4.72,1.9s-6.28,1.3-7.74,1.52c-3.69.55-6.7.86-7.55,2.29a3.44,3.44,0,0,0,2.23,5.14c2.2.34,12.86-.63,12.86-.63l.43,9.57c1.18,4.9,6.63,5.22,6.63,5.22L638,133.55Z"/><path class="cls-15" d="M629,111.14a7.51,7.51,0,0,1-1.08-.34c-.69-.24-1.69-.58-2.95-1s-2.78-.81-4.5-1.21a27.91,27.91,0,0,0-5.68-.83h.08l-1.92.59c-4.39,1.39-8.24,3.06-11.13,4-1.43.49-2.61.83-3.43,1a6.79,6.79,0,0,1-1.29.29,6.34,6.34,0,0,1,1.23-.48c.8-.28,1.95-.68,3.37-1.21,2.84-1,6.67-2.75,11.1-4.14.65-.21,1.31-.4,1.92-.59l0,0h0a26.25,26.25,0,0,1,5.79.89c1.72.43,3.24.9,4.49,1.33s2.25.83,2.92,1.12A4.35,4.35,0,0,1,629,111.14Z"/><path class="cls-15" d="M628.16,104.53a29.82,29.82,0,0,0-13.55-5.11,6.76,6.76,0,0,1,2.17,0,21,21,0,0,1,9.74,3.67A6.77,6.77,0,0,1,628.16,104.53Z"/><path class="cls-15" d="M630.47,129.26a3.9,3.9,0,0,1-2.4.6,16.29,16.29,0,0,1-2.68-.28c-1-.15-2.07-.32-3.21-.45a8.24,8.24,0,0,0-3.16.18,22.9,22.9,0,0,1-2.65.43,7.11,7.11,0,0,1-2.47-.06c0-.09.94-.09,2.43-.31.74-.1,1.61-.3,2.59-.53a10.36,10.36,0,0,1,1.58-.28,7.71,7.71,0,0,1,1.73.06c1.16.13,2.25.31,3.24.48a18.93,18.93,0,0,0,2.6.39A10.27,10.27,0,0,0,630.47,129.26Z"/><path class="cls-2" d="M604.89,227.48a1.74,1.74,0,0,1,0,.48c0,.38-.09.83-.14,1.38-.14,1.28-.32,3-.55,5.07-.44,4.29-1,10.21-1.33,16.77s-.45,12.5-.46,16.81v5.1c0,.55,0,1,0,1.39a1.68,1.68,0,0,1,0,.48,1.5,1.5,0,0,1-.06-.48c0-.38-.06-.84-.09-1.39-.07-1.2-.13-2.94-.17-5.1-.08-4.31,0-10.27.31-16.84s.95-12.5,1.49-16.78c.27-2.14.51-3.86.71-5.05.09-.55.17-1,.23-1.37A1.48,1.48,0,0,1,604.89,227.48Z"/><g class="cls-6"><path d="M663.37,190.22a31.43,31.43,0,0,1-18.27,8.7c-6.84.63-14.18-1.64-20-5.35,0,0,12.26,1.08,20.13.07S663.37,190.22,663.37,190.22Z"/></g><path class="cls-14" d="M521.45,208.53l-19.07-63.4c-6.73-21.73-23.93-36.52-45.46-29.2l-1.95.8a40.65,40.65,0,0,0-23.47,49.88c5.93,18.81,12.74,39.52,16.83,49.24,8.48,20.12,30,15,30,15a49.8,49.8,0,0,0,1.95,6.71c1.6,4.73,25.78,36.83,25.78,36.83l17-56.94Z"/><path class="cls-15" d="M478.25,230.9s13.05-4.43,23.16-18.49c0,0-.41,17.38-21.33,23.77Z"/><path class="cls-2" d="M468.2,190.73c-.06-.18-2.12.27-5.42,1.14-.82.24-1.64.39-2-.09a4.36,4.36,0,0,1-.43-2.57q0-3.35-.11-7c-.24-9.92-.76-18-1.16-17.94s-.53,8.07-.29,18c.08,2.44.15,4.77.23,7a4.92,4.92,0,0,0,.85,3.28,2.18,2.18,0,0,0,1.78.63,6,6,0,0,0,1.42-.37C466.3,191.69,468.26,190.91,468.2,190.73Z"/><path class="cls-2" d="M464.18,149.32c.59.66,3.18-.82,6.55-1.72s6.35-1.06,6.5-1.92c0-.41-.69-1-2.05-1.27a11.37,11.37,0,0,0-9.93,2.78C464.27,148.16,463.92,149,464.18,149.32Z"/><path class="cls-14" d="M506.91,161.07c.3-.3,13.09-9.91,18.14,4.92s-11.53,17.52-11.7,17.11S506.91,161.07,506.91,161.07Z"/><path class="cls-15" d="M516.61,175.26c0-.07.32.09.83.14a2.72,2.72,0,0,0,1.94-.61c1.37-1.11,1.85-4,1-6.75a8.88,8.88,0,0,0-2-3.45,3.14,3.14,0,0,0-2.62-1.32,1.39,1.39,0,0,0-1.28,1.22c-.06.49.14.75.07.8s-.4-.14-.49-.79a1.74,1.74,0,0,1,.26-1.13,2.07,2.07,0,0,1,1.3-.86,3.85,3.85,0,0,1,3.49,1.38,9.19,9.19,0,0,1,2.3,3.83c.92,3,.35,6.34-1.59,7.69a2.89,2.89,0,0,1-2.49.41C516.76,175.61,516.57,175.31,516.61,175.26Z"/><path class="cls-2" d="M397.45,157.12a3.54,3.54,0,0,1,.94-2.46c1.31-1.49,3.22-2,5-2.58a31.13,31.13,0,0,0,11.89-7.44,15.54,15.54,0,0,1-4.67-1.44c-3-1.54-5.47-4.6-5.41-8a2.08,2.08,0,0,1,.67-1.71c.82-.58,1.92.06,2.79.57,2.87,1.67,5.14,2.05,8.18.72a13.06,13.06,0,0,0,4.86-3.34c.05-.08.08-.17.12-.25.49-1,1-1.95,1.45-2.89h0c3.61-7,7-12.14,11.1-15.56,6-5,17.18-9.89,25-10.33s16.17,3.3,19.56,10.35c2.93-4.72,9-6.66,14.56-6.27l.11-.1c6.11.18,11.09,5,14.52,10,.19.27.36.56.55.84a22.9,22.9,0,0,0,9.7,4.81c.63.13,1.36.31,1.62.9a1.85,1.85,0,0,1-.47,1.76,11.51,11.51,0,0,1-3.83,3.28,24.82,24.82,0,0,0,3.06,3.26c1,.85,2.1,1.86,1.91,3.13a2.4,2.4,0,0,1-2.08,1.83,7.11,7.11,0,0,1-2.92-.32c1.09,1.26,2.17,2.53,3.25,3.79a13.56,13.56,0,0,1-6.08,1.53c.53,5.6,1.37,12.69,1.17,16.67-2.29.73-4.63.9-5.63,2.63-1.36,2.34-1.16,5.86-4.75,5.67-1.82-.11-4.41-3-5.49-4.51a85,85,0,0,1-14.57-33,27.41,27.41,0,0,0-9.89-3.19l.32.14c-6.44-.13-13.62,0-18.22,4.5-3.58,3.49-4.65,8.72-6.69,13.27a32.23,32.23,0,0,1-18.89,17.9c1.22,6.5,4.45,14.21,6,20.13l-8.42-7.65v0c-.63-.55-1.18-1.14-1.73-1.72l-.17-.18v0a37.4,37.4,0,0,0-2.72-2.78l0,.06c-2.25,3.81-8.28,1.06-6.89-3.14a8.34,8.34,0,0,1,1.19-2.34,6.07,6.07,0,0,1-5,3.2,4.75,4.75,0,0,1-4.64-3.43,4,4,0,0,1,1.29-3.83,13.56,13.56,0,0,1-7.91.77C399.43,160,397.55,159.12,397.45,157.12Z"/><path class="cls-3" d="M473.19,117.25a16.78,16.78,0,0,1,2.69,1.22,15.59,15.59,0,0,1,5.41,5.84,28.54,28.54,0,0,1,2.23,5.09c.63,1.91,1.13,4,1.69,6.19a56.43,56.43,0,0,0,2,6.84,24.34,24.34,0,0,0,1.63,3.43,7.72,7.72,0,0,0,2.58,3,3.28,3.28,0,0,0,3.24,0,4.88,4.88,0,0,0,2.15-2.34c.83-2,.52-4.06.29-5.91l-.42.19a18,18,0,0,0,3.92,3.52,6.47,6.47,0,0,0,4.74.89,4.08,4.08,0,0,0,2-1.06,3.73,3.73,0,0,0,.83-3.88,2.67,2.67,0,0,0-1.18-1.39l-.16.26a14,14,0,0,0,5.53,1.9,12.9,12.9,0,0,0,1.55.09,2.72,2.72,0,0,0,.53,0,2.19,2.19,0,0,0-.53,0,14.24,14.24,0,0,1-1.53-.17,14.41,14.41,0,0,1-5.39-2l-.15.27a2.79,2.79,0,0,1,1.13,3,3.22,3.22,0,0,1-.9,1.69,3.82,3.82,0,0,1-1.83.94,6.08,6.08,0,0,1-4.41-.87,17.8,17.8,0,0,1-3.8-3.46l-.52-.57.1.76c.23,1.85.49,3.85-.27,5.65a4.47,4.47,0,0,1-1.92,2.09,2.76,2.76,0,0,1-2.75,0,7.4,7.4,0,0,1-2.41-2.81,25.12,25.12,0,0,1-1.6-3.36,59.56,59.56,0,0,1-2-6.77c-.56-2.19-1.09-4.29-1.74-6.21a27.16,27.16,0,0,0-2.32-5.14A15.49,15.49,0,0,0,476,118.3,8.84,8.84,0,0,0,473.19,117.25Z"/><path class="cls-7" d="M415.69,158.14l.21.08.64.21a7.23,7.23,0,0,0,1.06.28,10.31,10.31,0,0,0,1.48.25,19.22,19.22,0,0,0,9.37-1.27,24.68,24.68,0,0,0,11-8.66,42.74,42.74,0,0,0,6.72-15.85c.69-3,1.09-6,1.67-8.77a28.84,28.84,0,0,1,2.58-7.8,14.84,14.84,0,0,1,4.79-5.55,10.42,10.42,0,0,1,3-1.38,11.3,11.3,0,0,1,3.06-.38,12.57,12.57,0,0,1,5.16,1.19,12.4,12.4,0,0,1,3.31,2.28,15.38,15.38,0,0,1,2.08,2.75s0-.07-.09-.21l-.3-.6a10.58,10.58,0,0,0-1.55-2.08,12.22,12.22,0,0,0-3.33-2.39,12.66,12.66,0,0,0-5.27-1.3,11.7,11.7,0,0,0-3.17.36,10.93,10.93,0,0,0-3.16,1.4,15.29,15.29,0,0,0-5,5.69,29.09,29.09,0,0,0-2.66,7.92c-.59,2.83-1,5.79-1.68,8.76a42.7,42.7,0,0,1-6.6,15.68,24.44,24.44,0,0,1-10.75,8.6,19.61,19.61,0,0,1-9.22,1.42C416.88,158.53,415.71,158.06,415.69,158.14Z"/><path class="cls-7" d="M410.86,149.65a3.29,3.29,0,0,0,.91.28,17.35,17.35,0,0,0,2.56.4,23.25,23.25,0,0,0,3.85,0,26,26,0,0,0,4.64-.86,25.15,25.15,0,0,0,4.38-1.75,21.87,21.87,0,0,0,3.25-2.07A16.77,16.77,0,0,0,432.4,144c.43-.44.65-.69.62-.71s-1,.88-2.78,2.13a26,26,0,0,1-3.25,1.94,28.68,28.68,0,0,1-4.31,1.69,29.32,29.32,0,0,1-4.54.87,24.89,24.89,0,0,1-3.79.09C412.2,149.86,410.88,149.56,410.86,149.65Z"/><path class="cls-2" d="M469.65,169.87c.52.31,2.4-2.22,5.83-3.21s6.44,0,6.68-.5c.13-.25-.49-.9-1.82-1.4a8.94,8.94,0,0,0-5.51-.12,8.54,8.54,0,0,0-4.48,3.09C469.54,168.86,469.4,169.74,469.65,169.87Z"/><path class="cls-2" d="M435.84,169.45c.53.53,3-.86,6.28-1.81s6.05-1.23,6.22-2c.07-.35-.61-.77-1.87-1a11.74,11.74,0,0,0-5,.45,12.27,12.27,0,0,0-4.49,2.43C436,168.46,435.61,169.19,435.84,169.45Z"/><path class="cls-2" d="M440.76,181.51c.51.31,2.4-2.22,5.82-3.21s6.44,0,6.69-.5c.13-.25-.5-.9-1.82-1.39a8.93,8.93,0,0,0-5.51-.13,8.59,8.59,0,0,0-4.48,3.09C440.64,180.5,440.51,181.38,440.76,181.51Z"/><path class="cls-15" d="M481.78,196a19.93,19.93,0,0,0-2.31-3.86c-.39-.56-.88-1.17-1.56-1.18a2.16,2.16,0,0,0-1.49.87l-6.61,6.78-.47,1.47a16,16,0,0,0,2,3.64,5.33,5.33,0,0,0,3.52,2.06,6.49,6.49,0,0,0,4.18-1.52,7.77,7.77,0,0,0,3.09-3.85A6.78,6.78,0,0,0,481.78,196Z"/><path class="cls-2" d="M475.28,206.05a10.1,10.1,0,0,1,1.2-.47,10.65,10.65,0,0,0,3-1.74,7.38,7.38,0,0,0,2.62-4.22,8.13,8.13,0,0,0-1.51-5.83,9.15,9.15,0,0,0-3.15-2.82l.3-.06a66.87,66.87,0,0,1-6.19,6c-.81.7-1.48,1.23-1.94,1.58a3.84,3.84,0,0,1-.76.51,3.66,3.66,0,0,1,.65-.64l1.84-1.68c1.57-1.45,3.72-3.53,6-6.11l.13-.15.17.09a9.63,9.63,0,0,1,4.76,6,6.93,6.93,0,0,1,.14,3.16,7.66,7.66,0,0,1-2.85,4.4,9.79,9.79,0,0,1-3.15,1.65,6.75,6.75,0,0,1-.93.24C475.4,206.06,475.28,206.07,475.28,206.05Z"/><path class="cls-3" d="M488.76,154.83,461,166s1.57,11.52,9.59,15.17,17.77-4.23,19.48-10.55C492.08,163.3,488.76,154.83,488.76,154.83Z"/><path class="cls-3" d="M456,168l-26.56,10.42s2,11.46,9.71,15.15,16.81-3.9,18.34-10.07C459.31,176.31,456,168,456,168Z"/><path class="cls-3" d="M462.52,165.43l-7.94,3.12.54,2.44a10.86,10.86,0,0,1,9-3.21Z"/><path class="cls-2" d="M486.46,158.26l-21.92,8.59s1.54,9.09,7.79,11.94,13.84-3.3,15.17-8.22C489,164.85,486.46,158.26,486.46,158.26Z"/><path class="cls-2" d="M453.39,171.49l-20.68,8.11s1.59,8.93,7.56,11.81,13.09-3,14.29-7.85C455.94,178,453.39,171.49,453.39,171.49Z"/><path class="cls-3" d="M488.64,154.83l20.84,3.82c-.12,1.63-2.86,4.94-4.05,5.91l-15.85-3Z"/><path class="cls-7" d="M449.74,187.48s-.15.26-.53.62a6.77,6.77,0,0,1-1.87,1.21,8.81,8.81,0,0,1-7.21-.17,10.65,10.65,0,0,1-4.95-5.29,11,11,0,0,1-.7-2.1,2.35,2.35,0,0,1-.09-.81c.09,0,.3,1.12,1.12,2.75a11,11,0,0,0,4.85,5,8.84,8.84,0,0,0,6.84.3A12.94,12.94,0,0,0,449.74,187.48Z"/><path class="cls-7" d="M483.44,174.34a2.55,2.55,0,0,1-.56.69,8.56,8.56,0,0,1-1.95,1.46,9.41,9.41,0,0,1-13.48-4.89,8.58,8.58,0,0,1-.57-2.37,2.48,2.48,0,0,1,0-.89,16.83,16.83,0,0,0,.89,3.12,9.34,9.34,0,0,0,13,4.7A17.6,17.6,0,0,0,483.44,174.34Z"/></g></g></svg>