<svg xmlns="http://www.w3.org/2000/svg" xmlns:xlink="http://www.w3.org/1999/xlink" viewBox="0 0 750 500"><defs><style>.cls-1{isolation:isolate;}.cls-11,.cls-2,.cls-9{fill:#fff;}.cls-2{opacity:0.2;}.cls-10,.cls-2,.cls-3,.cls-39,.cls-7,.cls-9{mix-blend-mode:overlay;}.cls-3,.cls-8{fill:#b100a0;}.cls-4{fill:url(#linear-gradient);}.cls-5{fill:#ffa2a4;}.cls-6{fill:#0dfc65;}.cls-7{fill:#d983d1;}.cls-12{fill:url(#linear-gradient-2);}.cls-13{fill:#2e0066;}.cls-14{fill:url(#linear-gradient-3);}.cls-15{fill:url(#linear-gradient-4);}.cls-16{fill:url(#linear-gradient-5);}.cls-17{fill:#e537a8;}.cls-18{fill:#ff00e7;}.cls-19{fill:url(#linear-gradient-6);}.cls-20{fill:url(#linear-gradient-7);}.cls-21{fill:#ff96ce;}.cls-22{fill:#ffaee1;}.cls-23{fill:#000626;}.cls-24{fill:#fdfdfd;}.cls-25{fill:url(#linear-gradient-8);}.cls-26{fill:url(#linear-gradient-9);}.cls-27{fill:url(#linear-gradient-10);}.cls-28{fill:#fe50b3;}.cls-29{fill:url(#linear-gradient-11);}.cls-30{fill:url(#linear-gradient-12);}.cls-31{fill:url(#linear-gradient-13);}.cls-32{fill:#fefefe;}.cls-33{fill:url(#linear-gradient-14);}.cls-34{fill:url(#linear-gradient-15);}.cls-35{fill:url(#linear-gradient-16);}.cls-36{fill:url(#linear-gradient-17);}.cls-37{fill:url(#linear-gradient-18);}.cls-38{fill:url(#linear-gradient-19);}.cls-39{fill:#f8e8d8;}</style><linearGradient id="linear-gradient" x1="372.63" y1="521.17" x2="375.79" y2="387.1" gradientTransform="matrix(-1, 0, 0, 1, 750, 0)" gradientUnits="userSpaceOnUse"><stop offset="0" stop-color="#ad009c"/><stop offset="0.08" stop-color="#8e008f"/><stop offset="0.17" stop-color="#700082"/><stop offset="0.27" stop-color="#570078"/><stop offset="0.38" stop-color="#440070"/><stop offset="0.51" stop-color="#37006a"/><stop offset="0.68" stop-color="#2f0067"/><stop offset="1" stop-color="#2d0066"/></linearGradient><linearGradient id="linear-gradient-2" x1="254.72" y1="249.91" x2="522.59" y2="258.79" gradientUnits="userSpaceOnUse"><stop offset="0" stop-color="#dc2670"/><stop offset="0.03" stop-color="#cb2272"/><stop offset="0.11" stop-color="#a11978"/><stop offset="0.2" stop-color="#7d117d"/><stop offset="0.29" stop-color="#600b81"/><stop offset="0.38" stop-color="#490684"/><stop offset="0.48" stop-color="#390386"/><stop offset="0.6" stop-color="#300188"/><stop offset="0.76" stop-color="#2d0088"/><stop offset="0.78" stop-color="#2d0688"/><stop offset="0.82" stop-color="#2d1588"/><stop offset="0.85" stop-color="#2d2f88"/><stop offset="0.89" stop-color="#2d5488"/><stop offset="0.93" stop-color="#2d8288"/><stop offset="0.98" stop-color="#2dba88"/><stop offset="1" stop-color="#2ddc88"/></linearGradient><linearGradient id="linear-gradient-3" x1="380.44" y1="247" x2="371.09" y2="606.08" gradientUnits="userSpaceOnUse"><stop offset="0" stop-color="#ff0098"/><stop offset="0.14" stop-color="#b70087"/><stop offset="0.2" stop-color="#92007e"/><stop offset="0.25" stop-color="#770078"/><stop offset="0.31" stop-color="#620073"/><stop offset="0.34" stop-color="#5a0071"/><stop offset="0.45" stop-color="#48006d"/><stop offset="0.6" stop-color="#390069"/><stop offset="0.76" stop-color="#300067"/><stop offset="1" stop-color="#2d0066"/></linearGradient><linearGradient id="linear-gradient-4" x1="322.33" y1="450.28" x2="313.59" y2="318.23" gradientTransform="matrix(1, 0, 0, 1, 0, 0)" xlink:href="#linear-gradient"/><linearGradient id="linear-gradient-5" x1="436.27" y1="444.26" x2="428.43" y2="325.87" gradientTransform="matrix(1, 0, 0, 1, 0, 0)" xlink:href="#linear-gradient"/><linearGradient id="linear-gradient-6" x1="369.88" y1="173.71" x2="380.01" y2="353.31" gradientTransform="matrix(-1, 0, 0, 1, 750, 0)" gradientUnits="userSpaceOnUse"><stop offset="0" stop-color="#ff0098"/><stop offset="0.02" stop-color="#f50096"/><stop offset="0.11" stop-color="#c7008b"/><stop offset="0.21" stop-color="#9d0081"/><stop offset="0.31" stop-color="#7b0078"/><stop offset="0.41" stop-color="#5e0072"/><stop offset="0.53" stop-color="#48006d"/><stop offset="0.65" stop-color="#390069"/><stop offset="0.79" stop-color="#300067"/><stop offset="1" stop-color="#2d0066"/></linearGradient><linearGradient id="linear-gradient-7" x1="374.09" y1="277.19" x2="372.5" y2="158.37" xlink:href="#linear-gradient-6"/><linearGradient id="linear-gradient-8" x1="214.65" y1="242.22" x2="203.73" y2="661.6" gradientTransform="translate(2.83)" gradientUnits="userSpaceOnUse"><stop offset="0" stop-color="#ff0098"/><stop offset="0.14" stop-color="#b70087"/><stop offset="0.2" stop-color="#92007e"/><stop offset="0.25" stop-color="#770078"/><stop offset="0.31" stop-color="#620073"/><stop offset="0.34" stop-color="#5a0071"/><stop offset="0.38" stop-color="#48006d"/><stop offset="0.43" stop-color="#390069"/><stop offset="0.49" stop-color="#300067"/><stop offset="0.57" stop-color="#2d0066"/></linearGradient><linearGradient id="linear-gradient-9" x1="538.19" y1="250.64" x2="527.27" y2="670.02" xlink:href="#linear-gradient-8"/><linearGradient id="linear-gradient-10" x1="98.5" y1="387.65" x2="202.64" y2="387.65" gradientTransform="matrix(-1, 0, 0, 1, 750, 0)" gradientUnits="userSpaceOnUse"><stop offset="0" stop-color="#ad009c"/><stop offset="0.05" stop-color="#9d0095"/><stop offset="0.17" stop-color="#7b0087"/><stop offset="0.3" stop-color="#5e007b"/><stop offset="0.43" stop-color="#480072"/><stop offset="0.58" stop-color="#39006b"/><stop offset="0.75" stop-color="#300067"/><stop offset="1" stop-color="#2d0066"/></linearGradient><linearGradient id="linear-gradient-11" x1="98.5" y1="387.65" x2="202.64" y2="387.65" gradientTransform="translate(2.83)" xlink:href="#linear-gradient-10"/><linearGradient id="linear-gradient-12" x1="603.63" y1="485.12" x2="617.72" y2="301.29" xlink:href="#linear-gradient-10"/><linearGradient id="linear-gradient-13" x1="612.02" y1="433.18" x2="636.39" y2="433.18" xlink:href="#linear-gradient-10"/><linearGradient id="linear-gradient-14" x1="349.61" y1="199.96" x2="429.57" y2="85.13" gradientTransform="translate(0)" gradientUnits="userSpaceOnUse"><stop offset="0" stop-color="#000626"/><stop offset="0.09" stop-color="#0a0535"/><stop offset="0.27" stop-color="#1a034b"/><stop offset="0.46" stop-color="#25015a"/><stop offset="0.68" stop-color="#2b0063"/><stop offset="1" stop-color="#2d0066"/></linearGradient><linearGradient id="linear-gradient-15" x1="368.22" y1="212.92" x2="448.18" y2="98.08" xlink:href="#linear-gradient-14"/><linearGradient id="linear-gradient-16" x1="261.98" y1="52.43" x2="365.99" y2="165.73" gradientTransform="translate(0)" xlink:href="#linear-gradient-6"/><linearGradient id="linear-gradient-17" x1="217.82" y1="-67.01" x2="455.45" y2="191.84" gradientTransform="translate(0)" xlink:href="#linear-gradient-6"/><linearGradient id="linear-gradient-18" x1="275.86" y1="18.42" x2="419.51" y2="174.91" gradientTransform="translate(0)" xlink:href="#linear-gradient-6"/><linearGradient id="linear-gradient-19" x1="329.57" y1="20.96" x2="486.51" y2="191.92" gradientTransform="translate(0)" xlink:href="#linear-gradient-6"/></defs><title>playingcomputergames</title><g class="cls-1"><g id="Layer_2" data-name="Layer 2"><g id="OBJECTS"><path class="cls-2" d="M450.21,0A246.8,246.8,0,0,0,522.7,163.15,247,247,0,0,0,698.47,236,250.59,250.59,0,0,0,750,230.61v50.94a302.72,302.72,0,0,1-51.53,4.4A296.6,296.6,0,0,1,487.35,198.5,296.38,296.38,0,0,1,400.18,0ZM94.49,500H147a299.84,299.84,0,0,0,12-84A296.62,296.62,0,0,0,71.54,204.84,299.67,299.67,0,0,0,0,151.88v58.34a250.55,250.55,0,0,1,36.19,30A247,247,0,0,1,109,416,248.8,248.8,0,0,1,94.49,500Z"/><circle class="cls-3" cx="375" cy="237.95" r="216.94"/><path class="cls-4" d="M375,406c142.93,0,273.8-24.48,375-65.08V500H0V340.92C101.2,381.52,232.07,406,375,406Z"/><path class="cls-5" d="M689.44,362.17c21.16-6.47,41.4-13.56,60.56-21.25v2.66C733.52,351,716.22,358,698.24,364.4,695.32,363.6,692.38,362.87,689.44,362.17Z"/><path class="cls-6" d="M61.31,362.41q-4.05,1.15-8,2.55Q25.5,355.08,0,343.58v-2.66Q29.09,352.59,61.31,362.41Z"/><path class="cls-7" d="M586.69,420.72q13.44-2.94,26.36-6.17a2.39,2.39,0,0,1,2.73,1.64q1.89,5.78,3.86,11.51a2,2,0,0,1-1.37,2.68q-13.44,3.51-27.44,6.74a2.35,2.35,0,0,1-2.77-1.71q-1.53-6-3-12A2.18,2.18,0,0,1,586.69,420.72Zm149.82,27.84q6.82-2.87,13.49-5.79V425.88q-11.38,5-23.24,9.81a1.61,1.61,0,0,0-.71,2.57q3.48,4.74,7.05,9.43A3,3,0,0,0,736.51,448.56Zm3.79-23.22q-3.69-4.57-7.3-9.21a2.92,2.92,0,0,0-3.2-1q-11.88,4.86-24.32,9.51a1.65,1.65,0,0,0-.77,2.57q3.21,5,6.5,9.84a2.86,2.86,0,0,0,3.26,1q12.91-5,25.26-10.25A1.53,1.53,0,0,0,740.3,425.34Zm-121.66-9.88q1.93,5.76,4,11.47a2.43,2.43,0,0,0,2.85,1.55q13.29-3.57,26-7.41a1.84,1.84,0,0,0,1.09-2.62q-2.46-5.44-4.83-10.95A2.47,2.47,0,0,0,645,406q-12.24,3.51-25,6.79A2,2,0,0,0,618.64,415.46ZM708,438.3q-3.25-4.92-6.42-9.9a2.8,2.8,0,0,0-3.15-1.13q-12.59,4.61-25.73,9a1.81,1.81,0,0,0-1.06,2.64q2.76,5.26,5.6,10.49a2.75,2.75,0,0,0,3.21,1.19q13.63-4.69,26.71-9.66A1.67,1.67,0,0,0,708,438.3ZM750,447v-1.3A1.48,1.48,0,0,0,750,447Zm0-59.47q-7.71,3.36-15.68,6.65c-1,.4-1.12,1.48-.37,2.42q3.66,4.57,7.4,9.1a3,3,0,0,0,3.19.9l5.46-2.37Zm-69.42,9.77q2.88,5.17,5.84,10.28a2.62,2.62,0,0,0,3,1.24q11.93-4.15,23.32-8.5a1.52,1.52,0,0,0,.54-2.46q-3.36-4.81-6.65-9.69a2.7,2.7,0,0,0-2.93-1.18q-10.92,4-22.36,7.8A1.65,1.65,0,0,0,680.58,397.26Zm28.45-10q3.33,4.84,6.73,9.63a2.76,2.76,0,0,0,3,1.08q11.26-4.38,22-8.92c.94-.39,1.06-1.45.28-2.37q-3.8-4.47-7.51-9a2.85,2.85,0,0,0-3-1q-10.29,4.15-21.08,8.17C708.57,385.15,708.35,386.24,709,387.23Zm-58.57,19.48c1.61,3.64,3.25,7.28,4.91,10.89a2.53,2.53,0,0,0,2.92,1.4q12.6-3.88,24.67-8a1.67,1.67,0,0,0,.81-2.55q-2.91-5.15-5.75-10.34a2.58,2.58,0,0,0-2.87-1.33q-11.56,3.77-23.67,7.34A1.82,1.82,0,0,0,650.46,406.71Zm23.47,43.79q-2.79-5.25-5.51-10.55a2.66,2.66,0,0,0-3.09-1.29Q652,442.95,638.17,447a2,2,0,0,0-1.34,2.7q2.28,5.58,4.65,11.1a2.64,2.64,0,0,0,3.15,1.36q14.37-4.33,28.18-9A1.83,1.83,0,0,0,673.93,450.5Zm-93,33.54q1.62,6,3.34,11.87a2.6,2.6,0,0,0,3.19,1.57q16.2-4,31.81-8.34a2.15,2.15,0,0,0,1.65-2.78q-2.18-5.67-4.24-11.38a2.61,2.61,0,0,0-3.13-1.48q-15.09,4-30.75,7.75A2.33,2.33,0,0,0,580.89,484Zm20.8-47q-13.87,3.38-28.3,6.45a2.3,2.3,0,0,0-1.78,2.73q1.33,6.09,2.76,12.13a2.39,2.39,0,0,0,2.88,1.71q15-3.34,29.38-7a2.12,2.12,0,0,0,1.56-2.72q-1.87-5.81-3.66-11.65A2.42,2.42,0,0,0,601.69,437.06ZM497,500h40.37c-.38-2.15-.79-4.3-1.16-6.45a2.46,2.46,0,0,0-3-1.82q-16.58,3.11-33.73,5.8A2.86,2.86,0,0,0,497,500ZM305,467.13a4,4,0,0,0-3.78,2.59q-2.16,7.2-4.22,14.38c-.42,1.47.62,2.69,2.32,2.72q28.08.51,55-.17a3.62,3.62,0,0,0,3.43-2.68q1.32-7,2.75-14.08a2.12,2.12,0,0,0-2.31-2.57Q332.21,467.79,305,467.13Zm-1.28-5.62a2.07,2.07,0,0,0,2.14,2.75q39,1,75.58-.33a3.46,3.46,0,0,0,3.22-2.69q1.2-7,2.51-14a2.05,2.05,0,0,0-2.19-2.52q-35.32,1-73-.21a4,4,0,0,0-3.73,2.58Q306,454.3,303.76,461.51Zm370.49-42.86q2.78,5.24,5.65,10.43a2.65,2.65,0,0,0,3.08,1.23q12.84-4.41,25.11-9.06a1.61,1.61,0,0,0,.71-2.54q-3.27-4.89-6.46-9.84a2.73,2.73,0,0,0-3-1.17q-11.8,4.29-24.14,8.37A1.73,1.73,0,0,0,674.25,418.65ZM705,407.9q3.24,4.92,6.55,9.79a2.79,2.79,0,0,0,3.14,1.06q12.14-4.68,23.73-9.57a1.47,1.47,0,0,0,.44-2.45q-3.7-4.55-7.33-9.16a2.88,2.88,0,0,0-3.09-1q-11.13,4.49-22.79,8.83A1.58,1.58,0,0,0,705,407.9Zm-61.43,32.73q-2.35-5.52-4.63-11.09a2.51,2.51,0,0,0-2.91-1.48q-13.17,3.72-26.89,7.17a2.1,2.1,0,0,0-1.49,2.7q1.83,5.82,3.75,11.6a2.48,2.48,0,0,0,3,1.56q14.25-3.75,27.94-7.78A1.94,1.94,0,0,0,643.52,440.63ZM746.6,424.92l3.4-1.49V406.62q-6.71,2.94-13.58,5.82a1.5,1.5,0,0,0-.5,2.48q3.65,4.6,7.38,9.14A3,3,0,0,0,746.6,424.92ZM583.29,438.83a2.22,2.22,0,0,0,1.67-2.72q-1.49-6-2.88-12a2.29,2.29,0,0,0-2.65-1.79q-13.59,2.88-27.74,5.45a2.4,2.4,0,0,0-1.88,2.72q.91,6.27,1.94,12.49a2.28,2.28,0,0,0,2.7,1.86Q569.15,442,583.29,438.83Zm58.52-10.13q2.31,5.54,4.71,11a2.59,2.59,0,0,0,3,1.39q13.53-4.11,26.51-8.47a1.75,1.75,0,0,0,1-2.61q-2.82-5.22-5.57-10.49a2.6,2.6,0,0,0-3-1.32q-12.48,4-25.5,7.81A1.91,1.91,0,0,0,641.81,428.7ZM638,461.82q-2.33-5.55-4.56-11.15a2.55,2.55,0,0,0-3-1.45q-14,3.94-28.61,7.59a2.18,2.18,0,0,0-1.63,2.74q1.78,5.85,3.68,11.67a2.54,2.54,0,0,0,3.08,1.53q15.12-3.93,29.66-8.2A2,2,0,0,0,638,461.82Zm-77.64,19.57q-1.34-6.11-2.57-12.23a2.41,2.41,0,0,0-2.89-1.79q-15.48,3.12-31.54,5.86a2.64,2.64,0,0,0-2.25,2.78q.78,6.36,1.64,12.67a2.4,2.4,0,0,0,2.94,1.87q16.62-3,32.65-6.37A2.43,2.43,0,0,0,560.31,481.39ZM482.94,500h9.9a2.58,2.58,0,0,0-2.6-1.06Zm-94.62-9.34c-.4,3.12-.75,6.23-1.12,9.34h42.33q.25-6.15.59-12.32a2.25,2.25,0,0,0-2.64-2.27q-17.7,1.5-36,2.52A3.43,3.43,0,0,0,388.32,490.66Zm139.43-38.51q-15.29,2.55-31.13,4.72a2.77,2.77,0,0,0-2.39,2.76q.28,6.53.67,13a2.28,2.28,0,0,0,2.73,2q16.42-2.38,32.28-5.18a2.55,2.55,0,0,0,2.16-2.77q-.87-6.32-1.64-12.64A2.26,2.26,0,0,0,527.75,452.15Zm-53.81-10.82q-.13,6.66-.18,13.32a2.16,2.16,0,0,0,2.53,2.16q16.13-1.87,31.68-4.16a2.67,2.67,0,0,0,2.27-2.75q-.45-6.47-.8-13a2.18,2.18,0,0,0-2.48-2.09q-15,2.06-30.52,3.74A2.9,2.9,0,0,0,473.94,441.33Zm38.82-4.87q.39,6.48.89,12.93a2.22,2.22,0,0,0,2.62,2q15.4-2.37,30.25-5.11a2.44,2.44,0,0,0,2-2.75q-1-6.24-1.85-12.52a2.22,2.22,0,0,0-2.57-1.93q-14.28,2.48-29.12,4.64A2.63,2.63,0,0,0,512.76,436.46ZM364.37,486.37q18.6-.62,36.63-1.73a3.32,3.32,0,0,0,3.11-2.73q.76-6.89,1.62-13.79a2.14,2.14,0,0,0-2.41-2.41q-17.43,1-35.41,1.41a3.57,3.57,0,0,0-3.34,2.68q-1.38,7-2.66,14.06A2.17,2.17,0,0,0,364.37,486.37Zm-69.63,5.92c-.72,2.57-1.39,5.14-2.09,7.71h90c.38-3,.75-6.07,1.16-9.11a2.21,2.21,0,0,0-2.54-2.43q-40,1.89-82.69,1.22A4,4,0,0,0,294.74,492.29ZM541.24,500h35.67l1.77-.41a2.36,2.36,0,0,0,2-2.81q-1.67-5.94-3.25-11.92a2.54,2.54,0,0,0-3.07-1.65q-15.82,3.6-32.24,6.82a2.56,2.56,0,0,0-2.18,2.81C540.33,495.23,540.79,497.61,541.24,500ZM750,368.5q-6.86,3-13.94,5.9c-.88.36-1,1.4-.22,2.32q3.75,4.5,7.58,8.94a2.93,2.93,0,0,0,3.09.92l3.49-1.52Zm0,93.67V451.49c-.81-1-1.63-1.93-2.43-2.9a3.13,3.13,0,0,0-3.45-.8A1005.82,1005.82,0,0,1,587.41,500H648.8A1000.27,1000.27,0,0,0,750,462.17ZM488.08,458q-16,2.07-32.56,3.71a3,3,0,0,0-2.7,2.75q-.26,6.72-.41,13.42a2.23,2.23,0,0,0,2.64,2.2q17.16-1.84,33.73-4.13a2.8,2.8,0,0,0,2.48-2.78q-.35-6.51-.58-13.07A2.22,2.22,0,0,0,488.08,458Zm242.09-9.1q-3.52-4.71-7-9.49a3,3,0,0,0-3.3-1q-12.89,5.1-26.35,10a1.75,1.75,0,0,0-1,2.64q3,5.08,6.18,10.11a2.87,2.87,0,0,0,3.35,1Q716,457,729.39,451.51A1.63,1.63,0,0,0,730.17,448.9ZM446.6,462.56q-16.71,1.53-34,2.61a3.29,3.29,0,0,0-3,2.72q-.81,6.9-1.52,13.77a2.19,2.19,0,0,0,2.55,2.35q17.88-1.25,35.19-3a3.06,3.06,0,0,0,2.79-2.76q.19-6.7.5-13.45A2.18,2.18,0,0,0,446.6,462.56Zm120.62,19.7q15.87-3.48,31.15-7.33a2.21,2.21,0,0,0,1.71-2.77q-1.83-5.84-3.58-11.72a2.47,2.47,0,0,0-3-1.61q-14.74,3.56-30.07,6.77a2.4,2.4,0,0,0-1.94,2.77q1.29,6.12,2.67,12.19A2.48,2.48,0,0,0,567.22,482.26Zm92-7.43Q656.58,469.46,654,464a2.71,2.71,0,0,0-3.19-1.31q-14.36,4.44-29.27,8.58a2.11,2.11,0,0,0-1.57,2.76q2.1,5.69,4.31,11.32a2.7,2.7,0,0,0,3.26,1.4q15.44-4.46,30.29-9.22A2,2,0,0,0,659.2,474.83Zm36.43-12.52q-3.09-5.06-6.1-10.17a2.82,2.82,0,0,0-3.25-1.13q-13.6,4.78-27.8,9.32A1.93,1.93,0,0,0,657.2,463q2.59,5.38,5.27,10.73a2.77,2.77,0,0,0,3.3,1.22q14.7-4.85,28.8-10A1.79,1.79,0,0,0,695.63,462.31ZM538.36,468q15.71-2.89,30.83-6.14a2.34,2.34,0,0,0,1.86-2.76q-1.38-6.06-2.67-12.17a2.33,2.33,0,0,0-2.76-1.79q-14.58,3-29.71,5.63a2.53,2.53,0,0,0-2.09,2.75q.82,6.33,1.73,12.6A2.33,2.33,0,0,0,538.36,468Zm-105-23.07q-.69,6.84-1.29,13.67a2.14,2.14,0,0,0,2.44,2.32q16.83-1.34,33.1-3.12a2.91,2.91,0,0,0,2.58-2.75q.09-6.66.28-13.35a2.13,2.13,0,0,0-2.39-2.23q-15.68,1.57-31.91,2.74A3.16,3.16,0,0,0,433.36,444.92Zm-5,13.95q.65-6.84,1.38-13.7a2.08,2.08,0,0,0-2.29-2.38q-16.37,1.05-33.3,1.64a3.44,3.44,0,0,0-3.13,2.69q-1.26,7-2.41,14a2.11,2.11,0,0,0,2.33,2.48q17.55-.75,34.52-2A3.18,3.18,0,0,0,428.34,458.87Zm53.79,38.63q17.37-2.43,34.16-5.31a2.66,2.66,0,0,0,2.33-2.8q-.82-6.34-1.53-12.71a2.34,2.34,0,0,0-2.81-1.94q-16.21,2.63-33,4.84a2.88,2.88,0,0,0-2.56,2.78q.23,6.57.56,13.1A2.35,2.35,0,0,0,482.13,497.5Zm-47.67-10.21q-.3,6.36-.51,12.71h29.22q4.62-.57,9.19-1.17A2.92,2.92,0,0,0,475,496q-.28-6.54-.46-13.13a2.29,2.29,0,0,0-2.73-2.11q-16.95,2.08-34.48,3.74A3.13,3.13,0,0,0,434.46,487.29Z"/><path class="cls-8" d="M161.29,84.79c-1.38-.15-2.29-.84-2.3-2.26a2.23,2.23,0,0,1,4.45-.15C163.51,83.8,162.64,84.54,161.29,84.79ZM33.43,195.11a2.11,2.11,0,0,0-.18,4.22c1.31.12,2-.75,2.31-2A2.16,2.16,0,0,0,33.43,195.11Zm12.45,0a2.11,2.11,0,0,0,.21,4.22,2.15,2.15,0,0,0,2.12-2.2C47.93,195.86,47.2,195,45.88,195.12ZM57,197.27a2.11,2.11,0,0,0,4.22,0c.06-1.31-.82-2-2.1-2.24A2.16,2.16,0,0,0,57,197.27Zm12.71.17a1.91,1.91,0,0,0,2.15,1.84A1.94,1.94,0,0,0,73.83,197a2.08,2.08,0,0,0-2.17-1.89C70.43,195.4,69.6,196.12,69.74,197.44Zm93.52-166.6A1.91,1.91,0,0,0,161.14,29a1.94,1.94,0,0,0-2,2.24,2.07,2.07,0,0,0,2.12,1.92C162.56,32.89,163.38,32.15,163.26,30.84ZM148.69,3.68a1.94,1.94,0,0,0-2.18,2,1.92,1.92,0,0,0,1.93,2.07,2.06,2.06,0,1,0,.25-4.11Zm10.6,14.8a1.78,1.78,0,0,0,2.07,1.82,1.76,1.76,0,0,0,1.78-1.91,1.93,1.93,0,1,0-3.85.09Zm14.54,74.7a2,2,0,0,0,0,4,2,2,0,1,0,0-4ZM135.4,170a1.74,1.74,0,0,0-1.85,1.83,1.77,1.77,0,0,0,1.88,2,1.93,1.93,0,1,0,0-3.85Zm38.43-89.48a2,2,0,0,0,0,4,2,2,0,1,0,0-4ZM123,186.5a1.74,1.74,0,0,0,1.78-1.9,1.77,1.77,0,0,0-2-1.94,1.92,1.92,0,1,0,.18,3.84Zm-25.56,8.81a1.78,1.78,0,0,0-1.8,2.1,1.75,1.75,0,0,0,1.93,1.74,1.85,1.85,0,0,0,1.94-2A1.83,1.83,0,0,0,97.41,195.31Zm-11,1.81a2,2,0,1,0-4,.22,2,2,0,1,0,4-.22Zm-76.32.13a1.83,1.83,0,0,0-2-2,1.82,1.82,0,0,0-2,1.95,1.92,1.92,0,0,0,2,2A1.92,1.92,0,0,0,10.09,197.25Zm149.14-63.73a2,2,0,1,0,4,0c0-1.23-.73-1.9-2-2A1.91,1.91,0,0,0,159.23,133.52Zm16.55-25.87a1.92,1.92,0,0,0-3.84.19,1.83,1.83,0,0,0,2,1.91A1.85,1.85,0,0,0,175.78,107.65Zm-27.36,49.27a1.74,1.74,0,0,0-1.78,1.9,1.77,1.77,0,0,0,2,1.94,1.92,1.92,0,1,0-.18-3.84Zm-39.86,52.86a1.62,1.62,0,1,0,3.23,0,1.61,1.61,0,0,0-1.62-1.52A1.62,1.62,0,0,0,108.56,209.78Zm-9.3.19a1.63,1.63,0,0,0-1.8-1.82,1.61,1.61,0,0,0-1.66,1.74,1.75,1.75,0,0,0,1.69,1.75A1.73,1.73,0,0,0,99.26,210Zm-16.59-.31a1.66,1.66,0,0,0,1.66,2,1.63,1.63,0,0,0,1.86-1.55c.14-1.16-.55-1.79-1.71-2A1.79,1.79,0,0,0,82.67,209.66ZM31.78,222.83a1.54,1.54,0,0,0,1.59,1.76A1.52,1.52,0,0,0,35,223.11c.09-1-.56-1.62-1.57-1.79A1.63,1.63,0,0,0,31.78,222.83Zm40-14.76a1.81,1.81,0,1,0,.09,3.61c1.15,0,1.7-.74,1.8-1.86A1.74,1.74,0,0,0,71.74,208.07ZM61,209.82A1.68,1.68,0,0,0,59.15,208a1.7,1.7,0,0,0-1.84,2,1.84,1.84,0,0,0,3.67-.21Zm-15,1.89A1.67,1.67,0,0,0,47.88,210,1.7,1.7,0,0,0,46,208a1.84,1.84,0,0,0,0,3.68ZM31.59,210a1.81,1.81,0,1,0,3.61-.19c-.05-1.14-.78-1.68-2.09-1.76A1.82,1.82,0,0,0,31.59,210Zm-10.93-1.9a1.81,1.81,0,0,0,.19,3.61c1.14-.06,1.68-.78,1.74-1.92A1.75,1.75,0,0,0,20.66,208.07ZM8.05,211.61a1.74,1.74,0,1,0,0-3.47c-1,0-1.57.72-1.71,1.73A1.76,1.76,0,0,0,8.05,211.61Zm38.1,9.74A1.54,1.54,0,0,0,44.43,223a1.51,1.51,0,0,0,1.51,1.61,1.62,1.62,0,1,0,.21-3.24Zm12.85,0A1.52,1.52,0,0,0,57.52,223a1.54,1.54,0,0,0,1.76,1.58,1.61,1.61,0,0,0,1.51-1.64C60.62,221.93,60,221.28,59,221.36Zm12.94,3.22a1.52,1.52,0,0,0,1.47-1.65,1.55,1.55,0,0,0-1.78-1.57A1.61,1.61,0,0,0,70.14,223C70.32,224,70.91,224.68,71.94,224.58ZM188.69,56.74a1.73,1.73,0,1,0-3.46.16c.07,1,.78,1.56,1.9,1.64A1.77,1.77,0,0,0,188.69,56.74Zm-1.55,24a1.77,1.77,0,1,0-.37,3.53,1.76,1.76,0,0,0,2-1.67A1.74,1.74,0,0,0,187.14,80.75Zm-1.87-36.59a1.68,1.68,0,0,0,3.36,0c.06-1-.65-1.61-1.66-1.79C186,42.56,185.26,43.11,185.27,44.16Zm-.09,25.23A1.66,1.66,0,0,0,187,71.18a1.63,1.63,0,0,0,1.69-1.74c0-1.17-.73-1.73-1.85-1.84C185.86,67.79,185.18,68.34,185.18,69.39Zm-62.33,126.1a1.73,1.73,0,1,0,.06,3.46,1.73,1.73,0,0,0,1.68-1.75A1.75,1.75,0,0,0,122.85,195.49Zm-14.48,1.67a1.81,1.81,0,0,0,3.61.13,1.81,1.81,0,1,0-3.61-.13Zm51.08-38.51A1.77,1.77,0,1,0,163,159a1.77,1.77,0,1,0-3.53-.37Zm16.25-38.17a1.68,1.68,0,0,0-1.76-1.87,1.7,1.7,0,0,0-1.92,1.92,1.84,1.84,0,0,0,3.68,0Zm11.41,1.64a1.68,1.68,0,0,0-.2-3.35,1.72,1.72,0,0,0-1.68,1.77C185.47,121.55,186.07,122.25,187.11,122.12Zm-1.89-27.07a1.73,1.73,0,1,0,3.46.11c0-1-.67-1.59-1.67-1.77A1.76,1.76,0,0,0,185.22,95.05Zm-34.88,77a1.66,1.66,0,0,0-1.78-1.88,1.64,1.64,0,0,0-1.76,1.67,1.77,1.77,0,1,0,3.54.21Zm9.26-.25a1.54,1.54,0,0,0,1.58,1.76,1.52,1.52,0,0,0,1.65-1.47,1.62,1.62,0,1,0-3.23-.29ZM174,4.12a1.54,1.54,0,0,0-1.75,1.59,1.52,1.52,0,0,0,1.49,1.64c1,.07,1.61-.58,1.79-1.64A1.65,1.65,0,0,0,174,4.12ZM159.4,5.66A1.81,1.81,0,0,0,163,5.8c0-1.14-.64-1.74-1.87-1.93A1.79,1.79,0,0,0,159.4,5.66Zm12.73,12.71a1.61,1.61,0,0,0,1.66,1.74,1.63,1.63,0,0,0,1.79-1.83,1.73,1.73,0,0,0-3.45.09Zm1.72,126.14a1.68,1.68,0,0,0-.1,3.36c1.05.08,1.63-.62,1.85-1.72A1.77,1.77,0,0,0,173.85,144.51Zm-14.48,1.56a1.84,1.84,0,1,0,3.68.14c0-1.15-.65-1.75-1.87-1.9A1.77,1.77,0,0,0,159.37,146.07Zm-22.13,38.55a1.66,1.66,0,0,0-1.84-1.81,1.63,1.63,0,0,0-1.7,1.73c0,1.17.71,1.74,1.83,1.85C136.56,186.22,137.24,185.67,137.24,184.62ZM148.67,183a1.55,1.55,0,0,0-1.72,1.63,1.51,1.51,0,0,0,1.51,1.61c1,.05,1.61-.61,1.76-1.64A1.64,1.64,0,0,0,148.67,183ZM174,131.78a1.78,1.78,0,0,0-.27,3.54c1.16.08,1.77-.63,1.95-1.73A1.75,1.75,0,0,0,174,131.78ZM172.05,30.93a1.81,1.81,0,1,0,3.61.19,1.81,1.81,0,1,0-3.61-.19Zm13.3.29A1.51,1.51,0,0,0,187,32.64a1.54,1.54,0,0,0,1.52-1.81,1.64,1.64,0,0,0-1.68-1.46C185.87,29.6,185.22,30.18,185.35,31.22Zm1.76,74.85a1.73,1.73,0,1,0-.2,3.46c1,.06,1.6-.63,1.81-1.62A1.76,1.76,0,0,0,187.11,106.07Zm0-89.1a1.28,1.28,0,0,0-1.56,1.19,1.3,1.3,0,0,0,1.34,1.63,1.32,1.32,0,0,0,1.48-1.3A1.33,1.33,0,0,0,187.12,17ZM135.55,208.56a1.22,1.22,0,0,0-1.39,1.34,1.2,1.2,0,0,0,1.23,1.29,1.32,1.32,0,1,0,.16-2.63Zm-14.14,1.25a1.27,1.27,0,0,0,1.29,1.47,1.42,1.42,0,1,0,.13-2.83A1.31,1.31,0,0,0,121.41,209.81Zm67-76.13a1.35,1.35,0,0,0-1.44-1.6,1.33,1.33,0,0,0-1.49,1.33c-.06,1,.44,1.54,1.56,1.63A1.36,1.36,0,0,0,188.42,133.68Zm12.44-.19a1.26,1.26,0,0,0-2.51.11,1.27,1.27,0,0,0,1.3,1.23C200.39,134.67,200.9,134.26,200.86,133.49ZM71.73,234.36a1.26,1.26,0,0,0,.11,2.51,1.29,1.29,0,0,0,1.24-1.31C72.91,234.83,72.5,234.31,71.73,234.36Zm-12.38-.05a1.24,1.24,0,0,0-1.52,1.21,1.21,1.21,0,0,0,1.11,1.4,1.32,1.32,0,1,0,.41-2.61Zm-14.62,1.46a1.22,1.22,0,0,0,1.36,1.16,1.23,1.23,0,0,0,1.26-1.47c-.07-.74-.59-1.14-1.48-1.19A1.33,1.33,0,0,0,44.73,235.77Zm154.83-126.6A1.23,1.23,0,0,0,201,108a1.25,1.25,0,0,0-1.19-1.56,1.37,1.37,0,1,0-.2,2.72ZM188.26,5.94a1.24,1.24,0,0,0-1.21-1.52,1.22,1.22,0,0,0-1.4,1.11,1.32,1.32,0,1,0,2.61.41ZM34.65,235.67a1.18,1.18,0,0,0-1.19-1.31,1.19,1.19,0,0,0-1.32,1.2c0,.77.47,1.18,1.21,1.34A1.26,1.26,0,0,0,34.65,235.67ZM22,235.56a1.26,1.26,0,1,0-2.51.11c0,.75.56,1.16,1.4,1.24C21.49,236.7,22.07,236.35,22,235.56ZM201,56.92a1.28,1.28,0,0,0-1.2-1.55,1.42,1.42,0,1,0-.31,2.82A1.32,1.32,0,0,0,201,56.92ZM9.52,223a1.28,1.28,0,0,0-1.3-1.47,1.42,1.42,0,1,0-.11,2.83A1.3,1.3,0,0,0,9.52,223Zm191.4-102.55a1.23,1.23,0,0,0-1.4-1.34,1.2,1.2,0,0,0-1.23,1.28c0,.87.54,1.3,1.37,1.37A1.3,1.3,0,0,0,200.92,120.48ZM19.29,222.88a1.35,1.35,0,0,0,1.49,1.56,1.32,1.32,0,0,0,1.44-1.38,1.38,1.38,0,0,0-1.46-1.57A1.36,1.36,0,0,0,19.29,222.88Zm65.34-1.37a1.47,1.47,0,1,0-.17,2.93c.88,0,1.37-.5,1.46-1.48A1.35,1.35,0,0,0,84.63,221.51Zm12.83.1a1.23,1.23,0,0,0-1.29,1.26,1.25,1.25,0,0,0,1.32,1.46c.9,0,1.36-.49,1.43-1.48A1.29,1.29,0,0,0,97.46,221.61Zm14,1.44a1.23,1.23,0,0,0-1.34-1.39,1.21,1.21,0,0,0-1.29,1.23,1.32,1.32,0,1,0,2.63.16ZM199.72,68a1.41,1.41,0,1,0-.13,2.82c.88,0,1.35-.47,1.44-1.46A1.3,1.3,0,0,0,199.72,68Zm1.19-36.81a1.24,1.24,0,0,0-1.25-1.48,1.21,1.21,0,0,0-1.37,1.15,1.32,1.32,0,1,0,2.62.33ZM199.69,81.1a1.28,1.28,0,0,0-1.49,1.27,1.29,1.29,0,0,0,1.42,1.55,1.41,1.41,0,0,0,.07-2.82Zm1.28-37a1.23,1.23,0,0,0-1.25-1.32,1.25,1.25,0,0,0-1.48,1.3c0,.89.46,1.37,1.47,1.45A1.3,1.3,0,0,0,201,44.08ZM172.55,171.75a1.24,1.24,0,0,0,1.23,1.5,1.21,1.21,0,0,0,1.38-1.13,1.32,1.32,0,1,0-2.61-.37Zm15.66-12.86a1.26,1.26,0,1,0-2.51-.11c0,.77.47,1.19,1.21,1.35A1.28,1.28,0,0,0,188.21,158.89Zm-14.16-1.51a1.47,1.47,0,1,0-.16,2.92c.88,0,1.36-.5,1.45-1.48A1.34,1.34,0,0,0,174.05,157.38Zm-12.79,25.84a1.22,1.22,0,0,0-1.4,1.15,1.26,1.26,0,0,0,1.2,1.57,1.37,1.37,0,1,0,.2-2.72Zm-24.33,14.15a1.35,1.35,0,0,0-1.43-1.61,1.32,1.32,0,0,0-1.49,1.33c-.07,1,.44,1.54,1.55,1.63A1.36,1.36,0,0,0,136.93,197.37Zm11.51-1.51a1.24,1.24,0,0,0-1.24,1.33,1.25,1.25,0,0,0,1.38,1.4c.91,0,1.33-.55,1.37-1.44A1.31,1.31,0,0,0,148.44,195.86Zm37.16-49.51a1.22,1.22,0,0,0,1.34,1.21,1.26,1.26,0,0,0,1.38-1.41c0-.91-.58-1.32-1.47-1.34A1.3,1.3,0,0,0,185.6,146.35ZM201,95.12a1.26,1.26,0,0,0-1.39-1.37,1.29,1.29,0,0,0-1.42,1.55c.06.89.63,1.28,1.58,1.28A1.3,1.3,0,0,0,201,95.12ZM9.26,235.58a1.09,1.09,0,0,0-1.35-1.1,1.1,1.1,0,0,0-1,1.29,1.19,1.19,0,0,0,1.24,1C8.85,236.63,9.32,236.25,9.26,235.58ZM198.44,18.31a1.16,1.16,0,1,0,2.31,0c0-.67-.47-1-1.21-1.15A1.23,1.23,0,0,0,198.44,18.31Zm13.74,52.26a1.08,1.08,0,0,0,1.22-1,1.1,1.1,0,0,0-1.19-1.28,1.16,1.16,0,0,0,0,2.31ZM122.94,221.81a1.16,1.16,0,1,0-.13,2.31c.68,0,1-.43,1.21-1.19A1.24,1.24,0,0,0,122.94,221.81ZM174,183.42a1.16,1.16,0,1,0-.19,2.31c.67.06,1.05-.41,1.22-1.07A1.2,1.2,0,0,0,174,183.42Zm-12.67,12.65a1.16,1.16,0,1,0-.14,2.31c.67,0,1.05-.44,1.22-1.19A1.26,1.26,0,0,0,161.34,196.07Zm51-114.72a1.16,1.16,0,1,0-.13,2.31c.67,0,1-.43,1.19-1.1A1.19,1.19,0,0,0,212.37,81.35ZM84.5,234.45a1.16,1.16,0,1,0,0,2.32c.67,0,1-.48,1.16-1.22A1.25,1.25,0,0,0,84.5,234.45ZM187.11,171a.92.92,0,0,0-1.14,1,.88.88,0,0,0,.94,1,.91.91,0,0,0,1-.88C188,171.45,187.73,171,187.11,171ZM199.57,4.82a.82.82,0,0,0-.88.79.84.84,0,0,0,.84,1c.61.05.94-.28,1-.91A.85.85,0,0,0,199.57,4.82ZM148.63,208.88a.89.89,0,0,0-1,.87,1,1,0,1,0,1-.87ZM199.7,145.2a.89.89,0,0,0-1.08.83.92.92,0,0,0,1,1.15c.61,0,.93-.34,1-1.07A.92.92,0,0,0,199.7,145.2Zm12.43-102a.82.82,0,0,0-.8.86.92.92,0,1,0,1.84,0A.87.87,0,0,0,212.13,43.21Zm1.1,13.72a.92.92,0,0,0-1-1.15.89.89,0,0,0-1,.94c0,.61.28,1,1,1.05A.9.9,0,0,0,213.23,56.93ZM135.48,222.05a.83.83,0,0,0-.92.74.85.85,0,0,0,.78,1.09c.59.06,1-.22,1.07-1A.89.89,0,0,0,135.48,222.05Zm76.89-115.23a.9.9,0,0,0-1.1.81.92.92,0,0,0,1,1.16c.61,0,.94-.32,1-1A.89.89,0,0,0,212.37,106.82ZM109.26,235.6a.82.82,0,0,0,.74.92.85.85,0,0,0,1.09-.78c.06-.59-.22-1-1-1.06A.89.89,0,0,0,109.26,235.6Zm-11.65-1a.89.89,0,0,0-1.06.85c-.06.7.27,1.14,1,1.12a1,1,0,0,0,0-2ZM212.37,94.17a.9.9,0,0,0-1.1.81.92.92,0,0,0,1,1.16.9.9,0,0,0,1-.92A.91.91,0,0,0,212.37,94.17Zm-.16,25.36a.82.82,0,0,0-.87.79.84.84,0,0,0,.84,1c.61,0,.94-.28,1-.91A.86.86,0,0,0,212.21,119.53ZM163.4,56.86a2.06,2.06,0,0,0-2.21-2.28A2,2,0,0,0,159,56.67c-.05,1.41.85,2.14,2.19,2.34C162.49,58.83,163.37,58.15,163.4,56.86ZM159.06,44a2.15,2.15,0,1,0,4.3.18c.06-1.29-.81-2-2.06-2.24A2.18,2.18,0,0,0,159.06,44Zm14.73-1.78A1.74,1.74,0,0,0,171.94,44a1.76,1.76,0,0,0,1.88,2,1.92,1.92,0,1,0,0-3.84Zm2.05,27.24a2,2,0,1,0-4,0c0,1.23.73,1.9,2,2A1.91,1.91,0,0,0,175.84,69.44Zm-2-14.65a2,2,0,0,0,0,4,2,2,0,1,0,0-4ZM163.4,95.28A2.06,2.06,0,0,0,161.22,93,2,2,0,0,0,159,95c-.07,1.41.83,2.14,2.27,2.38A2.25,2.25,0,0,0,163.4,95.28Zm-4.35,12.49a2.16,2.16,0,1,0,4.31,0c0-1.28-.91-2-2.24-2.14A2.22,2.22,0,0,0,159.05,107.77Zm2.12,10.57a2,2,0,0,0-2.07,2,2,2,0,0,0,2,2.24c1.31,0,2-.83,2.23-2.1A2.15,2.15,0,0,0,161.17,118.34Zm-65.8,66.11a2.16,2.16,0,1,0,4.31.16c0-1.29-.82-2-2.14-2.25A2.23,2.23,0,0,0,95.37,184.45Zm12.75.07a2.06,2.06,0,1,0,4.11-.1,2.06,2.06,0,0,0-4.11.1ZM22.81,197.31a1.94,1.94,0,0,0-2.09-2.14,1.93,1.93,0,0,0-2,2.2,2.06,2.06,0,0,0,4.11-.06Zm125.63-53.23a2.11,2.11,0,0,0,.14,4.22c1.3,0,2-.89,2.15-2.2C150.46,144.88,149.76,144,148.44,144.08ZM120.71,172a2.11,2.11,0,0,0,4.22.08c.07-1.31-.8-2-2.08-2.26C121.58,170,120.72,170.64,120.71,172Zm30-153.51a2.16,2.16,0,1,0-4.31,0c0,1.28.89,2,2.15,2.15A2.18,2.18,0,0,0,150.72,18.44Zm-144.8,166a2,2,0,0,0,2.14,2.33,2,2,0,0,0,2.24-2.25c0-1.29-.89-2-2.15-2.17A2.2,2.2,0,0,0,5.92,184.43Zm131.7-25.5a2.16,2.16,0,1,0-4.31-.07c0,1.29.87,2,2.2,2.2C136.67,160.85,137.59,160.22,137.62,158.93ZM133.73,5.63a2.06,2.06,0,0,0,2.2,2.29,2,2,0,0,0,2.18-2.08c.06-1.41-.84-2.14-2.29-2.37A2.26,2.26,0,0,0,133.73,5.63Zm14.89,125.73a2.19,2.19,0,1,0-.1,4.38c1.41,0,2.12-.89,2.29-2.23C150.6,132.23,149.91,131.36,148.62,131.36ZM135.51,144a2.06,2.06,0,0,0-2.26,2,2.08,2.08,0,0,0,2.07,2.42c1.41.11,2.17-.77,2.42-2.12C137.61,144.91,136.92,144,135.51,144ZM112.4,172a2.22,2.22,0,0,0-4.44-.22c-.12,1.41.76,2.17,2.1,2.44A2.21,2.21,0,0,0,112.4,172Zm10.34-15.4a2.25,2.25,0,0,0,.17,4.5c1.42-.05,2.1-1,2.22-2.52A2.23,2.23,0,0,0,122.74,156.59ZM82.21,184.66a2,2,0,0,0,2.13,2.14,2.07,2.07,0,0,0,2.32-2.18c0-1.42-.88-2.13-2.24-2.32C83.05,182.51,82.17,183.24,82.21,184.66ZM163.4,69.58a2.19,2.19,0,1,0-4.38-.12,2.19,2.19,0,0,0,4.38.12ZM23,184.57a2.08,2.08,0,0,0-2.3-2.21,2.05,2.05,0,0,0-2.15,2.13c-.06,1.41.82,2.15,2.18,2.37C22.08,186.69,23,186,23,184.57ZM148.49,28.8a2.06,2.06,0,0,0-2.15,2.13,2.08,2.08,0,0,0,2.19,2.32c1.42,0,2.13-.88,2.31-2.24C150.64,29.64,149.91,28.76,148.49,28.8ZM69.54,184.66a2.25,2.25,0,0,0,4.5-.16c-.05-1.43-1-2.11-2.52-2.23A2.23,2.23,0,0,0,69.54,184.66Zm-36.05-2.33a2.25,2.25,0,1,0-.18,4.5c1.42.06,2.17-.79,2.4-2.26A2.22,2.22,0,0,0,33.49,182.33ZM148.65,118.2a2.25,2.25,0,0,0-.17,4.5,2.19,2.19,0,0,0,2.38-2.15C150.75,119.15,150.07,118.25,148.65,118.2ZM56.89,184.63a2.25,2.25,0,0,0,4.5-.09c0-1.43-.91-2.12-2.3-2.26A2.2,2.2,0,0,0,56.89,184.63ZM46,182.33a2.25,2.25,0,0,0,.09,4.5c1.42,0,2.12-.91,2.27-2.44A2.22,2.22,0,0,0,46,182.33ZM148.77,92.85a2.31,2.31,0,1,0-.18,4.62,2.15,2.15,0,0,0,2.32-2.19C150.87,93.84,150.21,92.94,148.77,92.85Zm-.13-51A2.06,2.06,0,0,0,146.29,44a2.08,2.08,0,0,0,2.32,2.4,2.28,2.28,0,0,0,0-4.56ZM5.8,171.27A2.12,2.12,0,0,0,8,173.8a2.11,2.11,0,0,0,2.41-2.33c0-1.43-.8-2.18-2.29-2.34A2.16,2.16,0,0,0,5.8,171.27ZM136,16.1a2.09,2.09,0,0,0-2.35,2.37A2.07,2.07,0,0,0,136,20.66c1.44,0,2.15-.86,2.29-2.39A2.16,2.16,0,0,0,136,16.1Zm-51.69,153a2.35,2.35,0,0,0,.15,4.7c1.55,0,2.29-.91,2.37-2.52A2.22,2.22,0,0,0,84.3,169.13ZM122.79,3.45a2.07,2.07,0,0,0-2.25,2.26A2.09,2.09,0,0,0,123,8c1.44-.06,2.11-1,2.17-2.4A2.16,2.16,0,0,0,122.79,3.45Zm-23,168.44a2.29,2.29,0,1,0-4.57.2c.07,1.44,1,2.1,2.59,2.17A2.19,2.19,0,0,0,99.82,171.89Zm10.56-15.36a2.31,2.31,0,1,0-.18,4.62,2.15,2.15,0,0,0,2.32-2.19C112.48,157.52,111.82,156.62,110.38,156.53Zm12.48-12.69a2.12,2.12,0,0,0-2.38,2.15,2.14,2.14,0,0,0,2.19,2.55,2.35,2.35,0,1,0,.19-4.7Zm28-36a2.07,2.07,0,0,0-2.22-2.29,2.1,2.1,0,0,0-2.35,2.38c0,1.45.93,2.13,2.5,2.23A2.18,2.18,0,0,0,150.85,107.81ZM148.6,67.06a2.12,2.12,0,0,0-2.38,2.15,2.14,2.14,0,0,0,2.2,2.55,2.35,2.35,0,1,0,.18-4.7Zm-10.82,66.5a2.32,2.32,0,1,0-4.63,0c0,1.56.9,2.29,2.41,2.36A2.16,2.16,0,0,0,137.78,133.56Zm8.48-77.09a2.13,2.13,0,0,0,2.12,2.61,2.1,2.1,0,0,0,2.49-2,2.21,2.21,0,0,0-2.14-2.64C147.37,54.45,146.4,55,146.26,56.47Zm2.27,23.69a2.11,2.11,0,0,0-2.31,2.22,2.14,2.14,0,0,0,2.27,2.48,2.35,2.35,0,1,0,0-4.7ZM18.4,171.45a2.12,2.12,0,0,0,2.15,2.38,2.15,2.15,0,0,0,2.55-2.2,2.2,2.2,0,0,0-2.25-2.52A2.21,2.21,0,0,0,18.4,171.45ZM133.57,31a2.11,2.11,0,0,0,2.15,2.38,2.15,2.15,0,0,0,2.55-2.2,2.35,2.35,0,1,0-4.7-.18ZM107.79,5.54a2.39,2.39,0,1,0,4.77.38,2.39,2.39,0,1,0-4.77-.38Zm27.6,112.52a2.39,2.39,0,1,0,.16,4.77,2.39,2.39,0,1,0-.16-4.77Zm-63.59,51a2.39,2.39,0,0,0,0,4.77,2.39,2.39,0,1,0,0-4.77ZM123,16a2.18,2.18,0,0,0-2.57,2.2,2.17,2.17,0,0,0,2.19,2.57,2.25,2.25,0,0,0,2.6-2.2A2.25,2.25,0,0,0,123,16ZM35.78,171.67a2.18,2.18,0,0,0-2.19-2.57A2.18,2.18,0,0,0,31,171.29a2.39,2.39,0,1,0,4.77.38ZM100,158.94a2.35,2.35,0,0,0-2.49-2.59,2.32,2.32,0,0,0-2.48,2.38,2.49,2.49,0,1,0,5,.21Zm-38.4,12.73a2.49,2.49,0,0,0-5-.38c-.11,1.58.86,2.46,2.42,2.72A2.46,2.46,0,0,0,61.62,171.67ZM46.09,169a2.48,2.48,0,1,0,.13,5,2.48,2.48,0,0,0-.13-5Zm89.29-63.73a2.53,2.53,0,0,0,.06,5.06c1.57,0,2.41-1,2.62-2.59C137.8,106.25,137,105.22,135.38,105.27Zm-10.07,28.4a2.35,2.35,0,0,0-2.48-2.61,2.32,2.32,0,0,0-2.49,2.36c-.07,1.57.92,2.44,2.48,2.66A2.48,2.48,0,0,0,125.31,133.67ZM8.14,156.35a2.49,2.49,0,1,0,.16,5,2.47,2.47,0,0,0,2.34-2.52C10.42,157.31,9.6,156.35,8.14,156.35Zm102.07-12.69a2.53,2.53,0,0,0-.17,5.06c1.56.1,2.45-.91,2.73-2.53A2.57,2.57,0,0,0,110.21,143.66ZM138.4,44.27a2.48,2.48,0,1,0-5-.29c-.08,1.57.9,2.45,2.45,2.67A2.46,2.46,0,0,0,138.4,44.27Zm-2.47,10a2.37,2.37,0,0,0-2.54,2.35,2.4,2.4,0,0,0,2.41,2.71c1.56.08,2.44-.93,2.7-2.49A2.53,2.53,0,0,0,135.93,54.24ZM122.88,28.42a2.57,2.57,0,0,0-2.66,2.49,2.61,2.61,0,0,0,5.22.24A2.72,2.72,0,0,0,122.88,28.42Zm12.59,64.15a2.51,2.51,0,0,0-2.61,2.53,2.64,2.64,0,0,0,2.71,2.66,2.68,2.68,0,0,0,2.54-2.65A2.61,2.61,0,0,0,135.47,92.57ZM84.38,161.42A2.49,2.49,0,0,0,87,159a2.65,2.65,0,0,0-2.66-2.72,2.7,2.7,0,0,0-2.59,2.61A2.6,2.6,0,0,0,84.38,161.42ZM95,5.6a2.5,2.5,0,0,0,2.4,2.73,2.64,2.64,0,0,0,2.79-2.58,2.69,2.69,0,0,0-2.55-2.66A2.6,2.6,0,0,0,95,5.6Zm15.23,10.19a2.51,2.51,0,0,0-2.61,2.53A2.64,2.64,0,0,0,110.28,21a2.68,2.68,0,0,0,2.54-2.64C112.57,16.81,111.73,15.79,110.18,15.79ZM136,79.91a2.57,2.57,0,0,0-2.67,2.48,2.61,2.61,0,0,0,5.22.26A2.72,2.72,0,0,0,136,79.91Zm-13.05,37.92a2.62,2.62,0,1,0-.23,5.24c1.66.06,2.54-1,2.79-2.6C125.3,118.93,124.48,117.88,122.94,117.83ZM8.23,3.15A2.52,2.52,0,0,0,5.5,5.56,2.65,2.65,0,0,0,8.1,8.34a2.69,2.69,0,0,0,2.65-2.55A2.61,2.61,0,0,0,8.23,3.15ZM135.87,72a2.5,2.5,0,0,0,2.65-2.48,2.63,2.63,0,0,0-2.66-2.71,2.68,2.68,0,0,0-2.58,2.6A2.6,2.6,0,0,0,135.87,72ZM18.17,158.71a2.5,2.5,0,0,0,2.4,2.73,2.64,2.64,0,0,0,2.79-2.58,2.69,2.69,0,0,0-2.54-2.66A2.6,2.6,0,0,0,18.17,158.71ZM72,156.22a2.48,2.48,0,0,0-2.82,2.52,2.45,2.45,0,0,0,2.41,2.71c1.67.13,2.58-.92,2.9-2.6A2.67,2.67,0,0,0,72,156.22ZM110.11,28.35a2.47,2.47,0,0,0-2.6,2.74,2.48,2.48,0,0,0,2.73,2.61c1.67,0,2.5-1.12,2.67-2.75C112.65,29.35,111.78,28.3,110.11,28.35Zm10.07,79.58a2.65,2.65,0,0,0,5.29-.15c0-1.67-1.1-2.5-2.72-2.68C121.14,105.37,120.1,106.26,120.18,107.93Zm-10,23a2.65,2.65,0,0,0-.18,5.29c1.67.11,2.57-.95,2.87-2.65C112.68,132,111.89,130.93,110.21,130.9ZM5.46,146.14a2.46,2.46,0,0,0,2.43,2.69,2.47,2.47,0,0,0,2.86-2.48c.12-1.67-.93-2.57-2.54-2.86C6.58,143.65,5.51,144.48,5.46,146.14Zm94.69.26a2.48,2.48,0,0,0-2.52-2.83A2.45,2.45,0,0,0,94.92,146c-.13,1.67.92,2.57,2.6,2.9A2.67,2.67,0,0,0,100.15,146.4ZM18.11,5.83a2.45,2.45,0,0,0,2.58,2.55A2.48,2.48,0,0,0,23.4,5.74c0-1.67-1.07-2.51-2.69-2.72C19.09,3.28,18.05,4.16,18.11,5.83Zm15.3,150.39a2.62,2.62,0,1,0,0,5.24c1.67,0,2.51-1.1,2.69-2.7C35.8,157.23,35,156.2,33.41,156.22ZM46,161.49a2.65,2.65,0,0,0,.2-5.3c-1.66-.11-2.56.94-2.88,2.64A2.68,2.68,0,0,0,46,161.49Zm15.79-2.62a2.65,2.65,0,0,0-5.29-.18c-.11,1.67.94,2.57,2.65,2.87C60.65,161.34,61.76,160.55,61.79,158.87ZM84.4,3.08A2.46,2.46,0,0,0,81.79,5.6a2.47,2.47,0,0,0,2.57,2.78c1.67.06,2.54-1,2.78-2.63C86.92,4.13,86.07,3.07,84.4,3.08ZM100.21,18.3a2.68,2.68,0,0,0-5.35.16c0,1.66,1.12,2.49,2.86,2.66C99.18,20.81,100.27,20,100.21,18.3Zm20,25.83a2.65,2.65,0,0,0,5.3.1c.08-1.67-1-2.55-2.6-2.82C121.25,41.61,120.18,42.45,120.17,44.13ZM69.11,5.63a2.68,2.68,0,0,0,5.35.21c.08-1.68-1-2.56-2.56-2.84C70.26,3.15,69.18,4,69.11,5.63Zm18,140.57a2.68,2.68,0,0,0-5.35,0c0,1.67,1,2.52,2.77,2.76C86,148.68,87.12,147.89,87.11,146.2ZM33.45,3.06a2.48,2.48,0,0,0-2.72,2.63,2.48,2.48,0,0,0,2.62,2.72c1.67,0,2.54-1,2.8-2.73C35.91,4.19,35.13,3.07,33.45,3.06Zm89.3,51a2.68,2.68,0,1,0,.15,5.35c1.66,0,2.49-1.12,2.66-2.75C125.29,55.08,124.42,54,122.75,54.09Zm.07,12.62a2.52,2.52,0,0,0-2.71,2.65,2.64,2.64,0,0,0,2.83,2.77,2.68,2.68,0,0,0,2.64-2.79C125.36,67.73,124.51,66.7,122.82,66.71Zm-22.59,67a2.53,2.53,0,0,0-2.5-2.85,2.63,2.63,0,0,0-2.91,2.67,2.67,2.67,0,0,0,2.59,2.79C99.08,136.18,100.15,135.37,100.23,133.69Zm-79.51,9.79A2.56,2.56,0,0,0,18,146.17a2.63,2.63,0,0,0,2.85,2.73,2.57,2.57,0,0,0,2.59-2.53A2.73,2.73,0,0,0,20.72,143.48Zm51.19,0a2.74,2.74,0,1,0,0,5.48,2.56,2.56,0,0,0,2.65-2.42A2.78,2.78,0,0,0,71.91,143.45Zm51-51A2.55,2.55,0,0,0,120.11,95a2.64,2.64,0,0,0,2.75,2.85,2.56,2.56,0,0,0,2.68-2.4A2.73,2.73,0,0,0,122.9,92.45Zm-2.79-10a2.56,2.56,0,0,0,2.58,2.79,2.64,2.64,0,0,0,2.85-2.74,2.57,2.57,0,0,0-2.41-2.69A2.74,2.74,0,0,0,120.11,82.43Zm-7.22,38.1a2.56,2.56,0,0,0-2.57-2.79,2.64,2.64,0,0,0-2.86,2.73,2.58,2.58,0,0,0,2.4,2.7A2.74,2.74,0,0,0,112.89,120.53ZM5.41,18.43A2.52,2.52,0,0,0,8.1,21.09a2.64,2.64,0,0,0,2.72-2.87A2.68,2.68,0,0,0,8,15.63C6.39,15.88,5.37,16.74,5.41,18.43ZM59.15,3a2.53,2.53,0,0,0-2.72,2.64,2.63,2.63,0,0,0,2.82,2.77A2.66,2.66,0,0,0,61.9,5.67C61.68,4.06,60.84,3,59.15,3ZM49.19,6A2.53,2.53,0,0,0,46.78,3a2.65,2.65,0,0,0-3,2.58,2.68,2.68,0,0,0,2.49,2.87C48,8.41,49.05,7.64,49.19,6ZM10.84,133.75A2.68,2.68,0,0,0,8.2,130.8,2.76,2.76,0,0,0,8,136.32,2.68,2.68,0,0,0,10.84,133.75ZM84.54,15.64a2.65,2.65,0,0,0-2.84,2.75,2.55,2.55,0,0,0,2.63,2.72,2.75,2.75,0,0,0,2.85-3A2.57,2.57,0,0,0,84.54,15.64Zm22.9,28.28a2.74,2.74,0,1,0,5.47.18,2.74,2.74,0,0,0-5.47-.18ZM33.53,143.46a2.74,2.74,0,1,0,2.64,2.75A2.65,2.65,0,0,0,33.53,143.46Zm9.75,2.69a2.65,2.65,0,0,0,2.83,2.8,2.56,2.56,0,0,0,2.69-2.72c.07-1.63-1.19-2.84-3.13-2.8A2.57,2.57,0,0,0,43.28,146.15Zm16.07-2.72a2.76,2.76,0,1,0-.19,5.52,2.66,2.66,0,0,0,2.78-2.63A2.69,2.69,0,0,0,59.35,143.43ZM112.94,108a2.66,2.66,0,0,0-2.72-2.91,2.58,2.58,0,0,0-2.8,2.61,2.75,2.75,0,0,0,3,2.92A2.56,2.56,0,0,0,112.94,108ZM20.85,15.62A2.64,2.64,0,0,0,18,18.39a2.58,2.58,0,0,0,2.67,2.75c1.63.09,2.87-1.14,2.86-3.09A2.56,2.56,0,0,0,20.85,15.62ZM8,28.24A2.55,2.55,0,0,0,5.33,31a2.57,2.57,0,0,0,2.81,2.81A2.79,2.79,0,1,0,8,28.24Zm92.33,3A2.76,2.76,0,1,0,94.77,31a2.76,2.76,0,0,0,5.52.19ZM71.65,15.59A2.56,2.56,0,0,0,69,18.35a2.56,2.56,0,0,0,2.8,2.81,2.68,2.68,0,0,0,2.77-2.86A2.7,2.7,0,0,0,71.65,15.59Zm10,118a2.59,2.59,0,0,0,2.68,2.72,2.68,2.68,0,0,0,2.9-2.74,2.71,2.71,0,0,0-2.81-2.84A2.69,2.69,0,0,0,81.65,133.61ZM110,54a2.79,2.79,0,0,0,.18,5.57A2.67,2.67,0,0,0,113,56.68,2.71,2.71,0,0,0,110,54ZM30.61,18.54a2.61,2.61,0,0,0,2.79,2.63,2.69,2.69,0,0,0,2.79-2.85,2.79,2.79,0,1,0-5.58.22Zm69.71,101.92a2.6,2.6,0,0,0-2.61-2.8,2.79,2.79,0,1,0,2.61,2.8ZM20.79,130.74a2.81,2.81,0,0,0-.08,5.61c1.8,0,2.73-1,2.89-2.76C23.48,131.82,22.6,130.75,20.79,130.74Zm89.5-38.39a2.81,2.81,0,1,0-.22,5.61,2.64,2.64,0,0,0,3-2.68C112.94,93.51,112.09,92.41,110.29,92.35ZM56.34,18.19a2.81,2.81,0,0,0,5.61.37c.1-1.77-.86-2.78-2.69-3C57.59,15.6,56.43,16.38,56.34,18.19Zm-9.87-2.62a2.55,2.55,0,0,0-2.78,2.84,2.56,2.56,0,0,0,2.84,2.78c1.8,0,2.69-1.08,2.81-2.84C49.18,16.58,48.26,15.55,46.47,15.57Zm60.9,53.73a2.81,2.81,0,1,0,5.61.22c.07-1.79-.93-2.75-2.79-3C108.55,66.68,107.42,67.48,107.37,69.3ZM5.3,120.56a2.56,2.56,0,0,0,2.92,2.69,2.55,2.55,0,0,0,2.69-2.91c-.05-1.81-1.16-2.65-2.92-2.74C6.23,117.81,5.23,118.77,5.3,120.56ZM100.37,44.2a2.62,2.62,0,0,0-2.7-2.93A2.87,2.87,0,1,0,97.51,47C99.26,46.88,100.33,46,100.37,44.2ZM113,82.4a2.81,2.81,0,0,0-5.61.22c.06,1.81,1.16,2.65,2.93,2.74C112.05,85.15,113.05,84.19,113,82.4ZM84.47,28.18a2.63,2.63,0,0,0-2.89,2.75,2.87,2.87,0,1,0,5.73.08C87.17,29.25,86.26,28.2,84.47,28.18ZM74.63,133.56a2.63,2.63,0,0,0-2.77-2.87,2.87,2.87,0,1,0,0,5.74C73.59,136.27,74.63,135.34,74.63,133.56Zm-51-102.29a2.63,2.63,0,0,0-2.54-3.08,2.87,2.87,0,1,0-.48,5.71C22.31,33.86,23.46,33.06,23.59,31.27Zm10,99.42a2.67,2.67,0,0,0-3,2.65,2.72,2.72,0,0,0,2.81,3.06,2.67,2.67,0,0,0,2.9-2.57A2.8,2.8,0,0,0,33.55,130.69Zm61-74a3,3,0,1,0,3.09-3A3.15,3.15,0,0,0,94.5,56.71ZM71.73,28a3,3,0,1,0,3.09,3A3.16,3.16,0,0,0,71.73,28Zm28.77,79.83a2.92,2.92,0,0,0-2.79-3,3,3,0,0,0-3.17,2.85,3.1,3.1,0,0,0,2.92,3.11A3,3,0,0,0,100.5,107.82ZM8,41.15a2.9,2.9,0,0,0-2.81,3,3,3,0,0,0,3,3A3.09,3.09,0,0,0,11.1,44,3,3,0,0,0,8,41.15Zm73.51,79.43a2.92,2.92,0,0,0,2.94,2.84,3,3,0,0,0,3-3,3.08,3.08,0,0,0-3.07-3A3,3,0,0,0,81.46,120.58ZM49,133.48a2.93,2.93,0,0,0-2.88-2.91,3,3,0,0,0-3.09,2.93,3.11,3.11,0,0,0,3,3A3,3,0,0,0,49,133.48Zm10.13-2.91a2.93,2.93,0,0,0-3,2.81A3,3,0,0,0,59,136.54a3.1,3.1,0,0,0,3.1-2.93A3,3,0,0,0,59.15,130.57ZM5.07,107.74a3.16,3.16,0,0,0,3,3.09,3,3,0,0,0,.12-6.06A3.17,3.17,0,0,0,5.07,107.74ZM33.46,28a3,3,0,1,0,3,3.09A3.16,3.16,0,0,0,33.46,28ZM97.59,92.13a3,3,0,1,0,3,3.08A3.14,3.14,0,0,0,97.59,92.13ZM23.78,120.39a3.14,3.14,0,0,0-3.08-3,3,3,0,1,0,.11,6.06A3.14,3.14,0,0,0,23.78,120.39ZM59.18,28a3.07,3.07,0,1,0,3,3.05A3.2,3.2,0,0,0,59.18,28ZM5,56.74a3.2,3.2,0,0,0,3,3.09,3.07,3.07,0,1,0,.06-6.13A3.21,3.21,0,0,0,5,56.74ZM8.19,92.07A3.09,3.09,0,0,0,8,98.25a3.09,3.09,0,1,0,.17-6.18Zm63.56,25.31a3.07,3.07,0,1,0,3.1,3A3.21,3.21,0,0,0,71.75,117.38ZM46.6,28a3.07,3.07,0,1,0,3,3.11A3.23,3.23,0,0,0,46.6,28ZM23.84,44.2A3.21,3.21,0,0,0,20.72,41a3.09,3.09,0,1,0,.06,6.18A3.21,3.21,0,0,0,23.84,44.2Zm9.66,73.16a3.09,3.09,0,1,0,3,3.07A3.21,3.21,0,0,0,33.5,117.36ZM81.37,44.07a3.07,3.07,0,1,0,3.06-3A3.21,3.21,0,0,0,81.37,44.07ZM11.2,69.56a3.22,3.22,0,0,0-3-3.24,3.1,3.1,0,0,0-.08,6.19A3.25,3.25,0,0,0,11.2,69.56Zm86.4-3.21a3.07,3.07,0,1,0,3,3.08A3.2,3.2,0,0,0,97.6,66.35Zm.05,13.1a3.06,3.06,0,1,0,2.94,3.12A3.21,3.21,0,0,0,97.65,79.45ZM87.52,108a3.09,3.09,0,1,0-3.18,2.89A3.23,3.23,0,0,0,87.52,108ZM56.06,120.24a3.09,3.09,0,1,0,3.18-2.88A3.21,3.21,0,0,0,56.06,120.24Zm-10-2.89A3,3,0,0,0,43,120.24a3.18,3.18,0,0,0,2.94,3.33,3.26,3.26,0,0,0,3.27-3A3.16,3.16,0,0,0,46.09,117.35ZM5,82.13a3,3,0,0,0,3,3,3.17,3.17,0,0,0,3.22-3.06,3.25,3.25,0,0,0-3.14-3.16A3.17,3.17,0,0,0,5,82.13ZM20.68,104.7a3.07,3.07,0,0,0-3,3,3.18,3.18,0,0,0,3.06,3.21,3.23,3.23,0,0,0,3.16-3.13A3.17,3.17,0,0,0,20.68,104.7ZM71.82,41a3.06,3.06,0,0,0-3.13,2.91,3.19,3.19,0,0,0,3,3.31,3.27,3.27,0,0,0,3.26-3A3.17,3.17,0,0,0,71.82,41Zm12.5,12.65a3.06,3.06,0,0,0-3,3,3.18,3.18,0,0,0,3.11,3.17,3.25,3.25,0,0,0,3.11-3.19A3.17,3.17,0,0,0,84.32,53.67ZM36.54,44a3.14,3.14,0,1,0-3.07,3.26A3.26,3.26,0,0,0,36.54,44Zm38.39,63.92a3.14,3.14,0,1,0-3.32,3A3.24,3.24,0,0,0,74.93,107.92ZM59.19,41a3.14,3.14,0,1,0,3.09,3.25A3.24,3.24,0,0,0,59.19,41ZM20.72,53.63a3.14,3.14,0,1,0,3.17,3.17A3.24,3.24,0,0,0,20.72,53.63ZM81.3,95.23A3.14,3.14,0,1,0,84.42,92,3.23,3.23,0,0,0,81.3,95.23Zm0-25.71a3.17,3.17,0,1,0,3.06-3.27A3.25,3.25,0,0,0,81.27,69.52ZM20.72,78.89A3.17,3.17,0,1,0,23.93,82,3.17,3.17,0,0,0,20.72,78.89Zm38.47,25.74a3.18,3.18,0,1,0,3.13,3.16A3.18,3.18,0,0,0,59.19,104.63Zm-13.11,0a3.18,3.18,0,1,0,3.14,3.15A3.19,3.19,0,0,0,46.08,104.63Zm-15.84,3.16a3.16,3.16,0,1,0,3.17-3.15A3.21,3.21,0,0,0,30.24,107.79ZM72,53.59a3.18,3.18,0,1,0,3,3.29A3.2,3.2,0,0,0,72,53.59ZM46.51,41a3.16,3.16,0,1,0,3.15,3.18A3.23,3.23,0,0,0,46.51,41ZM20.93,92a3.16,3.16,0,1,0,3,3.33A3.24,3.24,0,0,0,20.93,92ZM17.58,69.31a3.18,3.18,0,1,0,3.22-3.07A3.2,3.2,0,0,0,17.58,69.31Zm66.81,10a3.16,3.16,0,1,0,3.21,3.11A3.24,3.24,0,0,0,84.39,79.35ZM71.79,92A3.2,3.2,0,1,0,75,95.05,3.14,3.14,0,0,0,71.79,92ZM33.46,53.58a3.19,3.19,0,1,0,3.13,3.14A3.12,3.12,0,0,0,33.46,53.58Zm3.15,41.7a3.22,3.22,0,1,0-3.39,3.09A3.13,3.13,0,0,0,36.61,95.28Zm32-13.06a3.22,3.22,0,1,0,3.12-3.37A3.13,3.13,0,0,0,68.57,82.22ZM62.36,56.67A3.22,3.22,0,1,0,59.18,60,3.14,3.14,0,0,0,62.36,56.67Zm9.27,9.53A3.22,3.22,0,1,0,75,69.32,3.13,3.13,0,0,0,71.63,66.2ZM46.46,53.55a3.22,3.22,0,1,0,3.25,3.23A3.13,3.13,0,0,0,46.46,53.55ZM59.18,91.92a3.24,3.24,0,1,0,3.2,3.28A3.13,3.13,0,0,0,59.18,91.92ZM36.63,69.43a3.24,3.24,0,1,0-3.25,3.22A3.13,3.13,0,0,0,36.63,69.43Zm0,12.69a3.24,3.24,0,1,0-3.29,3.17A3.14,3.14,0,0,0,36.63,82.12Zm6.63,13a3.24,3.24,0,1,0,3.26-3.22A3.13,3.13,0,0,0,43.26,95.14ZM62.4,69.42a3.26,3.26,0,1,0-3.27,3.25A3.15,3.15,0,0,0,62.4,69.42Zm-19.19,0a3.29,3.29,0,1,0,3.28-3.24A3.16,3.16,0,0,0,43.21,69.37Zm0,12.61a3.32,3.32,0,1,0,3.29-3.24A3.22,3.22,0,0,0,43.18,82Zm12.67,0a3.29,3.29,0,1,0,3.36-3.17A3.19,3.19,0,0,0,55.85,81.94Z"/><path class="cls-9" d="M635.63,480.38a1.92,1.92,0,1,0-.23,3.84,1.92,1.92,0,1,0,.23-3.84ZM647.33,397a1.92,1.92,0,1,0,.16,3.83,1.9,1.9,0,0,0,1.77-2C649.07,397.73,648.44,397,647.33,397Zm57.81-45.53a2,2,0,0,0,3.93-.17,2,2,0,0,0-2-2C705.84,349.56,705.05,350.24,705.14,351.46ZM637.43,470.69a1.82,1.82,0,0,0-1.84-2.1,1.78,1.78,0,0,0-2,1.73c-.11,1.23.65,1.91,1.84,2.14A1.92,1.92,0,0,0,637.43,470.69Zm-1.9-26.16a2,2,0,0,0-.13,3.94c1.22.09,1.89-.72,2.13-1.92A2,2,0,0,0,635.53,444.53Zm2,13.8a2,2,0,0,0-3.93-.17c-.1,1.22.7,1.9,1.9,2.15A2,2,0,0,0,637.48,458.33Zm81.28-120.59a1.64,1.64,0,0,0-1.66,1.78,1.66,1.66,0,0,0,1.83,1.81c1.17,0,1.73-.74,1.79-1.92A1.73,1.73,0,0,0,718.76,337.74Zm-85,73.08a1.65,1.65,0,0,0,2,1.67,1.63,1.63,0,0,0,1.63-1.8,1.8,1.8,0,1,0-3.59.13Zm1.73,10.25a1.85,1.85,0,0,0,.12,3.69,1.85,1.85,0,1,0-.12-3.69Zm34.07-57.94a1.63,1.63,0,0,0,1.65,1.78,1.65,1.65,0,0,0,1.93-1.7,1.79,1.79,0,1,0-3.58-.08Zm-11.8,11.79a1.64,1.64,0,0,0,1.65,1.78,1.66,1.66,0,0,0,1.94-1.7,1.8,1.8,0,1,0-3.59-.08ZM635.48,492.29a1.63,1.63,0,0,0-1.76,1.68,1.66,1.66,0,0,0,1.73,1.91,1.8,1.8,0,1,0,0-3.59Zm57.57-140.9a1.85,1.85,0,0,0,3.69-.13,1.85,1.85,0,1,0-3.69.13Zm39.49-11.92a1.85,1.85,0,0,0-3.7.12,1.85,1.85,0,1,0,3.7-.12ZM611.67,456.79a1.43,1.43,0,0,0-1.67,1.44,1.41,1.41,0,0,0,1.35,1.56c1,.1,1.51-.5,1.7-1.45A1.52,1.52,0,0,0,611.67,456.79Zm12-.18a1.69,1.69,0,0,0,.08,3.37c1.07,0,1.59-.69,1.69-1.89A1.67,1.67,0,0,0,623.68,456.61Zm1.73-21.84a1.69,1.69,0,0,0-3.37-.12,1.69,1.69,0,1,0,3.37.12Zm-1.64-13.51a1.56,1.56,0,0,0-1.7,1.71,1.53,1.53,0,0,0,1.6,1.6c1.09,0,1.63-.66,1.76-1.83A1.7,1.7,0,0,0,623.77,421.26Zm-.09,23.55a1.69,1.69,0,0,0,.08,3.37c1.07,0,1.59-.68,1.69-1.88A1.68,1.68,0,0,0,623.68,444.81Zm-12.07.18a1.44,1.44,0,0,0-1.61,1.52,1.42,1.42,0,0,0,1.41,1.5,1.51,1.51,0,1,0,.2-3Zm59.85-95.28a1.62,1.62,0,1,0-.19,3.23c1,.05,1.49-.59,1.7-1.58A1.66,1.66,0,0,0,671.46,349.71Zm9.93,1.5a1.56,1.56,0,0,0,1.54,1.83,1.59,1.59,0,0,0,1.89-1.7,1.72,1.72,0,0,0-3.43-.13ZM622.11,494.07a1.61,1.61,0,1,0,3.22-.06c0-1-.69-1.46-1.72-1.58A1.65,1.65,0,0,0,622.11,494.07Zm3.26-11.67a1.65,1.65,0,0,0-3.3-.2,1.65,1.65,0,1,0,3.3.2Zm-1.69-13.58a1.69,1.69,0,0,0,.08,3.37c1.07,0,1.59-.69,1.68-1.73A1.63,1.63,0,0,0,623.68,468.82Zm-12.34.19a1.41,1.41,0,0,0-1.34,1.56,1.43,1.43,0,0,0,1.68,1.43,1.52,1.52,0,0,0,1.37-1.56C612.85,469.5,612.31,468.9,611.34,469Zm95.81-131.19a1.56,1.56,0,0,0-1.76,1.62,1.58,1.58,0,0,0,1.77,1.81,1.72,1.72,0,0,0,0-3.43Zm-10.6,1.78a1.56,1.56,0,0,0-1.69-1.72,1.53,1.53,0,0,0-1.62,1.58,1.64,1.64,0,0,0,1.67,1.76C695.88,341.08,696.52,340.58,696.55,339.6Zm-15-.05a1.57,1.57,0,0,0,3.14.07c.06-1-.59-1.51-1.54-1.69A1.6,1.6,0,0,0,681.53,339.55Zm-35.94,47.53a1.55,1.55,0,0,0,1.62,1.75,1.57,1.57,0,0,0,1.81-1.77,1.72,1.72,0,0,0-3.43,0Zm-10-1.57a1.49,1.49,0,0,0-1.65,1.51,1.51,1.51,0,0,0,1.66,1.71c1,0,1.46-.67,1.6-1.61A1.63,1.63,0,0,0,635.56,385.51Zm-12,11.9a1.51,1.51,0,0,0,.34,3,1.52,1.52,0,0,0,1.37-1.56C625.07,397.91,624.52,397.31,623.55,397.41Zm10.28,1.42a1.69,1.69,0,0,0,3.37.17,1.64,1.64,0,0,0-1.58-1.8C634.56,397.26,633.88,397.76,633.83,398.83Zm27.2-47.5a1.51,1.51,0,1,0-3,.19,1.5,1.5,0,0,0,1.55,1.34C660.46,352.69,661,352.2,661,351.33ZM657.86,363a1.56,1.56,0,0,0,1.68,1.74,1.53,1.53,0,0,0,1.63-1.57c0-1.09-.63-1.64-1.79-1.79A1.71,1.71,0,0,0,657.86,363Zm-9.05.23a1.43,1.43,0,0,0-1.46-1.65A1.41,1.41,0,0,0,645.8,363a1.51,1.51,0,1,0,3,.29Zm92.44-36.08a1.55,1.55,0,0,0,1.62,1.79,1.52,1.52,0,0,0,1.68-1.51c.09-1.08-.57-1.65-1.71-1.85A1.68,1.68,0,0,0,741.25,327.18Zm-95.6,47.68a1.55,1.55,0,0,0,1.71,1.7A1.53,1.53,0,0,0,649,375c0-1.09-.66-1.63-1.83-1.76A1.7,1.7,0,0,0,645.65,374.86Zm83.43-47.66a1.52,1.52,0,0,0,1.65,1.73,1.5,1.5,0,0,0,1.57-1.6c0-1-.61-1.48-1.55-1.66A1.62,1.62,0,0,0,729.08,327.2Zm-8.61.06a1.57,1.57,0,0,0-3.14,0c0,1,.62,1.5,1.57,1.66C719.85,328.77,720.49,328.25,720.47,327.26ZM707,325.82a1.41,1.41,0,0,0-1.35,1.56,1.43,1.43,0,0,0,1.67,1.44,1.52,1.52,0,0,0,1.38-1.55C708.46,326.32,707.91,325.72,707,325.82Zm-83.12,83.27a1.62,1.62,0,1,0-.11,3.23c1,0,1.49-.63,1.67-1.66A1.68,1.68,0,0,0,623.83,409.09Zm-11,25.75a1.26,1.26,0,0,0-1.33-1.5,1.23,1.23,0,0,0-1.39,1.24,1.28,1.28,0,0,0,1.33,1.51A1.26,1.26,0,0,0,612.87,434.84Zm-13.21,1a1.17,1.17,0,1,0,.11-2.34c-.72-.05-1.1.44-1.27,1.21A1.24,1.24,0,0,0,599.66,435.88Zm12-38.19a1.17,1.17,0,0,0-1.38,1.18,1.14,1.14,0,0,0,1.08,1.27,1.23,1.23,0,1,0,.3-2.45ZM695,314.36a1.17,1.17,0,1,0-.11,2.34c.72,0,1.1-.44,1.26-1.13A1.2,1.2,0,0,0,695,314.36Zm35.79-.15a1.18,1.18,0,0,0-1.36,1.21,1.32,1.32,0,1,0,2.64.11A1.23,1.23,0,0,0,730.74,314.21Zm-23.5.1a1.15,1.15,0,0,0-1.36,1.19,1.13,1.13,0,0,0,1.1,1.25c.81.08,1.25-.41,1.38-1.18A1.21,1.21,0,0,0,707.24,314.31Zm-71.61,47.58a1.16,1.16,0,0,0-1.34,1.22,1.13,1.13,0,0,0,1.11,1.23c.82.07,1.25-.42,1.38-1.3A1.26,1.26,0,0,0,635.63,361.89Zm83.28-47.63a1.15,1.15,0,0,0-1.28,1.1,1.18,1.18,0,0,0,1.15,1.44c.83.06,1.3-.38,1.42-1.32A1.22,1.22,0,0,0,718.91,314.26Zm-106,168.22a1.37,1.37,0,1,0-1.44,1.2A1.26,1.26,0,0,0,612.87,482.48Zm9.54-95.42a1.17,1.17,0,0,0,1.2,1.37,1.32,1.32,0,1,0-1.2-1.37ZM624.9,375a1.12,1.12,0,0,0-1.13-1.22,1.1,1.1,0,0,0-1.22,1.12c0,.72.44,1.1,1.22,1.27A1.25,1.25,0,0,0,624.9,375Zm9.25-.23a1.37,1.37,0,1,0,2.73.15c0-.82-.47-1.27-1.38-1.36A1.27,1.27,0,0,0,634.15,374.73ZM612.83,494.09a1.18,1.18,0,0,0-1.27-1.31,1.2,1.2,0,0,0-1.36,1.41c0,.83.56,1.21,1.44,1.23A1.22,1.22,0,0,0,612.83,494.09Zm-13.06-48.76a1.17,1.17,0,0,0-.11,2.34c.72,0,1.11-.44,1.26-1.13A1.2,1.2,0,0,0,599.77,445.33Zm13-34.67a1.13,1.13,0,0,0-1.16-1.22,1.16,1.16,0,0,0-1.38,1.2,1.27,1.27,0,1,0,2.54,0Zm-13.11,46.46a1.17,1.17,0,1,0,.1,2.34,1.2,1.2,0,0,0,1.15-1.21C600.77,457.56,600.38,457.08,599.67,457.12Zm11.87-35.52a1.18,1.18,0,0,0-1.34,1.23,1.32,1.32,0,1,0,2.64.08A1.23,1.23,0,0,0,611.54,421.6Zm59.82-95.45a1.17,1.17,0,0,0-.1,2.34c.71,0,1.1-.44,1.25-1.12A1.19,1.19,0,0,0,671.36,326.15Zm11.73-.1a1.15,1.15,0,0,0-1.26,1.13,1.18,1.18,0,0,0,1.18,1.41c.83.05,1.29-.4,1.39-1.35A1.21,1.21,0,0,0,683.09,326.05Zm13.17,1.4a1.27,1.27,0,0,0-1.34-1.5,1.23,1.23,0,0,0-1.39,1.24,1.29,1.29,0,0,0,1.34,1.51A1.27,1.27,0,0,0,696.26,327.45ZM659.53,338.3a1.23,1.23,0,1,0,.18,2.45c.69-.1,1-.59,1.06-1.42A1.25,1.25,0,0,0,659.53,338.3Zm11.85-.13a1.25,1.25,0,0,0-1.44,1.39,1.23,1.23,0,0,0,1.29,1.34,1.29,1.29,0,0,0,1.46-1.36C672.63,338.69,672.21,338.19,671.38,338.17Zm71.49-24a1.18,1.18,0,0,0-1.28,1.3,1.21,1.21,0,0,0,1.45,1.33,1.32,1.32,0,0,0-.17-2.63ZM598.55,470.56a1.17,1.17,0,1,0,2.34-.11,1.21,1.21,0,0,0-1.22-1.15C599,469.46,598.5,469.84,598.55,470.56Zm48.71-118a1.15,1.15,0,0,0,1.31-1.08,1.18,1.18,0,0,0-1.12-1.46c-.82-.08-1.31.34-1.45,1.27A1.23,1.23,0,0,0,647.26,352.6Zm94.56-48.85a1,1,0,0,0,1.24,1.05,1,1,0,0,0,.92-1.18,1.09,1.09,0,0,0-1.12-1C742.23,302.77,741.79,303.12,741.82,303.75ZM610.43,387.13a1.08,1.08,0,1,0,2.16-.12,1.11,1.11,0,0,0-1.13-1C610.84,386.15,610.4,386.51,610.43,387.13Zm-9.63,95.26a1.08,1.08,0,1,0-2.16-.08c0,.63.43,1,1.13,1.1A1.15,1.15,0,0,0,600.8,482.39Zm-1-60.55a1,1,0,0,0-1.13,1,1,1,0,0,0,1.11,1.19c.62,0,1-.44,1.06-1.06A1.09,1.09,0,0,0,599.78,421.84Zm60.59-94.47a.78.78,0,0,0-.66-.89.86.86,0,1,0,.66.89Zm-13,11.24a.83.83,0,0,0-1,.77c-.06.64.23,1.07.92,1.07a.92.92,0,0,0,.09-1.84Zm35.68-22.16c.69,0,1-.41.94-1.05a.83.83,0,0,0-1-.79.92.92,0,0,0,.06,1.84Zm-83.23,93.34a.84.84,0,0,0-1.05.73.86.86,0,0,0,.89,1.1.84.84,0,0,0,.95-.84A.85.85,0,0,0,599.85,409.79Zm130.82-107a.85.85,0,0,0-.89,1.09.83.83,0,0,0,1,.74.86.86,0,0,0,.81-1A.84.84,0,0,0,730.67,302.82Zm-11.66,0a.83.83,0,0,0-1,.76.85.85,0,0,0,.9,1.08c.57,0,.88-.3,1-1A.84.84,0,0,0,719,302.82Zm-11,.88a.76.76,0,0,0-.73-.81.79.79,0,0,0-1,.78c0,.57.26.88.85.93A.79.79,0,0,0,708,303.7ZM634.6,351.2a.84.84,0,0,0,.73,1,.86.86,0,0,0,1.1-.88.92.92,0,0,0-1.83-.16Zm-11.8,11.89a.85.85,0,0,0,1.05.94.83.83,0,0,0,.79-1,.92.92,0,0,0-1.84,0Zm-24,131c0,.69.4,1,1.05.93a.83.83,0,0,0,.79-1,.92.92,0,0,0-1.84.06ZM742.92,337.69a1.85,1.85,0,0,0,0,3.69,1.85,1.85,0,1,0,0-3.69Zm-24,11.62a2,2,0,1,0,0,4c1.2,0,1.83-.83,2-2A2,2,0,0,0,719,349.31Zm13.77,2.22a1.92,1.92,0,0,0-1.93-2.24,1.89,1.89,0,0,0-2.13,1.84c-.14,1.31.68,2,1.91,2.28A2,2,0,0,0,732.72,351.53Zm-97.27,85.1a1.92,1.92,0,1,0-.08-3.84,1.92,1.92,0,0,0,.08,3.84Zm45.68-73.48a2,2,0,0,0,3.94,0c0-1.22-.76-1.88-2-2.1A2,2,0,0,0,681.13,363.15Zm-10,9.79a2,2,0,0,0,.16,3.93,2,2,0,0,0,2-2C673.08,373.65,672.4,372.86,671.18,372.94Zm-21.86,37.83a2,2,0,1,0-4,0c0,1.2.82,1.84,2,2A2,2,0,0,0,649.32,410.77Zm10.09-25.62a2,2,0,0,0,.12,3.94c1.21,0,1.85-.84,2-2C661.3,385.88,660.63,385.09,659.41,385.15ZM645.29,494.07a2,2,0,1,0,4-.07,2,2,0,0,0-2-2C646.1,492.23,645.3,492.87,645.29,494.07Zm51.64-130.91a2,2,0,1,0-4.08-.08c0,1.31.83,2,2.09,2.13C696.12,365,696.93,364.37,696.93,363.16ZM707,361a2.1,2.1,0,1,0,.15,4.19c1.33,0,2-.88,2.07-2.18A2,2,0,0,0,707,361Zm-47.5,35.82a2.08,2.08,0,0,0-.13,4.15c1.32.07,2-.75,2.24-2C661.5,397.7,660.85,396.84,659.53,396.84Zm83.57-47.55a2,2,0,0,0-.4,4.07c1.32.13,2-.69,2.29-1.92A2,2,0,0,0,743.1,349.29Zm-71.93,35.76a2.07,2.07,0,0,0,.17,4.14c1.32,0,2-.87,2.1-2.28A2.11,2.11,0,0,0,671.17,385.05Zm-23.82,83.36a2.1,2.1,0,1,0-.09,4.19c1.33,0,2-.77,2.19-2.05C649.32,469.26,648.68,468.43,647.35,468.41Zm.16-47.53a1.93,1.93,0,0,0-2.25,1.94,1.9,1.9,0,0,0,1.85,2.13c1.31.14,2-.69,2.28-1.91A2.05,2.05,0,0,0,647.51,420.88Zm1.87,13.69a2.08,2.08,0,0,0-4.15.17c0,1.32.88,2,2.17,2.09C648.65,436.59,649.46,435.89,649.38,434.57ZM683,372.83a2.08,2.08,0,0,0,0,4.15c1.32,0,2-.81,2.15-2.09C685,373.62,684.35,372.8,683,372.83ZM649.38,482.26a2.08,2.08,0,0,0-4.15,0c-.05,1.32.79,2,2.06,2.19C648.57,484.25,649.39,483.58,649.38,482.26Zm-4.17-24.05a2.1,2.1,0,0,0,4.19.17,2,2,0,0,0-2-2.23C646.1,456.25,645.26,456.88,645.21,458.21Zm2.1-13.81a2.1,2.1,0,0,0,0,4.2c1.33,0,2-.81,2.15-2.1C649.3,445.21,648.64,444.4,647.31,444.4Zm12.22-23.64a2,2,0,0,0-2.17,2.25,2,2,0,0,0,2.15,2.07c1.45,0,2.14-.85,2.2-2.26A2,2,0,0,0,659.53,420.76ZM681,386.92a2.16,2.16,0,1,0,4.31.19,2,2,0,0,0-2-2.17C681.89,385,681,385.58,681,386.92Zm-9.62,9.83a2,2,0,0,0-2.18,2.24,1.94,1.94,0,0,0,2.14,2.08c1.45,0,2.14-.83,2.21-2.24A2,2,0,0,0,671.33,396.75Zm-14,97.28a2,2,0,0,0,2.21,2.22,2,2,0,0,0,2.11-2.11,2.16,2.16,0,1,0-4.32-.11Zm85.56-133.1a2,2,0,0,0-2.21,2,2,2,0,0,0,2.07,2.37,2.19,2.19,0,1,0,.14-4.38Zm-14.39,2.15a2,2,0,0,0,2.23,2.19,1.94,1.94,0,0,0,2.09-2.12,2.16,2.16,0,1,0-4.32-.07ZM718.86,361a1.92,1.92,0,0,0-2.09,2.11,2,2,0,0,0,2.27,2.14c1.34-.06,2-.9,2-2.24A2,2,0,0,0,718.86,361Zm-57.21,49.72a2.13,2.13,0,1,0-4.26.09c0,1.34.86,2,2.18,2.07A2,2,0,0,0,661.65,410.71ZM692.76,375a1.94,1.94,0,0,0,2.12,2.09,2,2,0,0,0,2.14-2.28c-.06-1.34-.91-2-2.25-2A2,2,0,0,0,692.76,375ZM659.43,480.1a2.2,2.2,0,0,0,.07,4.39c1.44,0,2.15-.82,2.24-2.31A2.05,2.05,0,0,0,659.43,480.1Zm-2.14-45.44a2.23,2.23,0,0,0,4.45.1,2.23,2.23,0,1,0-4.45-.1Zm49.86-62a2.23,2.23,0,0,0-.09,4.45,2.23,2.23,0,1,0,.09-4.45Zm-45.41,97.84a2.23,2.23,0,0,0-4.45,0,2.23,2.23,0,1,0,4.45,0Zm9.58-62a2.23,2.23,0,0,0,0,4.45c1.42,0,2.16-.8,2.27-2.29A2.08,2.08,0,0,0,671.32,408.48Zm-12,40.24a2.23,2.23,0,1,0,.35-4.44,2.23,2.23,0,1,0-.35,4.44Zm.34,7.26a2.19,2.19,0,0,0-2.48,2.25,2.16,2.16,0,0,0,2.16,2.37c1.46.1,2.29-.81,2.52-2.26A2.31,2.31,0,0,0,659.68,456ZM695,384.81a2.32,2.32,0,0,0-.3,4.63c1.47.08,2.29-.83,2.52-2.31A2.32,2.32,0,0,0,695,384.81Zm21.54-10a2.32,2.32,0,1,0,4.63-.09,2.32,2.32,0,0,0-4.63.09Zm-45.2,116.92a2.32,2.32,0,1,0,.06,4.63,2.32,2.32,0,0,0-.06-4.63Zm11.86-95.17a2.32,2.32,0,1,0-.27,4.63,2.32,2.32,0,1,0,.27-4.63Zm47.34-24.05a2.36,2.36,0,0,0,.12,4.72,2.37,2.37,0,0,0,2.4-2.4C732.86,373.42,732,372.49,730.58,372.55Zm-59.34,48a2.36,2.36,0,0,0,0,4.72c1.46,0,2.25-.95,2.44-2.41A2.38,2.38,0,0,0,671.24,420.56Zm-2.37,14.12a2.44,2.44,0,1,0,4.88.06c0-1.55-1-2.34-2.49-2.53C669.83,432.45,668.87,433.23,668.87,434.68Zm38.35-50a2.34,2.34,0,0,0-2.54,2.25,2.46,2.46,0,0,0,2.42,2.59,2.5,2.5,0,0,0,2.47-2.38A2.43,2.43,0,0,0,707.22,384.71Zm-24.09,23.55a2.3,2.3,0,0,0-2.47,2.52,2.28,2.28,0,0,0,2.41,2.37,2.46,2.46,0,0,0,2.53-2.49C685.36,409.22,684.58,408.26,683.13,408.26ZM745.31,375a2.33,2.33,0,0,0-2.28-2.5,2.45,2.45,0,1,0-.15,4.89A2.42,2.42,0,0,0,745.31,375ZM673.72,482.37a2.33,2.33,0,0,0-2.28-2.5,2.47,2.47,0,0,0-2.56,2.45,2.5,2.5,0,0,0,2.41,2.44A2.43,2.43,0,0,0,673.72,482.37Zm-2.35-14.31a2.45,2.45,0,0,0-.12,4.89c1.55,0,2.36-1,2.56-2.46C673.59,469.05,672.81,468.08,671.37,468.06Zm-.18-24a2.47,2.47,0,0,0,.13,4.94c1.56,0,2.34-1,2.52-2.53C673.58,444.93,672.75,444,671.19,444Zm.06,11.79a2.47,2.47,0,0,0,0,4.94c1.56,0,2.36-1,2.58-2.47C673.62,456.78,672.81,455.8,671.25,455.82Zm45.18-68.6a2.47,2.47,0,0,0,4.93-.09c0-1.56-1-2.35-2.5-2.53C717.35,384.84,716.37,385.66,716.43,387.22ZM685.57,494.09a2.47,2.47,0,0,0-4.93-.11c-.08,1.56.9,2.38,2.41,2.63C684.56,496.44,685.56,495.65,685.57,494.09ZM695,396.47a2.32,2.32,0,0,0-2.58,2.41,2.27,2.27,0,0,0,2.31,2.47c1.55.09,2.38-.9,2.65-2.48A2.49,2.49,0,0,0,695,396.47Zm35.7-11.84a2.49,2.49,0,0,0-.08,5c1.55,0,2.36-.94,2.6-2.54A2.49,2.49,0,0,0,730.73,384.63Zm-47.57,35.79a2.5,2.5,0,0,0-.12,5c1.56,0,2.37-.93,2.61-2.43C685.49,421.46,684.72,420.46,683.16,420.42Zm14.25-9.74a2.35,2.35,0,0,0-2.49-2.5,2.44,2.44,0,0,0-2.55,2.66,2.49,2.49,0,0,0,2.63,2.43A2.44,2.44,0,0,0,697.41,410.68Zm-14.19,21.48a2.55,2.55,0,1,0,2.47,2.57A2.5,2.5,0,0,0,683.22,432.16ZM704.59,399a2.35,2.35,0,0,0,2.51,2.48,2.44,2.44,0,0,0,2.53-2.67,2.48,2.48,0,0,0-2.65-2.42A2.43,2.43,0,0,0,704.59,399Zm-24,83.33a2.35,2.35,0,0,0,2.47,2.53,2.44,2.44,0,0,0,2.58-2.62,2.49,2.49,0,0,0-2.59-2.47A2.45,2.45,0,0,0,680.58,482.29Zm64.83-95a2.36,2.36,0,0,0-2.24-2.74,2.46,2.46,0,0,0-2.8,2.41,2.49,2.49,0,0,0,2.32,2.67C744.27,389.62,745.29,388.9,745.41,387.34Zm-50.34,104.2a2.55,2.55,0,1,0,2.41,2.65A2.5,2.5,0,0,0,695.07,491.54Zm-9.39-45a2.48,2.48,0,0,0-2.6-2.66,2.39,2.39,0,0,0-2.55,2.48,2.58,2.58,0,1,0,5.15.18ZM683.25,468a2.52,2.52,0,0,0-2.71,2.52,2.49,2.49,0,0,0,2.63,2.59,2.4,2.4,0,0,0,2.49-2.23A2.6,2.6,0,0,0,683.25,468ZM719,396.34a2.46,2.46,0,0,0-2.66,2.59,2.38,2.38,0,0,0,2.48,2.55,2.56,2.56,0,0,0,2.67-2.87A2.39,2.39,0,0,0,719,396.34Zm-12,11.77a2.6,2.6,0,0,0,.17,5.19,2.6,2.6,0,1,0-.17-5.19Zm-12.08,12.21a2.41,2.41,0,0,0-2.59,2.44,2.51,2.51,0,0,0,2.49,2.76A2.54,2.54,0,0,0,697.5,423,2.5,2.5,0,0,0,694.89,420.32Zm-11.67,35.4a2.47,2.47,0,0,0-2.69,2.56,2.39,2.39,0,0,0,2.45,2.58,2.56,2.56,0,0,0,2.7-2.84A2.37,2.37,0,0,0,683.22,455.72Zm44.87-56.65a2.42,2.42,0,0,0,2.6,2.44,2.51,2.51,0,0,0,2.61-2.65,2.61,2.61,0,1,0-5.21.21Zm-35.8,83.3a2.43,2.43,0,0,0,2.52,2.53,2.48,2.48,0,0,0,2.68-2.57,2.41,2.41,0,0,0-2.34-2.64A2.59,2.59,0,0,0,692.29,482.37Zm50.58-86.08a2.62,2.62,0,0,0,.06,5.24c1.68,0,2.51-1,2.63-2.64C745.41,397.24,744.55,396.27,742.87,396.29Zm-38.38,97.9a2.62,2.62,0,0,0,5.23-.2c-.05-1.69-1.08-2.48-2.73-2.56A2.48,2.48,0,0,0,704.49,494.19Zm-9.56-62.1a2.62,2.62,0,0,0-.07,5.24,2.48,2.48,0,0,0,2.69-2.58C697.44,433.1,696.61,432.11,694.93,432.09Zm-2.69,38.38a2.46,2.46,0,0,0,2.57,2.7,2.68,2.68,0,1,0-2.57-2.7Zm5.3-23.9a2.45,2.45,0,0,0-2.52-2.73,2.68,2.68,0,1,0-.15,5.35C696.51,449.07,697.51,448.24,697.54,446.57Zm24-35.64a2.45,2.45,0,0,0-2.37-2.87,2.67,2.67,0,1,0-.44,5.33C720.35,413.35,721.42,412.61,721.54,410.93Zm-23.88,47.39a2.72,2.72,0,0,0-2.59-2.8,2.82,2.82,0,0,0-3,2.65,2.88,2.88,0,0,0,2.71,2.91A2.81,2.81,0,0,0,697.66,458.32Zm9.3-38.17a2.73,2.73,0,0,0-2.63,2.76,2.83,2.83,0,0,0,2.82,2.8,2.88,2.88,0,0,0,2.74-2.89A2.81,2.81,0,0,0,707,420.15Zm-2.68,62.09a2.83,2.83,0,1,0,2.88-2.77A2.94,2.94,0,0,0,704.28,482.24Zm26.46-74.36a2.83,2.83,0,1,0,2.78,2.88A2.94,2.94,0,0,0,730.74,407.88Zm-9,86.16a2.83,2.83,0,1,0-2.77,2.88A2.94,2.94,0,0,0,721.72,494Zm-17.47-59.36a2.86,2.86,0,1,0,2.83-2.83A3,3,0,0,0,704.25,434.68Zm2.93,32.94a2.89,2.89,0,1,0,2.81,2.86A3,3,0,0,0,707.18,467.62ZM743,407.85a2.86,2.86,0,1,0,2.76,2.9A3,3,0,0,0,743,407.85ZM721.78,423a2.88,2.88,0,1,0-2.86,2.81A3,3,0,0,0,721.78,423Zm9,68.22a2.88,2.88,0,1,0,2.79,2.87A3,3,0,0,0,730.78,491.21ZM710,446.64a3,3,0,0,0-2.85-3,2.88,2.88,0,1,0,2.85,3Zm32.54,44.56a2.84,2.84,0,0,0-2.93,2.69,3,3,0,0,0,2.73,3.11,3,3,0,0,0,3.06-2.82A3,3,0,0,0,742.53,491.2Zm-38.31-32.84a2.84,2.84,0,0,0,2.8,2.82,3,3,0,0,0,3-2.85,3,3,0,0,0-2.92-2.95A3,3,0,0,0,704.22,458.36Zm14.61,21.05a2.84,2.84,0,0,0-2.82,2.8,3,3,0,0,0,2.85,3,3,3,0,0,0,2.95-2.92A3,3,0,0,0,718.83,479.41Zm14.78-56.61a2.93,2.93,0,1,0-2.86,3A3,3,0,0,0,733.61,422.8Zm-14.74,9a3,3,0,0,0-2.9,2.8,2.93,2.93,0,1,0,2.9-2.8Zm0,23.55a3,3,0,1,0,3,2.88A3,3,0,0,0,718.87,455.33Zm23.64,24a3,3,0,1,0,2.93,2.93A3,3,0,0,0,742.51,479.34Zm-14.77,2.94a3,3,0,1,0,3-2.93A3,3,0,0,0,727.74,482.28ZM742.92,420a3,3,0,1,0,2.93,3A3,3,0,0,0,742.92,420Zm-23.86,47.59a2.95,2.95,0,1,0,2.79,3.11A3,3,0,0,0,719.06,467.56Zm-3.12-21.16a3,3,0,1,0,3-2.86A3,3,0,0,0,715.94,446.4Zm14.81-14.67a3,3,0,1,0,2.92,2.93A2.93,2.93,0,0,0,730.75,431.73Zm2.94,38.89a3,3,0,1,0-3.17,2.88A2.92,2.92,0,0,0,733.69,470.62Zm9.17-38.91a3,3,0,1,0,3,3A2.91,2.91,0,0,0,742.86,431.71Zm-9.15,14.81a3,3,0,1,0-3,3A2.93,2.93,0,0,0,733.71,446.52Zm0,11.83a3,3,0,1,0-3.07,3A2.93,2.93,0,0,0,733.71,458.35Zm6.18,12.14a3,3,0,1,0,3-3A2.92,2.92,0,0,0,739.89,470.49Zm0-24a3.07,3.07,0,1,0,3-3A3,3,0,0,0,739.84,446.46Zm0,11.76a3.1,3.1,0,1,0,3.06-3A3,3,0,0,0,739.81,458.22Z"/><g class="cls-10"><polygon class="cls-11" points="628.78 327.89 645.2 327.89 645.2 82.96 628.78 82.96 628.78 85.21 642.95 85.21 642.95 325.64 628.78 325.64 628.78 327.89"/></g><polygon class="cls-9" points="658.03 197.7 658.03 213.15 650.3 205.43 658.03 197.7"/><polygon class="cls-9" points="668.08 197.7 668.08 213.15 660.35 205.43 668.08 197.7"/><polygon class="cls-9" points="678.12 197.7 678.12 213.15 670.4 205.43 678.12 197.7"/><g class="cls-10"><polygon class="cls-11" points="104.8 327.89 121.22 327.89 121.22 325.64 107.05 325.64 107.05 85.21 121.22 85.21 121.22 82.96 104.8 82.96 104.8 327.89"/></g><polygon class="cls-9" points="91.97 197.7 91.97 213.15 99.7 205.43 91.97 197.7"/><polygon class="cls-9" points="81.92 197.7 81.92 213.15 89.65 205.43 81.92 197.7"/><polygon class="cls-9" points="71.88 197.7 71.88 213.15 79.6 205.43 71.88 197.7"/><polygon class="cls-9" points="382.73 65.25 367.27 65.25 375 72.98 382.73 65.25"/><polygon class="cls-9" points="367.27 345.6 382.73 345.6 375 337.87 367.27 345.6"/><g class="cls-10"><path class="cls-8" d="M537.3,118.94a6.5,6.5,0,1,0,6.49-6.5A6.5,6.5,0,0,0,537.3,118.94Z"/><path class="cls-8" d="M537.3,138.75a6.5,6.5,0,1,0,6.49-6.49A6.49,6.49,0,0,0,537.3,138.75Z"/><rect class="cls-8" x="486.03" y="114.16" width="45.61" height="3" rx="1.39" transform="translate(1017.66 231.31) rotate(180)"/><rect class="cls-8" x="506.2" y="121.64" width="25.43" height="3" rx="1.39" transform="translate(1037.84 246.28) rotate(180)"/><path class="cls-8" d="M497.39,124.64h4.28a1.5,1.5,0,0,0,1.5-1.5h0a1.5,1.5,0,0,0-1.5-1.5h-4.28a1.5,1.5,0,0,0-1.5,1.5h0A1.5,1.5,0,0,0,497.39,124.64Z"/><rect class="cls-8" x="486.03" y="133.68" width="45.61" height="3" rx="1.39" transform="translate(1017.66 270.36) rotate(180)"/><rect class="cls-8" x="506.2" y="141.16" width="25.43" height="3" rx="1.39" transform="translate(1037.84 285.33) rotate(180)"/><path class="cls-8" d="M497.39,144.16h4.28a1.5,1.5,0,0,0,1.5-1.5h0a1.5,1.5,0,0,0-1.5-1.5h-4.28a1.5,1.5,0,0,0-1.5,1.5h0A1.5,1.5,0,0,0,497.39,144.16Z"/></g><path class="cls-6" d="M140.13,200a2,2,0,0,0,2.4,1.47l17-4.1,4.09,17a2,2,0,0,0,2.41,1.47l17-4.1,4.1,17a2,2,0,0,0,2.4,1.46l17-4.09,4.09,17a2,2,0,1,0,3.87-.93l-4.56-18.91a2,2,0,0,0-2.4-1.47l-17,4.1-4.1-17a2,2,0,0,0-2.4-1.46l-17,4.09-4.1-17a2,2,0,0,0-2.4-1.47l-18.91,4.57A2,2,0,0,0,140.13,200Z"/><path class="cls-6" d="M268.18,50.4,276,28.74a2,2,0,0,1,2.55-1.2l21.66,7.8a2,2,0,0,1,1.2,2.55l-7.8,21.66a2,2,0,0,1-2.55,1.2l-21.66-7.81A2,2,0,0,1,268.18,50.4Zm28.79-12L279.05,32,272.6,49.87l17.91,6.46Z"/><path class="cls-5" d="M533.05,302l-9.36-21a2,2,0,0,1,1-2.63l21-9.37a2,2,0,0,1,2.63,1l9.37,21a2,2,0,0,1-1,2.63l-21,9.37A2,2,0,0,1,533.05,302Zm12.48-28.58-17.4,7.75,7.75,17.39,17.39-7.75Z"/><path class="cls-6" d="M25.7,134.68l12.78-19.15a2,2,0,0,1,2.76-.55l19.15,12.77a2,2,0,0,1,.55,2.76L48.16,149.66a2,2,0,0,1-2.76.56L26.25,137.44A2,2,0,0,1,25.7,134.68ZM56.52,130,40.68,119.39,30.12,135.23,46,145.8Z"/><path class="cls-5" d="M685.71,78.79l12.78-19.16a2,2,0,0,1,2.76-.55L720.4,71.86a2,2,0,0,1,.55,2.76L708.17,93.77a2,2,0,0,1-2.76.55L686.26,81.55A2,2,0,0,1,685.71,78.79Zm30.82-4.72L700.69,63.5,690.12,79.34,706,89.91Z"/><path class="cls-5" d="M692.09,315.53a13.51,13.51,0,1,1,13.5,13.5A13.51,13.51,0,0,1,692.09,315.53Zm4,0a9.52,9.52,0,1,0,9.52-9.52A9.53,9.53,0,0,0,696.07,315.53Z"/><path class="cls-6" d="M35.2,286a13.5,13.5,0,1,1,13.5,13.5A13.51,13.51,0,0,1,35.2,286Zm4,0a9.52,9.52,0,1,0,9.52-9.52A9.53,9.53,0,0,0,39.18,286Z"/><path class="cls-6" d="M247.91,145.68a13.5,13.5,0,1,1,13.5,13.5A13.51,13.51,0,0,1,247.91,145.68Zm4,0a9.52,9.52,0,1,0,9.52-9.52A9.53,9.53,0,0,0,251.89,145.68Z"/><path class="cls-5" d="M594.79,137.2a13.51,13.51,0,1,1,13.51,13.5A13.52,13.52,0,0,1,594.79,137.2Zm4,0a9.52,9.52,0,1,0,9.52-9.52A9.53,9.53,0,0,0,598.78,137.2Z"/><path class="cls-5" d="M565.49,67a2,2,0,0,0,1-2.64l-8.73-18.88a2,2,0,0,0-3.62,1.67l8.73,18.88A2,2,0,0,0,565.49,67Z"/><path class="cls-5" d="M551.68,62l18.88-8.73a2,2,0,0,0-1.67-3.61L550,58.34A2,2,0,1,0,551.68,62Z"/><path class="cls-6" d="M167,59.31l7.63-3.53-3.53-7.63a2,2,0,0,1,3.62-1.67l3.53,7.63,7.63-3.53a2,2,0,0,1,1.67,3.61l-7.63,3.53,3.53,7.64A2,2,0,0,1,179.84,67l-3.53-7.64-7.64,3.53A2,2,0,1,1,167,59.31Z"/><path class="cls-12" d="M502.51,399.34A1208.61,1208.61,0,0,1,375,406a1208.61,1208.61,0,0,1-127.51-6.66q2.13-8.43,4.22-17.66c16.64-73.47,12-81.31,3-119s3-50,36.31-75.11,29.91-17.37,34.1-45.46,24.59-40.92,49.83-40.92,45.65,12.84,49.83,40.92.78,20.31,34.1,45.46,45.27,37.39,36.31,75.11-13.59,45.57,3.05,119Q500.38,390.91,502.51,399.34Z"/><path class="cls-5" d="M424.83,142.07c4.19,28.09.78,20.31,34.1,45.46,27.22,20.54,40.17,32.47,39.12,56.71-.95-20.87-13.91-32.52-39.12-51.54-33.32-25.15-29.91-17.38-34.1-45.46S400.24,101.15,375,101.15C400.24,101.15,420.65,114,424.83,142.07Z"/><path class="cls-6" d="M291.07,187.53c33.32-25.15,29.91-17.37,34.1-45.46s24.59-40.92,49.83-40.92c-25.24,0-45.65,18-49.83,46.09s-.78,20.31-34.1,45.46c-25.21,19-38.17,30.67-39.12,51.54C250.9,220,263.85,208.07,291.07,187.53Z"/><path class="cls-13" d="M327,198.9c-3.67-3.15-50.12,17-52,26.39-1.69,8.63.2,27.91,6.06,30.64s36.84-10.7,41.3-13.7S330.65,202,327,198.9Z"/><path class="cls-13" d="M427.63,242.23c4.46,3,35.43,16.43,41.3,13.7s7.75-22,6.06-30.64c-1.85-9.4-48.3-29.54-52-26.39S423.18,239.23,427.63,242.23Z"/><path class="cls-14" d="M463.42,402.82q-29.34,2.15-59.6,2.85h0Q389.5,406,375,406q-12.94,0-25.76-.26-30.37-.64-59.9-2.71c.22-.64.44-1.28.67-1.93q1-2.79,2-5.75l.54-1.61c.4-1.2.8-2.42,1.21-3.64l.75-2.3c.12-.39.25-.77.37-1.15.25-.77.5-1.54.74-2.32s.49-1.56.74-2.34c.37-1.17.73-2.33,1.08-3.5s.63-2.08.94-3.12c.16-.57.33-1.13.49-1.68.65-2.23,1.28-4.44,1.86-6.61l0-.13c.29-1,.56-2.08.82-3.09l.06-.25q.79-3.06,1.44-5.94c0-.15.06-.3.1-.45.16-.69.3-1.36.44-2,.21-1,.41-2,.58-2.93.11-.63.23-1.25.33-1.86s.2-1.21.28-1.79q.33-2.19.48-4.11c1.89-23.59-4.5-65.88-3-71.86s24.72-17.88,35.54-20.42,66.33-2.54,77.15,0,34,14.44,35.54,20.42-4.85,48.27-3,71.86q.15,1.92.48,4.11c0,.29.09.59.13.88s.12.74.19,1.11c.51,3,1.2,6.28,2,9.76.08.35.17.71.26,1.07.62,2.52,1.31,5.13,2.05,7.79.19.68.38,1.37.58,2.06l.21.74.48,1.67c.58,2,1.18,4,1.79,6l.72,2.33c.25.78.49,1.56.74,2.34s.49,1.55.74,2.32c.12.38.25.76.37,1.15l.75,2.3c.41,1.22.81,2.44,1.21,3.64l.54,1.61q1,3,2,5.75Z"/><path class="cls-15" d="M349.24,405.74q-30.37-.64-59.9-2.71c.22-.63.44-1.28.67-1.93q1-2.79,2-5.75l.54-1.61c.4-1.2.8-2.42,1.21-3.64l.75-2.3c.12-.39.25-.77.37-1.15.25-.77.5-1.54.74-2.32s.49-1.56.74-2.34c.37-1.17.73-2.33,1.08-3.5s.63-2.08.94-3.12c.16-.57.33-1.13.49-1.68.65-2.23,1.27-4.44,1.86-6.61l0-.13c.29-1,.56-2.08.82-3.09l.06-.25q.78-3.06,1.44-5.94c0-.15.06-.3.1-.45.16-.69.3-1.36.44-2,.2-1,.4-2,.58-2.93.11-.63.23-1.25.33-1.86s.2-1.21.28-1.79l15.68-10.92c-5.27,39.57-10.68,45.86-6.73,53.91C315.43,395.07,331.51,400.59,349.24,405.74Z"/><path class="cls-16" d="M462.82,401.1l.6,1.72q-29.34,2.15-59.6,2.85c17.65-5.13,33.59-10.62,35.28-14.07,3.95-8.05-1.46-14.34-6.73-53.91l15.68,10.92c0,.29.09.59.13.88s.12.74.19,1.11c.51,3,1.2,6.28,2,9.76.08.36.17.72.26,1.07.62,2.52,1.31,5.13,2.05,7.79.19.69.38,1.37.58,2.06l.21.74.48,1.67c.58,2,1.18,4,1.79,6l.72,2.33c.25.78.49,1.56.74,2.34s.49,1.55.74,2.32c.12.38.25.76.37,1.15l.75,2.3c.41,1.22.81,2.44,1.21,3.64.19.54.37,1.08.54,1.61Q461.85,398.3,462.82,401.1Z"/><path class="cls-17" d="M337,170a15.69,15.69,0,0,0-16-2c-8,3.54-6.75,13.44-2,19.19a15.32,15.32,0,0,0,11.44,5.47,41.75,41.75,0,0,0,10.71-1.1Z"/><path class="cls-18" d="M324,191.12l.13.06Z"/><path class="cls-11" d="M319,187.19a14.55,14.55,0,0,0,3.57,3.12l-.09-.07a15.13,15.13,0,0,1-5.18-9.69,11.35,11.35,0,0,1,4.11-10,13.29,13.29,0,0,1,6.48-2.41,35.33,35.33,0,0,1,6-.07A15.3,15.3,0,0,0,321,168C313,171.54,314.25,181.44,319,187.19Z"/><path class="cls-18" d="M324,191.12l.13.06Z"/><path class="cls-5" d="M319,187.19a14.55,14.55,0,0,0,3.57,3.12l-.09-.07a15.13,15.13,0,0,1-5.18-9.69,11.35,11.35,0,0,1,4.11-10,13.29,13.29,0,0,1,6.48-2.41,35.33,35.33,0,0,1,6-.07A15.3,15.3,0,0,0,321,168C313,171.54,314.25,181.44,319,187.19Z"/><path class="cls-18" d="M423,191.12l-.12.06Z"/><path class="cls-17" d="M411.1,170a15.69,15.69,0,0,1,16-2c8,3.54,6.75,13.44,2,19.19a15.3,15.3,0,0,1-11.44,5.47,41.75,41.75,0,0,1-10.71-1.1Z"/><path class="cls-5" d="M429.11,187.19a14.55,14.55,0,0,1-3.57,3.12l.09-.07a15.08,15.08,0,0,0,5.18-9.69,11.35,11.35,0,0,0-4.11-10,13.26,13.26,0,0,0-6.47-2.41,35.35,35.35,0,0,0-6-.07,15.27,15.27,0,0,1,12.87-.1C435.08,171.54,433.85,181.44,429.11,187.19Z"/><path class="cls-19" d="M376.41,213.69c60.43,0,79,19.16,65.26,36.54-10,12.59-46.35,18-60,28.48a8.6,8.6,0,0,1-10.47,0c-13.67-10.47-50-15.89-60-28.48C297.37,232.85,316,213.69,376.41,213.69Z"/><path class="cls-20" d="M376.41,213.69c60.43,0,79,19.16,65.26,36.54-10,12.59-46.35,18-60,28.48a8.6,8.6,0,0,1-10.47,0c-13.67-10.47-50-15.89-60-28.48C297.37,232.85,316,213.69,376.41,213.69Z"/><path class="cls-5" d="M437.65,249.21c12.68-16.75-5.32-33.21-60.56-33.35v-2.17c59.88.15,78.32,19.22,64.58,36.54-6.95,8.75-26.63,14-42.57,20C413.83,263.8,431.45,257.4,437.65,249.21Z"/><path class="cls-6" d="M375.75,213.69v2.17c-55.24.13-73.25,16.6-60.57,33.35,6.2,8.19,23.82,14.59,38.55,21-16-5.92-35.62-11.21-42.57-20C297.42,232.91,315.86,213.84,375.75,213.69Z"/><ellipse class="cls-13" cx="376.41" cy="235.21" rx="20.84" ry="8.26"/><path class="cls-17" d="M376.59,240.85h0A11.38,11.38,0,0,0,388,229.47V209.35H365.2v20.12A11.38,11.38,0,0,0,376.59,240.85Z"/><path class="cls-21" d="M380,224.78a55.42,55.42,0,0,1-13.15-1.23v6.62a8.37,8.37,0,0,0,16.73,0v-5.76A28.38,28.38,0,0,1,380,224.78Z"/><path class="cls-17" d="M337.39,134.63l37.21-5.26,37.21,5.26s1.51,30.66.76,47.28c-.76,17-5.46,38.34-38,38.34s-37.21-21.35-38-38.34C335.88,165.29,337.39,134.63,337.39,134.63Z"/><path class="cls-21" d="M348,144.11c-.51,7.29-5.4,13.56-8.32,20-3.7,8.19-2.7,17.31-.33,25.8,3.46,12.44,12.4,24,24.79,27.61,10,2.95,21.24.35,29.61-5.88s13.93-15.82,16.29-26,1.66-20.88-.91-31c0-4.1-4.38-6-7.24-8l-11.79-8.5a31.76,31.76,0,0,1-42.07,4A15.8,15.8,0,0,1,348,144.11Z"/><path class="cls-22" d="M356.05,189.7a6.46,6.46,0,1,1-6.45-6.45A6.45,6.45,0,0,1,356.05,189.7Z"/><path class="cls-22" d="M393.15,189.7a6.46,6.46,0,1,0,6.45-6.45A6.45,6.45,0,0,0,393.15,189.7Z"/><path class="cls-23" d="M386.27,167.84a3.25,3.25,0,1,0,3.25-3.25A3.25,3.25,0,0,0,386.27,167.84Z"/><path class="cls-23" d="M362.93,167.84a3.25,3.25,0,1,1-3.25-3.25A3.25,3.25,0,0,1,362.93,167.84Z"/><path class="cls-23" d="M346.66,154.7l19.25,8.68S366.37,149.93,346.66,154.7Z"/><path class="cls-23" d="M403.81,151.47l-20.6,4.68S385.43,142.88,403.81,151.47Z"/><path class="cls-17" d="M374.85,190.75a1,1,0,0,1-.49-.12c-3.6-2-2.19-7.78-1.34-11.21.13-.54.25-1,.34-1.42a51.71,51.71,0,0,0,.85-17.73,1,1,0,0,1,2-.28,53.65,53.65,0,0,1-.88,18.41c-.09.43-.22.93-.36,1.5-.71,2.88-1.9,7.7.38,9a1,1,0,0,1,.38,1.37A1,1,0,0,1,374.85,190.75Z"/><path class="cls-24" d="M388,189.47c-5.9,5.67-15,8.88-22.18,8.24,0,0,4.55,8.6,15.58,5.12C392,199.49,388,189.47,388,189.47Z"/><path class="cls-25" d="M303.48,270.56c-7.65,12.61-44.27,72-53.85,78.9S178,334.24,139.76,342.75,82.6,422.54,164.87,431s111.38-8,126.94-24.57S321.18,344.1,322,326.37,303.48,270.56,303.48,270.56Z"/><path class="cls-26" d="M449.35,270.56c7.65,12.61,44.27,72,53.85,78.9s71.66-15.22,109.87-6.71S670.23,422.54,588,431s-111.38-8-126.94-24.57-29.37-62.36-30.14-80.09S449.35,270.56,449.35,270.56Z"/><path class="cls-27" d="M594.1,350.05c-11.9,1.18-24,4.67-33.06,12.46A38.94,38.94,0,0,0,547.36,392c.15,11.19,6,22.29,15.5,28.22,12,7.5,27.44,6.17,41.22,2.95,10.06-2.35,20.06-5.63,28.61-11.43s15.58-14.35,17.85-24.42C658.18,353.39,618.12,347.65,594.1,350.05Z"/><path class="cls-17" d="M644.71,408c-2.62-4.59-5.75-8.81-10.13-11.81-8.8-6-21.1-6.15-31.35-6.21-10.77-.07-21.85.21-32.11,3.83-8.89,3.14-15.47,9.08-20.63,16.86-2.36,3.57-4.42,7.32-6.5,11.07-7.12-5.1-12.34-13.14-12.17-21.83.64-33,48.69-40.44,73.38-43.28,12.84-1.47,25.42.73,35.9,11.07,9.26,9.13,12.89,24.3,6.72,35.74A27.35,27.35,0,0,1,644.71,408Z"/><path class="cls-17" d="M624.5,358.48c30.31,5.6,43,14.95,51.18,22.19S706.87,417.94,693,429s-39.89-26.8-42.91-31.36-42.39-17-42.39-17Z"/><path class="cls-17" d="M604.05,362.93c27.84,10.56,46.44,24.36,47.83,29.33s11.34,37.44-3.42,43-20.6-9.15-24.74-27.22l-3.1-11.84L588.36,376Z"/><path class="cls-17" d="M620.62,396.2c4.74,14.85,12,58.32-4.36,63.61S595,426.26,590.18,411.23s-16.59-16.42-24.49.11S540,459.68,520.23,456.43s-1.87-27.42,4.86-41.95,5.83-34.56,24.93-42.75S612.85,371.86,620.62,396.2Z"/><path class="cls-17" d="M611.19,356.23c28.39-2.53,64.35,5.8,78.33,10.45s21.61,12.9,17,23.28-49.82.67-49.82.67Z"/><path class="cls-28" d="M622.37,444.43c3.29-9.43,2.38-19.95.82-29.62-1.35-8.4-2.71-17.75-10.18-23.05-5.53-3.93-14.17-3.85-18.41,1.45-5.73,7.19-1.75,16.28.45,24,2.77,9.73,4.08,20.56,7.91,29.89,1.4,3.41,3.69,6.3,7.66,6.51a11,11,0,0,0,8-3.31A15,15,0,0,0,622.37,444.43Z"/><path class="cls-28" d="M648.2,432.81c8-3.64,4.63-24.86,2.68-36.81s-21.7-19.59-26.28-16-2.22,12.31,1.07,21.33S633.16,439.61,648.2,432.81Z"/><path class="cls-28" d="M651.88,378.49c8.79-3.43,31.08,9.71,38.26,24.94s5.8,22.18-2.7,24.65-26.17-21-30.72-29.32S646.54,380.58,651.88,378.49Z"/><path class="cls-28" d="M668.17,365.3c22.09,3.66,36.1,13.19,35.11,21.24s-24.07-1.51-28.55-6.91S668.17,365.3,668.17,365.3Z"/><path class="cls-28" d="M546.24,394c15.94,5.65-13.09,64-25.29,58s3.57-26.22,7.44-38.1S537,390.7,546.24,394Z"/><path class="cls-21" d="M689.2,407.11c1.95,3.74,3.3,8.08,2.25,12.17s-5.18,7.57-9.3,6.67c-2.86-.63-4.93-3.05-6.67-5.41-3.89-5.27-18.81-24.72-9.28-30.07C674.29,385.92,686.12,401.23,689.2,407.11Z"/><path class="cls-21" d="M697.72,378.86c1.45,1.33,2.73,3.22,2.31,5.15-.48,2.13-2.86,3.31-5,3.4-3,.12-5.9-1.22-8.48-2.78-3.49-2.1-6.91-7.86-1.42-10.11C688.78,373,695.14,376.52,697.72,378.86Z"/><path class="cls-21" d="M646.11,395.54c1.66,1.95,2.26,4.57,2.68,7.1a81.43,81.43,0,0,1,.72,21.49c-.22,2.18-.65,4.58-2.37,5.93a5.63,5.63,0,0,1-6,.17,12.61,12.61,0,0,1-4.39-4.58,35.33,35.33,0,0,1-5.35-20.54,16.34,16.34,0,0,1,1.64-6.93C635.38,393.69,642.32,391.09,646.11,395.54Z"/><path class="cls-21" d="M614.47,405.08c2.29,2.4,3.34,5.72,4.13,9A86,86,0,0,1,621,435.9c-.09,4.27-1.08,9.38-5,10.94a7.26,7.26,0,0,1-6.42-.83,13.58,13.58,0,0,1-4.4-5c-4.17-7.52-3.94-16.61-3.59-25.21C601.81,409.09,606,396.19,614.47,405.08Z"/><path class="cls-21" d="M540.18,422.27a34.39,34.39,0,0,1-8.63,20.33A11.34,11.34,0,0,1,527,446a5,5,0,0,1-5.32-1.15c-1.2-1.41-1.19-3.47-.94-5.31.92-6.88,4.23-13.17,7.48-19.3C532.19,412.73,540.94,411.66,540.18,422.27Z"/><path class="cls-29" d="M158.73,350.05c11.9,1.18,24,4.67,33.06,12.46A38.94,38.94,0,0,1,205.47,392c-.15,11.19-6,22.29-15.5,28.22-12,7.5-27.44,6.17-41.22,2.95-10.06-2.35-20.06-5.63-28.61-11.43s-15.58-14.35-17.85-24.42C94.65,353.39,134.71,347.65,158.73,350.05Z"/><path class="cls-6" d="M206.6,472.23c-31.36,11.42-66,12.33-98.72,6-9.95-1.93-20-4.61-28.39-10.32S64.58,452.94,64.4,442.8c-.06-3.69,1.33-8.08,4.9-9s6.62,2,9.21,4.42c13.85,13.14,32.24,21,51.13,23.79s38.26.79,56.76-3.95c7.4-1.89,20.37-7.2,27.3-1.62C221.35,462.6,212.77,470,206.6,472.23Z"/><path class="cls-30" d="M168.19,388.39c51.81,16,53.16,56.9,49.55,67.89S155.56,485.84,104,471s-46.32-64.12-3.75-74.94S164.92,387.38,168.19,388.39Z"/><path class="cls-13" d="M171.47,416.6c-4.24,2.17-5.37,7.57-6.41,12.22a89,89,0,0,1-7.9,21.72c-2.15,4.15-4.79,8.29-8.81,10.7s-9.72,2.56-13-.8c-3.08-3.18-3.06-8.12-3.71-12.5s-3.22-9.43-7.65-9.47c-3.52,0-6.14,3.15-9.38,4.51-5.41,2.27-11.86-1.08-15-6s-3.9-11-4.53-16.82a46.32,46.32,0,0,1-21.39,11.7c-2.37.56-5,.9-7.15-.21-5-2.55-3.81-9.94-1.44-15a85.38,85.38,0,0,1,123.1-35.73c14,8.92,32.87,26.41,31.74,44.62-1,16.55-15.3,27.37-26.84,11.26C188.5,430.42,183.4,410.5,171.47,416.6Z"/><path class="cls-31" d="M113.62,442.75a63.75,63.75,0,0,1,5.54-25.51c1.67-3.73,4.2-7.68,8.22-8.43,8.25-1.55,10.89,8.64,10.57,14.7-.46,9-4.1,17.47-8.09,25.38a22.91,22.91,0,0,1-4.08,6.2,8.25,8.25,0,0,1-6.73,2.56C113.2,456.78,113.59,447.14,113.62,442.75Z"/><path class="cls-17" d="M108.12,408c2.62-4.59,5.75-8.81,10.13-11.81,8.8-6,21.1-6.15,31.35-6.21,10.77-.07,21.85.21,32.11,3.83,8.89,3.14,15.47,9.08,20.63,16.86,2.36,3.57,4.42,7.32,6.5,11.07,7.12-5.1,12.34-13.14,12.17-21.83-.64-33-48.69-40.44-73.38-43.28-12.84-1.47-25.42.73-35.9,11.07-9.26,9.13-12.89,24.3-6.72,35.74A27.35,27.35,0,0,0,108.12,408Z"/><path class="cls-17" d="M128.33,358.48c-30.31,5.6-43,14.95-51.18,22.19S46,417.94,59.86,429s39.89-26.8,42.91-31.36,42.39-17,42.39-17Z"/><path class="cls-17" d="M148.78,362.93c-27.84,10.56-46.45,24.36-47.83,29.33s-11.34,37.44,3.42,43S125,426.11,129.11,408l3.1-11.84L164.47,376Z"/><path class="cls-17" d="M132.21,396.2c-4.74,14.85-12,58.32,4.36,63.61s21.29-33.55,26.08-48.58,16.59-16.42,24.49.11,25.68,48.34,45.46,45.09,1.87-27.42-4.86-41.95-5.83-34.56-24.93-42.75S140,371.86,132.21,396.2Z"/><path class="cls-17" d="M141.64,356.23c-28.39-2.53-64.35,5.8-78.33,10.45s-21.61,12.9-17,23.28,49.82.67,49.82.67Z"/><path class="cls-28" d="M130.46,444.43c-3.29-9.43-2.38-19.95-.82-29.62,1.35-8.4,2.71-17.75,10.18-23.05,5.53-3.93,14.17-3.85,18.41,1.45,5.73,7.19,1.75,16.28-.45,24-2.77,9.73-4.08,20.56-7.91,29.89-1.4,3.41-3.69,6.3-7.66,6.51a11,11,0,0,1-8-3.31A15,15,0,0,1,130.46,444.43Z"/><path class="cls-28" d="M104.63,432.81C96.58,429.17,100,408,102,396s21.7-19.59,26.28-16,2.22,12.31-1.07,21.33S119.67,439.61,104.63,432.81Z"/><path class="cls-28" d="M101,378.49c-8.79-3.43-31.08,9.71-38.26,24.94s-5.8,22.18,2.7,24.65,26.17-21,30.72-29.32S106.29,380.58,101,378.49Z"/><path class="cls-28" d="M84.66,365.3c-22.1,3.66-36.1,13.19-35.11,21.24S73.62,385,78.1,379.63,84.66,365.3,84.66,365.3Z"/><path class="cls-28" d="M206.59,394c-15.94,5.65,13.09,64,25.29,58s-3.57-26.22-7.44-38.1S215.82,390.7,206.59,394Z"/><path class="cls-21" d="M63.63,407.11c-2,3.74-3.3,8.08-2.25,12.17s5.18,7.57,9.3,6.67c2.86-.63,4.93-3.05,6.67-5.41,3.89-5.27,18.81-24.72,9.28-30.07C78.54,385.92,66.71,401.23,63.63,407.11Z"/><path class="cls-21" d="M55.11,378.86c-1.45,1.33-2.73,3.22-2.31,5.15.48,2.13,2.86,3.31,5,3.4,3,.12,5.9-1.22,8.48-2.78,3.49-2.1,6.91-7.86,1.42-10.11C64.05,373,57.69,376.52,55.11,378.86Z"/><path class="cls-21" d="M106.72,395.54c-1.66,1.95-2.26,4.57-2.68,7.1a81.43,81.43,0,0,0-.72,21.49c.22,2.18.65,4.58,2.37,5.93a5.63,5.63,0,0,0,6,.17,12.61,12.61,0,0,0,4.39-4.58,35.33,35.33,0,0,0,5.35-20.54,16.34,16.34,0,0,0-1.64-6.93C117.45,393.69,110.51,391.09,106.72,395.54Z"/><path class="cls-21" d="M138.36,405.08c-2.3,2.4-3.34,5.72-4.13,9a86,86,0,0,0-2.4,21.86c.09,4.27,1.08,9.38,5,10.94a7.26,7.26,0,0,0,6.42-.83,13.58,13.58,0,0,0,4.4-5c4.17-7.52,3.94-16.61,3.59-25.21C151,409.09,146.85,396.19,138.36,405.08Z"/><path class="cls-21" d="M212.65,422.27a34.39,34.39,0,0,0,8.63,20.33,11.34,11.34,0,0,0,4.58,3.43,5,5,0,0,0,5.32-1.15c1.2-1.41,1.19-3.47.94-5.31-.92-6.88-4.23-13.17-7.48-19.3C220.64,412.73,211.89,411.66,212.65,422.27Z"/><path class="cls-5" d="M485.65,367.92c1.29-12.33,13-18.35,13-18.35s-38.52-52.3-45.29-66-9.53-17.8-22.5-25.24c7.84,3.82,15.52,8.57,18.46,12.19h0l0,0a6.65,6.65,0,0,1,1,1.7c9.49,15.55,43.6,70.54,52.8,77.17,9.59,6.9,71.66-15.22,109.87-6.71A38.79,38.79,0,0,1,630,351.46c-31-16.2-77.8-3.91-107.47.49C488.88,356.93,485.65,367.92,485.65,367.92Z"/><path class="cls-6" d="M267.18,367.92c-1.29-12.33-13-18.35-13-18.35s38.52-52.3,45.29-66,9.53-17.8,22.5-25.24c-7.84,3.82-15.52,8.57-18.46,12.19h0l0,0a6.65,6.65,0,0,0-1,1.7c-9.49,15.55-43.6,70.54-52.8,77.17-9.59,6.9-71.66-15.22-109.87-6.71a38.79,38.79,0,0,0-16.88,8.71c31-16.2,77.8-3.91,107.47.49C264,356.93,267.18,367.92,267.18,367.92Z"/><path class="cls-13" d="M440.76,275.33A69.15,69.15,0,0,0,431.85,314C427.9,300.81,431.8,285.82,440.76,275.33Z"/><path class="cls-13" d="M312.07,275.33A69.15,69.15,0,0,1,321,314C324.93,300.81,321,285.82,312.07,275.33Z"/><path class="cls-32" d="M356.83,182.34a14.91,14.91,0,1,1,14.9-14.9A14.93,14.93,0,0,1,356.83,182.34Zm0-25.78a10.88,10.88,0,1,0,10.88,10.88A10.89,10.89,0,0,0,356.83,156.56Z"/><path class="cls-32" d="M393.05,182.34a14.91,14.91,0,1,1,14.9-14.9A14.93,14.93,0,0,1,393.05,182.34Zm0-25.78a10.88,10.88,0,1,0,10.88,10.88A10.89,10.89,0,0,0,393.05,156.56Z"/><path class="cls-32" d="M369.7,170.07a2,2,0,0,1-1.14-.36,2,2,0,0,1-.51-2.8l.29-.42a8.21,8.21,0,0,1,6.65-3.56h.17a8.18,8.18,0,0,1,6.6,3.3,2,2,0,0,1-3.21,2.43,4.18,4.18,0,0,0-3.49-1.7,4.23,4.23,0,0,0-3.41,1.83l-.29.43A2,2,0,0,1,369.7,170.07Z"/><path class="cls-33" d="M336.42,168.45s-6.64-18-10.39-31.57S319.35,112,339,110.42c1.65-9.85,10.2-18.29,20.16-19,7.93-.61,15.76,3,23.69,2.27,5.18-.48,10-2.77,15-4.13s10.83-1.68,15,1.42c4,3,5.61,8.34,9.55,11.38,3.09,2.39,7.16,3,10.95,3.93s7.84,2.59,9.61,6.08c3,5.93-1.94,14.15,2.11,19.43,1.84,2.39,5.08,3.4,6.81,5.87s1.55,5.58.79,8.38-2.1,5.42-2.69,8.26-.3,6.12,1.77,8.15,6.19,1.86,7.35-.8a15.44,15.44,0,0,1-6.31,6.25,8.72,8.72,0,0,1-8.45-.1c-1.69-1.07-2.88-2.83-4.66-3.73-2.69-1.37-5.92-.46-8.83.34s-6.32,1.39-8.72-.44c-2.65-2-2.73-5.92-2.61-9.25s-.07-7.25-2.82-9.14c-2.38-1.64-5.55-1-8.43-.94a18.4,18.4,0,0,1-16.35-10,30.19,30.19,0,0,1-21,9.83c-8.11.52-16.19-1.07-24.16-2.65C343.15,150.94,340,159.31,336.42,168.45Z"/><polygon class="cls-34" points="404.99 140.43 413.13 168.1 419.16 137.2 404.99 140.43"/><path class="cls-5" d="M573,362.41a219.45,219.45,0,0,1,32.17-5.75q3-.35,6-.39l-.06,0c28.39-2.53,64.35,5.8,78.33,10.45,12.64,4.2,20.07,11.34,18,20.33a19.19,19.19,0,0,0-6.38-11.37c-5.19-4.52-12-6.6-18.66-8.4-18.25-4.95-36.94-8.76-55.88-9.59a143.27,143.27,0,0,0-26.77.85Z"/><path class="cls-5" d="M179.8,362.41a219.45,219.45,0,0,0-32.17-5.75q-3-.35-6-.39l.06,0c-28.39-2.53-64.35,5.8-78.33,10.45C50.67,370.88,43.24,378,45.3,387a19.19,19.19,0,0,1,6.38-11.37c5.19-4.52,12-6.6,18.66-8.4,18.25-4.95,36.94-8.76,55.88-9.59a143.27,143.27,0,0,1,26.77.85Z"/><path class="cls-35" d="M327.77,118.2a13,13,0,0,0-2.26,9.87,34.65,34.65,0,0,0,3.41,9.79,19.72,19.72,0,0,1,1.34-12.75c0,3,0,5.94,0,8.91a15.55,15.55,0,0,1,3.44-8.06,68.21,68.21,0,0,0,1,26.51,214.7,214.7,0,0,0,6.64-21.61l-4.82,5.95a100.92,100.92,0,0,1,3.27-15.76,16.45,16.45,0,0,0-8.25.91c3-1.51,4.92-4.18,8.39-5.41C336,114.22,330.84,114.38,327.77,118.2Z"/><path class="cls-36" d="M342.3,113.74a12.1,12.1,0,0,1,8.16-6.16q-2.35,3.65-4.7,7.29a42.18,42.18,0,0,1,15.75-5.56l-15,10.92a28.84,28.84,0,0,1,26.91-6.47c3.88,1.1,8.14,3,11.72,1.14,2.45-1.27,3.89-4.05,6.43-5.11,3.39-1.41,7.14.77,10.07,3s6.28,4.74,9.88,4c1.84-.37,3.4-1.55,5.16-2.17a9.2,9.2,0,0,1,11.52,6.3,12,12,0,0,0-8.52-12.32c-2.22-.61-4.84-.68-6.34-2.42-1.9-2.19-.87-5.61-1.75-8.37-1.07-3.36-5-5.2-8.49-4.92s-6.69,2.23-9.49,4.38-5.42,4.6-8.59,6.18c-7.06,3.51-15.46,2.16-23.21.72a29.86,29.86,0,0,1,19.54-1.1,32.71,32.71,0,0,0-22.12-3.38l9.52-3.49c-6.52-3.63-11.27-2.61-16.87,1.73C346,102.51,345.44,107.73,342.3,113.74Z"/><path class="cls-37" d="M364,121.55c5.19.33,10.26,2.39,15.41,1.43,3.59-.67,6.82-2.69,10.41-3.38A15.12,15.12,0,0,1,406.34,129c-4.2-3.26-9-6.7-14.31-6-4.26.59-7.61,3.76-11.26,6.05s-8.78,3.61-12,.72a25.42,25.42,0,0,0,18,1.83,31.38,31.38,0,0,1-24.65.91,35.59,35.59,0,0,0,15.88,6.1A32,32,0,0,1,350.65,133l12.2-3-12.53-.76L366.27,125c-5.64,1.5-11.49-.6-17.19.27,3.77-.57,7.31-3,11.24-3.6A18.18,18.18,0,0,1,364,121.55Z"/><path class="cls-38" d="M439.57,125.77c-.53,2.57-1.65,5.14-.55,7.39,1.45,3,5.93,2.56,8.59,4.55,2.45,1.85,2.85,5.44,2.14,8.43s-2.28,5.72-3,8.69-.46,6.57,1.91,8.52a8,8,0,0,1-6.41-6.67,19.14,19.14,0,0,1,.7-6,10,10,0,0,0-.22-6c-.84-1.85-3.11-3.2-5-2.37,2,.6,2.87,3.05,2.6,5.12s-1.32,3.93-1.93,5.93-.68,4.4.77,5.9c-2.84-.06-4.24-3.56-4.19-6.39s.75-5.92-.75-8.33c-1-1.58-2.72-2.5-4.18-3.66a14.22,14.22,0,0,1-4.87-14,14.26,14.26,0,0,0,6,10.45,12.57,12.57,0,0,1-2.16-10,16.13,16.13,0,0,0,5.71,9.28,21.64,21.64,0,0,1-3.09-12.05l3.49,5.36c-.94-1.44.13-4.1.19-5.58a15.8,15.8,0,0,0-1.79-8.67c.35.62,3,1.49,3.68,2.2a9.32,9.32,0,0,1,2.4,4.27A7.82,7.82,0,0,1,439.57,125.77Z"/><path class="cls-39" d="M393.08,100.19a28.23,28.23,0,0,1-28.68,6.57c5,3.17,10.47,4.44,16.16,2.74S390.63,105.6,393.08,100.19Z"/><path class="cls-39" d="M331.87,117.1a7.19,7.19,0,0,0-4.77,8A16.58,16.58,0,0,1,331.87,117.1Z"/><path class="cls-39" d="M446.84,140.12c1.09,2.12.45,4.7-.37,6.95s-1.85,4.57-1.45,6.93c-1.94-3.77.47-8.77-1.65-12.44-1-1.72-2.79-2.77-4.34-4s-3-3-2.81-5C435.78,137.24,445.06,136.64,446.84,140.12Z"/><path class="cls-39" d="M384.24,122.29a19,19,0,0,1-17.9,1.13,11.8,11.8,0,0,0,8.86,3.41A13.38,13.38,0,0,0,384.24,122.29Z"/></g></g></g></svg>