<svg xmlns="http://www.w3.org/2000/svg" xmlns:xlink="http://www.w3.org/1999/xlink" viewBox="0 0 2895.11 2772.4"><defs><style>.cls-1{isolation:isolate;}.cls-2{fill:#f4f7fa;}.cls-3{fill:#d8dee8;}.cls-4{fill:url(#linear-gradient);}.cls-5{fill:url(#linear-gradient-2);}.cls-6{fill:url(#linear-gradient-3);}.cls-14,.cls-23,.cls-34,.cls-46,.cls-7{opacity:0.3;}.cls-14,.cls-23,.cls-34,.cls-39,.cls-46,.cls-7{mix-blend-mode:multiply;}.cls-7{fill:url(#linear-gradient-4);}.cls-8{fill:url(#linear-gradient-5);}.cls-9{fill:url(#linear-gradient-6);}.cls-10{fill:url(#linear-gradient-7);}.cls-11{fill:url(#linear-gradient-8);}.cls-12{fill:url(#linear-gradient-9);}.cls-13{fill:url(#linear-gradient-10);}.cls-14{fill:url(#linear-gradient-11);}.cls-15{fill:url(#linear-gradient-12);}.cls-16{fill:url(#linear-gradient-13);}.cls-17{fill:url(#linear-gradient-14);}.cls-18{fill:url(#linear-gradient-15);}.cls-19{fill:url(#linear-gradient-16);}.cls-20{fill:url(#linear-gradient-17);}.cls-21{fill:url(#linear-gradient-18);}.cls-22{fill:url(#linear-gradient-19);}.cls-23{fill:url(#linear-gradient-20);}.cls-24{fill:url(#linear-gradient-21);}.cls-25{fill:url(#linear-gradient-22);}.cls-26{fill:url(#linear-gradient-23);}.cls-27{fill:url(#linear-gradient-24);}.cls-28{fill:url(#linear-gradient-25);}.cls-29{fill:url(#linear-gradient-26);}.cls-30{fill:url(#linear-gradient-27);}.cls-31{fill:url(#linear-gradient-28);}.cls-32{fill:url(#linear-gradient-29);}.cls-33{fill:url(#linear-gradient-30);}.cls-34{fill:url(#linear-gradient-31);}.cls-35{fill:url(#linear-gradient-32);}.cls-36{fill:url(#linear-gradient-33);}.cls-37{fill:url(#linear-gradient-34);}.cls-38{fill:url(#linear-gradient-35);}.cls-39{opacity:0.2;fill:url(#linear-gradient-36);}.cls-40{fill:url(#linear-gradient-37);}.cls-41{fill:url(#linear-gradient-38);}.cls-42{fill:url(#linear-gradient-39);}.cls-43{fill:url(#linear-gradient-40);}.cls-44{fill:url(#linear-gradient-41);}.cls-45{fill:url(#linear-gradient-42);}.cls-46{fill:url(#linear-gradient-43);}.cls-47{fill:url(#linear-gradient-44);}.cls-48{fill:url(#linear-gradient-45);}.cls-49{fill:url(#linear-gradient-46);}.cls-50{fill:url(#linear-gradient-47);}.cls-51{opacity:0.8;mix-blend-mode:soft-light;}.cls-52{fill:#fff;}.cls-53{fill:url(#linear-gradient-48);}</style><linearGradient id="linear-gradient" x1="8761.76" y1="-526.68" x2="8701.91" y2="-1475.79" gradientTransform="translate(-1130.74 -6872.14) rotate(70.65)" gradientUnits="userSpaceOnUse"><stop offset="0" stop-color="#ffc444"/><stop offset="1" stop-color="#f36f56"/></linearGradient><linearGradient id="linear-gradient-2" x1="2416.51" y1="1074" x2="2371.69" y2="363.22" gradientUnits="userSpaceOnUse"><stop offset="0" stop-color="#aa80f9"/><stop offset="1" stop-color="#6165d7"/></linearGradient><linearGradient id="linear-gradient-3" x1="2785.46" y1="1821.39" x2="2200.83" y2="982.08" xlink:href="#linear-gradient-2"/><linearGradient id="linear-gradient-4" x1="2803.55" y1="2119.96" x2="1898.06" y2="820.01" xlink:href="#linear-gradient-2"/><linearGradient id="linear-gradient-5" x1="-2859.67" y1="1245.4" x2="-2818.67" y2="611.69" gradientTransform="matrix(-0.78, 0.63, 0.63, 0.78, -1450.43, 775.28)" xlink:href="#linear-gradient"/><linearGradient id="linear-gradient-6" x1="-706.03" y1="778.58" x2="-781.02" y2="588.11" gradientTransform="matrix(-1, 0.08, 0.08, 1, 1532.09, 96.51)" gradientUnits="userSpaceOnUse"><stop offset="0" stop-color="#444b8c"/><stop offset="1" stop-color="#3e4177"/></linearGradient><linearGradient id="linear-gradient-7" x1="-2936.26" y1="1240.45" x2="-2895.25" y2="606.73" gradientTransform="matrix(-0.78, 0.63, 0.63, 0.78, -1450.43, 775.28)" xlink:href="#linear-gradient"/><linearGradient id="linear-gradient-8" x1="2300.54" y1="1846.06" x2="2688.77" y2="1846.06" gradientTransform="matrix(1, 0, 0, 1, 0, 0)" xlink:href="#linear-gradient"/><linearGradient id="linear-gradient-9" x1="1849.77" y1="1728.19" x2="2586.13" y2="1728.19" gradientTransform="translate(-137.28 -83.32) rotate(1.86)" xlink:href="#linear-gradient"/><linearGradient id="linear-gradient-10" x1="2481.18" y1="1487.46" x2="2279.53" y2="2074.57" gradientUnits="userSpaceOnUse"><stop offset="0" stop-color="#444b8c"/><stop offset="1" stop-color="#26264f"/></linearGradient><linearGradient id="linear-gradient-11" x1="2490.63" y1="1565.8" x2="2416.75" y2="1780.91" xlink:href="#linear-gradient-10"/><linearGradient id="linear-gradient-12" x1="2303.29" y1="1430.08" x2="2104.01" y2="2010.27" xlink:href="#linear-gradient-10"/><linearGradient id="linear-gradient-13" x1="2409.77" y1="1319.5" x2="2342.04" y2="245.41" gradientTransform="matrix(1, 0, 0, 1, 0, 0)" xlink:href="#linear-gradient"/><linearGradient id="linear-gradient-14" x1="2194.73" y1="1129.93" x2="2148.57" y2="397.93" xlink:href="#linear-gradient-2"/><linearGradient id="linear-gradient-15" x1="1837.77" y1="2066.58" x2="1816.46" y2="1728.65" gradientTransform="translate(-137.28 -83.32) rotate(1.86)" xlink:href="#linear-gradient-10"/><linearGradient id="linear-gradient-16" x1="-2077.39" y1="-2382.44" x2="-2099.21" y2="-2728.48" gradientTransform="translate(5671.69 1650.54) rotate(-60.76)" xlink:href="#linear-gradient-10"/><linearGradient id="linear-gradient-17" x1="1759.68" y1="1047.89" x2="2067.96" y2="1243.23" gradientUnits="userSpaceOnUse"><stop offset="0" stop-color="#311944"/><stop offset="1" stop-color="#a03976"/></linearGradient><linearGradient id="linear-gradient-18" x1="1497.75" y1="1663.16" x2="1853.05" y2="1888.3" xlink:href="#linear-gradient-17"/><linearGradient id="linear-gradient-19" x1="1709.67" y1="1382.88" x2="1642.54" y2="1738.2" xlink:href="#linear-gradient-2"/><linearGradient id="linear-gradient-20" x1="1737.2" y1="1338.52" x2="1702.6" y2="1521.62" xlink:href="#linear-gradient-2"/><linearGradient id="linear-gradient-21" x1="1444.69" y1="1661.95" x2="2281.13" y2="2191.98" xlink:href="#linear-gradient-17"/><linearGradient id="linear-gradient-22" x1="1421.68" y1="598.02" x2="1701.28" y2="775.19" gradientTransform="matrix(1, 0, 0, 1, 0, 0)" xlink:href="#linear-gradient-6"/><linearGradient id="linear-gradient-23" x1="1642.36" y1="702.12" x2="1759.33" y2="776.24" gradientTransform="matrix(1, 0, 0, 1, 0, 0)" xlink:href="#linear-gradient-6"/><linearGradient id="linear-gradient-24" x1="1402.62" y1="1087.84" x2="1839.82" y2="1087.84" gradientUnits="userSpaceOnUse"><stop offset="0" stop-color="#ff9085"/><stop offset="1" stop-color="#fb6fbb"/></linearGradient><linearGradient id="linear-gradient-25" x1="1602.93" y1="853.42" x2="1756.09" y2="853.42" xlink:href="#linear-gradient-17"/><linearGradient id="linear-gradient-26" x1="1351.34" y1="1.92" x2="1705.31" y2="789.2" xlink:href="#linear-gradient-17"/><linearGradient id="linear-gradient-27" x1="1554.82" y1="1353.63" x2="1487.69" y2="1708.95" xlink:href="#linear-gradient-2"/><linearGradient id="linear-gradient-28" x1="2050.61" y1="1012.28" x2="1827.18" y2="1493.3" xlink:href="#linear-gradient-17"/><linearGradient id="linear-gradient-29" x1="1907.7" y1="2255" x2="1829.36" y2="2423.66" xlink:href="#linear-gradient-2"/><linearGradient id="linear-gradient-30" x1="1305.29" y1="1942.67" x2="1220.18" y2="2125.92" xlink:href="#linear-gradient-2"/><linearGradient id="linear-gradient-31" x1="216.33" y1="-83.36" x2="2223.38" y2="1811.37" xlink:href="#linear-gradient-24"/><linearGradient id="linear-gradient-32" x1="1327.31" y1="1013.6" x2="1628.44" y2="1204.42" xlink:href="#linear-gradient-17"/><linearGradient id="linear-gradient-33" x1="1021.88" y1="2281.51" x2="1064.1" y2="904.04" gradientTransform="matrix(1, 0, 0, 1, 0, 0)" xlink:href="#linear-gradient"/><linearGradient id="linear-gradient-34" x1="1301.27" y1="2054.64" x2="1213.19" y2="2327.52" gradientUnits="userSpaceOnUse"><stop offset="0" stop-color="#311944"/><stop offset="1" stop-color="#6b3976"/></linearGradient><linearGradient id="linear-gradient-35" x1="976.39" y1="1064.08" x2="939.77" y2="2048.69" gradientUnits="userSpaceOnUse"><stop offset="0" stop-color="#ab316d"/><stop offset="1" stop-color="#792d3d"/></linearGradient><linearGradient id="linear-gradient-36" x1="1089.46" y1="1569.02" x2="848.18" y2="1751.67" xlink:href="#linear-gradient-35"/><linearGradient id="linear-gradient-37" x1="-442.19" y1="1787.13" x2="-402.76" y2="500.65" gradientTransform="translate(741.39 317.48) rotate(-9.58)" xlink:href="#linear-gradient"/><linearGradient id="linear-gradient-38" x1="-780.19" y1="1253.14" x2="-869.17" y2="1528.79" gradientTransform="translate(741.39 317.48) rotate(-9.58)" xlink:href="#linear-gradient-34"/><linearGradient id="linear-gradient-39" x1="766.57" y1="1056.67" x2="729.99" y2="2040.12" xlink:href="#linear-gradient-35"/><linearGradient id="linear-gradient-40" x1="1291" y1="1337.26" x2="1213.27" y2="104.63" gradientTransform="matrix(1, 0, 0, 1, 0, 0)" xlink:href="#linear-gradient"/><linearGradient id="linear-gradient-41" x1="965.53" y1="1153.05" x2="478.39" y2="1521.78" gradientUnits="userSpaceOnUse"><stop offset="0" stop-color="#444b8c"/><stop offset="0.18" stop-color="#3f4481"/><stop offset="1" stop-color="#26264f"/></linearGradient><linearGradient id="linear-gradient-42" x1="921.96" y1="969.57" x2="967.62" y2="748.69" gradientTransform="matrix(1, 0, 0, 1, 0, 0)" xlink:href="#linear-gradient"/><linearGradient id="linear-gradient-43" x1="917.4" y1="1110.22" x2="441.8" y2="1470.23" xlink:href="#linear-gradient-41"/><linearGradient id="linear-gradient-44" x1="12946.61" y1="-263.42" x2="12883.92" y2="-422.65" gradientTransform="matrix(-1, -0.02, -0.02, 1, 13860.24, 1421.18)" xlink:href="#linear-gradient-34"/><linearGradient id="linear-gradient-45" x1="-12178.55" y1="-1150.48" x2="-12181.44" y2="-918.22" gradientTransform="matrix(1, -0.04, 0.04, 1, 13195.12, 1433.08)" xlink:href="#linear-gradient"/><linearGradient id="linear-gradient-46" x1="643.98" y1="1376.84" x2="566.25" y2="144.21" gradientTransform="matrix(1, 0, 0, 1, 0, 0)" xlink:href="#linear-gradient"/><linearGradient id="linear-gradient-47" x1="4371.85" y1="1627.75" x2="4026.78" y2="4299.21" gradientTransform="matrix(-1, 0, 0, 1, 4715.16, 0)" xlink:href="#linear-gradient-24"/><linearGradient id="linear-gradient-48" x1="4165.24" y1="2031.96" x2="3942.49" y2="3756.43" gradientTransform="matrix(-1, 0, 0, 1, 4715.16, 0)" xlink:href="#linear-gradient-2"/></defs><title>sports</title><g class="cls-1"><g id="Layer_2" data-name="Layer 2"><g id="Illustration"><path class="cls-2" d="M1208.32,2738.13C490.12,2629.37-93.55,1950.32,12.49,1195.58,103,551.9,667.29,51,1344,3.68q73.5-5.16,148.6-3.05c377.53,10.91,713,161.91,961,390.42C2700.6,618.46,2861,922.63,2890.23,1241.74,2968,2090.77,2101.61,2873.42,1208.32,2738.13Z"/><path class="cls-3" d="M2823.3,2250.44S799.23,1530.84,1177.47,1361.5c349.9-156.64,1147.33-429.4,748.8-559.68C1510,665.72,767,564.29,767,564.29s728.69,290.57,574.18,298c-158.47,7.59-1912.64,415.35-1108.91,1229.44,315.29,319.36,658.54,635.21,1122.94,676.72,270,24.14,538.58-67.16,796.18-133.06C2151.45,2635.37,3069.39,2400.54,2823.3,2250.44Z"/><path class="cls-4" d="M2593.85,1405.14a40.85,40.85,0,0,0,10.51-15.42,46.4,46.4,0,0,0,3.55-13.32c2.33-27.7-35-26.49-42.6-37.34-8.62-12.38-31.71-6.71-31.71-6.71l-111.28-115.27c-20.52-22.89-31.82-31.92-38.05-40.41a33.51,33.51,0,0,1-6.05-14.07c-4.85-25.22,11.09-48,35.85-78.95,79.29-99.36,96.59-87.63,117.42-131.69,29.3-61.91-32.89-117.51-62.94-130.28C2431,805.78,2421.85,856,2353.85,946c-93,123.11-139.59,184.74-119.58,245.44,11.2,34,44.25,63.48,81.62,86.3l.16.08c-.1,0,.13.75.13.75l.33-.48a444.42,444.42,0,0,0,70,34.22c.16.08.36.14.52.22,55.24,27.72,123.83,64,132.39,77.36C2531.65,1409.07,2571.51,1425.36,2593.85,1405.14Z"/><path class="cls-5" d="M2505.4,813.21s-150.31-110.42-234.86,194.08c134.9,40.67,262.88,75.77,262.88,75.77S2582.83,852.42,2505.4,813.21Z"/><path class="cls-6" d="M2537.68,1152.63c-24.83,105.13-49.87,115.69-44,179.16a273.5,273.5,0,0,0,5.9,35.63c7.92,34,17.93,55.86,4,78.4-12.37,20-35.58,27.57-86.27,35.3-3.53.53-7.18,1.06-10.83,1.58-1.91.28-3.86.53-5.81.81-159.14,22.14-238.68,33.24-264.67-5.67-10.8-16.11-6.06-29.75.83-83,7.18-55.5,18.26-141,12-196.65-13.83-123.87-95.9-152.36-88.51-245.27a147.65,147.65,0,0,1,11.29-46.39c24.91-58.69,80.83-85.37,85-87.51,34.71-17.81,81.25-20.2,174.33-24.94,75.27-3.84,113.46-5.42,141.45,10.49,54.21,30.84,69.58,94.76,78.63,132.41C2570,1015.53,2554.16,1082.68,2537.68,1152.63Z"/><path class="cls-7" d="M2503.63,1445.82c-12.37,20-35.58,27.57-86.27,35.3-3.53.53-7.18,1.06-10.83,1.58-1.91.28-3.86.53-5.81.81-159.14,22.14-238.68,33.24-264.67-5.67-10.8-16.11-6.06-29.75.83-83,7.18-55.5,18.26-141,12-196.65-13.83-123.87-95.9-152.36-88.51-245.27a147.65,147.65,0,0,1,11.29-46.39c126.62,55,210.44,197.63,189.81,271.74-6.73,24.13-30.93,42.18-47.78,100.92-3.62,12.67-27.86,59.26,5.72,81.49,19.39,12.83,61.87-9,109-12.15,81.63-5.5,67.43,70.44,120.77,52.18,5-1.74,28.19-17.08,50.41-33.27C2507.53,1401.38,2517.54,1423.28,2503.63,1445.82Z"/><path class="cls-8" d="M2326.12,700.26s-1.56,34.68-12.33,60.66c-9.73,23.47-60.91,38.23-71.28,43.47S2261.94,825,2291.88,828s115.42-3.79,130.84-15.14-12.39-10.49-33.76-18.34-33.72-49.63-29.95-68.6S2326.12,700.26,2326.12,700.26Z"/><path class="cls-9" d="M2373.47,687.68c15.53-15.26,17.7-17,19.39-22.32,6.79-21.17-9.63-50.17-31.17-57.31-1.12-.37-15.57-5-21.08,1.28-4.68,5.32,2.21,12.67-1.07,22.92-3.07,9.61-11.39,10.33-26.82,22.92-12.71,10.37-20.61,16.82-22.43,25.89-3.76,18.69,18.88,45.79,38.91,45.05C2336.41,725.85,2338.37,722.17,2373.47,687.68Z"/><path class="cls-10" d="M2331.16,729s16.51,18.7,41.67,12.52c22.52-5.54,16.77-57.22.29-65.48-5.5-2.76-15.49-2.53-23,1.09-4.44,2.14-5.67,4.36-13,7.72-6.75,3.09-8.89,2.66-10.71,4.84-2.27,2.72-3.25,8.58,3.87,22.73-5.13-3.63-10.65-4.39-14-2a7.87,7.87,0,0,0-2.51,3.5C2311.6,720.33,2318.26,726.83,2331.16,729Z"/><path class="cls-11" d="M2686.06,1793.71c-29-104.71-191.41-332.33-191.41-332.33L2300.54,1648s136.79,129.75,217.63,159.34-76.69,118.36-45.6,409.72l29,13.66S2715.07,1898.42,2686.06,1793.71Z"/><path class="cls-12" d="M2175.68,1477.37s-119.82,112.24-109.92,212.1-109.71,71.09-180.46,89.53-236.61,131.25-236.61,131.25l9.74,37.65s464.3-55.42,504.86-89.36S2405,1571.92,2396.8,1553,2175.68,1477.37,2175.68,1477.37Z"/><path class="cls-13" d="M2471.67,1799.74c-8.31-1-164-123.51-164-123.51s-2-40.23-11.71-103.3c-5.77-37.69-14.28-83.61-26.7-134,79.72-9.67,230.66,12,230.66,12s97.2,122.1,137.1,171.83c10.5,13.12,17.47,21.63,18.35,22.3C2659.53,1648.2,2541.21,1753,2471.67,1799.74Z"/><path class="cls-14" d="M2471.67,1799.74c-8.31-1-164-123.51-164-123.51s-2-40.23-11.71-103.3c11.37-5.81,25.37-10.87,42.51-15,0,0,115.54-48.45,116.91,24.21s18,138.41,63,99.64c31.14-26.78,83.41-55.55,118.66-59,10.5,13.12,17.47,21.63,18.35,22.3C2659.53,1648.2,2541.21,1753,2471.67,1799.74Z"/><path class="cls-15" d="M2144.73,1471.74s-107.34,168.5-103.14,236.31c108,103.8,193.78,124.55,193.78,124.55s220-300.73,220-340.43C2373.76,1428.51,2196.62,1422.25,2144.73,1471.74Z"/><path class="cls-16" d="M2699.93,1077.52a40.71,40.71,0,0,0-11.07-15,46.09,46.09,0,0,0-11.39-7.76c-25.36-11.38-36.6,24.28-49.35,27.81-14.53,4-16.84,27.69-16.84,27.69L2465.65,1177c-28.4,11.78-40.67,19.44-50.74,22.51a33.37,33.37,0,0,1-15.27,1c-25.41-3.78-41.6-26.36-62.61-60-67.46-107.73-63.44-134.64-98.1-168.89-48.7-48.16-131.61-69.08-153.61-45-27.45,30.14,39.52,131.07,101.92,225.06,85.31,128.58,128,192.93,191.93,194.17,35.82.71,74.56-20.71,108.48-48.41l.12-.12c-.08.08.75.12.75.12l-.34-.46a444.62,444.62,0,0,0,55.47-54.67c.13-.12.26-.29.38-.41,44.46-42.93,101.47-95.62,116.87-99.27C2683,1137.51,2711.6,1105.29,2699.93,1077.52Z"/><path class="cls-17" d="M2135.38,848.76s-174.94,45.35,9.35,301.25c114.16-75.77,168.62-98.82,168.62-98.82S2213.23,815.3,2135.38,848.76Z"/><path class="cls-18" d="M1658.31,1951.7s0-44.82-11.41-42.53-49.26,1.45-46.55,19.51,21.57,163.59,40.37,108.85S1658.31,1951.7,1658.31,1951.7Z"/><path class="cls-19" d="M2507.45,2233.63s-39.76-22.72-42.67-11-20.07,46.22-2.88,52.87,154.47,63,114.07,17.89S2507.45,2233.63,2507.45,2233.63Z"/><path class="cls-20" d="M1768.23,885.9s36.38-12.21,71.59,89.51,142.8,331.75,41.3,316.34S1746.87,1072,1746.87,1072Z"/><path class="cls-21" d="M1740.88,1354s87.94,413,0,469.32-291.37,158.23-451.4,171l16.44-45.43s77.21-100.46,279.93-156.07-18.34-410.93-18.34-410.93Z"/><path class="cls-22" d="M1789.18,1555.28c-.32,9.44-2,16-5.37,18.55-44.43,14-97.45,54.85-139.92,13.1-6.75-6.63-13.27-15.38-19.41-26.65-44.75-82.06-20.71-214.42-20.71-214.42l142.08-5.29S1791.13,1498.84,1789.18,1555.28Z"/><path class="cls-23" d="M1789.18,1555.28c-.32,9.44-2,16-5.37,18.55-44.43,14-97.45,54.85-139.92,13.1L1634,1388.71s77.31-16.28,89.51,46.79-1.34,122,42.72,118.68A94.67,94.67,0,0,1,1789.18,1555.28Z"/><path class="cls-24" d="M1402.62,1325.6s-98.14,133.11,62.5,326.29,186.1,161.78,203.92,204.95,50.36,298.3,107.32,381.29l57,83,32.54-23.64s-94.39-489.33-129.58-558.34-115.07-378.22-115.07-378.22Z"/><path class="cls-25" d="M1633.45,686.54s9.16-69.68-55.43-72.73-66.12,13.39-81.72-27.3-97.64-105.1-128.16-37.29,54.93,35.26,56.28,84.76,10.18,94.26,66.46,75.27S1628.87,755.36,1633.45,686.54Z"/><path class="cls-26" d="M1727,743.5s31-57.3-20.51-77-97,17-103.59,46.45,15.36,67.8,66.68,71S1727,743.5,1727,743.5Z"/><path class="cls-27" d="M1838.21,1033.31c-7.9,57.49-42.48,96.22-51,106.6-26,31.69-44.72,90.12-35.08,202.7-13.58,3.17-31.44,5-52,5.69-110.55,3.87-297.54-22.7-297.54-22.7,8.05-16.19,15.86-33.2,23.27-50.94,67.46-161.08,71.93-308.53,66.12-400.84q-.93-14.16-2.08-26.57c34-11.48,140.41-42.48,241.6,6.51,25.22,12.2,64.36,31.86,88.73,76.49C1843.37,972.64,1840.73,1014.84,1838.21,1033.31Z"/><path class="cls-28" d="M1661.42,766.89s8.57,51.36-27.76,55.84l-30.73,4.32s66.4,116,113,112.83,39.75-73.51,39.75-73.51-39.38-16.32-49.55-31.33-12.72-33.56-9.16-45S1661.42,766.89,1661.42,766.89Z"/><path class="cls-29" d="M1658.44,771.24s21.22,33.27,54.67,27.06c30-5.55,25.34-81.28,4.35-93.35-7-4-20.92-5.1-31-.92-7.12,2.94-33.7,19.77-27.86,45.4-6.45-5.15-13.63-6.57-18.25-3.67a10.32,10.32,0,0,0-3.56,4.4C1633.44,758.39,1641.68,767.42,1658.44,771.24Z"/><path class="cls-30" d="M1402.62,1325.6s-97.61,141.06,29.94,307.92c70.19-7.12,79.68-6.78,81.38-15.94s-7.8-48.14,14.24-23.73,153.59,6.1,156.64-11.19-29.5-212.1-53.91-228.62S1402.62,1325.6,1402.62,1325.6Z"/><path class="cls-31" d="M1877.06,1212.41s46.79-33.57,93.58-64.08,74.26-43.7,78.32-60.5,13.23-20.2,22.38-20.2,7.46-25.09,23.74-9.49,27.12,31.19-13.23,55.27-143.69,205.22-208,176.86S1877.06,1212.41,1877.06,1212.41Z"/><path class="cls-32" d="M1832.69,2320.2c.2.2,7.11,40.21,23.69,34.15,17.63-6.44,83.41-51.2,81.37-71.88s-54.58-4.07-70.18,7.8Z"/><path class="cls-33" d="M1305,1951.52s-34.5-12.85-35.17,7.49-17,111.21,2.71,103.75,27.31-69.34,27.31-69.34Z"/><path class="cls-34" d="M1704.47,1278.85c-12.21,25.84-11.76,49.15-4.31,69.45-110.55,3.87-297.54-22.7-297.54-22.7,8.05-16.19,15.86-33.2,23.27-50.94,67.46-161.08,71.93-308.53,66.12-400.84,16.31-10.38,35-8.14,56.51,11.63,0,0,79,65.22,54.4,139.8s-68,100.38-16.44,126.13S1752,1178.52,1704.47,1278.85Z"/><path class="cls-35" d="M1574.79,918.45c-4.91-60-10.69-88.36-76.46-73.17s-263.1,141.32-268.18,180,75.27,213.59,101.71,245.13l21.87,39.68s17.8,54.89,42.72,51.37,14.92-49.19,15.06-54.28-16.41-8.79-26.08-25.57-53.57-206.11-53.57-206.11l89.9-39S1579.7,978.46,1574.79,918.45Z"/><path class="cls-36" d="M1034.9,1511.19c68.67,21.65,184.57,71.78,229.37,182.28,18.48,45.58,22.54,95.7-18.79,306.77-24.68,126-50.69,233.56-73,318.11l-19.66,4.84a502.35,502.35,0,0,1-59.64-135.85c-24.65-90.62-17.8-165.35-14.66-191.32,10.53-87.15,36.91-102.37,35.23-142.7-2.41-57.67-60.92-135.78-312.15-223.17Z"/><path class="cls-37" d="M1142.21,2313.17s-7,46.8-.06,58.1S1289,2327,1289,2327s2.26-9.11-32.79-13.31S1151.37,2299.42,1142.21,2313.17Z"/><path class="cls-38" d="M1220.32,1576.77c-11.79,35.35-55.9,75.06-81.61,98.21-28.36,25.56-75,61.48-143.51,89.72-17.65-12.33-45-31.09-79.38-52.77-36.37-23-64-38.86-86.37-52.08-37.56-22.26-60.14-37.07-84.14-65.79-25.71-30.8-58-69.45-49-105.54,17.74-70.59,189.84-115.47,308.69-64.61,50.25,21.48,61.48,47.48,148.87,83.65,39.14,16.23,60.91,21,67.58,40.77C1224.44,1557.16,1223.66,1566.8,1220.32,1576.77Z"/><path class="cls-39" d="M1220.32,1576.77c-11.79,35.35-55.9,75.06-81.61,98.21-28.36,25.56-75,61.48-143.51,89.72-17.65-12.33-45-31.09-79.38-52.77-36.37-23-64-38.86-86.37-52.08-1.83-19.82,3.94-38.82,21.24-55.5,0,0,82.39-41.7,131.21,10.17s86.38,62,113.88,11.19C1119.42,1582,1178.42,1558.91,1220.32,1576.77Z"/><path class="cls-40" d="M657,1545c-22.65,32.24-49.27,79.61-60.07,140.21-9.61,53.92-1.38,88.51-24,102.48-28,17.34-69.13-18.31-120.33-33.17-52-15.1-134.88-14.65-264.6,65.73l-2.34,16.6a1255.38,1255.38,0,0,0,261.83,90.32c164.3,36.91,215.08,13.29,237.82-1.24,35.27-22.55,50-53.25,64.9-82.37,34.85-68.17,53.45-217.77,137.13-336.84C798.87,1501.33,745.56,1550.31,657,1545Z"/><path class="cls-41" d="M208.18,1837s-26.41-38.89-38.94-42.12-75.52,137.27-75.52,137.27,4.49,8.22,32.43-13.84S210.84,1853.51,208.18,1837Z"/><path class="cls-42" d="M596.06,1484.33s-57,229.2-44.76,255c108.5,92.22,179,100.36,231.91,127.48s113.72-246.55,145-277.74-6.46-165-6.46-165S654.37,1346,596.06,1484.33Z"/><path class="cls-43" d="M1025.84,916c33.35-16.15,98,54.62,101.1,58.1,76.12,84.65,45.78,167.76,99.47,191.78,26,11.62,31.92-8.36,175.35-46.44,12.35-3.28,36.32-9.51,60.06-28.79a146.53,146.53,0,0,0,38.52-48.78c2.54-.15,32.1-1.57,37.56,11.43,5.35,12.77-15.62,32.2-26.46,42.24a158.09,158.09,0,0,1-36.19,25.34c-41.72,20.44-67.59,63.14-99.19,96.46-21.07,22.21-91.71,96.7-166.31,92.9-91.26-4.64-148.18-124.37-164.73-159.17C1001,1058.48,988.14,934.25,1025.84,916Z"/><path class="cls-44" d="M774.42,900.93c-28.08,22.47-34.45,46.94-64.5,135.79C650.75,1211.64,561.17,1504.29,575,1513.85c15.81,10.92,36.65-22,110.19-54.31C711.54,1448,813,1403.45,937,1419.3c87.86,11.23,132.87,58.09,150.45,37.87,16.61-19.1-21.27-64.13-34.34-132.37-18.58-97.08,47.4-126.12,42.41-257.83-1.46-38.67-3.41-76.66-29.55-114.4-40.15-57.94-107.47-72.3-128.72-76.84C918.26,871.68,833.56,853.61,774.42,900.93Z"/><path class="cls-45" d="M981.46,802.58a194.13,194.13,0,0,1-44.72,40.77c-35.93,23.55-61.57,22.61-62.18,31.84-1.33,20.12,119,49.66,127.25,31.43,4.39-9.65-26.4-24.24-25.27-50,.86-19.46,19.44-34.58,35.17-44.38Z"/><path class="cls-46" d="M896.75,1212.5c-24.68-65.41-100.91-63.92-140.49-114-20.81-26.34-33.93-69.93-16.27-147.68-8,19.56-16.7,46.37-30.07,85.89C650.75,1211.64,561.17,1504.28,575,1513.85c15.81,10.92,36.65-22,110.19-54.31C709,1449.11,793.72,1411.92,901,1416.3c-10.7-20.85-15.6-39.8-17.32-56.49C877.18,1296.25,916.88,1265.84,896.75,1212.5Z"/><path class="cls-47" d="M1016.29,788.12c8.07-10.2,9-28.32.24-40-7.52-10-19.69-11.74-27-12.76-21.11-2.94-48,5.27-57.77,24.53-5.77,11.41,5.57,35.68,7.33,40,2,4.93,5.78,6.69,9.24,10.46,4.78,5.23,12.28,13.54,24.5,27.43A86.34,86.34,0,0,1,978,823.57a77.46,77.46,0,0,1,10.45-16.64C999.8,793.74,1008.65,797.79,1016.29,788.12Z"/><path class="cls-48" d="M955.24,826s13.37,23.15,41.12,22c24.84-1,29.78-56.57,14.22-68.74-5.2-4.06-15.74-6-24.41-3.74-5.11,1.31-6.88,3.38-15.29,5.35-7.75,1.81-9.9.91-12.27,2.81-3,2.38-5.24,8.33-.77,24.7-4.62-4.9-10.25-6.87-14.32-5.07a8.47,8.47,0,0,0-3.38,3.15C936.52,812.7,942.13,821,955.24,826Z"/><path class="cls-49" d="M865.54,900.6c14.31,28.63-34.08,97-95.26,124.59-43.54,19.6-66.73,6.44-189.06,30.11-38.14,7.37-64.53,14.2-76.91,36.08-8.73,15.43-2.34,24.17-1.62,75,.32,23.45,0,54.59-2.36,96.79-2,35,1.77,52.78,8.7,66,13.73,26.23,34.32,31.47,34.4,51.76.07,15.28-11.55,31.56-22.53,32.14-12.87.69-23.56-20.06-31.94-38.26a157.9,157.9,0,0,1-12.83-42.27c-6.47-46-39-83.87-60.88-124.25-29.18-53.94-58.2-134.14-36.65-186.94,23.68-58,97.55-74.33,245.23-107C731.77,890.5,847.67,864.85,865.54,900.6Z"/><path class="cls-50" d="M507.91,2752.69c-134-17.21-303.93-62.46-372.18-190-16.23-30.35-32.52-89.31,8.45-111.51,37.46-20.29,85.9,1.14,113.74,27.55,20.47,19.42,36.44,62.75,59.44,76.46,33.66,20,51.78-34.67,51.08-57.26-1.59-50.5-63.7-71.17-105-82.14-68.52-18.2-148.31-33.8-144-111S199,2181.21,256.94,2215c47.73,27.83,41,87.25,73.62,122.9,29,31.67,39.05-19.74,37.11-44.94-4.2-54.74-52.33-94.33-87.75-131-40-41.48-84.28-124.92-41.6-179.76,24.56-31.56,87-39,123.83-33.62,180.51,26.06,60.82,259.66,93.64,285.72s63.87-19.56,63.79-88.93,10.53-120.54,82.93-98.34,86.18,203.41,3.51,273,5.19,145.61,27.38,95.7c16-36,30.11-130.4,76.42-140.75,77.15-17.21,76,140.33,53.8,177-31.12,51.4-101.51,62.56-140.81,106.91-11.42,12.88-37.2,44.78-27.19,63.61,14,26.27,52.94-1.83,67.25-14,32.19-27.36,76.74-120.36,122.08-58.6C840.94,2626.19,747.3,2739.23,507.91,2752.69Z"/><g class="cls-51"><path class="cls-52" d="M488.61,2738c3.15,0,5.73-1.93,5.79-5.09.05-2.73,3.78-277.15-116.19-603.88a5.73,5.73,0,0,0-7.43-3.29,5.86,5.86,0,0,0-3.44,7.51C486.57,2458,482.87,2729.93,482.82,2732.65c-.06,3.2,2.48,5.34,5.68,5.34Z"/></g><path class="cls-53" d="M439.32,2635.17c21.72-18.49,67.88,10.42,87,21.42,11.11,6.37,26.31,16.16,39.68,10.48,14-6,13.06-20.7,4.56-31.15-15.2-18.7-44.37-23.84-65.57-33-22.77-9.79-43.68-23.12-54.9-46.1-9-18.33-11-45.41-.92-63.46,27.89-49.95,68.5-11,91.2,18.82,11,14.46,35.69,39.36,54.4,22.31,19.9-18.13,2.82-50.46-12.62-64.72-20.17-18.63-44.59-31.58-66.56-47.78-19.81-14.6-40.16-35.52-27-61.41,10.19-20,35.83-31.07,57.73-29.38,50.62,3.92,58.51,77.84,91.85,106.22,11.79,10,38.59,18,52.65,8.17,14.31-10,5-33-.14-45.54-15.26-37.15-124.78-161.68-34-177.31,22.85-3.94,54.33,3.25,72.28,17.78,33.87,27.4,51.84,81.67,60.76,122.85,14,64.78,13.23,136.73-2.43,201.16-34.62,142.38-116,188.11-116,188.11-35.19,11.59-79.19,17.3-115.66,9.58-42.88-9.08-94.16-40.82-115.36-80.42C433.49,2669,425.86,2646.62,439.32,2635.17Z"/></g></g></g></svg>