<svg xmlns="http://www.w3.org/2000/svg" xmlns:xlink="http://www.w3.org/1999/xlink" viewBox="0 0 1874.01 1381.75"><defs><style>.cls-1,.cls-17,.cls-4,.cls-5{fill:none;}.cls-2{fill:#ee6f57;}.cls-3{fill:#e5ecff;}.cls-4,.cls-5{stroke:#fbc343;}.cls-17,.cls-21,.cls-25,.cls-4,.cls-5{stroke-miterlimit:10;}.cls-4{stroke-width:3.82px;}.cls-21,.cls-5{stroke-width:3.75px;}.cls-6{clip-path:url(#clip-path);}.cls-7{fill:#ffeec7;}.cls-11,.cls-21,.cls-25,.cls-8{fill:#fff;}.cls-9{fill:#e28b6d;}.cls-10{fill:#102048;}.cls-11,.cls-27{opacity:0.8;}.cls-12,.cls-15{fill:#1f3c88;}.cls-13{fill:#6f3428;}.cls-14{fill:#708cd5;}.cls-15,.cls-22{opacity:0.3;}.cls-16{fill:#f9b384;}.cls-17{stroke:#102048;}.cls-17,.cls-25{stroke-width:5px;}.cls-18,.cls-19,.cls-22{fill:#3c1c16;}.cls-19{opacity:0.15;}.cls-20{fill:#fc8879;opacity:0.5;}.cls-21{stroke:#1f3c88;}.cls-23{fill:#8cbfbe;}.cls-24{fill:#c6eae9;}.cls-25{stroke:#708cd5;}.cls-26{fill:#fbc343;}</style><clipPath id="clip-path" transform="translate(98.36)"><path class="cls-1" d="M1436.28,1008.31c-42.07,121.75-92.32,242-267.1,288.4l-755.42-8C243.53,1208.28,150.51,1049.53,135,878.26a584.25,584.25,0,0,1,10.1-171.55q4.65-22.5,11.1-44.73c39-134.55,121.63-261.4,244.5-333,78.95-46,180.15-30.8,264-7.2,75.6,21.28,149.45,51.08,227.5,60.05,62.18,7.13,125.43.8,187.8,3.25a458.25,458.25,0,0,1,66.5,7c94.23,17.7,177.75,75.48,235.08,152.73a420.18,420.18,0,0,1,49.3,85.7C1481.38,749.08,1478.36,886.56,1436.28,1008.31Z"/></clipPath></defs><title>studying</title><g id="Layer_2" data-name="Layer 2"><g id="Layer_1-2" data-name="Layer 1"><path class="cls-2" d="M1643.8,1150.64l-.48,0,1.41-24.43H1520.44l6,103.65a36.72,36.72,0,0,0,36.66,34.61h39a36.72,36.72,0,0,0,36.66-34.61l1.38-23.92c1.21.12,2.44.19,3.68.19,18.15,0,32.91-12.45,32.91-27.75S1662,1150.64,1643.8,1150.64Zm0,44a27.18,27.18,0,0,1-3-.18l1.86-32.29c.39,0,.76,0,1.15,0,11.81,0,21.41,7.29,21.41,16.26S1655.61,1194.65,1643.8,1194.65Z" transform="translate(98.36)"/><path class="cls-3" d="M1595.17,1116.83c-12.19-1.58-23.69-8.65-31.53-18.73a50.22,50.22,0,0,1-8.76-17.22c-.49-1.57-.78-3.18-1.13-4.78s-.54-3.22-.62-4.85a52.06,52.06,0,0,1,0-9.75,54,54,0,0,1,5.3-18.64,49.5,49.5,0,0,1,5.11-8.3,51.72,51.72,0,0,1,6.46-7c2.19-2,4.3-3.8,6.1-5.57a27.65,27.65,0,0,0,2.5-2.62,16.44,16.44,0,0,0,1.86-2.63,12.61,12.61,0,0,0,1.74-6,7.67,7.67,0,0,0-1.73-5.48l3.13-4.56a11.9,11.9,0,0,1,4.28,3.77,15.69,15.69,0,0,1,2.26,5.16,20.53,20.53,0,0,1-.49,10.8c-2.48,7.06-7.19,11.67-10.71,15.8a48.22,48.22,0,0,0-4.54,6c-.69,1-1.25,2.11-1.88,3.17s-1.12,2.18-1.58,3.32a48.66,48.66,0,0,0-3.76,14.2,45,45,0,0,0,6.32,28.27,53.23,53.23,0,0,0,23.09,20.32Z" transform="translate(98.36)"/><path class="cls-3" d="M1598.89,1087.75a59.73,59.73,0,0,0,12.13-14.46,48.13,48.13,0,0,0,6.19-16.49,50.87,50.87,0,0,0-.27-17.56,65.58,65.58,0,0,0-6.25-17.8l4-3.79c6.46,4.12,11.33,10.7,14.17,18a43.58,43.58,0,0,1,2.23,23.6,44.5,44.5,0,0,1-10.36,21.28,38.51,38.51,0,0,1-19.39,12.14Z" transform="translate(98.36)"/><path class="cls-4" d="M617.76,1289.16C459,1258.43,346.94,1166,294.9,1022.69c-82.78-227.88,5.91-563.81,243.21-637.61,94-29.23,209.38,23.11,305.93,22.4,135.6-1,257.55-84.22,392.26-73.61,175.37,13.81,303.57,175.38,336.46,339.31a484.64,484.64,0,0,1,3.56,171.14c-9.82,61.55-29.82,121.85-60.18,175.18-26.15,46-86.62,106.79-138.06,119Z" transform="translate(98.36)"/><path class="cls-5" d="M1042.62,1263.72C1199.48,1225,1319.34,1108,1360.67,974.17c65.73-212.89-48.71-512.43-292.31-563.45-49.48-10.37-101.63-7.75-151.83-2-82,9.48-166.12,21.39-248.76,18.76-80.37-2.57-158.31-26.19-239.3-24.37-267.69,6-428,261.66-366.56,495.75,14.51,55.32,39.15,108.81,73.64,155.26,29.71,40,95,91.25,147.5,98.9Z" transform="translate(98.36)"/><g class="cls-6"><path class="cls-7" d="M1436.28,1008.31c-42.07,121.75-92.32,242-267.1,288.4l-755.42-8C243.53,1208.28,150.51,1049.53,135,878.26a584.25,584.25,0,0,1,10.1-171.55q4.65-22.5,11.1-44.73c39-134.55,121.63-261.4,244.5-333,78.95-46,180.15-30.8,264-7.2,75.6,21.28,149.45,51.08,227.5,60.05,62.18,7.13,125.43.8,187.8,3.25a458.25,458.25,0,0,1,66.5,7c94.23,17.7,177.75,75.48,235.08,152.73a420.18,420.18,0,0,1,49.3,85.7C1481.38,749.08,1478.36,886.56,1436.28,1008.31Z" transform="translate(98.36)"/><path class="cls-8" d="M-.72,1192.67c-3.44-41.83,20-86.92,61.11-117.7,37.47-28,83.7-42.31,128.08-53.57,246.58-62.59,507-55.12,758.91-47.9,225.09,6.45,457.86,13.12,680.69-30,31.73-6.15,65.07-13.62,93.45-31.23,30.48-18.91,49.78-48.53,50.36-77.31,1.1-54-57.36-90.94-92.3-108.18-132.69-65.48-296-90.11-513.8-77.53A2461.85,2461.85,0,0,0,677,727.68c-36,9.58-72.65,20.16-108.06,30.39-126.76,36.65-257.82,74.54-391.5,74.54h-2c-36.29-.11-82.88-7.46-98.76-41.88-11.2-24.3-1.78-52,8.1-70.92,33-63.32,95.49-100.22,142.08-120,52.33-22.25,109.21-34.34,164.21-46,6.53-1.39,13.05-2.77,19.57-4.18a3706.28,3706.28,0,0,0,365-98.4c56.63-18.43,85.69-42.39,88.85-73.25,2.8-27.37-17.29-51.34-38.44-63-25.35-13.92-55.29-15.72-78.55-15.74h-.33A432.22,432.22,0,0,0,545.74,349c-22.89,12.11-45,26.51-66.34,40.44-28.27,18.45-57.51,37.52-89,51.54-60.95,27.12-133.1,37.11-214.46,29.69C113.1,465,65.21,449.56,29.53,423.56,8,407.88-10,387.64-27.35,368.07c-21.12-23.78-42.95-48.37-71-64.35l1.85-3.26c28.6,16.28,50.65,41.11,72,65.12C-7.3,385,10.54,405.08,31.74,420.53c35.12,25.59,82.39,40.78,144.51,46.45,80.7,7.36,152.24-2.53,212.6-29.39,31.24-13.9,60.35-32.88,88.51-51.25,21.43-14,43.58-28.43,66.63-40.62a436.15,436.15,0,0,1,203.2-50.25h.33c23.7,0,54.26,1.88,80.35,16.2,22.24,12.21,43.34,37.55,40.37,66.63-3.32,32.5-33.23,57.5-91.42,76.44a3713,3713,0,0,1-365.39,98.5l-19.58,4.18C337,569.08,280.33,581.13,228.32,603.24c-46,19.56-107.71,56-140.22,118.3-9.49,18.2-18.58,44.7-8,67.62,15,32.63,60.16,39.6,95.36,39.7h2c133.16,0,264-37.81,390.47-74.39,35.43-10.24,72.06-20.83,108.14-30.41a2464.81,2464.81,0,0,1,489.51-78.58c218.53-12.63,382.38,12.13,515.68,77.91C1717,741,1776.77,779,1775.63,835c-.61,30-20.58,60.85-52.14,80.42-28.91,17.94-62.64,25.51-94.7,31.72-223.24,43.23-456.22,36.56-681.52,30.09C695.66,970,435.47,962.57,189.39,1025c-44,11.17-89.81,25.31-126.75,52.94-40.11,30-63,73.84-59.62,114.39Z" transform="translate(98.36)"/></g><path class="cls-9" d="M1089.33,1194.13c51,13.08,121.07,24.8,98.74,68.41l-127.06-.13Z" transform="translate(98.36)"/><rect class="cls-10" x="461.24" y="893.71" width="274.89" height="403.01" rx="75.99"/><path class="cls-11" d="M424.09,930.87c-4.62,1.21-7.73,5.42-9.81,9.72a62.5,62.5,0,0,0-4.52,14,187.81,187.81,0,0,0-3.62,29.51,534,534,0,0,0,.62,59.74q1.69,29.88,5.36,59.61,1.74,14.88,4,29.67c1.46,9.87,3.1,19.72,5.11,29.5l-1.43.32c-2.39-9.73-4.44-19.54-6.27-29.39s-3.31-19.76-4.69-29.68q-4-29.77-5.82-59.82c-1-20-1.53-40.1-.07-60.15A184.67,184.67,0,0,1,407.29,954a65.1,65.1,0,0,1,5.2-14.31,26.94,26.94,0,0,1,4.49-6.32,13.85,13.85,0,0,1,6.78-3.93Z" transform="translate(98.36)"/><path class="cls-12" d="M471.11,957.43s7.78,157.73,56.74,331.25H661.64Z" transform="translate(98.36)"/><path class="cls-13" d="M532.49,876.9c-33.62-18.29-42.84-63.6-18.29-93q3.54-4.25,7.89-8.59c37.51-37.37,14.14-74.75,8.9-160.71S621.42,505.24,621.6,505.2c4.52-1.11,13.25-14,16.94-17.18,43.18-37.46,105.12-34.69,152.46-6.19,22.52,13.56,45.18,34.45,57.37,58.41,19.33,38,22.83,88.06,55.38,117.65,46.41,42.17,97.89,78,95.81,146-.74,24.16-6.79,49.7-21.52,69.07-12.84,16.88-32.39,28.2-50,39.13-28.68,17.75-59,33.44-91,44-31,10.21-62.36,19.39-93.79,28.14-3,.83-6,1.65-8.92,2.46Z" transform="translate(98.36)"/><path class="cls-14" d="M751.26,839.76c112.37-38.58,173.4,87.19,257.32,332.58l80.75,21.79-9.39,87.39-29.46,6.14-240.56,1Z" transform="translate(98.36)"/><rect class="cls-3" x="98.36" y="1259.72" width="1708.64" height="58.89"/><polygon class="cls-14" points="691.33 821.48 942.61 884.37 1048.19 1200.72 695.5 1211.46 672.17 977.56 691.33 821.48"/><path class="cls-15" d="M601.82,957.43c61.74,62.15,48.09,153.23,100.83,162.26,34.92,6,134.15,20.17,181.48,39.89,9.58,4,36,23.65,31.91,41.08-2.64,11.24-37.86,2.24-37.86,2.24L614.5,1176.44l-55.84-129.2Z" transform="translate(98.36)"/><path class="cls-10" d="M818.72,1185.25c1.8-2.83,39.6-10.32,43.88-9.74,14.06,1.92,21.73,12.94,25.12,21.36l-55.94,29.51Z" transform="translate(98.36)"/><path class="cls-10" d="M860.57,957.15l6.49,14.79c2.14,4.94,4.14,9.94,6.21,14.91,4,10,7.83,20.07,11.43,30.22,7.31,20.27,13.78,40.82,19.85,61.49s11.32,41.57,16.06,62.58c2.29,10.53,4.5,21.07,6.46,31.66s3.57,21.25,5,31.93l-1.39.2q-2.64-15.9-6-31.64c-2.16-10.52-4.57-21-7.05-31.44q-7.47-31.35-16.43-62.31c-5.87-20.66-12.39-41.13-19.29-61.47-3.4-10.19-7.1-20.27-10.83-30.34-1.91-5-3.75-10.07-5.72-15.07l-6-14.95Z" transform="translate(98.36)"/><path class="cls-16" d="M1061.43,1238.63s-10.57,12.5-44,.33c-15.72,1.82-45,.42-100.6-8.65,0,0,20.2,14.12,65.88,16.55,0,0-2,13.45-26,12.85-29-.73-32.32-2.48-58.72-1.38-5.4.23-17.15,0-29.88-.42-22.2-.73-47.42-1.9-47.42-1.9l-22-39.33,43.9-21c13.47-5.28,20.2-7.1,26.75-8,28.35-4,46.25-7.22,66.57-3.72C958.51,1187.78,1027.48,1210.66,1061.43,1238.63Z" transform="translate(98.36)"/><path class="cls-9" d="M869.36,1257.23l-1.23.68c-22.2-.73-47.42-1.9-47.42-1.9l-22-39.33,43.9-21c13.47-5.28,20.2-7.1,26.75-8C853.22,1194.21,840,1211.46,869.36,1257.23Z" transform="translate(98.36)"/><path class="cls-14" d="M696.54,839.33c-57.11-11.7-196.31-21.44-235.2,50.62-32,59.33,48.24,258,83,327.87,14.31,28.75,55.87,43,72,43.09l229.49-1.32c-15.44-3.58-35.23-86.42,16.74-84.08L672.54,1149a26,26,0,0,1-18.15-11.4c-2.74-4.16-5.94-9.41-7.57-15.38l-53.94-197.6Z" transform="translate(98.36)"/><polygon class="cls-8" points="1302.68 1260.91 1078.78 1260.77 1078.78 1239.65 1303.98 1239.65 1302.68 1260.91"/><polygon class="cls-10" points="1491.86 1260.91 1221.76 1260.83 1320.28 972.75 1590.37 972.84 1491.86 1260.91"/><path class="cls-8" d="M1329.46,1132.21c-8.28,13.22-23.75,18.65-35.55,12.85a17.91,17.91,0,0,1-2.05-1.13c-12-7.5-14.65-25-5.9-38.92s25.57-19.25,37.6-11.73a22.92,22.92,0,0,1,8.25,9.13C1336.11,1111,1335.56,1122.46,1329.46,1132.21Z" transform="translate(98.36)"/><path class="cls-14" d="M1329.46,1132.21c-8.28,13.22-28.62,22.83-42.88,7.11,30.93,2.81,41.35-17.45,40.76-43C1337.93,1108,1335.56,1122.46,1329.46,1132.21Z" transform="translate(98.36)"/><path class="cls-13" d="M936.05,1183.19c11.49,1.69,22.59,4.9,33.61,8.31s21.83,7.49,32.47,12a298,298,0,0,1,31.23,15c10.07,5.66,19.88,11.95,28.54,19.66l-.93,1.13a171.19,171.19,0,0,0-14.22-9.54c-4.86-3-9.87-5.75-14.94-8.37-10.14-5.28-20.51-10.12-31.12-14.42-10.47-4.61-21.24-8.54-32-12.37q-8.1-2.85-16.32-5.37c-5.46-1.71-11-3.27-16.54-4.51Z" transform="translate(98.36)"/><path class="cls-13" d="M931.6,1236.49l12.08,3.46c4,1.08,8.07,2,12.14,2.83s8.16,1.48,12.28,2.06,8.25,1,12.4,1.37l1.38.14.11,1.19a11.38,11.38,0,0,1-.45,4.46,8.13,8.13,0,0,1-2.42,3.81,9.06,9.06,0,0,1-3.93,1.91c-.69.17-1.38.2-2.06.3l-2-.06v-1.46l1.81-.27c.58-.18,1.17-.27,1.71-.48a6.83,6.83,0,0,0,2.72-1.78,5.82,5.82,0,0,0,1.42-2.74,8.67,8.67,0,0,0,.09-3.16l1.48,1.33a122.39,122.39,0,0,1-25.27-3.09,107.45,107.45,0,0,1-12.24-3.61,124,124,0,0,1-11.73-4.83Z" transform="translate(98.36)"/><path class="cls-13" d="M921.37,1207.38c9.71,1.24,19.48,2.2,29.25,3.19s19.54,2,29.31,3.57,19.38,3.32,29.05,5.08,19.32,3.54,29,5.49l2.28.46-1,2.11a28.33,28.33,0,0,1-2.49,5.2,14.34,14.34,0,0,1-2.07,2.41,26.47,26.47,0,0,1-2.53,1.79c-3.55,2.07-7.34,2.78-11,3.5a114.63,114.63,0,0,1-22.25.92c-3.69-.14-7.37-.29-11-.62s-7.34-.54-11-1c-7.32-.77-14.59-1.8-21.85-2.86l.18-1.45c7.31.6,14.58,1.41,21.88,1.84,3.65.28,7.29.51,10.94.67s7.29.29,10.93.34a129.1,129.1,0,0,0,21.61-1.27c3.44-.69,7-1.43,9.8-3.14.72-.41,1.3-.94,2-1.39a11.25,11.25,0,0,0,1.47-1.76,26.33,26.33,0,0,0,2.18-4.74l1.3,2.58c-19.28-3.63-38.54-7.52-57.85-10.86-9.6-1.75-19.35-2.93-29.08-4.23s-19.47-2.59-29.16-4.38Z" transform="translate(98.36)"/><line class="cls-17" x1="98.36" y1="1259.72" x2="1807.01" y2="1259.72"/><path class="cls-10" d="M668.44,914.2a81.72,81.72,0,0,0,27.19,12,74.55,74.55,0,0,0,29.44,1.13,61.19,61.19,0,0,0,27-11.2,62.12,62.12,0,0,0,18.72-22.75l1.34.58c-1,2.34-2.11,4.67-3.21,7s-2.73,4.37-4.1,6.56c-1.52,2.09-3.34,4-5,5.95s-3.84,3.5-5.76,5.26A61.91,61.91,0,0,1,725.68,931a74.39,74.39,0,0,1-58.12-15.66Z" transform="translate(98.36)"/><path class="cls-10" d="M602.5,957.24,615,999.83l12.34,42.64,12.2,42.68,6.06,21.36,3,10.67a78.7,78.7,0,0,0,3.3,10.3c2.75,6.45,8.31,11.23,14.6,14.51a85.71,85.71,0,0,0,20.56,6.86c7.17,1.53,14.42,2.58,21.78,3.52l22,3,44,6.09,43.94,6.32-.18,1.39-44.09-5.23-44.06-5.46-22-2.8c-7.32-.91-14.73-1.94-22-3.47a88.41,88.41,0,0,1-21.46-7.07c-6.74-3.45-13.17-8.83-16.23-16.17a17.17,17.17,0,0,1-1.07-2.73c-.31-.92-.66-1.87-.88-2.74l-1.49-5.35-3-10.69-6-21.37-11.88-42.78-11.75-42.81-11.55-42.86Z" transform="translate(98.36)"/><path class="cls-16" d="M745.23,750l11.25,96.88c3.35,28.83-27,53-57.85,45-17.61-4.57-36-16.76-55-35.08A22.36,22.36,0,0,1,636.86,843l-12-116.76Z" transform="translate(98.36)"/><path class="cls-18" d="M746.76,763.16l6.12,52.75c-24.89,3.9-60-10.09-95.58-57.35Z" transform="translate(98.36)"/><path class="cls-16" d="M808.15,680.24c-1.43,17.56-4.21,35.92-9.14,52.41-8.33,27.71-22.86,50.06-47.74,54.2C678,799,624.88,726.18,624.88,726.18l-8.52-99.12,44.23-76.51,99-2.87,48.29,57.12A473.39,473.39,0,0,1,808.15,680.24Z" transform="translate(98.36)"/><path class="cls-13" d="M614,664.72c39.33-2.93,48.39-36.18,51.08-79.27,0,0,106.55-26.39,144.37,49.35l28.69,3.11L751.26,522.6l-135,16.1-26.41,87.64Z" transform="translate(98.36)"/><path class="cls-16" d="M634.8,651.8a21.46,21.46,0,0,0-18.38-6.86c-26.13,3.16-30.67,37.77-24.7,52.49,8.94,22,33.16,28.75,33.16,28.75l20.8-22C647.34,681.27,644.74,662.76,634.8,651.8Z" transform="translate(98.36)"/><path class="cls-19" d="M635.23,752.76C649.59,793.6,693.77,908.91,621.61,906c-34.78-1.4-65.33-68.86-114.91-56.12a129.43,129.43,0,0,1,18.54-7.16Z" transform="translate(98.36)"/><path class="cls-13" d="M624.88,726.18c13.91,26.44,52.85,157.24-13.47,149.68-32-3.64-39.82-42.15-86.17-33.13Z" transform="translate(98.36)"/><path class="cls-18" d="M627.15,675.77a14.45,14.45,0,0,0-2.38-8.27,14.74,14.74,0,0,0-6.14-5.4,10,10,0,0,0-7.57-.41c-2.53.9-4.78,2.88-7,5.18l-1.61-1a15.17,15.17,0,0,1,6.88-8.07,9.11,9.11,0,0,1,2.72-1,9.63,9.63,0,0,1,2.92-.36l1.48,0,1.43.3a10.38,10.38,0,0,1,2.73.94,16.18,16.18,0,0,1,7.74,7.79,13.52,13.52,0,0,1,.62,10.6Z" transform="translate(98.36)"/><path class="cls-18" d="M767.35,661c.24,6.73,4.16,12.07,8.77,11.9s8.15-5.75,7.91-12.49-4.16-12.06-8.76-11.9S767.12,654.26,767.35,661Z" transform="translate(98.36)"/><path class="cls-18" d="M694.7,663.54c.24,6.74,4.16,12.07,8.77,11.91s8.14-5.75,7.91-12.49-4.16-12.07-8.77-11.91S694.46,656.81,694.7,663.54Z" transform="translate(98.36)"/><path class="cls-18" d="M766.43,729.58a35.68,35.68,0,0,1-12,10.2A23.48,23.48,0,0,1,738,741a40.71,40.71,0,0,1-14-7.61,65.09,65.09,0,0,1-10.83-10.93l1.51-1.56c4.15,2.86,8,5.93,12.17,8.51a49.76,49.76,0,0,0,12.63,6.27,21.22,21.22,0,0,0,13.07-.22c4.26-1.59,8.28-4.42,12.3-7.38Z" transform="translate(98.36)"/><path class="cls-18" d="M792,640.19a61.94,61.94,0,0,0-9.34-5.74,17.82,17.82,0,0,0-9.13-1.66,31.77,31.77,0,0,0-9.44,2.78c-3.27,1.42-6.47,3.33-10.14,5l-1-1a29.74,29.74,0,0,1,8-9.19,23.31,23.31,0,0,1,12.06-4.76,18.4,18.4,0,0,1,12.77,3.9,23,23,0,0,1,7.4,9.86Z" transform="translate(98.36)"/><path class="cls-18" d="M719.16,642.74a38.67,38.67,0,0,0-10.5-5.52,26.36,26.36,0,0,0-10.77-1.09A40,40,0,0,0,687.06,639c-3.63,1.5-7.18,3.44-11.14,5.33l-1-1a31.18,31.18,0,0,1,9.15-9.76,27.58,27.58,0,0,1,13.13-4.78,23.4,23.4,0,0,1,13.92,3,21.45,21.45,0,0,1,9.18,10.06Z" transform="translate(98.36)"/><path class="cls-20" d="M648.8,710.14a26.64,26.64,0,1,0,25.69-27.56A26.63,26.63,0,0,0,648.8,710.14Z" transform="translate(98.36)"/><path class="cls-20" d="M808.15,680.24c-1.43,17.56-4.21,35.92-9.14,52.41a26.66,26.66,0,0,1,5.5-52.51A29.4,29.4,0,0,1,808.15,680.24Z" transform="translate(98.36)"/><path class="cls-20" d="M737.28,655.73a1.14,1.14,0,0,1,2.23-.2c6,19.43,25.31,33.64,22.21,39.34-2.18,4-10.36,8.57-16.1,11.37a5.13,5.13,0,0,1-7.3-3.63C735.55,688.18,735.71,672.3,737.28,655.73Z" transform="translate(98.36)"/><path class="cls-18" d="M741.43,653.76a49.71,49.71,0,0,0,7.08,15.72c3.17,4.87,6.88,9.38,10.63,14.14,1,1.19,1.86,2.42,2.76,3.74a20.82,20.82,0,0,1,2.48,4.57,6.65,6.65,0,0,1,.35,3.61,7.2,7.2,0,0,1-1.7,3.1,20.28,20.28,0,0,1-3.88,3.32,63.72,63.72,0,0,1-16.86,7.57l-.83-2c2.55-1.52,5.17-3,7.64-4.57a70.14,70.14,0,0,0,7.14-4.92,20.05,20.05,0,0,0,2.79-2.7c.29-.4.62-1,.47-.78a2.79,2.79,0,0,0-.23-.79c-.78-2-2.78-4.44-4.51-6.76-3.62-4.7-7.43-9.6-10.34-15.11A39.29,39.29,0,0,1,739.26,654Z" transform="translate(98.36)"/><path class="cls-18" d="M601.59,733.44a25.06,25.06,0,0,0-2,11.89,39.85,39.85,0,0,0,2.85,11.91c3.23,7.59,7.52,15,11.29,22.68s7.22,15.76,8.76,24.48a47.46,47.46,0,0,1-.46,20,31.62,31.62,0,0,1-2.46,6.42A25.74,25.74,0,0,1,610.34,841a21.45,21.45,0,0,1-13.64,3.2c-4.77-.6-8.77-2.33-12.76-3.92s-7.85-3.39-11.71-5.12c-7.71-3.4-15.51-6.7-23.6-8.21a27.66,27.66,0,0,0-12,0,16.3,16.3,0,0,0-5.26,2.57,18,18,0,0,0-4,4.41l-1.62-1a20.25,20.25,0,0,1,4.17-5.27,18.83,18.83,0,0,1,6-3.32,30.42,30.42,0,0,1,13.29-.75c8.7,1.33,16.8,4.49,24.71,7.66l11.74,4.87c3.87,1.53,7.84,3.09,11.54,3.49a16.88,16.88,0,0,0,10.68-2.64,22.23,22.23,0,0,0,7.55-8.49,26.82,26.82,0,0,0,2.15-5.43,52,52,0,0,0,1-5.89,50.71,50.71,0,0,0-.46-12.11c-1.35-8.07-4.49-15.84-8-23.49s-7.56-15.11-10.68-23.3A43.27,43.27,0,0,1,597,745.44a26,26,0,0,1,2.93-12.84Z" transform="translate(98.36)"/><path class="cls-18" d="M602.94,510.73a141.34,141.34,0,0,1,22.27-7.54,222.22,222.22,0,0,1,23-4.73,195.17,195.17,0,0,1,23.41-2.22c3.93-.1,7.86-.08,11.8.11a84.53,84.53,0,0,1,11.74,1.51l-.27,1.86c-3.85-.12-7.67-.25-11.51,0s-7.68.34-11.51.72q-11.5,1-23,2.75c-7.63,1.11-15.23,2.5-22.81,4-3.79.73-7.55,1.57-11.3,2.47s-7.48,1.88-11.22,2.89Z" transform="translate(98.36)"/><path class="cls-18" d="M664.65,584.62a42.61,42.61,0,0,1,10-3.54c3.4-.79,6.82-1.48,10.27-1.94a154.19,154.19,0,0,1,20.82-1.31A158,158,0,0,1,747,583.42c13.44,3.77,26.46,9.68,37.63,18.25a80.68,80.68,0,0,1,25.64,32.73l-1.69.81A87.94,87.94,0,0,0,782.15,605a107.86,107.86,0,0,0-17.4-10.15,132.64,132.64,0,0,0-19-6.88,167.55,167.55,0,0,0-40.12-6.12,159.15,159.15,0,0,0-20.37.49c-6.73.6-13.63,1.47-19.76,3.93Z" transform="translate(98.36)"/><path class="cls-18" d="M193.79,957.67l25.7,8.34a5.65,5.65,0,0,1,.68,10.48L192.1,989.8l.05.38L231.41,998a2.72,2.72,0,1,1-1.06,5.34l-39.27-7.82a5.66,5.66,0,0,1-1.32-10.65l28.07-13.31,0-.37-25.7-8.33a2.73,2.73,0,0,1,1.68-5.19Z" transform="translate(98.36)"/><path class="cls-18" d="M127.42,922.26l22.82,7.4a5,5,0,0,1,.61,9.31l-24.93,11.82,0,.34,34.87,7a2.42,2.42,0,0,1-.94,4.74l-34.87-7a5,5,0,0,1-1.18-9.45l24.93-11.82,0-.34-22.82-7.4a2.42,2.42,0,1,1,1.49-4.6Z" transform="translate(98.36)"/><path class="cls-18" d="M265.19,1011.93l18.1,5.86a4,4,0,0,1,.48,7.38L264,1034.54l0,.27,27.65,5.51a1.92,1.92,0,0,1,1.5,2.26,1.9,1.9,0,0,1-2.25,1.5l-27.65-5.51a4,4,0,0,1-.93-7.49l19.77-9.37,0-.27-18.1-5.87a1.91,1.91,0,0,1,1.18-3.64Z" transform="translate(98.36)"/><rect class="cls-21" x="1390.68" y="749.81" width="128.11" height="120.11" rx="23.89"/><polygon class="cls-12" points="1454.73 893.66 1431.45 869.92 1478.02 869.92 1454.73 893.66"/><path class="cls-12" d="M1354.33,843.9a4.27,4.27,0,0,1-3.24-1.5L1327.8,815a4.25,4.25,0,1,1,6.48-5.51l19.31,22.7L1383.65,778a4.25,4.25,0,1,1,7.44,4.13l-33,59.55a4.25,4.25,0,0,1-3.3,2.18Z" transform="translate(98.36)"/><path class="cls-2" d="M168.22,1132.59c-35.67,8.45-75.24,20.16-92.16,56.13-16,34,.66,67,32.76,83,21.73,10.87,104.53,29.19,70.15,69.37-22.22,26-60.79,17.93-86.15,2.6-13.22-8-25.26,12.7-12.08,20.66,28.84,17.43,62,23.82,93.42,9.42,34.05-15.64,47.45-55.73,21.47-85.06-13.32-15-32.14-22.11-50.63-28.47-17.49-6-40.39-12.74-48.88-31.18-8-17.35,2.5-37.19,15.81-48.61,17.22-14.78,41.18-19.72,62.65-24.81,15-3.55,8.64-26.63-6.36-23.08Z" transform="translate(98.36)"/><path class="cls-2" d="M496.1,1176.36c40.56,2.36,43.47-50.46,43.47-50.46s-27.75-14.08-53.74,3.39Z" transform="translate(98.36)"/><path class="cls-18" d="M498.39,1160.36c16.15-.26,24.1-20.56,24.1-20.56s-11.91-7.28-26.9.17Z" transform="translate(98.36)"/><path class="cls-2" d="M381.57,1127.47c-28.12-29.31,10.17-65.81,10.17-65.81s28.72,12,32.31,43.08Z" transform="translate(98.36)"/><path class="cls-18" d="M391.57,1115.21c-9.82-11.88,0-30.22,0-30.22s12.65,4.14,16.52,19.63Z" transform="translate(98.36)"/><path class="cls-2" d="M439.61,1257.16a10.12,10.12,0,0,1-7.83,5.9c-27.42,4.22-34.12-3.35-34.12-3.35s-21.83,12.15-73.13-2.3a11.82,11.82,0,0,1-6.8,5.25c-7.85,2.57-38.32-.08-58.17-2.15-12-1.28-47.15,1.55-47.15,1.55-32,0-68.4-8.55-82.48-40.68-17.82-40.65.93-89.37,31.15-118.47,32.25-31.1,75.28-33.9,114.4-13.53,94.9,49.45,102.08,33.33,126.43,12.83l16.42,124.62c5.38,1.88,10.1,4.45,13.5,8a41.4,41.4,0,0,1,5.4,6.85C441.48,1248.56,441.08,1253.71,439.61,1257.16Z" transform="translate(98.36)"/><path class="cls-22" d="M374.31,1127.47c-38.05,22.36-39.3,93.2,34.16,100.11l8.41-32.12Z" transform="translate(98.36)"/><path class="cls-2" d="M506.08,1180.13c-7.72,27.15-20.47,42.7-33.55,51.35A60.44,60.44,0,0,1,439,1241.73a78.34,78.34,0,0,1-23.7-3.7c-29.1-9.15-52.88-34.65-52.88-68.15,0-42.3,30.73-74.72,69.4-74.72C476.11,1095.16,519.83,1131.71,506.08,1180.13Z" transform="translate(98.36)"/><path class="cls-22" d="M472.53,1231.48A60.44,60.44,0,0,1,439,1241.73c-.6,0-1.18,0-1.78,0a41.4,41.4,0,0,0-5.4-6.85c-3.4-3.58-8.12-6.15-13.5-8,11.88-2.42,18.75.75,18.75.75s21.88-10.87,35.4,3.85Z" transform="translate(98.36)"/><path class="cls-2" d="M431.24,1243.6c-3.85,5.54-3.16,13.25,2.2,17.35a6.6,6.6,0,0,0,3.86,1.59h38.14c1.83,0,2.8-2,3.29-4.49,1.49-7.63-1.72-15.38-7.67-20.38C458.76,1227.32,442.37,1227.57,431.24,1243.6Z" transform="translate(98.36)"/><path class="cls-18" d="M362.42,1223.1a171.69,171.69,0,0,1,23.13.67,151.82,151.82,0,0,1,22.92,3.81,84.14,84.14,0,0,1,11.14,3.62,53.8,53.8,0,0,1,10.49,5.49,27.34,27.34,0,0,1,8.25,8.76,18.2,18.2,0,0,1,1.95,11.78l-1.4-.15a17.25,17.25,0,0,0-2.71-10.36,24.67,24.67,0,0,0-7.84-7.43c-6.26-3.92-13.47-6.4-20.77-8.26a184.27,184.27,0,0,0-22.37-4.25c-7.55-1-15.17-1.76-22.79-2.28Z" transform="translate(98.36)"/><path class="cls-18" d="M235.12,1147.8a48.21,48.21,0,0,1,21.58,8.74,31.23,31.23,0,0,1,7.89,8.92,36.84,36.84,0,0,1,4.25,11.15,52.87,52.87,0,0,1,.91,11.83,81.46,81.46,0,0,1-1.47,11.67,117.72,117.72,0,0,1-7.07,22.24c-1.5,3.59-3.2,7.08-5,10.51l-.71,1.29-.38.65,0,0c.17.57-1.6-4.73-.83-2.48l.08,0,.17.07.33.13,2.64,1c1.77.68,3.56,1.29,5.35,1.89a139.38,139.38,0,0,0,22.11,5.24c7.46,1.07,15.3,1.9,22.81,3.79a60.47,60.47,0,0,1,11.09,3.78,18.55,18.55,0,0,1,5.05,3.3,6,6,0,0,1,1.73,2.77,4.43,4.43,0,0,1-.42,3.33l-1.24-.66c.75-1.51.06-3-1.27-4.18a17.21,17.21,0,0,0-4.68-2.74,58.25,58.25,0,0,0-10.82-3.15c-7.45-1.66-14.95-2.24-22.7-3.13a131,131,0,0,1-22.71-5.09c-1.85-.61-3.69-1.22-5.52-1.9l-2.72-1-.34-.14-.17-.06-.09,0c.75,2.24-1.07-3.06-.87-2.53l0,0,.33-.6.68-1.24c1.76-3.34,3.36-6.78,4.88-10.25a115.27,115.27,0,0,0,7.05-21.52,78,78,0,0,0,1.49-11.14,54.83,54.83,0,0,0-.61-11.1,31,31,0,0,0-10.7-18.76c-5.71-4.76-12.92-7.59-20.32-9.25Z" transform="translate(98.36)"/><path class="cls-18" d="M452.32,1158.08c2.67,4.92,6.29,9.32,11.12,10.83a18.57,18.57,0,0,0,7.69.65c1.34-.12,2.69-.49,4.07-.69,1.35-.39,2.71-.79,4.14-1.11l.69,1.39c-1.25.83-2.57,1.57-3.91,2.32a33.65,33.65,0,0,1-4.37,1.52,18,18,0,0,1-9.59-.23,15.64,15.64,0,0,1-7.81-5.69,18.46,18.46,0,0,1-3.53-8.58Z" transform="translate(98.36)"/><path class="cls-18" d="M408.81,1139.3c2.28,5.1,5.55,9.78,10.25,11.65a18.61,18.61,0,0,0,7.61,1.25c1.35,0,2.72-.28,4.11-.38,1.38-.28,2.77-.58,4.22-.78l.58,1.44c-1.31.73-2.69,1.37-4.08,2a35.06,35.06,0,0,1-4.48,1.17,17.82,17.82,0,0,1-9.54-1,15.65,15.65,0,0,1-7.35-6.28,18.51,18.51,0,0,1-2.85-8.83Z" transform="translate(98.36)"/><polygon class="cls-23" points="1431.16 554.57 1473.41 554.57 1439.67 336.17 1397.42 336.17 1431.16 554.57"/><polygon class="cls-24" points="1473.44 554.57 1515.69 554.57 1481.95 336.17 1439.71 336.17 1473.44 554.57"/><rect class="cls-23" x="1531.57" y="454.24" width="155.91" height="100.3"/><rect class="cls-8" x="1576.56" y="486.82" width="65.93" height="17.56"/><rect class="cls-24" x="1324.06" y="270.16" width="73.36" height="284.38"/><rect class="cls-23" x="1284.55" y="554.53" width="439.08" height="31.58"/><circle class="cls-25" cx="859.93" cy="143.64" r="141.14" transform="translate(248.66 650.14) rotate(-45)"/><polygon class="cls-10" points="1014.12 172.95 953.8 144.28 1019.7 86.23 1023 89.98 962.79 143.01 1016.26 168.44 1014.12 172.95"/><rect class="cls-24" x="258.98" y="220.75" width="281.61" height="185.35" rx="30.86"/><rect class="cls-23" x="294.61" y="267.27" width="210.35" height="17.52"/><rect class="cls-11" x="294.61" y="304.67" width="210.35" height="17.52"/><rect class="cls-11" x="294.61" y="342.06" width="210.35" height="17.52"/><polygon class="cls-26" points="330.15 593.66 290.17 562.39 370.13 562.39 330.15 593.66"/><rect class="cls-26" x="130.17" y="377.07" width="281.61" height="185.35" rx="30.86"/><g class="cls-27"><rect class="cls-8" x="189.73" y="482.84" width="27.26" height="33.69"/><rect class="cls-8" x="233.51" y="445.33" width="27.26" height="71.21"/><rect class="cls-8" x="279.23" y="461.5" width="27.26" height="55.04"/><rect class="cls-8" x="324.94" y="422.95" width="27.26" height="93.58"/></g></g></g></svg>