<svg xmlns="http://www.w3.org/2000/svg" viewBox="0 0 450 450"><defs><style>.cls-1{fill:#a0d2ff;}.cls-15,.cls-2{fill:#35312d;}.cls-2{opacity:0.1;}.cls-3{fill:#eef8ff;}.cls-4{fill:#77685d;}.cls-5{fill:#7cb5ed;}.cls-6{fill:#d6e7ed;}.cls-7{fill:#f5f5f5;}.cls-8{fill:#e2d6c3;}.cls-9{fill:#a89b91;}.cls-10{fill:#9f9387;}.cls-11{fill:#e1efff;}.cls-12{fill:#fff;}.cls-13{fill:#c6c1bd;}.cls-14{fill:#68605a;}.cls-16{fill:#8ab7dd;}.cls-17{fill:#8e8985;}.cls-18{fill:#518dc9;}.cls-19{fill:#ece6e2;}.cls-20{fill:#e28595;}.cls-21{fill:#c14266;}.cls-22{fill:#cc554c;}.cls-23{fill:#cc877b;}.cls-24{fill:#ffe4a8;}.cls-25{fill:#ffcb64;}.cls-26{fill:#ed9a2e;}</style></defs><title>gym</title><g id="Layer_2" data-name="Layer 2"><g id="Layer_1-2" data-name="Layer 1"><polygon class="cls-1" points="24.02 450 450 450 450 287.84 197.88 287.84 24.02 450"/><path class="cls-2" d="M340.44,408.42c0,11.73-42.48,21.24-94.89,21.24s-94.88-9.51-94.88-21.24,42.48-21.25,94.88-21.25S340.44,396.68,340.44,408.42Z"/><path class="cls-2" d="M444.1,373.31c0,5.12-12.77,9.28-28.51,9.28s-28.5-4.16-28.5-9.28,12.76-9.28,28.5-9.28S444.1,368.18,444.1,373.31Z"/><path class="cls-2" d="M352,342.86c0,5.13-10.27,9.28-22.94,9.28s-22.94-4.15-22.94-9.28,10.27-9.28,22.94-9.28S352,337.73,352,342.86Z"/><path class="cls-2" d="M418.89,298c0,3-30,5.39-67,5.39s-67-2.41-67-5.39,30-5.38,67-5.38S418.89,295,418.89,298Z"/><polygon class="cls-3" points="0 450 24.02 450 197.88 287.84 197.88 75.57 65.22 0 0 0 0 450"/><polygon class="cls-4" points="29.34 18 134.52 74.76 134.52 292.98 29.34 365.32 29.34 18"/><polygon class="cls-5" points="136.13 290.65 136.13 71.11 30.94 13.7 30.94 362.23 136.13 290.65"/><polygon class="cls-6" points="35.23 29.79 44.14 33.73 35.23 56.14 35.23 29.79"/><polygon class="cls-6" points="106.28 303.42 131.84 235.38 131.84 241.89 109.64 301.09 106.28 303.42"/><polygon class="cls-6" points="38.57 344.14 131.84 104.02 131.84 133.34 53.68 336.05 38.57 344.14"/><polygon class="cls-6" points="35.23 287.87 122.47 72.52 128.63 75.89 35.23 306.07 35.23 287.87"/><polygon class="cls-6" points="35.23 228.28 102.33 61.81 117.44 69.8 35.23 272.97 35.23 228.28"/><polygon class="cls-6" points="35.23 155.45 77.71 49.42 85.55 53.28 35.23 178.62 35.23 155.45"/><polygon class="cls-6" points="114.67 297.55 131.84 251.67 131.84 263.61 120.83 293.13 114.67 297.55"/><polygon class="cls-6" points="81.66 319.57 131.84 187.62 131.84 202.81 89.49 314.6 81.66 319.57"/><polygon class="cls-7" points="35.23 56.14 44.14 33.73 77.71 49.42 35.23 155.45 35.23 56.14"/><polygon class="cls-7" points="35.23 178.62 85.55 53.28 102.33 61.81 35.23 228.28 35.23 178.62"/><polygon class="cls-7" points="89.49 314.6 131.84 202.81 131.84 235.38 106.28 303.42 89.49 314.6"/><polygon class="cls-7" points="53.68 336.05 131.84 133.34 131.84 187.62 81.66 319.57 53.68 336.05"/><polygon class="cls-7" points="35.23 345.85 35.23 306.07 128.63 75.89 131.84 77.67 131.84 104.02 38.57 344.14 35.23 345.85"/><polygon class="cls-7" points="35.23 272.97 117.44 69.8 122.47 72.52 35.23 287.87 35.23 272.97"/><polygon class="cls-7" points="120.83 293.13 131.84 263.61 131.84 284.96 120.83 293.13"/><polygon class="cls-7" points="109.64 301.09 131.84 241.89 131.84 251.67 114.67 297.55 109.64 301.09"/><path class="cls-8" d="M52.21,203.07c7.39-6.82,15.66-10.25,13.9-14.38-3.63-8.5-10.14-1.78-19.81.94-4.18,1.17-7.85,2.26-11.07,3.26v23.43a37.76,37.76,0,0,0,7.22-5A119.62,119.62,0,0,0,52.21,203.07Z"/><path class="cls-8" d="M48.27,187.33c0,7.43,5.68,10.57,12.48,9,0,0,13.07-5.31,14-12.69,1.41-11.73-4.95-14-12.51-14S48.27,179.9,48.27,187.33Z"/><path class="cls-8" d="M53.63,173.79c-2.65,3.69-4.51,7.12-3.18,8.33s4.9-.57,8-4,3.11-8.33,2-9.72C59.6,167.45,56.31,170.06,53.63,173.79Z"/><path class="cls-9" d="M73.12,154.67a2.33,2.33,0,0,1,1.53,2.87l-5.35,29a2.31,2.31,0,0,1-2.45,2.12l-5.09-.94L68,153.73Z"/><path class="cls-10" d="M55.15,183.87l5.34-28.94A2.33,2.33,0,0,1,63,152.8l5.08.93-6.27,33.94-5.08-.93A2.33,2.33,0,0,1,55.15,183.87Z"/><path class="cls-8" d="M74.9,180.35c.5-5-.6-11.1-2.55-11.52s-4.41,3.29-5.49,8.29,1.67,9.78,3.53,10.48C71.72,188.1,74.4,185.45,74.9,180.35Z"/><rect class="cls-11" x="197.88" y="75.57" width="252.12" height="212.27"/><polygon class="cls-1" points="450 81.5 450 0 65.22 0 197.88 81.5 450 81.5"/><path class="cls-12" d="M408.05,211.2h-.75a3.77,3.77,0,0,0-3.78,3.77v79.24A3.77,3.77,0,0,0,407.3,298h14.38V211.2Z"/><path class="cls-13" d="M410.46,222.86a3.41,3.41,0,0,0-3.41,3.41v32.65a3.41,3.41,0,0,0,3.41,3.41h11.22V222.86Z"/><path class="cls-14" d="M409.24,241.35v1.52a5.12,5.12,0,0,0,5.12,5.12V236.22A5.13,5.13,0,0,0,409.24,241.35Z"/><path class="cls-15" d="M419.49,242.87v-1.52a5.13,5.13,0,0,0-5.13-5.13V248A5.13,5.13,0,0,0,419.49,242.87Z"/><path class="cls-13" d="M439.83,294.21V215a3.78,3.78,0,0,0-3.78-3.77H421.68V298h14.37A3.78,3.78,0,0,0,439.83,294.21Z"/><path class="cls-14" d="M436.3,258.92V226.27a3.41,3.41,0,0,0-3.41-3.41H421.68v39.47h11.21A3.41,3.41,0,0,0,436.3,258.92Z"/><path class="cls-13" d="M423.86,241.35v1.52A5.13,5.13,0,0,0,429,248V236.22A5.13,5.13,0,0,0,423.86,241.35Z"/><path class="cls-15" d="M434.11,242.87v-1.52a5.13,5.13,0,0,0-5.12-5.13V248A5.12,5.12,0,0,0,434.11,242.87Z"/><path class="cls-14" d="M421.68,207.84h-9.41a4.35,4.35,0,0,0-4.22,3.36h13.63Z"/><path class="cls-12" d="M421.68,206.17H416a2.57,2.57,0,0,0-2.56,1.67h8.27Z"/><path class="cls-16" d="M413.22,170.64a4.4,4.4,0,0,0-4.41,4.41V198.2c0,4.43,5.76,8,12.87,8V170.64Z"/><path class="cls-15" d="M421.68,211.2H435.3a4.35,4.35,0,0,0-4.22-3.36h-9.4Z"/><path class="cls-17" d="M429.94,207.84a2.57,2.57,0,0,0-2.56-1.67h-5.7v1.67Z"/><path class="cls-18" d="M434.54,198.26V175.05a4.41,4.41,0,0,0-4.41-4.41h-8.45v35.53C428.78,206.17,434.54,202.63,434.54,198.26Z"/><polygon class="cls-12" points="424.89 230.63 428.98 234.72 428.98 230.63 424.89 230.63"/><polygon class="cls-13" points="432.63 230.63 428.98 230.63 428.98 234.72 433.07 230.63 432.63 230.63"/><path class="cls-12" d="M426.89,240.88a1.94,1.94,0,1,0,0,3.88H429v-3.88Z"/><path class="cls-13" d="M433,242.82a1.94,1.94,0,0,0-1.94-1.94H429v3.88h2.09A1.94,1.94,0,0,0,433,242.82Z"/><rect class="cls-13" x="428.07" y="239.65" width="0.91" height="2.45"/><rect class="cls-15" x="428.98" y="239.65" width="0.91" height="2.45"/><polygon class="cls-12" points="426.91 234.16 426.91 239.65 428.07 239.65 428.98 239.65 428.98 234.16 426.91 234.16"/><polygon class="cls-13" points="428.98 239.65 429.89 239.65 431.05 239.65 431.05 234.16 428.98 234.16 428.98 239.65"/><rect class="cls-16" x="426.91" y="232.68" width="2.07" height="1.49"/><rect class="cls-18" x="428.98" y="232.68" width="2.07" height="1.49"/><polygon class="cls-12" points="410.29 230.63 414.37 234.72 414.37 230.63 410.29 230.63"/><polygon class="cls-19" points="418.02 230.63 414.37 230.63 414.37 234.72 418.46 230.63 418.02 230.63"/><path class="cls-12" d="M412.28,240.88a1.94,1.94,0,1,0,0,3.88h2.09v-3.88Z"/><path class="cls-19" d="M418.4,242.82a1.94,1.94,0,0,0-1.94-1.94h-2.09v3.88h2.09A1.94,1.94,0,0,0,418.4,242.82Z"/><rect class="cls-14" x="413.46" y="239.65" width="0.91" height="2.45"/><rect class="cls-15" x="414.37" y="239.65" width="0.91" height="2.45"/><polygon class="cls-12" points="412.3 234.16 412.3 239.65 413.46 239.65 414.37 239.65 414.37 234.16 412.3 234.16"/><polygon class="cls-19" points="414.37 239.65 415.28 239.65 416.44 239.65 416.44 234.16 414.37 234.16 414.37 239.65"/><rect class="cls-20" x="412.3" y="232.68" width="2.07" height="1.49"/><rect class="cls-21" x="414.37" y="232.68" width="2.07" height="1.49"/><polygon class="cls-11" points="299.83 23.56 305 55.65 220.33 55.65 185 23.56 299.83 23.56"/><polygon class="cls-12" points="225.38 52.8 297 52.8 290.01 27.77 202.38 27.77 225.38 52.8"/><path class="cls-14" d="M295.56,279.22c-1.71,0-3.1.85-3.1,1.9s1.39,1.9,3.1,1.9h52.32v-3.8Z"/><path class="cls-15" d="M403.3,281.12c0-1.05-1.38-1.9-3.09-1.9H347.88V283h52.33C401.92,283,403.3,282.17,403.3,281.12Z"/><path class="cls-14" d="M310.58,265v32.25a2.26,2.26,0,0,0,2.26,2.27V262.72A2.27,2.27,0,0,0,310.58,265Z"/><path class="cls-15" d="M315.11,297.24V265a2.27,2.27,0,0,0-2.27-2.27v36.79A2.26,2.26,0,0,0,315.11,297.24Z"/><path class="cls-22" d="M306,267.23V295a2.26,2.26,0,0,0,2.27,2.27V265A2.27,2.27,0,0,0,306,267.23Z"/><path class="cls-15" d="M310.58,295V267.23a2.27,2.27,0,0,0-2.27-2.27v32.31A2.27,2.27,0,0,0,310.58,295Z"/><path class="cls-5" d="M301.5,269.47v23.29a2.26,2.26,0,0,0,2.27,2.27V267.2A2.26,2.26,0,0,0,301.5,269.47Z"/><path class="cls-15" d="M306,292.76V269.47a2.27,2.27,0,0,0-2.27-2.27V295A2.27,2.27,0,0,0,306,292.76Z"/><path class="cls-14" d="M299.23,269.32a2.27,2.27,0,0,0-2.27,2.27v19.06a2.27,2.27,0,0,0,2.27,2.26Z"/><path class="cls-15" d="M301.5,290.65V271.59a2.27,2.27,0,0,0-2.27-2.27v23.59A2.27,2.27,0,0,0,301.5,290.65Z"/><path class="cls-14" d="M385,265v32.25a2.27,2.27,0,0,1-2.27,2.27V262.72A2.27,2.27,0,0,1,385,265Z"/><path class="cls-15" d="M380.46,297.24V265a2.27,2.27,0,0,1,2.27-2.27v36.79A2.27,2.27,0,0,1,380.46,297.24Z"/><path class="cls-22" d="M389.54,267.23V295a2.27,2.27,0,0,1-2.27,2.27V265A2.27,2.27,0,0,1,389.54,267.23Z"/><path class="cls-15" d="M385,295V267.23a2.27,2.27,0,0,1,2.27-2.27v32.31A2.27,2.27,0,0,1,385,295Z"/><path class="cls-5" d="M394.08,269.47v23.29a2.27,2.27,0,0,1-2.27,2.27V267.2A2.27,2.27,0,0,1,394.08,269.47Z"/><path class="cls-15" d="M389.54,292.76V269.47a2.26,2.26,0,0,1,2.27-2.27V295A2.26,2.26,0,0,1,389.54,292.76Z"/><path class="cls-14" d="M396.35,269.32a2.26,2.26,0,0,1,2.26,2.27v19.06a2.26,2.26,0,0,1-2.26,2.26Z"/><path class="cls-15" d="M394.08,290.65V271.59a2.26,2.26,0,0,1,2.27-2.27v23.59A2.26,2.26,0,0,1,394.08,290.65Z"/><rect class="cls-23" x="329.05" y="335.08" width="16.53" height="3.53"/><rect class="cls-22" x="312.2" y="335.07" width="16.85" height="3.53"/><path class="cls-15" d="M319.28,345.53a2,2,0,0,0,2-1.94v-13.5a2,2,0,0,0-3.9,0v13.5A1.94,1.94,0,0,0,319.28,345.53Z"/><path class="cls-15" d="M323.18,345.53a1.94,1.94,0,0,0,1.94-1.94v-13.5a1.95,1.95,0,0,0-3.89,0v13.5A1.94,1.94,0,0,0,323.18,345.53Z"/><path class="cls-14" d="M315.39,343.79a1.94,1.94,0,0,0,1.94-1.94v-10a1.95,1.95,0,0,0-3.89,0v10A1.94,1.94,0,0,0,315.39,343.79Z"/><path class="cls-15" d="M338.49,345.53a1.94,1.94,0,0,1-1.95-1.94v-13.5a2,2,0,0,1,3.9,0v13.5A1.94,1.94,0,0,1,338.49,345.53Z"/><path class="cls-15" d="M334.6,345.53a1.94,1.94,0,0,1-2-1.94v-13.5a1.95,1.95,0,0,1,3.89,0v13.5A1.94,1.94,0,0,1,334.6,345.53Z"/><path class="cls-14" d="M342.38,343.79a1.94,1.94,0,0,1-1.94-1.94v-10a1.95,1.95,0,0,1,3.89,0v10A1.94,1.94,0,0,1,342.38,343.79Z"/><rect class="cls-16" x="416.03" y="364.54" width="19.34" height="4.71"/><rect class="cls-18" x="396.7" y="364.54" width="19.33" height="4.71"/><path class="cls-15" d="M406.14,378.47a2.59,2.59,0,0,0,2.59-2.59v-18a2.6,2.6,0,1,0-5.19,0v18A2.59,2.59,0,0,0,406.14,378.47Z"/><path class="cls-14" d="M401,376.15a2.59,2.59,0,0,0,2.59-2.59V360.22a2.6,2.6,0,1,0-5.19,0v13.34A2.6,2.6,0,0,0,401,376.15Z"/><path class="cls-15" d="M425.93,378.47a2.59,2.59,0,0,1-2.6-2.59v-18a2.6,2.6,0,1,1,5.19,0v18A2.59,2.59,0,0,1,425.93,378.47Z"/><path class="cls-14" d="M431.11,376.15a2.59,2.59,0,0,1-2.59-2.59V360.22a2.6,2.6,0,1,1,5.19,0v13.34A2.59,2.59,0,0,1,431.11,376.15Z"/><rect class="cls-12" x="351.91" y="297.06" width="35.95" height="11.84"/><rect class="cls-13" x="387.86" y="297.06" width="35.95" height="11.84"/><polygon class="cls-13" points="369.4 197.31 369.39 254.82 367.74 254.82 367.73 197.31 369.4 197.31"/><polygon class="cls-17" points="407.98 197.31 407.99 254.82 406.32 254.82 406.33 197.31 407.98 197.31"/><rect class="cls-15" x="361.46" y="235.89" width="52.79" height="6.65"/><rect class="cls-14" x="361.46" y="242.53" width="52.79" height="6.64"/><polygon class="cls-15" points="414.26 255.82 361.47 255.82 361.46 249.18 414.26 249.17 414.26 255.82"/><polygon class="cls-14" points="414.26 262.47 361.46 262.46 361.47 255.82 414.26 255.82 414.26 262.47"/><rect class="cls-17" x="351.91" y="202.15" width="3.32" height="106.75"/><rect class="cls-17" x="420.48" y="202.15" width="3.33" height="106.75"/><path class="cls-15" d="M330.89,234.09c.35,1,.71,2,1.07,3a164,164,0,0,1,22.26-6.3c-.22-1-.43-2.07-.65-3.11A166.8,166.8,0,0,0,330.89,234.09Z"/><path class="cls-15" d="M444.84,234.09a169.22,169.22,0,0,0-22.69-6.41c-.22,1-.44,2.07-.65,3.11a165.78,165.78,0,0,1,22.26,6.29Z"/><rect class="cls-15" x="361.46" y="262.47" width="52.79" height="6.64"/><rect class="cls-13" x="386.91" y="195.51" width="0.96" height="30.56"/><rect class="cls-17" x="387.86" y="195.51" width="0.95" height="30.56"/><rect class="cls-12" x="342.56" y="195.51" width="45.31" height="6.64" transform="translate(-0.23 0.43) rotate(-0.07)"/><rect class="cls-13" x="387.86" y="195.51" width="45.3" height="6.64"/><path class="cls-12" d="M353.57,227.68c.22,1,.43,2.07.65,3.11a165,165,0,0,1,33.64-3.47v-3.17A167.85,167.85,0,0,0,353.57,227.68Z"/><path class="cls-13" d="M422.15,227.68a167.85,167.85,0,0,0-34.29-3.53v3.17a165,165,0,0,1,33.64,3.47C421.71,229.75,421.93,228.72,422.15,227.68Z"/><polygon class="cls-15" points="419.89 327.73 354.88 327.73 369.5 284.77 404 284.77 419.89 327.73"/><path class="cls-17" d="M354.88,327.73v12.18a89.61,89.61,0,0,0,8.59,2.95V327.73Z"/><path class="cls-17" d="M411.3,327.73v15.4a89.08,89.08,0,0,0,8.59-2.85V327.73Z"/><path class="cls-24" d="M247.33,126.25c-10.35,0-18.73,8.28-18.73,21.82,0,12.06,5.11,21.83,11.08,21.83a20.68,20.68,0,0,0,4.16-.46l-11.65,6.09c-2.95-2.93-11.5-3.68-19.23-1-5.16,1.78-12,7-14.93,10.84-13.9,2.18-21.44,10.33-24.93,15.78-2.74-2.5-11.09-6-30.76-11.52-9.67-2.72-16.17-9.44-19.81-.94-1.76,4.13,6.52,7.56,13.9,14.38a119.62,119.62,0,0,0,9.76,8.22,41.47,41.47,0,0,0,12,7.31c7.86,3.21,15.55,4,20.53,2.44.11,0,.21,0,.33-.08,5.92-2.13,13.53-2.57,19.74-5.34,6.82-3,11.12-5.71,13.51-8l2.1,3.46,3.46,14.4,4.8,19.93.91,3.81h20.91c-.65-10.48-2-24.7-2-36.73,0-29.82,2.24-56.46,5.31-74.07q.62-3.56,1.28-6.6c.42-1.94.86-3.72,1.3-5.32A16.25,16.25,0,0,0,247.33,126.25Z"/><path class="cls-17" d="M296.67,150c0,7.75-6,14-13.44,14s-13.44-6.29-13.44-14,6-14.05,13.44-14.05S296.67,142.26,296.67,150Z"/><path class="cls-15" d="M297.29,150a2.75,2.75,0,0,1-2.75,2.75H283a2.75,2.75,0,0,1,0-5.5h11.58A2.75,2.75,0,0,1,297.29,150Z"/><path class="cls-25" d="M341.7,184.53c-1.88-6.73-6.11-14.74-12-22.45a46.92,46.92,0,0,0-6.85-7.15c-5-4.24-10.3-7.09-14.57-8.14a23.85,23.85,0,0,0-15.68-5.89c-6.9,0-8.25,3-8.25,6.15,0,5.22,0,13.23,10.91,9.41,1.8-.64,4-1.25,6.11-1.88,2.23,3.67,6.47,8.21,10.89,13.38,1.46,1.71,4.94,5.86,6.18,7.16a23.75,23.75,0,0,0-12.17-2.74c-6.66.45-9.31,3.08-12.93,6.5-3-3.12-6.8-5.12-12.59-5.51a22.34,22.34,0,0,0-12.61,3l-1.9-1.24-4.94-3.23-.95-11.6a21.54,21.54,0,0,0,4.42-6.41,14.75,14.75,0,0,0,1.26-5.85,24.2,24.2,0,0,0-3.49-12.68,18.61,18.61,0,0,0-12.19-8.85c-.44,1.6-.88,3.38-1.3,5.32s-.87,4.23-1.28,6.6c-3.07,17.61-5.31,44.25-5.31,74.07,0,12,1.35,26.25,2,36.73h30.88l13.56-45C329.75,203.86,343.52,191.12,341.7,184.53Z"/><polygon class="cls-25" points="293.28 404.16 313.16 404.16 298.21 327.62 266.99 323.89 275.35 334.92 274.18 355.77 293.28 388.91 293.28 404.16"/><rect class="cls-15" x="293.28" y="408.42" width="30.55" height="6.27"/><path class="cls-15" d="M297.14,405.14a3.28,3.28,0,0,0,3.28,3.28h10.25a3.27,3.27,0,0,0,3.27-3.28v-19a3.27,3.27,0,0,0-3.27-3.28H300.42a3.28,3.28,0,0,0-3.28,3.28Z"/><polygon class="cls-17" points="293.28 396.5 313.95 396.5 323.83 408.42 293.28 408.42 293.28 396.5"/><polygon class="cls-24" points="212.29 404.16 192.41 404.16 207.36 327.62 238.58 323.89 230.22 334.92 231.4 355.77 212.29 388.91 212.29 404.16"/><path class="cls-26" d="M267,206.11a1.87,1.87,0,1,1-1.87-1.79A1.84,1.84,0,0,1,267,206.11Z"/><path class="cls-26" d="M275.9,210.34c6-3.67,13.18-11.79,15.72-17.15-3.62,5-11.81,12.49-18.66,15.36-11,4.6-22.6,4.12-30.47-.45,0,0,0,3,0,3C250.88,217.25,264.44,217.28,275.9,210.34Z"/><path class="cls-17" d="M315,150a2.76,2.76,0,0,1-2.75,2.75H300.67a2.75,2.75,0,0,1,0-5.5h11.59A2.75,2.75,0,0,1,315,150Z"/><path class="cls-15" d="M330.56,150c0,7.75-6,14-13.45,14s-13.44-6.29-13.44-14,6-14.05,13.44-14.05S330.56,142.26,330.56,150Z"/><polygon class="cls-14" points="219.69 260.54 203.98 329.18 239.7 329.18 251.45 290.74 247.33 260.6 219.69 260.54"/><polygon class="cls-15" points="279.34 260.6 301.85 329.18 265.85 329.18 251.47 290.74 245.49 260.6 279.34 260.6"/><path class="cls-25" d="M227.62,206c0,1-.6,1.79-1.34,1.79s-1.34-.8-1.34-1.79.6-1.79,1.34-1.79S227.62,205.05,227.62,206Z"/><path class="cls-25" d="M220.7,208.55c-4.92-2.87-13.25-13.75-15.83-18.73,1.81,5.35,9.39,16.85,13.72,20.52,8.2,6.93,17.91,6.91,23.9.71v-3C236.86,212.66,228.56,213.15,220.7,208.55Z"/><rect class="cls-14" x="163.7" y="408.42" width="48.59" height="6.27"/><path class="cls-17" d="M200.82,405.14a3.28,3.28,0,0,1-3.28,3.28H187.29a3.28,3.28,0,0,1-3.28-3.28l3.19-8.64L184,386.13a3.28,3.28,0,0,1,3.28-3.28h10.25a3.28,3.28,0,0,1,3.28,3.28Z"/><polygon class="cls-13" points="212.29 396.5 187.2 396.5 163.7 408.42 212.29 408.42 212.29 396.5"/><polygon class="cls-12" points="223.58 249.26 219.69 260.54 252.28 260.6 251.42 249.26 223.58 249.26"/><polygon class="cls-13" points="275.37 249.26 244.49 249.26 245.49 260.6 279.34 260.6 275.37 249.26"/><path class="cls-15" d="M268.75,142.78a19.4,19.4,0,0,0-19.61-19.19,19.63,19.63,0,0,0-18,11.49l11.31,1.86,4.64,5.82-1.21,8.51,8.76-6.82,1.93,1.94.58,2.57v7.52l3,4A22.1,22.1,0,0,0,268.75,142.78Z"/><path class="cls-24" d="M140.37,187.33c0,7.43-5.68,10.57-12.47,9,0,0-13.07-5.31-14-12.69-1.42-11.73,4.94-14,12.5-14S140.37,179.9,140.37,187.33Z"/><path class="cls-14" d="M115.53,154.67a2.33,2.33,0,0,0-1.54,2.87l5.35,29a2.32,2.32,0,0,0,2.46,2.12l5.08-.94-6.27-33.94Z"/><path class="cls-15" d="M133.5,183.87l-5.35-28.94a2.33,2.33,0,0,0-2.46-2.13l-5.08.93,6.27,33.94,5.08-.93A2.34,2.34,0,0,0,133.5,183.87Z"/><rect class="cls-12" x="119.61" y="156.11" width="10.29" height="28.03" transform="translate(-28.81 25.48) rotate(-10.46)"/><path class="cls-24" d="M135,173.79c2.65,3.69,4.51,7.12,3.19,8.33s-4.91-.57-8-4-3.11-8.33-2-9.72C129,167.45,132.33,170.06,135,173.79Z"/></g></g></svg>