<?xml version="1.0" standalone="no"?>
<!DOCTYPE svg PUBLIC "-//W3C//DTD SVG 20010904//EN"
 "http://www.w3.org/TR/2001/REC-SVG-20010904/DTD/svg10.dtd">
<svg version="1.0" xmlns="http://www.w3.org/2000/svg"
 width="300.000000pt" height="200.000000pt" viewBox="0 0 300.000000 200.000000"
 preserveAspectRatio="xMidYMid meet">
<metadata>
Created by potrace 1.10, written by Peter Selinger 2001-2011
</metadata>
<g transform="translate(0.000000,200.000000) scale(0.100000,-0.100000)"
fill="#000000" stroke="none">
<path d="M1370 1804 c-8 -3 -21 -8 -29 -10 -11 -4 -11 -8 3 -22 22 -25 20 -32
-9 -32 -22 0 -25 -4 -25 -40 0 -38 1 -40 33 -40 30 -1 31 -2 13 -15 -15 -11
-16 -17 -8 -28 7 -8 9 -17 5 -21 -4 -4 -8 -17 -8 -29 0 -18 -7 -22 -40 -25
-49 -3 -85 -26 -85 -53 0 -12 23 -62 52 -111 41 -72 49 -91 37 -98 -11 -7 -11
-12 -1 -22 6 -6 12 -20 12 -29 0 -9 7 -20 16 -23 26 -10 84 -7 84 5 0 5 -8 9
-17 8 -10 -2 -29 1 -43 6 -24 9 -23 10 15 15 22 3 46 2 53 -3 6 -5 12 -6 12
-1 0 5 18 10 41 11 54 2 46 -21 -9 -25 -23 -2 -42 -8 -42 -14 0 -11 100 -2
111 10 4 4 9 19 13 35 5 19 3 27 -7 27 -9 0 3 32 35 96 67 130 63 142 -55 168
-22 5 -27 11 -22 25 3 11 0 23 -6 27 -9 5 -7 11 5 20 17 12 17 13 -3 26 -30
18 -26 25 10 20 30 -4 30 -4 27 39 -3 39 -5 44 -25 41 -25 -4 -30 7 -11 26 8
8 9 15 1 23 -12 12 -110 22 -133 13z m95 -43 c-3 -12 0 -21 10 -25 9 -3 13
-11 9 -18 -5 -8 -2 -9 10 -5 12 5 16 3 13 -5 -2 -7 -10 -12 -16 -10 -7 1 -10
-2 -7 -7 3 -5 0 -14 -8 -20 -9 -8 -11 -22 -6 -51 7 -40 7 -40 -24 -40 -47 1
-69 22 -61 59 5 23 3 33 -9 37 -9 3 -13 11 -9 18 4 6 -2 4 -12 -4 -10 -8 -16
-10 -12 -3 4 6 1 13 -5 16 -8 3 -1 9 15 16 16 6 27 18 27 30 0 23 13 29 58 30
28 1 32 -2 27 -18z m-68 -177 c-3 -3 -12 -4 -19 -1 -8 3 -5 6 6 6 11 1 17 -2
13 -5z m17 -26 c-3 -4 -12 -8 -20 -8 -8 0 -14 4 -14 8 0 4 9 8 19 8 11 0 17
-4 15 -8z m51 2 c-3 -5 -13 -10 -21 -10 -8 0 -14 5 -14 10 0 6 9 10 21 10 11
0 17 -4 14 -10z m49 -31 c-3 -5 -17 -10 -32 -10 -15 -1 5 -7 43 -13 65 -11 70
-13 67 -35 -2 -13 -19 -53 -38 -88 -19 -36 -34 -71 -34 -79 0 -8 -10 -15 -22
-15 l-23 -2 23 -4 c37 -7 25 -23 -20 -24 -77 -3 -133 3 -143 13 -7 8 -4 9 8 5
11 -4 25 -1 33 8 14 13 13 15 -7 13 -18 -2 -25 3 -29 22 -3 14 -15 43 -25 65
-18 38 -21 45 -24 63 -1 4 -5 1 -10 -6 -6 -10 -10 -7 -13 12 -4 20 -2 24 7 16
9 -8 14 -5 18 10 4 15 13 20 40 20 20 0 39 5 42 10 3 6 -3 10 -14 10 -37 0
-22 19 17 22 59 5 143 -3 136 -13z"/>
<path d="M1312 1466 c7 -8 15 -10 16 -5 2 5 7 7 11 5 4 -3 13 -1 21 5 11 6 4
9 -23 9 -32 0 -36 -2 -25 -14z"/>
<path d="M2020 1600 c-8 -14 -8 -26 0 -40 9 -17 5 -25 -24 -51 -19 -16 -38
-39 -41 -50 -4 -13 -15 -19 -34 -19 -16 0 -34 -6 -40 -14 -10 -12 -6 -19 18
-37 45 -33 89 -141 64 -158 -7 -3 -7 -15 -2 -28 8 -21 14 -23 86 -21 l78 2
-75 6 c-41 4 -73 8 -70 9 14 8 180 8 180 0 0 -17 28 -9 32 9 4 16 -4 17 -104
13 -75 -2 -108 0 -108 8 0 6 4 11 9 11 15 0 2 61 -20 97 -12 19 -19 36 -16 39
6 6 198 12 220 6 11 -3 14 -8 8 -16 -5 -6 -12 -26 -16 -43 -3 -18 -11 -33 -16
-33 -5 0 -9 -5 -9 -11 0 -5 5 -7 11 -3 8 4 9 0 4 -15 -5 -15 -2 -21 9 -21 9 0
16 8 16 18 0 39 23 95 52 128 30 33 30 35 12 49 -11 8 -25 15 -31 15 -19 0
-15 -18 5 -23 16 -4 16 -4 -1 -12 -11 -5 -24 -2 -36 9 -10 9 -22 16 -27 16 -5
0 0 -7 10 -15 24 -18 34 -16 -127 -21 -80 -2 -107 0 -104 9 2 7 11 12 20 12 9
0 17 5 18 10 0 6 10 15 22 22 15 8 17 12 7 13 -12 0 -12 2 -2 9 8 4 13 11 13
15 -1 3 1 5 4 4 2 -2 12 7 20 20 9 12 22 22 30 22 22 0 78 -59 71 -76 -4 -10
3 -14 25 -14 l30 0 -21 31 c-13 17 -33 34 -46 39 -27 11 -30 20 -12 38 9 9 9
18 0 37 -15 33 -75 36 -92 5z m68 -23 c2 -9 -6 -18 -18 -22 -25 -8 -25 -7 -34
22 -6 19 -4 21 21 19 16 -2 29 -10 31 -19z m-171 -163 c-3 -3 -12 -4 -19 -1
-8 3 -5 6 6 6 11 1 17 -2 13 -5z"/>
<path d="M860 1489 c-8 -4 -26 -10 -40 -14 -31 -7 -97 -88 -110 -135 -5 -19
-10 -92 -11 -161 -1 -145 12 -206 48 -220 25 -9 31 -34 11 -43 -10 -5 -10 -7
0 -12 22 -10 13 -52 -15 -73 -54 -40 -54 -40 -40 -61 9 -16 9 -24 -1 -40 -7
-12 -8 -20 -2 -20 14 0 13 -33 -2 -48 -9 -9 -9 -15 0 -24 7 -7 12 -22 12 -35
0 -24 7 -27 34 -17 19 7 21 24 4 24 -7 0 -14 11 -14 25 -1 14 2 25 6 25 9 0 5
38 -5 48 -13 13 19 31 46 25 18 -3 29 -1 29 6 0 6 -11 11 -24 11 -14 0 -32 9
-40 22 -14 20 -13 23 6 40 20 17 22 17 35 0 12 -15 13 -14 8 12 -2 16 0 37 6
47 6 13 6 19 -1 19 -5 0 -10 7 -10 15 0 8 5 15 11 15 5 0 -2 16 -17 35 -27 36
-26 38 26 37 39 -2 71 8 65 18 -4 6 -35 10 -70 9 -34 -1 -68 2 -75 6 -14 8
-10 211 5 235 5 8 4 11 -2 7 -6 -4 -8 3 -5 19 3 19 7 22 13 12 6 -8 7 0 3 20
-5 25 -1 41 21 73 16 22 34 38 41 35 7 -3 15 2 18 10 3 8 14 14 25 14 11 0 25
9 31 19 12 23 2 32 -20 20z"/>
<path d="M2030 1429 c0 -5 5 -7 10 -4 6 3 10 8 10 11 0 2 -4 4 -10 4 -5 0 -10
-5 -10 -11z"/>
<path d="M926 1411 c-3 -5 1 -11 9 -15 8 -3 15 -1 15 4 0 13 -18 22 -24 11z"/>
<path d="M822 1398 c3 -7 11 -13 19 -14 8 0 19 -2 26 -2 19 -3 56 -61 56 -88
0 -23 1 -24 16 -10 20 18 41 4 41 -26 0 -10 6 -18 13 -18 9 0 8 -3 -2 -9 -7
-5 -28 -4 -47 2 -32 10 -37 8 -68 -22 -39 -38 -38 -59 9 -129 15 -24 25 -48
21 -57 -4 -11 -2 -14 6 -9 8 5 9 2 5 -10 -5 -12 -3 -16 5 -14 19 7 41 -20 33
-40 -11 -28 -17 -142 -7 -142 22 0 62 -50 62 -78 0 -27 -4 -30 -54 -42 -29 -7
-59 -9 -66 -5 -9 6 -11 4 -5 -5 4 -7 2 -16 -6 -21 -27 -16 -1 -19 37 -3 25 10
55 14 86 12 l48 -5 0 31 c0 18 -5 37 -12 44 -8 8 -8 15 2 27 12 14 11 18 -1
26 -8 5 -19 9 -25 9 -24 0 -47 39 -39 67 3 15 7 39 8 53 3 36 15 50 43 50 l25
0 -31 38 c-97 118 -131 166 -128 181 4 19 55 28 71 12 16 -16 42 -13 60 7 26
28 21 55 -12 70 -29 13 -106 97 -106 117 0 5 -20 11 -44 13 -32 2 -42 0 -39
-10z m158 -365 c35 -49 36 -53 13 -53 -19 0 -55 51 -92 130 l-22 45 36 -40
c20 -22 49 -59 65 -82z"/>
<path d="M2606 1321 c7 -56 -1 -66 -57 -62 -35 2 -38 -1 -61 -46 -12 -26 -51
-76 -85 -110 -74 -74 -80 -100 -32 -150 31 -34 59 -43 59 -19 0 25 38 28 126
10 42 -8 36 -33 -29 -116 -34 -44 -83 -108 -109 -142 -26 -33 -48 -64 -48 -68
0 -3 18 -9 40 -13 50 -8 60 -23 31 -46 -22 -18 -22 -18 -1 -29 28 -15 26 -61
-3 -88 -26 -24 -42 -29 -32 -10 4 7 -1 4 -9 -6 -9 -11 -16 -23 -16 -27 0 -14
82 35 93 56 16 30 17 63 1 69 -8 3 -14 10 -14 16 0 6 51 10 138 9 l139 0 0
-60 c0 -54 3 -63 28 -82 15 -12 36 -29 46 -37 22 -18 16 -57 -10 -63 -11 -3
-7 -6 12 -11 40 -12 35 -51 -8 -74 -51 -26 -318 -32 -394 -7 -33 10 -38 51
-10 75 13 10 19 19 13 20 -6 0 -16 12 -23 26 -10 22 -9 28 6 40 17 13 16 14
-4 11 -34 -5 -37 -13 -19 -57 11 -29 12 -39 3 -37 -14 2 -15 -107 -2 -180 10
-56 23 -55 18 1 -3 29 0 45 9 48 7 3 112 5 233 5 l220 1 1 33 c1 19 5 46 9 62
6 21 4 27 -9 27 -20 0 -20 13 -1 51 19 36 14 45 -25 54 -41 9 -70 49 -70 96 0
20 5 39 12 41 7 3 6 12 -6 30 -18 28 -11 39 30 52 49 15 77 242 51 402 -22
128 -47 175 -145 272 -46 45 -88 82 -93 82 -6 0 -7 -21 -3 -49z m75 -45 c16
-9 37 -29 47 -44 9 -15 25 -36 35 -47 13 -14 17 -29 13 -54 -5 -31 -4 -32 9
-15 13 18 14 17 15 -14 0 -22 4 -31 12 -26 8 5 9 -4 6 -34 -3 -23 -2 -42 3
-44 9 -3 14 -124 10 -208 -3 -62 -38 -160 -55 -154 -6 2 -22 -12 -36 -30 l-25
-34 -95 -2 c-52 -1 -102 -2 -111 -2 -9 0 -28 11 -41 24 -13 13 -33 28 -43 34
-18 10 -16 15 30 77 28 36 56 66 63 67 6 0 12 7 12 15 0 8 5 15 10 15 6 0 10
5 10 12 0 6 11 26 25 44 30 39 32 78 5 97 -11 8 -18 16 -15 18 2 3 -8 4 -24 3
-40 -3 -82 7 -75 17 3 5 -2 9 -10 9 -8 0 -13 -6 -11 -13 3 -6 -4 -18 -15 -25
-17 -10 -21 -10 -26 3 -4 8 -14 15 -23 16 -10 0 -11 2 -4 6 10 3 10 10 2 24
-12 24 6 53 28 45 8 -3 12 -2 9 3 -3 4 9 26 28 47 18 21 35 47 39 56 4 12 12
15 23 11 10 -3 15 -2 12 3 -3 5 -2 19 3 32 7 17 14 21 31 17 17 -4 31 2 51 23
16 16 30 38 32 48 5 29 7 30 12 13 2 -8 17 -23 34 -33z"/>
<path d="M2407 973 c3 -7 6 -13 8 -13 2 0 5 6 8 13 3 8 -1 14 -8 14 -7 0 -11
-6 -8 -14z"/>
<path d="M293 1223 c-44 -3 -53 -7 -53 -23 0 -17 4 -18 25 -10 31 12 65 -6 65
-33 0 -10 4 -16 8 -13 9 5 7 -34 -4 -74 -5 -23 -4 -23 13 5 14 21 18 41 15 69
-3 27 -1 37 7 32 14 -9 14 -5 1 28 -5 14 -13 25 -17 24 -5 -1 -32 -3 -60 -5z"/>
<path d="M1266 1188 c3 -13 7 -24 8 -24 0 -1 25 -5 55 -9 38 -5 52 -4 47 4 -4
6 -3 11 3 11 5 0 13 -4 16 -10 3 -5 11 -10 18 -10 19 0 -27 29 -48 30 -11 0
-29 7 -39 15 -11 8 -31 15 -44 15 -20 0 -22 -4 -16 -22z"/>
<path d="M1530 1195 c-8 -9 -30 -15 -58 -15 -44 0 -45 -1 -26 -15 31 -21 149
-1 151 26 1 14 -5 19 -26 19 -16 0 -34 -7 -41 -15z"/>
<path d="M2165 1173 c-50 -14 -162 -13 -218 2 -23 6 -26 5 -21 -9 4 -9 18 -16
34 -16 16 0 31 -6 33 -12 4 -10 6 -10 6 0 1 9 29 12 104 12 97 0 127 8 127 32
0 10 -1 9 -65 -9z"/>
<path d="M261 1164 c0 -11 3 -14 6 -6 3 7 2 16 -1 19 -3 4 -6 -2 -5 -13z"/>
<path d="M764 1158 c-4 -13 -12 -26 -18 -30 -14 -9 -2 -20 15 -13 8 3 16 19
17 35 3 36 -4 39 -14 8z"/>
<path d="M1226 1151 c-12 -19 22 -43 68 -48 l48 -6 -4 -86 c-3 -66 -10 -100
-31 -145 -15 -32 -26 -60 -25 -61 2 -2 13 -6 25 -9 52 -16 82 88 71 244 -3 36
0 60 6 60 22 0 -31 29 -54 30 -14 0 -36 7 -50 15 -29 16 -47 19 -54 6z m124
-315 c0 -2 -7 -6 -15 -10 -8 -3 -15 -1 -15 4 0 6 7 10 15 10 8 0 15 -2 15 -4z"/>
<path d="M1567 1153 c-15 -2 -25 -8 -22 -13 3 -4 -11 -11 -30 -14 -19 -4 -37
-12 -41 -18 -5 -7 1 -9 20 -4 24 6 26 4 18 -10 -5 -9 -7 -25 -5 -35 4 -12 0
-19 -9 -19 -12 0 -13 -11 -3 -75 7 -42 16 -79 20 -83 4 -4 5 7 2 23 -6 29 -6
29 4 5 37 -84 39 -91 28 -84 -10 6 -28 -11 -29 -28 0 -7 59 0 68 8 2 1 -4 17
-14 36 -40 77 -61 254 -31 262 6 2 30 8 52 12 25 6 40 15 40 24 0 16 -22 20
-68 13z m-60 -175 c-3 -8 -6 -5 -6 6 -1 11 2 17 5 13 3 -3 4 -12 1 -19z"/>
<path d="M1885 1130 c-11 -18 16 -40 56 -46 31 -5 41 -12 46 -33 10 -39 -15
-160 -42 -209 -14 -25 -25 -46 -25 -48 0 -3 13 -3 29 -2 16 1 27 6 24 11 -3 4
-11 6 -19 3 -8 -3 -11 0 -7 10 3 8 12 13 19 10 7 -3 11 0 9 7 -3 7 2 30 10 52
l15 40 -2 -34 c-2 -21 2 -36 9 -38 10 -4 12 13 10 66 -1 39 2 71 6 71 4 0 3 8
-2 18 -6 11 -9 28 -9 38 2 18 10 20 70 22 l69 2 -6 -34 c-6 -32 13 -119 38
-173 5 -12 7 -33 3 -47 -5 -22 -3 -26 16 -26 36 0 52 14 34 29 -29 25 -70 188
-60 239 5 24 13 30 47 38 27 6 43 15 45 27 6 28 -57 22 -87 -8 -22 -24 -27
-25 -120 -21 -53 2 -107 8 -121 14 -14 6 -19 11 -12 11 7 1 10 6 7 11 -8 13
-42 13 -50 0z m122 -192 c-3 -8 -6 -5 -6 6 -1 11 2 17 5 13 3 -3 4 -12 1 -19z"/>
<path d="M245 1119 c-4 -6 -5 -12 -2 -15 2 -3 7 2 10 11 7 17 1 20 -8 4z"/>
<path d="M213 1076 c-10 -11 -9 -16 5 -21 9 -3 13 -3 9 1 -4 4 -2 13 4 21 15
17 -2 16 -18 -1z"/>
<path d="M183 1024 c-15 -16 -16 -24 -4 -24 8 0 24 30 19 35 -2 2 -9 -3 -15
-11z"/>
<path d="M1433 999 l-7 -34 -6 30 c-5 24 -8 18 -14 -35 -4 -36 -11 -80 -16
-97 -6 -25 -5 -33 5 -33 7 0 16 14 20 30 4 17 11 30 17 30 6 0 8 6 5 13 -2 6
-1 37 3 67 8 62 4 81 -7 29z"/>
<path d="M422 993 c6 -15 17 -35 24 -43 6 -8 14 -27 18 -42 3 -16 11 -28 16
-28 5 0 5 -12 -1 -30 -6 -16 -15 -30 -20 -30 -16 0 -61 -89 -56 -112 l4 -23 2
23 c0 12 6 22 11 22 6 0 10 7 10 16 0 18 44 64 61 64 6 0 9 24 8 55 -1 30 -6
55 -10 55 -4 0 -11 10 -15 23 -4 12 -9 24 -13 27 -3 3 -11 14 -17 24 -18 34
-36 33 -22 -1z"/>
<path d="M150 979 c0 -5 5 -7 10 -4 6 3 10 8 10 11 0 2 -4 4 -10 4 -5 0 -10
-5 -10 -11z"/>
<path d="M2056 971 c-4 -7 -5 -15 -2 -18 9 -9 19 4 14 18 -4 11 -6 11 -12 0z"/>
<path d="M2050 909 c0 -18 3 -29 7 -25 10 10 11 46 1 52 -4 3 -8 -9 -8 -27z"/>
<path d="M126 894 c-13 -33 -5 -66 21 -92 17 -17 28 -22 31 -14 2 7 -7 21 -20
32 -19 14 -24 27 -22 54 3 39 0 46 -10 20z"/>
<path d="M1521 854 c0 -11 3 -14 6 -6 3 7 2 16 -1 19 -3 4 -6 -2 -5 -13z"/>
<path d="M1236 781 c-3 -5 1 -14 9 -21 23 -19 18 -36 -24 -77 -48 -47 -58 -76
-37 -108 9 -13 16 -31 16 -40 0 -19 27 -19 46 0 14 13 13 15 -5 15 -12 0 -21
6 -21 15 0 8 5 15 10 15 6 0 5 6 -2 14 -7 7 -18 11 -25 9 -9 -4 -9 1 0 21 7
14 18 26 25 26 7 0 10 4 7 10 -3 5 5 15 19 21 14 7 23 15 21 20 -3 4 4 11 16
14 17 6 19 9 8 16 -11 7 -11 9 2 9 9 0 19 -6 22 -14 4 -9 14 -12 26 -9 12 3
19 8 16 12 -2 4 11 7 30 6 18 0 31 3 29 7 -3 4 -21 8 -41 8 -42 0 -113 20
-113 32 0 11 -27 10 -34 -1z"/>
<path d="M1355 780 c-3 -5 3 -10 14 -10 11 0 23 5 26 10 3 6 -3 10 -14 10 -11
0 -23 -4 -26 -10z"/>
<path d="M1410 778 c0 -4 25 -7 55 -6 29 1 52 5 49 9 -6 10 -104 7 -104 -3z"/>
<path d="M2220 773 c-82 -23 -239 -28 -285 -9 -50 21 -59 20 -41 -6 22 -32 20
-41 -18 -87 -46 -55 -50 -72 -30 -119 l17 -39 188 -1 c192 0 229 3 229 20 0 5
-8 7 -17 4 -40 -12 -238 -15 -245 -3 -5 8 -10 9 -18 1 -15 -15 -101 -6 -123
14 -11 10 -17 27 -16 47 4 40 10 50 21 34 7 -11 8 -11 6 1 -3 18 33 81 43 75
4 -3 6 3 5 12 -1 15 15 17 140 18 77 1 145 4 151 8 13 8 25 -17 17 -38 -4 -9
3 -23 15 -34 11 -10 21 -26 21 -34 0 -10 6 -14 15 -11 12 5 15 -2 15 -30 0
-20 -4 -36 -8 -36 -4 0 -8 -9 -9 -20 -3 -30 20 -24 40 11 25 45 21 63 -21 101
-28 25 -38 43 -40 70 -2 20 1 39 7 43 12 7 15 25 4 24 -5 0 -33 -8 -63 -16z"/>
<path d="M1550 770 c-19 -5 -36 -13 -38 -18 -1 -5 -13 -8 -25 -6 -12 2 -16 2
-9 -2 6 -3 10 -9 7 -14 -3 -5 1 -7 7 -6 15 3 65 16 91 23 16 4 18 0 14 -25 -3
-17 1 -41 8 -55 11 -22 10 -26 -9 -36 -18 -10 -17 -10 12 -5 18 3 32 1 32 -4
0 -6 10 -8 23 -5 17 4 19 3 7 -6 -8 -5 -15 -16 -16 -23 -3 -32 -5 -37 -21 -41
-15 -4 -15 -5 2 -6 17 -1 18 -3 5 -11 -13 -9 -13 -10 0 -10 22 0 33 11 54 52
23 45 13 62 -45 79 -23 7 -36 16 -32 23 4 6 6 26 4 44 -1 18 3 40 9 48 10 12
8 14 -16 13 -16 -1 -45 -5 -64 -9z"/>
<path d="M190 758 c0 -18 18 -34 28 -24 3 4 -2 14 -11 23 -16 16 -17 16 -17 1z"/>
<path d="M1314 688 c-3 -4 3 -5 12 -1 12 4 15 3 10 -6 -6 -9 -1 -12 20 -9 15
2 29 8 31 13 4 12 -66 15 -73 3z"/>
<path d="M430 680 c-20 -12 -5 -24 16 -12 9 5 12 12 7 15 -5 3 -15 2 -23 -3z"/>
<path d="M1993 675 c0 -8 2 -15 4 -15 3 0 11 7 19 15 14 13 13 15 -4 15 -10 0
-19 -7 -19 -15z"/>
<path d="M1538 673 c7 -3 16 -2 19 1 4 3 -2 6 -13 5 -11 0 -14 -3 -6 -6z"/>
<path d="M1290 621 c-22 -7 -19 -8 20 -13 50 -5 74 1 44 13 -23 9 -32 9 -64 0z"/>
<path d="M407 613 c-10 -9 -9 -23 1 -23 5 0 9 7 9 15 0 17 -1 18 -10 8z"/>
<path d="M1488 613 c6 -2 18 -2 25 0 6 3 1 5 -13 5 -14 0 -19 -2 -12 -5z"/>
<path d="M1950 611 c0 -4 13 -8 30 -7 39 1 39 16 0 16 -16 0 -30 -4 -30 -9z"/>
<path d="M900 600 c-12 -8 -11 -10 7 -10 12 0 26 -8 32 -17 8 -15 12 -16 23
-4 11 12 11 13 -1 6 -9 -5 -12 -4 -7 3 3 6 19 9 35 7 16 -2 37 3 47 10 17 13
11 14 -51 15 -38 0 -77 -5 -85 -10z"/>
<path d="M435 590 c-3 -5 -2 -10 3 -10 5 0 8 -10 7 -23 -3 -20 1 -23 26 -19
29 4 42 32 15 32 -8 0 -21 7 -30 15 -9 9 -17 11 -21 5z"/>
<path d="M1315 580 c-4 -6 6 -10 22 -10 22 0 25 2 13 10 -19 12 -27 12 -35 0z"/>
<path d="M877 564 c-17 -9 -43 -13 -68 -10 -22 3 -50 1 -62 -3 -21 -8 -21 -8
-2 -13 38 -10 236 -8 230 2 -3 6 -25 10 -48 10 -30 0 -38 3 -27 10 25 16 6 19
-23 4z"/>
<path d="M143 546 c0 -7 9 -12 19 -12 10 0 18 3 18 7 0 4 -8 9 -18 11 -10 3
-19 0 -19 -6z"/>
<path d="M416 533 c-6 -14 -5 -15 5 -6 7 7 10 15 7 18 -3 3 -9 -2 -12 -12z"/>
<path d="M1948 543 c7 -3 16 -2 19 1 4 3 -2 6 -13 5 -11 0 -14 -3 -6 -6z"/>
<path d="M1293 518 c-2 -15 5 -18 40 -16 l42 1 -38 4 c-30 3 -36 7 -28 17 8 9
7 13 -2 13 -7 0 -14 -9 -14 -19z"/>
<path d="M1175 508 c4 -13 8 -48 9 -78 1 -57 18 -100 39 -99 7 0 21 4 32 9 17
8 16 9 -9 9 -21 1 -27 5 -22 16 3 8 2 15 -3 15 -5 0 -11 8 -13 18 -5 17 8 18
250 18 l254 -1 2 58 c0 31 0 57 -1 57 -17 0 -53 -23 -48 -31 4 -5 -1 -20 -12
-32 -18 -21 -18 -21 1 -7 16 13 19 13 14 1 -8 -25 -57 -32 -228 -31 -170 0
-220 6 -228 29 -3 10 0 11 9 5 12 -7 12 -5 0 9 -7 9 -10 17 -6 17 5 0 0 9 -10
20 -24 27 -39 26 -30 -2z"/>
<path d="M1558 513 c6 -2 18 -2 25 0 6 3 1 5 -13 5 -14 0 -19 -2 -12 -5z"/>
<path d="M2322 513 c-10 -4 -10 -8 -1 -19 7 -8 10 -17 7 -19 -23 -23 -324 -38
-421 -22 -41 7 -48 11 -45 30 2 14 -3 23 -14 25 -21 4 -23 -16 -3 -41 10 -15
11 -25 3 -43 -12 -25 5 -84 25 -84 5 0 2 -8 -7 -19 -15 -17 -15 -19 -1 -25 9
-3 106 -6 215 -6 l198 0 26 30 c14 17 23 37 20 45 -7 18 -24 20 -25 3 -1 -7
-2 -20 -3 -28 -2 -20 -46 -41 -74 -35 -12 3 -90 6 -172 6 -88 0 -148 5 -144
10 3 5 1 9 -3 9 -5 0 -13 13 -19 28 l-11 29 191 -4 c116 -2 193 -8 197 -14 4
-7 8 -5 12 4 4 10 16 14 32 13 14 -2 28 1 31 5 3 5 -98 9 -225 9 -156 0 -232
4 -237 11 -4 8 30 9 122 4 80 -4 169 -3 233 5 81 9 106 9 111 -1 5 -6 10 13
11 45 4 55 0 61 -29 49z m-75 -79 c-3 -3 -12 -4 -19 -1 -8 3 -5 6 6 6 11 1 17
-2 13 -5z"/>
<path d="M776 503 c-11 -11 -6 -23 9 -23 8 0 15 4 15 9 0 13 -16 22 -24 14z"/>
<path d="M1483 503 c9 -2 23 -2 30 0 6 3 -1 5 -18 5 -16 0 -22 -2 -12 -5z"/>
<path d="M2510 496 c0 -9 30 -14 35 -6 4 6 -3 10 -14 10 -12 0 -21 -2 -21 -4z"/>
<path d="M2645 490 c-3 -5 1 -10 10 -10 9 0 13 5 10 10 -3 6 -8 10 -10 10 -2
0 -7 -4 -10 -10z"/>
<path d="M385 479 c-4 -6 -4 -27 1 -47 4 -20 6 -41 5 -45 -1 -5 4 -5 10 -2 7
5 8 20 4 44 -4 20 -8 42 -8 49 0 15 -4 15 -12 1z"/>
<path d="M250 465 c0 -8 2 -15 4 -15 2 0 6 7 10 15 3 8 1 15 -4 15 -6 0 -10
-7 -10 -15z"/>
<path d="M935 470 c-3 -5 1 -10 9 -10 9 0 16 5 16 10 0 6 -4 10 -9 10 -6 0
-13 -4 -16 -10z"/>
<path d="M970 450 c-8 -5 -10 -10 -5 -10 6 0 17 5 25 10 8 5 11 10 5 10 -5 0
-17 -5 -25 -10z"/>
<path d="M1280 450 c20 -13 33 -13 25 0 -3 6 -14 10 -23 10 -15 0 -15 -2 -2
-10z"/>
<path d="M1435 449 c-18 -4 -3 -6 38 -4 37 1 70 5 74 8 8 8 -71 5 -112 -4z"/>
<path d="M1568 453 c7 -3 16 -2 19 1 4 3 -2 6 -13 5 -11 0 -14 -3 -6 -6z"/>
<path d="M246 425 c4 -8 10 -12 15 -9 11 6 2 24 -11 24 -5 0 -7 -7 -4 -15z"/>
<path d="M690 422 c0 -5 19 -8 44 -7 40 3 45 1 50 -21 l6 -24 39 20 c36 18 40
18 46 2 5 -13 8 -14 14 -3 5 7 14 10 20 6 7 -4 18 -2 26 5 10 9 16 7 24 -7 10
-17 10 -17 11 0 0 9 8 17 18 17 15 0 15 -2 2 -11 -12 -9 -12 -10 3 -5 10 3 25
6 33 6 24 0 16 18 -8 19 -13 0 -92 3 -175 7 -101 4 -153 3 -153 -4z m154 -13
c-2 -4 -13 -9 -24 -12 -11 -3 -18 -1 -15 3 3 5 -1 10 -7 13 -7 2 1 4 19 3 17
-1 29 -4 27 -7z"/>
<path d="M1095 420 c-13 -5 -14 -9 -5 -9 8 0 24 4 35 9 13 5 14 9 5 9 -8 0
-24 -4 -35 -9z"/>
<path d="M1645 334 l-50 -46 45 7 c57 9 62 12 55 36 -4 11 -1 26 5 34 26 31
-7 12 -55 -31z m30 -14 c-3 -5 -12 -10 -18 -10 -7 0 -6 4 3 10 19 12 23 12 15
0z"/>
<path d="M1630 359 c0 -5 5 -7 10 -4 6 3 10 8 10 11 0 2 -4 4 -10 4 -5 0 -10
-5 -10 -11z"/>
<path d="M402 340 c0 -14 2 -19 5 -12 2 6 2 18 0 25 -3 6 -5 1 -5 -13z"/>
<path d="M783 349 c-5 -5 -22 -11 -37 -13 -45 -5 -42 -16 5 -17 24 0 72 -2
106 -5 49 -4 69 -1 103 16 23 12 40 24 37 26 -3 3 -19 -2 -36 -10 -41 -22 -75
-21 -67 0 6 14 4 15 -10 3 -21 -18 -56 -20 -50 -2 3 7 1 13 -3 13 -5 0 -11 -7
-15 -15 -3 -8 -10 -15 -17 -15 -6 0 -9 7 -5 15 6 18 4 19 -11 4z"/>
<path d="M2988 345 c-3 -11 -18 -51 -32 -90 -27 -73 -32 -96 -17 -79 14 16 63
162 59 176 -3 8 -7 5 -10 -7z"/>
<path d="M2228 333 c7 -3 16 -2 19 1 4 3 -2 6 -13 5 -11 0 -14 -3 -6 -6z"/>
<path d="M410 296 c0 -8 5 -18 10 -21 6 -3 10 1 10 9 0 8 -4 18 -10 21 -5 3
-10 -1 -10 -9z"/>
<path d="M986 302 c-3 -5 1 -9 9 -9 8 0 15 4 15 9 0 4 -4 8 -9 8 -6 0 -12 -4
-15 -8z"/>
<path d="M1190 291 c0 -6 16 -28 35 -50 19 -21 35 -43 35 -49 0 -16 19 -19
102 -16 77 2 78 3 154 58 l77 56 -99 0 c-55 0 -145 3 -201 7 -74 4 -103 3
-103 -6z m230 -29 c15 -6 32 -6 42 -1 9 5 27 9 40 9 22 -1 22 -1 -6 -24 -16
-14 -35 -22 -43 -19 -8 3 -13 0 -11 -7 2 -8 -12 -17 -32 -22 -37 -9 -140 -1
-139 10 4 28 -3 52 -16 52 -8 0 -15 4 -15 9 0 11 148 6 180 -7z"/>
<path d="M2450 289 c0 -5 18 -9 40 -9 52 0 52 15 0 16 -22 1 -40 -2 -40 -7z"/>
<path d="M2748 293 c7 -3 16 -2 19 1 4 3 -2 6 -13 5 -11 0 -14 -3 -6 -6z"/>
<path d="M873 266 c-16 -13 -47 -34 -71 -46 -23 -12 -42 -24 -42 -26 0 -2 41
-4 91 -4 57 0 88 4 84 10 -3 6 -13 10 -22 10 -27 0 -57 50 -30 50 6 0 21 7 31
15 16 12 17 15 4 15 -9 0 -29 -11 -45 -24z m2 -47 c-8 -12 -35 -12 -35 0 0 11
22 20 33 14 4 -2 5 -9 2 -14z"/>
<path d="M2276 264 c-9 -24 -4 -25 24 -4 24 19 24 20 4 20 -12 0 -25 -7 -28
-16z"/>
<path d="M100 249 c0 -5 5 -7 10 -4 6 3 10 8 10 11 0 2 -4 4 -10 4 -5 0 -10
-5 -10 -11z"/>
<path d="M416 246 c8 -22 36 -30 32 -9 -2 10 -11 19 -21 21 -12 2 -15 -1 -11
-12z"/>
<path d="M2250 231 c0 -6 -12 -21 -26 -34 -29 -27 -22 -38 16 -26 14 4 20 7
13 8 -13 1 -6 32 10 42 5 4 5 9 -2 13 -6 4 -11 3 -11 -3z"/>
<path d="M674 164 c-18 -14 -18 -15 4 -4 12 6 22 13 22 15 0 8 -5 6 -26 -11z"/>
<path d="M1490 141 c0 -5 9 -7 20 -4 11 3 20 7 20 9 0 2 -9 4 -20 4 -11 0 -20
-4 -20 -9z"/>
<path d="M1940 134 c0 -8 9 -14 19 -14 30 0 34 17 6 22 -17 4 -25 1 -25 -8z"/>
<path d="M1458 133 c7 -3 16 -2 19 1 4 3 -2 6 -13 5 -11 0 -14 -3 -6 -6z"/>
<path d="M2080 126 c14 -6 28 -15 32 -21 5 -6 8 -5 8 3 0 6 9 12 20 12 11 0
20 4 20 9 0 5 -24 9 -52 9 -47 -1 -50 -2 -28 -12z"/>
<path d="M483 113 c-3 -10 -7 -21 -9 -24 -2 -3 5 -6 14 -6 23 0 45 29 29 39
-19 12 -27 9 -34 -9z"/>
<path d="M1352 58 c2 -6 10 -14 16 -16 7 -2 10 2 6 12 -7 18 -28 22 -22 4z"/>
<path d="M1438 43 c7 -3 16 -2 19 1 4 3 -2 6 -13 5 -11 0 -14 -3 -6 -6z"/>
</g>
</svg>
