<?xml version="1.0" standalone="no"?>
<!DOCTYPE svg PUBLIC "-//W3C//DTD SVG 20010904//EN"
 "http://www.w3.org/TR/2001/REC-SVG-20010904/DTD/svg10.dtd">
<svg version="1.0" xmlns="http://www.w3.org/2000/svg"
 width="300.000000pt" height="200.000000pt" viewBox="0 0 300.000000 200.000000"
 preserveAspectRatio="xMidYMid meet">
<metadata>
Created by potrace 1.10, written by Peter Selinger 2001-2011
</metadata>
<g transform="translate(0.000000,200.000000) scale(0.100000,-0.100000)"
fill="#000000" stroke="none">
<path d="M10 1985 c0 -8 2 -15 4 -15 2 0 6 7 10 15 3 8 1 15 -4 15 -6 0 -10
-7 -10 -15z"/>
<path d="M66 1984 c-9 -23 -7 -31 3 -15 5 8 17 16 26 17 28 4 30 14 3 14 -14
0 -29 -7 -32 -16z"/>
<path d="M220 1992 c0 -5 7 -9 15 -9 8 0 12 4 9 9 -3 4 -9 8 -15 8 -5 0 -9 -4
-9 -8z"/>
<path d="M323 1993 c9 -2 23 -2 30 0 6 3 -1 5 -18 5 -16 0 -22 -2 -12 -5z"/>
<path d="M438 1993 c6 -2 18 -2 25 0 6 3 1 5 -13 5 -14 0 -19 -2 -12 -5z"/>
<path d="M548 1991 c13 -8 101 -5 109 3 2 2 -24 4 -59 5 -37 0 -58 -3 -50 -8z"/>
<path d="M735 1993 c78 -4 105 -20 105 -63 0 -36 -23 -56 -40 -35 -10 12 -16
13 -27 3 -23 -19 46 -40 89 -27 30 8 103 4 293 -15 71 -8 73 -9 82 -104 4 -48
8 -159 8 -247 l0 -160 23 -2 c18 -1 22 3 17 16 -4 9 -7 18 -7 21 -2 8 13 84
19 100 4 8 5 20 4 27 -1 6 8 14 19 18 26 8 26 29 0 22 -13 -3 -20 0 -20 9 0 8
-4 14 -9 14 -19 0 -21 40 -5 77 10 21 18 40 19 43 14 40 27 60 35 55 6 -4 17
-2 24 4 25 21 86 -17 86 -54 0 -11 -5 -26 -11 -32 -7 -7 -13 -39 -14 -71 -3
-67 -14 -98 -25 -67 -3 10 -15 20 -26 21 -16 3 -10 -7 23 -41 24 -25 43 -49
43 -54 0 -14 38 -20 43 -7 3 6 -9 23 -26 37 -31 27 -31 28 -19 75 20 82 25
150 13 172 -6 11 -29 28 -50 38 -35 15 -40 21 -38 48 3 62 -3 111 -12 98 -4
-7 -6 -35 -3 -62 4 -44 2 -52 -23 -72 -15 -13 -34 -31 -43 -41 -16 -16 -18
-14 -30 45 -7 35 -14 73 -15 85 -1 13 -6 18 -12 13 -5 -4 -19 -6 -30 -4 -38 6
-240 19 -292 18 -49 -1 -52 1 -47 22 3 12 -2 36 -10 53 l-17 31 -82 -2 -82 -2
70 -3z m555 -313 c0 -5 -5 -10 -11 -10 -5 0 -7 5 -4 10 3 6 8 10 11 10 2 0 4
-4 4 -10z m-23 -182 c-3 -8 -6 -5 -6 6 -1 11 2 17 5 13 3 -3 4 -12 1 -19z"/>
<path d="M1350 1966 c0 -20 2 -36 4 -36 8 0 12 61 4 66 -4 3 -8 -11 -8 -30z"/>
<path d="M2032 1993 c-19 -4 -21 -7 -11 -19 15 -19 29 -18 29 2 0 13 8 15 34
12 19 -2 32 0 30 4 -5 8 -42 9 -82 1z"/>
<path d="M2318 1993 c-2 -5 -3 -112 -3 -240 0 -127 -3 -229 -7 -227 -4 3 -8
-16 -7 -43 1 -39 3 -43 9 -23 7 21 8 22 9 4 1 -11 -5 -26 -11 -33 -10 -11 -10
-14 0 -18 6 -3 12 -9 12 -14 0 -6 -4 -7 -10 -4 -6 4 -10 -5 -10 -19 0 -25 -3
-26 -53 -26 -50 0 -53 2 -72 36 -19 36 -61 72 -71 61 -3 -3 3 -10 14 -16 11
-6 29 -26 39 -44 l20 -33 -23 -21 c-13 -12 -29 -24 -36 -27 -7 -4 -2 -4 12 -1
98 22 170 27 301 22 80 -3 157 -10 171 -16 22 -8 28 -22 48 -103 13 -51 31
-145 41 -208 9 -63 18 -99 18 -78 1 20 7 39 14 41 9 4 9 8 1 14 -7 4 -12 19
-12 33 0 14 -5 48 -12 75 -6 28 -14 82 -17 120 -2 39 -9 74 -14 79 -5 6 -9 18
-9 29 0 10 -4 15 -10 12 -5 -3 -10 2 -10 12 0 13 -3 15 -8 5 -6 -9 -21 -11
-50 -6 -23 4 -42 9 -43 13 -3 15 -12 139 -13 168 -1 18 -6 35 -13 37 -12 5
-11 -77 2 -160 6 -36 4 -42 -13 -46 -11 -3 -24 -3 -30 1 -10 6 -16 530 -6 563
4 13 14 17 40 15 19 -1 34 -7 34 -14 0 -7 5 -13 10 -13 6 0 10 5 10 11 0 6 6
9 14 6 7 -3 19 0 25 6 22 22 31 -16 31 -140 0 -70 4 -124 10 -128 6 -4 10 41
10 129 l0 135 38 -4 c20 -1 42 -4 47 -4 6 -1 1 -8 -9 -16 -19 -15 -19 -15 2
-15 14 0 22 -6 23 -17 1 -12 4 -9 8 7 4 14 3 28 -2 31 -5 4 -5 9 2 13 6 4 11
5 11 1 0 -3 9 -1 20 5 28 15 26 32 -2 21 -13 -4 -57 -5 -98 -1 -41 5 -115 11
-164 14 l-89 6 4 -307 4 -308 -40 1 c-22 1 -46 2 -52 3 -10 1 -13 73 -13 326
0 196 -4 325 -9 325 -6 0 -11 -3 -13 -7z"/>
<path d="M1860 1964 c-25 -8 -56 -14 -70 -14 -29 -1 -67 -26 -56 -37 4 -4 11
-2 15 5 8 14 85 25 169 25 38 0 52 4 52 15 0 7 -6 12 -12 9 -7 -2 -22 -1 -33
3 -11 4 -40 1 -65 -6z"/>
<path d="M2136 1952 c-8 -14 8 -31 37 -36 15 -2 27 -3 27 -1 0 10 -59 44 -64
37z"/>
<path d="M1698 1923 c7 -3 16 -2 19 1 4 3 -2 6 -13 5 -11 0 -14 -3 -6 -6z"/>
<path d="M2071 1914 c0 -11 3 -14 6 -6 3 7 2 16 -1 19 -3 4 -6 -2 -5 -13z"/>
<path d="M110 1910 c-8 -5 -28 -12 -45 -16 -24 -6 -11 -10 60 -17 50 -5 165
-16 257 -26 92 -9 175 -14 185 -10 10 4 26 2 37 -3 16 -9 18 -18 13 -59 -4
-28 -2 -49 3 -49 9 0 15 47 11 73 -3 17 20 47 36 47 14 0 14 -2 -1 -19 -10
-11 -16 -28 -15 -38 5 -36 -14 -228 -23 -234 -5 -3 -10 -30 -11 -60 -2 -53 -3
-54 -29 -51 -19 2 -28 -1 -28 -11 0 -24 33 -30 48 -10 10 13 16 14 19 6 3 -7
11 -13 19 -13 8 0 14 -5 14 -11 0 -5 -4 -7 -10 -4 -11 7 -14 -18 -4 -28 4 -4
8 -23 9 -44 1 -21 12 -96 25 -167 28 -158 29 -157 -88 -149 -42 3 -110 5 -151
3 -67 -1 -73 0 -62 14 7 8 11 21 8 28 -3 8 -10 2 -17 -15 -17 -35 -54 -45 -80
-22 -19 17 -21 17 -41 0 -19 -18 -21 -18 -54 -1 -24 13 -39 16 -47 9 -7 -5
-38 -11 -68 -12 -30 -1 -50 2 -44 6 20 15 21 38 2 71 -15 26 -18 55 -18 148 0
131 8 154 50 154 27 0 28 2 23 34 -4 29 -1 37 21 51 22 15 42 16 148 10 68 -4
128 -10 133 -12 6 -4 6 -2 0 5 -6 6 -19 13 -30 15 -40 8 -54 18 -47 35 5 15 4
15 -12 -1 -14 -14 -34 -17 -98 -16 -74 1 -82 -1 -109 -27 -16 -15 -29 -36 -29
-46 0 -11 -13 -23 -33 -31 l-32 -14 -3 -139 c-3 -119 -1 -142 12 -153 21 -17
20 -60 -1 -83 -9 -10 -13 -21 -9 -25 3 -4 113 -7 244 -7 130 -1 242 -4 249 -9
6 -4 54 -10 105 -13 51 -4 96 -9 100 -13 3 -3 8 -26 10 -51 l3 -45 -115 4
c-149 4 -139 -11 15 -24 22 -2 54 -4 71 -4 29 -1 32 -4 39 -43 9 -53 10 -58
20 -137 l7 -64 -53 8 c-30 4 -65 9 -79 11 -14 2 -60 9 -103 17 -43 7 -80 10
-83 6 -2 -4 17 -11 43 -15 45 -7 46 -8 18 -14 -18 -4 0 -6 45 -6 41 0 85 -6
97 -12 13 -7 43 -14 68 -15 25 -1 45 -6 45 -10 0 -5 4 -6 9 -3 9 6 23 -104 17
-126 -14 -45 -15 -78 -1 -78 19 0 32 104 15 125 -8 10 -11 33 -8 65 3 31 1 51
-6 54 -7 3 -6 5 2 5 18 1 15 51 -3 51 -11 0 -15 11 -15 41 0 37 -15 139 -40
274 -5 28 -12 79 -14 115 l-5 65 14 -70 c21 -97 22 -99 21 -23 -1 36 -4 64 -7
62 -4 -2 -10 16 -13 39 -4 24 -15 60 -26 80 -11 20 -22 56 -25 79 -4 34 -3 39
5 23 9 -16 9 -14 5 14 -3 18 -5 48 -5 65 0 23 -3 27 -10 16 -13 -20 -28 -3
-30 35 -3 48 -1 55 15 49 8 -4 15 -2 15 4 0 13 52 26 59 14 3 -5 68 -12 144
-15 114 -4 137 -3 137 9 0 11 -26 14 -137 14 -76 0 -145 4 -153 10 -10 6 -14
27 -13 80 1 39 -2 68 -7 65 -5 -3 -12 -1 -15 5 -4 6 -1 9 7 8 8 -2 14 8 15 27
1 20 0 23 -4 8 -8 -38 -21 -26 -16 15 5 38 40 82 67 82 8 0 17 3 19 8 3 4 -32
8 -76 10 -68 2 -274 21 -517 47 -25 2 -52 0 -60 -5z m243 -37 c-7 -2 -19 -2
-25 0 -7 3 -2 5 12 5 14 0 19 -2 13 -5z m329 -273 c-2 -22 -8 -40 -12 -40 -4
0 -6 10 -5 23 1 12 3 38 4 57 2 25 4 30 9 17 4 -10 6 -35 4 -57z"/>
<path d="M1645 1894 c-14 -15 -25 -39 -26 -53 0 -14 -2 -36 -5 -48 -2 -12 0
-24 5 -27 5 -3 11 12 14 34 3 22 14 58 25 80 23 47 20 50 -13 14z"/>
<path d="M1890 1900 c0 -5 5 -10 11 -10 5 0 7 5 4 10 -3 6 -8 10 -11 10 -2 0
-4 -4 -4 -10z"/>
<path d="M2142 1875 c0 -16 2 -22 5 -12 2 9 2 23 0 30 -3 6 -5 -1 -5 -18z"/>
<path d="M2208 1852 c5 -68 -19 -95 -100 -113 -56 -12 -60 -14 -33 -19 49 -10
134 31 143 69 6 31 4 93 -4 101 -5 5 -8 -10 -6 -38z"/>
<path d="M2779 1895 c-1 -3 -1 -17 -2 -32 0 -16 -5 -31 -11 -35 -8 -6 -8 -8 0
-8 6 0 23 11 38 25 15 14 38 27 51 29 29 5 35 -9 40 -101 2 -36 9 -71 14 -76
16 -16 13 -44 -5 -51 -9 -4 -15 -9 -12 -12 3 -2 17 0 30 5 24 9 25 12 15 49
-13 48 -5 72 24 72 15 0 19 4 15 16 -3 9 -6 22 -6 30 0 24 -20 16 -20 -8 -1
-20 -4 -18 -20 12 -10 19 -22 42 -26 50 -18 35 -52 43 -98 24 -14 -5 -17 -4
-12 4 4 7 2 12 -3 12 -6 0 -11 -2 -12 -5z"/>
<path d="M2090 1859 c0 -5 5 -7 10 -4 6 3 10 8 10 11 0 2 -4 4 -10 4 -5 0 -10
-5 -10 -11z"/>
<path d="M1837 1833 c-11 -10 -8 -53 3 -53 6 0 10 14 10 30 0 31 -2 35 -13 23z"/>
<path d="M1865 1829 c-4 -5 5 -9 19 -9 14 0 26 4 26 8 0 11 -39 12 -45 1z"/>
<path d="M1091 1804 c0 -11 3 -14 6 -6 3 7 2 16 -1 19 -3 4 -6 -2 -5 -13z"/>
<path d="M1640 1809 c0 -5 5 -7 10 -4 6 3 10 8 10 11 0 2 -4 4 -10 4 -5 0 -10
-5 -10 -11z"/>
<path d="M500 1787 c0 -5 13 -7 29 -4 17 4 37 0 52 -9 l24 -16 -24 21 c-23 21
-81 26 -81 8z"/>
<path d="M2018 1762 c-9 -23 -12 -42 -7 -42 12 0 31 48 27 69 -2 9 -11 -3 -20
-27z"/>
<path d="M1982 1763 c-6 -18 -23 -38 -41 -47 -36 -19 -91 -21 -92 -3 -2 23 3
42 14 49 8 5 6 8 -5 8 -11 0 -18 -7 -18 -18 0 -30 -13 -34 -27 -10 -12 21 -13
21 -11 3 2 -11 9 -25 17 -31 11 -9 10 -14 -10 -27 -13 -10 -18 -17 -12 -17 7
0 15 5 19 11 4 7 22 9 45 6 58 -8 104 10 125 48 9 17 15 38 12 46 -3 8 -9 1
-16 -18z"/>
<path d="M391 1730 c-2 -14 -2 -34 -1 -45 2 -19 1 -19 -22 3 -15 13 -36 22
-54 21 l-29 -1 26 -7 c52 -17 69 -31 69 -61 0 -16 -4 -32 -10 -35 -5 -3 -10
-12 -10 -18 0 -7 4 -6 10 3 8 12 10 11 10 -7 0 -19 17 -42 23 -32 1 2 0 49 -4
104 -3 55 -7 89 -8 75z"/>
<path d="M1191 1714 c0 -11 3 -14 6 -6 3 7 2 16 -1 19 -3 4 -6 -2 -5 -13z"/>
<path d="M1640 1720 c0 -10 41 -30 61 -30 21 0 7 19 -22 29 -39 13 -39 13 -39
1z"/>
<path d="M597 1696 c-6 -14 1 -98 9 -105 2 -2 4 9 4 25 0 22 3 26 10 14 7 -11
10 -6 10 21 0 39 -23 71 -33 45z"/>
<path d="M1424 1685 c-1 -14 2 -22 7 -19 11 6 12 44 2 44 -5 0 -9 -11 -9 -25z"/>
<path d="M2526 1685 c-3 -8 -1 -15 4 -15 6 0 10 7 10 15 0 8 -2 15 -4 15 -2 0
-6 -7 -10 -15z"/>
<path d="M435 1680 c3 -5 8 -10 11 -10 2 0 4 5 4 10 0 6 -5 10 -11 10 -5 0 -7
-4 -4 -10z"/>
<path d="M1765 1670 c-3 -5 -1 -10 4 -10 6 0 11 5 11 10 0 6 -2 10 -4 10 -3 0
-8 -4 -11 -10z"/>
<path d="M176 1655 c-3 -8 -1 -15 4 -15 6 0 10 7 10 15 0 8 -2 15 -4 15 -2 0
-6 -7 -10 -15z"/>
<path d="M554 1646 c-3 -8 -1 -23 5 -33 8 -14 11 -15 11 -3 1 8 3 23 5 33 4
21 -13 23 -21 3z"/>
<path d="M2696 1645 c4 -8 -3 -15 -18 -18 -13 -2 13 -5 57 -6 44 -2 89 -4 99
-6 36 -7 39 7 6 22 -19 7 -47 11 -64 8 -17 -4 -43 -2 -58 4 -22 8 -26 7 -22
-4z"/>
<path d="M1341 1614 c0 -11 3 -14 6 -6 3 7 2 16 -1 19 -3 4 -6 -2 -5 -13z"/>
<path d="M1397 1616 c-4 -10 -5 -21 -2 -24 9 -9 17 6 13 25 -3 17 -4 17 -11
-1z"/>
<path d="M1202 1590 c0 -14 2 -19 5 -12 2 6 2 18 0 25 -3 6 -5 1 -5 -13z"/>
<path d="M240 1578 c0 -19 2 -20 10 -8 13 19 13 30 0 30 -5 0 -10 -10 -10 -22z"/>
<path d="M270 1578 c0 -5 6 -8 14 -8 8 0 21 -3 30 -6 10 -4 16 -1 16 7 0 9
-11 14 -30 14 -16 0 -30 -3 -30 -7z"/>
<path d="M556 1581 c-4 -7 -5 -15 -2 -18 9 -9 19 4 14 18 -4 11 -6 11 -12 0z"/>
<path d="M1030 1540 c36 -11 50 -11 50 0 0 6 -17 10 -37 9 -34 -1 -35 -2 -13
-9z"/>
<path d="M1096 1521 c6 -26 4 -30 -10 -25 -9 3 -16 1 -16 -5 0 -6 2 -11 4 -11
2 0 11 -3 20 -6 11 -4 16 0 17 12 0 18 1 17 9 -1 8 -18 9 -18 9 -2 1 10 4 16
9 14 4 -3 7 6 7 19 0 13 -5 24 -12 24 -6 0 -18 3 -27 6 -13 5 -15 1 -10 -25z"/>
<path d="M1161 1508 c1 -18 3 -25 6 -15 2 9 8 17 13 17 5 0 7 -7 4 -15 -4 -8
-1 -15 6 -15 8 0 11 -19 9 -62 -1 -35 -2 -79 0 -98 4 -70 22 -2 24 88 1 107
-6 132 -39 132 -21 0 -24 -4 -23 -32z"/>
<path d="M2993 1485 c0 -33 2 -45 4 -27 2 18 2 45 0 60 -2 15 -4 0 -4 -33z"/>
<path d="M675 1473 c4 -32 9 -76 12 -97 4 -38 21 -82 28 -74 2 2 -3 30 -10 63
-8 33 -16 84 -17 112 -2 29 -7 53 -12 53 -5 0 -6 -25 -1 -57z"/>
<path d="M704 1505 c4 -38 16 -43 16 -7 0 18 -4 32 -9 32 -5 0 -8 -11 -7 -25z"/>
<path d="M2870 1516 c0 -8 -10 -17 -22 -19 l-23 -4 23 -2 c14 0 21 -5 16 -12
-3 -6 -6 -49 -5 -95 0 -69 -2 -85 -17 -93 -9 -6 -12 -11 -6 -11 5 0 15 5 22
12 9 9 12 9 13 -2 1 -8 1 -18 0 -22 0 -5 3 -8 7 -8 5 0 9 -6 9 -12 1 -7 4 -28
8 -45 5 -24 4 -33 -5 -33 -8 0 -11 -12 -8 -35 2 -19 1 -35 -3 -35 -4 0 -6 -8
-5 -17 1 -21 -33 -30 -46 -11 -7 10 -8 8 -6 -7 2 -11 11 -20 23 -21 58 -2 64
-5 68 -26 3 -13 5 24 5 82 0 172 -3 157 38 156 21 0 39 4 41 10 2 6 -9 9 -30
6 -20 -2 -37 2 -44 10 -17 21 -37 92 -27 95 5 2 8 37 6 78 -3 57 -7 75 -18 75
-8 0 -14 -6 -14 -14z"/>
<path d="M734 1438 c0 -48 5 -81 9 -75 5 7 6 -7 4 -30 -3 -24 -1 -43 4 -43 5
0 9 -14 9 -31 0 -16 -4 -28 -9 -25 -5 4 -7 -4 -3 -16 5 -19 6 -20 12 -4 3 9
11 -25 18 -76 6 -51 19 -144 27 -206 15 -112 19 -269 11 -409 -2 -48 0 -74 8
-77 7 -3 7 -5 -1 -5 -8 -1 -13 -14 -13 -31 l0 -30 36 15 c52 22 64 19 64 -13
0 -26 -3 -28 -32 -26 l-33 3 35 -9 c28 -7 37 -6 48 7 15 20 16 33 2 33 -5 0
-10 7 -10 15 0 8 6 15 14 15 11 0 13 7 9 27 -10 43 -9 93 1 92 5 0 13 5 17 13
8 12 14 -58 10 -104 -1 -10 4 -18 12 -18 15 0 16 19 2 98 -6 38 -4 46 14 58
12 9 20 25 20 37 l-2 22 -4 -22 c-5 -26 -23 -31 -23 -7 0 8 -4 13 -9 10 -7 -5
-8 13 -2 47 0 4 6 7 12 7 8 0 8 -4 0 -14 -8 -9 -8 -16 -2 -20 15 -9 19 4 22
69 2 39 -1 60 -9 63 -7 2 -12 -1 -12 -7 0 -6 -6 -8 -14 -5 -18 7 -31 -15 -17
-29 8 -8 11 -8 11 1 0 7 5 12 10 12 6 0 10 -14 10 -31 0 -27 -2 -30 -15 -19
-21 18 -23 13 -26 -55 -3 -80 -9 -94 -25 -59 -12 27 -13 24 -10 -38 2 -36 7
-71 11 -77 7 -12 -2 -16 -52 -25 -29 -5 -31 -3 -29 19 2 14 6 28 9 32 11 10 8
118 -2 128 -6 6 -13 64 -16 130 -3 66 -10 147 -15 180 -5 33 -12 87 -15 119
-3 32 -8 63 -11 67 -3 5 0 9 5 9 6 0 10 15 10 33 l-1 32 -7 -30 -7 -30 -8 39
c-4 21 -10 69 -12 105 -6 77 -10 108 -19 139 -8 23 9 32 18 10 3 -7 6 -4 7 7
2 17 3 16 10 -5 8 -24 8 -24 9 5 0 17 -4 37 -9 45 -6 10 -10 11 -10 3 0 -7 -8
-13 -17 -13 -11 0 -14 3 -7 8 13 8 15 42 2 42 -4 0 -8 -8 -9 -17 0 -15 -2 -15
-9 2 -4 12 -7 -14 -6 -67z m139 -1015 c-7 -2 -19 -2 -25 0 -7 3 -2 5 12 5 14
0 19 -2 13 -5z"/>
<path d="M815 1512 c-14 -15 -2 -24 25 -18 24 4 30 2 31 -12 0 -14 2 -14 8 3
5 11 8 21 6 23 -4 5 -65 9 -70 4z"/>
<path d="M900 1502 c0 -11 -9 -29 -20 -42 l-20 -23 0 22 c0 17 -5 22 -22 19
-16 -2 -22 -9 -21 -23 2 -11 6 -58 9 -105 4 -54 11 -89 20 -96 18 -14 32 -182
29 -344 -1 -69 1 -116 5 -106 12 35 22 -2 15 -54 -7 -49 -6 -50 19 -50 22 0
26 4 26 29 0 16 -6 31 -13 34 -19 7 -39 136 -38 240 0 45 -1 111 -3 147 -4 62
-3 63 3 10 5 -41 8 -49 12 -30 5 17 7 10 8 -22 1 -35 5 -48 16 -48 13 0 15 19
13 123 l-2 122 -5 -105 -6 -105 -7 90 c-4 50 -5 115 -2 146 4 43 1 59 -10 69
-13 10 -16 10 -16 -3 0 -8 6 -18 13 -20 10 -4 10 -6 0 -6 -14 -1 -19 -61 -5
-61 4 0 5 -21 3 -47 l-4 -48 -9 35 c-5 19 -9 45 -9 58 1 12 -4 22 -9 22 -6 0
-10 -5 -10 -11 0 -5 -5 -7 -12 -3 -8 5 -5 11 10 17 18 8 22 18 22 54 0 27 4
42 10 38 12 -8 29 34 22 55 -3 9 2 6 11 -5 16 -20 16 -20 17 0 0 11 -9 26 -20
33 -17 10 -20 10 -20 -6z m25 -782 c3 -5 1 -10 -4 -10 -6 0 -11 5 -11 10 0 6
2 10 4 10 3 0 8 -4 11 -10z"/>
<path d="M951 1494 c0 -11 3 -14 6 -6 3 7 2 16 -1 19 -3 4 -6 -2 -5 -13z"/>
<path d="M978 1491 c-2 -9 -2 -31 0 -48 4 -30 7 -33 39 -33 28 0 34 -3 29 -16
-3 -9 -6 -49 -6 -91 0 -63 -2 -74 -15 -69 -11 4 -15 -1 -14 -17 0 -12 3 -17 5
-11 6 14 54 5 54 -10 0 -6 8 -17 18 -24 15 -11 16 -23 11 -90 -4 -42 -12 -90
-18 -107 l-11 -30 5 30 c3 17 8 62 11 100 5 69 4 70 -13 46 -10 -14 -18 -43
-18 -70 0 -25 -4 -51 -8 -58 -9 -14 -5 -193 4 -187 4 2 10 32 15 66 l9 63 3
-78 c2 -44 -2 -85 -8 -95 -9 -14 -10 -13 -5 8 6 23 5 24 -8 7 -11 -14 -16 -15
-20 -5 -3 7 -6 3 -6 -9 -1 -12 6 -26 15 -31 11 -6 13 -11 5 -16 -13 -9 -15
-96 -2 -96 5 0 8 18 7 40 -2 22 1 43 5 46 5 3 10 -10 10 -28 1 -18 6 3 10 47
5 44 14 91 20 106 6 15 6 34 1 48 -7 21 12 211 37 361 5 30 12 87 15 125 5 68
5 69 -9 36 -8 -18 -15 -61 -16 -95 0 -33 -4 -79 -8 -101 -6 -35 -8 -37 -15
-17 -4 12 -18 30 -32 38 -26 18 -29 38 -18 132 l7 52 38 0 c32 0 39 4 39 19 0
11 5 21 12 23 7 3 8 10 4 17 -5 7 -11 9 -15 4 -9 -12 -63 -35 -56 -23 3 5 2
10 -4 10 -6 0 -13 11 -17 25 -6 26 -42 36 -41 13 1 -39 -4 -68 -13 -68 -5 0
-8 17 -6 38 3 28 0 39 -10 39 -7 0 -15 -7 -16 -16z m82 -20 c0 -6 -4 -13 -10
-16 -5 -3 -10 1 -10 9 0 9 5 16 10 16 6 0 10 -4 10 -9z m17 -413 c-3 -8 -6 -5
-6 6 -1 11 2 17 5 13 3 -3 4 -12 1 -19z m-20 -155 c-3 -10 -5 -4 -5 12 0 17 2
24 5 18 2 -7 2 -21 0 -30z"/>
<path d="M2705 1500 c-3 -5 -2 -10 3 -10 5 0 12 -19 15 -42 4 -24 13 -72 22
-108 8 -36 17 -126 21 -201 4 -116 3 -139 -10 -152 -17 -17 -7 -30 17 -22 12
5 14 32 11 156 -2 82 -8 168 -14 190 -11 40 -13 82 -7 144 2 22 9 31 27 35 22
5 20 7 -15 13 -54 9 -63 9 -70 -3z m43 -55 c-3 -3 -9 2 -12 12 -6 14 -5 15 5
6 7 -7 10 -15 7 -18z"/>
<path d="M647 1480 c3 -11 7 -20 9 -20 2 0 4 9 4 20 0 11 -4 20 -9 20 -5 0 -7
-9 -4 -20z"/>
<path d="M2620 1478 c0 -9 -5 -18 -11 -20 -8 -3 -7 -8 3 -18 7 -8 19 -31 26
-50 l12 -35 -5 35 c-9 73 -25 129 -25 88z"/>
<path d="M410 1469 c0 -5 5 -7 10 -4 6 3 10 8 10 11 0 2 -4 4 -10 4 -5 0 -10
-5 -10 -11z"/>
<path d="M485 1470 c3 -5 8 -10 11 -10 2 0 4 5 4 10 0 6 -5 10 -11 10 -5 0 -7
-4 -4 -10z"/>
<path d="M712 1429 c6 -16 12 -28 14 -26 5 5 -13 57 -20 57 -3 0 0 -14 6 -31z"/>
<path d="M950 1303 c0 -86 2 -154 5 -152 8 8 11 309 3 309 -4 0 -8 -70 -8
-157z"/>
<path d="M2040 1446 c-21 -8 -46 -10 -63 -5 -29 8 -70 4 -98 -11 -11 -7 -27
-7 -43 0 -26 10 -48 8 -103 -11 -19 -6 -45 -9 -58 -6 -14 2 -22 0 -19 -4 3 -5
1 -9 -5 -9 -5 0 -12 6 -14 13 -3 7 -6 5 -6 -5 -1 -10 -4 -18 -8 -18 -5 0 -8
-24 -8 -52 l0 -53 -48 -6 c-27 -3 -51 -1 -54 3 -2 5 -11 4 -19 -3 -8 -7 -29
-9 -49 -6 -28 5 -37 2 -46 -15 -9 -17 -8 -19 8 -14 21 6 177 9 383 7 l145 -1
-1 -183 c0 -105 -5 -201 -12 -227 -6 -25 -21 -182 -32 -350 -11 -168 -22 -313
-24 -322 -2 -9 -1 -44 3 -78 5 -40 4 -60 -3 -61 -6 -1 5 -5 24 -9 41 -10 53
-4 19 9 -13 5 -18 10 -11 10 9 1 10 6 3 20 -8 15 -7 20 5 25 9 3 20 4 25 0 5
-3 37 -10 71 -15 34 -6 76 -16 93 -24 16 -7 44 -16 60 -20 l30 -8 -25 -7 c-15
-4 1 -6 42 -6 36 1 70 5 75 10 5 5 1 7 -9 3 -10 -4 -18 -2 -18 2 0 5 -9 7 -20
4 -11 -3 -30 -3 -43 1 -19 4 -24 12 -23 34 1 31 -3 31 156 29 14 0 45 0 70 1
25 0 38 -3 30 -6 -17 -8 -25 -32 -10 -32 6 0 10 5 10 10 0 6 20 10 45 10 25 0
45 -4 45 -10 0 -5 11 -9 24 -8 39 3 19 17 -35 24 -28 4 -45 10 -39 14 17 10
-60 21 -162 24 -84 1 -118 -8 -60 -17 23 -4 -18 -1 -92 6 -10 1 -24 10 -30 20
-18 29 5 50 68 63 103 21 140 72 125 175 -11 81 -32 120 -108 203 -106 114
-151 221 -151 364 0 83 20 207 31 190 5 -7 9 -8 9 -3 0 6 -4 16 -9 24 -7 11
-11 9 -21 -9 -20 -38 -25 -72 -23 -182 1 -116 14 -191 38 -239 9 -16 14 -33
11 -38 -3 -4 7 -23 22 -41 77 -94 90 -109 95 -104 2 3 18 -13 34 -35 34 -46
63 -153 44 -159 -9 -3 -9 -7 -1 -18 7 -7 8 -19 4 -26 -5 -7 -9 -15 -10 -18 -5
-26 -22 -41 -52 -47 -21 -4 -39 -8 -42 -8 -58 -12 -70 -19 -85 -51 -12 -26
-14 -39 -5 -49 8 -10 8 -14 -2 -18 -11 -4 -10 -6 0 -6 7 -1 10 -5 7 -11 -3 -5
-1 -10 4 -10 6 0 11 10 11 22 0 21 1 21 20 3 16 -14 17 -20 8 -27 -9 -5 -7 -8
7 -9 11 0 15 -3 9 -5 -10 -4 -195 34 -255 52 -14 4 -16 16 -12 72 3 37 8 81
12 97 5 17 4 41 -1 54 -14 38 2 44 88 31 44 -6 95 -14 114 -17 19 -2 49 -8 66
-13 33 -8 73 4 44 14 -16 5 -121 27 -155 32 -11 1 -40 6 -65 9 -25 4 -49 10
-53 14 -19 19 -6 411 16 461 12 29 14 66 10 205 -5 152 -7 172 -25 192 -15 16
-28 21 -52 17 -29 -5 -163 -5 -215 -1 -17 1 -27 10 -31 27 -13 48 17 90 67 96
15 1 38 8 51 15 20 11 31 11 67 -2 41 -15 68 -11 85 11 8 11 50 19 50 10 0
-15 49 -20 77 -8 29 13 61 39 46 37 -4 0 -24 -6 -43 -13z"/>
<path d="M920 1433 c0 -13 5 -23 10 -23 13 0 13 11 0 30 -8 12 -10 11 -10 -7z"/>
<path d="M370 1418 c0 -36 9 -58 26 -58 8 0 14 -4 14 -10 0 -5 5 -10 10 -10
15 0 12 16 -5 34 -8 8 -15 19 -15 23 0 5 -7 18 -15 29 -14 18 -14 18 -15 -8z"/>
<path d="M515 1430 c-3 -5 -1 -10 4 -10 6 0 11 5 11 10 0 6 -2 10 -4 10 -3 0
-8 -4 -11 -10z"/>
<path d="M2991 1394 c0 -11 3 -14 6 -6 3 7 2 16 -1 19 -3 4 -6 -2 -5 -13z"/>
<path d="M572 1370 c-9 -14 -8 -20 1 -23 9 -3 9 -7 0 -18 -12 -15 -17 -129 -5
-129 19 0 31 46 31 109 -1 75 -8 91 -27 61z"/>
<path d="M781 1374 c0 -11 3 -14 6 -6 3 7 2 16 -1 19 -3 4 -6 -2 -5 -13z"/>
<path d="M1474 1365 c3 -23 16 -31 26 -15 10 17 4 30 -15 30 -7 0 -12 -7 -11
-15z"/>
<path d="M1092 1350 c0 -14 2 -19 5 -12 2 6 2 18 0 25 -3 6 -5 1 -5 -13z"/>
<path d="M1441 1336 c-8 -9 -7 -13 2 -13 6 0 20 -4 30 -8 23 -10 22 12 -2 24
-14 8 -22 7 -30 -3z"/>
<path d="M1174 1305 c2 -22 -11 -141 -30 -265 -18 -124 -36 -275 -40 -337 -3
-62 -10 -127 -14 -145 l-8 -33 -1 35 c-1 30 -5 36 -26 38 -25 2 -25 2 -25 -88
0 -73 -3 -90 -15 -91 -8 -1 -21 -2 -27 -3 -7 0 -14 -11 -16 -24 -2 -14 -8 -20
-15 -15 -9 5 -9 3 0 -8 21 -26 1 -37 -62 -35 -33 1 -70 -1 -83 -6 -13 -4 -31
-4 -42 2 -15 8 -19 5 -22 -15 -7 -33 4 -46 32 -40 73 15 162 26 177 23 27 -7
-55 -28 -105 -28 -29 0 -41 -4 -36 -11 9 -15 -61 -5 -81 11 -12 10 -15 10 -15
0 0 -6 -9 -23 -20 -37 -27 -34 -26 -61 3 -65 14 -2 21 -9 19 -20 -1 -9 2 -20
8 -23 7 -4 10 0 8 10 -2 10 3 20 11 23 9 3 12 0 9 -10 -4 -8 -2 -21 3 -29 8
-11 9 -9 7 6 -2 15 3 21 24 23 22 3 27 0 22 -13 -5 -13 -9 -14 -15 -4 -4 8
-11 10 -15 6 -15 -14 17 -32 56 -31 22 1 40 -2 40 -7 0 -13 -46 -11 -115 5
-33 8 -63 12 -67 10 -12 -8 -9 -32 5 -38 6 -3 -1 -3 -18 0 -61 12 -196 8 -208
-6 -10 -10 -8 -11 8 -5 11 4 29 9 40 12 19 4 19 4 2 -10 -17 -14 -17 -15 7
-13 13 0 22 4 20 8 -3 4 5 6 16 5 22 -1 26 -12 10 -22 -13 -8 6 -35 23 -35 6
0 2 7 -9 15 -17 14 -15 14 26 9 l45 -7 -24 27 c-25 27 -15 35 17 15 13 -8 17
-20 14 -40 -3 -22 0 -29 13 -29 11 0 15 5 11 15 -3 8 -1 15 5 15 6 0 9 6 6 14
-3 8 1 17 9 20 25 9 30 7 32 -14 4 -43 6 -49 14 -44 12 7 10 34 -3 34 -5 0 -8
4 -5 8 3 5 32 4 65 -1 33 -5 58 -13 56 -17 -4 -7 32 -21 50 -20 13 0 4 14 -11
16 -32 5 -25 13 18 18 105 13 148 15 143 6 -3 -5 -1 -11 5 -15 6 -4 8 -10 5
-15 -3 -5 0 -12 6 -16 8 -4 9 -3 5 5 -4 6 0 14 11 18 10 4 24 13 32 21 8 8 26
12 42 10 20 -3 26 -1 22 9 -3 8 -17 13 -32 12 -14 -1 -37 -1 -51 0 l-25 2 23
10 c13 5 28 7 32 4 5 -3 11 -1 15 5 3 5 1 10 -6 10 -7 0 1 11 17 25 22 19 37
24 59 20 25 -4 27 -3 10 5 -16 8 -13 9 15 5 19 -3 36 -9 38 -14 2 -5 12 -7 22
-4 12 3 20 0 20 -6 0 -7 5 -9 11 -5 6 3 15 0 20 -7 14 -24 33 4 20 29 -6 11
-11 49 -11 84 0 35 -4 68 -8 73 -4 6 -43 11 -87 13 -57 2 -76 0 -65 -7 8 -6
43 -11 78 -11 l62 0 1 -37 c1 -21 3 -58 5 -82 3 -36 1 -42 -12 -37 -9 4 -36
11 -60 17 -34 9 -45 17 -53 40 -6 17 -20 43 -31 60 -12 16 -20 35 -17 42 2 6
-2 17 -9 22 -14 11 -18 30 -16 83 2 23 7 32 20 33 9 1 2 6 -15 11 -29 9 -33
15 -33 44 0 19 5 34 11 34 5 0 7 4 4 10 -6 10 28 14 93 10 34 -2 37 4 23 43
-12 31 2 58 21 39 23 -23 31 -12 8 13 -12 13 -26 23 -30 20 -19 -12 -101 -15
-120 -5 -21 11 -21 11 -19 -98 1 -87 10 -172 29 -278 0 -1 14 -18 30 -39 17
-21 30 -48 30 -60 0 -19 -7 -24 -39 -30 -27 -4 -38 -11 -35 -19 9 -22 -25 -46
-64 -46 -26 0 -33 3 -23 9 8 5 20 7 28 4 7 -3 13 0 13 6 0 6 8 8 18 4 11 -3 9
0 -6 11 -24 18 -22 39 3 29 8 -3 15 0 15 7 0 6 -4 8 -10 5 -5 -3 -10 -2 -10 4
0 22 -34 41 -73 42 l-42 1 35 8 c20 5 42 4 53 -2 23 -12 34 -3 19 15 -15 18
-6 27 27 28 14 0 20 3 14 6 -8 3 -11 14 -7 29 4 15 0 34 -10 48 -9 15 -11 26
-5 28 16 5 -7 58 -26 58 -8 0 -15 5 -15 11 0 6 8 9 18 7 16 -4 17 7 18 136 1
149 17 287 63 526 15 80 24 147 21 150 -3 3 -11 21 -17 40 l-12 35 3 -40z m72
-677 c-1 -29 -5 -33 -40 -41 -29 -7 -40 -6 -47 4 -12 19 -11 52 1 44 6 -3 10
-1 10 5 0 6 12 8 30 5 17 -3 30 -1 30 5 0 5 4 10 9 10 4 0 8 -14 7 -32z m-176
-122 c0 -35 2 -85 5 -112 4 -43 4 -45 -5 -19 -16 47 -24 195 -11 195 7 0 11
-24 11 -64z m-24 -123 c1 -85 5 -123 13 -123 5 0 13 9 16 20 4 11 15 20 26 20
11 0 17 -5 14 -10 -4 -6 -10 -8 -15 -5 -5 3 -12 -4 -15 -15 -6 -18 -14 -21
-58 -20 -29 1 -72 -2 -96 -6 -32 -5 -42 -4 -37 4 4 7 23 12 42 12 42 0 56 27
49 98 -3 26 -3 41 1 35 8 -18 33 -16 40 2 10 24 19 17 20 -12z m55 -54 c-16
-6 -28 -6 -35 1 -7 7 1 10 25 9 32 0 33 -1 10 -10z m-142 -13 c-2 -3 -27 -7
-54 -9 -28 -3 -75 -7 -105 -10 l-55 -6 60 13 c57 13 163 21 154 12z m-79 -66
c0 -5 -10 -10 -22 -10 -12 0 -19 -3 -16 -6 3 -3 36 -5 73 -5 67 0 80 -10 41
-33 -14 -8 -20 -8 -23 1 -4 10 -7 10 -18 0 -8 -8 -9 -14 -3 -18 6 -4 7 -12 3
-18 -5 -9 -10 -9 -21 0 -7 6 -12 15 -9 19 3 4 -2 11 -11 14 -8 3 -12 10 -9 16
4 6 -14 11 -47 11 -29 1 -41 4 -26 6 14 2 32 11 38 19 14 16 50 19 50 4z
m-120 -26 c0 -3 -4 -3 -9 0 -5 4 -12 0 -14 -6 -4 -10 -8 -10 -16 2 -14 20 -3
32 20 20 10 -6 19 -13 19 -16z m-45 -24 c3 -5 -1 -10 -9 -10 -9 0 -16 5 -16
10 0 6 4 10 9 10 6 0 13 -4 16 -10z m351 1 c-3 -5 1 -11 9 -15 29 -11 14 -24
-31 -28 -25 -2 -48 0 -50 4 -2 4 -13 5 -24 3 -11 -2 -20 0 -20 6 0 10 11 12
52 9 36 -2 55 9 37 21 -10 6 -8 9 9 9 13 0 21 -4 18 -9z m-235 -9 c14 -1 26
-8 26 -16 0 -15 -49 -16 -99 -2 -58 17 -24 25 73 18z m49 -46 c0 -8 -31 -36
-41 -36 -5 0 -9 9 -9 20 0 15 7 20 25 20 14 0 25 -2 25 -4z m210 -6 c0 -5 -6
-10 -12 -11 -7 0 -22 -2 -33 -5 -11 -2 -37 -5 -57 -5 -40 -1 -51 -14 -20 -23
9 -2 6 -4 -8 -3 -14 2 -24 8 -22 15 1 6 -3 12 -9 12 -6 0 -9 -6 -6 -14 4 -10
0 -14 -13 -13 -11 1 -22 8 -25 15 -3 9 0 12 9 9 9 -4 13 -1 10 6 -3 9 18 13
78 15 45 1 84 4 86 7 9 9 22 5 22 -5z m-50 -40 c0 -5 -11 -10 -25 -10 -14 0
-25 5 -25 10 0 6 11 10 25 10 14 0 25 -4 25 -10z m-250 -22 c0 -4 20 -8 45 -8
25 0 45 -4 45 -10 0 -14 -100 -1 -125 16 -19 14 -19 14 8 12 15 -1 27 -6 27
-10z m322 -8 c10 0 18 -4 18 -10 0 -5 -4 -10 -9 -10 -5 0 -17 -3 -25 -6 -12
-5 -15 -2 -10 11 6 15 1 17 -45 14 -28 -2 -51 -1 -51 3 0 10 83 15 95 6 5 -5
17 -8 27 -8z m-137 1 c-10 -10 -48 -15 -75 -11 -8 1 -1 6 15 10 44 11 71 12
60 1z m-339 -29 c-9 -9 -37 8 -31 18 5 8 11 7 21 -1 8 -6 12 -14 10 -17z"/>
<path d="M1000 359 c0 -5 5 -7 10 -4 6 3 10 8 10 11 0 2 -4 4 -10 4 -5 0 -10
-5 -10 -11z"/>
<path d="M1008 333 c7 -3 16 -2 19 1 4 3 -2 6 -13 5 -11 0 -14 -3 -6 -6z"/>
<path d="M785 180 c-3 -5 1 -10 10 -10 9 0 13 5 10 10 -3 6 -8 10 -10 10 -2 0
-7 -4 -10 -10z"/>
<path d="M300 1281 c0 -6 5 -13 10 -16 6 -3 10 1 10 9 0 9 -4 16 -10 16 -5 0
-10 -4 -10 -9z"/>
<path d="M2161 1274 c0 -11 3 -14 6 -6 3 7 2 16 -1 19 -3 4 -6 -2 -5 -13z"/>
<path d="M712 1260 c0 -14 2 -19 5 -12 2 6 2 18 0 25 -3 6 -5 1 -5 -13z"/>
<path d="M1355 1270 c-4 -6 3 -10 14 -10 25 0 27 6 6 13 -8 4 -17 2 -20 -3z"/>
<path d="M2118 1240 c6 -55 17 -58 18 -4 0 25 -5 44 -11 44 -6 0 -9 -16 -7
-40z"/>
<path d="M811 1234 c0 -11 3 -14 6 -6 3 7 2 16 -1 19 -3 4 -6 -2 -5 -13z"/>
<path d="M1307 1238 c-2 -7 0 -26 5 -43 4 -16 8 -58 8 -92 0 -34 5 -65 10 -68
6 -3 10 -14 9 -23 0 -14 -2 -13 -9 3 -7 17 -9 15 -9 -12 -1 -18 -6 -33 -12
-33 -8 0 -10 12 -6 36 5 31 4 35 -11 29 -9 -4 -25 -7 -34 -7 -10 0 -20 -3 -23
-9 -4 -5 -12 -9 -18 -9 -7 0 -6 4 3 10 12 8 9 10 -12 10 -17 0 -29 -6 -32 -17
-11 -40 -37 -234 -33 -245 4 -9 6 -8 6 3 1 12 19 18 83 25 110 12 119 34 13
31 -77 -3 -95 4 -77 26 6 7 12 26 14 42 3 29 5 30 63 36 l60 6 -57 1 c-50 2
-58 5 -58 21 0 35 68 43 99 12 11 -11 23 -16 27 -13 3 4 4 -6 2 -21 -4 -18 -2
-27 6 -24 15 6 47 -61 33 -70 -6 -3 -7 -1 -3 5 4 7 1 12 -9 12 -8 0 -20 10
-25 23 -5 12 -9 16 -9 9 -1 -7 5 -23 13 -35 13 -21 25 -107 50 -392 7 -72 16
-138 20 -147 5 -10 6 -36 4 -58 -2 -28 0 -40 9 -40 9 0 12 26 11 105 -1 57 -5
102 -9 100 -4 -3 -10 42 -14 100 -4 58 -11 108 -16 111 -5 3 -9 29 -8 57 0 45
2 49 10 27 6 -14 13 -65 16 -114 5 -70 8 -84 15 -65 9 22 -1 142 -19 247 -3
17 -1 32 4 32 15 0 33 -240 33 -437 0 -158 -2 -182 -15 -177 -10 4 -15 0 -15
-15 0 -12 5 -21 11 -21 5 0 7 5 4 10 -3 5 1 10 9 10 9 0 16 -3 16 -8 0 -4 17
-8 38 -8 77 -2 82 -3 82 -24 0 -24 -17 -26 -46 -5 -12 8 -24 11 -28 7 -4 -3
-12 0 -17 8 -8 11 -12 12 -16 2 -2 -6 -10 -9 -16 -6 -7 4 -3 -2 8 -13 14 -14
22 -17 28 -9 5 8 9 7 15 -2 5 -7 13 -12 18 -11 23 4 54 -2 54 -10 0 -5 -10 -8
-22 -6 -13 2 -42 6 -65 9 -23 3 -48 9 -57 12 -14 5 -16 -4 -16 -60 0 -36 3
-66 8 -66 4 0 6 25 5 56 -2 41 0 55 10 51 7 -2 12 -23 12 -55 0 -68 19 -68 32
1 l10 52 2 -52 c1 -64 21 -71 21 -8 0 27 5 45 11 45 8 0 10 -15 7 -45 -4 -34
-2 -45 8 -45 8 0 14 7 14 15 0 8 6 15 13 15 9 0 9 2 0 8 -15 9 -21 37 -8 40 6
1 10 -2 10 -7 0 -5 3 -13 8 -17 4 -4 7 2 7 14 0 20 5 22 48 22 l48 0 -4 -35
c-2 -19 0 -35 6 -35 5 0 8 14 6 30 -4 33 21 54 36 30 5 -8 9 -9 14 -1 4 6 14
11 22 11 11 0 14 -9 10 -40 -2 -22 -1 -40 4 -40 11 0 21 45 14 64 -3 9 -1 16
5 16 6 0 11 -6 11 -14 0 -8 7 -22 16 -31 9 -8 13 -22 10 -30 -3 -9 0 -15 9
-15 8 0 15 6 15 13 0 6 2 40 4 74 3 50 1 62 -13 65 -9 3 -68 1 -131 -2 -63 -4
-118 -6 -122 -3 -25 14 3 21 85 22 50 1 107 4 126 7 23 5 36 2 42 -7 7 -11 9
-9 10 6 0 11 5 58 9 105 5 47 18 189 29 316 10 127 26 255 35 284 18 60 21
100 7 100 -14 0 -26 63 -12 68 29 10 6 22 -40 20 l-51 -1 7 -60 c5 -43 4 -58
-4 -53 -6 4 -11 29 -11 56 0 34 -4 50 -16 54 -9 3 -93 3 -188 -1 l-173 -6 -3
-36 c-4 -56 -4 -83 3 -131 14 -110 26 -270 32 -463 5 -141 11 -207 19 -207 8
0 10 38 8 127 -2 71 -4 175 -4 233 -1 64 -5 108 -12 112 -7 5 -7 8 -1 8 6 0
12 14 13 31 1 17 -2 28 -7 25 -10 -7 -9 20 2 30 15 15 7 36 -10 30 -10 -4 -14
-4 -10 0 4 4 2 13 -4 20 -8 9 -6 11 8 8 16 -4 18 1 16 43 l-3 48 16 -30 c11
-22 14 -24 10 -7 -3 19 0 22 25 22 16 0 29 -4 29 -10 0 -5 5 -10 11 -10 5 0 7
5 4 10 -3 6 1 13 9 16 9 3 16 14 15 23 0 10 -2 11 -6 4 -3 -8 -25 -13 -59 -13
-31 0 -53 4 -50 8 3 5 23 8 46 8 44 -1 56 13 13 15 -44 2 -57 -1 -69 -17 -16
-20 -38 -18 -29 4 4 9 9 28 12 42 2 13 5 26 7 27 1 2 34 5 71 7 60 4 72 1 87
-17 10 -11 18 -25 18 -31 0 -6 4 -5 9 3 6 9 8 2 6 -20 -4 -53 -6 -56 -15 -31
-5 12 -15 22 -21 22 -8 0 -9 -4 0 -13 6 -8 8 -17 4 -20 -7 -8 -7 -8 59 -12 29
-2 47 1 45 7 -1 6 4 13 11 15 7 3 10 -1 6 -10 -8 -21 11 -30 26 -12 6 7 17 12
24 9 7 -3 24 -1 38 5 30 11 43 4 53 -28 6 -19 9 -21 17 -10 8 12 9 12 6 0 -2
-8 -15 -15 -29 -17 -13 -1 -18 0 -11 2 17 8 15 24 -4 24 -9 0 -13 5 -9 13 4 6
-3 1 -15 -13 -14 -17 -23 -21 -27 -12 -8 20 -29 14 -41 -13 -6 -14 -16 -25
-22 -25 -5 0 -10 -5 -10 -11 0 -5 4 -8 8 -5 14 9 27 -86 21 -154 l-6 -65 -3
60 -3 60 -7 -45 c-4 -25 -3 -56 2 -70 11 -30 0 -383 -13 -419 -8 -19 -14 -22
-37 -16 -15 4 -28 8 -30 10 -4 4 -2 390 2 440 2 22 4 57 5 78 l1 37 40 -5 c32
-4 40 -2 40 11 0 13 -7 15 -37 11 -45 -7 -83 14 -65 36 7 8 7 18 2 27 -7 12
-11 9 -18 -10 -7 -18 -5 -31 5 -46 10 -16 13 -41 8 -96 -12 -158 -13 -178 -3
-178 5 0 7 -4 3 -9 -3 -5 -6 -75 -7 -154 l-2 -145 -40 -5 c-23 -2 -45 -1 -51
3 -18 13 -82 19 -93 8 -6 -6 -12 -6 -16 1 -4 6 1 11 11 12 10 0 13 3 6 6 -9 3
-13 32 -13 96 0 116 -18 468 -26 525 -4 24 -13 50 -21 57 -8 8 -10 15 -5 15 5
0 9 20 10 44 0 25 3 59 7 75 6 31 6 31 -34 31 -36 0 -63 14 -42 22 5 2 5 33 0
73 -8 61 -7 72 8 83 15 11 14 12 -9 12 -15 0 -28 -6 -31 -12z m477 -229 l7
-46 -55 1 c-51 1 -55 3 -60 28 -9 45 1 57 52 60 26 2 48 3 48 3 1 0 4 -21 8
-46z m-398 -33 c-3 -40 -1 -87 4 -105 5 -17 5 -31 0 -31 -12 0 -23 75 -15 110
4 19 3 30 -4 30 -6 0 -11 7 -11 15 0 8 5 15 10 15 6 0 9 3 9 8 -3 14 1 32 6
32 3 0 4 -33 1 -74z m267 49 c-3 -9 -8 -14 -10 -11 -3 3 -2 9 2 15 9 16 15 13
8 -4z m227 -29 c8 -38 2 -50 -24 -40 -12 5 -13 11 -6 24 6 10 10 29 10 41 0
31 10 18 20 -25z m-520 -30 c0 -8 -4 -18 -10 -21 -5 -3 -10 -4 -10 -1 0 2 -3
11 -6 20 -4 11 -1 16 10 16 9 0 16 -6 16 -14z m486 -120 c-24 -11 -26 -14 -11
-20 12 -4 26 1 41 15 l23 22 -9 -29 c-5 -16 -17 -78 -26 -137 -13 -82 -20
-107 -30 -103 -8 3 -14 1 -14 -3 0 -5 5 -11 11 -13 9 -3 9 -10 -1 -27 -9 -18
-9 -22 0 -16 9 6 10 -1 4 -26 -4 -19 -8 -42 -8 -51 0 -9 -3 -15 -7 -12 -19 11
-22 -147 -4 -163 4 -5 5 0 2 9 -4 10 -3 18 2 18 5 0 11 -17 14 -38 5 -40 -22
-83 -52 -81 -13 1 -12 2 2 6 18 5 23 19 9 25 -12 4 -24 58 -14 58 5 0 8 43 8
95 -1 68 3 98 12 104 15 9 14 108 -1 118 -5 3 -4 9 3 13 10 6 11 24 4 78 -9
64 -8 71 8 75 10 3 18 1 18 -4 0 -12 28 0 34 16 3 10 -2 11 -22 6 -32 -9 -76
1 -50 12 9 3 26 3 37 0 12 -3 21 -1 21 6 0 6 -9 11 -19 11 -29 0 -35 29 -8 40
34 14 56 10 23 -4z m-56 -16 c0 -5 -2 -10 -4 -10 -3 0 -8 5 -11 10 -3 6 -1 10
4 10 6 0 11 -4 11 -10z m-417 -41 c-4 -13 -9 -17 -16 -10 -12 12 -1 45 12 37
5 -3 7 -15 4 -27z m414 -281 c-3 -8 -6 -5 -6 6 -1 11 2 17 5 13 3 -3 4 -12 1
-19z m70 -80 c-2 -13 -4 -3 -4 22 0 25 2 35 4 23 2 -13 2 -33 0 -45z m-30 -60
c-3 -8 -6 -5 -6 6 -1 11 2 17 5 13 3 -3 4 -12 1 -19z m-10 -232 c0 -18 -21
-23 -107 -29 -36 -2 -55 -2 -42 0 12 2 22 9 22 15 0 6 15 7 40 3 25 -4 40 -3
40 3 0 9 12 15 41 21 3 0 6 -5 6 -13z m-204 -33 c-7 -2 -21 -2 -30 0 -10 3 -4
5 12 5 17 0 24 -2 18 -5z m207 -23 c0 -11 -4 -20 -10 -20 -5 0 -10 9 -10 20 0
11 5 20 10 20 6 0 10 -9 10 -20z"/>
<path d="M1800 244 c0 -14 4 -23 10 -19 6 3 10 15 10 26 0 10 -4 19 -10 19 -5
0 -10 -12 -10 -26z"/>
<path d="M2092 1208 c-6 -23 -7 -48 -3 -56 5 -9 10 5 14 39 6 67 3 72 -11 17z"/>
<path d="M842 1210 c0 -19 2 -27 5 -17 2 9 2 25 0 35 -3 9 -5 1 -5 -18z"/>
<path d="M977 1148 c-5 -76 -3 -98 7 -87 7 7 12 169 5 169 -3 0 -9 -37 -12
-82z"/>
<path d="M1790 1203 c1 -18 18 -35 24 -24 4 6 2 11 -4 11 -6 0 -8 5 -5 10 3 6
1 10 -4 10 -6 0 -11 -3 -11 -7z"/>
<path d="M1710 1180 c0 -11 2 -20 4 -20 2 0 6 9 9 20 3 11 1 20 -4 20 -5 0 -9
-9 -9 -20z"/>
<path d="M1840 1186 c0 -9 7 -16 16 -16 9 0 14 5 12 12 -6 18 -28 21 -28 4z"/>
<path d="M751 1174 c0 -11 3 -14 6 -6 3 7 2 16 -1 19 -3 4 -6 -2 -5 -13z"/>
<path d="M822 1170 c0 -14 2 -19 5 -12 2 6 2 18 0 25 -3 6 -5 1 -5 -13z"/>
<path d="M1660 1175 c0 -8 7 -15 16 -15 14 0 14 3 4 15 -7 8 -14 15 -16 15 -2
0 -4 -7 -4 -15z"/>
<path d="M2825 1170 c-3 -5 -1 -10 4 -10 6 0 11 5 11 10 0 6 -2 10 -4 10 -3 0
-8 -4 -11 -10z"/>
<path d="M1620 1160 c0 -5 5 -10 11 -10 5 0 7 5 4 10 -3 6 -8 10 -11 10 -2 0
-4 -4 -4 -10z"/>
<path d="M1745 1160 c-3 -5 1 -10 9 -10 9 0 16 5 16 10 0 6 -4 10 -9 10 -6 0
-13 -4 -16 -10z"/>
<path d="M1012 1117 c-1 -34 2 -47 10 -45 6 2 14 10 16 18 3 7 0 10 -6 6 -7
-4 -12 8 -15 31 -3 34 -4 33 -5 -10z"/>
<path d="M305 1139 c-9 -14 -2 -20 14 -10 8 6 9 11 3 15 -6 3 -14 1 -17 -5z"/>
<path d="M852 1110 c0 -14 2 -19 5 -12 2 6 2 18 0 25 -3 6 -5 1 -5 -13z"/>
<path d="M1040 1120 c-9 -6 -10 -10 -3 -10 6 0 15 5 18 10 8 12 4 12 -15 0z"/>
<path d="M1367 1109 c4 -13 8 -18 11 -10 2 7 -1 18 -6 23 -8 8 -9 4 -5 -13z"/>
<path d="M11 1074 c0 -11 3 -14 6 -6 3 7 2 16 -1 19 -3 4 -6 -2 -5 -13z"/>
<path d="M741 1064 c0 -11 3 -14 6 -6 3 7 2 16 -1 19 -3 4 -6 -2 -5 -13z"/>
<path d="M75 1060 c-3 -5 1 -10 10 -10 9 0 13 -4 10 -10 -3 -5 -2 -10 4 -10
20 0 21 19 2 30 -13 7 -22 7 -26 0z"/>
<path d="M200 1049 c0 -5 5 -7 10 -4 6 3 10 8 10 11 0 2 -4 4 -10 4 -5 0 -10
-5 -10 -11z"/>
<path d="M236 1043 c-6 -14 -5 -15 5 -6 7 7 10 15 7 18 -3 3 -9 -2 -12 -12z"/>
<path d="M949 1028 c-2 -18 -1 -51 2 -73 5 -32 6 -25 8 33 1 75 -4 96 -10 40z"/>
<path d="M2614 1027 c3 -16 6 -47 6 -68 0 -26 4 -39 14 -39 19 0 40 -26 27
-34 -6 -4 -8 -21 -5 -39 3 -19 2 -27 -3 -20 -5 7 -9 -2 -9 -26 -2 -50 -71
-169 -140 -241 -58 -60 -59 -81 -2 -28 87 82 152 193 174 301 12 58 13 82 3
143 -12 69 -14 72 -42 77 -27 4 -29 2 -23 -26z m58 -77 c2 -22 0 -36 -3 -32
-8 8 -12 29 -10 55 2 30 9 18 13 -23z"/>
<path d="M920 985 l-3 -70 -8 50 -7 50 3 -55 c3 -54 25 -194 30 -188 1 2 -1
66 -5 143 -5 106 -7 123 -10 70z"/>
<path d="M1014 1025 c1 -33 16 -33 16 0 0 14 -4 25 -9 25 -5 0 -8 -11 -7 -25z"/>
<path d="M2082 1027 c-7 -14 -8 -36 -4 -57 l8 -35 17 49 c20 59 20 53 3 59 -7
3 -18 -4 -24 -16z"/>
<path d="M2150 1040 c8 -5 70 -10 138 -10 l122 0 0 -44 c0 -44 13 -68 23 -43
3 7 3 34 0 60 l-6 47 -146 0 c-98 0 -141 -3 -131 -10z"/>
<path d="M2458 1042 c12 -8 72 -4 72 4 0 2 -19 4 -42 4 -26 0 -38 -4 -30 -8z"/>
<path d="M2544 1013 c3 -21 6 -49 6 -63 0 -20 5 -26 25 -28 24 -2 25 0 25 63
l0 65 -31 0 c-31 0 -31 -1 -25 -37z m33 -27 c-1 -19 -5 -32 -9 -30 -10 6 -7
64 4 64 4 0 7 -15 5 -34z"/>
<path d="M981 941 c-1 -104 3 -124 12 -64 3 17 8 36 11 42 4 5 2 12 -3 16 -6
3 -8 11 -5 18 2 7 0 31 -5 52 -7 34 -9 23 -10 -64z"/>
<path d="M751 1004 c0 -11 3 -14 6 -6 3 7 2 16 -1 19 -3 4 -6 -2 -5 -13z"/>
<path d="M2130 996 c0 -14 5 -28 12 -32 6 -4 8 -3 4 4 -3 6 -2 13 3 17 12 7 3
35 -10 35 -5 0 -9 -11 -9 -24z"/>
<path d="M2825 980 c-3 -5 -1 -10 4 -10 6 0 11 5 11 10 0 6 -2 10 -4 10 -3 0
-8 -4 -11 -10z"/>
<path d="M2454 936 c-15 -11 -11 -14 32 -19 68 -7 77 5 16 22 -21 7 -36 5 -48
-3z"/>
<path d="M861 914 c0 -11 3 -14 6 -6 3 7 2 16 -1 19 -3 4 -6 -2 -5 -13z"/>
<path d="M752 900 c0 -14 2 -19 5 -12 2 6 2 18 0 25 -3 6 -5 1 -5 -13z"/>
<path d="M2614 902 c-6 -4 -17 -18 -24 -31 l-13 -25 31 25 c30 23 40 39 25 39
-5 0 -13 -4 -19 -8z"/>
<path d="M1645 884 c-13 -14 -14 -19 -3 -25 8 -5 15 -4 17 4 2 7 8 15 14 18 6
4 5 9 -1 13 -6 3 -18 -1 -27 -10z"/>
<path d="M1700 880 c8 -5 24 -10 34 -10 26 0 18 6 -19 14 -22 5 -26 4 -15 -4z"/>
<path d="M2696 855 c-18 -78 -30 -114 -53 -160 -28 -56 -83 -128 -126 -164
-54 -45 -78 -102 -78 -183 -1 -119 15 -142 126 -174 68 -20 75 -28 69 -86 -2
-27 1 -34 16 -34 14 0 16 3 8 13 -8 10 -7 13 3 13 11 0 11 3 -1 11 -10 7 -11
12 -3 15 8 4 7 16 -5 43 -15 35 -21 39 -76 50 -68 14 -109 38 -102 58 3 8 -1
16 -9 19 -25 10 -20 111 8 151 23 34 32 39 42 23 3 -5 12 -7 20 -4 11 5 12 9
2 19 -9 9 -14 10 -19 1 -6 -8 -8 -8 -8 1 0 17 92 121 108 122 7 1 12 -10 12
-26 -1 -27 6 -71 16 -103 3 -8 4 -15 2 -16 -2 0 3 -8 10 -16 7 -9 13 -38 13
-67 2 -70 16 -65 17 7 0 35 -6 66 -16 82 -8 13 -21 54 -28 90 -11 58 -10 70 8
114 10 27 24 58 30 70 6 11 12 34 14 50 4 55 20 60 207 67 32 1 60 5 62 9 2 4
-54 5 -125 3 -118 -4 -129 -3 -133 14 -3 13 -6 10 -11 -12z"/>
<path d="M1685 840 c-3 -5 -1 -10 4 -10 6 0 11 5 11 10 0 6 -2 10 -4 10 -3 0
-8 -4 -11 -10z"/>
<path d="M950 818 c0 -22 17 -42 24 -29 4 6 0 18 -8 27 -12 12 -16 12 -16 2z"/>
<path d="M1500 821 c0 -6 4 -13 10 -16 6 -3 7 1 4 9 -7 18 -14 21 -14 7z"/>
<path d="M801 804 c0 -11 3 -14 6 -6 3 7 2 16 -1 19 -3 4 -6 -2 -5 -13z"/>
<path d="M2595 810 c3 -5 8 -10 11 -10 2 0 4 5 4 10 0 6 -5 10 -11 10 -5 0 -7
-4 -4 -10z"/>
<path d="M850 773 c0 -18 2 -33 4 -33 9 0 13 39 5 51 -6 10 -9 4 -9 -18z"/>
<path d="M772 740 c0 -19 2 -27 5 -17 2 9 2 25 0 35 -3 9 -5 1 -5 -18z"/>
<path d="M1701 668 c-8 -36 -8 -67 -1 -98 l9 -45 -4 51 c-2 28 1 70 6 94 5 23
8 45 5 47 -2 3 -9 -19 -15 -49z"/>
<path d="M1980 685 l-35 -12 60 -5 c33 -2 61 -4 62 -3 1 1 -10 8 -25 17 -23
13 -33 13 -62 3z"/>
<path d="M2834 625 c8 -121 11 -138 25 -165 8 -13 15 -60 16 -107 2 -65 -1
-85 -14 -96 -33 -27 -46 -15 -48 43 -5 138 -11 180 -31 212 -22 36 -37 152
-18 141 6 -4 5 1 -3 10 -7 9 -15 17 -17 17 -12 0 12 -151 28 -184 17 -33 19
-55 16 -148 -2 -83 -7 -111 -18 -118 -11 -7 -6 -8 15 -4 17 3 49 -2 73 -10 24
-9 65 -18 92 -22 75 -10 62 11 -15 27 -36 7 -65 16 -65 21 0 4 7 8 16 8 13 0
15 14 10 98 -2 53 -12 113 -20 133 -8 20 -18 65 -22 101 -6 60 -5 65 17 75 24
12 24 12 2 12 -12 1 -27 9 -33 19 -8 13 -9 -3 -6 -63z"/>
<path d="M896 673 c-3 -10 -9 -25 -13 -33 -5 -11 -2 -11 10 2 9 9 22 18 29 20
6 2 8 10 4 16 -10 17 -23 15 -30 -5z"/>
<path d="M2927 684 c-4 -4 0 -12 9 -18 8 -7 18 -32 20 -56 4 -30 2 -41 -4 -31
-6 8 -12 10 -16 3 -4 -6 4 -20 16 -32 21 -19 23 -20 29 -3 4 10 3 26 -2 35
-12 23 -11 58 1 58 19 0 10 19 -12 26 -13 4 -26 11 -29 15 -3 5 -8 6 -12 3z"/>
<path d="M172 645 c-7 -8 -11 -15 -10 -16 2 0 26 -3 53 -5 28 -2 66 -7 85 -11
40 -7 120 -12 120 -7 0 1 -26 8 -57 15 -70 15 -72 16 -75 19 -2 1 -20 3 -40 4
-20 1 -40 5 -44 9 -10 10 -17 8 -32 -8z"/>
<path d="M368 633 c12 -2 30 -2 40 0 9 3 -1 5 -23 4 -22 0 -30 -2 -17 -4z"/>
<path d="M872 595 c0 -16 2 -22 5 -12 2 9 2 23 0 30 -3 6 -5 -1 -5 -18z"/>
<path d="M430 600 c0 -5 7 -10 16 -10 8 0 12 5 9 10 -3 6 -10 10 -16 10 -5 0
-9 -4 -9 -10z"/>
<path d="M1742 570 c0 -14 2 -19 5 -12 2 6 2 18 0 25 -3 6 -5 1 -5 -13z"/>
<path d="M64 566 c-16 -13 -17 -17 -5 -28 12 -11 13 -11 6 2 -7 13 -6 13 7 2
12 -10 18 -9 28 3 10 12 10 15 -4 15 -10 0 -14 5 -11 10 9 14 2 13 -21 -4z"/>
<path d="M230 532 c8 -6 35 -12 60 -16 27 -3 39 -2 30 3 -21 12 -109 24 -90
13z"/>
<path d="M2305 517 c-31 -18 -25 -42 10 -44 28 -3 28 -2 7 7 -24 10 -22 30 4
30 8 0 14 5 14 10 0 12 -9 11 -35 -3z"/>
<path d="M2941 515 c-1 -5 6 -31 13 -57 13 -42 17 -172 5 -181 -2 -2 -15 -8
-29 -14 l-25 -12 32 0 c39 -1 65 8 57 20 -3 5 -7 46 -9 92 -2 58 -9 94 -24
122 -11 22 -20 36 -20 30z"/>
<path d="M876 494 c-3 -9 -4 -20 0 -25 10 -16 22 -9 26 16 6 28 -16 36 -26 9z"/>
<path d="M2385 500 c-53 -7 -52 -12 5 -14 29 -1 36 -5 38 -24 3 -22 4 -23 17
-5 19 24 18 33 -1 33 -8 0 -12 5 -9 10 3 6 5 9 3 8 -2 0 -25 -4 -53 -8z"/>
<path d="M55 491 c-3 -5 -2 -12 3 -15 5 -3 9 1 9 9 0 17 -3 19 -12 6z"/>
<path d="M1324 446 c-17 -13 -17 -14 9 -13 27 2 35 11 18 21 -4 3 -17 -1 -27
-8z"/>
<path d="M2342 449 c-24 -9 -26 -17 -13 -37 6 -10 10 -9 14 7 11 45 22 17 24
-62 1 -75 0 -80 -13 -62 -9 11 -13 33 -11 48 2 15 0 30 -5 33 -5 3 -8 -18 -7
-47 2 -41 6 -53 21 -57 10 -2 15 -8 13 -13 -3 -4 -12 -6 -20 -3 -8 4 -30 -11
-52 -35 l-39 -40 23 -12 c13 -7 21 -19 19 -26 -3 -7 0 -15 7 -19 7 -4 9 -4 5
1 -13 14 13 35 41 34 14 0 20 -3 14 -6 -27 -10 -11 -23 27 -23 22 0 40 4 40
10 0 14 44 23 71 15 16 -6 18 -9 8 -16 -8 -4 -19 -3 -26 3 -8 6 -16 8 -20 4
-3 -3 -1 -6 6 -6 7 0 9 -5 5 -11 -5 -8 6 -9 37 -4 48 8 59 12 59 24 0 11 -67
30 -89 24 -10 -3 -22 0 -25 6 -4 6 -2 11 4 11 6 0 9 4 6 9 -3 4 -21 3 -41 -3
-27 -8 -31 -12 -17 -18 21 -8 -84 -10 -115 -2 -13 4 -20 10 -18 15 3 4 17 4
31 -1 62 -24 84 -9 84 55 0 18 5 35 12 37 6 2 12 14 13 26 1 11 -2 19 -6 16
-11 -6 -33 36 -23 44 4 4 9 1 11 -5 7 -18 23 -16 23 3 0 8 -4 13 -8 10 -4 -2
-14 -1 -22 4 -11 7 -8 11 14 19 33 13 29 37 -5 33 -17 -2 -20 0 -11 6 19 13
-17 22 -46 11z m18 -219 c-13 -9 -13 -11 0 -20 12 -8 11 -10 -7 -10 -12 0 -29
3 -38 7 -15 5 -14 8 6 19 30 16 63 20 39 4z"/>
<path d="M595 440 c3 -5 14 -10 23 -10 15 0 15 2 2 10 -20 13 -33 13 -25 0z"/>
<path d="M36 425 c-3 -8 -1 -15 4 -15 6 0 10 7 10 15 0 8 -2 15 -4 15 -2 0 -6
-7 -10 -15z"/>
<path d="M1180 403 c0 -5 14 -8 30 -9 17 -1 30 3 30 7 0 5 -13 9 -30 9 -16 0
-30 -3 -30 -7z"/>
<path d="M1250 400 c0 -6 4 -9 9 -5 5 3 12 1 16 -5 9 -15 68 -13 63 3 -6 15
-88 22 -88 7z"/>
<path d="M430 390 c0 -5 5 -10 10 -10 6 0 10 5 10 10 0 6 -4 10 -10 10 -5 0
-10 -4 -10 -10z"/>
<path d="M660 375 c0 -8 4 -15 10 -15 5 0 7 7 4 15 -4 8 -8 15 -10 15 -2 0 -4
-7 -4 -15z"/>
<path d="M590 369 c0 -5 11 -9 25 -9 33 0 33 15 0 16 -14 1 -25 -2 -25 -7z"/>
<path d="M20 356 c0 -9 5 -16 10 -16 6 0 10 4 10 9 0 6 -4 13 -10 16 -5 3 -10
-1 -10 -9z"/>
<path d="M408 343 c6 -2 18 -2 25 0 6 3 1 5 -13 5 -14 0 -19 -2 -12 -5z"/>
<path d="M575 320 c-3 -5 -1 -10 4 -10 6 0 11 5 11 10 0 6 -2 10 -4 10 -3 0
-8 -4 -11 -10z"/>
<path d="M470 313 c8 -3 22 -11 30 -17 13 -10 13 -9 1 7 -7 9 -21 17 -30 16
-13 0 -14 -1 -1 -6z"/>
<path d="M526 291 c-13 -15 -14 -18 -1 -18 8 0 12 4 9 8 -2 4 4 9 13 11 12 2
14 6 7 10 -6 4 -19 -1 -28 -11z"/>
<path d="M6 286 c6 -15 39 -28 48 -19 8 8 -21 33 -38 33 -9 0 -13 -6 -10 -14z"/>
<path d="M250 291 c0 -5 9 -13 20 -16 26 -8 82 4 74 16 -7 12 -94 12 -94 0z"/>
<path d="M572 288 c-16 -16 -15 -25 2 -25 8 0 14 9 13 19 -2 21 0 21 -15 6z"/>
<path d="M2138 293 c7 -3 16 -2 19 1 4 3 -2 6 -13 5 -11 0 -14 -3 -6 -6z"/>
<path d="M2670 281 c0 -11 4 -22 9 -25 4 -3 6 6 3 19 -5 30 -12 33 -12 6z"/>
<path d="M410 280 c0 -12 24 -12 60 0 21 7 19 8 -17 9 -24 1 -43 -3 -43 -9z"/>
<path d="M80 261 c0 -6 4 -12 8 -15 5 -3 9 1 9 9 0 8 -4 15 -9 15 -4 0 -8 -4
-8 -9z"/>
<path d="M2414 243 c5 -17 3 -29 -6 -34 -10 -7 -9 -9 4 -9 9 0 20 5 23 11 9
14 -3 59 -16 59 -7 0 -9 -10 -5 -27z"/>
<path d="M2 220 c-1 -30 3 -41 22 -53 18 -12 26 -13 36 -4 10 10 12 8 7 -5 -4
-11 -2 -15 7 -12 23 9 13 32 -22 51 -19 10 -33 23 -31 28 2 6 8 9 12 7 5 -1 7
3 5 9 -2 7 -11 13 -19 15 -12 1 -16 -8 -17 -36z m53 -41 c3 -4 1 -10 -5 -14
-5 -3 -10 -1 -10 4 0 6 -7 11 -15 11 -8 0 -15 4 -15 9 0 11 38 3 45 -10z"/>
<path d="M1132 245 c-11 -13 -10 -15 5 -16 12 -1 10 -3 -7 -9 -22 -6 -23 -8
-7 -15 9 -4 17 -13 17 -21 0 -19 16 -18 24 2 5 13 9 14 21 4 23 -19 19 12 -6
44 -23 30 -29 31 -47 11z m48 -25 c0 -5 -2 -10 -4 -10 -3 0 -8 5 -11 10 -3 6
-1 10 4 10 6 0 11 -4 11 -10z"/>
<path d="M60 230 c8 -5 22 -9 30 -9 10 0 8 3 -5 9 -27 12 -43 12 -25 0z"/>
<path d="M460 230 c0 -5 7 -10 16 -10 8 0 12 5 9 10 -3 6 -10 10 -16 10 -5 0
-9 -4 -9 -10z"/>
<path d="M535 230 c-3 -5 -1 -10 4 -10 6 0 11 5 11 10 0 6 -2 10 -4 10 -3 0
-8 -4 -11 -10z"/>
<path d="M2625 230 c-4 -6 6 -7 25 -4 16 4 30 3 30 -2 0 -5 16 -10 35 -11 47
-2 45 13 -2 21 -54 8 -81 7 -88 -4z"/>
<path d="M387 223 c-2 -5 7 -19 21 -33 14 -14 20 -17 13 -7 -16 20 -16 20 27
8 43 -13 40 -7 -8 18 -46 24 -47 24 -53 14z"/>
<path d="M557 215 c-12 -8 -14 -15 -8 -20 6 -3 11 -1 11 6 0 8 4 8 15 -1 20
-17 28 -8 12 13 -10 14 -15 14 -30 2z"/>
<path d="M278 213 c7 -3 16 -2 19 1 4 3 -2 6 -13 5 -11 0 -14 -3 -6 -6z"/>
<path d="M318 213 c7 -3 16 -2 19 1 4 3 -2 6 -13 5 -11 0 -14 -3 -6 -6z"/>
<path d="M615 210 c3 -5 8 -10 11 -10 2 0 4 5 4 10 0 6 -5 10 -11 10 -5 0 -7
-4 -4 -10z"/>
<path d="M238 203 c7 -3 16 -2 19 1 4 3 -2 6 -13 5 -11 0 -14 -3 -6 -6z"/>
<path d="M245 180 c-16 -7 -17 -9 -3 -9 9 -1 20 4 23 9 7 11 7 11 -20 0z"/>
<path d="M304 169 c-4 -7 -3 -9 4 -5 6 3 13 2 17 -4 8 -14 25 -13 25 2 0 6 -3
8 -7 5 -3 -4 -12 -2 -19 4 -8 7 -14 6 -20 -2z"/>
<path d="M495 170 c-3 -5 3 -10 14 -10 12 0 21 5 21 10 0 6 -6 10 -14 10 -8 0
-18 -4 -21 -10z"/>
<path d="M125 160 c3 -5 14 -10 23 -10 15 0 15 -2 2 -10 -9 -6 -10 -10 -3 -10
19 0 27 21 12 31 -19 12 -42 11 -34 -1z"/>
<path d="M570 160 c-21 -7 -22 -8 -5 -9 22 -2 76 -30 60 -31 -14 -2 27 -19 45
-19 9 0 5 5 -9 13 -20 11 -21 14 -7 19 29 11 7 29 -26 22 -21 -5 -28 -4 -24 4
8 12 2 13 -34 1z"/>
<path d="M1968 163 c6 -2 18 -2 25 0 6 3 1 5 -13 5 -14 0 -19 -2 -12 -5z"/>
<path d="M2185 160 c-4 -7 3 -9 22 -5 19 5 24 4 15 -3 -11 -7 -8 -11 12 -14
23 -5 24 -3 14 10 -11 13 -10 15 5 9 11 -4 16 -3 12 3 -8 13 -72 13 -80 0z"/>
<path d="M388 153 c-10 -2 -18 -9 -18 -13 0 -6 10 -6 24 0 13 4 27 5 32 1 5
-5 23 -11 39 -14 17 -4 24 -4 17 -1 -6 3 -9 10 -6 16 5 7 -2 9 -20 6 -14 -3
-26 -1 -26 3 0 9 -13 10 -42 2z"/>
<path d="M672 140 c-11 -17 -10 -20 7 -20 14 0 18 5 14 20 -3 11 -6 20 -7 20
-1 0 -7 -9 -14 -20z"/>
<path d="M2141 151 c-10 -6 -9 -12 4 -25 9 -9 23 -16 30 -16 19 0 28 17 14 26
-8 5 -9 3 -4 -6 5 -8 3 -11 -6 -8 -8 3 -14 10 -14 16 0 16 -9 22 -24 13z"/>
<path d="M2930 156 c0 -2 13 -6 29 -8 17 -2 28 -1 25 4 -5 8 -54 12 -54 4z"/>
<path d="M0 140 c0 -8 50 -24 56 -18 2 2 -10 9 -26 15 -17 6 -30 8 -30 3z"/>
<path d="M185 140 c-6 -10 13 -15 48 -12 9 1 17 -3 17 -9 0 -6 7 -9 15 -6 8 4
17 2 20 -4 4 -5 10 -7 15 -4 5 3 12 0 16 -6 5 -8 -5 -9 -34 -4 -27 4 -49 2
-68 -8 l-27 -14 28 -7 c17 -4 32 -3 39 5 8 8 5 9 -13 4 -16 -5 -21 -4 -17 4 8
12 84 4 100 -10 5 -5 -2 -13 -18 -19 -40 -15 -55 -12 -26 6 14 9 17 13 7 10
-47 -15 -65 -15 -106 -3 l-45 14 32 6 c18 4 32 11 32 17 0 7 -6 7 -20 0 -12
-6 -31 -8 -43 -5 -18 5 -19 4 -7 -5 19 -13 -29 -3 -77 17 -18 7 -38 13 -44 13
-21 0 1 -14 49 -33 l47 -17 -38 4 c-24 3 -35 1 -31 -6 4 -6 -2 -8 -17 -3 -19
5 -21 4 -9 -4 13 -10 13 -12 0 -21 -9 -6 -10 -10 -3 -10 6 0 15 5 18 10 4 6
16 8 28 5 16 -5 18 -4 8 3 -9 7 -3 11 25 15 38 5 140 -17 227 -49 20 -8 43
-14 50 -14 19 1 -36 29 -58 30 -20 1 -20 1 0 10 28 12 37 12 30 0 -3 -5 -2
-10 4 -10 16 0 22 18 9 23 -10 3 -10 8 -2 17 9 8 21 9 48 2 26 -8 34 -7 30 0
-4 6 2 18 12 25 17 14 16 14 -13 8 -24 -5 -33 -3 -33 6 0 7 -6 4 -15 -7 -8
-11 -15 -14 -15 -6 0 6 -4 12 -10 12 -6 0 -9 -5 -8 -11 2 -6 -2 -13 -9 -16 -7
-3 -9 3 -6 16 4 17 1 21 -16 21 -12 0 -32 5 -43 11 -31 16 -75 21 -83 9z"/>
<path d="M2568 128 c-24 -24 -23 -25 15 -20 44 6 30 -6 -16 -13 -32 -5 -36 -4
-30 11 5 14 3 16 -11 11 -10 -4 -23 -7 -29 -7 -6 0 -1 -7 11 -16 28 -19 73
-25 90 -11 9 7 11 5 5 -9 -3 -10 -11 -22 -17 -26 -7 -5 -4 -8 7 -8 9 0 18 8
19 18 5 63 4 73 -11 81 -11 5 -22 2 -33 -11z m39 -4 c-3 -3 -12 -4 -19 -1 -8
3 -5 6 6 6 11 1 17 -2 13 -5z"/>
<path d="M2879 148 c-5 -18 -6 -38 -1 -34 7 8 12 36 6 36 -2 0 -4 -1 -5 -2z"/>
<path d="M505 130 c-8 -13 15 -13 35 0 12 8 11 10 -7 10 -12 0 -25 -4 -28 -10z"/>
<path d="M2940 135 c0 -9 38 -43 43 -38 6 6 -24 43 -35 43 -5 0 -8 -2 -8 -5z"/>
<path d="M74 118 c-5 -7 -1 -9 9 -5 10 3 17 3 17 -2 0 -5 14 -8 30 -6 35 2 53
15 24 16 -10 0 -31 2 -46 4 -15 2 -31 -1 -34 -7z"/>
<path d="M595 120 c-3 -5 -1 -10 4 -10 6 0 11 5 11 10 0 6 -2 10 -4 10 -3 0
-8 -4 -11 -10z"/>
<path d="M1957 119 c7 -7 15 -10 18 -7 3 3 -2 9 -12 12 -14 6 -15 5 -6 -5z"/>
<path d="M1176 105 c4 -8 10 -15 15 -15 5 0 9 7 9 15 0 8 -7 15 -15 15 -9 0
-12 -6 -9 -15z"/>
<path d="M1216 105 c2 -5 37 -10 77 -10 52 0 71 -3 70 -12 -2 -7 1 -13 6 -13
15 0 21 14 12 28 -10 16 -171 22 -165 7z"/>
<path d="M2024 112 c3 -5 0 -13 -6 -15 -9 -4 -10 -6 -1 -6 17 -1 25 16 12 25
-7 4 -9 3 -5 -4z"/>
<path d="M2680 110 c0 -7 71 -22 77 -16 2 2 -14 8 -37 14 -22 5 -40 6 -40 2z"/>
<path d="M2910 110 c0 -6 -9 -10 -19 -10 -30 0 -35 -17 -9 -31 16 -9 23 -9 26
0 2 6 13 11 23 11 11 0 18 -4 15 -8 -3 -5 8 -6 25 -4 16 2 29 8 29 12 0 4 -12
5 -26 2 -17 -3 -25 -1 -21 5 4 6 -5 15 -18 21 -15 7 -25 8 -25 2z m15 -20
c-11 -5 -29 -8 -40 -8 -16 0 -15 2 5 8 34 11 60 11 35 0z"/>
<path d="M461 95 c-19 -6 -29 -15 -24 -18 6 -4 27 3 49 13 42 22 28 25 -25 5z"/>
<path d="M2046 95 c-3 -8 -1 -15 3 -15 5 0 11 7 15 15 3 8 1 15 -3 15 -5 0
-11 -7 -15 -15z"/>
<path d="M578 93 c6 -2 18 -2 25 0 6 3 1 5 -13 5 -14 0 -19 -2 -12 -5z"/>
<path d="M2780 90 c0 -6 7 -10 15 -10 8 0 15 2 15 4 0 2 -7 6 -15 10 -8 3 -15
1 -15 -4z"/>
<path d="M1224 68 c-3 -5 -4 -11 -3 -13 6 -5 59 7 59 14 0 10 -50 10 -56 -1z"/>
<path d="M1620 59 c0 -5 5 -7 10 -4 6 3 10 8 10 11 0 2 -4 4 -10 4 -5 0 -10
-5 -10 -11z"/>
<path d="M2185 60 c-3 -5 -1 -10 4 -10 6 0 11 5 11 10 0 6 -2 10 -4 10 -3 0
-8 -4 -11 -10z"/>
<path d="M2233 64 c-13 -3 -23 -12 -23 -19 0 -16 30 -9 42 9 5 7 8 4 8 -6 0
-11 8 -18 19 -18 11 0 22 8 24 18 4 15 5 15 6 -2 1 -12 6 -16 16 -12 8 3 15 0
15 -6 0 -7 6 -4 13 7 10 12 16 14 21 7 4 -7 15 -12 24 -12 13 0 12 3 -5 15
-22 16 -121 27 -160 19z"/>
<path d="M1346 44 c-6 -17 12 -49 22 -39 4 3 8 17 9 30 4 29 -21 35 -31 9z"/>
<path d="M1710 46 c0 -9 5 -16 10 -16 6 0 10 4 10 9 0 6 -4 13 -10 16 -5 3
-10 -1 -10 -9z"/>
<path d="M130 40 c0 -6 6 -10 13 -8 7 2 14 -1 15 -6 1 -5 -9 -10 -23 -12 -14
-1 -23 1 -20 6 8 13 -26 22 -40 10 -7 -6 -19 -8 -27 -5 -7 3 -21 0 -31 -7 -15
-12 -14 -13 12 -15 16 -1 35 4 41 12 7 8 17 15 22 15 7 0 7 -5 0 -13 -8 -10
-1 -12 31 -13 47 0 79 25 49 38 -26 10 -42 9 -42 -2z"/>
<path d="M395 40 c-3 -6 1 -7 9 -4 18 7 21 14 7 14 -6 0 -13 -4 -16 -10z"/>
<path d="M460 40 c0 -13 11 -13 30 0 12 8 11 10 -7 10 -13 0 -23 -4 -23 -10z"/>
<path d="M1040 40 c-8 -5 -12 -11 -9 -14 2 -3 11 -1 19 4 8 5 12 11 9 14 -2 3
-11 1 -19 -4z"/>
<path d="M2915 40 c3 -5 10 -10 16 -10 5 0 9 5 9 10 0 6 -7 10 -16 10 -8 0
-12 -4 -9 -10z"/>
<path d="M2968 43 c-10 -2 -18 -12 -17 -21 0 -11 2 -12 6 -4 2 6 11 12 19 12
8 0 14 5 14 10 0 6 -1 9 -2 9 -2 -1 -11 -3 -20 -6z"/>
<path d="M950 32 c0 -2 7 -10 15 -18 11 -11 19 -12 32 -5 14 8 15 11 3 11 -10
1 -9 4 5 10 15 7 11 8 -17 7 -21 -1 -38 -3 -38 -5z"/>
<path d="M1144 28 c-4 -5 -1 -15 5 -21 9 -9 10 -8 5 7 -6 15 -4 17 15 11 13
-4 33 -8 44 -10 12 -1 40 -5 62 -8 l40 -6 -40 11 c-22 6 -42 14 -45 17 -8 10
-80 9 -86 -1z"/>
<path d="M2439 38 c-7 -24 -5 -36 5 -32 14 5 17 34 4 34 -4 0 -8 -1 -9 -2z"/>
<path d="M2628 33 c7 -3 16 -2 19 1 4 3 -2 6 -13 5 -11 0 -14 -3 -6 -6z"/>
<path d="M190 13 c-12 -15 -12 -16 0 -5 16 14 34 16 26 4 -3 -5 16 -9 42 -9
45 -1 45 -1 12 7 -19 4 -42 10 -51 14 -10 4 -21 0 -29 -11z"/>
<path d="M371 20 c8 -5 30 -10 49 -13 19 -2 27 -2 18 0 -10 2 -18 7 -18 11 0
4 -14 8 -31 8 -20 1 -26 -2 -18 -6z"/>
<path d="M727 23 c-10 -9 -9 -23 1 -23 5 0 9 7 9 15 0 17 -1 18 -10 8z"/>
<path d="M790 16 c0 -11 9 -16 26 -16 31 0 28 23 -4 28 -15 2 -22 -2 -22 -12z"/>
<path d="M2290 10 c0 -5 5 -10 11 -10 5 0 7 5 4 10 -3 6 -8 10 -11 10 -2 0 -4
-4 -4 -10z"/>
<path d="M2370 9 c0 -5 5 -7 10 -4 6 3 10 8 10 11 0 2 -4 4 -10 4 -5 0 -10 -5
-10 -11z"/>
<path d="M2470 10 c0 -5 5 -10 11 -10 5 0 7 5 4 10 -3 6 -8 10 -11 10 -2 0 -4
-4 -4 -10z"/>
<path d="M2880 10 c-12 -7 -10 -9 7 -7 12 0 19 5 17 9 -6 10 -6 10 -24 -2z"/>
<path d="M478 3 c7 -3 16 -2 19 1 4 3 -2 6 -13 5 -11 0 -14 -3 -6 -6z"/>
<path d="M2578 3 c7 -3 16 -2 19 1 4 3 -2 6 -13 5 -11 0 -14 -3 -6 -6z"/>
</g>
</svg>
