<?xml version="1.0" standalone="no"?>
<!DOCTYPE svg PUBLIC "-//W3C//DTD SVG 20010904//EN"
 "http://www.w3.org/TR/2001/REC-SVG-20010904/DTD/svg10.dtd">
<svg version="1.0" xmlns="http://www.w3.org/2000/svg"
 width="300.000000pt" height="168.000000pt" viewBox="0 0 300.000000 168.000000"
 preserveAspectRatio="xMidYMid meet">
<metadata>
Created by potrace 1.10, written by Peter Selinger 2001-2011
</metadata>
<g transform="translate(0.000000,168.000000) scale(0.100000,-0.100000)"
fill="#000000" stroke="none">
<path d="M1426 1671 c-4 -5 -2 -11 4 -13 6 -2 4 -15 -5 -32 -11 -21 -13 -32
-5 -40 8 -8 9 -6 5 7 -4 10 -2 17 4 17 10 0 16 -27 12 -57 -1 -6 3 -14 9 -18
5 -3 10 -15 10 -25 0 -10 10 -40 22 -67 12 -26 20 -54 19 -62 -1 -7 2 -10 8
-6 10 6 16 -8 12 -28 -1 -5 3 -6 8 -3 13 8 34 -21 27 -39 -3 -8 -10 -15 -16
-15 -6 0 -8 5 -4 12 4 7 3 8 -5 4 -6 -4 -9 -12 -6 -17 4 -5 -2 -12 -12 -16
-10 -4 -26 -17 -36 -30 -10 -13 -23 -21 -28 -18 -5 4 -6 -2 -2 -11 4 -10 2
-15 -4 -11 -6 4 -9 -6 -8 -23 1 -17 -1 -30 -5 -30 -3 0 -4 -16 -2 -35 3 -22 0
-35 -7 -35 -7 0 -9 -5 -5 -12 4 -7 -2 -5 -14 6 -12 10 -19 23 -16 27 3 5 -2
12 -10 15 -9 3 -16 12 -16 20 0 8 -4 14 -10 14 -5 0 -10 6 -10 14 0 7 -7 19
-15 26 -8 7 -12 16 -9 21 3 5 0 9 -6 9 -6 0 -9 4 -6 8 3 5 -4 14 -14 22 -10 8
-17 17 -14 21 2 5 -9 15 -25 24 -16 8 -37 25 -45 37 -9 12 -16 19 -16 15 0 -4
-8 -3 -19 2 -10 6 -35 11 -55 13 -20 1 -36 6 -36 11 0 4 -3 6 -7 4 -5 -3 -17
-1 -29 3 -16 6 -22 20 -27 60 -4 29 -12 58 -18 66 -6 8 -8 14 -4 14 4 0 2 6
-4 13 -6 8 -8 17 -4 20 3 4 1 7 -5 7 -6 0 -18 13 -27 30 -23 45 -124 70 -176
44 -15 -7 -29 -10 -33 -7 -3 4 -6 1 -6 -5 0 -7 -6 -12 -13 -12 -17 0 -43 -43
-28 -48 6 -2 11 -10 11 -18 0 -9 4 -13 8 -10 4 2 8 -4 8 -14 0 -10 -4 -16 -8
-14 -4 3 -8 -2 -8 -10 0 -8 5 -18 10 -21 6 -3 10 -2 10 3 0 15 70 53 82 46 6
-4 8 -2 5 3 -4 7 2 11 16 10 12 0 30 3 39 7 12 5 25 0 42 -17 14 -14 28 -22
32 -18 4 3 4 -2 1 -12 -4 -11 -1 -20 8 -23 7 -3 12 -11 9 -17 -2 -7 3 -32 11
-57 l15 -45 -5 45 c-10 90 -15 104 -43 139 -29 36 -72 64 -104 66 -25 2 -23
-16 2 -22 11 -3 20 -9 20 -13 0 -10 -58 -25 -79 -21 -7 1 -10 -2 -7 -7 3 -6
-1 -13 -10 -16 -22 -8 -28 -1 -17 18 8 14 12 16 33 16 5 0 7 7 4 15 -7 18 7
20 24 3 14 -14 16 0 4 20 -7 10 -15 8 -35 -8 -15 -12 -27 -18 -27 -14 0 5 -5
3 -12 -4 -13 -13 -28 -16 -28 -4 0 10 69 48 100 55 58 14 134 -38 167 -113 8
-19 18 -65 22 -101 6 -62 5 -68 -17 -88 -13 -11 -21 -25 -18 -30 4 -5 2 -12
-4 -16 -5 -3 -10 1 -10 9 0 20 -26 21 -34 1 -3 -8 0 -14 7 -12 14 2 11 -33 -4
-48 -7 -6 -13 -5 -19 5 -8 12 -13 13 -30 3 -36 -23 -35 -14 3 22 20 19 37 40
37 46 0 7 -21 -11 -48 -40 -26 -28 -50 -51 -54 -51 -8 0 -38 59 -38 74 0 6 11
11 25 11 17 0 24 -4 20 -13 -3 -8 -5 -16 -5 -18 0 -3 -5 -2 -12 2 -7 4 -8 3
-4 -4 12 -19 25 -14 32 13 4 16 -1 37 -15 60 -11 19 -16 35 -10 35 6 0 7 5 4
10 -3 6 1 10 10 10 12 0 14 4 5 19 -13 26 -47 36 -66 20 -12 -10 -12 -14 6
-26 11 -8 20 -25 20 -38 0 -13 4 -25 9 -27 5 -1 11 -10 13 -18 4 -21 -42 -21
-64 0 -15 14 -17 22 -8 45 8 21 8 31 -1 39 -9 8 -10 7 -6 -6 4 -10 2 -18 -3
-18 -6 0 -10 20 -10 45 0 33 -4 45 -15 45 -11 0 -12 -6 -6 -22 4 -13 7 -33 6
-45 -1 -13 2 -23 7 -23 4 0 8 -13 8 -29 0 -16 7 -34 15 -41 9 -7 25 -34 37
-58 22 -50 48 -82 48 -61 0 7 3 9 7 5 4 -3 -8 -20 -26 -36 -18 -17 -29 -34
-26 -40 3 -5 1 -10 -6 -10 -9 0 -10 -17 -5 -61 5 -55 3 -68 -24 -124 -20 -42
-41 -70 -63 -84 -18 -11 -44 -32 -57 -46 -27 -28 -67 -55 -56 -37 3 6 -3 13
-14 17 -11 3 -20 10 -20 14 0 17 -51 31 -71 21 -26 -14 -24 -22 4 -15 16 4 33
-4 64 -30 23 -19 46 -35 51 -35 6 0 41 27 79 59 58 51 73 71 103 140 l35 81
43 0 c40 0 42 -1 36 -25 -5 -21 -3 -25 15 -25 18 0 21 5 19 34 -1 19 -7 34
-12 33 -6 -1 -11 9 -11 23 0 16 5 24 14 22 10 -2 12 5 7 28 -4 23 -3 29 7 24
8 -5 7 -2 -2 9 -11 14 -11 18 4 23 30 12 50 -10 50 -55 0 -22 3 -41 7 -41 16
0 2 -53 -15 -56 -9 -1 -15 1 -13 5 3 4 1 13 -4 21 -5 8 -4 22 3 34 12 23 10
66 -4 81 -5 5 -9 -3 -9 -22 0 -16 -3 -50 -6 -75 -6 -42 -4 -47 27 -76 19 -18
39 -32 44 -32 6 0 23 -7 39 -15 40 -21 55 -5 30 31 -10 14 -29 43 -42 63 -17
26 -21 29 -16 11 5 -14 8 -35 9 -47 0 -11 3 -19 6 -17 4 2 9 -2 12 -10 4 -10
0 -12 -14 -9 -10 3 -19 9 -19 14 0 5 -3 8 -7 8 -19 -3 -33 2 -33 11 0 6 7 10
15 10 10 0 15 10 15 29 0 16 3 37 7 47 3 10 2 15 -3 12 -5 -3 -10 10 -11 30
-1 20 -5 47 -8 60 -5 20 -8 22 -21 11 -11 -9 -18 -9 -26 -1 -16 16 -49 -28
-42 -55 3 -12 -2 -33 -11 -47 -14 -21 -15 -29 -5 -41 11 -13 6 -15 -33 -15
-37 0 -46 4 -50 20 -10 39 25 120 51 120 7 0 10 5 7 10 -4 6 -3 10 2 9 28 -5
43 3 43 22 0 18 2 20 15 9 13 -11 18 -10 31 9 9 12 22 20 30 17 8 -3 13 -2 12
2 -5 20 15 72 28 72 9 0 12 5 8 13 -4 7 -2 7 7 -2 11 -10 11 -15 2 -18 -24 -9
-13 -22 21 -29 44 -8 64 -30 81 -89 14 -44 14 -46 -7 -54 -24 -9 -58 -3 -58 9
0 5 -13 21 -29 36 -23 21 -28 32 -20 45 12 24 11 49 -2 49 -6 0 -9 -6 -6 -14
3 -7 -1 -22 -8 -33 -26 -37 23 -198 54 -178 4 2 7 -5 7 -15 0 -14 -3 -16 -13
-8 -18 15 -16 2 4 -29 l18 -27 6 40 c4 21 3 44 -2 50 -5 6 -6 14 -2 17 3 4 2
7 -4 7 -6 0 -13 9 -16 21 -3 13 -1 19 6 16 7 -3 11 -10 9 -16 -1 -6 3 -11 9
-11 6 0 9 -7 5 -15 -3 -8 -1 -15 3 -15 5 0 11 5 13 11 2 6 18 17 36 25 18 7
30 10 28 5 -3 -5 6 -8 20 -9 33 0 67 -31 61 -57 -3 -11 -8 -30 -11 -43 -2 -12
-12 -49 -20 -83 -20 -75 -20 -72 3 -86 16 -10 23 -7 50 21 l31 32 -23 22 -23
22 4 -35 c3 -26 0 -36 -13 -41 -9 -4 -21 -2 -27 4 -7 7 -4 10 8 9 16 -2 19 4
16 41 -2 23 0 42 4 42 4 0 21 -12 36 -27 25 -24 30 -25 43 -12 14 13 13 18
-10 39 -31 29 -43 22 -15 -8 12 -12 16 -22 10 -22 -6 0 -13 7 -16 15 -4 8 -10
13 -14 10 -4 -3 -13 2 -19 9 -9 10 -9 16 -1 21 8 5 8 11 -1 21 -10 12 -9 13 7
7 17 -6 18 -5 4 13 -12 17 -12 17 0 6 8 -7 15 -18 15 -25 1 -7 7 -11 14 -9 7
1 10 -2 7 -6 -3 -5 3 -17 13 -27 19 -16 21 -16 51 6 47 36 93 114 101 175 9
68 32 99 108 148 34 22 61 43 61 48 0 4 4 8 9 8 4 0 6 -18 4 -40 -3 -22 -1
-40 5 -40 5 0 7 11 5 24 -6 27 22 43 43 25 14 -12 34 -2 60 28 9 10 10 2 7
-34 -4 -45 -4 -47 9 -23 32 57 44 70 60 70 10 0 18 5 18 10 0 6 5 10 10 10 6
0 11 -21 11 -47 l2 -48 7 50 c4 28 4 52 1 55 -12 10 -11 30 1 30 7 1 1 8 -14
16 -16 8 -28 20 -28 26 0 9 -3 9 -12 0 -16 -16 -33 -15 -19 1 6 8 8 16 6 19
-3 3 6 4 20 3 14 -2 23 1 19 6 -3 5 -14 9 -26 9 -18 0 -19 2 -7 17 12 14 12
16 -1 11 -8 -2 -17 -15 -21 -29 l-7 -24 -1 26 c-1 14 4 30 11 37 8 8 8 12 1
12 -21 0 -35 -29 -28 -57 16 -60 7 -105 -27 -140 -29 -30 -57 -45 -44 -24 3 5
-1 14 -9 21 -14 12 -13 16 11 41 15 16 31 26 35 23 4 -2 11 1 15 7 4 8 3 9 -4
5 -14 -8 -16 6 -3 20 5 5 5 18 1 29 -8 18 -9 17 -9 -6 -1 -32 -80 -109 -111
-109 -12 0 -18 -4 -15 -10 3 -5 0 -10 -9 -10 -27 0 -105 113 -112 165 -2 11
-9 53 -17 93 -9 41 -11 75 -6 78 5 3 7 10 4 15 -8 12 -32 12 -39 0z m425 -274
c8 -13 4 -18 -18 -23 -33 -9 -51 -25 -45 -42 5 -17 -15 -15 -21 2 -3 8 6 24
19 37 14 13 23 28 20 34 -7 18 35 10 45 -8z m-779 -41 c24 -8 56 -17 71 -20
65 -15 170 -118 170 -166 0 -8 19 -41 43 -72 l43 -57 -46 -28 -46 -27 -34 39
c-30 34 -33 44 -33 99 0 83 11 98 46 66 25 -23 25 -21 -6 23 -35 49 -43 57
-33 31 3 -8 -4 -26 -18 -40 -20 -21 -21 -28 -11 -44 15 -25 16 -38 0 -22 -7 7
-28 12 -47 12 -20 0 -31 4 -26 8 18 13 16 32 -3 25 -15 -6 -15 -5 -4 10 16 19
8 39 -13 31 -10 -4 -13 0 -11 13 3 13 -5 23 -27 33 l-30 13 28 23 29 23 -28
10 c-37 15 -46 14 -40 -3 3 -8 13 -12 25 -9 30 8 22 -4 -10 -15 -28 -10 -29
-9 -33 24 -2 19 -3 34 -1 34 1 0 22 -6 45 -14z m-202 -156 c0 -5 -5 -10 -11
-10 -5 0 -7 5 -4 10 3 6 8 10 11 10 2 0 4 -4 4 -10z m157 -93 c7 -23 10 -43 8
-45 -5 -6 -25 43 -32 78 -7 37 10 14 24 -33z m183 16 c28 -24 25 -35 -5 -21
-13 6 -22 15 -18 21 4 7 -6 8 -28 4 -24 -5 -30 -4 -19 3 22 15 47 12 70 -7z
m160 -130 c0 -9 -32 -43 -40 -43 -5 0 -11 7 -14 16 -3 8 -2 13 3 10 5 -3 14 1
21 9 13 15 30 20 30 8z"/>
<path d="M1815 1390 c-3 -5 -1 -10 4 -10 6 0 11 5 11 10 0 6 -2 10 -4 10 -3 0
-8 -4 -11 -10z"/>
<path d="M1119 1290 l-24 -19 23 -1 c12 0 22 4 22 10 0 11 26 9 50 -4 8 -4 4
2 -9 13 -29 26 -33 26 -62 1z"/>
<path d="M1282 1071 c-11 -6 -10 -10 0 -19 11 -8 14 -7 14 9 0 10 0 19 -1 19
0 0 -6 -4 -13 -9z"/>
<path d="M1491 1657 c-6 -12 -10 -37 -9 -55 1 -28 4 -31 21 -26 29 9 113 64
98 64 -18 0 -55 -21 -64 -36 -14 -24 -37 -16 -37 12 0 17 6 28 20 31 25 7 26
28 1 30 -10 1 -23 -8 -30 -20z"/>
<path d="M1670 1665 c0 -8 7 -15 15 -15 9 0 12 -6 9 -15 -6 -14 17 -45 33 -45
4 0 14 -14 22 -31 10 -23 16 -28 25 -19 8 8 6 15 -9 27 -20 15 -20 15 2 10 20
-4 41 18 28 31 -3 3 -5 0 -5 -6 0 -7 -12 -12 -26 -12 -17 0 -24 4 -21 13 14
37 16 53 7 67 -12 19 -22 8 -24 -24 0 -14 -5 -26 -10 -26 -4 0 -6 13 -4 30 4
24 2 27 -9 19 -9 -8 -13 -8 -13 0 0 6 -4 11 -10 11 -5 0 -10 -7 -10 -15z"/>
<path d="M1781 1660 c-1 -15 5 -32 12 -39 6 -6 12 -29 12 -49 0 -33 2 -37 25
-34 19 1 22 0 10 -8 -13 -8 -13 -11 -1 -22 10 -10 12 -10 7 0 -5 8 1 12 18 12
14 0 26 4 26 10 0 5 -7 7 -15 4 -9 -4 -15 0 -15 8 0 8 -6 20 -12 27 -7 6 -13
15 -13 19 -1 4 -6 17 -13 28 -6 12 -9 31 -7 44 3 17 1 20 -9 10 -11 -8 -15 -8
-19 2 -3 7 -6 2 -6 -12z m55 -95 c17 -16 14 -18 -10 -9 -9 3 -16 10 -16 15 0
13 9 11 26 -6z"/>
<path d="M1647 1653 c-11 -11 -8 -21 9 -27 13 -5 14 -4 6 7 -7 8 -9 17 -5 20
3 4 4 7 1 7 -2 0 -8 -3 -11 -7z"/>
<path d="M1570 1593 c-22 -26 -14 -46 26 -64 36 -18 47 -12 15 8 -26 16 -17
53 10 46 14 -4 18 -11 14 -24 -4 -11 -2 -19 4 -19 16 0 24 40 11 55 -17 20
-62 19 -80 -2z"/>
<path d="M1480 1546 c0 -8 5 -18 10 -21 6 -3 10 1 10 9 0 9 5 16 11 16 7 0 8
-7 4 -17 -3 -10 -9 -31 -12 -47 -6 -27 -4 -29 20 -24 15 3 28 2 30 -1 2 -3 2
0 0 8 -2 8 2 11 12 7 8 -3 15 -1 15 4 0 13 -16 13 -42 -1 -20 -11 -20 -9 -14
35 7 44 6 46 -18 46 -16 0 -26 -6 -26 -14z"/>
<path d="M1663 1539 c-16 -16 -17 -43 -1 -33 8 5 9 0 5 -15 -3 -13 -3 -20 0
-17 4 3 15 -1 25 -11 11 -9 18 -11 18 -5 0 7 -4 12 -9 12 -4 0 -12 18 -17 41
-7 32 -11 38 -21 28z"/>
<path d="M1732 1510 c0 -17 4 -28 9 -25 11 8 12 55 1 55 -5 0 -9 -14 -10 -30z"/>
<path d="M680 1503 c0 -13 5 -23 10 -23 13 0 13 11 0 30 -8 12 -10 11 -10 -7z"/>
<path d="M825 1509 c-10 -15 3 -25 16 -12 7 7 7 13 1 17 -6 3 -14 1 -17 -5z"/>
<path d="M877 1501 c4 -17 1 -21 -16 -21 -13 0 -19 -4 -16 -11 4 -6 13 -8 21
-5 8 3 14 1 14 -4 0 -6 -7 -10 -15 -10 -9 0 -12 -6 -9 -15 7 -17 34 -21 34 -4
0 5 4 8 9 5 5 -3 11 3 14 15 3 12 0 22 -9 26 -8 3 -13 12 -12 21 2 8 -2 17 -9
19 -7 3 -9 -3 -6 -16z"/>
<path d="M1586 1495 c5 -13 64 -49 64 -40 0 8 -48 50 -58 52 -6 2 -9 -4 -6
-12z"/>
<path d="M1860 1499 c0 -6 5 -20 11 -31 8 -15 8 -19 0 -14 -6 4 -11 2 -11 -3
0 -6 5 -11 11 -11 5 0 7 -5 3 -11 -3 -6 1 -10 12 -9 31 4 44 1 44 -10 0 -5 -9
-10 -19 -10 -22 0 -36 -16 -22 -24 4 -3 21 6 36 20 l28 25 -22 15 c-11 8 -26
12 -31 9 -6 -3 -10 -1 -10 4 0 6 6 11 13 11 8 0 7 4 -3 11 -12 8 -11 9 5 6 11
-2 19 -8 18 -15 -5 -20 33 -34 47 -17 7 8 16 13 20 10 4 -3 14 3 21 13 12 15
12 16 -2 5 -12 -10 -18 -10 -29 0 -10 9 -11 9 -6 0 13 -23 -25 -14 -56 12 -31
26 -58 33 -58 14z"/>
<path d="M768 1473 c-16 -8 -33 -24 -39 -36 l-12 -22 24 21 c31 27 54 35 67
22 5 -5 12 -6 15 -1 12 19 -27 29 -55 16z"/>
<path d="M1614 1452 c5 -8 -5 -12 -33 -12 -34 0 -41 -3 -41 -20 0 -17 4 -19
28 -14 56 14 77 34 50 50 -7 4 -8 3 -4 -4z m-37 -28 c-3 -3 -12 -4 -19 -1 -8
3 -5 6 6 6 11 1 17 -2 13 -5z"/>
<path d="M2002 1445 c-42 -23 -44 -31 -6 -31 28 0 43 -7 65 -32 16 -17 30 -42
33 -54 22 -119 26 -149 26 -177 0 -19 5 -52 11 -75 6 -22 15 -58 20 -78 5 -21
16 -38 23 -38 8 0 21 -10 29 -22 9 -13 40 -49 70 -81 30 -32 63 -76 73 -98 19
-44 31 -56 31 -34 0 8 -4 15 -9 15 -5 0 -6 5 -3 10 3 6 1 10 -4 10 -6 0 -11 5
-11 11 0 5 4 7 10 4 6 -3 7 1 4 9 -3 9 -10 16 -16 16 -5 0 -7 4 -3 9 3 5 -4
12 -15 16 -11 4 -18 11 -15 16 4 5 0 9 -7 9 -14 0 -44 39 -40 53 1 4 -4 7 -12
7 -14 0 -31 27 -27 43 1 5 -3 6 -8 3 -5 -4 -18 5 -29 19 -11 13 -21 22 -24 20
-2 -2 -4 4 -4 13 -1 9 -4 31 -8 47 -4 17 -10 59 -12 95 -3 36 -8 72 -11 80 -5
13 -10 45 -16 105 -1 11 -22 40 -47 64 -25 25 -44 49 -42 53 2 9 4 10 -26 -7z"/>
<path d="M920 1432 c0 -11 9 -22 20 -25 17 -4 18 -2 10 13 -15 28 -30 34 -30
12z"/>
<path d="M1677 1433 c-4 -3 -7 -11 -7 -17 0 -6 5 -5 12 2 6 6 9 14 7 17 -3 3
-9 2 -12 -2z"/>
<path d="M910 1390 c6 -11 16 -20 22 -20 7 0 6 -5 -2 -15 -13 -16 -7 -45 9
-45 29 0 13 68 -20 88 -19 12 -19 11 -9 -8z"/>
<path d="M868 1393 c7 -3 16 -2 19 1 4 3 -2 6 -13 5 -11 0 -14 -3 -6 -6z"/>
<path d="M1560 1375 c0 -17 2 -18 24 -9 23 9 20 24 -4 24 -11 0 -20 -7 -20
-15z"/>
<path d="M820 1366 c0 -7 7 -19 15 -26 8 -7 15 -19 15 -27 0 -11 3 -11 13 -1
12 10 12 15 0 26 -7 7 -13 17 -13 22 0 4 -7 10 -15 14 -9 3 -15 0 -15 -8z"/>
<path d="M1970 1352 c0 -15 -5 -33 -12 -40 -9 -9 -8 -12 5 -12 13 0 17 9 17
40 0 22 -2 40 -5 40 -3 0 -5 -13 -5 -28z"/>
<path d="M1936 1355 c-3 -8 0 -15 7 -15 8 0 6 -4 -3 -10 -13 -8 -12 -10 3 -10
12 0 17 8 17 25 0 27 -15 34 -24 10z"/>
<path d="M1885 1330 c-8 -35 0 -51 21 -43 11 4 12 9 3 19 -6 8 -9 23 -6 34 3
11 1 20 -3 20 -5 0 -11 -13 -15 -30z"/>
<path d="M755 1341 c-3 -5 -1 -12 5 -16 5 -3 10 1 10 9 0 18 -6 21 -15 7z"/>
<path d="M2056 1337 c3 -10 9 -15 12 -12 3 3 0 11 -7 18 -10 9 -11 8 -5 -6z"/>
<path d="M1815 1316 c-47 -63 -49 -68 -34 -77 10 -6 10 -9 2 -9 -7 0 -13 -6
-13 -14 0 -16 -26 -40 -32 -29 -3 4 -4 3 -2 -2 1 -6 -4 -19 -11 -29 -8 -10
-11 -24 -9 -31 3 -7 0 -24 -7 -37 -7 -13 -12 -31 -10 -41 2 -14 -3 -13 -25 8
-15 14 -24 28 -21 32 4 3 7 3 7 -2 0 -4 7 -2 15 5 8 7 15 18 15 24 0 6 -5 3
-11 -7 -6 -9 -15 -15 -20 -11 -6 4 -3 14 7 25 16 18 16 19 1 13 -12 -4 -19 1
-26 17 -11 31 -3 43 17 27 9 -7 13 -8 10 -3 -7 12 17 37 26 27 11 -10 -6 31
-21 53 -13 19 -13 19 -13 -3 0 -12 5 -22 11 -22 8 0 8 -5 -1 -15 -18 -22 -38
-18 -44 8 -6 27 1 -74 8 -123 3 -19 15 -42 26 -52 11 -9 20 -21 20 -28 0 -6 4
-9 9 -6 4 3 13 -6 20 -21 17 -37 22 -24 9 20 -11 34 -10 39 10 53 21 14 33 52
13 39 -6 -3 -9 3 -8 14 1 16 4 18 21 9 20 -11 20 -10 3 15 -12 19 -13 27 -4
35 25 19 34 21 34 7 0 -8 -4 -12 -8 -9 -4 2 -11 -1 -14 -7 -4 -6 2 -13 14 -16
18 -5 19 -8 8 -27 -6 -11 -12 -25 -13 -31 0 -5 -3 -17 -6 -25 -3 -8 -18 -57
-34 -107 -15 -51 -31 -93 -34 -93 -14 0 -48 49 -80 115 -18 39 -38 73 -44 77
-6 4 -7 8 -2 8 6 0 0 9 -12 20 -20 19 -20 22 -7 67 8 27 15 51 15 55 0 11 23
5 32 -7 4 -5 5 8 1 30 -7 48 -13 58 -13 22 0 -18 -5 -27 -16 -27 -8 0 -12 5
-9 10 3 6 1 10 -5 10 -7 0 -10 -7 -6 -15 3 -8 1 -15 -5 -15 -6 0 -7 -4 -4 -10
5 -9 -15 -15 -37 -11 -12 2 -37 -42 -40 -69 -2 -17 2 -25 12 -25 9 0 14 7 12
17 -3 22 15 58 29 58 6 0 7 -4 4 -10 -3 -5 -1 -10 4 -10 6 0 11 -10 11 -22 0
-21 0 -21 -15 -2 -11 15 -14 16 -15 4 0 -9 5 -21 12 -28 9 -9 9 -18 0 -37 -7
-14 -12 -36 -12 -49 0 -28 -9 -38 -25 -28 -6 4 -3 0 7 -9 16 -16 16 -18 -6
-38 -29 -27 -41 -27 -43 1 -2 18 0 19 7 8 8 -12 11 -13 22 -2 11 11 10 16 -5
27 -10 7 -27 11 -37 8 -19 -5 -107 -86 -145 -133 l-20 -25 21 18 c11 9 24 14
27 10 10 -9 9 -25 -1 -19 -5 3 -9 -1 -9 -9 0 -8 4 -12 9 -9 7 5 13 -34 8 -65
-1 -8 2 -17 7 -20 13 -9 35 -52 30 -58 -3 -2 -15 0 -26 7 -34 18 -24 5 29 -40
l50 -42 -15 37 -16 36 31 -16 c17 -9 35 -13 41 -9 6 4 -10 16 -35 27 -29 12
-45 25 -42 33 3 7 -1 15 -9 17 -7 3 -16 30 -20 65 -8 68 7 108 49 135 24 16
25 16 32 -6 3 -12 15 -31 25 -43 18 -20 18 -21 0 -58 -28 -53 -42 -68 -63 -63
-24 7 -23 -10 2 -23 11 -6 17 -16 14 -22 -4 -6 -3 -8 3 -5 6 4 31 -4 55 -18
23 -14 46 -25 51 -25 4 0 7 18 7 41 0 32 -3 40 -14 36 -10 -4 -13 -1 -9 8 3 8
10 12 15 9 6 -4 5 3 -1 15 -7 11 -17 21 -23 21 -6 0 -5 -7 3 -17 13 -16 12
-17 -2 -5 -14 10 -18 10 -23 -3 -3 -8 -13 -15 -23 -15 -15 1 -14 4 7 23 16 14
24 30 22 45 -4 23 12 30 24 11 3 -6 0 -16 -7 -21 -11 -8 -10 -9 3 -4 39 12 65
-83 37 -136 -7 -13 0 -24 31 -48 23 -18 39 -28 38 -23 -2 5 11 22 27 37 29 27
29 27 5 20 -14 -4 -31 -9 -39 -12 -11 -4 -13 -1 -8 13 6 15 5 16 -8 5 -8 -7
-15 -11 -16 -9 -7 42 -6 58 4 53 8 -5 8 -3 0 7 -7 7 -13 19 -13 27 0 9 20 -4
48 -29 26 -25 57 -51 69 -60 12 -8 21 -23 20 -33 -1 -11 3 -21 10 -23 7 -3 9
3 6 16 -3 12 -1 27 4 34 6 6 18 36 28 65 13 41 14 57 6 65 -9 9 -10 7 -5 -7 6
-15 4 -18 -9 -13 -14 5 -15 2 -7 -18 13 -34 7 -32 -37 13 -24 24 -27 26 -9 5
17 -18 25 -33 19 -33 -7 0 -51 45 -98 100 -71 82 -90 99 -101 89 -16 -13 -19
-29 -5 -29 5 0 12 8 14 18 4 13 5 11 6 -5 0 -13 6 -23 12 -23 19 0 49 -44 36
-52 -19 -12 -25 -9 -23 10 1 11 -5 16 -16 14 -11 -2 -18 3 -18 13 0 9 -4 13
-10 10 -17 -10 -24 45 -7 58 27 22 57 81 57 116 0 29 2 32 15 21 19 -16 19
-23 -5 -72 -11 -22 -17 -46 -13 -52 23 -40 97 -124 121 -138 69 -41 210 15
275 110 18 25 50 66 72 91 22 24 34 41 28 37 -15 -9 -18 10 -3 19 6 3 9 14 9
23 -1 16 -2 16 -6 0 -3 -11 -10 -15 -20 -11 -11 4 -14 2 -9 -5 4 -7 2 -12 -4
-12 -7 0 -10 -6 -7 -14 3 -8 -1 -20 -9 -26 -8 -7 -14 -19 -14 -26 0 -8 -3 -14
-7 -14 -5 0 -17 -14 -28 -30 -11 -16 -26 -30 -33 -30 -6 0 -11 -6 -10 -12 2
-7 -3 -12 -11 -10 -8 2 -11 -3 -8 -13 8 -19 5 -19 -38 -1 -33 14 -52 34 -20
23 8 -4 17 -1 21 5 4 7 3 8 -4 4 -7 -4 -12 -3 -12 2 0 6 7 12 15 16 8 3 15 11
15 17 0 7 -8 5 -19 -5 -11 -10 -24 -15 -29 -12 -5 3 -8 -11 -6 -34 4 -43 -10
-55 -19 -17 -9 33 8 171 32 261 24 92 24 89 11 81 -6 -4 -8 -11 -5 -16 4 -5 2
-9 -3 -9 -12 0 -20 21 -15 38 3 6 9 12 15 12 17 0 69 -41 63 -50 -3 -5 -1 -11
4 -14 20 -13 2 46 -18 60 -12 9 -18 20 -15 26 5 8 1 9 -9 5 -10 -4 -24 -10
-32 -13 -23 -9 -8 21 15 32 12 6 17 14 12 21 -6 9 -10 9 -17 -1z m-268 -148
c-3 -8 -6 -5 -6 6 -1 11 2 17 5 13 3 -3 4 -12 1 -19z m48 -158 c3 -5 1 -10 -4
-10 -6 0 -11 -4 -11 -10 0 -5 6 -10 14 -10 17 0 31 -34 21 -50 -4 -6 -1 -9 7
-8 7 2 13 -6 13 -17 0 -11 7 -20 15 -20 8 -1 14 -7 12 -14 -1 -7 2 -10 7 -7
15 10 24 -13 11 -29 -12 -15 -44 -9 -34 6 3 5 1 9 -4 9 -14 0 -88 100 -83 113
4 14 9 39 10 50 1 10 19 9 26 -3z m155 -85 c-10 -12 -10 -15 0 -15 8 0 11 -9
8 -25 -3 -13 -1 -23 4 -22 13 3 34 -30 26 -39 -4 -3 -17 2 -30 12 -17 13 -23
27 -23 56 0 21 3 38 7 38 5 0 8 8 9 18 0 11 2 12 6 4 3 -7 -1 -19 -7 -27z m80
-56 c0 -5 6 -7 13 -3 6 4 4 -1 -5 -12 -14 -14 -20 -15 -30 -6 -9 9 -9 12 1 12
7 0 9 5 6 10 -3 6 -1 10 4 10 6 0 11 -5 11 -11z m-100 -24 c9 -11 10 -19 2
-27 -14 -14 -32 -1 -32 23 0 23 13 25 30 4z m-154 -41 c-5 -12 -2 -15 10 -10
13 5 15 2 11 -14 -3 -11 0 -23 5 -27 7 -3 8 -1 4 5 -12 20 1 13 34 -18 17 -16
35 -29 38 -29 26 4 33 -2 18 -16 -15 -15 -50 -10 -40 6 3 5 -2 6 -10 3 -8 -3
-17 2 -20 14 -4 10 -17 25 -30 32 -24 12 -40 46 -30 62 9 14 16 9 10 -8z m-92
-55 c-3 -5 -10 -7 -15 -3 -5 3 -7 10 -3 15 3 5 10 7 15 3 5 -3 7 -10 3 -15z
m-19 -8 c3 -6 14 -8 24 -6 14 3 18 -2 17 -19 l-1 -22 -37 21 c-21 11 -38 23
-38 28 0 10 28 9 35 -2z"/>
<path d="M2066 1266 c6 -55 22 -102 30 -93 4 3 -2 32 -11 64 -24 82 -26 84
-19 29z"/>
<path d="M1665 1290 c3 -5 8 -10 11 -10 2 0 4 5 4 10 0 6 -5 10 -11 10 -5 0
-7 -4 -4 -10z"/>
<path d="M2000 1278 c0 -4 4 -8 9 -8 6 0 12 4 15 8 3 5 -1 9 -9 9 -8 0 -15 -4
-15 -9z"/>
<path d="M1705 1260 c9 -10 15 -26 12 -34 -3 -8 0 -13 9 -12 18 3 43 26 27 26
-6 0 -14 -6 -16 -12 -3 -7 -6 -4 -6 8 -1 21 -19 44 -35 44 -5 0 -1 -9 9 -20z"/>
<path d="M1921 1250 c0 -19 -17 -85 -37 -147 -31 -93 -35 -115 -24 -128 20
-24 26 -18 26 27 -1 26 4 42 12 44 7 1 8 0 2 -3 -5 -2 -10 -9 -10 -14 0 -6 4
-7 10 -4 18 11 3 -58 -16 -72 -9 -7 -15 -15 -12 -19 3 -3 24 12 47 34 41 39
55 82 26 82 -17 0 -20 -17 -5 -22 7 -2 4 -11 -5 -23 -16 -20 -16 -20 -13 0 1
11 -1 33 -6 49 -6 23 -9 27 -17 15 -5 -8 -9 -9 -9 -2 0 6 6 18 13 25 8 7 12
19 11 26 -1 7 0 8 3 2 2 -5 12 -10 20 -10 13 0 14 9 9 48 -4 35 -2 53 9 67 19
26 19 45 -1 45 -8 0 -12 -4 -9 -10 3 -5 2 -10 -4 -10 -5 0 -12 8 -14 18 -3 9
-5 1 -6 -18z m19 -105 c0 -8 -6 -12 -14 -9 -8 3 -12 12 -9 20 6 17 23 9 23
-11z m-60 -139 c0 -3 -4 -8 -10 -11 -5 -3 -10 -1 -10 4 0 6 5 11 10 11 6 0 10
-2 10 -4z"/>
<path d="M1887 1250 c8 -29 24 -36 20 -9 -2 13 -9 25 -15 27 -6 2 -8 -5 -5
-18z"/>
<path d="M1025 1231 c3 -44 11 -48 19 -10 3 18 4 34 1 37 -3 3 -5 -1 -5 -9 0
-12 -2 -12 -9 0 -6 9 -8 4 -6 -18z"/>
<path d="M1061 1214 c0 -11 3 -14 6 -6 3 7 2 16 -1 19 -3 4 -6 -2 -5 -13z"/>
<path d="M1847 1190 c3 -11 9 -20 15 -20 5 0 4 9 -2 20 -6 11 -12 20 -14 20
-2 0 -2 -9 1 -20z"/>
<path d="M2006 1191 c-7 -11 17 -21 47 -21 21 1 21 1 -3 15 -30 17 -37 18 -44
6z"/>
<path d="M1585 1179 c4 -6 -1 -17 -11 -24 -11 -8 -14 -15 -8 -15 6 0 19 8 28
19 15 17 15 19 1 25 -10 3 -14 2 -10 -5z"/>
<path d="M849 1153 c-6 -34 -5 -53 2 -53 5 0 9 14 9 30 0 27 -8 42 -11 23z"/>
<path d="M2082 1124 c-11 -12 -11 -19 0 -41 7 -15 19 -29 27 -31 9 -3 11 0 5
9 -4 7 -10 28 -13 45 -5 27 -8 30 -19 18z"/>
<path d="M822 1110 c0 -14 2 -19 5 -12 2 6 2 18 0 25 -3 6 -5 1 -5 -13z"/>
<path d="M800 1089 c0 -9 8 -23 18 -32 17 -15 18 -15 19 6 0 12 -1 16 -4 8 -4
-10 -9 -7 -19 10 -9 16 -13 19 -14 8z"/>
<path d="M1915 1091 c-3 -5 -1 -12 5 -16 5 -3 10 0 10 7 0 8 3 9 8 3 4 -5 16
-11 27 -13 20 -4 20 -4 0 12 -23 18 -41 20 -50 7z"/>
<path d="M1463 1058 c-21 -27 -24 -38 -10 -32 8 3 17 14 20 25 6 22 3 24 -10
7z"/>
<path d="M1154 1043 c-9 -14 -8 -21 5 -30 10 -8 12 -12 4 -13 -18 0 -16 -37 2
-43 25 -10 29 17 10 66 -4 10 -3 17 4 17 6 0 11 5 11 10 0 16 -24 11 -36 -7z"/>
<path d="M1741 1053 c-1 -6 -4 -20 -7 -30 -5 -17 -5 -17 6 0 6 10 9 23 6 30
-3 9 -5 9 -5 0z"/>
<path d="M2117 1019 c4 -13 8 -18 11 -10 2 7 -1 18 -6 23 -8 8 -9 4 -5 -13z"/>
<path d="M2090 1019 c0 -5 -4 -7 -10 -4 -5 3 -10 -3 -10 -15 0 -13 -19 -40
-45 -66 -25 -24 -45 -47 -45 -51 0 -4 4 -3 8 3 9 13 74 46 80 40 2 -3 -14 -17
-36 -33 -26 -18 -39 -36 -39 -50 0 -22 0 -22 19 3 11 14 22 23 25 21 6 -6 63
46 63 57 0 5 -7 1 -15 -10 -11 -14 -14 -15 -9 -3 3 10 0 20 -6 24 -8 5 -7 12
3 23 15 17 32 72 22 72 -3 0 -5 -5 -5 -11z"/>
<path d="M1077 993 c-11 -10 -8 -53 3 -53 6 0 10 14 10 30 0 31 -2 35 -13 23z"/>
<path d="M2116 982 c-4 -7 -4 -12 1 -12 4 0 3 -4 -3 -8 -7 -5 -6 -15 2 -32 11
-21 14 -22 19 -7 9 21 -9 75 -19 59z"/>
<path d="M764 923 c-10 -32 -25 -64 -31 -71 -18 -18 -26 -57 -19 -86 5 -20 3
-23 -19 -18 -27 5 -35 22 -10 22 8 0 15 4 15 10 0 10 -27 2 -45 -12 -5 -5 -19
-15 -30 -23 -18 -13 -16 -14 32 -15 28 0 58 -3 66 -6 13 -5 14 1 6 33 -14 61
-12 66 21 61 29 -4 40 5 20 17 -26 16 11 124 43 125 23 0 27 -61 5 -87 -5 -6
-8 -17 -7 -25 1 -7 1 -20 0 -28 -1 -13 -2 -13 -11 0 -9 13 -10 13 -10 0 0 -8
4 -21 8 -28 6 -8 18 9 38 50 16 35 35 69 42 76 20 21 14 35 -13 30 -14 -3 -22
-1 -18 5 7 12 -16 27 -43 27 -16 0 -25 -12 -40 -57z"/>
<path d="M1660 951 c0 -16 8 -35 17 -42 9 -8 14 -9 10 -3 -3 6 2 20 12 31 18
19 18 20 0 31 -29 19 -39 14 -39 -17z"/>
<path d="M1245 961 c-3 -5 -2 -12 3 -15 5 -3 9 1 9 9 0 17 -3 19 -12 6z"/>
<path d="M898 923 c-8 -15 -31 -58 -52 -95 -38 -69 -39 -76 -6 -58 12 7 16 17
13 31 -4 13 -2 20 3 16 6 -3 11 4 11 15 1 11 8 28 16 37 17 20 39 72 33 78 -2
2 -10 -8 -18 -24z"/>
<path d="M1100 939 c0 -5 5 -7 10 -4 6 3 10 8 10 11 0 2 -4 4 -10 4 -5 0 -10
-5 -10 -11z"/>
<path d="M1960 930 c-6 -11 -8 -20 -6 -20 3 0 10 9 16 20 6 11 8 20 6 20 -3 0
-10 -9 -16 -20z"/>
<path d="M1128 918 c-16 -5 -28 -14 -28 -19 0 -6 6 -7 13 -4 6 4 3 -1 -7 -9
-11 -9 -24 -16 -29 -16 -5 0 -7 -6 -4 -13 3 -7 -4 -19 -14 -26 -11 -6 -17 -16
-14 -21 3 -6 -1 -10 -9 -10 -22 0 -20 -9 7 -38 12 -14 16 -22 10 -18 -9 5 -11
2 -7 -8 3 -8 13 -17 21 -20 12 -5 13 -3 5 7 -16 19 74 95 91 77 9 -9 6 -16
-12 -28 -14 -10 -34 -25 -45 -35 -21 -18 -20 -18 9 -3 17 8 46 28 65 44 34 29
34 29 12 41 -19 10 -32 7 -83 -17 -36 -17 -62 -25 -66 -19 -4 6 -1 7 7 2 8 -5
11 -4 6 3 -3 6 1 17 9 24 9 7 21 19 28 26 7 7 20 22 29 32 9 10 14 21 11 24
-4 3 1 6 10 6 10 0 17 7 17 15 0 8 -1 15 -2 14 -2 0 -15 -5 -30 -11z"/>
<path d="M2150 917 c0 -14 -71 -87 -85 -87 -5 0 2 12 16 28 l24 27 -27 -24
c-15 -13 -25 -28 -22 -32 3 -5 2 -14 -2 -21 -5 -8 -10 -6 -15 8 -6 15 -8 15
-8 3 -1 -9 -9 -19 -20 -22 -12 -3 -18 -13 -18 -29 0 -24 0 -24 66 -15 36 4 69
13 72 19 4 6 17 8 30 5 18 -5 32 1 56 25 43 41 43 54 0 16 -27 -25 -43 -30
-100 -34 -40 -2 -67 0 -67 6 0 13 44 23 75 18 14 -3 25 -1 25 3 0 5 9 9 20 9
11 0 20 5 20 10 0 12 -6 13 -28 2 -9 -5 -28 -6 -42 -1 -16 4 -19 7 -8 8 11 1
15 6 12 16 -7 18 16 20 36 3 12 -11 12 -10 1 5 -9 11 -10 17 -3 17 6 0 16 10
22 23 10 20 10 20 -3 5 -19 -24 -26 -23 -20 2 3 11 3 20 -1 20 -3 0 -6 -6 -6
-13z m-110 -138 c0 -4 -6 -9 -13 -12 -8 -3 -14 0 -14 7 0 7 6 13 14 13 7 0 13
-4 13 -8z"/>
<path d="M1372 885 c-10 -22 -9 -25 7 -25 14 0 17 6 13 25 -2 14 -5 25 -7 25
-1 0 -7 -11 -13 -25z"/>
<path d="M2978 892 c-4 -12 -2 -25 4 -28 16 -10 22 4 11 28 l-10 22 -5 -22z"/>
<path d="M1000 865 c-48 -50 -28 -56 22 -7 25 25 36 42 27 42 -8 0 -30 -16
-49 -35z"/>
<path d="M1161 891 c-8 -5 -9 -11 -3 -15 5 -3 12 1 16 9 6 17 6 18 -13 6z"/>
<path d="M957 860 c-9 -11 -13 -20 -8 -20 11 0 35 29 29 35 -2 2 -12 -4 -21
-15z"/>
<path d="M1919 847 c-20 -12 -44 -30 -53 -40 -17 -17 -17 -18 6 -36 12 -11 25
-17 28 -14 3 2 -4 11 -14 19 -18 13 -18 14 8 23 14 6 26 17 26 26 0 18 12 19
29 3 10 -11 11 -9 5 6 -6 15 -4 18 8 14 9 -4 15 0 15 8 0 19 -16 17 -58 -9z"/>
<path d="M2208 853 c6 -2 9 -10 6 -15 -4 -7 -2 -8 5 -4 13 9 5 26 -12 25 -9 0
-8 -2 1 -6z"/>
<path d="M1125 840 c3 -5 8 -10 11 -10 2 0 4 5 4 10 0 6 -5 10 -11 10 -5 0 -7
-4 -4 -10z"/>
<path d="M1385 838 c-17 -7 -16 -7 5 -5 18 1 24 -2 22 -13 -2 -8 0 -11 4 -7
13 12 13 34 0 34 -7 0 -21 -4 -31 -9z"/>
<path d="M2991 824 c0 -11 3 -14 6 -6 3 7 2 16 -1 19 -3 4 -6 -2 -5 -13z"/>
<path d="M891 811 c-23 -17 -23 -19 -5 -24 10 -3 43 -9 72 -12 41 -5 52 -11
52 -25 0 -10 7 -20 15 -24 25 -9 -8 46 -45 78 -37 31 -56 32 -89 7z m94 -24
c6 -6 1 -7 -15 -3 -14 3 -38 6 -54 6 -28 0 -29 1 -11 14 19 14 55 6 80 -17z"/>
<path d="M2236 801 c-18 -19 -17 -20 10 -12 15 4 29 12 32 19 6 19 -23 14 -42
-7z"/>
<path d="M1386 793 c-6 -14 -5 -15 5 -6 7 7 10 15 7 18 -3 3 -9 -2 -12 -12z"/>
<path d="M770 797 c0 -16 32 -77 41 -77 19 0 15 18 -12 50 -15 19 -29 31 -29
27z"/>
<path d="M2981 784 c0 -11 3 -14 6 -6 3 7 2 16 -1 19 -3 4 -6 -2 -5 -13z"/>
<path d="M429 767 c-13 -13 -35 -36 -49 -53 l-25 -29 26 23 c14 12 27 21 30
20 2 -2 3 -1 2 1 -5 9 20 31 35 31 8 0 12 -3 9 -6 -4 -4 3 -16 16 -26 19 -17
20 -21 6 -28 -9 -5 -26 -17 -38 -27 -20 -17 -21 -21 -10 -46 7 -15 15 -27 18
-27 17 0 63 -48 57 -58 -6 -9 -11 -9 -21 0 -8 7 -30 26 -49 43 -20 16 -36 35
-36 42 0 12 -5 14 -37 17 -7 1 -12 6 -12 11 1 6 5 9 11 7 5 -1 7 2 3 7 -3 6
-12 8 -20 4 -8 -3 -15 0 -15 6 0 6 -9 11 -21 11 -11 0 -17 4 -14 10 3 5 0 7
-8 5 -7 -3 -22 3 -32 15 -10 11 -26 20 -35 20 -47 0 -78 -78 -43 -107 17 -14
17 -14 -3 -10 -20 4 -24 -6 -14 -33 1 -3 2 -9 1 -14 -1 -5 4 -4 12 2 20 17 36
9 108 -58 69 -64 98 -73 121 -38 l14 22 22 -22 c17 -17 30 -20 68 -16 26 2 51
9 55 15 4 7 12 8 18 5 17 -11 13 -26 -8 -26 -10 0 -34 -7 -52 -15 l-34 -15 40
2 c27 2 39 -1 38 -9 -2 -8 4 -10 15 -6 13 5 11 0 -7 -20 -21 -24 -22 -27 -7
-27 15 0 16 -3 6 -15 -7 -8 -19 -15 -27 -15 -7 0 -23 -8 -34 -19 -11 -10 -31
-17 -46 -15 -15 1 -35 -2 -45 -7 -21 -12 -24 -49 -4 -49 12 0 8 -16 -14 -71
-17 -39 -24 -66 -16 -60 7 6 15 8 19 5 3 -3 3 2 1 13 -3 10 5 41 18 69 18 41
27 50 41 45 16 -6 16 -8 2 -26 -9 -11 -13 -14 -9 -6 4 8 3 12 -3 8 -5 -3 -8
-20 -5 -37 4 -29 -12 -43 -20 -18 -3 7 -7 -11 -11 -40 -3 -29 -15 -65 -25 -80
-18 -26 -19 -52 -2 -52 4 0 29 56 56 125 26 69 51 125 56 125 4 0 5 -8 2 -17
-3 -10 5 -5 20 12 25 29 36 62 16 50 -6 -4 -8 -10 -5 -15 6 -10 -37 -22 -45
-12 -7 10 -42 9 -58 -2 -21 -13 -29 4 -9 19 13 9 27 11 50 4 25 -7 35 -5 53
12 17 16 29 19 55 14 19 -3 41 -7 49 -8 8 -2 20 -6 26 -10 7 -4 42 -13 78 -21
49 -10 66 -11 66 -2 0 7 -5 17 -11 23 -8 8 -8 13 0 17 6 4 11 2 11 -3 0 -6 7
-11 15 -11 12 0 13 -4 5 -19 -8 -16 -5 -21 21 -30 30 -10 31 -10 25 12 -3 12
-6 30 -6 40 0 10 -4 15 -10 12 -5 -3 -10 1 -10 9 0 9 4 16 9 16 6 0 6 12 0 32
-14 52 -11 66 26 106 l34 37 36 -37 c19 -21 32 -35 28 -33 -3 3 -15 -3 -26
-12 -20 -18 -20 -17 -14 14 8 40 -6 50 -33 23 -11 -11 -24 -20 -30 -20 -5 0
-10 -12 -10 -27 0 -25 1 -25 19 -9 10 9 25 14 35 10 18 -7 16 -31 -2 -27 -5 1
-8 -6 -5 -17 3 -10 -2 -29 -11 -42 -9 -12 -16 -39 -16 -59 0 -36 1 -38 61 -58
l60 -20 -7 32 c-4 18 -7 39 -7 47 0 18 -16 30 -33 23 -9 -3 -7 -10 8 -25 14
-14 17 -23 10 -30 -16 -16 -62 0 -71 24 -11 30 -3 58 15 51 8 -3 14 0 14 7 0
6 -5 8 -10 5 -11 -7 -14 8 -3 18 3 4 11 -1 18 -10 7 -9 17 -13 23 -10 12 8 4
49 -12 59 -15 10 -6 16 60 43 31 13 70 35 87 49 23 21 39 26 82 26 45 0 58 -5
84 -29 l31 -29 -27 -18 c-15 -9 -44 -18 -65 -18 -30 0 -38 -4 -38 -19 0 -17 5
-18 50 -12 43 6 53 4 83 -19 l33 -26 22 50 c12 28 22 55 22 60 0 6 -17 10 -38
10 -31 0 -45 7 -73 38 -63 66 -81 94 -67 104 10 7 9 8 -2 5 -8 -2 -26 5 -39
17 -13 11 -21 16 -18 10 4 -6 -5 -16 -20 -23 -19 -9 -23 -15 -15 -23 9 -9 16
-7 30 5 17 16 20 15 47 -13 16 -17 24 -30 17 -30 -6 0 -14 5 -17 11 -4 6 -28
9 -54 8 -32 -2 -45 1 -43 10 1 7 -6 11 -15 9 -13 -2 -19 5 -21 26 -3 22 -6 26
-13 15 -7 -12 -9 -12 -9 1 0 36 15 42 60 26 33 -11 49 -12 64 -4 18 10 26 5
63 -38 24 -27 43 -42 43 -34 0 11 3 11 12 2 7 -7 19 -12 28 -12 8 1 2 8 -15
17 -41 21 -84 65 -85 84 0 9 8 23 18 33 18 15 20 15 35 -2 10 -10 17 -22 17
-25 0 -12 -28 -7 -33 6 -4 8 -6 8 -6 0 -1 -12 66 -83 78 -83 7 0 31 -44 31
-55 0 -2 -15 2 -34 10 -19 8 -43 12 -52 8 -15 -6 -14 -7 5 -15 15 -5 21 -14
17 -23 -3 -8 -1 -17 4 -20 5 -3 11 3 14 13 10 30 55 20 78 -17 22 -34 21 -56
-5 -163 l-14 -58 36 0 c46 0 110 -18 128 -36 8 -8 23 -14 33 -14 32 0 153 -41
223 -76 85 -42 176 -109 186 -136 7 -20 9 -20 29 9 25 36 41 113 23 113 -7 0
-9 -5 -6 -10 8 -14 -16 -78 -32 -84 -7 -3 -15 0 -19 6 -5 7 -2 8 7 4 8 -4 5
-1 -6 8 -11 8 -27 21 -35 29 -8 7 -31 21 -50 30 -82 39 -87 50 -93 223 -2 30
-6 40 -16 36 -9 -3 -12 1 -9 14 2 10 10 18 16 17 7 -2 12 0 12 5 0 4 25 5 56
4 39 -3 60 1 72 11 9 8 45 26 80 40 73 29 78 22 35 -51 -16 -26 -35 -75 -44
-108 -14 -52 -14 -67 -3 -93 7 -17 14 -31 16 -31 2 0 2 20 0 44 -4 43 25 145
53 191 7 11 18 38 25 60 19 60 38 84 77 94 73 20 181 -25 203 -85 7 -18 -2
-45 -46 -131 -31 -59 -58 -127 -61 -150 -5 -38 -2 -46 31 -85 20 -23 43 -63
50 -87 12 -42 13 -43 18 -18 3 14 2 29 -1 33 -3 3 -7 10 -7 15 -1 5 -2 13 -3
17 0 5 -9 17 -19 28 -43 46 -67 93 -39 78 9 -5 9 -4 0 6 -9 9 -9 19 -2 32 6
11 12 27 14 36 2 9 11 35 20 56 13 31 19 36 27 25 7 -10 8 -8 3 9 -5 16 1 33
18 55 13 18 32 55 41 84 9 28 23 54 29 57 8 3 8 5 1 5 -8 1 -10 17 -6 46 3 28
1 45 -6 45 -6 0 -12 12 -15 28 -2 15 -4 -9 -4 -53 0 -54 -5 -91 -16 -115 l-17
-35 5 42 c3 23 8 49 12 59 4 12 3 15 -5 10 -7 -4 -12 -19 -13 -34 0 -15 -3
-21 -6 -14 -2 6 -8 10 -13 7 -4 -3 -13 2 -19 9 -10 12 -6 19 18 37 33 24 48
64 31 84 -6 7 -10 17 -8 21 2 7 -17 49 -27 62 -2 2 -42 -18 -89 -43 -47 -25
-107 -50 -134 -55 -53 -10 -118 1 -115 18 2 7 -4 12 -13 12 -25 0 -10 25 17
28 19 2 21 1 9 -7 -26 -18 30 -13 122 10 46 11 91 21 101 21 9 -1 17 3 17 9 0
12 -9 12 -77 -6 -31 -8 -87 -15 -123 -15 -37 0 -71 -5 -78 -12 -9 -9 -16 -7
-32 7 -28 25 -25 9 6 -32 26 -34 25 -42 -9 -81 -14 -15 -23 -19 -28 -11 -4 7
-9 4 -14 -11 -5 -17 -12 -20 -30 -16 -13 3 -25 1 -27 -5 -3 -10 -68 19 -68 32
0 14 58 60 64 50 4 -6 4 -11 -1 -11 -4 0 -8 -11 -8 -24 0 -13 3 -22 8 -19 4 2
7 9 7 15 0 5 9 21 20 36 14 18 17 28 9 32 -8 6 -8 9 1 15 13 8 32 -14 24 -27
-3 -4 3 -5 13 -1 12 5 7 -6 -14 -30 -36 -41 -44 -60 -15 -34 10 10 24 17 31
17 7 0 10 4 7 9 -3 5 1 14 9 21 21 17 19 30 -4 30 -16 0 -19 5 -15 26 4 22 1
26 -13 22 -16 -3 -67 35 -58 44 2 2 -7 4 -20 4 -16 1 -22 -2 -18 -12 3 -8 0
-14 -6 -14 -6 0 -11 -4 -11 -10 0 -17 27 -11 34 7 6 15 8 15 16 3 13 -21 12
-33 -2 -24 -6 4 -8 3 -5 -3 4 -6 -5 -32 -19 -57 -25 -46 -27 -46 -50 -32 -14
10 -25 12 -29 6 -3 -6 1 -13 10 -16 9 -4 14 -13 11 -20 -3 -8 0 -14 7 -14 7 0
21 -8 32 -16 19 -15 19 -15 -10 -8 -16 4 -35 11 -42 16 -14 11 -123 8 -123 -4
0 -4 -8 -8 -17 -8 -14 0 -15 2 -5 9 10 6 -2 17 -43 41 -31 18 -59 30 -62 27
-2 -3 10 -13 29 -23 40 -20 51 -36 35 -47 -9 -5 -8 -7 3 -6 20 3 53 -12 63
-28 6 -9 34 -13 100 -13 107 0 161 12 181 42 14 20 15 20 31 -18 34 -81 0
-111 -127 -115 -63 -2 -85 -6 -78 -14 17 -21 41 -147 38 -202 l-3 -56 -33 34
c-20 20 -30 27 -26 15 6 -16 5 -17 -14 -7 -12 7 -22 17 -22 24 0 8 -4 6 -10
-3 -6 -9 -13 -11 -17 -5 -9 11 -29 18 -56 19 -10 0 -20 9 -23 21 -10 40 -9
270 1 268 6 -1 18 -5 28 -8 10 -4 17 -3 17 4 0 6 -9 11 -21 11 -11 0 -17 4
-14 10 5 9 -14 8 -77 -5 -9 -1 -25 6 -34 16 -19 22 -39 24 -50 7 -4 -6 -3 -8
3 -5 6 4 17 -1 26 -11 13 -14 13 -21 3 -41 -12 -22 -14 -22 -23 -7 -5 10 -14
16 -18 14 -10 -4 -55 83 -48 94 2 5 1 8 -4 7 -22 -4 -32 4 -46 39 -8 20 -24
45 -35 55 -23 21 -67 19 -67 -3 0 -16 -44 -42 -58 -33 -5 3 -3 9 4 14 7 4 16
6 20 3 4 -2 6 4 5 14 0 9 4 16 11 15 6 -2 15 6 18 17 9 27 19 25 71 -10 24
-17 44 -27 44 -22 0 4 -18 19 -39 32 -21 14 -36 29 -33 34 3 5 0 6 -6 2 -7 -4
-12 -2 -12 4 0 7 -21 -6 -46 -29 -58 -51 -83 -56 -205 -41 -115 14 -141 10
-157 -25 -7 -16 -20 -25 -34 -25 -17 0 -19 3 -9 9 8 6 10 14 5 22 -5 8 -7 21
-6 31 2 9 -1 18 -5 21 -18 11 -8 -81 11 -102 31 -34 55 -36 86 -6 18 17 30 23
34 16 4 -6 4 -11 0 -11 -4 0 5 -13 21 -30 16 -16 24 -30 17 -30 -6 0 -14 4
-17 10 -3 5 -16 15 -28 22 -12 6 4 -14 36 -45 31 -31 57 -62 57 -69 0 -9 3 -9
12 0 9 9 4 20 -22 47 -24 24 -29 35 -18 35 9 0 24 -12 34 -27 10 -16 30 -41
46 -58 l28 -30 -33 -3 c-29 -3 -40 4 -104 71 l-71 75 -32 -16 -32 -15 34 -18
c36 -19 54 -6 22 18 -14 10 -14 13 -3 13 20 0 39 -20 33 -35 -3 -7 5 -15 18
-19 22 -6 22 -7 -16 -41 -39 -34 -46 -58 -33 -105 5 -22 3 -26 -16 -27 -51 -4
-68 -14 -73 -42 -6 -27 -7 -28 -31 -16 -14 8 -32 11 -39 8 -19 -7 -18 17 6 88
11 33 18 64 16 68 -3 4 6 18 21 31 20 18 23 24 12 31 -21 13 -52 11 -43 -2 5
-9 -4 -10 -32 -4 -47 8 -54 12 -54 31 0 8 -10 14 -23 14 -26 0 -77 38 -77 57
0 6 -6 14 -12 16 -10 4 -10 6 0 6 17 1 15 21 -3 21 -21 0 -19 -16 6 -57 31
-50 17 -50 -19 1 l-31 43 34 19 35 18 35 -34 c38 -37 47 -57 16 -38 -11 7 -18
15 -15 19 2 4 -4 13 -14 20 -15 13 -16 12 -4 -3 10 -12 10 -17 1 -20 -12 -4
92 -68 115 -72 6 -1 17 -5 24 -9 18 -12 35 2 22 18 -9 10 -7 16 8 24 24 13 36
3 20 -17 -18 -21 24 -50 64 -44 24 4 27 7 15 13 -8 5 -25 8 -38 7 -12 -2 -24
3 -27 11 -3 9 1 11 17 6 27 -8 27 9 0 29 -12 8 -18 19 -14 25 3 6 0 13 -7 15
-54 17 -52 14 -32 38 18 20 18 21 1 15 -10 -4 -25 -7 -33 -7 -10 0 -13 -6 -10
-18 4 -12 -3 -27 -18 -41 -29 -27 -50 -19 -42 15 4 15 2 24 -6 24 -6 0 -32 22
-57 48 -71 74 -74 76 -102 49z m1896 -37 c-3 -5 -11 -10 -16 -10 -6 0 -7 5 -4
10 3 6 11 10 16 10 6 0 7 -4 4 -10z m-478 -40 c-2 -39 -10 -50 -22 -30 -5 9
14 70 22 70 2 0 2 -18 0 -40z m-1626 -4 c-26 -28 -27 -46 -1 -46 24 0 27 -15
4 -24 -8 -3 -12 -10 -9 -16 3 -6 -1 -7 -10 -4 -14 6 -14 8 2 19 15 11 15 13
-6 20 -19 6 -22 12 -16 33 7 30 33 55 47 46 5 -4 0 -16 -11 -28z m2099 12 c0
-6 8 -4 18 3 15 13 16 12 4 -2 -10 -14 -17 -15 -37 -5 -30 13 -33 26 -5 19 11
-3 20 -10 20 -15z m-1423 -3 c0 -8 -4 -12 -8 -9 -4 2 -21 -8 -39 -22 -17 -15
-34 -23 -38 -19 -4 3 0 12 9 18 9 7 17 17 18 22 1 6 8 9 16 7 7 -1 16 2 20 8
9 15 22 12 22 -5z m-579 -28 c19 7 14 -8 -10 -28 -27 -25 -35 -24 -41 4 -2 12
-8 31 -13 41 -7 19 -7 19 22 -1 16 -11 35 -18 42 -16z m656 23 c13 13 29 13
21 0 -3 -5 -2 -10 3 -10 5 0 7 -11 5 -24 -5 -23 24 -86 38 -86 4 0 15 -14 23
-32 13 -24 13 -33 4 -39 -14 -9 -61 34 -64 59 -2 9 -8 18 -13 20 -6 2 -11 13
-11 23 0 11 -5 17 -10 14 -6 -3 -13 2 -17 12 -4 10 -15 25 -25 34 -28 25 -23
40 9 28 18 -7 30 -6 37 1z m1357 -21 l31 -22 -38 -37 c-35 -32 -41 -35 -59
-23 -11 7 -38 13 -60 13 l-40 1 28 15 c16 9 35 13 43 10 9 -3 12 -1 9 4 -3 6
-3 10 2 11 4 0 17 2 28 4 10 2 25 -1 32 -7 16 -13 28 -4 18 11 -3 6 -11 8 -17
5 -7 -5 -9 -2 -6 7 4 11 -5 14 -36 15 -33 2 -36 0 -16 -6 24 -8 17 -12 -25
-14 -11 -1 -19 -7 -17 -13 2 -11 -20 -18 -32 -10 -3 1 -16 -9 -30 -22 -14 -14
-29 -22 -32 -19 -3 4 23 29 58 57 71 58 101 61 159 20z m-2081 -9 c0 -5 -7 -7
-15 -4 -8 4 -15 8 -15 10 0 2 7 4 15 4 8 0 15 -4 15 -10z m665 -18 c-3 -3 4
-11 15 -19 11 -8 20 -19 20 -24 0 -19 -54 31 -57 53 -3 18 -1 19 12 8 9 -7 13
-15 10 -18z m-234 -38 c-9 -12 -24 -22 -33 -21 -24 2 -23 12 5 39 29 30 53 14
28 -18z m1416 20 c9 -9 8 -16 -7 -29 -11 -10 -17 -21 -15 -26 3 -4 -5 -9 -17
-11 -27 -4 -37 -28 -11 -28 14 0 15 -2 4 -9 -8 -5 -20 -7 -28 -4 -7 3 -13 1
-13 -5 0 -5 -8 -12 -17 -16 -10 -3 -24 -9 -32 -12 -10 -5 -13 -1 -8 15 3 12 1
19 -5 15 -5 -3 -8 2 -7 12 2 11 0 25 -5 33 -5 8 -4 16 4 21 6 4 10 9 9 11 -2
2 2 12 8 23 10 18 11 18 37 1 15 -10 26 -13 26 -6 0 6 -7 11 -15 11 -8 0 -15
3 -15 8 0 12 94 9 107 -4z m-1661 -71 c41 -42 72 -78 71 -80 -17 -16 -169 119
-160 143 3 8 8 14 11 14 3 0 38 -35 78 -77z m-78 -50 c21 -18 31 -33 24 -33
-16 0 -45 22 -109 81 -35 32 -42 43 -33 54 10 12 18 7 47 -28 19 -23 51 -57
71 -74z m-38 86 c0 -5 5 -8 12 -6 7 1 12 -3 13 -8 0 -6 13 -24 28 -39 16 -15
26 -31 22 -34 -5 -5 -34 23 -89 87 -17 18 -17 21 -3 15 9 -3 17 -10 17 -15z
m267 -33 c2 -1 4 -11 6 -22 1 -10 6 -25 10 -31 6 -9 3 -11 -7 -7 -9 3 -16 12
-16 20 0 8 -6 14 -12 14 -7 0 -24 9 -38 21 l-25 20 40 -7 c22 -4 41 -7 42 -8z
m521 -9 c20 -13 14 -27 -10 -24 -12 2 -22 11 -24 19 -2 16 12 18 34 5z m-572
-18 c7 -11 -13 -29 -31 -28 -5 0 -5 3 2 5 7 3 9 12 6 20 -6 16 13 19 23 3z
m165 -28 c-12 -12 -21 -28 -21 -37 0 -9 -9 -48 -21 -87 -15 -52 -23 -67 -32
-58 -11 11 -10 17 18 84 5 12 3 17 -8 17 -10 0 -19 -17 -27 -50 -7 -27 -16
-50 -21 -50 -13 0 -11 14 14 111 15 58 26 84 35 82 6 -3 9 -9 6 -14 -3 -6 0
-17 8 -26 11 -14 11 -16 -4 -11 -10 5 -18 0 -21 -11 -3 -14 0 -17 14 -14 26 7
33 21 19 38 -10 11 -10 15 -1 15 7 0 9 5 6 10 -3 6 3 10 14 10 11 0 23 5 26
11 4 6 9 8 12 5 2 -2 -5 -14 -16 -25z m807 -1 c0 -16 -1 -30 -2 -30 -13 0 -66
23 -66 29 0 14 25 31 45 31 17 0 22 -6 23 -30z m-938 10 c0 -5 -2 -10 -4 -10
-3 0 -8 5 -11 10 -3 6 -1 10 4 10 6 0 11 -4 11 -10z m-20 -20 c0 -5 -7 -10
-16 -10 -8 0 -12 5 -9 10 3 6 10 10 16 10 5 0 9 -4 9 -10z m875 -27 c-13 -33
-16 -58 -15 -109 0 -40 -3 -53 -16 -58 -9 -4 -19 -5 -21 -3 -6 7 20 162 30
175 14 18 30 15 22 -5z m58 -66 c-7 -34 -13 -74 -13 -89 0 -28 -14 -35 -39
-19 -12 8 -12 20 -2 73 24 127 20 118 45 107 22 -10 22 -12 9 -72z m-893 49
c0 -11 -19 -15 -25 -6 -3 5 1 10 9 10 9 0 16 -2 16 -4z m735 -6 c-3 -5 -12
-10 -18 -10 -7 0 -6 4 3 10 19 12 23 12 15 0z m9 -38 c-7 -14 -11 -29 -8 -34
3 -4 0 -8 -7 -8 -6 0 -9 8 -6 20 4 17 0 20 -26 21 -18 0 -26 3 -19 6 6 2 10 8
8 12 -2 3 13 7 34 7 37 1 37 1 24 -24z m186 -62 c4 -63 2 -70 -14 -64 -9 3
-12 15 -9 32 2 15 5 41 6 59 3 45 15 27 17 -27z m-687 -11 c-6 -20 -23 -26
-23 -9 0 17 -38 11 -43 -7 -4 -14 -5 -13 -6 4 -1 24 11 31 50 30 21 0 25 -4
22 -18z"/>
<path d="M2005 580 c-3 -5 -1 -10 4 -10 6 0 11 5 11 10 0 6 -2 10 -4 10 -3 0
-8 -4 -11 -10z"/>
<path d="M1977 546 c-4 -10 -1 -13 8 -9 8 3 12 9 9 14 -7 12 -11 11 -17 -5z"/>
<path d="M377 589 c7 -7 15 -10 18 -7 3 3 -2 9 -12 12 -14 6 -15 5 -6 -5z"/>
<path d="M1460 500 c20 -13 33 -13 25 0 -3 6 -14 10 -23 10 -15 0 -15 -2 -2
-10z"/>
<path d="M1940 779 c0 -5 5 -7 10 -4 6 3 10 8 10 11 0 2 -4 4 -10 4 -5 0 -10
-5 -10 -11z"/>
<path d="M852 758 c-18 -18 -15 -33 3 -18 13 10 27 11 70 1 52 -12 75 -9 75 8
0 14 -73 22 -82 8 -6 -9 -8 -9 -8 1 0 15 -42 16 -58 0z"/>
<path d="M1950 745 c-7 -9 -11 -18 -8 -20 3 -3 11 1 18 10 7 9 11 18 8 20 -3
3 -11 -1 -18 -10z"/>
<path d="M2778 753 c6 -2 18 -2 25 0 6 3 1 5 -13 5 -14 0 -19 -2 -12 -5z"/>
<path d="M2711 736 c12 -10 79 -16 79 -6 0 5 -19 10 -42 10 -23 0 -39 -2 -37
-4z"/>
<path d="M566 711 c-7 -10 43 -45 52 -37 3 3 1 6 -4 6 -5 1 6 7 25 16 19 8 31
17 28 21 -4 3 -14 0 -22 -7 -12 -10 -21 -10 -41 -1 -30 13 -31 13 -38 2z"/>
<path d="M2985 690 c-3 -5 -3 -10 2 -10 4 0 2 -4 -4 -8 -10 -6 -10 -12 2 -28
13 -18 14 -17 15 19 0 38 -4 45 -15 27z"/>
<path d="M2018 673 c12 -2 32 -2 45 0 12 2 2 4 -23 4 -25 0 -35 -2 -22 -4z"/>
<path d="M1418 638 c7 -9 12 -20 11 -24 -5 -27 4 -34 39 -34 56 0 69 14 27 30
-19 8 -35 18 -35 24 0 5 -3 6 -6 3 -4 -3 -16 -1 -28 5 -18 10 -19 9 -8 -4z"/>
<path d="M1050 616 c0 -18 1 -19 20 -1 11 10 20 19 20 19 0 1 -9 2 -20 2 -13
0 -20 -7 -20 -20z"/>
<path d="M1630 610 c-18 -12 -2 -12 25 0 13 6 15 9 5 9 -8 0 -22 -4 -30 -9z"/>
<path d="M2980 610 c0 -5 5 -10 10 -10 6 0 10 5 10 10 0 6 -4 10 -10 10 -5 0
-10 -4 -10 -10z"/>
<path d="M1478 563 c6 -2 18 -2 25 0 6 3 1 5 -13 5 -14 0 -19 -2 -12 -5z"/>
<path d="M2128 533 c-31 -5 -60 -32 -31 -29 10 0 21 6 26 11 4 6 11 4 17 -5 9
-13 14 -7 11 13 -2 12 42 7 74 -9 21 -10 23 -13 8 -10 -15 3 -23 -2 -27 -17
-7 -30 -1 -32 23 -8 26 26 43 26 66 1 14 -16 16 -23 7 -32 -7 -7 -12 -19 -12
-29 0 -9 -9 -28 -20 -42 -11 -14 -20 -28 -20 -32 0 -13 39 42 51 71 13 33 21
79 12 70 -4 -3 -14 1 -23 9 -19 17 -96 46 -119 44 -9 -1 -28 -4 -43 -6z"/>
<path d="M1549 515 c-3 -26 2 -179 6 -183 13 -13 16 12 7 68 -7 50 -6 62 6 69
13 7 13 11 -2 32 -9 13 -17 19 -17 14z"/>
<path d="M1290 496 c0 -9 5 -16 10 -16 6 0 10 4 10 9 0 6 -4 13 -10 16 -5 3
-10 -1 -10 -9z"/>
<path d="M1202 467 c-23 -21 -102 -32 -102 -14 0 4 -5 5 -11 1 -19 -11 13 -24
63 -24 28 0 52 6 62 15 8 8 20 15 26 15 13 0 8 23 -6 26 -5 1 -19 -7 -32 -19z"/>
<path d="M1620 480 c0 -5 5 -10 11 -10 5 0 7 5 4 10 -3 6 -8 10 -11 10 -2 0
-4 -4 -4 -10z"/>
<path d="M1720 465 c-8 -9 -8 -15 -2 -15 12 0 26 19 19 26 -2 2 -10 -2 -17
-11z"/>
<path d="M2123 453 c-3 -10 -8 -21 -10 -25 -2 -4 3 -5 11 -2 8 3 14 14 13 25
-2 24 -6 24 -14 2z"/>
<path d="M2190 440 c0 -5 7 -10 15 -10 7 0 19 -8 24 -17 6 -10 10 -13 10 -8 0
14 -22 40 -37 43 -6 1 -12 -2 -12 -8z"/>
<path d="M2082 428 c-7 -7 -12 -18 -12 -26 0 -8 -11 -36 -25 -63 -27 -55 -21
-62 18 -21 22 23 25 31 14 41 -10 11 -8 12 12 6 16 -5 21 -4 17 4 -4 6 -2 11
3 11 6 0 11 7 11 15 0 8 -6 12 -15 9 -10 -4 -13 0 -10 15 4 24 3 25 -13 9z"/>
<path d="M1053 413 c0 -23 85 -125 98 -117 5 3 9 -1 9 -8 0 -19 47 -61 55 -48
7 12 25 4 25 -11 0 -25 -34 -19 -66 12 -19 18 -34 27 -34 21 0 -7 7 -15 15
-18 8 -4 12 -11 8 -17 -3 -6 -1 -7 5 -3 10 6 16 -4 14 -24 -1 -10 47 -10 53 0
3 5 12 7 20 4 8 -4 12 -11 9 -16 -4 -6 -9 -6 -14 2 -4 7 -10 8 -13 3 -3 -5 3
-20 14 -33 l19 -25 0 23 c0 13 6 22 15 22 25 0 17 29 -10 36 -14 3 -23 10 -20
14 3 5 -3 13 -12 19 -10 6 -13 11 -7 11 6 0 17 -7 24 -15 7 -8 20 -15 29 -14
11 0 12 2 3 6 -9 3 -5 12 12 28 l25 23 -47 42 c-55 50 -68 38 -18 -16 24 -26
32 -42 25 -49 -7 -7 -19 1 -39 25 -30 37 -50 37 -30 0 9 -16 9 -25 1 -33 -14
-14 -64 39 -54 57 4 6 -2 4 -12 -4 -17 -14 -18 -14 -6 8 6 12 18 22 26 22 7 0
17 5 20 10 12 19 -35 10 -53 -10 l-17 -21 -6 23 c-3 13 -10 22 -15 21 -5 -1
-10 7 -10 17 0 15 4 16 18 9 10 -5 18 -14 18 -20 0 -6 5 -7 10 -4 19 12 10 35
-12 35 -13 0 -32 7 -42 15 -26 19 -33 19 -33 -2z"/>
<path d="M1007 413 c-12 -12 -7 -22 8 -17 8 4 15 10 15 15 0 11 -14 12 -23 2z"/>
<path d="M2165 410 c3 -5 11 -10 16 -10 6 0 7 5 4 10 -3 6 -11 10 -16 10 -6 0
-7 -4 -4 -10z"/>
<path d="M1032 377 c-8 -9 -6 -41 6 -109 16 -96 17 -97 55 -118 36 -21 37 -23
22 -40 -9 -10 -14 -23 -11 -29 10 -15 -25 -6 -67 19 -20 12 -42 20 -49 17 -7
-2 -20 1 -28 8 -12 11 -25 10 -67 -3 -29 -9 -53 -20 -53 -24 0 -4 34 -5 75 -1
61 5 83 2 116 -12 23 -11 38 -24 35 -31 -3 -7 2 -18 11 -25 13 -11 21 -6 57
36 38 43 46 48 73 42 22 -4 33 -2 36 7 4 10 -1 12 -16 9 -18 -5 -20 -3 -9 8 6
7 12 21 12 31 0 17 -1 17 -21 0 -12 -9 -31 -27 -44 -40 -16 -17 -22 -19 -22
-8 0 8 5 13 11 10 6 -3 0 4 -14 16 -14 11 -35 25 -47 30 -15 6 -22 17 -21 32
0 13 -4 50 -10 82 -12 59 -9 87 5 50 7 -20 22 -34 36 -34 5 0 -4 15 -19 33
-15 17 -31 31 -35 30 -5 -2 -6 4 -3 12 7 18 0 19 -14 2z"/>
<path d="M2028 375 c-3 -11 -9 -29 -13 -40 -3 -11 1 -7 10 8 9 16 15 33 12 40
-2 6 -6 3 -9 -8z"/>
<path d="M2157 376 c-3 -8 -2 -18 3 -21 13 -8 24 15 12 27 -6 6 -11 4 -15 -6z"/>
<path d="M1695 371 c-3 -5 -1 -12 5 -16 5 -3 10 1 10 9 0 18 -6 21 -15 7z"/>
<path d="M2087 322 c-16 -17 -16 -20 -2 -26 16 -6 30 14 23 34 -2 7 -11 4 -21
-8z"/>
<path d="M2137 322 c-10 -10 -17 -28 -17 -40 0 -11 -4 -24 -10 -27 -5 -3 -10
-11 -10 -18 0 -16 13 0 45 56 27 47 23 63 -8 29z"/>
<path d="M1615 320 c-4 -6 -16 -10 -28 -8 -16 2 -23 -3 -25 -19 -3 -19 1 -23
22 -23 14 0 26 -4 26 -8 0 -5 7 -9 15 -9 8 0 15 4 15 8 0 4 10 9 23 11 14 2
22 10 22 23 0 13 -8 21 -22 23 -19 3 -23 -1 -23 -22 0 -14 -5 -26 -11 -26 -6
0 -8 13 -5 30 4 31 2 37 -9 20z m-15 -30 c0 -5 -4 -10 -10 -10 -5 0 -10 5 -10
10 0 6 5 10 10 10 6 0 10 -4 10 -10z"/>
<path d="M1717 309 c4 -13 8 -18 11 -10 2 7 -1 18 -6 23 -8 8 -9 4 -5 -13z"/>
<path d="M2233 323 c-15 -5 -18 -33 -4 -33 8 0 25 30 19 35 -2 1 -9 0 -15 -2z"/>
<path d="M566 291 c-4 -6 2 -8 15 -6 26 5 59 -11 59 -29 0 -8 7 -19 15 -26 12
-10 15 -10 15 2 0 8 -3 18 -7 22 -5 4 -8 12 -8 18 0 6 -7 13 -15 14 -8 2 -27
6 -41 10 -15 3 -30 1 -33 -5z"/>
<path d="M1996 276 c-5 -19 -3 -32 5 -36 6 -4 8 -13 5 -19 -5 -7 -2 -10 6 -9
8 2 12 -5 11 -19 -2 -13 2 -23 7 -23 5 0 19 -19 30 -43 11 -23 28 -53 37 -67
14 -20 15 -23 2 -13 -9 7 -26 33 -39 58 -13 25 -25 43 -27 41 -3 -2 5 -22 16
-45 27 -52 27 -54 -11 -49 -27 4 -29 3 -14 -8 16 -11 15 -13 -10 -16 -40 -4
-40 -23 0 -24 27 0 37 5 45 23 9 20 14 22 31 13 11 -6 20 -8 20 -4 0 3 9 -4
20 -17 31 -39 23 -12 -20 60 -22 37 -40 73 -40 79 0 7 -5 11 -12 10 -10 -3
-28 44 -31 85 -1 9 -4 17 -8 17 -4 0 -9 8 -11 18 -3 12 -6 8 -12 -12z"/>
<path d="M2164 284 c-4 -10 -9 -22 -11 -26 -2 -5 0 -8 5 -8 10 0 24 41 17 48
-3 3 -8 -4 -11 -14z"/>
<path d="M2212 268 c-14 -14 -16 -38 -3 -38 8 0 23 41 17 47 -1 1 -8 -3 -14
-9z"/>
<path d="M1366 252 c-3 -5 -16 -7 -29 -5 -22 4 -24 2 -22 -34 1 -26 -4 -40
-14 -44 -12 -5 -10 -9 9 -19 14 -7 22 -9 18 -6 -3 4 2 16 13 27 10 10 19 27
19 37 0 10 5 23 12 30 6 6 9 14 6 17 -3 4 -9 2 -12 -3z m-16 -36 c0 -14 -3
-27 -7 -29 -5 -3 -8 8 -8 24 0 16 3 29 8 29 4 0 7 -11 7 -24z"/>
<path d="M1418 253 c6 -2 10 -8 8 -12 -3 -4 -1 -13 4 -21 7 -12 10 -11 16 4 7
18 -10 36 -31 35 -5 0 -4 -3 3 -6z"/>
<path d="M2073 198 c6 -23 12 -37 15 -30 2 8 9 9 23 2 28 -16 23 -3 -15 36
l-34 35 11 -43z"/>
<path d="M913 185 c27 -25 54 -45 60 -45 8 0 8 3 2 8 -15 11 -42 47 -30 40 6
-4 17 -3 25 2 11 7 8 10 -12 15 -15 4 -31 4 -36 1 -5 -3 -15 1 -22 9 -7 8 -18
15 -24 15 -6 -1 11 -21 37 -45z"/>
<path d="M2161 221 c-8 -5 -21 -7 -29 -4 -12 5 -12 3 0 -16 l13 -22 17 21 c10
12 22 18 29 14 8 -4 9 -3 5 4 -9 14 -16 15 -35 3z"/>
<path d="M498 183 c4 -20 2 -24 -8 -18 -9 5 -11 4 -6 -4 4 -6 -5 -43 -20 -81
-15 -39 -25 -72 -23 -75 7 -6 46 74 61 125 l13 45 100 -1 c159 -3 264 -16 276
-36 4 -7 13 -7 23 -1 14 8 10 11 -21 21 -71 20 -207 41 -304 46 l-96 5 5 -26z"/>
<path d="M997 177 c-3 -7 5 -13 19 -13 29 -2 30 2 5 15 -14 8 -20 7 -24 -2z"/>
<path d="M1480 179 c0 -5 9 -9 20 -9 11 0 20 2 20 4 0 2 -9 6 -20 9 -11 3 -20
1 -20 -4z"/>
<path d="M1430 170 c0 -5 5 -10 11 -10 5 0 7 5 4 10 -3 6 -8 10 -11 10 -2 0
-4 -4 -4 -10z"/>
<path d="M361 152 c-17 -31 -13 -40 5 -14 9 13 14 26 11 29 -3 2 -10 -4 -16
-15z"/>
<path d="M1580 162 c0 -5 7 -9 15 -9 8 0 12 4 9 9 -7 10 -24 10 -24 0z"/>
<path d="M2162 158 c3 -7 13 -15 24 -17 16 -3 17 -1 5 13 -16 19 -34 21 -29 4z"/>
<path d="M1757 133 c-3 -5 0 -19 8 -29 15 -20 18 -11 6 20 -4 11 -10 15 -14 9z"/>
<path d="M1266 122 c-11 -18 -33 -122 -26 -122 8 0 25 40 34 80 4 18 12 25 32
27 25 1 26 0 20 -45 l-5 -47 12 42 c13 44 27 66 27 42 0 -8 10 -14 25 -14 31
0 33 12 3 18 -13 2 6 4 42 4 36 0 48 -2 28 -4 -79 -9 -22 -25 81 -23 13 0 39
-4 58 -9 20 -6 31 -6 28 0 -4 5 1 9 10 9 10 0 13 -5 9 -12 -5 -8 0 -9 14 -6
14 4 20 2 16 -4 -4 -6 2 -8 12 -6 11 2 27 -4 37 -13 21 -19 104 -45 114 -35
10 9 -116 63 -203 86 -80 21 -126 26 -89 10 19 -8 19 -9 -2 -9 -13 -1 -23 3
-23 9 0 5 -15 11 -32 14 -61 9 -218 15 -222 8z m347 -39 c-7 -2 -19 -2 -25 0
-7 3 -2 5 12 5 14 0 19 -2 13 -5z"/>
<path d="M2230 127 c0 -14 67 -127 72 -121 10 9 -24 82 -48 105 -13 12 -24 20
-24 16z"/>
<path d="M455 109 c-4 -6 -5 -12 -2 -15 2 -3 7 2 10 11 7 17 1 20 -8 4z"/>
<path d="M767 106 c4 -5 -1 -7 -10 -3 -10 3 -17 2 -17 -4 0 -6 -4 -7 -10 -4
-5 3 -10 1 -10 -4 0 -6 -6 -11 -12 -12 -15 0 -64 -59 -50 -59 5 0 16 8 25 18
10 10 40 29 67 42 53 25 62 36 31 36 -11 0 -17 -5 -14 -10z"/>
<path d="M2197 103 c-10 -10 -8 -25 2 -18 5 3 15 -12 21 -32 14 -42 26 -60 36
-50 8 8 -16 67 -27 67 -5 0 -9 9 -9 20 0 20 -11 26 -23 13z"/>
<path d="M1798 75 c-3 -14 -1 -25 3 -25 5 0 9 11 9 25 0 14 -2 25 -4 25 -2 0
-6 -11 -8 -25z"/>
<path d="M2140 89 c0 -5 5 -7 10 -4 6 3 10 8 10 11 0 2 -4 4 -10 4 -5 0 -10
-5 -10 -11z"/>
<path d="M785 76 c-36 -17 -105 -75 -89 -76 6 0 17 7 24 15 7 8 17 15 22 15 7
0 6 -5 -1 -13 -6 -8 11 -3 38 10 26 13 73 27 104 30 64 6 151 -13 140 -31 -3
-6 -2 -8 2 -3 5 4 19 0 31 -8 20 -13 23 -13 18 -1 -3 8 -27 24 -52 36 -39 19
-59 22 -122 18 -44 -3 -89 -12 -108 -22 -50 -26 -50 -12 0 18 46 28 42 34 -7
12z"/>
<path d="M1200 65 c13 -14 26 -23 28 -20 7 7 -29 45 -41 45 -6 0 0 -11 13 -25z"/>
<path d="M1853 65 c0 -8 6 -15 13 -15 7 0 22 -12 33 -27 12 -14 23 -24 26 -22
5 6 -5 19 -41 52 -22 20 -31 23 -31 12z"/>
<path d="M1150 55 c0 -8 2 -15 4 -15 2 0 6 7 10 15 3 8 1 15 -4 15 -6 0 -10
-7 -10 -15z"/>
<path d="M1176 43 c-4 -10 -4 -14 0 -11 4 4 16 2 28 -4 21 -11 21 -11 2 11
-23 25 -22 25 -30 4z"/>
<path d="M1120 32 c0 -13 23 -32 39 -32 11 0 10 4 -4 20 -19 21 -35 26 -35 12z"/>
<path d="M421 14 c0 -11 3 -14 6 -6 3 7 2 16 -1 19 -3 4 -6 -2 -5 -13z"/>
<path d="M2080 10 c0 -5 5 -10 11 -10 5 0 7 5 4 10 -3 6 -8 10 -11 10 -2 0 -4
-4 -4 -10z"/>
</g>
</svg>
