<?xml version="1.0" standalone="no"?>
<!DOCTYPE svg PUBLIC "-//W3C//DTD SVG 20010904//EN"
 "http://www.w3.org/TR/2001/REC-SVG-20010904/DTD/svg10.dtd">
<svg version="1.0" xmlns="http://www.w3.org/2000/svg"
 width="300.000000pt" height="199.000000pt" viewBox="0 0 300.000000 199.000000"
 preserveAspectRatio="xMidYMid meet">
<metadata>
Created by potrace 1.10, written by Peter Selinger 2001-2011
</metadata>
<g transform="translate(0.000000,199.000000) scale(0.050000,-0.050000)"
fill="#000000" stroke="none">
<path d="M860 3941 l-70 -13 84 -10 c47 -5 101 -3 120 5 20 8 25 15 13 16 -13
0 -36 4 -50 8 -15 4 -58 2 -97 -6z"/>
<path d="M1375 3944 c-30 -4 -55 -19 -55 -34 0 -29 232 -30 278 -1 12 7 22 6
22 -3 0 -9 28 -32 61 -51 39 -22 56 -44 47 -60 -9 -16 -4 -15 14 3 22 21 22
29 3 36 -55 20 -24 59 40 52 l65 -8 -50 29 c-48 27 -312 50 -425 37z"/>
<path d="M2780 3944 c-16 -6 -36 -20 -44 -32 -10 -14 -92 -20 -235 -18 -201 4
-222 1 -241 -35 -14 -25 -44 -40 -86 -41 -107 -3 -229 -77 -129 -78 15 0 17
-6 5 -15 -11 -8 -33 -33 -50 -55 -28 -39 -28 -39 11 -5 44 36 269 115 330 115
20 0 42 9 49 20 7 12 21 16 31 10 9 -6 35 0 57 13 31 19 45 19 69 -1 23 -19
41 -19 72 -2 49 26 84 11 68 -31 -15 -39 7 -37 64 8 31 25 85 38 163 40 64 3
119 13 123 24 3 10 17 13 30 5 13 -7 11 2 -4 20 -25 30 -23 34 15 34 23 0 42
10 42 21 0 12 -16 17 -35 11 -101 -30 -146 -33 -208 -17 -37 10 -80 14 -97 9z"/>
<path d="M3140 3932 c0 -16 -11 -33 -25 -39 -14 -5 -1 -11 28 -11 30 -1 69 -8
89 -15 24 -10 30 -6 20 10 -8 13 0 29 19 36 19 7 40 1 50 -15 9 -15 23 -21 31
-13 8 8 28 -2 46 -22 27 -29 40 -31 78 -12 l46 23 -56 23 c-150 59 -326 78
-326 35z"/>
<path d="M4250 3940 c-7 -12 13 -20 49 -20 33 0 61 9 61 20 0 11 -22 20 -49
20 -27 0 -54 -9 -61 -20z"/>
<path d="M935 3886 c-41 -11 -44 -28 -10 -65 20 -22 17 -24 -20 -16 -30 8 -45
2 -45 -17 0 -31 51 -39 69 -10 6 9 33 21 60 27 27 5 46 3 41 -5 -19 -30 301
-63 360 -38 32 14 25 17 -30 15 -114 -4 -140 1 -140 31 0 18 -14 25 -40 18
-29 -8 -40 -1 -40 27 -1 28 -5 31 -18 10 -13 -20 -27 -22 -57 -6 -22 12 -45
16 -52 9 -7 -7 -13 -2 -13 11 0 24 -6 25 -65 9z"/>
<path d="M1954 3858 c-9 -35 -22 -40 -78 -30 -36 6 -52 6 -36 -1 17 -8 41 -28
54 -45 16 -21 25 -24 25 -7 1 14 18 25 39 25 21 0 42 9 46 21 3 11 45 22 91
24 141 6 92 55 -54 55 -61 0 -79 -9 -87 -42z"/>
<path d="M5689 3788 c-66 -45 -103 -53 -258 -60 -225 -9 -347 -25 -361 -47 -5
-10 -87 -13 -180 -7 -127 8 -179 3 -203 -17 -18 -15 -66 -28 -105 -29 -119 -3
-288 -60 -327 -111 -20 -26 -56 -69 -81 -97 -76 -83 -153 -194 -174 -250 l-20
-53 66 41 c37 22 95 43 129 46 34 2 57 13 50 24 -6 10 2 13 21 6 22 -8 29 -3
21 17 -8 19 2 29 27 29 43 0 98 84 78 117 -11 17 16 48 48 55 6 1 45 17 88 36
63 29 81 30 95 8 12 -19 16 -20 17 -1 0 14 25 25 56 25 30 0 88 17 128 37 57
29 70 31 61 8 -8 -22 -1 -26 29 -17 49 16 103 -79 66 -116 -16 -16 -19 -11 -9
18 10 33 6 31 -28 -10 -22 -27 -47 -43 -54 -35 -16 16 -102 -86 -94 -111 4 -9
-3 -12 -13 -5 -11 6 -25 -8 -33 -31 -9 -30 -18 -36 -29 -19 -20 33 -101 -52
-86 -91 12 -33 33 -35 81 -9 19 10 52 23 73 30 37 12 37 13 2 38 -26 20 -29
31 -12 42 28 17 82 -22 82 -59 0 -14 -13 -31 -30 -37 -38 -15 -39 -73 -1 -73
39 0 91 56 124 134 33 79 33 86 4 86 -13 0 -18 -6 -11 -13 16 -16 -22 -87 -47
-87 -10 0 -19 14 -19 31 0 34 46 89 74 89 16 0 66 124 70 175 3 30 29 33 46 6
7 -12 30 -13 60 -1 38 14 46 12 37 -9 -5 -15 -23 -33 -39 -39 -68 -26 2 -53
89 -34 5 1 -3 15 -16 30 -16 20 -16 33 -2 41 12 8 21 4 21 -8 0 -28 66 -27 95
2 18 18 32 16 59 -5 33 -25 33 -25 10 6 -61 78 -46 172 27 170 37 -1 62 -9 57
-18 -6 -9 1 -16 15 -16 13 0 7 -13 -14 -29 -38 -29 -38 -30 4 -30 23 -1 48 13
55 30 6 17 20 27 29 21 24 -15 4 -112 -23 -112 -12 0 -4 -13 17 -28 24 -18 47
-22 61 -11 12 10 26 14 32 8 6 -5 23 5 38 24 25 30 24 33 -5 22 -21 -8 -38 -1
-45 18 -8 20 2 34 27 41 35 9 72 62 54 79 -4 5 -32 -1 -63 -13 -79 -30 -86 -9
-10 30 50 26 69 28 92 8 24 -20 41 -16 89 19 48 36 65 40 97 20 49 -31 102 7
102 70 0 71 -208 71 -311 1z m-419 -148 c-7 -11 -2 -20 10 -20 12 0 16 -10 9
-22 -9 -15 -18 -15 -27 -2 -19 31 -119 4 -132 -36 -13 -43 -64 -67 -81 -39 -6
10 -1 19 11 19 12 0 16 10 9 22 -10 15 -20 15 -35 0 -12 -12 -31 -22 -42 -22
-44 0 77 67 165 91 119 32 128 33 113 9z"/>
<path d="M700 3760 c0 -11 28 -20 61 -20 36 0 56 8 49 20 -7 11 -34 20 -61 20
-27 0 -49 -9 -49 -20z"/>
<path d="M1540 3669 c0 -17 -7 -27 -16 -21 -31 19 -68 -20 -40 -42 19 -15 38
-6 73 37 37 46 40 57 15 57 -18 0 -32 -14 -32 -31z"/>
<path d="M3167 3626 c-45 -9 -128 -86 -93 -86 12 0 32 14 46 30 14 17 46 30
71 30 26 0 52 9 59 20 12 20 -5 21 -83 6z"/>
<path d="M2320 3492 c0 -29 24 -41 67 -34 10 2 28 -6 42 -17 28 -23 51 -8 51
35 0 21 -14 25 -52 15 -29 -7 -64 -3 -80 11 -22 18 -28 16 -28 -10z"/>
<path d="M4569 3439 c-6 -11 3 -19 20 -19 35 0 42 -31 11 -47 -12 -5 -10 -8 3
-5 43 8 57 83 15 87 -20 1 -42 -6 -49 -16z"/>
<path d="M5404 3396 c-13 -13 -24 -17 -24 -9 0 9 -24 -3 -52 -25 -29 -23 -60
-37 -69 -32 -8 6 -38 -30 -66 -80 l-50 -90 47 0 c26 0 53 -9 60 -20 23 -38 47
-20 39 29 -5 27 0 54 11 61 11 7 15 21 9 31 -6 11 7 19 30 19 25 0 41 13 41
33 0 19 15 50 33 70 37 41 29 51 -9 13z"/>
<path d="M560 3339 c-27 -12 -157 -21 -287 -21 -197 1 -235 -4 -226 -28 7 -18
1 -24 -18 -17 -35 14 -39 -26 -4 -40 19 -7 18 -15 -5 -31 -27 -19 -27 -21 0
-22 24 0 25 -4 3 -18 -19 -12 -21 -21 -5 -31 19 -12 26 1 20 42 -2 19 48 46
66 35 42 -26 8 -186 -42 -192 -78 -9 -71 -48 15 -83 44 -17 85 -41 92 -52 8
-12 26 -21 42 -21 18 0 4 23 -34 57 -60 54 -61 57 -22 68 26 6 58 -4 83 -27
22 -21 58 -38 80 -38 22 0 46 -10 53 -21 7 -12 25 -17 40 -12 30 12 78 -37 61
-63 -6 -10 7 -35 28 -54 21 -19 34 -43 28 -53 -6 -9 3 -17 20 -17 20 0 26 11
18 32 -10 26 -5 28 26 11 21 -11 55 -25 75 -32 22 -7 33 -23 26 -40 -7 -17 5
-34 28 -41 21 -7 39 -20 39 -29 0 -9 14 -22 30 -28 42 -16 111 54 88 90 -15
23 -21 23 -36 -1 -22 -34 -113 -15 -128 26 -6 15 2 45 19 65 16 20 25 27 19
14 -7 -13 2 -28 18 -34 18 -7 30 0 30 15 0 40 -60 57 -96 27 -27 -21 -29 -20
-18 11 10 26 0 40 -38 55 -28 10 -45 27 -39 37 6 10 0 24 -14 30 -14 6 -4 7
21 0 84 -21 184 -24 184 -6 0 10 -12 18 -27 18 -15 0 -37 20 -49 45 -17 36
-22 38 -23 10 -1 -31 -6 -30 -45 9 -26 26 -34 47 -21 51 13 4 18 21 12 37 -8
20 -2 25 21 16 24 -9 29 -4 20 20 -7 17 -8 32 -2 32 18 0 80 -108 84 -149 7
-58 6 -57 43 -21 26 27 36 28 49 7 13 -21 22 -19 44 11 18 25 42 34 70 27 24
-6 53 1 66 17 31 38 58 35 60 -7 1 -21 5 -25 11 -10 15 36 73 31 129 -10 27
-19 68 -46 92 -60 l44 -24 -40 68 c-22 37 -53 79 -69 92 -16 13 -29 36 -29 51
0 15 -25 33 -55 41 -30 7 -61 23 -69 34 -8 13 -22 -1 -34 -32 -18 -47 -29 -53
-82 -42 -50 10 -59 6 -49 -19 9 -23 1 -31 -28 -29 -31 3 -36 10 -20 29 17 20
11 26 -26 26 -46 -1 -129 -39 -84 -40 25 0 54 -60 37 -77 -13 -13 -77 75 -83
114 -9 58 37 100 88 81 66 -25 69 -23 45 22 -26 48 -21 49 53 10 38 -20 45
-30 22 -30 -19 0 -35 -9 -35 -20 0 -11 18 -20 40 -20 22 0 45 0 50 0 6 0 9 6
8 13 -1 7 10 19 23 28 16 9 -1 27 -49 49 -40 20 -70 38 -67 42 11 11 197 -64
212 -85 7 -10 32 -20 56 -22 23 -1 73 -33 110 -72 71 -73 137 -99 151 -59 5
14 -14 30 -41 37 -36 9 -47 22 -38 45 8 21 15 23 20 8 5 -13 17 -24 27 -24 10
0 68 -33 129 -73 112 -75 157 -77 113 -5 -28 44 -14 87 21 65 14 -9 17 -2 9
20 -8 21 -3 33 17 33 16 0 29 -13 29 -30 0 -16 10 -30 21 -30 12 0 16 9 9 20
-7 11 -3 20 9 20 11 0 21 -12 21 -26 0 -60 46 -75 94 -30 40 38 46 39 46 8 0
-63 -40 -115 -80 -102 -122 39 -171 -33 -61 -90 102 -52 141 -52 131 0 -5 26
3 40 23 40 19 0 28 -16 24 -45 -12 -96 158 -373 209 -341 11 7 15 3 8 -8 -19
-30 27 -77 106 -106 39 -15 85 -39 103 -55 20 -17 58 -24 97 -18 48 8 61 3 53
-17 -6 -16 6 -33 28 -40 22 -7 35 -20 30 -29 -17 -27 102 -66 153 -51 45 14
45 13 6 -17 -40 -32 -40 -32 3 -32 23 -1 54 14 69 32 35 41 187 107 245 106
26 -1 -18 -32 -114 -79 -150 -73 -257 -146 -163 -111 22 8 67 23 100 33 33 9
78 26 100 36 54 25 351 62 500 62 147 1 210 16 210 52 0 16 9 28 19 28 11 0
15 -13 8 -30 -6 -16 -2 -30 10 -30 23 0 53 76 46 115 -3 14 8 25 24 25 17 0
34 11 38 25 5 14 9 0 10 -32 0 -31 -12 -61 -27 -67 -47 -18 -31 -46 24 -41 59
5 88 50 47 75 -22 14 -22 22 0 48 18 22 19 32 3 32 -15 0 -11 18 10 50 55 84
105 18 111 -148 l2 -72 14 80 c18 110 53 167 112 182 27 7 49 25 49 42 0 20
-13 25 -45 16 -25 -7 -61 -18 -81 -23 -20 -6 -53 4 -73 23 -25 21 -42 25 -50
11 -20 -32 -47 -25 -57 14 -7 24 -10 19 -12 -15 -4 -65 -49 -125 -75 -99 -12
12 -28 -6 -44 -51 -24 -66 -64 -99 -55 -45 3 23 68 170 116 262 10 20 14 42 8
48 -6 5 -1 28 11 50 16 31 15 36 -4 24 -19 -11 -22 0 -12 43 13 55 12 56 -17
19 -16 -21 -30 -32 -30 -24 0 31 67 145 116 198 99 106 -4 58 -111 -52 -96
-98 -141 -176 -80 -141 14 8 11 -2 -7 -24 -17 -21 -47 -74 -67 -118 -20 -44
-58 -100 -86 -124 -38 -34 -47 -57 -37 -95 12 -46 7 -51 -49 -51 -74 0 -223
-81 -210 -114 5 -14 -3 -19 -21 -13 -20 8 -23 19 -9 36 12 14 16 30 10 36 -12
11 88 89 161 125 22 12 48 39 58 60 9 22 49 65 88 95 73 57 46 78 -30 25 -24
-17 -51 -29 -60 -27 -9 2 -41 -7 -72 -20 -31 -13 -69 -23 -85 -23 -16 0 -23
-12 -16 -30 13 -34 -24 -41 -44 -9 -7 11 -48 35 -92 53 -44 17 -72 37 -61 44
11 7 12 31 2 58 -10 26 -27 41 -38 34 -11 -7 -26 2 -32 19 -7 17 -23 29 -36
26 -31 -7 -192 67 -192 88 0 9 9 18 20 20 88 11 126 46 124 115 -1 67 3 68
116 25 24 -9 23 -1 -6 43 -19 30 -26 54 -14 54 11 0 20 -9 20 -21 0 -11 20
-28 45 -38 25 -10 34 -19 20 -20 -14 0 -25 -16 -25 -33 0 -22 -12 -29 -39 -23
-33 9 -36 4 -20 -37 19 -51 2 -63 -35 -26 -17 17 -33 15 -63 -6 -40 -28 -40
-28 -2 -52 32 -20 39 -19 39 6 0 37 4 37 91 1 38 -16 70 -43 72 -60 5 -65 8
-73 37 -91 58 -37 58 -19 -1 81 -72 123 -74 138 -8 65 l52 -56 -37 60 -36 59
80 -59 c44 -33 87 -71 96 -85 9 -14 27 -25 41 -25 30 0 32 96 2 116 -12 8 -28
30 -35 49 -7 20 -44 54 -82 76 -38 23 -73 54 -80 70 -15 41 14 36 69 -12 42
-37 50 -38 70 -11 26 36 109 -41 109 -100 0 -21 11 -28 30 -21 19 7 30 0 30
-20 0 -20 -11 -27 -30 -20 -17 7 -30 3 -30 -8 0 -40 76 -18 87 26 17 62 16 79
-4 67 -10 -6 -32 4 -49 23 -29 33 -24 35 77 31 82 -3 109 2 109 23 0 30 75 63
95 43 6 -7 31 0 53 15 23 15 69 34 102 43 121 33 -117 51 -266 19 -105 -22
-174 -23 -333 -6 -218 23 -218 23 -351 10 -49 -5 -101 1 -115 12 -17 14 -25
12 -25 -4 0 -25 -121 -22 -445 11 -77 8 -145 5 -160 -5 -15 -12 -130 -13 -305
-1 -154 10 -311 18 -350 19 -38 1 -77 11 -85 23 -11 15 -25 10 -44 -15 -16
-20 -40 -32 -55 -27 -19 8 -20 11 -1 12 47 3 25 34 -40 57 -91 32 -691 51
-755 24z m-330 -79 c13 -21 114 -20 130 1 6 8 28 7 50 -1 34 -12 29 -17 -34
-38 -54 -18 -76 -38 -85 -79 -16 -71 -86 -119 -105 -71 -7 19 -3 58 8 88 13
34 14 67 2 87 -19 36 12 48 34 13z m500 -21 c6 -8 -19 -11 -54 -5 -59 9 -62 7
-35 -26 25 -31 25 -34 -1 -24 -101 37 -120 38 -120 9 0 -17 9 -36 20 -43 34
-21 22 -47 -18 -36 -21 5 -43 27 -48 48 -6 23 -2 33 10 26 13 -8 15 4 6 32
-14 43 -10 45 48 33 34 -6 62 -5 62 4 0 20 117 4 130 -18z m1395 -43 c32 1 53
-5 45 -12 -7 -8 -19 -13 -27 -13 -7 1 -25 -10 -39 -25 -15 -14 -42 -25 -60
-24 -21 1 -24 5 -9 11 18 8 19 20 3 51 -17 32 -16 37 3 25 14 -8 51 -14 84
-13z m742 -100 c-12 -72 -87 -107 -87 -41 0 16 10 21 23 13 15 -9 18 -5 9 9
-8 13 -23 18 -33 12 -41 -25 -16 48 26 77 59 40 77 20 62 -70z m-297 21 c69
-61 138 -58 100 3 -11 18 -19 18 -32 -3 -13 -20 -17 -14 -18 19 0 37 9 45 44
40 47 -7 89 -111 57 -143 -16 -16 -3 -59 65 -208 11 -25 37 -45 56 -45 21 0
38 -18 42 -43 3 -24 19 -48 34 -53 18 -6 22 -1 12 16 -11 17 -8 21 7 12 13 -8
18 -25 10 -37 -9 -14 2 -17 30 -10 24 6 43 5 43 -3 0 -7 23 -15 51 -17 28 -3
79 -20 115 -38 l64 -33 -90 -38 c-50 -21 -93 -47 -97 -57 -3 -11 -19 -19 -35
-19 -34 0 -36 -24 -4 -56 17 -17 18 -24 1 -24 -12 0 -28 9 -35 20 -8 13 -34 6
-69 -19 -49 -35 -60 -36 -93 -11 -21 16 -51 29 -68 29 -16 -1 -5 -14 25 -30
69 -38 70 -61 4 -74 -36 -7 -60 3 -88 38 -37 47 -117 69 -89 24 9 -14 5 -18
-9 -9 -17 10 -17 25 -2 54 12 21 29 34 38 29 10 -6 12 9 5 34 -9 34 -14 37
-19 12 -4 -19 -19 -38 -34 -44 -18 -7 -23 2 -17 26 11 44 -29 127 -54 111 -9
-6 -23 -2 -30 10 -7 11 -33 20 -57 20 -25 0 -56 11 -69 24 -13 13 -29 18 -35
11 -18 -18 8 -90 47 -129 32 -32 32 -33 -3 -20 -20 8 -49 14 -65 14 -35 0 -37
53 -3 68 14 6 -2 6 -35 1 -33 -5 -49 -4 -35 3 67 31 66 84 -2 77 -60 -6 -66
-2 -58 38 6 34 -5 49 -49 66 -51 21 -52 23 -11 25 25 1 45 12 45 25 0 14 -22
18 -61 10 -51 -10 -63 -5 -79 37 -23 59 -7 111 29 98 14 -6 31 3 37 19 24 62
205 -34 294 -156 52 -71 140 -107 140 -58 0 15 -8 27 -19 27 -10 0 -21 24 -25
53 -5 43 -30 67 -126 116 -118 62 -160 107 -94 101 132 -12 316 -147 345 -252
30 -111 70 -134 74 -42 3 58 -1 65 -14 34 -18 -40 -18 -40 -21 0 -2 22 -6 56
-10 76 -5 29 -1 32 22 13 23 -20 28 -14 28 29 0 28 -10 52 -21 52 -12 0 -17 7
-11 16 11 18 -40 68 -104 102 -33 17 -76 102 -53 102 4 0 40 -28 79 -63z
m-2095 -52 c53 -41 65 -44 65 -17 0 17 14 32 30 32 33 0 40 -73 11 -119 -16
-25 -23 -25 -53 0 -32 26 -34 25 -19 -11 38 -96 40 -122 6 -94 -41 34 -103
164 -100 211 2 24 -7 33 -26 25 -16 -6 -38 7 -50 30 -26 49 23 28 136 -57z
m3285 -386 c0 -22 -13 -39 -30 -39 -32 0 -37 18 -18 68 16 41 48 21 48 -29z
m-121 -124 c0 14 19 25 41 25 52 0 53 -62 2 -94 -26 -16 -35 -38 -28 -65 6
-23 1 -41 -12 -41 -12 0 -22 27 -22 60 0 33 -9 60 -20 60 -11 0 -20 -26 -20
-58 0 -31 -12 -67 -27 -80 -22 -18 -26 -13 -21 23 27 171 65 247 91 182 8 -20
15 -26 16 -12z m-1155 -54 c6 -41 1 -54 -18 -47 -14 6 -21 18 -15 28 6 10 2
18 -10 18 -11 0 -21 18 -21 39 0 61 54 28 64 -38z"/>
<path d="M2171 2840 c19 -72 47 -96 70 -60 15 24 18 22 19 -13 0 -45 45 -95
67 -73 21 20 15 50 -7 36 -11 -7 -15 0 -10 14 13 36 -69 135 -83 100 -8 -20
-18 -17 -40 10 -27 33 -28 32 -16 -14z"/>
<path d="M2714 2787 c-7 -38 3 -72 31 -106 32 -40 38 -42 26 -11 -8 22 -18 66
-22 98 -11 78 -22 84 -35 19z"/>
<path d="M2367 2692 c-19 -21 -14 -32 24 -49 56 -25 85 3 48 48 -29 35 -42 35
-72 1z"/>
<path d="M2520 2650 c14 -16 37 -30 52 -30 16 0 22 -12 15 -30 -6 -16 -1 -30
12 -30 13 0 18 -9 11 -20 -7 -11 1 -14 19 -8 17 7 31 2 31 -11 0 -25 81 -62
105 -47 8 4 6 28 -6 52 -21 43 -20 43 10 5 18 -22 27 -51 22 -65 -5 -14 -2
-26 7 -26 27 0 39 71 18 107 -22 41 -69 43 -90 4 -21 -36 -60 -14 -69 39 -7
41 -79 90 -132 90 -24 0 -25 -6 -5 -30z"/>
<path d="M2838 2618 c21 -23 34 -57 29 -75 -9 -26 -7 -27 9 -5 16 22 33 23 83
6 36 -13 57 -14 51 -3 -7 10 -22 19 -34 19 -12 0 -42 23 -68 50 -25 28 -60 50
-78 50 -26 0 -25 -7 8 -42z"/>
<path d="M4431 3262 c-8 -25 -25 -35 -49 -28 -29 7 -44 -10 -70 -86 l-32 -96
59 57 c33 32 56 63 51 71 -5 8 14 10 41 5 40 -8 47 -3 37 23 -9 23 -4 29 17
21 19 -7 34 4 40 30 15 56 -77 59 -94 3z"/>
<path d="M5716 3253 c30 -39 40 -75 33 -120 -5 -34 -4 -52 3 -38 6 14 21 19
33 12 14 -9 17 2 10 30 -7 28 -4 38 10 30 14 -9 17 -1 8 21 -7 20 -13 44 -13
54 0 10 -16 18 -36 18 -20 0 -48 11 -63 25 -16 14 -9 0 15 -32z"/>
<path d="M5601 3231 c-36 -43 -45 -151 -12 -151 15 0 32 14 39 32 7 18 25 27
40 21 18 -6 31 7 37 38 10 53 -14 67 -32 19 -7 -16 -32 -29 -57 -28 -31 2 -35
5 -13 11 38 11 64 61 38 76 -9 6 -27 -2 -40 -18z"/>
<path d="M4100 3124 c-201 -25 -261 -200 -127 -370 36 -45 45 -49 55 -21 7 18
8 37 2 43 -5 6 -10 0 -10 -14 0 -13 -9 -19 -20 -12 -25 16 -26 110 -1 110 10
0 43 -30 75 -68 99 -118 138 -114 180 22 29 95 36 106 42 62 6 -49 11 -52 55
-32 74 34 147 -3 100 -50 -19 -19 -24 -34 -12 -34 11 0 21 -10 21 -21 0 -12
-16 -17 -35 -11 -30 9 -202 -120 -182 -137 4 -3 66 1 137 9 81 9 141 6 160 -7
25 -17 26 -16 5 7 -14 15 -25 54 -25 87 0 163 -73 275 -183 280 -63 3 -116 45
-169 133 -10 18 -39 28 -68 24z"/>
<path d="M4467 3088 l-42 -45 57 -62 c53 -58 78 -181 60 -287 -2 -10 6 -11 18
-4 11 7 16 21 9 31 -6 10 4 13 22 6 25 -10 29 -28 20 -79 l-13 -67 58 33 c54
31 66 31 171 1 62 -18 113 -24 113 -14 0 11 9 19 20 19 11 0 20 -15 20 -32 0
-24 -13 -30 -50 -23 -43 8 -47 5 -25 -21 21 -27 19 -29 -13 -17 -21 8 -51 3
-68 -12 -25 -19 -28 -20 -17 0 10 16 4 25 -16 25 -18 0 -40 20 -48 43 -11 29
-21 36 -31 20 -8 -12 -7 -24 2 -24 9 -1 -2 -10 -24 -19 -37 -16 -37 -17 8 -19
27 0 64 -15 83 -32 30 -27 53 -28 168 -8 73 13 195 20 271 16 132 -8 137 -7
106 28 -26 28 -28 41 -9 60 19 19 27 15 36 -19 8 -33 19 -40 44 -26 18 10 56
22 85 28 28 6 61 32 73 57 13 25 23 32 24 16 1 -20 18 -12 56 24 30 28 123 77
205 109 140 53 150 61 150 117 0 45 -9 59 -40 61 -22 1 -49 4 -60 7 -54 14
-158 1 -175 -23 -14 -19 -16 -17 -8 8 15 45 -21 66 -58 35 -34 -28 -39 -79 -8
-79 12 0 16 8 10 19 -6 10 -3 24 9 31 11 7 20 -6 20 -28 0 -35 -11 -40 -77
-34 -86 7 -123 24 -123 56 0 14 9 13 28 -2 22 -18 29 -13 37 27 14 73 -1 75
-66 7 -65 -68 -61 -96 12 -96 54 0 65 -29 20 -54 -20 -12 -23 -26 -10 -46 16
-26 18 -25 19 3 0 40 54 64 67 31 7 -16 15 -17 26 -4 29 36 125 70 137 49 17
-26 70 -24 70 3 0 12 -13 17 -29 11 -20 -8 -25 -1 -17 21 9 24 5 28 -14 16
-17 -10 -21 -8 -12 6 17 28 65 10 81 -30 17 -45 -27 -89 -74 -74 -30 9 -36 6
-24 -15 12 -20 6 -19 -20 3 -29 23 -40 24 -46 5 -5 -14 -28 -25 -52 -25 -24 0
-60 -18 -78 -40 -19 -22 -26 -40 -15 -40 11 0 20 -13 20 -29 0 -18 -12 -25
-30 -18 -16 6 -30 29 -30 52 0 34 -5 36 -31 14 -17 -14 -26 -38 -20 -53 6 -17
2 -23 -11 -14 -13 7 -30 1 -40 -14 -10 -16 -18 -18 -18 -5 0 12 14 33 30 47
43 36 37 54 -22 69 -42 10 -47 18 -27 42 27 32 88 41 69 9 -7 -11 -3 -20 9
-20 43 0 19 56 -30 68 -60 16 -91 1 -77 -36 6 -15 -4 -32 -21 -39 -17 -6 -31
-3 -31 8 0 39 -56 18 -67 -26 -21 -75 -15 -83 32 -43 24 21 34 25 22 8 -17
-23 -17 -36 4 -54 16 -16 30 -17 36 -5 6 11 8 9 5 -5 -8 -42 -172 -33 -172 9
0 19 9 35 20 35 12 0 17 23 12 50 -5 28 0 50 11 50 25 0 78 52 66 64 -18 18
-130 -9 -127 -31 7 -55 -5 -73 -47 -72 -43 2 -43 3 -5 19 35 15 34 17 -15 19
-30 0 -55 11 -55 22 0 12 8 17 17 11 10 -6 35 9 55 33 32 37 32 40 3 17 -41
-32 -45 -7 -12 67 13 28 36 51 51 51 16 0 23 9 16 20 -7 12 -22 15 -33 8 -11
-6 -17 2 -13 19 3 17 -3 33 -14 37 -11 3 -20 -7 -20 -24 -2 -77 -34 -124 -80
-115 -33 6 -43 1 -36 -18 6 -15 -3 -27 -21 -27 -17 0 -36 -9 -43 -20 -7 -11 1
-15 16 -9 36 14 100 -47 86 -82 -5 -14 3 -31 19 -37 16 -6 29 -25 29 -41 0
-17 16 -31 36 -31 28 0 36 -16 36 -68 0 -81 -46 -77 -56 5 -3 29 -13 50 -22
47 -21 -8 -74 47 -74 78 0 16 -12 13 -37 -9 -60 -54 -140 -44 -128 17 5 28 18
50 29 50 10 0 13 9 6 20 -16 26 -70 -26 -70 -69 0 -17 -9 -31 -20 -31 -11 0
-20 -13 -20 -30 0 -16 -8 -30 -17 -30 -21 0 -8 94 22 155 17 34 16 52 -1 69
-19 19 -24 14 -24 -21 0 -25 -8 -40 -18 -34 -23 14 -46 -46 -29 -74 8 -12 4
-15 -10 -7 -31 19 -29 56 7 125 16 31 30 72 30 90 0 18 14 38 30 44 54 21 37
89 -20 78 -27 -5 -50 -1 -50 10 0 36 -89 18 -133 -27z"/>
<path d="M5347 3090 c7 -17 -4 -38 -26 -50 -57 -30 -75 -25 -88 23 -9 35 -17
39 -39 20 -15 -12 -34 -17 -41 -9 -7 7 -12 -9 -11 -36 0 -26 6 -37 11 -23 6
14 24 25 40 25 16 0 25 -7 20 -16 -19 -30 102 -24 127 6 13 16 33 24 44 17 11
-6 10 7 -3 31 -26 48 -51 57 -34 12z"/>
<path d="M1166 2972 c11 -27 7 -34 -16 -25 -37 14 -43 -77 -7 -99 15 -9 18 -5
7 12 -12 19 -6 24 22 16 47 -12 54 64 9 106 -24 23 -27 21 -15 -10z"/>
<path d="M1526 2938 c4 -63 -37 -118 -88 -118 -23 0 -38 -14 -39 -35 0 -31 -3
-30 -23 5 -26 44 -76 88 -103 89 -10 1 -3 -21 15 -49 18 -27 24 -50 13 -50
-11 0 -15 -13 -9 -28 6 -15 2 -33 -9 -40 -27 -17 -125 29 -110 52 6 11 -7 8
-29 -6 -22 -14 -35 -37 -30 -52 12 -30 -26 -36 -44 -6 -7 12 -21 16 -30 10 -9
-6 -23 -2 -30 10 -20 32 -46 23 -43 -15 2 -21 -10 -34 -30 -32 -20 1 -30 -9
-24 -23 14 -37 186 -60 214 -29 18 19 15 22 -12 13 -19 -7 -35 -8 -35 -3 0 30
91 41 117 15 17 -17 34 -21 41 -9 7 10 35 22 62 26 33 5 48 18 45 40 -5 25 5
31 35 23 29 -8 35 -18 21 -35 -12 -14 -14 -32 -6 -41 8 -9 6 -11 -5 -5 -11 6
-38 -2 -60 -19 -39 -30 -39 -31 7 -20 34 8 43 4 36 -16 -7 -18 -1 -24 18 -17
16 6 24 19 18 29 -16 26 28 98 60 98 15 0 31 7 36 15 5 8 6 4 3 -9 -11 -44 29
-48 58 -5 25 35 42 39 107 27 l77 -14 -79 73 c-55 51 -69 73 -45 73 19 0 51
-17 72 -38 61 -61 145 -101 140 -67 -9 54 4 62 62 42 34 -12 54 -30 47 -42 -8
-13 -4 -15 11 -6 41 25 -32 86 -120 101 -43 8 -74 21 -68 30 23 38 -91 83
-154 61 -77 -26 -71 -27 -83 14 -6 19 -9 12 -7 -17z"/>
<path d="M0 2900 c0 -11 13 -20 28 -20 16 0 54 -27 85 -60 66 -70 122 -84 83
-21 -18 28 -29 33 -40 15 -11 -16 -15 -13 -16 10 0 19 -27 49 -59 65 -69 36
-81 38 -81 11z"/>
<path d="M277 2833 c13 -15 16 -33 8 -42 -8 -8 -2 -11 14 -8 16 4 30 -3 30
-16 1 -13 9 -31 19 -40 11 -10 12 -7 4 8 -25 43 19 27 68 -25 30 -32 69 -50
108 -50 55 0 50 6 -58 62 -65 33 -131 78 -145 100 -15 21 -37 38 -49 38 -14 0
-14 -8 1 -27z"/>
<path d="M1887 2746 c-21 -7 58 -110 168 -216 36 -35 65 -74 65 -87 0 -32 86
-64 103 -38 8 13 29 9 56 -10 32 -22 36 -34 17 -41 -17 -7 -18 -11 -2 -12 42
-3 46 32 8 66 -47 43 -152 65 -130 28 8 -14 7 -19 -3 -10 -9 8 -20 35 -23 60
-8 46 -89 134 -125 134 -12 0 -21 12 -21 26 0 34 -85 109 -113 100z"/>
<path d="M5824 2731 c-26 -14 -46 -32 -45 -38 3 -36 -1 -41 -16 -17 -13 20
-28 19 -75 -5 -32 -17 -49 -32 -38 -33 47 -5 141 7 150 20 6 7 36 33 68 58 61
47 32 57 -44 15z"/>
<path d="M60 2710 c0 -16 10 -30 21 -30 12 0 16 9 9 20 -26 41 10 17 88 -60
44 -44 90 -80 102 -80 12 0 16 -10 8 -23 -9 -14 -5 -18 8 -9 32 19 8 66 -39
79 -23 6 -35 20 -28 32 8 12 24 16 35 8 14 -8 16 -4 7 11 -8 14 -28 20 -44 14
-15 -6 -43 7 -62 28 -40 47 -105 53 -105 10z"/>
<path d="M5905 2707 c-25 -18 -45 -40 -45 -49 0 -9 20 -10 45 0 25 9 56 12 70
7 15 -5 25 9 25 33 0 49 -32 52 -95 9z"/>
<path d="M1820 2690 c0 -6 8 -26 19 -45 26 -49 48 -113 45 -129 -4 -18 76 -43
91 -28 6 7 -3 12 -22 12 -18 0 -34 7 -35 15 0 8 -4 31 -8 50 -3 19 2 30 12 24
10 -7 13 -20 7 -31 -12 -18 45 -50 61 -34 11 10 -136 176 -156 176 -8 0 -14
-5 -14 -10z"/>
<path d="M5810 2620 c-6 -10 -23 -14 -38 -8 -64 24 -102 -59 -40 -85 115 -49
208 10 127 79 -21 18 -43 24 -49 14z"/>
<path d="M110 2582 c-8 -28 -30 -42 -62 -42 -41 0 -45 -5 -24 -28 16 -16 31
-20 38 -8 7 11 17 1 23 -22 6 -23 22 -42 34 -42 13 0 17 11 8 25 -8 15 1 12
23 -5 35 -28 36 -27 22 10 -9 22 -18 61 -21 86 -8 64 -25 74 -41 26z"/>
<path d="M1431 2568 c-37 -27 -36 -28 15 -28 58 0 68 -18 30 -56 -19 -19 -19
-24 1 -24 38 0 49 54 19 97 -24 34 -32 36 -65 11z"/>
<path d="M603 2547 c-59 -16 -128 -43 -154 -60 -26 -17 -56 -25 -67 -18 -10 6
-25 -5 -31 -26 -12 -37 -84 -62 -178 -64 -24 0 -72 -27 -108 -59 -74 -67 -87
-140 -26 -140 21 0 46 -11 55 -25 18 -29 53 -35 206 -37 61 0 164 -14 230 -29
66 -16 179 -33 250 -38 183 -13 215 -25 215 -83 0 -27 15 -65 33 -85 17 -20
32 -47 32 -60 0 -12 19 -42 41 -64 33 -33 37 -48 18 -70 -18 -22 -13 -33 30
-52 30 -14 48 -35 42 -51 -5 -14 0 -26 13 -26 12 0 16 -7 8 -15 -8 -8 -33 8
-55 35 -32 40 -36 42 -19 8 11 -24 16 -47 10 -53 -14 -15 -108 81 -108 111 -1
17 -6 16 -18 -3 -19 -31 -42 12 -42 79 0 27 -14 38 -51 38 -29 0 -46 9 -39 20
7 11 3 20 -8 20 -11 0 -16 13 -10 28 14 37 -30 62 -59 33 -17 -17 -15 -27 7
-42 23 -15 16 -18 -26 -13 -59 7 -100 48 -80 81 7 11 2 13 -10 6 -11 -8 -27
-5 -34 6 -8 13 -22 12 -39 -4 -15 -14 -23 -32 -18 -40 5 -8 0 -15 -11 -15 -11
0 -25 9 -32 20 -7 12 -21 15 -31 9 -11 -6 -19 0 -20 15 0 14 -12 2 -25 -27
-22 -49 -27 -51 -53 -22 -26 29 -26 31 5 19 19 -7 34 -4 34 7 0 10 -19 19 -41
19 -23 0 -36 8 -30 19 6 10 4 23 -6 29 -33 20 0 -136 34 -163 29 -24 28 -26
-12 -15 -33 10 -45 4 -45 -20 0 -18 -11 -30 -25 -25 -14 5 -25 35 -25 67 0 44
-8 57 -35 52 -19 -3 -35 5 -35 18 0 16 -9 15 -32 -3 -26 -22 -34 -22 -49 2
-12 20 -9 31 12 35 16 4 29 16 29 26 0 11 17 10 42 -3 46 -25 83 -7 40 20 -15
9 -62 22 -104 29 -57 9 -74 20 -65 42 6 17 4 31 -6 32 -108 15 -127 13 -127
-11 0 -14 42 -44 92 -66 56 -24 83 -46 69 -54 -12 -8 -38 -2 -56 12 -28 24
-31 22 -18 -11 12 -32 9 -34 -17 -12 -17 14 -30 16 -30 5 0 -26 57 -49 82 -34
10 6 18 2 18 -9 0 -10 31 -31 68 -44 38 -14 80 -46 94 -71 14 -26 31 -47 39
-47 7 0 11 -28 7 -62 -6 -50 -2 -60 24 -50 17 7 36 12 43 12 6 0 -4 17 -23 38
-23 25 -27 43 -13 51 30 19 64 -7 48 -35 -7 -13 -6 -18 2 -10 9 8 39 -3 67
-25 84 -67 79 -20 -6 53 -48 40 -68 68 -49 68 17 0 40 -9 51 -20 37 -37 156
-64 127 -29 -23 28 -12 38 31 30 11 -3 13 3 4 11 -8 9 -27 18 -42 20 -67 10
-112 33 -112 58 0 46 40 56 81 19 22 -19 39 -27 39 -17 0 10 9 5 20 -12 14
-22 17 -11 11 36 -7 54 -3 62 18 45 15 -13 23 -38 18 -58 -7 -23 9 -44 47 -63
31 -15 64 -32 74 -37 10 -5 13 9 8 32 -10 38 -6 40 46 21 32 -11 53 -29 46
-39 -7 -11 -25 -15 -40 -9 -15 6 -28 2 -28 -9 0 -10 16 -19 36 -19 40 0 84
-37 84 -69 0 -12 -9 -8 -19 8 -10 17 -25 24 -32 17 -15 -16 71 -176 95 -176 9
0 16 -13 16 -30 0 -18 -18 -30 -45 -30 -32 1 -37 5 -18 18 20 13 18 19 -10 27
-20 6 -53 17 -72 25 -44 18 -46 -16 -4 -58 17 -18 25 -42 17 -55 -9 -14 -23
-6 -40 25 -24 44 -27 44 -28 8 -1 -39 -2 -39 -35 3 -19 23 -55 49 -80 56 -26
8 -45 30 -45 52 0 22 -8 39 -18 39 -26 0 -14 -156 14 -184 13 -13 24 -47 24
-75 -1 -40 -5 -45 -20 -21 -14 22 -19 23 -20 4 0 -15 -9 -21 -19 -15 -11 7
-15 24 -9 39 6 16 -7 31 -31 37 -22 6 -41 28 -41 48 -1 26 -5 30 -17 12 -11
-19 -27 -15 -61 18 -32 29 -51 35 -61 19 -19 -31 -112 75 -125 145 -9 47 -5
52 29 41 40 -12 40 -12 3 39 -39 54 -68 68 -68 33 0 -11 -13 -20 -30 -20 -43
0 -37 -66 9 -95 45 -28 34 -85 -16 -86 -28 0 -26 -5 7 -30 22 -16 60 -48 85
-71 33 -31 42 -34 33 -10 -16 41 20 42 60 1 18 -17 40 -26 50 -20 24 15 82 -8
82 -32 0 -11 -9 -14 -20 -7 -11 7 -20 3 -20 -8 0 -11 9 -25 20 -32 11 -7 20
-3 20 9 0 11 15 21 33 21 19 0 28 -6 21 -13 -8 -7 -2 -27 11 -43 22 -27 19
-27 -20 -7 -25 14 -45 18 -45 11 0 -8 -18 2 -40 22 -36 33 -49 28 -42 -15 1
-8 -7 -15 -19 -15 -11 0 -18 15 -15 33 4 21 -9 34 -37 36 -28 3 -40 -5 -33
-22 6 -15 17 -22 26 -17 9 6 11 -9 5 -32 -9 -35 -4 -40 29 -30 25 8 50 1 67
-19 21 -26 21 -30 -3 -25 -15 3 -33 12 -38 20 -6 7 -42 -1 -79 -19 -48 -24
-70 -27 -76 -10 -11 32 -65 7 -65 -30 0 -22 -14 -27 -58 -18 -54 10 -58 6 -70
-66 -17 -109 3 -157 43 -101 16 24 51 51 77 61 29 11 48 34 48 59 0 22 10 40
21 40 12 0 16 -9 9 -20 -17 -27 -1 -25 78 8 36 15 106 34 154 42 48 7 108 26
132 42 25 15 65 28 90 28 58 0 182 74 166 99 -20 33 89 91 127 67 47 -29 146
7 103 37 -24 16 -21 18 10 7 22 -8 51 -15 64 -16 29 -1 51 -50 34 -77 -7 -11
-24 -15 -39 -9 -15 5 -45 -14 -67 -44 -37 -50 -39 -51 -29 -8 7 25 31 58 54
75 33 23 35 29 9 29 -18 0 -58 -35 -89 -77 -31 -42 -67 -73 -80 -69 -41 14
-46 -25 -7 -50 30 -18 44 -17 66 5 21 21 34 23 51 6 16 -16 31 -14 58 9 19 17
46 27 60 22 14 -5 25 0 25 12 0 12 28 22 61 22 34 0 101 23 150 52 56 33 102
46 128 38 29 -9 41 -4 41 17 0 17 20 37 45 44 l44 15 -43 16 c-31 11 -40 27
-32 57 6 22 18 36 27 30 9 -5 21 -2 26 7 6 9 -26 18 -71 21 -89 5 -205 -14
-188 -32 6 -5 2 -26 -8 -46 -14 -26 -11 -38 12 -47 49 -19 83 -11 38 8 -33 14
-27 17 30 18 101 2 139 -27 78 -59 -44 -23 -46 -23 -21 8 38 46 -1 42 -82 -7
-36 -22 -85 -40 -109 -40 -24 0 -47 -15 -52 -35 -8 -29 -10 -28 -12 5 -1 22
-22 63 -47 91 -59 66 -64 98 -14 85 22 -6 39 -1 39 13 0 13 -9 18 -20 11 -24
-15 -26 10 -3 46 10 15 58 28 110 30 57 3 97 14 103 31 8 22 -8 25 -80 14 -82
-12 -90 -10 -90 28 0 28 -13 41 -40 41 -49 0 -51 -17 -5 -52 21 -16 25 -27 10
-27 -25 -1 -97 94 -82 108 14 15 230 18 252 4 13 -8 41 6 64 30 22 25 41 34
41 20 0 -13 23 -34 51 -47 l51 -23 -46 -26 c-44 -24 -42 -26 34 -28 44 -1 69
-7 55 -12 -14 -6 -19 -21 -11 -34 10 -17 6 -16 -16 1 -37 30 -82 5 -59 -32 11
-18 35 -23 67 -15 32 8 54 4 59 -12 6 -18 36 -11 107 24 54 28 119 47 145 44
29 -3 42 3 34 16 -8 12 -4 21 7 21 11 0 26 -10 33 -21 7 -12 25 -17 40 -11 14
5 76 -4 137 -22 95 -27 273 -20 197 8 -36 13 -31 42 10 51 24 5 17 11 -21 18
-36 8 -53 4 -48 -10 8 -26 -33 -73 -65 -73 -11 0 -21 9 -21 20 0 11 14 20 30
20 17 0 30 9 30 21 0 14 -12 14 -39 0 -51 -28 -66 -26 -56 4 17 51 -37 77 -97
45 -64 -32 -90 -23 -47 18 38 35 133 57 148 34 6 -10 44 -9 91 3 59 15 88 14
109 -5 17 -13 62 -24 101 -24 71 0 71 0 59 -73 -18 -111 -27 -128 -57 -117
-15 6 -38 0 -51 -13 -13 -12 -22 -14 -20 -3 7 39 -2 60 -17 36 -8 -13 -68 -26
-134 -28 -136 -6 -166 -16 -127 -40 19 -13 14 -17 -20 -18 -32 0 -44 9 -37 28
6 15 1 37 -12 50 -16 16 -15 22 5 22 15 0 23 4 18 9 -11 12 -178 -37 -238 -70
-24 -13 -74 -23 -111 -23 -36 0 -76 -12 -88 -26 -36 -44 10 -53 103 -21 47 16
90 25 95 19 6 -5 -10 -15 -34 -21 -26 -7 -42 -25 -39 -44 3 -18 -4 -33 -15
-34 -52 -6 -131 -51 -120 -69 20 -33 110 -24 110 11 0 19 9 26 23 17 15 -9 18
-5 8 11 -12 19 -5 22 28 11 41 -13 43 -11 19 33 -22 43 -22 45 9 19 28 -23 43
-23 81 -3 29 15 72 20 109 12 46 -11 91 -1 172 37 59 29 120 52 133 52 54 0
157 -49 165 -79 7 -26 9 -25 11 3 1 23 26 39 74 48 62 11 70 19 63 61 -5 26
-2 47 7 47 33 0 52 -67 38 -131 -16 -70 -12 -154 9 -188 21 -33 77 -26 64 8
-6 17 -3 35 6 41 10 5 24 -17 31 -50 22 -102 65 -72 78 55 9 98 17 158 29 230
2 8 16 15 31 15 64 0 46 223 -23 275 -24 18 -27 31 -11 47 26 26 186 5 186
-24 0 -26 55 -22 72 5 10 16 4 20 -19 11 -18 -7 -33 -4 -33 7 0 10 28 19 61
19 56 0 59 -3 30 -31 -42 -43 -39 -48 19 -37 70 12 64 -35 -10 -79 -74 -43
-77 -73 -8 -73 35 0 55 13 62 40 6 22 21 41 33 42 53 6 65 9 108 34 25 14 45
17 45 7 0 -10 -18 -23 -40 -29 -22 -6 -40 -21 -40 -35 0 -17 9 -17 34 4 29 24
32 23 21 -7 -11 -29 -6 -32 36 -16 27 11 64 14 84 8 26 -9 23 -2 -10 25 l-45
37 90 -7 c67 -5 90 0 90 21 0 20 -30 27 -111 27 -104 -1 -163 30 -138 71 5 7
-6 26 -25 41 -29 24 -31 21 -18 -32 l15 -60 -47 39 c-84 71 -138 158 -71 117
14 -9 34 -17 45 -18 11 -2 30 -4 42 -6 12 -2 41 -20 65 -40 27 -24 78 -39 138
-42 52 -2 118 -5 145 -7 32 -3 48 5 45 22 -4 15 3 21 15 14 11 -7 20 4 21 24
0 34 1 34 21 1 11 -20 29 -31 39 -24 11 6 19 -29 19 -82 0 -84 -4 -93 -40 -83
-22 6 -40 3 -40 -6 0 -20 62 -48 95 -42 14 2 25 -5 25 -15 0 -11 5 -33 12 -50
8 -23 1 -27 -32 -19 -24 6 -49 28 -57 48 -12 32 -17 29 -47 -22 -32 -57 -32
-58 11 -42 54 20 98 6 79 -25 -8 -13 8 -8 35 10 29 20 46 48 43 70 -4 20 -12
90 -18 154 -7 76 -17 108 -28 90 -12 -18 -18 0 -20 53 -1 44 -5 113 -9 154 -8
84 3 90 154 79 96 -7 97 -8 131 -104 19 -54 50 -101 69 -105 18 -5 38 -31 43
-57 l9 -47 2 47 c3 43 10 46 68 35 36 -7 85 -13 110 -13 25 0 45 -7 45 -16 0
-9 31 -15 70 -15 100 3 74 40 -40 56 -71 10 -110 29 -152 75 -31 33 -65 61
-76 61 -31 0 -67 157 -53 231 18 99 55 120 155 90 63 -19 76 -29 54 -44 -21
-15 -18 -17 14 -8 76 21 274 -417 236 -525 -40 -114 -444 -120 -486 -6 -17 47
-19 48 -20 9 -1 -24 -12 -47 -25 -51 -14 -5 -17 -25 -7 -55 10 -33 19 -39 30
-21 17 28 172 17 200 -13 8 -10 20 -88 26 -175 l11 -157 -123 11 c-176 16
-272 49 -339 116 -76 76 -75 78 -75 -71 0 -133 -42 -201 -94 -149 -12 12 -16
-2 -10 -41 6 -47 1 -61 -24 -61 -17 0 -32 -9 -32 -20 0 -11 -10 -20 -21 -20
-35 0 -82 -56 -59 -70 11 -7 30 -6 43 2 14 9 18 5 9 -9 -9 -14 -2 -23 17 -23
17 0 31 14 31 31 0 17 8 26 19 20 10 -6 24 -2 32 11 10 16 19 15 30 -4 13 -21
19 -19 28 8 6 19 16 49 21 67 18 56 31 17 36 -109 4 -91 -1 -117 -18 -102 -16
13 -27 9 -36 -13 -20 -53 -14 -109 13 -110 14 -1 5 -11 -20 -23 -25 -12 -45
-34 -45 -48 0 -14 -16 -36 -35 -49 -31 -20 -31 -20 5 -8 22 8 55 15 73 16 18
1 29 11 24 24 -10 26 68 101 86 82 8 -7 -2 -30 -21 -51 -31 -34 -32 -44 -5
-108 17 -40 22 -77 11 -88 -10 -10 -8 -49 4 -93 11 -42 14 -92 7 -110 -8 -18
-15 -62 -16 -98 -1 -36 -8 -65 -17 -65 -9 0 -16 -13 -16 -29 0 -15 -16 -33
-35 -38 -19 -5 -9 -8 23 -6 32 1 62 -8 67 -22 5 -16 -3 -21 -24 -13 -40 16
-92 -26 -78 -63 7 -18 -1 -29 -21 -29 -18 0 -32 -9 -32 -20 0 -33 152 -16 203
23 26 20 36 36 22 37 -14 0 -25 15 -25 32 0 23 12 29 41 22 56 -15 120 49 105
105 -8 32 -17 37 -38 20 -28 -24 -23 123 9 280 l14 68 75 -104 c41 -58 91
-110 110 -117 36 -14 63 -45 64 -72 0 -9 -11 -10 -25 -2 -20 11 -20 8 0 -13
48 -52 29 -81 -155 -238 l-70 -60 92 -1 c50 0 98 6 105 14 8 8 40 16 72 18 68
5 147 54 187 115 29 44 28 44 -88 44 -65 -1 -118 1 -118 3 0 15 117 62 127 52
7 -7 13 3 13 22 0 20 -9 29 -22 21 -16 -10 -16 -3 0 27 12 23 15 46 6 51 -9 6
-14 36 -13 67 6 84 7 89 29 76 12 -7 14 2 6 23 -8 21 -16 26 -21 11 -14 -40
-41 -28 -110 49 -36 40 -74 83 -85 95 -26 28 -21 89 20 252 19 72 35 150 37
175 2 25 8 45 14 45 6 0 23 45 37 100 32 124 71 135 51 15 -7 -47 -23 -96 -34
-110 -11 -14 -15 -31 -9 -38 7 -7 0 -31 -16 -53 -17 -25 -24 -61 -17 -91 9
-35 2 -57 -24 -76 -34 -25 -33 -27 17 -27 30 0 72 18 94 40 22 22 54 40 70 40
42 0 38 40 -5 41 -26 1 -23 6 12 20 26 11 57 13 70 6 13 -7 16 -6 7 4 -18 20
123 93 149 77 9 -6 17 3 17 20 0 22 -16 29 -55 25 -57 -6 -144 57 -100 72 17
6 16 25 -3 70 -14 34 -20 72 -13 84 24 38 -12 22 -48 -22 -59 -73 -94 -5 -128
248 -10 69 -8 73 22 43 17 -17 32 -58 32 -91 0 -32 5 -51 11 -43 7 9 35 18 62
21 80 8 158 46 169 83 11 35 141 72 321 93 422 49 822 133 800 169 -7 11 -3
20 9 20 11 0 21 18 21 39 0 28 -9 36 -32 28 -25 -10 -26 -16 -5 -29 41 -26 4
-21 -104 14 -126 41 -124 49 9 43 127 -6 147 7 116 75 -14 30 -15 50 -4 50 40
0 19 76 -25 90 -83 26 -92 26 -82 0 6 -15 -10 -47 -35 -72 -32 -32 -41 -35
-32 -11 19 50 -4 91 -48 83 -47 -10 -49 7 -3 42 33 25 33 27 -5 28 -32 0 -34
4 -11 19 16 10 35 15 43 10 16 -10 44 52 30 65 -5 5 -25 1 -45 -10 -20 -11
-82 -16 -137 -12 -72 6 -89 3 -60 -11 49 -22 48 -22 -100 -31 -66 -4 -151 -18
-190 -32 -38 -13 -83 -29 -100 -34 -16 -6 -41 -8 -55 -6 -14 2 -25 -6 -25 -17
0 -12 22 -21 49 -21 27 0 54 -9 61 -20 7 -11 -9 -20 -37 -20 -49 0 -90 -127
-49 -152 26 -17 18 -48 -12 -48 -36 0 -153 -115 -147 -143 9 -39 -64 -71 -85
-37 -24 38 -26 106 -2 91 66 -40 71 117 12 320 -11 36 3 45 125 76 171 45 207
65 165 93 -39 25 -66 25 -50 0 19 -31 -9 -24 -44 11 -21 21 -50 28 -84 20 -34
-8 -43 -6 -25 6 20 13 17 20 -15 28 -23 6 -37 4 -32 -5 6 -10 1 -23 -10 -30
-12 -7 -16 -31 -9 -54 10 -31 5 -38 -22 -33 -19 4 -37 22 -40 41 -6 42 -85
155 -110 159 -70 9 -90 2 -110 -37 -15 -31 -29 -38 -50 -25 -20 13 -21 18 -4
19 14 0 25 8 25 19 0 10 -34 15 -75 10 -65 -7 -67 -6 -15 7 38 10 51 20 36 30
-29 18 -126 -3 -126 -28 0 -30 -93 -20 -120 12 -27 33 -70 42 -51 11 7 -10
-13 -17 -44 -15 -44 3 -56 -5 -62 -43 -4 -33 2 -45 20 -38 15 5 26 24 24 43
-2 26 3 29 25 10 15 -12 28 -35 28 -50 0 -16 13 -22 35 -15 29 9 30 7 6 -10
-16 -11 -35 -17 -43 -12 -18 11 -38 -42 -38 -103 0 -53 -40 -62 -128 -29 -43
17 -51 33 -56 125 -6 97 -8 101 -24 46 -24 -84 -69 -130 -130 -132 -37 -2 -41
-5 -16 -12 21 -5 32 -21 26 -37 -6 -17 0 -23 19 -16 16 6 24 18 19 27 -5 9 4
21 21 28 24 9 30 1 25 -33 -5 -34 -21 -46 -71 -51 -52 -5 -62 0 -53 25 7 17 3
31 -8 31 -11 0 -25 -11 -31 -25 -6 -15 -10 -11 -11 9 -1 22 -13 31 -31 23 -26
-10 -26 -14 0 -41 38 -38 17 -71 -35 -55 -29 10 -37 6 -26 -11 15 -24 123 -17
198 12 23 9 32 0 32 -31 0 -39 -8 -43 -60 -31 -33 7 -60 6 -60 -4 0 -22 85
-76 110 -69 11 3 9 -6 -5 -19 -20 -21 -31 -18 -55 13 -18 24 -26 27 -20 8 7
-20 -2 -31 -30 -33 -23 -2 -40 9 -40 26 0 49 -126 151 -150 120 -11 -14 -42
-31 -70 -37 -27 -7 -72 -18 -98 -27 -33 -10 -44 -7 -35 7 8 12 3 29 -9 36 -16
10 -21 -4 -14 -48 10 -69 -5 -79 -51 -33 -17 17 -53 30 -80 30 -28 0 -64 -13
-80 -30 -17 -17 -44 -30 -62 -30 -17 0 -31 -10 -31 -22 0 -12 -13 -17 -30 -11
-16 7 -30 2 -30 -9 0 -12 20 -19 45 -17 85 7 137 -1 126 -19 -6 -10 -85 -16
-176 -13 -91 2 -147 -1 -125 -7 22 -7 41 -30 41 -52 1 -22 8 -87 16 -145 8
-59 7 -105 -4 -105 -9 0 -23 46 -30 102 -6 56 -22 115 -35 130 -12 15 -15 28
-5 28 9 0 4 9 -12 19 -16 10 -38 13 -49 6 -11 -7 -38 -14 -61 -16 -23 -1 -68
-10 -101 -19 -57 -16 -58 -15 -25 18 43 42 48 88 7 54 -22 -18 -31 -18 -38 2
-8 18 -11 16 -12 -6 -1 -17 -13 -32 -27 -34 -14 -1 -65 -7 -115 -14 -84 -12
-87 -11 -51 19 21 17 57 31 80 32 22 0 63 13 91 28 43 24 62 23 148 -10 55
-21 101 -36 103 -34 20 24 26 94 10 104 -36 23 -23 48 19 37 22 -6 63 4 91 23
31 20 67 28 92 20 26 -8 37 -6 30 7 -7 11 2 26 20 33 27 10 29 17 8 37 -20 19
-28 19 -35 -1 -5 -14 -18 -20 -28 -14 -10 6 -18 2 -18 -8 0 -28 -222 -72 -238
-47 -7 11 -61 -5 -131 -38 -65 -32 -131 -58 -146 -58 -15 0 -68 -28 -117 -62
-50 -34 -103 -57 -118 -51 -32 13 -79 -37 -61 -65 7 -11 -6 -29 -27 -41 -51
-27 -202 -27 -202 0 0 13 26 17 62 12 90 -15 129 4 84 39 -34 25 -33 27 10 27
26 1 41 10 35 20 -7 11 -53 -2 -107 -29 -107 -54 -444 -60 -491 -9 -18 19 -13
22 22 14 25 -6 40 -3 34 7 -6 10 3 18 20 18 17 0 31 10 31 22 0 13 -14 16 -35
8 -19 -8 -46 -15 -59 -16 -13 0 -29 -14 -36 -30 -9 -26 -15 -26 -45 1 -19 17
-54 36 -78 43 -30 10 -40 25 -33 53 11 42 -7 49 -51 21 -35 -22 -143 31 -143
69 0 17 -20 29 -45 30 -50 0 -129 52 -109 71 16 17 154 -9 154 -29 0 -18 87
-20 100 -2 17 24 260 42 260 20 0 -12 9 -21 19 -21 11 0 15 14 8 30 -12 32 23
42 42 12 6 -10 48 -16 93 -13 54 3 85 -4 92 -22 6 -15 17 -27 26 -27 37 0 -34
99 -80 111 -46 12 -47 15 -11 28 21 8 30 20 19 26 -11 7 -33 4 -49 -6 -39 -25
-104 -24 -89 1 7 11 2 20 -11 20 -13 0 -19 11 -14 25 6 16 -8 25 -38 25 -26 0
-47 -7 -47 -15 0 -8 8 -15 18 -15 10 0 23 -14 29 -30 10 -25 5 -27 -26 -11
-21 12 -52 15 -70 9 -17 -7 -31 -2 -31 11 0 13 -10 17 -22 10 -12 -7 -17 -30
-12 -51 6 -21 2 -38 -8 -38 -10 0 -18 13 -18 28 0 15 -14 33 -30 39 -26 10
-27 5 -8 -30 20 -37 18 -41 -12 -30 -21 8 -57 0 -86 -19 -49 -32 -49 -32 -37
16 11 43 5 49 -46 49 -53 0 -56 -4 -36 -42 19 -36 18 -38 -10 -15 -25 21 -33
21 -43 0 -8 -17 -16 -19 -23 -4 -10 22 -159 9 -203 -19 -13 -7 -29 -5 -36 7
-7 11 7 20 30 20 51 0 44 47 -9 57 -25 5 -31 -1 -20 -20 12 -19 6 -18 -21 3
-21 17 -31 19 -24 6 8 -13 6 -29 -6 -36 -11 -7 -20 2 -20 19 0 17 -13 31 -30
31 -16 0 -30 -9 -30 -20 0 -25 74 -100 98 -100 9 0 28 -13 42 -30 29 -35 -37
-45 -71 -11 -20 20 -180 44 -322 49 -74 2 -108 32 -37 32 16 0 38 18 50 40 15
27 15 40 1 40 -12 0 -21 -13 -21 -30 0 -18 -18 -30 -46 -30 -25 0 -58 -11 -72
-25 -22 -20 -29 -20 -36 0 -5 14 -17 21 -26 15 -10 -6 -23 -1 -30 10 -13 21 1
28 94 48 29 7 66 25 81 40 27 27 75 40 129 34 17 -1 16 -16 -4 -56 -33 -64
-24 -86 30 -72 22 6 51 2 65 -9 35 -27 118 -45 104 -23 -6 10 -25 18 -42 18
-20 0 -27 11 -20 30 7 17 3 30 -8 30 -43 0 -15 30 31 33 145 8 192 66 55 67
-25 0 -45 9 -45 20 0 11 -13 20 -30 20 -16 0 -30 9 -30 19 0 11 -16 15 -35 8
-27 -8 -29 -6 -7 9 15 11 47 17 70 13 140 -25 172 -26 172 -9 0 18 -43 29 -85
22 -34 -5 -12 43 24 52 23 6 34 21 27 38 -12 33 -24 33 -163 -5z m57 -212 c0
-33 -86 -6 -91 29 -4 28 2 30 43 11 26 -12 48 -30 48 -40z m4946 -180 c9 14
32 25 50 25 29 -1 30 -3 4 -20 -25 -16 -24 -19 6 -20 20 0 32 -7 26 -17 -15
-24 -212 -25 -212 -1 0 11 -9 15 -20 8 -11 -7 -20 -3 -20 9 0 11 -25 22 -55
22 -54 2 -54 2 -9 20 36 14 56 10 89 -21 52 -49 119 -54 102 -9 -7 18 -26 27
-45 20 -26 -9 -26 -6 3 16 19 15 36 40 38 55 1 15 8 -3 15 -42 8 -46 18 -61
28 -45z m-2009 -102 c25 7 43 2 43 -11 0 -14 -33 -20 -87 -17 -60 3 -85 13
-78 30 6 16 20 18 44 6 19 -11 54 -14 78 -8z m2002 -52 c-78 -52 -259 -82
-259 -43 0 20 17 32 48 32 27 0 43 -8 37 -18 -6 -10 0 -12 13 -3 13 8 18 33
12 58 -12 43 -12 43 28 -3 42 -48 139 -9 107 45 -7 11 4 8 23 -8 35 -28 35
-31 -9 -60z m-2844 20 c61 -51 57 -62 -15 -35 -33 13 -60 34 -60 48 0 35 22
32 75 -13z m2565 -90 c0 -16 -9 -34 -20 -41 -11 -7 -14 2 -7 21 11 29 8 30
-29 7 -30 -19 -35 -31 -18 -42 29 -19 10 -21 -34 -4 -45 17 -40 48 7 48 21 0
44 9 51 20 18 30 50 24 50 -9z m426 -31 c-6 -18 4 -14 23 10 18 22 35 40 39
40 18 0 72 -58 72 -77 -1 -16 -6 -15 -16 1 -12 19 -32 15 -80 -15 -92 -55
-157 -52 -169 11 -12 63 -3 71 76 65 46 -4 61 -13 55 -35z m-4441 -19 c30 -15
55 -38 55 -50 0 -15 27 -20 75 -15 124 14 59 -17 -76 -36 -99 -14 -134 -12
-167 11 l-41 29 45 0 c46 0 59 28 24 50 -22 14 -6 57 17 45 7 -3 38 -19 68
-34z m1451 -87 c-7 -70 -27 -93 -81 -94 -35 0 -40 39 -8 62 9 7 2 18 -16 25
-19 7 -28 4 -21 -7 7 -12 -20 -20 -69 -20 -82 0 -108 25 -48 48 17 7 44 2 60
-10 20 -17 27 -17 27 0 0 25 58 52 122 57 34 2 39 -8 34 -61z m-990 -48 c-13
-5 -19 -22 -13 -37 15 -38 -15 -37 -64 1 -38 30 -38 30 1 17 22 -7 34 -6 26 2
-22 25 31 71 54 47 13 -14 12 -24 -4 -30z m916 -111 c-1 -8 -2 -33 -2 -55 0
-22 -13 -40 -30 -40 -31 0 -43 81 -16 107 16 17 50 8 48 -12z m-1644 -98 c15
-5 30 -37 32 -73 3 -35 -3 -59 -12 -53 -10 6 -18 23 -18 38 0 14 -13 37 -30
51 -16 14 -30 40 -30 57 0 21 6 25 15 11 8 -12 27 -26 43 -31z m1080 -23 c-17
-13 -28 -37 -24 -54 5 -18 -1 -16 -15 7 -16 26 -38 33 -76 26 -50 -11 -50 -10
7 17 79 37 155 40 108 4z m2190 -210 c-70 -17 5 -84 93 -84 12 0 16 -9 9 -21
-7 -11 -24 -19 -37 -17 -105 13 -112 4 -101 -122 10 -119 -2 -142 -48 -96 -19
19 -24 17 -24 -9 0 -18 20 -47 44 -64 l45 -31 -45 0 c-54 0 -54 -2 -4 -100 45
-89 51 -119 16 -84 -38 38 -60 28 -45 -21 l13 -45 -46 45 c-55 52 -57 224 -8
459 36 167 37 231 6 262 -13 13 18 3 68 -21 51 -25 80 -48 64 -51z m402 -170
c-33 -11 -73 -29 -88 -42 -20 -15 -18 -6 5 30 27 41 45 50 88 42 l55 -11 -60
-19z"/>
<path d="M1574 2524 c33 -29 38 -44 21 -61 -17 -17 -17 -23 1 -23 13 0 24 -13
24 -30 0 -16 11 -30 25 -30 17 -1 16 -7 -4 -19 -37 -23 -21 -42 42 -48 76 -9
131 -48 145 -102 11 -44 23 -51 87 -49 l75 2 -61 20 c-59 19 -142 126 -111
145 18 11 68 -44 91 -100 10 -26 19 -31 25 -13 6 15 20 19 34 10 13 -9 1 4
-26 28 -58 51 -46 80 19 46 29 -16 39 -17 30 -2 -7 12 0 22 16 22 44 0 51 -42
19 -106 -29 -58 -21 -94 21 -94 14 0 43 -14 64 -32 38 -31 38 -31 -1 -18 -164
55 -291 37 -189 -26 22 -14 35 -35 27 -47 -9 -14 -19 -12 -30 6 -14 21 -17 19
-18 -8 0 -19 7 -35 15 -35 57 2 200 48 228 73 18 16 73 33 120 37 52 4 85 16
82 30 -4 13 4 17 17 9 13 -8 54 -17 92 -19 43 -2 59 2 42 13 -23 15 -9 25 28
20 59 -9 124 41 88 68 -41 30 -81 20 -59 -16 9 -14 -2 -17 -32 -9 -27 7 -67
-2 -99 -22 -49 -32 -51 -32 -24 2 24 30 24 33 -3 23 -16 -6 -45 3 -62 21 -42
42 -43 93 -3 77 16 -6 25 -19 19 -29 -6 -10 -1 -18 11 -18 40 0 9 48 -53 85
-68 40 -80 11 -31 -79 33 -60 30 -76 -9 -44 -37 31 -91 36 -109 11 -7 -9 -18
-2 -25 16 -8 22 -5 28 11 19 16 -10 19 -3 9 24 -12 36 -11 36 14 3 15 -19 35
-35 44 -35 9 0 -4 21 -28 47 -27 29 -39 60 -31 80 7 18 3 33 -10 33 -12 0 -22
-9 -22 -20 0 -11 -27 -20 -60 -20 -33 0 -60 10 -60 21 0 12 11 16 25 9 14 -7
4 6 -22 28 -28 25 -74 41 -110 41 -52 -2 -56 -5 -23 -18 22 -9 46 -13 53 -9 7
4 24 -6 37 -22 29 -35 -10 -42 -59 -11 -19 12 -39 11 -56 -3 -19 -16 -33 -16
-49 0 -15 15 -34 16 -60 2 -54 -29 -119 51 -94 116 13 34 10 46 -11 46 -15 0
-44 5 -64 12 -31 9 -30 5 7 -28z"/>
<path d="M5840 2485 c-34 -13 -80 -56 -80 -75 0 -8 36 -7 80 0 63 11 80 7 80
-16 0 -27 -58 -90 -73 -79 -4 3 -7 1 -7 -5 0 -5 0 -17 0 -27 0 -19 51 -24 115
-11 59 12 59 74 0 133 -40 40 -41 45 -10 51 20 4 30 15 24 26 -12 20 -82 22
-129 3z"/>
<path d="M5385 2465 c-14 -4 -25 -23 -25 -41 0 -25 -5 -27 -24 -8 -28 28 -109
32 -125 6 -32 -52 178 -82 224 -32 8 9 -1 11 -20 4 -19 -7 -35 -5 -35 5 0 10
10 21 23 25 13 5 19 17 15 29 -4 12 -19 17 -33 12z"/>
<path d="M5483 2433 c-34 -40 -13 -48 97 -37 64 6 111 0 130 -16 21 -17 30
-18 30 -2 0 12 -10 22 -21 22 -12 0 -17 8 -11 17 6 10 -22 23 -63 30 -110 18
-138 16 -162 -14z"/>
<path d="M860 2380 c-24 -15 -19 -19 21 -20 28 0 60 -9 70 -19 12 -12 31 -12
49 -1 25 16 26 22 2 44 -21 19 -24 20 -14 1 9 -15 2 -25 -17 -25 -17 0 -31 9
-31 20 0 25 -41 25 -80 0z"/>
<path d="M1105 2365 c3 -36 215 -56 215 -20 0 14 -31 19 -134 22 -24 0 -39 8
-34 17 6 9 -3 16 -20 16 -16 0 -28 -16 -27 -35z"/>
<path d="M3210 2128 c-22 -17 -60 -27 -85 -22 -25 5 -51 1 -57 -9 -6 -9 -32
-12 -59 -5 -28 7 -49 4 -49 -8 0 -11 -22 -25 -50 -32 -27 -7 -50 -22 -50 -34
0 -12 18 -15 45 -6 25 7 71 13 104 12 44 -1 52 3 30 17 -21 13 -9 18 42 19 44
0 97 19 139 50 37 28 59 50 49 49 -11 0 -37 -14 -59 -31z"/>
<path d="M4183 2040 c-30 -93 -20 -244 18 -257 25 -8 25 -5 1 24 -24 30 -23
32 5 21 35 -13 46 22 13 42 -26 16 -26 105 0 113 12 4 13 31 3 67 l-16 60 -24
-70z"/>
<path d="M1760 2010 c0 -38 11 -51 45 -52 34 -2 36 -5 10 -12 -19 -5 -35 -16
-35 -26 0 -9 16 -13 35 -10 19 4 42 8 50 8 38 4 9 63 -36 74 -33 8 -48 23 -41
40 6 16 2 28 -9 28 -10 0 -19 -22 -19 -50z"/>
<path d="M211 1981 c-6 -9 59 -17 143 -19 85 -2 148 3 140 11 -20 20 -271 27
-283 8z"/>
<path d="M5 1712 c4 -122 30 -142 90 -72 18 22 55 40 82 40 42 0 45 4 20 34
-24 29 -23 32 9 20 23 -9 31 -6 23 7 -7 12 -23 17 -36 13 -13 -5 -39 0 -59 10
-27 14 -35 12 -30 -8 3 -14 -1 -28 -9 -31 -39 -13 -54 -1 -50 38 3 23 -6 47
-20 51 -18 7 -23 -21 -20 -102z"/>
<path d="M4100 1771 c0 -27 8 -54 18 -60 20 -12 46 67 30 92 -21 34 -48 16
-48 -32z"/>
<path d="M3711 1729 c-17 -18 -31 -27 -31 -21 0 5 -41 -2 -92 -18 -51 -15
-104 -23 -118 -17 -28 10 -70 -49 -70 -99 0 -24 21 -24 141 -4 131 23 236 70
154 70 -18 0 -38 -9 -45 -20 -7 -11 -37 -19 -66 -17 -30 1 -79 -4 -109 -12
-33 -9 -55 -7 -55 5 0 26 49 44 120 44 32 0 63 9 70 20 7 11 37 20 67 20 53 0
103 31 103 64 0 26 -35 18 -69 -15z"/>
<path d="M700 1702 c0 -12 1 -24 1 -27 1 -3 -8 -30 -19 -60 -13 -33 -13 -55
-2 -55 10 0 14 -13 7 -30 -12 -33 -1 -36 70 -17 25 7 37 18 26 25 -12 8 -9 27
9 51 28 38 28 38 29 0 0 -37 1 -37 21 -3 15 26 14 44 -3 65 -27 33 -68 40 -49
9 7 -11 2 -20 -10 -20 -12 0 -17 -9 -10 -20 7 -11 4 -20 -7 -20 -10 0 -24 14
-31 31 -6 18 -3 26 8 19 32 -20 23 23 -10 50 -21 17 -30 18 -30 2z"/>
<path d="M3080 1701 c0 -10 16 -22 35 -27 33 -9 33 -9 0 -12 -19 -1 -35 -11
-35 -23 0 -26 62 6 99 50 22 27 18 31 -37 31 -34 0 -62 -8 -62 -19z"/>
<path d="M3340 1660 c-12 -22 -37 -40 -56 -40 -19 0 -57 -16 -85 -35 -27 -19
-51 -32 -54 -30 -13 13 -45 3 -45 -13 0 -19 75 -7 110 18 45 31 90 38 90 13 0
-14 -34 -36 -75 -49 l-75 -22 80 10 c143 18 150 23 147 109 -4 90 -8 94 -37
39z"/>
<path d="M4273 1670 c-7 -16 -22 -30 -34 -30 -12 0 -16 9 -9 20 16 26 -2 25
-51 -1 -22 -11 -39 -13 -39 -3 0 10 -14 17 -31 17 -17 0 -28 -13 -25 -30 7
-33 110 -69 125 -44 6 9 37 21 70 28 43 8 57 20 48 42 -14 39 -39 40 -54 1z"/>
<path d="M5438 1640 c-2 -11 -4 -29 -5 -39 -6 -39 -57 -71 -119 -73 -35 -1
-95 -8 -134 -15 -50 -10 -61 -8 -40 6 17 11 48 21 70 21 22 1 63 15 90 32 34
21 38 27 10 18 -78 -26 -133 -31 -121 -12 6 11 4 24 -6 30 -10 7 -25 -9 -32
-33 -8 -27 -18 -35 -24 -20 -6 14 -25 25 -44 25 -26 -1 -27 -4 -6 -18 23 -14
23 -19 0 -28 -19 -8 -20 -11 -2 -12 14 -1 25 -12 25 -24 0 -13 -18 -18 -40
-12 -22 6 -35 3 -30 -6 16 -25 -32 -34 -109 -21 -85 15 -202 -3 -167 -25 13
-8 48 -9 78 -2 42 11 61 4 91 -34 l37 -48 36 46 c19 25 58 48 86 51 27 3 58
10 69 16 10 6 72 13 137 16 65 2 140 12 166 23 63 24 91 23 76 -2 -7 -11 2
-20 20 -20 18 0 27 -8 21 -19 -6 -10 -53 -14 -103 -8 -73 8 -89 5 -76 -16 13
-22 10 -22 -15 -2 -40 32 -64 8 -32 -33 13 -18 16 -26 7 -18 -9 8 -29 1 -45
-14 -21 -21 -42 -23 -78 -10 -31 12 -49 12 -49 0 0 -11 17 -20 39 -20 50 0 74
-39 39 -62 -22 -14 -22 -17 -2 -18 15 0 22 -7 17 -15 -5 -8 12 -16 39 -18 26
-1 44 3 40 10 -4 7 0 31 9 53 16 39 17 39 30 -5 8 -27 30 -46 56 -47 102 -5
-108 -37 -230 -35 -124 2 -257 -33 -257 -68 0 -26 56 -16 89 16 28 29 34 29
62 0 25 -24 41 -26 72 -9 23 12 58 17 79 12 21 -6 33 -2 27 8 -6 10 -2 18 10
18 11 0 21 -10 21 -22 0 -17 7 -17 26 -1 20 16 34 15 53 -2 22 -20 24 -19 11
3 -12 21 -8 26 17 16 18 -7 33 -5 33 4 0 10 16 22 36 27 30 8 35 -1 28 -48 -5
-32 1 -57 12 -57 12 0 20 23 18 52 -4 55 171 132 286 125 92 -6 160 3 160 20
0 24 -97 64 -109 45 -19 -32 -174 -45 -207 -18 -17 14 -26 17 -19 5 7 -11 4
-34 -6 -50 -13 -20 -18 -21 -19 -4 0 14 -19 25 -42 25 -36 0 -39 -5 -18 -30
20 -24 19 -30 -5 -30 -17 0 -36 14 -42 30 -7 17 -30 30 -53 30 -35 0 -37 5
-16 28 16 17 38 22 56 12 17 -9 65 -4 109 11 43 15 87 21 98 15 10 -7 13 -2 5
11 -9 15 3 23 37 23 28 0 51 11 51 26 0 18 -22 23 -70 18 -38 -5 -65 -16 -59
-26 6 -10 -3 -18 -21 -18 -18 0 -27 8 -21 18 6 10 -3 23 -20 30 -18 6 -26 20
-20 31 8 12 30 13 61 1 27 -10 53 -11 59 -2 14 24 167 24 182 1 6 -11 31 -18
55 -18 42 2 43 2 4 19 -40 17 -40 17 0 19 33 1 35 5 10 21 -20 13 -22 19 -5
20 14 0 25 14 25 30 0 32 -198 43 -296 17 -59 -16 -45 -59 18 -51 40 4 43 2
15 -15 -33 -21 -121 -2 -118 25 1 13 -11 18 -24 12 -37 -18 -154 -5 -146 16 6
14 16 40 23 56 7 17 2 30 -10 30 -12 0 -23 -9 -24 -20z m147 -240 c21 0 32 -9
25 -20 -7 -11 -30 -20 -52 -20 -23 0 -35 9 -28 21 9 13 -5 16 -38 8 -31 -8
-52 -5 -52 7 0 27 64 42 89 21 10 -10 36 -17 56 -17z"/>
<path d="M5515 1636 c-18 -11 -14 -15 11 -16 20 0 31 -9 24 -20 -16 -26 -7
-25 71 7 l65 28 -73 8 c-41 5 -85 2 -98 -7z"/>
<path d="M3752 1543 c9 -41 3 -61 -20 -69 -18 -7 -32 -27 -32 -45 0 -23 -11
-28 -40 -19 -26 8 -40 4 -40 -14 -1 -19 -5 -20 -16 -3 -26 42 -124 56 -124 19
0 -19 -17 -32 -40 -32 -22 0 -40 -9 -40 -19 0 -11 -19 -30 -42 -42 -24 -13
-38 -15 -31 -4 20 32 -47 110 -75 86 -14 -11 -63 -16 -109 -11 -98 10 -208
-22 -165 -49 15 -9 60 -13 100 -9 149 14 258 -61 162 -112 -31 -17 -40 -15
-40 7 0 55 -56 82 -110 53 -45 -24 -46 -28 -15 -51 23 -17 43 -19 59 -6 16 14
30 6 47 -24 15 -29 28 -36 37 -22 14 22 59 19 127 -7 21 -9 35 -5 35 8 0 12
11 22 25 22 14 0 37 19 51 41 43 68 166 111 196 69 23 -30 29 -29 71 13 25 26
82 66 126 89 128 65 105 139 -54 176 -51 12 -53 9 -43 -45z"/>
<path d="M33 1543 c-18 -20 -33 -61 -33 -90 l0 -55 43 40 c27 26 37 52 29 74
-8 20 -2 42 12 51 15 10 17 17 4 17 -12 0 -37 -16 -55 -37z"/>
<path d="M424 1516 c44 -66 101 -98 136 -75 39 25 -10 62 -57 44 -22 -9 -26
-3 -17 21 7 18 2 39 -10 46 -13 9 -17 5 -8 -9 8 -13 5 -23 -7 -23 -11 0 -21 9
-21 20 0 11 -10 20 -22 20 -15 0 -13 -15 6 -44z"/>
<path d="M3585 1526 c-25 -5 -45 -18 -45 -29 0 -28 105 -12 115 18 5 14 1 24
-8 22 -9 -1 -37 -6 -62 -11z"/>
<path d="M1294 1400 c9 -34 16 -37 42 -15 26 21 29 20 15 -3 -13 -22 -9 -26
17 -15 20 7 41 13 49 13 7 0 -13 14 -44 30 -76 40 -91 38 -79 -10z"/>
<path d="M2080 1384 c0 -10 -29 -28 -65 -39 -60 -19 -61 -21 -14 -23 63 -2
136 45 102 66 -13 8 -23 6 -23 -4z"/>
<path d="M2484 1370 c7 -46 74 -73 111 -44 44 33 28 59 -28 45 -34 -9 -59 -4
-71 13 -13 19 -16 15 -12 -14z"/>
<path d="M13 1364 c-27 -43 -8 -162 21 -133 15 16 23 50 17 81 -11 62 -23 78
-38 52z"/>
<path d="M240 1350 c0 -29 -5 -33 -17 -14 -33 52 -102 7 -103 -67 0 -50 51
-125 72 -104 8 8 -2 33 -22 55 -48 53 -29 70 24 21 41 -38 70 -48 126 -43 22
2 24 7 6 18 -14 9 -28 33 -31 55 -11 68 -54 129 -55 79z"/>
<path d="M2291 1361 c-7 -11 -24 -15 -38 -9 -14 5 -46 -9 -72 -31 -26 -23 -55
-41 -65 -41 -10 0 -13 -8 -7 -18 11 -18 89 1 185 44 24 10 66 15 95 9 40 -7
51 -1 51 28 0 40 -126 56 -149 18z"/>
<path d="M4975 1345 c-151 -7 -220 -43 -90 -47 36 -2 49 -7 30 -12 -38 -10
-48 -46 -13 -46 12 0 17 -13 11 -30 -7 -16 -3 -30 7 -30 31 0 120 84 120 113
0 16 20 23 57 18 38 -5 56 2 56 21 0 15 -5 26 -11 24 -7 -2 -82 -7 -167 -11z"/>
<path d="M1641 1301 c-16 -10 -38 -13 -48 -7 -11 7 -13 3 -6 -9 15 -25 -71
-50 -116 -33 -23 9 -28 4 -19 -19 21 -55 228 8 228 69 0 22 -3 22 -39 -1z"/>
<path d="M2018 1290 c-2 -5 -4 -17 -6 -25 -8 -44 -39 -66 -79 -55 -35 10 -38
9 -13 -10 24 -19 18 -21 -29 -14 -32 6 -82 1 -110 -9 -34 -13 -52 -13 -57 2
-4 11 -16 21 -27 21 -11 0 -14 -8 -8 -19 6 -10 2 -24 -9 -31 -11 -7 -26 2 -32
19 -15 39 -56 40 -88 1 -21 -25 -18 -30 18 -30 23 0 42 -10 42 -21 0 -12 20
-19 45 -15 29 4 45 -4 45 -24 0 -20 -24 -32 -68 -36 -37 -4 -81 -20 -96 -35
-16 -16 -45 -29 -65 -29 -35 0 -103 -60 -68 -60 9 -1 -14 -15 -53 -32 -38 -18
-86 -40 -105 -50 -19 -10 -51 -18 -72 -18 -56 0 -99 -57 -62 -81 39 -24 87
-14 128 27 18 19 55 34 81 34 26 0 60 13 76 29 15 15 63 42 104 60 42 17 89
50 105 71 15 22 44 40 64 40 44 0 89 50 72 79 -8 13 8 21 38 21 29 0 57 13 63
29 6 16 24 24 40 18 15 -6 22 -21 15 -32 -9 -14 -1 -17 22 -8 20 8 49 3 65
-10 22 -19 27 -18 22 5 -3 15 -14 34 -25 41 -11 8 -8 27 8 46 19 23 33 26 52
10 20 -16 23 -12 15 20 -6 22 -19 41 -30 41 -10 0 -13 9 -6 20 7 11 7 20 1 20
-6 0 -12 -4 -13 -10z"/>
<path d="M3539 1259 c-21 -13 -22 -18 -3 -19 15 0 21 -9 14 -20 -7 -11 -3 -20
9 -20 11 0 21 -13 21 -30 0 -40 20 -38 52 5 23 30 27 31 27 3 1 -30 61 -47 61
-17 0 8 23 20 50 27 65 17 63 39 -5 64 -37 13 -74 13 -111 -1 -41 -15 -60 -14
-70 3 -10 16 -25 18 -45 5z"/>
<path d="M2345 1196 c-47 -22 -85 -48 -85 -58 0 -19 -119 -85 -132 -73 -12 12
71 95 95 95 15 0 15 9 -1 28 -27 32 -101 19 -116 -21 -6 -15 -23 -27 -38 -27
-14 0 -23 -11 -18 -25 13 -34 -8 -58 -83 -100 -84 -46 -113 -45 -97 5 17 53
-32 53 -80 0 -42 -46 -32 -63 38 -71 27 -3 77 -11 110 -19 40 -8 62 -5 62 8 0
12 16 23 35 23 30 2 30 4 -4 17 -37 15 -37 16 4 27 24 6 47 0 53 -12 6 -16 16
-13 30 7 19 26 21 25 22 -4 0 -32 3 -32 60 0 33 19 60 41 60 50 0 9 9 11 20 4
11 -7 20 2 20 19 0 17 9 32 20 34 11 1 29 3 39 5 29 3 101 69 101 91 0 37 -31
36 -115 -3z"/>
<path d="M5710 1220 c7 -11 2 -20 -10 -20 -12 0 -17 -9 -10 -20 17 -28 -37
-25 -66 4 -30 30 -47 14 -24 -24 18 -29 95 -17 205 29 52 22 43 -19 -10 -46
-40 -20 -37 -22 25 -11 96 17 105 26 70 61 -20 20 -49 27 -79 19 -27 -7 -54
-3 -61 8 -7 11 -21 20 -32 20 -11 0 -15 -9 -8 -20z"/>
<path d="M2776 1196 c45 -45 29 -135 -27 -156 -28 -11 -47 -27 -42 -36 6 -9 2
-29 -8 -45 -15 -24 -18 -23 -19 6 0 19 -9 35 -21 35 -14 0 -14 -12 0 -38 14
-25 34 -35 61 -28 52 14 52 -6 0 -34 -40 -21 -101 11 -102 54 0 9 -20 13 -44
9 -44 -6 -44 -6 3 30 26 21 70 57 98 82 28 25 59 45 69 45 25 0 -27 51 -64 63
-30 10 -80 -26 -80 -58 0 -10 -22 -30 -50 -45 -27 -15 -50 -39 -50 -54 0 -24
-18 -25 -110 -6 -63 14 -95 0 -69 -31 22 -27 19 -30 -26 -22 -33 6 -56 0 -63
-19 -7 -17 2 -28 24 -29 32 0 32 -2 -1 -21 -19 -11 -35 -32 -35 -48 0 -15 -16
-28 -35 -28 -116 -3 -218 -27 -239 -55 -22 -29 -27 -29 -60 4 -33 33 -37 33
-42 3 -8 -40 -14 -41 -68 -12 -31 17 -37 16 -26 -2 11 -18 3 -20 -30 -10 -29
9 -40 7 -32 -6 7 -12 -3 -25 -23 -30 -28 -7 -26 -10 8 -12 24 -1 48 -13 54
-27 8 -19 14 -19 29 3 14 19 19 8 17 -40 -3 -65 -253 -238 -253 -175 0 19
-126 -41 -190 -91 -38 -31 -37 -32 24 -22 55 9 63 5 52 -23 -10 -25 -6 -29 16
-17 21 12 23 10 5 -9 -18 -19 -35 -18 -84 7 -33 18 -79 32 -102 32 -23 0 -41
10 -41 22 0 13 -21 19 -48 13 -35 -6 -45 -1 -38 18 7 18 -6 27 -38 27 -26 0
-59 11 -72 24 -19 19 -24 13 -24 -23 0 -26 -6 -42 -13 -35 -23 23 -124 -52
-137 -101 -7 -31 -22 -45 -40 -38 -17 7 -33 -5 -41 -29 -7 -23 -24 -37 -37
-32 -13 6 -46 -2 -72 -16 -26 -14 -60 -21 -74 -16 -33 13 -34 -37 -1 -75 14
-16 8 -14 -13 5 -35 30 -44 31 -96 4 -31 -16 -66 -24 -77 -18 -10 7 -19 3 -19
-9 0 -11 -23 -21 -51 -21 -28 0 -46 8 -40 19 6 10 3 24 -9 31 -11 7 -20 -9
-20 -39 0 -51 1 -51 170 -51 123 0 170 7 170 25 1 17 8 15 22 -5 18 -25 20
-25 11 5 -7 21 2 42 24 54 30 15 36 11 34 -25 -1 -31 12 -46 44 -50 50 -8 62
31 15 49 -44 17 -37 67 10 67 22 0 40 -13 40 -30 0 -16 14 -30 31 -30 17 0 26
-9 19 -20 -17 -27 2 -25 51 5 35 21 46 19 67 -10 40 -53 121 -48 87 5 -13 22
-40 40 -58 40 -24 0 -30 12 -22 44 11 42 12 42 27 5 13 -34 15 -34 17 -4 1 38
31 47 51 15 7 -12 31 -7 61 13 55 35 65 18 19 -33 -27 -30 -26 -37 10 -70 23
-20 40 -26 40 -13 0 13 -9 23 -20 23 -36 0 -21 60 15 61 59 1 145 99 87 99
-10 0 -35 5 -55 12 -36 11 -36 10 -1 -19 34 -27 29 -29 -57 -28 l-94 1 55 29
c43 23 49 33 28 47 -22 14 -21 17 7 18 19 0 35 11 36 25 0 14 9 9 21 -10 11
-20 29 -31 39 -24 11 6 19 1 19 -12 0 -14 17 -19 41 -13 33 9 37 5 18 -17 -12
-15 -18 -43 -13 -63 7 -28 10 -26 12 9 2 47 30 60 52 25 7 -11 21 -20 32 -20
11 0 16 7 11 16 -6 9 18 18 52 20 78 6 87 15 56 52 -31 38 80 101 169 96 53
-3 55 -1 23 19 -33 19 -23 28 85 76 68 30 141 74 163 98 22 24 50 43 61 43 11
0 14 11 6 25 -8 14 -8 19 0 12 8 -7 38 -1 67 14 29 15 60 22 70 16 10 -6 35 5
56 23 20 19 51 30 67 24 16 -7 39 1 52 16 17 20 37 23 71 10 53 -21 82 6 72
65 -3 19 4 35 16 35 11 0 21 -15 21 -33 0 -25 11 -21 49 20 36 39 50 45 55 23
5 -23 39 -13 156 45 148 74 150 76 148 150 -1 41 5 75 15 75 9 0 17 10 17 22
0 13 -21 19 -49 13 -28 -5 -45 -2 -39 8 6 9 -13 26 -42 37 -69 26 -83 25 -54
-4z m-276 -274 c0 -45 -124 -124 -154 -98 -26 21 -23 30 23 70 53 46 131 62
131 28z"/>
<path d="M1260 1182 c0 -10 -22 -23 -49 -30 -26 -7 -62 -26 -80 -43 -17 -18
-31 -22 -31 -10 0 35 -91 24 -127 -16 -18 -20 -27 -43 -19 -51 8 -8 -1 -8 -20
-1 -49 19 -81 83 -49 96 14 5 8 11 -12 11 -29 2 -35 -8 -27 -40 9 -32 -2 -47
-48 -66 -32 -14 -54 -30 -48 -36 21 -20 -93 -79 -127 -65 -28 12 -29 15 -3 25
31 11 66 49 101 109 18 31 13 34 -55 23 -95 -15 -111 -25 -98 -60 6 -16 -2
-28 -20 -28 -19 0 -25 10 -16 25 8 14 -3 9 -25 -10 -22 -19 -53 -35 -69 -35
-55 0 -115 -58 -104 -100 8 -31 1 -40 -33 -40 -24 0 -38 9 -31 20 7 11 2 20
-10 20 -12 0 -17 9 -10 20 14 23 -11 26 -58 8 -18 -7 -27 -20 -21 -30 6 -10
-2 -18 -19 -18 -16 0 -35 -9 -42 -20 -7 -12 -6 -20 4 -18 37 6 66 -3 66 -22 0
-34 -97 -22 -120 15 -19 30 -20 29 -10 -10 9 -33 4 -45 -19 -45 -17 0 -31 -13
-31 -30 0 -17 18 -30 40 -30 22 0 40 10 40 21 0 12 -11 15 -25 7 -14 -8 -18
-7 -10 2 14 16 135 27 135 13 0 -16 -110 -94 -149 -106 -32 -10 -34 -13 -7
-15 22 -1 31 -13 23 -32 -8 -22 -2 -27 21 -18 56 22 34 -32 -23 -55 l-55 -23
50 -13 c59 -17 100 -6 100 27 0 13 27 26 60 28 33 3 60 -5 60 -17 0 -12 17
-16 38 -10 21 7 44 3 51 -8 8 -12 -1 -21 -18 -21 -34 0 -40 -35 -13 -77 13
-21 27 -16 65 25 35 38 72 54 133 57 46 3 84 11 84 19 0 8 12 10 27 4 29 -11
93 40 93 74 0 11 13 17 29 14 16 -3 41 10 55 28 14 19 59 39 98 44 77 9 158
50 158 79 0 10 -13 7 -28 -6 -20 -16 -33 -16 -41 -2 -20 31 6 61 52 61 22 0
64 18 92 40 28 22 63 40 79 40 16 0 23 9 16 20 -7 12 13 15 54 7 54 -10 62 -8
41 14 -36 39 -31 58 20 78 l45 18 -46 2 c-49 1 -194 -66 -239 -111 -35 -35
-59 -36 -72 -3 -5 14 -11 6 -11 -18 -2 -37 -13 -42 -83 -39 -93 5 -120 -18
-66 -58 20 -15 40 -19 44 -9 12 35 43 19 43 -21 0 -22 -13 -40 -30 -40 -16 0
-30 -9 -30 -19 0 -11 -14 -14 -31 -8 -17 7 -27 23 -22 37 7 17 -17 24 -78 24
-91 0 -149 31 -149 78 0 17 -12 22 -33 14 -30 -11 -29 -16 5 -44 48 -39 49
-77 3 -111 -19 -14 -28 -32 -20 -41 8 -8 -15 -11 -51 -6 -44 6 -63 2 -57 -13
11 -28 -28 -79 -67 -87 -23 -6 -22 0 5 30 23 26 27 46 14 66 -16 25 -21 23
-30 -10 -9 -32 -30 -41 -103 -44 -68 -2 -85 3 -69 19 13 13 23 30 23 39 0 20
-86 11 -103 -11 -6 -10 -18 -8 -24 3 -7 10 15 31 48 44 43 18 57 35 49 60 -9
29 1 34 68 29 62 -5 77 0 69 23 -6 15 -2 28 10 28 12 0 44 23 71 50 49 49 132
69 132 31 0 -28 122 -20 186 13 30 15 65 21 78 14 12 -8 17 -5 10 6 -14 22
157 66 332 84 8 1 6 20 -6 42 -21 40 6 59 29 21 7 -11 27 -14 45 -7 24 10 28
6 15 -16 -14 -23 -11 -24 15 -2 17 14 77 31 133 37 104 13 161 64 77 70 -24 2
-68 5 -97 7 -29 2 -67 10 -85 16 -17 7 -32 5 -32 -4z m-493 -521 c-31 -28
-212 -80 -233 -67 -13 8 -16 0 -8 -21 7 -18 5 -33 -4 -33 -22 0 -43 52 -27 68
6 7 28 12 48 12 21 0 54 17 75 38 20 20 49 41 65 47 36 13 106 -24 84 -44z"/>
<path d="M0 1105 c1 -56 6 -67 20 -45 25 39 25 120 0 120 -11 0 -20 -34 -20
-75z"/>
<path d="M3304 1128 c-21 -23 -18 -28 17 -28 23 0 60 -10 82 -22 22 -12 45
-16 51 -10 7 6 -14 21 -46 33 -31 12 -62 29 -68 38 -5 9 -22 4 -36 -11z"/>
<path d="M3019 1125 c-23 -5 -29 -23 -23 -66 5 -34 0 -59 -13 -59 -12 0 -17
-12 -11 -27 6 -16 -16 -40 -56 -60 -81 -39 -61 -40 94 -3 66 16 122 37 126 48
4 13 25 12 56 -3 27 -12 45 -33 40 -47 -5 -14 0 -29 12 -33 14 -4 9 -28 -15
-66 -20 -32 -25 -49 -11 -37 36 33 168 -39 172 -92 5 -59 41 -88 84 -69 42 18
58 23 87 27 12 1 15 12 7 25 -10 16 3 19 44 9 32 -8 106 -18 166 -23 59 -4
112 -12 117 -17 9 -10 105 78 105 96 0 14 -71 -2 -117 -27 -57 -30 -96 -26
-143 13 -49 42 -52 69 -7 52 22 -8 29 -5 20 9 -8 12 -5 28 7 35 11 7 20 1 20
-13 0 -14 14 -7 30 17 25 35 26 53 6 96 -19 42 -18 56 2 69 40 24 -2 40 -94
35 -46 -3 -88 4 -92 15 -5 12 -10 1 -10 -24 -2 -39 -8 -42 -52 -25 -50 19 -51
19 -21 -38 29 -55 28 -58 -12 -47 -23 6 -48 -1 -57 -15 -22 -36 -58 -7 -47 37
6 23 -3 42 -22 50 -21 8 -28 5 -20 -9 7 -11 -6 -9 -29 5 -27 17 -38 39 -31 62
7 19 2 35 -10 35 -11 0 -21 -13 -21 -29 0 -20 -12 -25 -33 -17 -19 7 -28 5
-22 -6 6 -10 -33 -19 -88 -21 -87 -2 -94 1 -63 25 20 14 46 27 58 27 32 1 9
101 -23 101 -14 0 -30 -11 -36 -25 -7 -17 -15 -18 -26 -4 -10 11 -31 18 -48
14z"/>
<path d="M4951 1059 c-48 -31 -53 -39 -26 -50 42 -16 67 0 81 51 6 22 9 39 7
39 -2 -1 -30 -19 -62 -40z"/>
<path d="M5642 1088 c-1 -13 -45 -34 -97 -49 -52 -14 -104 -32 -116 -41 -11
-9 -38 -16 -60 -15 -54 2 -239 -20 -302 -36 -37 -9 -49 -6 -39 10 10 15 -4 22
-42 21 -31 0 -45 -6 -31 -11 45 -18 27 -50 -20 -35 -25 8 -90 16 -145 18
l-100 4 75 -21 c41 -11 75 -26 75 -34 0 -18 -118 -47 -173 -42 -27 2 -46 -10
-53 -37 -11 -43 17 -57 31 -15 7 20 22 20 72 2 37 -14 68 -16 74 -5 6 10 0 18
-13 18 -54 0 3 23 75 30 42 4 121 16 175 27 102 20 160 12 141 -19 -6 -10 -1
-18 11 -18 12 0 19 15 16 34 -5 28 16 38 103 51 60 9 130 29 154 45 30 20 90
29 171 27 l126 -2 -120 -16 c-66 -8 -123 -12 -127 -8 -4 4 -21 -6 -37 -22 -16
-16 -50 -29 -76 -29 -26 0 -53 -9 -60 -20 -7 -11 -2 -20 10 -20 12 0 17 -8 11
-18 -16 -26 38 -41 71 -20 22 14 19 18 -12 19 -172 9 210 58 465 60 135 1 142
5 91 55 -31 32 -31 34 0 40 35 7 48 44 16 44 -10 0 -34 6 -54 13 -22 9 -30 6
-21 -8 8 -14 -21 -24 -84 -28 -127 -9 -159 -2 -169 39 -5 19 -10 24 -12 12z
m243 -94 c75 -5 30 -34 -50 -32 -47 0 -73 6 -58 12 23 9 23 14 0 30 -19 14
-12 15 23 6 28 -8 66 -15 85 -16z"/>
<path d="M1631 889 c-17 -18 -31 -26 -31 -19 0 7 -14 -1 -31 -19 -18 -17 -49
-31 -70 -31 -52 0 -51 -63 1 -95 33 -21 40 -20 40 4 0 27 34 54 90 74 11 4 18
21 15 37 -2 19 0 21 7 5 14 -30 68 -33 68 -4 0 12 9 16 20 9 34 -21 22 14 -15
42 -45 35 -56 34 -94 -3z"/>
<path d="M5840 878 c0 -13 -17 -18 -39 -13 -27 7 -35 2 -27 -17 7 -19 0 -25
-18 -17 -18 6 -29 -1 -29 -20 0 -28 5 -28 44 -2 62 40 135 20 104 -29 -12 -20
-39 -33 -59 -29 -21 4 -32 -2 -25 -13 7 -11 39 -15 71 -8 33 8 58 5 58 -7 0
-10 18 -15 40 -9 42 11 59 106 19 106 -12 0 -16 -9 -9 -20 7 -11 4 -20 -5 -20
-28 0 -107 91 -92 106 8 8 3 14 -10 14 -12 0 -23 -10 -23 -22z"/>
<path d="M2720 827 c-27 -14 -50 -37 -50 -51 0 -14 -9 -33 -20 -41 -12 -9 -10
-15 5 -15 14 0 25 -17 25 -38 0 -28 10 -36 39 -28 39 10 36 62 -7 90 -13 8 -2
30 27 55 58 50 49 64 -19 28z"/>
<path d="M3080 844 c0 -13 1 -30 2 -37 1 -7 -11 -20 -25 -29 -15 -10 -17 -18
-5 -18 12 0 21 -14 21 -30 0 -18 -12 -27 -31 -22 -173 48 -278 17 -255 -75 13
-49 73 -91 73 -50 0 14 13 11 33 -6 29 -23 32 -23 24 3 -6 17 -27 30 -47 30
-20 0 -41 13 -46 28 -7 21 3 25 38 15 27 -7 55 -13 63 -13 8 0 15 -13 15 -30
0 -16 23 -44 51 -62 33 -22 47 -45 39 -65 -7 -18 -6 -25 2 -18 8 8 26 -1 40
-20 25 -33 27 -33 27 0 1 19 -8 35 -19 35 -11 0 -20 12 -20 27 0 19 17 24 53
17 39 -7 49 -3 37 16 -10 16 -6 22 10 17 15 -5 29 -25 32 -44 2 -19 16 -49 31
-66 24 -30 80 -171 71 -180 -20 -20 -118 -29 -106 -10 8 13 25 17 38 9 14 -8
12 1 -3 20 -15 18 -36 28 -46 22 -10 -6 -17 -4 -15 6 1 9 -4 36 -12 61 -16 48
-50 62 -50 20 -1 -17 -5 -18 -15 -3 -29 43 -102 68 -163 55 -50 -10 -62 -5
-62 22 0 18 7 29 15 24 9 -5 33 3 54 19 21 15 30 28 19 28 -11 0 -31 -11 -44
-24 -15 -15 -24 -16 -24 -3 0 18 -40 21 -137 10 -15 -2 -23 -14 -18 -28 35
-91 -35 -128 -156 -82 -23 9 -31 6 -22 -8 7 -12 2 -26 -12 -32 -19 -8 -19 -10
1 -11 15 -1 20 -12 13 -24 -8 -12 -2 -30 13 -40 41 -25 58 -22 58 12 0 35 8
37 55 11 19 -10 51 -23 72 -30 45 -14 32 -62 -16 -58 -24 2 -29 -3 -15 -17 14
-14 35 -10 67 12 62 43 82 40 66 -11 -8 -27 -6 -37 7 -29 12 7 27 3 35 -9 22
-36 -8 -47 -58 -20 -40 21 -58 19 -110 -8 -35 -17 -63 -29 -63 -24 0 4 -36 1
-80 -7 -131 -24 -96 14 80 88 17 7 5 9 -25 5 -31 -4 -61 0 -67 10 -6 9 -33 17
-60 17 -32 0 -45 -8 -36 -23 8 -13 3 -18 -14 -12 -15 5 -26 20 -23 33 3 12 -3
22 -14 22 -10 0 -32 14 -50 31 -20 20 -31 23 -31 8 0 -14 -17 -19 -41 -13 -34
9 -37 6 -18 -18 17 -20 18 -28 1 -28 -22 0 -30 26 -23 77 2 15 -6 21 -18 14
-13 -9 -21 12 -21 56 0 59 -6 68 -40 59 -44 -12 -53 -38 -17 -50 46 -16 34
-72 -17 -85 -46 -12 -48 -15 -17 -38 41 -30 -8 -88 -51 -62 -13 9 -19 7 -13
-4 7 -10 -5 -18 -25 -18 -30 0 -33 5 -15 27 19 23 14 27 -26 21 -76 -11 -81
-96 -5 -99 l56 -1 -52 -24 c-69 -31 -118 -73 -118 -100 0 -14 8 -12 18 4 13
21 21 22 32 3 12 -19 18 -19 30 0 9 14 37 28 63 32 26 4 96 17 157 29 123 25
328 8 307 -25 -8 -14 10 -17 55 -9 37 7 122 22 188 33 66 10 161 28 210 39 50
10 124 20 166 20 74 1 212 58 277 114 18 16 58 36 90 45 41 11 55 26 50 54 -4
21 -1 32 7 25 32 -32 225 72 315 171 46 50 30 65 -28 24 -59 -41 -97 -41 -97
0 0 20 -11 28 -30 21 -18 -7 -30 0 -30 17 0 65 -93 -10 -95 -77 -5 -140 -30
-170 -85 -103 -25 30 -129 32 -175 3 -55 -34 -70 48 -18 96 64 59 68 91 11 91
-25 0 -46 16 -52 40 -10 36 -30 49 -71 42 -8 -1 -15 7 -15 18 0 11 -13 20 -30
20 -33 0 -41 33 -11 43 10 4 5 24 -10 46 -16 21 -29 28 -29 15z m-271 -410
c22 -22 21 -31 -10 -50 -42 -26 -70 -1 -51 47 13 36 27 37 61 3z m611 -16 c0
-7 -14 -25 -31 -39 -33 -27 -84 1 -63 35 13 20 94 24 94 4z m-501 -88 c46 -16
90 -27 97 -25 8 3 16 -4 19 -15 3 -11 -11 -20 -30 -20 -19 0 -47 -11 -61 -25
-36 -34 -64 -31 -64 6 0 16 -13 35 -30 42 -16 6 -30 24 -30 39 0 34 -3 34 99
-2z m212 -72 c18 -28 -41 -87 -69 -69 -16 9 -16 25 -1 52 23 44 50 50 70 17z"/>
<path d="M5550 840 c7 -11 22 -20 33 -20 11 0 37 -20 58 -45 l38 -45 0 60 c1
55 -5 60 -70 65 -44 3 -67 -3 -59 -15z"/>
<path d="M488 797 c-7 -11 -9 -21 -5 -23 4 -2 27 -15 51 -28 38 -22 43 -20 41
13 -4 42 -67 69 -87 38z"/>
<path d="M4487 783 c-30 -25 -38 -45 -25 -65 9 -15 18 -20 18 -11 0 10 13 7
29 -6 16 -13 50 -19 75 -13 25 6 35 6 21 0 -35 -16 -31 -48 5 -48 17 0 30 -9
30 -19 0 -11 -13 -15 -30 -8 -16 6 -30 1 -30 -11 0 -31 44 -27 96 9 24 17 54
25 67 17 14 -8 0 -24 -35 -40 l-58 -26 54 7 c70 10 146 -51 110 -88 -19 -20
-14 -20 20 1 l43 26 -58 43 c-32 24 -52 49 -44 58 8 8 -3 27 -24 43 -21 15
-30 28 -20 27 31 -1 89 -52 75 -66 -7 -7 3 -13 22 -13 46 0 89 -45 115 -120
27 -78 14 -92 -49 -51 l-49 32 22 -80 c12 -45 33 -81 48 -81 15 0 22 8 16 19
-17 28 29 49 54 24 15 -15 14 -30 -4 -52 -14 -17 -18 -31 -8 -31 9 0 4 -9 -13
-20 -16 -10 -45 -15 -63 -9 -33 11 -217 -151 -217 -191 0 -35 62 -48 82 -18
12 20 17 21 18 3 0 -14 23 -25 50 -25 28 0 50 9 50 19 0 11 -13 15 -30 8 -16
-6 -30 -1 -30 11 0 12 -13 22 -30 22 -16 0 -30 10 -30 21 0 12 9 16 20 9 11
-7 20 1 20 17 0 16 15 34 33 41 26 10 28 7 10 -14 -26 -32 6 -74 56 -74 27 1
27 3 1 20 -19 12 -21 20 -6 20 14 0 20 13 13 30 -6 16 -6 30 2 30 7 0 20 -20
30 -45 15 -36 19 -38 20 -9 0 21 10 31 22 23 12 -7 17 -25 12 -39 -6 -14 2
-43 16 -63 25 -33 26 -32 17 16 -13 70 18 85 75 36 33 -29 50 -33 61 -16 10
17 23 15 48 -10 22 -22 53 -30 91 -23 33 6 59 3 59 -6 0 -10 50 -19 110 -22
77 -3 110 3 110 21 0 19 5 20 24 1 13 -13 49 -24 80 -24 31 0 56 11 56 24 0
19 5 19 24 0 29 -29 136 -32 136 -4 0 11 25 20 55 20 43 1 48 5 25 20 -20 13
-22 19 -5 20 40 0 29 76 -14 99 -49 26 -61 26 -61 0 0 -12 7 -17 16 -11 9 5
27 2 41 -6 52 -32 -304 -69 -439 -46 -70 12 -171 28 -223 34 -52 7 -99 21
-106 31 -6 11 -19 15 -29 9 -9 -6 -29 2 -44 17 -15 15 -47 24 -71 20 -25 -4
-45 4 -45 16 0 13 6 18 12 11 7 -7 27 3 45 20 24 24 26 35 8 41 -30 10 -33 59
-5 68 11 4 22 32 24 62 3 30 13 55 23 55 9 0 14 -27 9 -60 -5 -33 -2 -60 7
-60 10 0 17 14 17 30 0 17 17 30 39 30 47 0 71 -32 36 -48 -14 -7 0 -9 30 -5
57 8 56 9 63 -115 1 -21 13 -42 27 -47 30 -10 31 -4 5 69 -19 52 -18 53 10 17
18 -24 30 -29 30 -12 0 21 6 21 32 0 18 -16 37 -19 45 -8 29 41 104 29 122
-19 10 -27 37 -54 60 -62 22 -7 41 -21 41 -31 0 -11 9 -19 20 -19 11 0 12 18
2 45 -9 25 -13 54 -9 65 4 11 -15 21 -42 23 -27 1 -63 17 -80 34 -17 16 -50
36 -73 43 -26 9 -37 25 -29 44 8 21 2 27 -17 19 -16 -6 -41 4 -56 22 -23 28
-18 30 54 16 44 -9 101 -17 126 -18 38 -3 44 -11 34 -49 -9 -39 -6 -44 21 -29
37 21 124 10 140 -17 18 -28 49 -21 49 11 0 19 12 25 33 17 27 -10 31 -3 23
41 -9 48 -5 53 49 53 51 0 56 4 35 30 -20 25 -19 30 8 30 45 0 40 34 -9 61
-29 15 -49 16 -67 1 -14 -12 -33 -15 -42 -7 -8 8 -10 -12 -3 -45 11 -55 10
-56 -11 -15 -12 25 -36 45 -54 44 -27 0 -26 -4 4 -21 23 -14 32 -34 24 -59 -8
-25 -3 -40 14 -41 14 -1 -10 -14 -54 -27 -44 -14 -86 -22 -94 -18 -26 15 7 65
36 54 33 -13 38 24 6 44 -16 10 -14 19 5 31 17 11 -3 17 -59 18 -48 0 -82 -7
-77 -15 5 -8 -22 -16 -60 -17 -39 0 -58 5 -43 14 18 12 16 19 -9 29 -19 7 -30
21 -24 31 6 10 1 18 -12 18 -13 0 -18 -13 -12 -30 19 -48 -64 -81 -104 -42
-18 18 -22 32 -9 32 12 0 18 18 12 40 -6 22 -18 40 -27 40 -25 0 -40 -32 -23
-49 7 -8 15 -20 16 -28 4 -31 37 -94 57 -108 12 -8 1 -15 -25 -15 -25 0 -50
13 -57 30 -6 17 -20 30 -30 30 -11 0 -14 -9 -7 -20 7 -11 -9 -18 -39 -15 -33
2 -48 13 -42 29 12 31 -18 33 -70 6 -31 -17 -36 -15 -26 12 7 18 41 45 75 59
l62 27 -100 4 c-55 1 -104 3 -110 2 -5 0 -21 12 -35 27 -25 28 77 70 155 65
90 -7 149 5 120 24 -27 17 -27 20 0 21 20 1 17 7 -10 19 -56 24 -75 24 -59 -1
9 -15 -22 -19 -100 -12 -101 9 -110 6 -87 -22 23 -28 19 -30 -28 -21 -30 6
-51 4 -46 -3 4 -8 -74 -12 -174 -9 -185 4 -238 27 -192 82 29 36 14 31 -37
-11z"/>
<path d="M5244 806 c19 -4 29 -20 24 -34 -5 -14 4 -27 21 -29 17 -1 44 -4 60
-6 16 -2 25 -10 20 -18 -10 -17 92 -35 128 -23 13 4 18 15 12 25 -6 10 20 5
56 -10 37 -16 79 -21 93 -12 17 10 3 20 -41 29 -47 9 -59 18 -40 30 20 12 15
19 -20 27 -26 5 -65 17 -87 26 -33 14 -36 12 -16 -13 20 -24 11 -28 -55 -21
-44 4 -84 15 -90 25 -6 10 -31 17 -55 16 -32 -2 -35 -5 -10 -12z"/>
<path d="M1233 705 c-7 -12 0 -35 17 -52 35 -35 40 -113 8 -113 -12 0 -18 12
-12 27 6 15 -8 43 -31 62 -35 30 -39 31 -29 4 7 -17 4 -37 -5 -43 -10 -6 -22
5 -27 25 -9 33 -9 33 -12 0 -1 -19 -11 -35 -21 -35 -11 0 -15 14 -8 30 6 17 1
30 -11 30 -13 0 -28 -27 -35 -60 -11 -54 -67 -88 -67 -40 0 11 -13 20 -30 20
-16 0 -30 -9 -30 -20 0 -11 -13 -20 -30 -20 -16 0 -30 -9 -30 -20 0 -11 18
-20 40 -20 22 0 40 10 40 22 0 13 14 16 35 8 77 -33 183 -44 206 -22 18 16 26
15 33 -3 12 -33 50 -32 119 4 32 16 93 43 137 61 201 82 233 129 80 115 -62
-5 -90 0 -90 17 0 13 -17 5 -37 -19 -20 -23 -43 -36 -50 -29 -7 7 -13 2 -13
-11 0 -50 -74 -21 -103 41 -18 37 -36 54 -44 41z"/>
<path d="M2580 700 c-16 -10 -45 -14 -63 -9 -19 6 -39 1 -46 -10 -8 -12 -1
-16 18 -9 17 7 31 2 31 -10 0 -12 -22 -22 -48 -22 -40 0 -46 -8 -37 -43 7 -28
-1 -52 -24 -69 -21 -15 -29 -36 -20 -52 12 -21 10 -21 -12 -1 -37 34 -79 32
-79 -4 0 -18 -12 -25 -30 -18 -22 8 -30 -3 -30 -40 0 -52 50 -56 83 -7 7 10
49 20 95 21 68 2 126 33 62 33 -11 0 -20 8 -20 18 0 10 37 13 83 7 58 -8 79
-4 70 11 -8 12 4 32 26 44 55 29 52 74 -4 75 -80 0 -95 5 -95 26 0 11 15 18
33 15 18 -3 35 9 38 29 6 41 8 40 -31 15z"/>
<path d="M5720 700 c-16 -11 -21 -20 -10 -21 11 -1 -19 -17 -67 -37 l-87 -35
137 2 c75 0 155 13 177 27 36 23 31 25 -43 20 -70 -6 -82 -1 -76 29 8 41 8 40
-31 15z"/>
<path d="M2238 655 c-2 -14 -1 -33 1 -43 2 -10 -12 -6 -32 10 -31 25 -33 24
-21 -8 8 -23 6 -31 -7 -23 -11 7 -34 2 -50 -12 -16 -13 -47 -19 -69 -13 -33 9
-36 4 -19 -28 11 -21 34 -38 51 -38 18 0 25 10 16 25 -11 20 -8 20 13 0 15
-14 41 -25 58 -24 26 0 25 4 -4 27 -50 38 -44 48 30 45 57 -3 66 4 71 52 4 30
-3 55 -15 55 -11 0 -22 -11 -23 -25z"/>
<path d="M3881 504 c-16 -27 -20 -28 -21 -4 -1 27 -3 27 -20 0 -27 -42 -25
-60 7 -48 17 6 33 -8 42 -36 14 -46 14 -46 34 10 17 45 26 51 49 32 30 -24 38
-3 13 33 -29 42 -83 48 -104 13z"/>
<path d="M4702 466 c-22 -24 -30 -25 -44 -4 -8 15 -23 20 -31 11 -21 -20 32
-52 66 -39 16 6 27 -3 27 -23 0 -20 -9 -28 -23 -19 -14 9 -18 5 -9 -9 8 -13
27 -23 42 -23 33 0 93 -79 78 -103 -6 -9 0 -17 13 -17 13 0 18 13 12 29 -6 15
-1 32 12 36 34 11 -2 55 -45 55 -21 0 -43 9 -50 21 -9 13 7 16 43 8 52 -11 54
-9 22 17 -19 16 -35 39 -35 52 0 14 -8 19 -18 13 -10 -6 -22 -3 -25 7 -4 10
-19 5 -35 -12z"/>
<path d="M738 421 c-40 -51 -58 -59 -109 -49 -64 11 -125 -31 -100 -70 6 -10
2 -25 -9 -32 -12 -7 -19 -1 -15 13 3 14 -7 26 -21 26 -14 1 -33 13 -43 29 -20
32 -70 -42 -56 -84 11 -31 -24 -65 -86 -84 -27 -8 -60 -24 -74 -35 -14 -11
-25 -12 -25 -2 1 30 29 57 60 57 19 0 27 15 23 39 -5 32 -1 34 22 15 38 -32
55 -11 53 64 -2 34 -7 47 -12 28 -5 -19 -26 -40 -47 -46 -22 -7 -39 -26 -39
-43 0 -16 -9 -24 -21 -16 -30 18 -76 -27 -69 -67 4 -19 8 -39 8 -46 3 -19 122
-13 122 7 0 10 11 15 25 10 36 -12 80 40 80 94 0 55 43 49 97 -13 18 -20 49
-36 68 -36 34 0 34 2 -1 41 -36 40 -36 40 2 26 33 -12 35 -10 15 15 -20 24
-15 30 25 34 27 2 49 -5 49 -16 0 -21 95 16 133 51 21 20 22 121 1 141 -5 5
-30 -18 -56 -51z"/>
<path d="M1847 407 c-24 -24 -38 -49 -32 -56 7 -6 -1 -11 -17 -11 -15 -1 -50
-18 -78 -40 l-50 -39 72 3 c39 1 82 -4 95 -12 35 -22 28 -52 -12 -52 -30 1
-31 3 -5 20 26 17 25 19 -5 20 -54 0 -41 -39 20 -62 30 -11 61 -31 69 -44 10
-15 16 -8 16 19 0 23 -13 53 -30 67 -16 14 -30 34 -30 45 0 10 14 14 30 8 17
-7 30 -3 30 7 0 10 32 14 70 9 47 -6 70 -1 70 16 -1 43 -37 85 -74 85 -20 0
-34 10 -32 23 8 43 -64 39 -107 -6z"/>
<path d="M3820 299 c0 -23 -9 -36 -20 -29 -11 7 -20 3 -20 -9 0 -12 -21 -18
-47 -13 -26 4 -59 -1 -75 -12 -22 -16 -21 -18 6 -9 19 6 40 3 46 -7 6 -10 26
-13 44 -6 25 10 30 5 20 -21 -7 -18 -4 -33 7 -33 10 0 19 14 19 30 0 17 13 30
28 30 34 0 49 36 36 85 -12 48 -44 44 -44 -6z"/>
<path d="M3529 285 c-45 -33 -126 -285 -92 -285 19 0 44 63 52 131 2 23 19 70
36 105 18 35 30 64 28 64 -1 0 -12 -7 -24 -15z"/>
<path d="M4699 279 c-22 -13 -20 -20 12 -31 21 -9 45 -25 53 -36 8 -12 13 -2
11 23 -4 50 -36 69 -76 44z"/>
<path d="M5470 241 c7 -12 28 -21 47 -21 19 0 46 -11 59 -24 17 -17 24 -18 24
-1 0 29 -27 45 -92 57 -32 6 -46 2 -38 -11z"/>
<path d="M15 192 c-7 -39 4 -56 58 -85 37 -20 72 -52 78 -72 10 -30 49 -51 49
-26 0 27 -70 151 -85 151 -10 0 -12 20 -5 45 10 37 8 39 -10 15 -17 -23 -26
-24 -33 -5 -17 40 -42 29 -52 -23z"/>
<path d="M1476 151 c-41 -14 -79 -21 -85 -15 -6 6 -11 -13 -11 -41 0 -51 -24
-60 -75 -28 -14 8 -25 8 -25 -1 0 -9 -9 -2 -20 14 -16 23 -18 19 -13 -20 7
-49 193 -78 263 -42 11 6 29 13 40 15 11 2 79 18 150 35 156 38 187 39 168 9
-9 -14 -5 -18 8 -9 38 23 4 70 -43 60 -23 -6 -65 -14 -93 -20 -27 -5 -60 -12
-71 -17 -12 -4 -21 12 -20 35 1 53 -66 62 -173 25z"/>
</g>
</svg>
