<?xml version="1.0" standalone="no"?>
<!DOCTYPE svg PUBLIC "-//W3C//DTD SVG 20010904//EN"
 "http://www.w3.org/TR/2001/REC-SVG-20010904/DTD/svg10.dtd">
<svg version="1.0" xmlns="http://www.w3.org/2000/svg"
 width="300.000000pt" height="187.000000pt" viewBox="0 0 300.000000 187.000000"
 preserveAspectRatio="xMidYMid meet">
<metadata>
Created by potrace 1.10, written by Peter Selinger 2001-2011
</metadata>
<g transform="translate(0.000000,187.000000) scale(0.100000,-0.100000)"
fill="#000000" stroke="none">
<path d="M100 1859 c0 -5 11 -9 25 -9 33 0 33 15 0 16 -14 1 -25 -2 -25 -7z"/>
<path d="M210 1860 c0 -5 9 -10 20 -10 11 0 20 5 20 10 0 6 -9 10 -20 10 -11
0 -20 -4 -20 -10z"/>
<path d="M2211 1870 c-1 -3 -4 -21 -6 -39 -2 -27 -1 -31 7 -18 5 10 7 28 5 40
-2 12 -5 20 -6 17z"/>
<path d="M2407 1855 c-4 -8 -2 -17 3 -20 6 -4 10 -4 10 -1 0 2 3 11 6 20 3 9
2 16 -4 16 -5 0 -12 -7 -15 -15z"/>
<path d="M838 1853 c7 -3 16 -2 19 1 4 3 -2 6 -13 5 -11 0 -14 -3 -6 -6z"/>
<path d="M1243 1843 c15 -2 37 -2 50 0 12 2 0 4 -28 4 -27 0 -38 -2 -22 -4z"/>
<path d="M640 1822 c-50 -5 -67 -12 -94 -36 l-29 -24 13 -218 c7 -121 14 -245
14 -276 1 -60 7 -67 71 -89 17 -6 18 -7 2 -8 -10 -1 -32 6 -49 15 -17 9 -27
11 -23 4 4 -6 11 -127 16 -267 8 -227 11 -257 26 -269 10 -7 13 -14 7 -14 -5
0 -17 6 -26 13 -14 10 -18 49 -24 265 -4 166 -10 250 -17 243 -5 -5 -24 -7
-43 -4 l-33 6 5 -119 c3 -68 12 -132 20 -151 15 -34 19 -123 6 -123 -5 0 -13
15 -19 34 -9 28 -8 36 3 40 8 3 14 11 14 17 0 8 -3 9 -14 0 -11 -9 -13 0 -15
51 -1 33 -3 64 -6 67 -2 4 -5 89 -6 190 -3 135 -6 177 -13 160 -6 -13 -17 -29
-24 -34 -11 -9 -11 -48 -1 -233 7 -122 9 -225 6 -228 -3 -3 -44 -9 -91 -11
-69 -5 -86 -3 -86 8 0 8 -4 84 -10 169 -15 250 -15 255 -1 252 7 -1 10 2 6 8
-4 6 14 11 47 12 l53 1 -45 7 -45 7 40 2 c80 3 116 13 132 38 21 31 10 40 -16
14 -12 -12 -29 -21 -38 -22 -10 0 -40 -3 -67 -6 -28 -2 -69 -2 -93 2 -35 5
-43 10 -43 27 0 17 -2 18 -15 8 -8 -7 -15 -16 -15 -21 0 -14 42 -32 72 -31 19
0 28 -4 28 -15 0 -21 -64 -11 -93 14 -18 16 -20 16 -14 2 3 -10 11 -108 18
-219 9 -150 16 -203 26 -207 7 -3 13 -12 13 -20 0 -12 -3 -13 -14 -4 -11 9
-15 9 -19 -1 -3 -7 -6 -2 -6 12 -1 20 -3 22 -11 10 -6 -10 -5 -19 3 -27 16
-15 72 -30 64 -16 -4 6 -9 84 -13 174 -4 90 -8 171 -9 179 -1 8 3 21 9 29 8
11 8 13 -1 7 -9 -5 -13 1 -13 18 0 16 6 26 14 26 15 0 22 -67 26 -226 1 -45 3
-90 5 -100 2 -11 4 -40 4 -65 1 -42 4 -48 31 -59 30 -12 120 -7 164 10 19 7
21 4 23 -36 2 -57 -13 -65 -137 -72 -98 -6 -95 -19 5 -21 64 -1 119 14 172 48
40 25 42 28 43 76 0 60 -10 126 -19 121 -3 -2 -7 28 -9 67 -2 40 -4 83 -5 96
-3 34 21 38 33 6 13 -35 13 -58 -2 -49 -6 4 -8 3 -5 -3 13 -20 28 -148 32
-268 2 -69 7 -130 11 -137 4 -6 7 -105 7 -220 0 -190 1 -209 18 -224 26 -24
25 -84 -1 -107 -23 -19 -46 -22 -55 -6 -5 7 -15 4 -29 -9 -11 -11 -39 -22 -61
-25 -179 -23 -181 -23 -184 65 -1 29 -4 61 -7 72 -4 12 -2 16 5 12 8 -5 8 0 3
16 -5 13 -10 119 -11 236 l-2 212 33 1 c28 1 26 3 -16 11 -27 5 -50 7 -52 5
-2 -1 1 -75 6 -162 5 -88 10 -235 10 -327 l0 -168 26 -6 c42 -11 182 2 279 26
70 17 106 20 163 15 76 -6 233 17 261 39 12 9 13 49 8 226 -3 118 -2 204 3
190 l8 -25 1 24 c1 14 -9 31 -24 43 -29 22 -31 47 -10 88 20 38 25 38 25 -1 0
-17 -4 -28 -10 -24 -5 3 -10 -3 -10 -14 0 -21 35 -51 60 -51 9 0 3 8 -13 19
-16 10 -24 21 -19 25 6 3 12 0 15 -6 2 -7 8 -9 13 -5 5 5 1 15 -10 23 -14 10
-16 17 -8 26 14 17 20 157 7 155 -5 -1 -8 5 -6 13 12 44 12 70 2 70 -7 0 -9
-5 -6 -11 4 -6 -2 -5 -14 3 -12 7 -21 23 -21 35 0 13 -4 23 -8 23 -5 0 -7 -12
-7 -27 1 -16 -2 -39 -6 -53 -5 -19 -7 -14 -8 25 -1 28 -4 61 -8 74 -4 18 -3
22 6 16 10 -6 11 -3 2 13 -16 31 -14 63 4 56 8 -4 12 -11 8 -17 -3 -6 -1 -7 5
-3 7 4 14 -4 18 -21 3 -15 7 -34 10 -41 2 -7 -1 -10 -7 -7 -6 4 -7 -3 -3 -22
9 -35 8 -35 27 -27 25 9 16 103 -12 125 -12 10 -17 20 -12 24 6 3 8 12 4 20
-3 9 0 22 7 30 15 18 7 30 -15 22 -8 -4 -15 -15 -15 -26 0 -26 -19 -38 -32
-20 -10 15 -4 -225 13 -486 9 -146 5 -215 -11 -215 -5 0 -8 17 -7 38 2 99 -4
253 -10 249 -5 -3 -9 41 -9 96 -1 56 -3 155 -4 220 -2 78 1 122 9 130 6 6 11
34 10 61 -1 41 -3 46 -9 26 -8 -25 -8 -25 -9 4 -1 26 -24 55 -43 56 -5 0 -8
-12 -8 -26 0 -17 4 -24 13 -21 9 3 12 -12 12 -58 1 -46 -3 -61 -12 -58 -6 3
-14 12 -16 21 -3 10 -5 3 -6 -15 -1 -25 2 -31 14 -27 8 4 15 1 15 -5 0 -6 -6
-11 -12 -11 -10 0 -10 -2 0 -9 15 -9 19 -60 22 -276 1 -71 4 -133 6 -137 4 -6
8 -223 5 -254 -2 -19 -78 -44 -136 -44 l-54 0 -1 98 c0 53 -2 112 -4 130 l-4
32 57 0 c31 0 62 4 69 8 7 5 -16 8 -55 8 l-67 -1 -3 77 c-3 138 -24 432 -30
438 -3 3 -3 -76 1 -175 14 -333 17 -855 6 -855 -14 0 -13 -19 -15 415 -1 373
-7 468 -26 420 -5 -13 -8 3 -8 45 -1 36 -4 97 -7 135 -4 59 -3 68 8 55 14 -16
65 -20 86 -6 7 4 16 5 19 2 3 -3 12 -1 19 4 6 6 16 10 20 9 21 -4 32 2 36 19
4 12 -1 18 -13 18 -21 0 -26 -15 -6 -18 6 0 -10 -4 -38 -7 -102 -13 -129 23
-123 161 5 112 31 171 90 203 l37 20 25 -24 c35 -33 65 -110 78 -201 7 -44 16
-80 20 -80 4 0 18 -10 29 -21 l22 -22 -7 27 c-4 15 -9 126 -11 247 -3 129 -9
227 -15 239 -14 26 -90 81 -101 74 -5 -3 -9 -1 -9 4 0 11 -59 19 -100 14z m69
-46 c52 -7 120 -48 122 -74 1 -9 2 -28 1 -42 -4 -247 -5 -264 -15 -240 -30 76
-58 130 -67 130 -6 0 -9 4 -6 9 3 4 -5 13 -18 19 -18 8 -29 7 -45 -4 -12 -8
-26 -12 -31 -9 -6 4 -9 1 -8 -7 2 -7 -2 -12 -8 -11 -6 1 -17 -9 -24 -22 -7
-14 -17 -25 -22 -25 -4 0 -8 -7 -8 -17 0 -9 -3 -13 -7 -9 -5 4 -9 39 -9 78 -1
38 -7 75 -13 81 -25 25 -2 59 24 37 10 -8 15 -9 15 -2 0 6 -8 16 -19 21 -41
22 -27 79 20 82 31 2 37 4 44 11 4 4 12 5 18 3 7 -2 32 -6 56 -9z m-302 -518
c-3 -7 -5 -2 -5 12 0 14 2 19 5 13 2 -7 2 -19 0 -25z m-262 3 c3 -5 1 -12 -5
-16 -5 -3 -10 1 -10 9 0 18 6 21 15 7z m2 -83 c-3 -7 -5 -2 -5 12 0 14 2 19 5
13 2 -7 2 -19 0 -25z m0 -80 c-2 -13 -4 -3 -4 22 0 25 2 35 4 23 2 -13 2 -33
0 -45z m10 -140 c-3 -7 -5 -2 -5 12 0 14 2 19 5 13 2 -7 2 -19 0 -25z m441
-113 c1 -25 -3 -45 -8 -45 -6 0 -10 20 -10 45 0 25 4 45 9 45 5 0 9 -20 9 -45z
m347 -2 c-4 -10 -7 -22 -6 -28 8 -48 8 -122 -1 -132 -17 -21 -24 -15 -24 25
-1 20 -4 52 -8 70 -6 25 -4 33 8 38 9 3 16 15 16 25 0 10 5 19 11 19 7 0 8 -7
4 -17z m25 -3 c0 -5 -5 -10 -11 -10 -5 0 -7 5 -4 10 3 6 8 10 11 10 2 0 4 -4
4 -10z m-370 -217 c0 -5 -5 -15 -10 -23 -8 -12 -10 -11 -10 8 0 12 5 22 10 22
6 0 10 -3 10 -7z m-13 -75 c-3 -7 -5 -2 -5 12 0 14 2 19 5 13 2 -7 2 -19 0
-25z m8 -175 c-4 -16 -11 -44 -15 -63 l-8 -35 -1 37 c-1 37 13 88 25 88 3 0 3
-12 -1 -27z m332 -43 c1 -33 -2 -60 -8 -60 -10 0 -13 103 -2 113 3 4 7 7 7 7
1 0 2 -27 3 -60z m-58 18 c-3 -27 2 -38 16 -38 12 0 14 -7 9 -27 -9 -39 -14
-41 -15 -7 0 16 -3 23 -6 16 -7 -19 6 -64 17 -57 6 4 10 -13 10 -40 0 -28 -4
-44 -10 -40 -5 3 -10 1 -10 -4 0 -6 6 -11 13 -12 7 0 6 -3 -3 -6 -8 -3 -22
-12 -31 -20 -20 -17 -158 -28 -178 -14 -10 6 -16 32 -18 80 -1 38 -3 73 -4 78
-1 4 -1 20 0 36 1 26 3 27 59 28 49 0 152 15 129 18 -11 1 2 21 14 21 5 0 9
-6 8 -12z m56 -98 c3 -5 1 -10 -4 -10 -6 0 -11 5 -11 10 0 6 2 10 4 10 3 0 8
-4 11 -10z m3 -50 c1 -16 -2 -30 -6 -30 -5 0 -9 14 -9 30 0 17 3 30 7 30 3 0
7 -13 8 -30z"/>
<path d="M921 774 c0 -11 3 -14 6 -6 3 7 2 16 -1 19 -3 4 -6 -2 -5 -13z"/>
<path d="M2411 1788 c0 -16 -5 -28 -11 -28 -5 0 -7 -7 -3 -16 4 -10 16 -14 41
-12 42 4 55 24 15 23 -23 0 -29 5 -34 30 l-7 30 -1 -27z"/>
<path d="M2495 1741 c-3 -5 45 -9 106 -9 61 0 108 2 106 5 -9 9 -206 12 -212
4z"/>
<path d="M2796 1718 c3 -5 10 -6 15 -3 13 9 11 12 -6 12 -8 0 -12 -4 -9 -9z"/>
<path d="M2868 1723 c7 -3 16 -2 19 1 4 3 -2 6 -13 5 -11 0 -14 -3 -6 -6z"/>
<path d="M2090 1709 c0 -5 5 -7 10 -4 6 3 10 8 10 11 0 2 -4 4 -10 4 -5 0 -10
-5 -10 -11z"/>
<path d="M2895 1710 c-3 -5 -1 -10 4 -10 6 0 11 5 11 10 0 6 -2 10 -4 10 -3 0
-8 -4 -11 -10z"/>
<path d="M2924 1709 c-3 -5 9 -9 26 -9 21 0 29 -4 24 -11 -4 -7 -1 -10 7 -7 8
3 15 11 17 19 2 11 -7 15 -33 16 -19 1 -38 -3 -41 -8z"/>
<path d="M245 1581 c-17 -10 -39 -36 -49 -58 -16 -36 -16 -44 -4 -69 8 -18 22
-29 36 -30 26 -1 27 0 5 22 -21 20 -26 44 -10 44 7 0 3 8 -8 17 -20 15 -20 15
3 10 12 -3 22 -1 22 5 0 5 6 6 13 3 6 -4 1 3 -13 14 -23 19 -24 21 -5 21 11 0
31 -7 43 -16 12 -8 22 -11 22 -5 0 6 -12 17 -27 25 l-28 15 33 -1 c21 -1 36
-7 39 -17 4 -9 13 -24 21 -34 8 -9 12 -20 9 -24 -4 -3 0 -17 8 -30 9 -14 11
-23 5 -23 -7 0 -8 -5 -3 -12 9 -15 13 -33 18 -68 4 -36 4 -37 15 -20 26 41 0
152 -51 213 -34 42 -51 45 -94 18z"/>
<path d="M1469 1512 c-34 -34 -39 -46 -39 -83 1 -45 18 -79 40 -79 9 0 10 3 1
13 -6 8 -8 17 -4 20 3 4 1 7 -5 7 -24 0 -2 80 30 112 26 26 44 22 68 -16 39
-63 34 -98 -18 -144 -27 -23 -27 -24 -3 -17 18 6 22 4 16 -6 -4 -8 4 0 18 16
31 37 40 31 24 -20 -9 -31 -9 -39 1 -43 10 -3 10 -7 1 -18 -9 -11 -8 -14 5
-14 9 0 16 -7 16 -16 0 -9 -6 -14 -12 -11 -7 2 -20 1 -29 -4 -13 -6 -16 -4
-15 9 0 9 6 20 11 24 6 4 2 8 -9 8 -12 0 -16 -5 -13 -14 3 -8 -3 -24 -14 -37
l-19 -22 -1 34 -2 34 -7 -40 c-6 -35 -7 -32 -9 29 -1 84 -9 84 -12 -1 -2 -47
-5 -60 -16 -56 -20 8 -33 37 -26 61 7 29 -1 28 -22 -4 -9 -15 -12 -23 -6 -20
6 4 11 2 11 -4 0 -23 -45 -6 -48 18 -4 27 -27 24 -27 -4 0 -13 13 -23 43 -34
23 -9 40 -19 36 -23 -4 -4 24 -5 62 -2 38 2 79 4 92 5 13 0 21 3 19 8 -3 4 5
14 17 23 20 16 22 16 22 -1 0 -10 -3 -17 -7 -14 -4 2 -6 -74 -6 -169 1 -193
-5 -293 -18 -322 -8 -18 -8 -18 13 1 20 19 23 30 21 93 -1 39 1 74 5 78 3 3 6
-23 6 -60 0 -36 5 -69 10 -72 6 -3 10 -32 10 -64 0 -31 4 -61 9 -66 5 -6 11
-36 14 -68 2 -31 7 -61 12 -65 4 -4 5 10 2 30 -3 21 -2 40 3 43 4 3 6 14 3 26
-6 20 -3 20 158 18 l165 -2 0 -254 c0 -139 -3 -253 -7 -253 -5 0 -6 -7 -2 -15
5 -14 -11 -16 -123 -15 -71 1 -146 6 -168 11 -25 7 -42 7 -48 1 -20 -20 21
-27 190 -32 l172 -5 0 47 c0 39 3 46 18 43 9 -2 36 -6 60 -9 40 -4 42 -3 25
10 -13 11 -15 17 -5 20 6 3 10 9 8 12 -4 7 8 277 20 430 6 85 6 92 -11 92 -10
0 -26 7 -36 16 -17 15 -18 13 -18 -32 0 -27 -5 -145 -11 -263 -6 -117 -9 -224
-6 -237 7 -26 -4 -37 -24 -24 -24 15 -19 561 5 600 5 7 4 11 -1 7 -5 -3 -8 17
-8 43 1 27 -2 68 -6 92 -5 24 -4 44 0 46 5 2 5 15 -1 28 -11 30 -12 75 -1 57
8 -13 7 126 -2 171 -6 34 -44 78 -59 69 -6 -4 0 -14 14 -26 23 -19 24 -23 27
-194 3 -126 0 -178 -8 -187 -9 -8 -11 26 -7 152 2 89 1 165 -4 168 -5 3 -10
-57 -11 -133 -1 -76 -2 -157 -3 -180 -1 -46 9 -54 31 -25 12 16 13 16 14 -4 0
-14 -12 -27 -34 -39 -19 -11 -32 -24 -29 -29 3 -6 0 -5 -8 2 -7 6 -29 13 -49
13 -36 1 -32 3 33 14 21 3 35 10 32 14 -3 5 -22 5 -42 0 -21 -5 -65 -9 -98
-10 -49 -1 -54 -3 -30 -9 27 -7 25 -8 -18 -9 -26 0 -56 5 -67 12 -17 10 -22 9
-30 -3 -7 -12 -4 -16 16 -18 l25 -3 -23 -20 -23 -20 35 17 c54 27 202 24 258
-5 41 -21 42 -23 42 -71 l0 -50 -97 0 c-54 0 -135 3 -180 7 -77 6 -82 7 -78
27 2 12 7 65 9 119 4 65 10 105 21 119 12 17 15 51 15 151 0 83 4 126 10 122
6 -3 10 -2 10 4 0 14 58 3 87 -16 12 -8 28 -11 35 -7 7 5 19 9 28 9 48 4 89
18 104 34 15 16 15 19 1 31 -10 8 -15 9 -15 1 0 -6 5 -11 12 -11 6 0 9 -2 6
-5 -3 -3 -12 -3 -19 0 -12 4 -13 22 -7 95 10 128 -10 178 -90 227 -44 27 -71
29 -79 6 -3 -10 -15 -38 -26 -63 -15 -32 -22 -71 -25 -135 -3 -68 -8 -93 -20
-103 -14 -10 -14 -16 -4 -32 10 -17 10 -20 -3 -20 -8 0 -16 6 -17 13 -1 6 -4
-33 -7 -88 -6 -98 -6 -100 -31 -100 l-25 0 -3 120 c-2 92 -6 121 -17 128 -11
6 -15 27 -15 77 0 76 -18 135 -58 188 -43 57 -58 59 -103 14z m401 -6 c0 -3
-4 -8 -10 -11 -5 -3 -10 -1 -10 4 0 6 5 11 10 11 6 0 10 -2 10 -4z m18 -28 c7
-7 12 -8 12 -3 0 5 13 -6 29 -24 37 -42 47 -89 24 -108 -17 -14 -17 -14 2 -10
19 4 20 -1 18 -67 -1 -41 3 -77 10 -86 6 -8 8 -12 3 -8 -4 3 -27 1 -50 -6 -23
-7 -51 -11 -61 -9 -20 4 -54 8 -87 11 -21 2 -25 48 -5 55 8 2 11 23 9 67 -2
52 0 61 12 51 11 -9 13 -1 9 54 -6 72 11 91 22 26 4 -22 13 -42 20 -45 11 -4
12 0 5 19 -11 29 4 34 19 8 9 -16 10 -16 11 -2 0 9 -7 20 -16 23 -8 3 -13 10
-10 15 3 5 -1 14 -10 21 -12 11 -12 15 -2 21 17 12 22 11 36 -3z m-193 -596
c-4 -31 -7 -65 -6 -74 0 -10 -3 -18 -7 -18 -9 0 -14 159 -6 172 14 22 25 -25
19 -80z m357 -132 c-2 -16 -9 -30 -14 -30 -5 0 -6 5 -3 10 3 6 -1 10 -9 10
-14 0 -14 3 2 19 24 27 29 25 24 -9z m83 -542 c-7 -39 -11 -44 -18 -23 -4 8
-2 15 4 15 6 0 7 5 4 10 -3 6 -3 15 0 20 12 19 15 10 10 -22z"/>
<path d="M1840 1351 c0 -6 5 -13 10 -16 6 -3 10 1 10 9 0 9 -4 16 -10 16 -5 0
-10 -4 -10 -9z"/>
<path d="M1923 1308 c-2 -16 1 -18 10 -9 7 7 8 14 1 21 -6 6 -10 2 -11 -12z"/>
<path d="M2227 1538 c-17 -14 -45 -103 -35 -114 15 -14 28 10 28 52 0 24 5 44
10 44 6 0 10 -7 10 -15 0 -8 5 -15 11 -15 7 0 10 -12 7 -30 -5 -32 6 -41 16
-14 3 8 12 12 18 9 7 -4 6 -1 -2 7 -8 7 -14 24 -12 36 3 20 8 23 30 17 35 -9
53 -24 45 -39 -3 -6 -3 -8 2 -4 5 5 15 -2 24 -15 12 -17 16 -51 17 -144 1 -68
-2 -123 -7 -123 -5 0 -4 -8 2 -19 16 -24 6 -48 -23 -54 -21 -4 -21 -4 3 -6 17
-1 28 -8 32 -20 4 -15 -3 -20 -37 -27 -82 -15 -196 4 -196 34 0 15 -2 15 -15
1 -14 -14 -14 -18 1 -47 8 -18 18 -32 20 -32 3 0 2 5 -1 10 -3 6 1 10 10 10 9
0 14 -4 11 -9 -4 -5 4 -7 15 -4 19 5 17 8 -15 21 -20 8 -36 18 -36 23 0 5 14
2 30 -6 17 -9 56 -20 88 -24 56 -8 57 -9 13 -10 -48 -1 -51 -7 -8 -15 27 -5
113 18 132 35 5 5 14 9 20 9 5 0 3 -6 -6 -13 -19 -14 -37 -147 -20 -147 5 0
12 28 14 63 l3 62 2 -63 c2 -48 -2 -64 -13 -69 -13 -4 -15 -19 -11 -77 2 -44
1 -54 -3 -26 l-6 45 -7 -40 c-12 -72 -10 -355 2 -355 6 0 8 -4 5 -10 -3 -5 -6
-73 -6 -150 0 -138 0 -140 -22 -140 -20 1 -20 2 -4 11 9 5 17 17 17 25 0 12
-8 9 -32 -11 -25 -21 -41 -26 -77 -25 -72 3 -75 2 -62 -14 10 -11 8 -15 -5
-18 -10 -1 26 -3 78 -3 76 0 94 3 86 13 -8 9 -6 12 6 12 9 0 16 -7 16 -15 0
-11 13 -15 55 -15 l54 0 -6 -52 c-6 -50 -6 -51 18 -45 13 4 50 7 82 7 60 0 80
15 25 19 -57 4 -73 4 -88 0 -22 -6 -25 55 -6 96 16 32 17 54 6 65 -3 3 -3 43
0 90 3 47 5 156 4 243 -1 149 0 157 16 142 16 -14 18 -14 31 1 12 15 31 16
161 10 111 -6 148 -5 148 4 0 7 6 10 14 7 8 -3 17 -1 20 6 6 12 4 -39 -8 -303
-13 -271 -15 -380 -6 -385 11 -7 17 65 31 390 6 149 12 271 14 273 1 1 -4 28
-13 60 -8 31 -16 80 -19 107 -2 28 -6 61 -9 75 -6 25 -6 25 -19 -7 -8 -18 -19
-33 -25 -33 -5 0 -10 -8 -9 -17 0 -11 3 -13 6 -5 7 17 33 15 33 -3 0 -8 -4
-15 -9 -15 -4 0 -5 -19 -1 -42 5 -23 6 -49 3 -57 -4 -11 -3 -13 5 -6 6 6 12
21 15 35 3 18 5 15 6 -12 1 -28 -4 -40 -19 -48 -22 -12 -229 -15 -284 -4 -33
6 -33 6 -31 62 l3 57 43 0 c33 0 43 4 41 14 -2 11 0 12 11 3 8 -7 17 -9 20 -5
4 3 14 0 23 -7 13 -11 17 -11 24 0 4 7 14 11 22 8 8 -3 22 0 32 8 17 12 13 13
-32 7 -61 -7 -102 2 -102 22 0 8 4 15 9 15 4 0 6 64 4 143 -2 98 -1 137 7 127
5 -8 10 -10 10 -5 0 6 -5 16 -12 23 -9 10 -8 16 5 29 13 13 20 14 28 6 9 -9
19 -8 40 3 30 15 40 27 14 18 -8 -4 -44 -1 -80 6 -55 10 -66 16 -71 36 -7 27
3 47 18 38 6 -4 14 -1 19 7 6 11 11 10 27 -4 21 -19 42 -22 42 -6 0 5 -5 7
-11 4 -6 -4 -23 7 -39 25 -22 25 -28 41 -26 67 4 58 -11 46 -23 -20 -9 -42
-19 -67 -34 -79 -21 -16 -22 -26 -25 -182 -3 -128 -7 -166 -17 -166 -15 0 -25
-31 -25 -82 0 -30 -4 -38 -19 -38 -16 0 -18 -6 -15 -42 2 -24 5 -185 6 -358 2
-173 2 -283 0 -243 -2 49 -7 73 -17 77 -11 4 -13 -7 -8 -62 4 -53 2 -70 -10
-80 -21 -18 -28 -2 -17 37 10 35 5 38 -24 13 l-21 -17 20 24 c19 22 20 38 20
240 1 119 2 320 4 446 4 210 2 230 -13 233 -16 3 -16 17 -10 146 8 167 1 198
-59 263 -34 38 -45 43 -81 43 -23 0 -50 -6 -59 -12z m393 -298 c0 -5 -4 -10
-9 -10 -6 0 -13 5 -16 10 -3 6 1 10 9 10 9 0 16 -4 16 -10z m44 -147 c-6 -173
-13 -243 -24 -243 -13 0 -17 31 -8 70 4 19 8 69 9 110 0 41 4 101 8 132 5 38
3 59 -3 62 -6 2 -3 5 6 5 16 1 17 -11 12 -136z m-35 23 c-9 -8 -10 -7 -5 7 3
10 7 35 8 55 1 35 2 35 5 -7 3 -26 -1 -48 -8 -55z m-12 -58 c-3 -7 -5 -2 -5
12 0 14 2 19 5 13 2 -7 2 -19 0 -25z m-240 -14 c-3 -3 -12 -4 -19 -1 -8 3 -5
6 6 6 11 1 17 -2 13 -5z m208 -141 c2 -10 4 -20 4 -23 1 -3 6 2 11 10 7 10 10
11 10 2 0 -7 -7 -15 -15 -18 -14 -6 -13 -8 2 -20 20 -15 6 -19 -17 -4 -8 5
-11 12 -8 16 4 4 3 15 -3 26 -5 10 -7 23 -3 29 8 13 14 7 19 -18z m-13 -145
c-4 -83 -7 -96 -18 -85 -8 8 6 167 15 167 3 0 5 -37 3 -82z m78 72 c0 -5 -4
-10 -9 -10 -6 0 -13 5 -16 10 -3 6 1 10 9 10 9 0 16 -4 16 -10z m-112 -50 c1
-17 -1 -29 -6 -26 -5 3 -9 19 -10 36 -1 40 13 31 16 -10z m-5 -65 c4 -8 2 -17
-3 -20 -6 -4 -10 3 -10 14 0 25 6 27 13 6z m-16 -237 c-1 -40 -3 -10 -3 67 0
77 1 110 3 73 2 -37 2 -100 0 -140z m-86 -9 c5 -3 2 -14 -6 -25 -13 -18 -14
-16 -14 21 0 22 3 33 6 25 3 -8 10 -18 14 -21z"/>
<path d="M2676 1513 c-12 -26 -13 -61 0 -120 5 -27 30 -53 52 -53 13 0 12 3
-5 15 -23 16 -37 65 -19 65 7 0 8 3 1 8 -9 6 -11 30 -7 70 1 6 10 12 20 12 20
-1 54 -24 46 -33 -3 -3 4 -8 15 -12 26 -8 61 -52 61 -76 0 -9 -7 -25 -16 -33
-8 -9 -11 -16 -5 -16 5 0 13 5 16 10 12 19 26 11 16 -9 -6 -10 -25 -21 -42
-25 -41 -8 -34 -14 19 -17 44 -3 48 -8 32 -40 -8 -15 -7 -19 5 -19 8 0 15 5
15 12 0 6 2 9 5 6 12 -12 -9 -39 -26 -35 -11 3 -19 1 -19 -4 0 -5 9 -9 20 -9
18 0 20 -5 16 -52 -4 -47 -8 -208 -7 -247 1 -12 4 -12 13 -3 7 7 15 79 20 189
9 174 9 178 -11 192 -16 10 -21 24 -21 60 0 63 -27 109 -90 154 -64 44 -85 46
-104 10z"/>
<path d="M1062 1515 c-7 -8 -11 -18 -10 -22 0 -4 -4 -21 -10 -36 -16 -39 -15
-78 4 -105 27 -38 39 -25 19 21 -9 20 2 87 14 87 5 0 12 7 15 16 3 8 2 12 -4
9 -6 -3 -10 -1 -10 4 0 6 7 11 15 11 21 0 65 -69 66 -105 1 -29 1 -29 9 -5 7
23 8 23 9 3 1 -12 -6 -28 -14 -37 -8 -8 -15 -20 -15 -27 0 -10 3 -10 12 -1 7
7 15 12 18 12 4 0 6 -39 6 -87 1 -105 12 -185 27 -195 35 -22 -77 -48 -170
-41 -59 5 -63 7 -63 30 0 18 4 24 15 20 11 -5 12 -1 6 16 -5 12 -7 31 -5 42 3
11 5 65 5 120 1 124 13 202 36 229 17 20 17 20 0 6 -10 -7 -27 -30 -37 -51
-16 -31 -20 -61 -21 -194 0 -97 -5 -165 -12 -176 -17 -27 16 -59 62 -59 27 0
32 -3 21 -10 -12 -8 -8 -10 15 -12 53 -3 89 2 105 16 8 8 24 16 34 17 25 5 45
37 30 47 -7 4 -14 64 -18 157 -9 184 -15 210 -67 269 -42 47 -65 56 -87 31z"/>
<path d="M641 1488 c-1 -10 -5 -18 -10 -18 -13 0 -9 -39 7 -67 16 -28 28 -29
35 -4 3 13 0 18 -8 15 -8 -3 -11 5 -10 24 1 15 -2 37 -6 48 -7 17 -8 17 -8 2z"/>
<path d="M2726 1492 c-3 -5 1 -15 8 -21 11 -10 14 -9 12 3 -3 21 -13 29 -20
18z"/>
<path d="M156 1448 c-4 -20 -5 -50 -1 -67 6 -30 38 -61 60 -61 5 1 -2 8 -17
16 -28 14 -38 34 -18 34 6 0 10 -5 10 -12 0 -6 3 -8 7 -4 5 4 -1 14 -11 22
-28 20 -11 30 19 10 14 -9 25 -12 25 -6 0 6 -8 14 -17 17 -28 11 -41 28 -45
59 -4 29 -4 28 -12 -8z"/>
<path d="M245 1470 c3 -5 11 -10 16 -10 6 0 7 5 4 10 -3 6 -11 10 -16 10 -6 0
-7 -4 -4 -10z"/>
<path d="M330 1451 c0 -25 6 -27 13 -6 4 8 2 17 -3 20 -6 4 -10 -3 -10 -14z"/>
<path d="M746 1435 c-3 -8 -1 -15 3 -15 5 0 11 7 15 15 3 8 1 15 -3 15 -5 0
-11 -7 -15 -15z"/>
<path d="M1333 1427 c-40 -15 -57 -32 -48 -47 5 -8 10 -8 20 0 15 13 61 -2 67
-22 3 -7 12 9 21 35 16 47 16 47 -6 46 -12 0 -36 -6 -54 -12z"/>
<path d="M2305 1430 c-3 -5 -1 -10 4 -10 6 0 11 5 11 10 0 6 -2 10 -4 10 -3 0
-8 -4 -11 -10z"/>
<path d="M296 1414 c-21 -20 -20 -24 3 -24 20 0 36 26 21 35 -4 3 -16 -2 -24
-11z"/>
<path d="M767 1411 c-3 -12 -1 -19 4 -15 5 3 9 -28 9 -70 0 -50 4 -76 11 -76
14 0 6 139 -9 166 -8 14 -10 14 -15 -5z"/>
<path d="M2003 1418 c2 -8 20 -12 47 -11 23 1 51 -2 61 -7 12 -7 20 -7 24 0 3
5 15 10 26 10 10 0 19 5 19 10 0 6 -37 10 -91 10 -68 0 -90 -3 -86 -12z"/>
<path d="M600 1388 c0 -14 7 -31 15 -38 13 -11 13 -8 3 21 -15 44 -18 48 -18
17z"/>
<path d="M2188 1404 c-5 -4 -8 -16 -8 -28 0 -14 3 -17 11 -9 6 6 9 19 7 28 -1
9 -6 13 -10 9z"/>
<path d="M720 1375 c-14 -16 -3 -20 19 -6 8 5 9 11 3 15 -5 3 -15 -1 -22 -9z"/>
<path d="M2330 1375 c0 -8 2 -15 4 -15 2 0 6 7 10 15 3 8 1 15 -4 15 -6 0 -10
-7 -10 -15z"/>
<path d="M637 1337 c-13 -20 -13 -24 -1 -24 7 0 16 9 20 19 9 29 -1 32 -19 5z"/>
<path d="M693 1350 c2 -8 12 -16 23 -17 13 -2 15 -1 4 4 -8 3 -19 11 -23 17
-6 7 -7 6 -4 -4z"/>
<path d="M1285 1270 c3 -102 10 -123 20 -58 9 59 2 141 -11 145 -8 3 -10 -24
-9 -87z"/>
<path d="M1390 1351 c0 -5 3 -17 6 -26 5 -13 9 -14 15 -4 6 10 11 10 23 0 9
-8 16 -10 16 -6 0 8 -42 44 -52 45 -5 0 -8 -4 -8 -9z"/>
<path d="M2140 1349 c0 -6 -13 -8 -35 -5 -20 4 -35 2 -35 -4 0 -6 -13 -10 -30
-10 -20 0 -30 -5 -30 -15 0 -12 5 -12 41 0 23 8 54 15 70 15 l28 0 -1 -95 c0
-64 -4 -93 -11 -88 -6 4 -7 1 -3 -6 5 -7 1 -20 -7 -29 -12 -13 -16 -52 -17
-182 -3 -191 1 -255 9 -156 9 100 29 98 23 -3 -4 -74 -3 -79 18 -86 12 -4 24
-4 27 -1 4 3 -1 6 -10 6 -12 0 -17 9 -17 28 -1 15 -3 45 -6 67 l-4 40 16 -28
c8 -16 17 -27 19 -25 6 6 -19 78 -27 78 -5 0 -9 44 -10 98 -1 78 -2 87 -7 47
l-7 -50 -8 69 c-8 68 -8 70 18 92 25 22 26 26 26 139 0 96 -3 115 -15 115 -8
0 -15 -5 -15 -11z m-11 -493 c-9 -8 -10 -3 -5 23 3 18 7 41 8 50 1 9 3 -1 5
-23 3 -22 -1 -43 -8 -50z"/>
<path d="M2365 1340 c3 -5 8 -10 11 -10 2 0 4 5 4 10 0 6 -5 10 -11 10 -5 0
-7 -4 -4 -10z"/>
<path d="M1123 1315 c-3 -9 -3 -18 -1 -21 3 -3 8 4 11 16 6 23 -1 27 -10 5z"/>
<path d="M1372 1300 c0 -19 2 -27 5 -17 2 9 2 25 0 35 -3 9 -5 1 -5 -18z"/>
<path d="M602 1280 c0 -19 2 -27 5 -17 2 9 2 25 0 35 -3 9 -5 1 -5 -18z"/>
<path d="M1417 1290 c-3 -11 -1 -23 4 -26 5 -3 9 6 9 20 0 31 -6 34 -13 6z"/>
<path d="M2245 1300 c-3 -5 -2 -10 4 -10 5 0 13 5 16 10 3 6 2 10 -4 10 -5 0
-13 -4 -16 -10z"/>
<path d="M1523 1283 c-3 -10 -8 -22 -11 -27 -3 -5 0 -6 6 -2 5 3 13 0 15 -6 3
-7 6 2 6 20 1 35 -6 42 -16 15z"/>
<path d="M1551 1284 c0 -11 3 -14 6 -6 3 7 2 16 -1 19 -3 4 -6 -2 -5 -13z"/>
<path d="M2323 1293 c-22 -8 -14 -21 8 -16 12 4 25 0 31 -8 8 -11 9 -11 5 3
-3 9 -1 19 6 22 7 2 1 4 -13 4 -14 0 -31 -2 -37 -5z"/>
<path d="M304 1202 c0 -89 -4 -133 -14 -127 -5 3 -10 1 -10 -4 0 -6 6 -11 14
-11 21 0 38 161 18 174 -4 3 -8 -12 -8 -32z"/>
<path d="M1467 1225 c-4 -8 -3 -16 1 -19 4 -3 9 4 9 15 2 23 -3 25 -10 4z"/>
<path d="M2339 1212 c-26 -23 -31 -33 -25 -55 9 -38 23 -33 18 6 -3 23 2 38
14 48 16 13 17 11 12 -33 -3 -27 -2 -48 2 -48 5 0 10 25 12 55 1 30 2 55 1 55
-2 0 -17 -13 -34 -28z"/>
<path d="M226 1168 c9 -59 14 -60 14 -5 0 26 -5 47 -10 47 -6 0 -8 -16 -4 -42z"/>
<path d="M1340 1146 c0 -30 5 -58 10 -61 8 -5 7 -11 -1 -21 -8 -10 -10 -76 -6
-244 3 -127 2 -228 -3 -225 -4 3 -9 -12 -9 -33 -1 -20 -2 -47 -2 -59 -2 -36
-16 -27 -23 15 -8 50 -6 74 4 37 9 -35 10 431 1 519 -7 66 -27 86 -37 37 -4
-18 -13 -31 -21 -31 -11 0 -13 -4 -5 -12 5 -7 12 -99 15 -205 5 -177 7 -194
26 -215 25 -26 26 -41 7 -57 -10 -8 -12 -24 -9 -51 5 -33 3 -40 -11 -40 -9 0
-21 10 -26 23 -6 14 -9 -27 -9 -123 0 -143 9 -259 23 -292 12 -26 -26 -56 -81
-64 -63 -9 -93 -26 -33 -18 69 8 236 50 219 56 -11 4 -15 38 -17 179 -2 102
-8 179 -14 187 -16 18 -3 25 21 12 21 -11 31 3 11 15 -5 3 -10 15 -10 26 0 10
-4 19 -10 19 -5 0 -10 7 -10 15 0 12 4 13 19 5 30 -16 49 -12 26 6 -23 17 -28
61 -8 68 7 3 13 12 13 20 0 9 -6 13 -12 11 -10 -4 -14 41 -17 197 -1 112 -5
207 -8 212 -3 4 3 5 13 2 17 -5 19 -1 16 59 -3 52 -8 67 -23 75 -18 10 -19 7
-19 -44z m-50 -830 c0 -159 -8 -213 -24 -170 -3 9 -6 90 -6 180 0 139 2 164
15 164 13 0 15 -26 15 -174z m22 -228 c-6 -6 -7 0 -4 19 5 21 7 23 10 9 2 -10
0 -22 -6 -28z"/>
<path d="M1408 1163 c-2 -5 -1 -66 2 -138 l6 -130 2 138 c2 123 0 153 -10 130z"/>
<path d="M1581 1108 c1 -46 15 -113 18 -88 12 103 11 130 -4 130 -11 0 -15
-10 -14 -42z"/>
<path d="M1505 1129 c-4 -5 -14 -8 -23 -7 -11 2 -16 -2 -13 -12 2 -8 4 -22 5
-30 0 -8 7 -20 15 -26 8 -6 12 -20 8 -33 -3 -11 -1 -19 3 -16 8 5 22 52 25 85
0 9 4 20 8 27 4 6 0 13 -8 17 -8 3 -17 1 -20 -5z m3 -41 c1 -32 1 -32 -12 -7
-10 20 -6 36 10 39 1 0 1 -14 2 -32z"/>
<path d="M1793 1080 c0 -30 2 -43 4 -27 2 15 2 39 0 55 -2 15 -4 2 -4 -28z"/>
<path d="M1763 1075 c0 -27 2 -38 4 -22 2 15 2 37 0 50 -2 12 -4 0 -4 -28z"/>
<path d="M1988 1085 c-3 -14 -1 -25 3 -25 5 0 9 4 9 9 0 5 3 16 6 25 3 9 2 16
-4 16 -5 0 -12 -11 -14 -25z"/>
<path d="M1900 1055 c0 -8 2 -15 4 -15 2 0 6 7 10 15 3 8 1 15 -4 15 -6 0 -10
-7 -10 -15z"/>
<path d="M1953 1046 c3 -8 9 -42 13 -75 3 -34 11 -61 15 -61 13 0 11 95 -3
125 -12 26 -34 36 -25 11z"/>
<path d="M276 1042 c-2 -4 -1 -14 3 -21 6 -9 10 -7 14 8 5 20 -7 29 -17 13z"/>
<path d="M1985 1040 c3 -5 8 -10 11 -10 2 0 4 5 4 10 0 6 -5 10 -11 10 -5 0
-7 -4 -4 -10z"/>
<path d="M1880 1019 c0 -11 4 -18 10 -14 5 3 7 12 3 20 -7 21 -13 19 -13 -6z"/>
<path d="M1238 830 c-2 -98 0 -190 4 -202 3 -13 6 68 7 180 1 111 -1 202 -4
202 -2 0 -5 -81 -7 -180z"/>
<path d="M1381 974 c0 -11 3 -14 6 -6 3 7 2 16 -1 19 -3 4 -6 -2 -5 -13z"/>
<path d="M2361 955 c0 -22 4 -47 9 -55 8 -12 9 -10 9 10 -1 14 -5 39 -9 55 -7
29 -8 29 -9 -10z"/>
<path d="M1012 874 c4 -59 10 -109 14 -113 4 -3 4 32 0 79 -3 47 -6 97 -6 113
0 15 -3 27 -8 27 -4 0 -4 -48 0 -106z"/>
<path d="M916 953 c-6 -14 -5 -15 5 -6 7 7 10 15 7 18 -3 3 -9 -2 -12 -12z"/>
<path d="M2222 910 c0 -14 2 -19 5 -12 2 6 2 18 0 25 -3 6 -5 1 -5 -13z"/>
<path d="M1207 905 c-4 -8 -2 -17 3 -20 6 -4 10 3 10 14 0 25 -6 27 -13 6z"/>
<path d="M1085 900 c-3 -5 1 -10 9 -10 9 0 16 5 16 10 0 6 -4 10 -9 10 -6 0
-13 -4 -16 -10z"/>
<path d="M1601 890 c-1 -14 -3 -43 -6 -65 -3 -22 -2 -33 1 -25 4 8 11 18 16
21 6 4 6 23 0 50 -7 29 -10 36 -11 19z"/>
<path d="M1975 890 c-3 -5 -1 -10 4 -10 6 0 11 5 11 10 0 6 -2 10 -4 10 -3 0
-8 -4 -11 -10z"/>
<path d="M1110 871 c0 -6 9 -16 20 -24 13 -9 18 -20 14 -31 -3 -9 -1 -16 6
-16 6 0 8 5 5 10 -3 6 1 10 10 10 10 0 13 -5 9 -12 -5 -7 -3 -8 5 -3 10 5 7
13 -10 30 -13 12 -28 20 -33 17 -5 -3 -7 2 -3 11 4 11 1 17 -8 17 -8 0 -15 -4
-15 -9z"/>
<path d="M2371 864 c0 -11 3 -14 6 -6 3 7 2 16 -1 19 -3 4 -6 -2 -5 -13z"/>
<path d="M1726 854 c-11 -28 -6 -52 10 -58 24 -9 28 -7 14 9 -7 8 -10 26 -8
40 6 28 -6 34 -16 9z"/>
<path d="M1381 844 c0 -11 3 -14 6 -6 3 7 2 16 -1 19 -3 4 -6 -2 -5 -13z"/>
<path d="M1196 801 c-4 -6 -2 -11 3 -11 6 0 11 -8 12 -17 0 -10 3 -13 5 -6 8
18 -11 49 -20 34z"/>
<path d="M1432 790 c0 -14 2 -19 5 -12 2 6 2 18 0 25 -3 6 -5 1 -5 -13z"/>
<path d="M211 778 c0 -13 4 -32 9 -43 7 -15 9 -10 9 23 1 23 -3 42 -9 42 -5 0
-10 -10 -9 -22z"/>
<path d="M1120 779 c0 -15 -5 -19 -15 -15 -8 3 -15 1 -15 -4 0 -20 18 -18 38
5 16 19 18 24 6 29 -9 4 -14 -2 -14 -15z"/>
<path d="M157 783 c-3 -5 1 -14 9 -21 12 -11 14 -9 14 8 0 20 -14 27 -23 13z"/>
<path d="M1612 760 c0 -19 2 -27 5 -17 2 9 2 25 0 35 -3 9 -5 1 -5 -18z"/>
<path d="M104 743 c4 -21 9 -175 12 -343 3 -168 7 -310 9 -316 2 -6 18 -22 36
-34 l32 -23 -7 254 c-4 140 -9 291 -12 336 -6 75 -8 82 -30 87 -13 4 -24 11
-24 16 0 13 13 13 27 -1 6 -6 19 -9 29 -7 14 2 10 8 -18 21 -21 10 -38 24 -38
32 0 8 -5 15 -11 15 -7 0 -9 -13 -5 -37z"/>
<path d="M812 740 c0 -14 2 -19 5 -12 2 6 2 18 0 25 -3 6 -5 1 -5 -13z"/>
<path d="M478 726 c-16 -12 -28 -26 -28 -30 0 -5 9 -1 20 9 20 18 20 17 21
-66 3 -231 9 -348 22 -389 13 -41 14 -27 13 182 0 126 -4 228 -8 228 -4 0 -8
20 -10 44 l-3 44 -27 -22z"/>
<path d="M1433 685 c0 -33 2 -45 4 -27 2 18 2 45 0 60 -2 15 -4 0 -4 -33z"/>
<path d="M1212 710 c0 -14 2 -19 5 -12 2 6 2 18 0 25 -3 6 -5 1 -5 -13z"/>
<path d="M1381 714 c0 -11 3 -14 6 -6 3 7 2 16 -1 19 -3 4 -6 -2 -5 -13z"/>
<path d="M805 701 c-10 -17 0 -101 12 -101 6 0 15 5 18 10 3 6 2 10 -2 10 -8
0 -12 19 -14 68 -1 24 -5 27 -14 13z"/>
<path d="M390 690 l-25 -8 27 -1 c15 -1 30 4 33 9 7 11 0 11 -35 0z"/>
<path d="M1635 684 c-11 -8 -28 -13 -38 -10 -13 3 -17 0 -13 -11 3 -8 6 -17 6
-20 0 -3 7 0 15 7 13 11 15 5 15 -44 0 -35 -4 -56 -11 -56 -7 0 -9 10 -7 25 3
14 1 28 -3 31 -11 7 -11 -47 -1 -64 5 -7 16 -10 25 -6 18 7 21 -5 11 -42 -7
-27 -59 -43 -142 -42 -78 0 -102 -16 -29 -19 59 -2 156 14 175 30 7 5 14 8 15
6 1 -2 0 -51 -3 -109 -3 -58 -2 -110 2 -116 5 -6 3 -46 -4 -87 -11 -73 -13
-77 -43 -87 -17 -6 -71 -8 -121 -5 -72 4 -85 2 -69 -7 26 -16 178 -16 230 0
l40 11 2 222 c2 132 -1 227 -7 234 -5 7 -13 48 -17 93 -8 78 -9 80 -28 66z"/>
<path d="M457 665 c5 -11 8 -41 8 -67 -1 -27 3 -48 7 -48 12 0 1 111 -13 124
-9 8 -9 6 -2 -9z"/>
<path d="M1210 645 c-2 -11 -2 -32 -1 -46 2 -23 -3 -27 -36 -33 -21 -3 -65 -6
-98 -6 -42 0 -56 -3 -45 -10 24 -16 128 -11 181 7 53 19 82 54 61 75 -9 9 -12
8 -12 -6 0 -16 -22 -46 -34 -46 -3 0 -7 19 -9 43 -2 23 -5 33 -7 22z"/>
<path d="M1095 640 c-3 -5 1 -10 10 -10 9 0 13 5 10 10 -3 6 -8 10 -10 10 -2
0 -7 -4 -10 -10z"/>
<path d="M1805 620 c55 -4 132 -8 170 -8 66 0 67 1 25 9 -25 4 -101 7 -170 7
l-125 -1 100 -7z"/>
<path d="M1432 590 c0 -19 2 -27 5 -17 2 9 2 25 0 35 -3 9 -5 1 -5 -18z"/>
<path d="M819 568 c-5 -68 -3 -108 3 -108 4 0 8 27 8 60 0 33 -2 60 -5 60 -3
0 -5 -6 -6 -12z"/>
<path d="M1436 518 c7 -10 113 -9 139 2 12 5 -11 7 -62 7 -45 -1 -79 -5 -77
-9z"/>
<path d="M1600 510 c0 -5 5 -10 11 -10 5 0 7 5 4 10 -3 6 -8 10 -11 10 -2 0
-4 -4 -4 -10z"/>
<path d="M1480 480 c0 -5 7 -10 16 -10 8 0 12 5 9 10 -3 6 -10 10 -16 10 -5 0
-9 -4 -9 -10z"/>
<path d="M1711 354 c1 -59 4 -89 8 -74 7 24 3 161 -5 169 -2 2 -4 -40 -3 -95z"/>
<path d="M810 429 c0 -5 5 -7 10 -4 6 3 10 8 10 11 0 2 -4 4 -10 4 -5 0 -10
-5 -10 -11z"/>
<path d="M2220 426 c12 -12 140 -10 152 2 7 7 -19 10 -75 9 -53 -1 -82 -6 -77
-11z"/>
<path d="M471 414 c0 -11 3 -14 6 -6 3 7 2 16 -1 19 -3 4 -6 -2 -5 -13z"/>
<path d="M1431 314 c0 -11 3 -14 6 -6 3 7 2 16 -1 19 -3 4 -6 -2 -5 -13z"/>
<path d="M471 285 c1 -22 5 -53 9 -70 6 -25 8 -21 9 25 0 30 -4 62 -9 70 -7
11 -9 4 -9 -25z"/>
<path d="M2213 250 c0 -30 2 -43 4 -27 2 15 2 39 0 55 -2 15 -4 2 -4 -28z"/>
<path d="M1617 244 c-4 -4 -7 -17 -7 -28 1 -19 1 -20 11 -3 11 19 8 43 -4 31z"/>
<path d="M1713 170 c0 -47 2 -66 4 -42 2 23 2 61 0 85 -2 23 -4 4 -4 -43z"/>
<path d="M482 160 c0 -14 2 -19 5 -12 2 6 2 18 0 25 -3 6 -5 1 -5 -13z"/>
<path d="M2978 23 c7 -3 16 -2 19 1 4 3 -2 6 -13 5 -11 0 -14 -3 -6 -6z"/>
</g>
</svg>
