<?xml version="1.0" standalone="no"?>
<!DOCTYPE svg PUBLIC "-//W3C//DTD SVG 20010904//EN"
 "http://www.w3.org/TR/2001/REC-SVG-20010904/DTD/svg10.dtd">
<svg version="1.0" xmlns="http://www.w3.org/2000/svg"
 width="300.000000pt" height="199.000000pt" viewBox="0 0 300.000000 199.000000"
 preserveAspectRatio="xMidYMid meet">
<metadata>
Created by potrace 1.10, written by Peter Selinger 2001-2011
</metadata>
<g transform="translate(0.000000,199.000000) scale(0.100000,-0.100000)"
fill="#000000" stroke="none">
<path d="M968 1840 c-21 -21 -38 -47 -37 -57 0 -10 3 -13 6 -5 2 6 10 9 15 6
7 -4 8 -2 4 5 -9 13 18 43 29 33 5 -4 5 -2 1 5 -4 7 4 19 18 28 21 14 31 15
61 5 20 -7 45 -10 56 -7 10 3 16 1 13 -4 -8 -14 15 -39 38 -39 16 0 17 -3 8
-21 -10 -18 -13 -19 -23 -6 -7 8 -25 17 -42 21 -26 5 -28 4 -11 -7 55 -36 57
-40 45 -74 -6 -18 -15 -30 -20 -27 -14 8 -39 -15 -39 -35 0 -13 2 -13 9 -2 5
7 14 10 20 7 6 -4 11 -2 11 3 0 6 6 11 13 11 18 0 9 -75 -11 -93 -10 -9 -43
-24 -74 -35 -53 -19 -58 -19 -58 -3 0 9 7 26 15 39 14 20 14 21 0 16 -10 -4
-15 0 -15 10 0 12 6 15 25 10 15 -4 25 -2 25 5 0 6 -13 11 -29 11 -26 0 -29
-3 -35 -46 -7 -57 5 -76 43 -68 14 4 31 7 36 8 6 0 13 5 17 11 4 5 9 7 12 4 3
-3 -2 -15 -10 -28 -13 -17 -22 -21 -42 -16 -22 5 -24 4 -13 -9 8 -9 19 -16 26
-16 18 0 105 103 105 124 0 32 17 15 22 -21 7 -48 39 -122 45 -105 3 7 -1 19
-7 28 -7 8 -10 18 -6 21 4 4 11 1 16 -6 6 -10 8 -7 8 10 -1 13 2 67 5 119 4
62 3 90 -3 80 -8 -12 -10 -11 -10 6 0 24 -23 48 -35 36 -4 -4 -4 3 -1 15 4 12
2 24 -4 28 -12 8 -13 25 -1 25 5 0 15 -15 21 -34 6 -19 18 -40 27 -48 15 -12
15 -11 5 10 -28 53 -32 62 -32 74 0 20 26 -23 40 -67 8 -22 13 -74 13 -115 l0
-75 7 60 c8 68 9 68 16 5 7 -72 14 -109 22 -114 13 -8 -5 127 -24 191 -32 104
-84 162 -123 138 -6 -3 -11 -2 -11 3 0 5 -33 10 -72 10 -72 1 -73 1 -110 -38z
m222 16 c0 -2 -7 -9 -15 -16 -12 -10 -15 -10 -15 4 0 9 7 16 15 16 8 0 15 -2
15 -4z m15 -130 c13 -14 25 -23 28 -20 2 3 -5 -15 -17 -39 -11 -24 -22 -40
-24 -35 -2 4 -10 8 -18 8 -21 0 -17 12 14 38 21 18 22 21 5 13 -30 -15 -33
-14 -33 8 0 22 10 51 17 51 3 0 16 -11 28 -24z m18 -141 c-3 -8 -9 -15 -14
-15 -10 0 -12 24 -3 33 11 11 24 -3 17 -18z"/>
<path d="M1170 1716 c0 -9 5 -16 10 -16 6 0 10 4 10 9 0 6 -4 13 -10 16 -5 3
-10 -1 -10 -9z"/>
<path d="M1504 1860 c-12 -4 -24 -15 -27 -24 -4 -9 -13 -16 -20 -16 -13 0 -39
-42 -51 -82 -3 -11 -20 -19 -50 -23 -42 -7 -45 -9 -40 -32 4 -13 10 -59 14
-101 l8 -77 -1 75 c-1 41 3 81 7 89 7 10 5 12 -5 6 -11 -6 -12 -5 -2 5 7 8 18
15 25 16 49 8 72 26 74 61 0 13 5 27 9 31 5 4 5 -1 2 -10 -4 -10 -2 -18 4 -18
6 0 8 -4 5 -8 -3 -5 -10 -47 -16 -95 -6 -48 -13 -94 -16 -102 -5 -11 -2 -13
11 -8 15 5 17 2 12 -16 -3 -12 -1 -37 4 -57 9 -29 14 -34 31 -28 17 5 19 3 13
-16 -5 -17 -3 -21 12 -20 31 4 43 0 43 -11 0 -5 -6 -7 -12 -3 -9 5 -9 2 1 -9
11 -14 11 -17 0 -17 -21 0 -99 77 -99 97 0 14 -2 15 -9 4 -14 -21 -24 4 -36
89 l-11 75 -17 -74 c-21 -92 -22 -88 8 -95 13 -3 37 -23 52 -44 15 -20 31 -38
35 -40 4 -2 4 -10 1 -18 -3 -8 1 -14 11 -14 10 0 13 6 10 15 -4 8 -1 15 5 15
6 0 10 -3 10 -7 -3 -19 3 -21 30 -13 21 6 31 5 35 -3 3 -8 9 -6 16 5 11 17 40
14 40 -4 0 -5 -4 -6 -10 -3 -17 10 -11 -7 8 -22 18 -15 16 -15 -50 0 -7 2 -3
-1 10 -7 12 -5 22 -14 22 -18 0 -5 11 -6 25 -2 27 7 33 -7 11 -25 -11 -9 -15
-9 -19 1 -2 7 -7 10 -11 6 -4 -3 -2 -17 4 -30 10 -19 10 -21 -1 -11 -9 9 -16
9 -25 2 -9 -8 -17 -4 -29 15 -10 14 -21 26 -26 26 -11 0 0 -30 19 -52 14 -16
10 -22 -11 -19 -4 1 -28 -4 -54 -9 -32 -8 -49 -8 -57 0 -7 7 -3 10 13 10 54 0
68 26 45 84 -6 16 -4 17 17 11 13 -4 39 -15 57 -26 31 -18 32 -18 32 1 0 13
-7 20 -20 20 -11 0 -23 7 -26 15 -4 8 -10 15 -16 15 -5 0 -6 -4 -3 -10 3 -5 1
-10 -4 -10 -6 0 -11 4 -11 8 0 4 -11 9 -23 10 -20 1 -26 -5 -36 -38 -6 -22
-20 -44 -30 -49 -13 -8 -17 -18 -13 -37 3 -17 1 -25 -5 -21 -6 4 -9 31 -7 63
3 54 -13 123 -23 96 -3 -7 0 -18 5 -25 10 -11 7 -32 -13 -124 l-7 -32 43 5
c23 3 46 7 50 10 4 2 10 0 13 -5 4 -5 19 -3 36 6 17 8 37 12 45 9 19 -7 95 24
97 41 0 7 1 19 2 26 1 6 9 15 19 19 9 4 18 17 18 28 2 29 3 33 13 48 7 11 4
11 -12 1 -11 -7 -18 -19 -14 -27 3 -10 0 -13 -9 -10 -8 3 -13 13 -11 23 5 24
-24 52 -67 66 -39 12 -63 29 -43 29 7 0 12 5 12 11 0 5 -5 7 -10 4 -20 -13
-48 6 -52 35 l-4 28 40 -34 c23 -20 54 -38 69 -41 15 -3 34 -14 41 -25 14 -19
14 -19 42 4 15 13 34 31 43 40 9 11 23 15 37 12 12 -3 25 -1 28 4 10 17 -48
22 -61 6 -7 -10 -13 -12 -18 -5 -3 6 -3 11 2 11 4 0 2 4 -6 9 -12 8 -12 15 1
47 9 21 21 40 28 42 9 3 11 -1 7 -13 -23 -59 -23 -59 60 -77 43 -10 99 -19
124 -21 26 -2 58 -11 72 -20 38 -25 49 -24 53 3 4 23 4 23 -9 6 -13 -18 -14
-18 -29 2 -8 12 -17 20 -20 17 -2 -3 -24 5 -49 17 -24 12 -61 22 -82 23 -20 0
-46 8 -56 17 -17 14 -19 14 -32 -3 -22 -31 -40 -24 -24 9 13 24 12 36 -6 97
-12 39 -26 73 -32 76 -5 4 -7 15 -3 24 3 9 1 26 -5 37 -6 11 -8 22 -5 25 3 3
8 -3 12 -13 4 -10 15 -37 25 -60 18 -37 23 -41 60 -42 53 -2 114 -19 131 -36
7 -7 19 -11 26 -8 7 2 18 -1 25 -6 7 -5 28 -13 47 -16 33 -7 34 -6 15 9 -24
19 -182 71 -246 80 -43 6 -47 10 -59 45 -11 35 -70 106 -70 86 0 -5 -11 -1
-25 8 -26 17 -96 20 -131 6z m93 -53 c32 -14 68 -82 50 -94 -19 -12 -47 -14
-47 -3 0 10 14 14 39 11 7 -2 10 2 6 8 -9 16 -29 13 -53 -8 -26 -22 -32 -52
-7 -31 9 8 15 8 15 2 0 -6 14 -13 30 -17 31 -7 34 -15 21 -50 -5 -11 -4 -28 1
-39 7 -13 7 -16 -1 -12 -6 4 -11 0 -11 -8 0 -9 -5 -16 -11 -16 -5 0 -7 -4 -4
-10 3 -5 17 -10 31 -10 17 0 24 -6 24 -19 0 -31 -11 -51 -28 -51 -13 0 -13 2
1 18 23 26 22 29 -18 36 -30 6 -35 11 -35 34 0 16 5 33 12 40 9 9 9 12 0 12
-7 0 -15 -13 -18 -29 -6 -26 -10 -29 -40 -26 -19 2 -31 -1 -28 -6 3 -5 19 -9
35 -9 24 0 30 -4 27 -17 -5 -30 -43 -27 -81 7 -24 21 -37 27 -40 18 -3 -7 -4
37 -3 98 2 126 16 160 66 171 24 4 30 11 31 32 2 24 2 24 6 3 3 -13 16 -28 30
-35z m49 15 c-3 -5 0 -14 6 -22 8 -12 9 -11 4 5 -5 17 -3 17 14 -4 14 -16 19
-33 16 -53 -2 -15 -1 -28 3 -28 4 0 8 -6 9 -12 0 -7 5 -29 10 -48 5 -20 8 -43
6 -51 -2 -15 -33 -69 -39 -69 -2 0 -2 27 -1 61 1 39 -3 64 -11 71 -15 12 -17
28 -3 28 6 0 10 -7 10 -15 0 -8 5 -15 10 -15 14 0 12 16 -4 29 -8 7 -12 21 -9
32 4 13 -6 34 -27 62 -19 23 -38 48 -44 56 -8 10 -2 10 22 -3 18 -9 31 -20 28
-24z m35 1 c13 -16 12 -17 -3 -4 -10 7 -18 15 -18 17 0 8 8 3 21 -13z m124
-305 c6 -4 0 -8 -12 -8 -16 0 -21 4 -16 15 3 9 8 12 12 8 3 -4 11 -11 16 -15z
m48 -15 c-7 -2 -19 -2 -25 0 -7 3 -2 5 12 5 14 0 19 -2 13 -5z m57 -9 c0 -2
-7 -4 -15 -4 -8 0 -15 4 -15 10 0 5 7 7 15 4 8 -4 15 -8 15 -10z m-276 -15
c-3 -5 -17 -9 -32 -9 -24 0 -25 1 -7 14 20 14 49 11 39 -5z m26 -39 c0 -5 -2
-10 -4 -10 -3 0 -8 5 -11 10 -3 6 -1 10 4 10 6 0 11 -4 11 -10z m-76 -55 c-7
-17 -20 -20 -28 -6 -7 10 3 21 20 21 8 0 11 -6 8 -15z m-107 -117 c-22 -14
-28 -8 -16 13 9 17 13 19 20 8 5 -8 3 -16 -4 -21z m13 -17 c0 -10 -24 -21 -43
-21 -7 0 -3 7 7 15 22 17 36 19 36 6z"/>
<path d="M1510 1729 c13 -6 28 -15 32 -22 6 -9 8 -9 8 0 0 14 -32 33 -52 32
-7 0 -2 -5 12 -10z"/>
<path d="M1480 1695 c0 -11 7 -15 23 -13 12 2 22 8 22 13 0 6 -10 11 -22 13
-16 2 -23 -2 -23 -13z"/>
<path d="M1570 1661 c0 -6 4 -13 10 -16 6 -3 7 1 4 9 -7 18 -14 21 -14 7z"/>
<path d="M1541 1619 c18 -11 59 -12 59 0 0 5 -16 9 -36 9 -25 0 -33 -3 -23 -9z"/>
<path d="M1510 1580 c0 -12 45 -24 59 -15 16 9 13 25 -5 25 -8 0 -12 -4 -9
-10 3 -5 2 -10 -4 -10 -5 0 -13 5 -16 10 -8 13 -25 13 -25 0z"/>
<path d="M1692 1650 c0 -14 2 -19 5 -12 2 6 2 18 0 25 -3 6 -5 1 -5 -13z"/>
<path d="M1685 1609 c-9 -14 -2 -20 14 -10 8 6 9 11 3 15 -6 3 -14 1 -17 -5z"/>
<path d="M1105 1830 c3 -5 11 -10 16 -10 6 0 7 5 4 10 -3 6 -11 10 -16 10 -6
0 -7 -4 -4 -10z"/>
<path d="M1023 1790 c-34 -14 -28 -19 18 -17 26 1 44 -3 46 -10 3 -9 -5 -13
-24 -13 -16 0 -35 -6 -42 -12 -11 -11 -13 -10 -8 5 4 9 2 17 -3 17 -14 0 -12
-27 2 -36 6 -4 13 -3 15 3 2 5 14 8 26 6 14 -3 29 2 37 12 13 15 12 20 -9 36
-26 21 -27 21 -58 9z"/>
<path d="M1965 1760 c-3 -5 -2 -10 4 -10 5 0 13 5 16 10 3 6 2 10 -4 10 -5 0
-13 -4 -16 -10z"/>
<path d="M920 1751 c0 -5 12 -12 27 -16 l27 -6 -24 -12 c-12 -7 -22 -15 -21
-19 0 -5 1 -18 2 -30 0 -22 1 -22 8 -3 5 11 7 23 4 28 -2 4 2 7 10 7 20 0 30
29 16 46 -13 16 -49 19 -49 5z"/>
<path d="M2219 1736 c-2 -2 -21 -7 -42 -10 -53 -8 -85 -34 -99 -81 -6 -22 -15
-45 -20 -51 -5 -7 -3 -14 7 -18 8 -3 15 -1 15 5 0 5 11 2 25 -7 14 -9 25 -12
25 -6 0 6 -10 17 -22 23 -13 6 -24 13 -26 14 -1 1 5 19 13 39 17 40 54 61 89
49 11 -4 25 -7 30 -8 14 0 19 -25 5 -25 -12 0 -3 -15 9 -15 4 0 12 -4 18 -8 7
-4 11 0 10 9 -1 21 49 28 65 8 6 -8 18 -14 25 -14 7 0 20 -13 29 -30 23 -44
18 -48 -14 -12 -33 35 -55 41 -65 16 -9 -22 -9 -22 25 -20 18 0 34 -5 36 -11
3 -8 -3 -13 -14 -13 -30 0 -72 -23 -77 -42 -2 -10 0 -18 5 -18 5 0 9 7 9 16 0
12 6 15 22 11 14 -4 26 0 34 11 11 14 14 14 14 2 1 -10 4 -8 10 5 7 19 8 19
18 -6 6 -15 17 -29 26 -32 10 -4 13 -1 9 9 -3 7 -9 14 -13 14 -5 0 -6 9 -3 19
6 23 -27 95 -59 132 -25 30 -68 47 -68 29 0 -7 -6 -5 -16 4 -15 16 -27 20 -35
12z m30 -38 c12 -31 4 -36 -19 -11 -10 12 -16 24 -13 27 12 12 24 6 32 -16z
m101 -43 c0 -4 -12 3 -27 15 -16 13 -29 17 -31 11 -4 -13 -22 -4 -22 10 0 6 4
8 9 4 5 -3 13 0 17 6 4 7 15 2 30 -15 13 -14 24 -28 24 -31z"/>
<path d="M1868 1723 c6 -2 18 -2 25 0 6 3 1 5 -13 5 -14 0 -19 -2 -12 -5z"/>
<path d="M2025 1690 c-3 -5 -1 -10 4 -10 6 0 11 5 11 10 0 6 -2 10 -4 10 -3 0
-8 -4 -11 -10z"/>
<path d="M1400 1660 c0 -16 2 -30 4 -30 2 0 6 14 8 30 3 17 1 30 -4 30 -4 0
-8 -13 -8 -30z"/>
<path d="M960 1668 c0 -10 19 -9 45 2 16 7 14 9 -12 7 -18 -1 -33 -5 -33 -9z"/>
<path d="M2290 1650 c0 -5 5 -10 11 -10 5 0 7 5 4 10 -3 6 -8 10 -11 10 -2 0
-4 -4 -4 -10z"/>
<path d="M806 1634 c-9 -24 -8 -26 17 -18 12 3 19 4 16 0 -11 -11 -70 -26 -64
-15 4 5 -1 9 -9 9 -10 0 -13 -6 -9 -16 5 -14 1 -15 -26 -9 -29 6 -32 5 -29
-12 2 -13 14 -19 45 -21 36 -3 43 -7 54 -35 6 -18 11 -39 10 -48 -1 -13 7 -17
40 -17 62 -1 120 -12 114 -22 -3 -5 9 -17 27 -26 48 -25 78 -61 78 -94 0 -16
5 -32 11 -36 8 -4 10 6 7 34 -4 29 -17 54 -49 91 -40 46 -48 51 -99 57 -30 4
-70 8 -88 8 -22 1 -31 5 -27 14 3 8 5 20 5 28 0 9 4 13 10 9 5 -3 6 -13 3 -22
-4 -11 -3 -14 5 -9 7 4 12 16 12 26 0 10 5 22 10 25 6 3 10 19 10 34 0 38 8
43 31 20 10 -10 29 -19 42 -19 12 0 18 4 12 8 -5 4 -10 13 -11 20 -1 6 -2 16
-2 21 -1 5 -27 7 -57 6 -37 -2 -60 1 -69 11 -12 11 -15 11 -20 -2z m51 -46
c-3 -8 -6 -5 -6 6 -1 11 2 17 5 13 3 -3 4 -12 1 -19z m-27 -18 c0 -5 -15 -10
-32 -9 -31 1 -32 1 -8 9 35 11 40 11 40 0z m25 -20 c-10 -11 -22 -20 -27 -20
-5 0 -4 9 2 20 6 11 18 20 27 20 14 0 14 -2 -2 -20z"/>
<path d="M1770 1630 c0 -5 5 -10 11 -10 5 0 7 5 4 10 -3 6 -8 10 -11 10 -2 0
-4 -4 -4 -10z"/>
<path d="M2154 1615 c-23 -17 -14 -19 19 -4 18 8 30 8 48 -2 22 -11 23 -11 10
4 -17 21 -51 22 -77 2z"/>
<path d="M2246 1595 c-3 -8 -1 -15 4 -15 6 0 10 7 10 15 0 8 -2 15 -4 15 -2 0
-6 -7 -10 -15z"/>
<path d="M2165 1590 c-12 -20 10 -33 34 -21 12 7 21 16 21 21 0 14 -17 12 -23
-2 -4 -10 -8 -10 -15 1 -7 10 -11 10 -17 1z"/>
<path d="M2270 1570 c0 -5 7 -7 15 -4 8 4 15 8 15 10 0 2 -7 4 -15 4 -8 0 -15
-4 -15 -10z"/>
<path d="M1249 1533 c-1 -24 -2 -49 -3 -55 -1 -7 -9 -19 -18 -26 -23 -17 -32
-66 -16 -91 7 -12 17 -21 22 -21 5 0 1 9 -8 19 -15 17 -16 25 -6 55 15 46 34
36 26 -13 -5 -31 -4 -34 7 -16 6 11 27 35 45 53 37 39 37 38 18 45 -11 4 -13
1 -10 -11 5 -14 4 -15 -5 -2 -5 8 -8 25 -5 37 3 12 1 30 -5 40 -8 14 -10 8
-11 -33 0 -34 -5 -56 -16 -65 -16 -13 -15 -3 2 62 2 9 0 27 -5 40 -9 21 -10
19 -12 -18z m51 -77 c0 -3 -4 -8 -10 -11 -5 -3 -10 -1 -10 4 0 6 5 11 10 11 6
0 10 -2 10 -4z"/>
<path d="M897 1553 c-10 -18 -18 -67 -10 -58 16 18 33 65 23 65 -5 0 -11 -3
-13 -7z"/>
<path d="M2056 1552 c6 -4 13 -35 16 -68 3 -53 2 -61 -11 -57 -9 3 1 -11 22
-31 37 -36 57 -39 57 -10 0 13 -18 19 -49 14 -13 -1 -13 1 -2 14 16 19 42 21
60 4 11 -11 13 -10 8 5 -4 11 -3 16 3 12 19 -12 10 -43 -21 -69 -18 -16 -25
-26 -16 -26 8 0 17 7 21 15 3 8 12 15 21 15 14 0 14 -3 -1 -26 -9 -14 -23 -23
-30 -20 -20 7 -22 -13 -21 -214 0 -102 2 -147 4 -100 2 47 8 89 14 95 7 7 8 4
3 -8 -5 -13 -2 -16 9 -11 10 3 21 29 28 62 7 32 21 68 31 81 18 24 25 67 9 57
-5 -3 -8 16 -8 43 2 43 6 52 30 66 26 16 37 45 17 45 -5 0 -10 -4 -10 -8 0 -5
-10 -13 -22 -19 -19 -8 -25 -6 -33 11 -8 15 -19 20 -39 18 -20 -2 -27 1 -23
10 2 7 18 12 35 12 18 -1 33 4 36 12 9 24 -65 10 -79 -15 l-11 -22 -12 26
c-17 37 -15 62 5 69 15 6 15 8 3 16 -8 6 -24 10 -35 10 -12 0 -16 -3 -9 -8z
m94 -285 c0 -10 5 -15 10 -12 6 3 10 17 10 31 0 13 5 24 10 24 19 0 10 -31
-20 -75 -16 -24 -30 -56 -30 -71 0 -15 -3 -25 -6 -22 -3 4 -2 43 2 88 4 51 10
77 15 68 5 -7 9 -21 9 -31z"/>
<path d="M2232 1535 c-9 -20 -9 -25 2 -25 13 0 26 20 26 41 0 18 -17 8 -28
-16z"/>
<path d="M928 1519 l-33 -34 59 -6 c32 -4 62 -13 67 -20 4 -7 11 -10 15 -6 14
13 -13 28 -62 35 l-49 7 23 23 c13 13 21 26 18 29 -3 3 -20 -10 -38 -28z"/>
<path d="M1820 1540 c0 -5 5 -10 11 -10 5 0 7 5 4 10 -3 6 -8 10 -11 10 -2 0
-4 -4 -4 -10z"/>
<path d="M2040 1531 c0 -5 5 -13 10 -16 6 -3 10 -2 10 4 0 5 -4 13 -10 16 -5
3 -10 2 -10 -4z"/>
<path d="M2137 1526 c-15 -7 -25 -15 -21 -18 8 -8 54 12 54 24 0 4 -1 8 -2 7
-2 0 -15 -6 -31 -13z"/>
<path d="M761 1498 c-1 -42 3 -45 25 -23 14 13 14 15 0 15 -8 0 -17 10 -19 23
-3 13 -5 8 -6 -15z"/>
<path d="M2180 1526 c0 -2 8 -10 18 -17 15 -13 16 -12 3 4 -13 16 -21 21 -21
13z"/>
<path d="M2320 1512 c-59 -19 -64 -23 -50 -33 13 -7 13 -10 1 -18 -9 -6 -10
-10 -2 -12 7 -3 13 -21 14 -41 1 -20 5 -34 9 -32 3 2 9 -4 12 -13 3 -10 3 0 0
22 -12 86 -12 92 -1 92 7 0 20 4 30 8 18 7 21 -2 11 -29 -3 -9 -15 -16 -27
-16 -18 0 -17 -3 9 -25 16 -14 24 -25 17 -25 -6 0 -9 -8 -7 -17 3 -10 -2 -27
-10 -38 -9 -12 -15 -15 -16 -7 0 7 -4 10 -10 7 -5 -3 -10 -1 -10 6 0 7 -3 9
-7 5 -4 -4 3 -16 17 -28 14 -11 20 -17 13 -14 -6 4 -14 2 -17 -3 -4 -5 2 -8
11 -7 10 2 21 -4 26 -13 4 -9 5 -5 2 12 -4 22 1 33 26 56 24 23 29 34 24 51
-6 20 -5 21 8 9 8 -8 12 -20 10 -26 -3 -8 4 -13 18 -14 13 0 18 -3 12 -6 -18
-7 -16 -23 2 -23 8 0 12 -6 9 -14 -5 -14 41 -36 74 -36 23 0 1 19 -28 25 -12
2 -25 7 -29 11 -3 4 2 4 12 1 23 -9 22 5 -3 21 -11 7 -20 22 -20 33 0 15 -5
19 -16 15 -8 -3 -13 -2 -9 3 3 5 2 17 -1 26 -5 13 -8 14 -15 3 -7 -10 -9 -10
-9 2 0 8 -8 24 -17 35 -12 16 -14 16 -10 3 3 -10 2 -20 -3 -23 -5 -3 -7 -12
-3 -20 3 -8 0 -15 -6 -15 -14 0 -13 16 4 65 8 22 15 41 15 41 0 4 -47 0 -60
-4z m57 -138 c-9 -9 -28 6 -21 18 4 6 10 6 17 -1 6 -6 8 -13 4 -17z"/>
<path d="M2385 1490 c-3 -5 5 -16 17 -24 27 -19 39 -20 32 -3 -7 18 -42 38
-49 27z"/>
<path d="M1775 1427 c-16 -18 -40 -48 -53 -67 l-24 -35 34 33 c19 17 40 32 47
32 7 0 11 6 8 13 -2 6 2 20 11 30 8 9 13 19 11 22 -3 2 -18 -10 -34 -28z"/>
<path d="M1820 1449 c0 -5 5 -7 10 -4 6 3 10 8 10 11 0 2 -4 4 -10 4 -5 0 -10
-5 -10 -11z"/>
<path d="M1960 1451 c0 -6 16 -18 35 -27 20 -9 42 -26 50 -38 15 -20 21 -11 7
10 -11 18 -92 65 -92 55z"/>
<path d="M1076 1434 c-5 -14 -4 -15 9 -4 17 14 19 20 6 20 -5 0 -12 -7 -15
-16z"/>
<path d="M755 1431 c-62 -15 -115 -53 -115 -82 0 -9 19 -32 43 -51 23 -18 47
-39 53 -47 8 -10 13 -11 18 -3 4 6 14 8 23 5 11 -4 14 -3 9 6 -4 6 -2 18 4 26
16 19 31 19 24 0 -4 -8 -11 -12 -18 -8 -6 4 -5 -1 3 -10 7 -9 23 -17 34 -17
20 0 20 1 2 13 -22 17 -12 37 18 36 20 -1 20 -2 -3 -8 -14 -4 -20 -10 -14 -13
16 -10 54 3 54 18 0 20 13 17 28 -6 7 -11 20 -20 30 -20 14 0 15 2 2 10 -8 5
-15 15 -15 22 0 9 -15 13 -42 13 -22 0 -39 3 -36 8 2 4 0 7 -5 7 -6 0 -13 -8
-17 -17 -6 -17 -7 -17 -21 1 -13 19 -14 19 -14 1 0 -10 -3 -15 -7 -12 -3 4
-16 -7 -28 -23 -18 -25 -24 -28 -29 -15 -10 27 -7 38 9 31 8 -3 14 -1 12 3 -1
5 12 21 28 35 24 21 40 26 83 26 54 0 63 8 36 34 -8 9 -11 16 -6 16 17 0 43
-38 47 -66 2 -16 10 -42 19 -58 11 -22 12 -34 4 -43 -5 -7 -14 -11 -18 -8 -5
3 -6 -5 -3 -16 4 -14 0 -26 -11 -35 -14 -10 -15 -17 -7 -32 6 -11 7 -22 4 -26
-4 -4 3 -9 15 -13 19 -5 20 -8 10 -21 -11 -13 -10 -14 9 -4 33 18 43 15 43
-13 0 -24 -3 -27 -32 -29 -7 -1 -18 -7 -24 -15 -7 -10 -17 -12 -30 -6 -10 4
-22 8 -26 7 -4 -1 -5 5 -2 13 7 17 20 19 29 5 7 -12 25 -13 25 -2 0 4 -11 12
-25 19 -14 6 -25 7 -25 3 0 -5 -13 -5 -29 0 -33 9 -41 5 -41 -21 0 -11 10 -21
25 -25 14 -3 23 -10 20 -14 -7 -11 5 -40 16 -40 5 0 9 6 9 14 0 7 12 16 28 19
52 10 60 13 76 26 9 7 16 21 16 30 0 13 2 14 9 2 5 -8 8 -19 6 -25 -12 -40
-15 -67 -6 -62 5 3 11 1 13 -5 2 -6 3 13 3 43 0 61 -17 98 -46 98 -16 0 -19 6
-17 34 1 19 -4 41 -11 49 -10 13 -10 20 1 39 7 13 13 32 14 43 2 54 5 65 15
65 8 0 9 -11 5 -31 -5 -26 -3 -29 7 -20 10 8 14 7 14 -4 0 -8 -6 -15 -13 -15
-8 0 -11 -6 -8 -15 4 -8 12 -15 20 -15 19 0 18 -7 -6 -40 -20 -28 -20 -29 -2
-27 11 0 19 8 18 17 -1 9 6 14 17 12 24 -4 43 46 24 62 -8 6 -24 27 -36 48
-18 30 -62 74 -118 119 -14 10 -123 11 -168 0z m113 -30 c12 -11 22 -21 22
-23 0 -1 -16 -3 -35 -4 -23 0 -48 -11 -75 -33 -22 -17 -40 -28 -40 -23 0 16
41 62 55 62 7 0 18 7 25 15 12 14 9 15 -21 10 -37 -7 -79 -47 -79 -77 0 -10
-3 -18 -6 -18 -13 0 -44 22 -44 31 0 6 6 7 13 3 8 -5 8 -2 -2 9 -12 15 -9 21
12 18 4 0 7 3 7 9 0 5 7 7 15 3 10 -3 15 -1 13 7 -7 31 106 39 140 11z m103
-94 c-8 -8 -11 -4 -11 14 0 33 14 47 18 19 2 -12 -1 -27 -7 -33z m84 -50 c1
-7 6 -11 12 -10 6 1 9 -6 6 -17 -6 -24 -23 -27 -23 -5 0 9 -7 18 -15 21 -12 5
-13 9 -4 20 12 15 24 11 24 -9z m-92 -96 c3 -13 1 -18 -9 -14 -7 2 -10 11 -7
19 7 19 10 18 16 -5z"/>
<path d="M1890 1423 c-20 -9 -29 -17 -22 -20 10 -4 10 -8 0 -21 -12 -15 -11
-16 5 -3 9 7 17 20 17 27 0 17 17 18 22 2 3 -7 7 -2 10 10 4 12 5 22 5 22 -1
-1 -18 -8 -37 -17z"/>
<path d="M1940 1436 c0 -2 8 -10 18 -17 15 -13 16 -12 3 4 -13 16 -21 21 -21
13z"/>
<path d="M1808 1413 c10 -4 10 -8 2 -19 -15 -17 -4 -35 17 -27 13 5 15 2 11
-15 -4 -12 -2 -20 3 -16 5 3 9 -4 9 -14 0 -26 -29 -36 -50 -17 -9 8 -30 17
-46 20 -25 5 -33 1 -57 -30 -26 -33 -29 -55 -6 -55 6 0 7 5 4 10 -3 6 -1 10 5
10 6 0 8 5 5 10 -6 10 20 7 62 -5 6 -2 14 -1 18 3 3 3 -10 11 -29 17 -26 7
-33 14 -27 24 7 11 15 10 45 -4 20 -10 36 -22 36 -27 0 -6 6 -8 14 -5 13 5 13
1 1 -33 -8 -22 -11 -42 -6 -44 15 -9 26 10 28 49 7 116 6 137 -8 146 -10 6
-10 9 -1 9 6 0 12 5 12 10 0 6 -12 10 -27 9 -16 0 -22 -3 -15 -6z"/>
<path d="M1112 1385 c0 -16 2 -22 5 -12 2 9 2 23 0 30 -3 6 -5 -1 -5 -18z"/>
<path d="M1137 1403 c-4 -3 -7 -11 -7 -17 0 -6 5 -5 12 2 6 6 9 14 7 17 -3 3
-9 2 -12 -2z"/>
<path d="M1710 1400 c-9 -6 -10 -10 -3 -10 6 0 15 5 18 10 8 12 4 12 -15 0z"/>
<path d="M1933 1397 c-4 -7 -19 -18 -33 -25 l-25 -12 29 3 c20 1 31 9 37 25 9
24 5 29 -8 9z"/>
<path d="M1963 1393 c-15 -5 -17 -33 -3 -33 6 0 9 4 8 9 -3 9 2 11 25 11 9 0
9 -2 -1 -9 -11 -7 -11 -9 2 -14 17 -7 31 7 22 22 -7 11 -37 19 -53 14z"/>
<path d="M2480 1391 c0 -5 7 -15 17 -22 15 -13 15 -12 4 9 -12 23 -21 28 -21
13z"/>
<path d="M1081 1373 c7 -12 15 -20 18 -17 3 2 -3 12 -13 22 -17 16 -18 16 -5
-5z"/>
<path d="M2228 1330 c2 -22 6 -40 8 -40 2 0 4 18 4 40 0 22 -3 40 -8 40 -4 0
-6 -18 -4 -40z"/>
<path d="M2030 1340 c-8 -11 -20 -20 -27 -20 -7 0 -13 -7 -13 -15 0 -21 16
-19 40 5 26 26 34 26 20 0 -12 -23 -6 -40 15 -40 7 0 16 -12 18 -27 l4 -28 2
28 c0 17 -5 30 -14 33 -10 4 -12 10 -6 18 12 14 2 66 -13 66 -6 0 -18 -9 -26
-20z"/>
<path d="M820 1339 c0 -5 5 -7 10 -4 6 3 10 8 10 11 0 2 -4 4 -10 4 -5 0 -10
-5 -10 -11z"/>
<path d="M898 1343 c7 -3 16 -2 19 1 4 3 -2 6 -13 5 -11 0 -14 -3 -6 -6z"/>
<path d="M1405 1340 c3 -5 8 -10 11 -10 2 0 4 5 4 10 0 6 -5 10 -11 10 -5 0
-7 -4 -4 -10z"/>
<path d="M1892 1333 c-11 -11 -11 -22 -3 -51 10 -34 10 -34 6 -5 -3 24 1 36
16 46 14 11 16 16 7 20 -7 2 -19 -2 -26 -10z"/>
<path d="M2384 1336 c11 -9 27 -16 35 -16 21 0 2 16 -29 24 -24 7 -24 6 -6 -8z"/>
<path d="M1145 1321 c35 -15 85 -23 85 -13 0 5 -6 9 -12 9 -7 0 -31 3 -53 6
-26 4 -33 4 -20 -2z"/>
<path d="M1955 1320 c-4 -6 -10 -8 -15 -5 -12 7 -21 -38 -10 -49 7 -7 10 -4
10 7 0 9 9 21 20 27 21 11 27 30 11 30 -6 0 -13 -5 -16 -10z"/>
<path d="M1268 1298 c7 -7 12 -22 12 -34 0 -36 17 -37 24 -3 9 45 9 44 -21 47
-21 2 -24 -1 -15 -10z"/>
<path d="M2365 1297 c3 -10 5 -23 5 -29 0 -7 18 -9 50 -5 31 4 50 2 50 -4 0
-6 5 -7 11 -3 21 12 -21 27 -61 20 -32 -5 -39 -2 -49 17 -7 13 -10 15 -6 4z"/>
<path d="M1140 1289 c0 -7 35 -19 58 -19 7 0 11 4 8 9 -7 11 -66 20 -66 10z"/>
<path d="M2257 1285 c-4 -8 -2 -17 3 -20 6 -4 10 3 10 14 0 25 -6 27 -13 6z"/>
<path d="M1325 1272 c4 -13 1 -29 -5 -37 -10 -12 -10 -15 -1 -15 7 0 11 -10 9
-22 -2 -18 -11 -24 -34 -26 -22 -2 -35 -11 -43 -28 -15 -33 -14 -35 7 -26 43
19 81 48 86 67 10 36 6 71 -10 91 -15 18 -15 18 -9 -4z"/>
<path d="M2560 1282 c0 -12 49 -56 55 -50 3 2 -8 17 -25 31 -16 15 -30 23 -30
19z"/>
<path d="M643 1219 c-104 -159 -153 -324 -160 -536 -3 -78 -2 -163 2 -190 l8
-48 13 70 c7 39 13 79 13 90 0 20 0 20 -10 0 -10 -22 -5 202 6 245 3 14 7 30
9 35 1 6 6 26 10 45 10 47 79 210 89 210 5 0 5 -5 1 -12 -5 -7 -3 -8 5 -4 7 5
10 14 7 22 -3 8 8 37 25 64 46 75 29 83 -18 9z"/>
<path d="M1247 1260 c-3 -11 -1 -20 4 -20 5 0 9 9 9 20 0 11 -2 20 -4 20 -2 0
-6 -9 -9 -20z"/>
<path d="M1977 1253 c-3 -15 -1 -35 3 -44 12 -21 -14 -57 -54 -75 -18 -8 -24
-13 -13 -14 18 0 22 -11 10 -24 -5 -4 -8 -25 -9 -47 0 -29 4 -39 15 -40 12 0
10 -4 -7 -16 -20 -14 -21 -17 -6 -28 15 -10 11 -15 -28 -33 -24 -12 -52 -22
-62 -22 -9 0 -15 -4 -11 -9 3 -6 19 -4 40 5 40 16 69 19 43 3 -10 -5 -18 -16
-18 -24 0 -9 -6 -12 -15 -9 -10 4 -15 0 -13 -12 3 -42 -2 -65 -14 -58 -8 5 -9
1 -4 -12 5 -12 4 -15 -2 -9 -6 6 -12 19 -15 30 -3 11 -5 -5 -6 -36 -1 -34 6
-72 16 -95 22 -50 41 -122 35 -129 -3 -3 -11 -5 -17 -5 -9 0 -11 14 -7 45 2
26 0 45 -5 45 -5 0 -11 -21 -12 -46 0 -26 -4 -50 -7 -55 -7 -11 -4 -11 34 2
27 9 31 15 26 35 -3 13 -7 40 -9 61 -2 21 -8 58 -13 83 -9 40 -7 50 21 105 17
33 46 84 64 113 18 29 33 55 33 58 0 2 8 14 19 25 18 20 18 21 -3 44 -25 29
-39 23 -24 -11 8 -18 8 -28 1 -35 -32 -32 -46 48 -15 91 23 34 44 37 36 6 -3
-14 -1 -33 5 -43 9 -16 10 -15 11 8 0 35 19 70 55 103 17 15 24 25 18 21 -8
-4 -13 0 -13 10 0 10 -11 3 -31 -20 -30 -34 -56 -43 -28 -9 11 13 11 17 -4 25
-12 7 -15 18 -10 39 3 17 3 30 0 30 -2 0 -7 -12 -10 -27z m-27 -268 c-7 -8
-18 -15 -24 -15 -6 0 -2 7 8 15 25 19 32 19 16 0z"/>
<path d="M863 1256 c0 -6 7 -18 15 -26 13 -11 14 -11 10 1 -3 8 4 19 15 25 17
10 17 11 -10 12 -17 0 -30 -5 -30 -12z"/>
<path d="M1860 1255 c0 -8 5 -15 10 -15 6 0 10 7 10 15 0 8 -4 15 -10 15 -5 0
-10 -7 -10 -15z"/>
<path d="M2015 1260 c4 -6 1 -18 -6 -26 -10 -12 -9 -13 5 -8 18 7 22 44 5 44
-5 0 -7 -5 -4 -10z"/>
<path d="M2549 1230 c37 -33 42 -42 31 -55 -8 -10 -9 -15 -1 -15 6 0 11 5 11
11 0 5 4 8 9 5 4 -3 7 -27 5 -53 -3 -29 0 -50 8 -54 15 -9 28 -2 28 14 0 7 -4
6 -11 -3 -9 -12 -10 -11 -6 7 10 46 -11 109 -48 146 -21 21 -44 37 -53 37 -11
0 -2 -14 27 -40z"/>
<path d="M695 1244 c-4 -10 -9 -26 -11 -34 -1 -8 -7 -34 -13 -57 -12 -46 -11
-174 2 -166 4 2 7 -1 7 -7 0 -6 10 -14 23 -19 26 -10 68 8 90 40 15 20 15 20
20 -8 18 -92 18 -110 1 -124 -11 -9 -15 -9 -10 -1 16 27 -7 32 -39 8 -19 -15
-36 -26 -40 -26 -3 0 -11 -5 -18 -10 -7 -6 -31 -24 -55 -41 -24 -16 -45 -37
-48 -47 -3 -9 -12 -33 -20 -52 -8 -20 -19 -58 -23 -85 l-9 -50 -1 48 c0 27 4
57 9 68 7 11 7 19 1 19 -12 0 -24 -52 -26 -112 -1 -37 1 -45 11 -37 9 7 12 1
11 -28 0 -21 -5 -41 -11 -45 -7 -5 -7 -8 2 -8 6 0 12 -10 12 -22 0 -12 3 -18
7 -14 4 4 6 53 5 109 -2 72 0 98 7 87 9 -13 11 -12 12 5 1 35 9 66 21 88 7 12
11 27 10 33 -2 10 76 64 93 64 15 0 -9 -21 -40 -36 -41 -19 -43 -26 -12 -43
28 -15 67 -71 67 -97 0 -11 4 -24 8 -30 5 -5 6 -20 2 -34 -6 -22 -8 -20 -23
27 -27 90 -59 132 -83 112 -10 -8 -11 -15 -4 -24 8 -9 7 -14 -2 -18 -7 -2 -10
-7 -7 -11 4 -4 14 0 22 9 21 20 27 19 27 -5 0 -10 -9 -24 -20 -30 -14 -7 -20
-7 -20 0 0 5 -4 10 -10 10 -6 0 -8 -17 -5 -41 4 -31 2 -39 -7 -33 -10 6 -11 4
0 -7 6 -7 12 -21 12 -31 0 -10 11 -24 25 -30 14 -6 25 -18 25 -26 0 -12 -4
-12 -20 3 -15 14 -20 15 -20 4 1 -21 29 -68 30 -48 0 19 24 42 33 32 4 -3 2
-12 -4 -20 -7 -8 -8 -13 -1 -13 27 0 18 33 -19 71 -28 28 -38 46 -34 59 3 10
1 21 -5 25 -18 11 -11 25 14 25 13 0 26 6 29 13 2 6 7 9 11 5 4 -3 0 -17 -8
-30 -9 -14 -13 -28 -9 -32 4 -4 1 -11 -7 -16 -8 -6 -10 -10 -5 -10 6 0 17 5
25 10 11 7 12 12 3 18 -8 5 -8 12 3 26 14 20 16 18 28 -36 5 -23 2 -27 -18
-30 -23 -3 -23 -5 -10 -22 14 -20 14 -20 29 0 11 15 15 16 15 4 1 -8 9 8 19
35 10 28 16 62 14 78 -1 15 2 27 7 27 6 0 10 -9 10 -21 0 -11 4 -18 10 -14 5
3 7 12 4 19 -7 17 16 33 25 18 4 -7 12 -8 21 -2 13 8 13 10 -2 10 -9 0 -19 6
-22 13 -5 10 -7 10 -12 0 -3 -7 -21 -13 -39 -13 -34 0 -45 13 -45 51 0 10 -4
19 -9 19 -5 0 -11 6 -14 13 -3 8 8 12 35 13 31 1 36 -1 27 -12 -6 -7 -8 -17
-5 -23 3 -5 3 -11 -1 -14 -5 -2 -2 -2 6 0 9 2 12 -3 8 -18 -4 -16 -3 -19 6
-10 6 6 23 11 38 11 15 0 31 5 34 10 4 6 11 7 17 4 7 -4 8 -2 4 4 -4 7 -15 8
-28 3 -22 -8 -68 -3 -68 8 0 3 4 23 9 44 6 23 5 37 -1 37 -5 0 -6 5 -3 10 3 6
-3 10 -14 10 -12 0 -21 -5 -21 -12 0 -9 -3 -9 -12 0 -17 17 8 34 37 27 11 -3
14 -2 8 1 -7 3 -13 10 -13 15 0 6 9 5 21 -2 12 -6 30 -9 40 -6 12 3 17 1 13
-5 -5 -7 2 -9 20 -4 18 4 25 3 21 -4 -3 -5 -2 -10 3 -10 18 0 0 -39 -24 -55
-20 -13 -24 -13 -24 -1 0 7 9 16 20 19 21 5 28 27 9 27 -23 0 -49 -22 -49 -40
0 -11 -4 -20 -10 -20 -5 0 -10 -5 -10 -11 0 -5 4 -8 9 -4 5 3 12 -3 14 -12 4
-17 5 -17 6 0 1 10 9 17 21 17 11 0 20 5 20 10 0 6 7 10 15 10 8 0 15 6 15 13
0 9 2 9 9 -1 4 -8 11 -13 15 -13 7 1 7 -4 0 -24 -9 -23 3 -45 21 -39 8 3 15
10 15 15 0 4 -7 6 -15 3 -19 -8 -19 1 0 30 14 21 14 24 0 36 -8 7 -15 9 -16 4
0 -5 -5 2 -10 15 -5 13 -8 25 -7 26 2 1 30 5 63 8 36 3 52 2 40 -3 -11 -5 -34
-9 -52 -9 -25 -1 -31 -5 -27 -16 4 -8 13 -15 21 -15 8 0 11 5 8 10 -3 6 1 10
10 10 9 0 13 -4 10 -10 -7 -11 6 -13 29 -4 9 3 13 10 10 15 -3 5 0 9 5 9 6 0
11 7 11 15 0 8 17 19 40 25 22 6 38 15 35 20 -3 6 1 7 9 4 9 -3 12 -12 9 -21
-4 -11 -2 -14 6 -9 6 4 11 13 10 19 -3 19 12 47 22 41 5 -3 9 0 9 5 0 6 -9 16
-20 23 -11 7 -20 18 -20 24 0 6 -12 21 -27 35 l-28 24 23 -26 c26 -30 22 -81
-10 -103 -11 -8 -16 -16 -11 -18 4 -3 2 -3 -4 -2 -7 2 -28 -3 -47 -11 -36 -15
-132 -20 -173 -9 -18 5 -21 10 -13 24 7 13 7 21 -1 26 -6 3 -9 19 -5 35 6 33
-10 86 -35 113 -10 10 -27 37 -38 60 -19 38 -20 39 -21 14 0 -16 4 -28 8 -28
5 0 18 -17 30 -38 l22 -39 -30 -33 c-23 -26 -34 -31 -54 -26 -41 10 -52 112
-21 208 17 55 18 103 0 62z m441 -320 c-4 -9 -9 -15 -11 -12 -3 3 -3 13 1 22
4 9 9 15 11 12 3 -3 3 -13 -1 -22z m-369 -130 c-13 -9 -57 -12 -57 -4 0 5 9
10 20 10 11 0 20 6 20 13 0 8 3 7 10 -3 5 -8 8 -15 7 -16z"/>
<path d="M1125 1250 c17 -4 41 -8 55 -8 l25 0 -25 8 c-14 4 -38 8 -55 8 l-30
0 30 -8z"/>
<path d="M2334 1252 c-7 -4 2 -14 25 -25 20 -10 29 -13 21 -5 -8 7 -19 19 -25
25 -5 7 -15 9 -21 5z"/>
<path d="M2242 1230 c-7 -12 -18 -18 -24 -14 -7 4 -8 3 -4 -4 4 -7 2 -12 -4
-12 -6 0 -8 -5 -5 -10 4 -6 1 -17 -5 -25 -6 -8 -9 -19 -5 -25 10 -17 23 -11
18 8 -2 10 3 24 11 31 9 8 16 19 16 26 0 7 7 15 15 19 8 3 15 10 15 16 0 17
-14 11 -28 -10z"/>
<path d="M784 1224 c-18 -15 -18 -15 9 -9 17 3 26 2 23 -4 -3 -5 1 -12 10 -15
23 -9 34 -7 34 4 0 6 -7 10 -15 10 -8 0 -15 4 -15 10 0 5 8 7 18 4 14 -5 15
-4 2 5 -21 15 -43 14 -66 -5z"/>
<path d="M1656 1231 c-6 -10 10 -24 31 -27 7 -1 18 5 25 14 11 14 10 15 -6 9
-10 -4 -24 -3 -31 3 -9 7 -15 7 -19 1z"/>
<path d="M1910 1228 c0 -6 -3 -8 -7 -5 -7 8 -36 -31 -40 -52 -5 -40 -15 -61
-23 -56 -5 3 -7 0 -4 -8 3 -9 -6 -24 -22 -36 -24 -19 -14 -31 12 -13 21 13 54
77 54 103 0 15 7 33 17 40 15 13 16 11 11 -13 -3 -15 -1 -25 3 -22 5 3 9 16 9
30 0 16 8 28 23 34 21 8 21 9 -5 9 -16 1 -28 -4 -28 -11z"/>
<path d="M2410 1230 c-13 -8 -12 -10 3 -10 9 0 17 5 17 10 0 12 -1 12 -20 0z"/>
<path d="M2448 1222 c-17 -20 -68 -100 -68 -106 0 -2 8 -7 18 -11 13 -5 14 -4
5 6 -14 14 12 59 55 95 15 12 21 23 15 27 -6 4 -17 -1 -25 -11z"/>
<path d="M914 1214 c3 -9 6 -18 6 -20 0 -3 4 -3 10 1 11 7 2 35 -12 35 -6 0
-7 -7 -4 -16z"/>
<path d="M980 1219 c0 -5 5 -7 10 -4 6 3 10 8 10 11 0 2 -4 4 -10 4 -5 0 -10
-5 -10 -11z"/>
<path d="M1090 1219 c0 -14 24 -23 28 -11 3 9 9 9 23 2 10 -6 19 -8 19 -4 0 3
6 1 13 -5 8 -6 17 -8 20 -4 13 12 7 19 -20 21 -16 1 -40 4 -55 6 -16 2 -28 0
-28 -5z"/>
<path d="M465 1210 c-3 -4 9 -10 25 -12 17 -3 30 -1 30 3 0 10 -50 18 -55 9z"/>
<path d="M1761 1194 l-25 -23 23 6 c13 3 25 12 28 20 9 23 0 22 -26 -3z"/>
<path d="M1935 1210 c-3 -5 -2 -10 4 -10 5 0 13 5 16 10 3 6 2 10 -4 10 -5 0
-13 -4 -16 -10z"/>
<path d="M1593 1193 c-29 -9 -53 -19 -53 -24 0 -5 -7 -9 -16 -9 -9 0 -12 -5
-8 -12 4 -7 3 -8 -5 -4 -9 6 -9 11 0 22 15 19 4 18 -26 -2 -13 -9 -29 -13 -35
-9 -5 3 -10 1 -10 -5 0 -6 -4 -9 -10 -5 -16 10 -61 -37 -54 -57 3 -10 1 -18
-5 -18 -6 0 -11 5 -11 10 0 6 -7 10 -15 10 -14 0 -19 12 -16 33 2 11 -17 8
-21 -3 -2 -6 -21 -13 -43 -16 -98 -13 -105 -15 -105 -32 -1 -12 -4 -10 -13 8
-14 29 -50 34 -55 7 -3 -16 -1 -17 18 -7 12 6 24 9 28 6 3 -3 0 -6 -6 -6 -7 0
-12 -10 -12 -22 0 -19 -2 -20 -10 -8 -8 13 -10 13 -10 -2 0 -16 44 -58 61 -58
16 0 9 17 -10 26 -17 8 -17 11 -5 22 8 7 14 9 14 4 0 -6 21 -5 51 0 28 5 57 7
65 4 16 -6 95 7 138 24 28 10 28 11 11 30 -13 15 -15 24 -8 31 8 8 13 8 17 0
4 -6 16 -11 27 -11 24 0 24 -16 0 -57 -12 -19 -31 -34 -50 -38 -17 -3 -29 -12
-28 -18 1 -7 -6 -11 -15 -9 -9 1 -19 -2 -23 -8 -3 -5 2 -11 12 -12 10 0 -2 -4
-27 -8 -38 -6 -40 -7 -13 -8 26 -2 34 -7 39 -29 5 -17 2 -30 -8 -37 -52 -39
-70 -57 -64 -63 3 -4 19 6 36 22 l29 28 5 -24 c19 -90 18 -100 -9 -125 -14
-13 -24 -26 -23 -30 2 -4 -7 -10 -19 -15 -24 -9 -30 0 -12 18 8 8 8 13 0 17
-6 4 -11 0 -11 -8 0 -9 -6 -16 -14 -16 -8 0 -16 -7 -19 -14 -4 -10 -1 -13 7
-10 7 3 18 -2 25 -10 11 -12 20 -7 62 40 47 52 49 56 42 97 -9 48 -8 108 2
155 5 24 19 40 46 58 22 13 39 31 39 39 0 15 12 20 23 9 11 -11 -5 -33 -37
-52 -24 -14 -36 -30 -42 -58 -9 -38 -9 -40 35 -79 28 -26 42 -33 38 -21 -6 16
-5 17 8 6 8 -7 13 -16 10 -20 -9 -14 7 -40 24 -40 29 0 51 56 51 131 0 39 -4
69 -10 69 -6 0 -9 -30 -8 -75 2 -41 -2 -79 -7 -84 -7 -7 -9 20 -7 77 l3 88
-25 -1 c-14 -1 -29 -5 -33 -10 -5 -4 -3 -5 3 -2 17 10 38 -21 39 -54 1 -20 -5
-29 -19 -33 -20 -5 -20 -5 0 -28 l19 -22 -23 14 c-13 8 -23 20 -24 25 0 6 -5
16 -11 24 -10 12 -7 13 16 7 22 -5 28 -4 25 6 -3 7 -16 13 -29 13 -17 0 -25
-6 -27 -23 -3 -19 -6 -21 -18 -11 -16 13 -19 39 -4 39 6 0 10 5 10 11 0 7 16
27 35 46 24 23 35 29 35 18 0 -8 5 -15 10 -15 6 0 10 11 10 25 0 14 5 25 10
25 6 0 8 -10 5 -23 -5 -18 -2 -23 15 -24 18 -2 20 3 18 37 l-3 38 -28 -15
c-16 -8 -34 -12 -40 -10 -7 3 -1 9 13 15 14 5 31 17 38 25 13 15 7 47 -9 47
-5 0 -9 4 -9 9 0 11 69 36 77 28 10 -10 -8 -27 -28 -27 -11 0 -17 -5 -14 -10
8 -13 57 -1 70 17 8 11 17 12 40 3 24 -9 27 -9 18 1 -7 7 -26 12 -43 12 -22 0
-29 4 -26 14 3 7 4 13 3 12 -1 0 -26 -8 -54 -16z m-48 -72 c13 -2 -16 -21 -31
-21 -7 0 -14 6 -17 13 -3 9 2 13 16 11 12 -1 27 -3 32 -3z m-140 -21 c3 -5 1
-10 -4 -10 -6 0 -11 5 -11 10 0 6 2 10 4 10 3 0 8 -4 11 -10z"/>
<path d="M2352 1189 c-8 -12 -11 -24 -7 -27 3 -3 13 2 22 11 11 11 14 20 7 27
-6 6 -14 2 -22 -11z"/>
<path d="M1084 1183 c2 -12 -2 -24 -10 -27 -8 -3 -11 0 -8 8 3 8 1 16 -4 20
-11 7 -12 -26 0 -41 5 -7 5 -14 -2 -18 -5 -3 -10 -16 -9 -28 1 -20 2 -20 8 3
4 14 13 24 20 22 7 -1 9 2 5 9 -3 6 -1 14 5 18 8 6 9 14 1 32 -9 21 -10 21 -6
2z"/>
<path d="M2079 1169 c-17 -32 -29 -79 -20 -79 5 0 13 15 19 33 10 31 10 31 11
5 1 -15 -4 -30 -10 -33 -6 -4 -7 -14 -3 -24 4 -9 11 -43 14 -76 6 -48 7 -35 8
68 1 70 0 127 -3 127 -2 0 -9 -10 -16 -21z"/>
<path d="M2316 1181 c-3 -5 -4 -32 -2 -59 3 -42 1 -49 -11 -45 -13 5 -12 1 3
-23 26 -43 76 -94 92 -94 7 0 11 -4 7 -9 -3 -5 13 -17 35 -27 22 -10 40 -21
40 -26 0 -4 6 -7 13 -5 6 1 11 -4 9 -11 -1 -8 2 -11 7 -8 5 4 12 2 16 -4 7
-12 25 -4 25 11 0 6 -4 8 -9 4 -5 -3 -12 -1 -16 5 -3 6 -25 20 -48 31 -23 12
-65 42 -95 68 l-53 46 3 57 c2 31 0 54 -4 51 -5 -2 -6 7 -2 21 6 26 1 35 -10
17z"/>
<path d="M2390 1179 c0 -5 5 -7 10 -4 6 3 10 8 10 11 0 2 -4 4 -10 4 -5 0 -10
-5 -10 -11z"/>
<path d="M2440 1181 c0 -5 5 -13 10 -16 6 -3 10 -2 10 4 0 5 -4 13 -10 16 -5
3 -10 2 -10 -4z"/>
<path d="M410 1171 c0 -18 18 -21 30 -6 10 13 9 15 -9 15 -11 0 -21 -4 -21 -9z"/>
<path d="M500 1171 c0 -7 -7 -11 -15 -8 -17 7 -30 -9 -14 -18 13 -8 46 21 36
31 -4 4 -7 2 -7 -5z"/>
<path d="M565 1170 c3 -5 8 -10 11 -10 2 0 4 5 4 10 0 6 -5 10 -11 10 -5 0 -7
-4 -4 -10z"/>
<path d="M789 1178 c0 -1 -3 -16 -5 -31 l-5 -28 31 16 c44 23 85 17 86 -13 1
-25 10 -38 17 -25 7 14 -12 70 -25 70 -7 0 -32 3 -55 7 -24 4 -43 6 -44 4z"/>
<path d="M1200 1163 c0 -7 7 -13 15 -13 8 0 15 5 15 11 0 5 5 7 10 4 6 -3 10
-2 10 3 0 6 -11 9 -25 8 -14 0 -25 -7 -25 -13z"/>
<path d="M2265 1170 c-3 -5 -1 -10 4 -10 6 0 11 5 11 10 0 6 -2 10 -4 10 -3 0
-8 -4 -11 -10z"/>
<path d="M2631 1164 c0 -11 3 -14 6 -6 3 7 2 16 -1 19 -3 4 -6 -2 -5 -13z"/>
<path d="M1160 1166 c0 -2 7 -6 15 -10 8 -3 15 -1 15 4 0 6 -7 10 -15 10 -8 0
-15 -2 -15 -4z"/>
<path d="M2230 1159 c0 -17 46 -46 57 -36 3 4 -1 7 -10 7 -9 0 -23 10 -31 22
-12 16 -16 18 -16 7z"/>
<path d="M552 1135 c0 -16 2 -22 5 -12 2 9 2 23 0 30 -3 6 -5 -1 -5 -18z"/>
<path d="M1025 1150 c-3 -5 -1 -10 4 -10 6 0 11 5 11 10 0 6 -2 10 -4 10 -3 0
-8 -4 -11 -10z"/>
<path d="M1667 1140 c-4 -17 -1 -18 27 -13 49 9 50 16 5 26 -21 5 -28 3 -32
-13z"/>
<path d="M2365 1150 c-3 -5 -1 -10 4 -10 6 0 11 5 11 10 0 6 -2 10 -4 10 -3 0
-8 -4 -11 -10z"/>
<path d="M2473 1144 c-17 -13 -16 -14 9 -11 33 4 44 13 24 20 -8 3 -22 -1 -33
-9z"/>
<path d="M1739 1124 c-5 -15 -13 -32 -16 -38 -4 -6 0 -5 9 2 9 7 18 24 21 37
6 33 -1 32 -14 -1z"/>
<path d="M2535 1140 c3 -5 8 -10 11 -10 2 0 4 5 4 10 0 6 -5 10 -11 10 -5 0
-7 -4 -4 -10z"/>
<path d="M843 1126 c-18 -6 -33 -16 -33 -24 0 -16 37 -7 59 14 20 19 12 21
-26 10z"/>
<path d="M1618 1133 c-10 -2 -18 -13 -18 -24 0 -11 3 -18 8 -15 6 4 9 -51 2
-64 -1 -3 -3 -36 -5 -74 -2 -38 -7 -76 -10 -85 -3 -9 6 -4 20 12 14 15 23 32
20 37 -3 6 -1 10 4 10 6 0 11 -5 11 -11 0 -5 17 3 37 18 30 23 35 24 30 9 -7
-18 -6 -18 18 -2 24 16 25 16 25 -7 0 -13 -5 -28 -11 -34 -8 -8 -8 -13 0 -17
6 -4 11 -2 11 3 0 6 4 11 10 11 5 0 7 -6 5 -12 -2 -7 -7 -24 -9 -38 -3 -14
-10 -41 -15 -60 -15 -48 -13 -158 3 -195 12 -28 13 -27 8 27 -3 40 1 70 12 99
30 74 15 249 -21 249 -7 0 -13 -5 -13 -12 0 -9 -3 -9 -12 1 -11 10 -10 15 3
24 9 7 14 17 12 24 -2 6 5 14 16 18 25 7 27 21 6 29 -8 3 -15 2 -15 -3 0 -4
-8 -17 -17 -29 -10 -11 -24 -29 -31 -39 -7 -10 -10 -12 -6 -4 4 9 2 12 -7 9
-8 -3 -12 -14 -10 -24 3 -18 2 -18 -17 -1 -20 18 -20 18 -15 -5 l5 -23 -17 23
c-16 22 -16 24 1 37 12 9 30 12 48 9 28 -6 29 -5 14 10 -9 9 -24 16 -32 16
-17 0 -19 7 -16 58 1 21 -3 32 -12 32 -10 0 -9 3 2 10 15 10 8 11 -22 3z m149
-395 c-3 -7 -5 -2 -5 12 0 14 2 19 5 13 2 -7 2 -19 0 -25z"/>
<path d="M1205 1120 c-3 -5 -1 -10 4 -10 6 0 11 5 11 10 0 6 -2 10 -4 10 -3 0
-8 -4 -11 -10z"/>
<path d="M1340 1114 c0 -8 5 -12 10 -9 6 3 10 10 10 16 0 5 -4 9 -10 9 -5 0
-10 -7 -10 -16z"/>
<path d="M2172 1083 c-11 -37 -3 -63 20 -63 6 0 5 7 -2 15 -8 9 -10 28 -6 50
9 46 2 45 -12 -2z"/>
<path d="M2440 1105 c-23 -13 -17 -20 16 -16 6 1 11 -6 11 -14 0 -8 -4 -15 -9
-15 -4 0 -8 -4 -8 -10 0 -5 4 -10 10 -10 14 0 23 46 13 63 -7 13 -11 14 -33 2z"/>
<path d="M1665 1100 c-8 -13 -1 -24 14 -19 6 3 7 10 2 18 -6 10 -10 10 -16 1z"/>
<path d="M2565 1099 c-4 -6 -5 -12 -2 -15 2 -3 7 2 10 11 7 17 1 20 -8 4z"/>
<path d="M2236 1083 c-6 -14 -5 -15 5 -6 7 7 10 15 7 18 -3 3 -9 -2 -12 -12z"/>
<path d="M2360 1080 c-8 -15 -8 -25 0 -38 9 -14 10 -13 4 7 -5 19 -3 23 9 18
11 -4 13 0 10 14 -7 24 -10 24 -23 -1z"/>
<path d="M495 1080 c-9 -15 4 -30 26 -30 22 0 24 11 7 28 -15 15 -25 15 -33 2z
m30 -10 c3 -5 2 -10 -4 -10 -5 0 -13 5 -16 10 -3 6 -2 10 4 10 5 0 13 -4 16
-10z"/>
<path d="M2508 1078 c9 -11 9 -18 2 -21 -6 -3 -5 -4 2 -3 18 4 16 28 -2 34
-13 4 -13 3 -2 -10z"/>
<path d="M2054 1041 c5 -51 26 -81 26 -38 0 15 -5 27 -11 27 -5 0 -7 4 -4 10
3 5 1 18 -5 27 -9 14 -10 9 -6 -26z"/>
<path d="M2260 1065 c-6 -8 -10 -19 -8 -24 1 -6 8 1 15 14 13 28 11 31 -7 10z"/>
<path d="M1692 1054 c-22 -11 -22 -12 -4 -16 24 -7 43 4 34 18 -5 7 -14 6 -30
-2z"/>
<path d="M2650 1062 c0 -4 10 -9 22 -9 18 -2 20 0 8 7 -18 12 -30 13 -30 2z"/>
<path d="M2220 1049 c0 -5 5 -7 10 -4 6 3 10 8 10 11 0 2 -4 4 -10 4 -5 0 -10
-5 -10 -11z"/>
<path d="M2541 1051 c-8 -6 -9 -11 -3 -15 6 -3 14 -1 17 5 9 14 2 20 -14 10z"/>
<path d="M2577 1043 c-10 -9 -9 -23 1 -23 5 0 9 7 9 15 0 17 -1 18 -10 8z"/>
<path d="M2611 1037 c-6 -8 -8 -16 -5 -20 10 -9 34 4 34 19 0 18 -14 18 -29 1z"/>
<path d="M2707 1034 c3 -8 9 -14 14 -14 6 0 5 -9 -1 -20 -6 -11 -21 -20 -33
-20 -16 0 -19 -3 -8 -9 11 -7 9 -11 -9 -21 -12 -6 -25 -8 -28 -4 -4 4 -1 9 6
11 6 3 12 9 12 14 0 5 -8 4 -18 -2 -13 -8 -17 -20 -14 -36 3 -15 7 -20 12 -13
4 6 14 12 22 14 20 3 75 67 75 88 0 9 -8 19 -18 21 -12 3 -16 0 -12 -9z"/>
<path d="M1250 1025 c0 -8 -4 -15 -8 -15 -10 0 -8 -27 3 -54 8 -19 9 -19 16 0
11 28 11 84 -1 84 -5 0 -10 -7 -10 -15z"/>
<path d="M1799 1020 c-1 -11 -2 -26 -3 -32 -1 -7 7 -12 17 -12 9 1 17 -3 17
-9 0 -6 2 -8 5 -5 9 8 -6 38 -16 32 -5 -3 -9 4 -9 16 0 13 4 19 12 14 7 -4 8
-3 4 4 -11 19 -26 14 -27 -8z"/>
<path d="M2405 1029 c-11 -17 1 -21 15 -4 8 9 8 15 2 15 -6 0 -14 -5 -17 -11z"/>
<path d="M2504 1015 c26 -26 47 -35 27 -12 -6 8 -7 18 -3 22 4 5 2 5 -5 1 -6
-3 -14 -2 -18 4 -3 5 -11 10 -16 10 -5 0 1 -11 15 -25z"/>
<path d="M1190 1016 c0 -7 6 -19 14 -25 11 -9 12 -6 8 14 -5 26 -22 35 -22 11z"/>
<path d="M2151 998 c-9 -14 -9 -18 -1 -13 9 5 10 1 6 -13 -6 -17 -3 -19 14
-15 13 4 17 8 11 13 -7 3 -9 14 -6 22 10 24 -9 29 -24 6z"/>
<path d="M2225 1005 c32 -23 62 -55 76 -84 8 -14 20 -30 26 -34 18 -11 16 -28
-2 -21 -16 6 -20 -12 -9 -40 8 -22 34 -20 34 2 0 13 -2 14 -9 3 -7 -10 -10
-10 -16 -1 -4 7 -1 16 6 21 18 11 29 11 29 0 0 -5 16 -24 35 -42 39 -38 41
-44 20 -66 -9 -8 -13 -18 -9 -22 4 -3 9 0 11 7 3 6 9 12 14 12 6 0 7 -6 3 -12
-4 -7 -3 -10 1 -5 15 13 15 45 0 57 -25 21 -17 32 10 14 39 -25 36 -13 -3 21
-25 20 -34 24 -29 13 3 -10 4 -18 2 -18 -9 0 -79 81 -99 114 l-20 31 29 -25
c15 -14 25 -18 20 -10 -15 28 -38 50 -46 44 -5 -3 -10 0 -10 5 -1 6 -2 15 -3
20 0 5 -5 13 -10 18 -5 5 -6 3 -2 -4 10 -18 -9 -16 -24 2 -7 8 -20 15 -29 15
-13 -1 -12 -3 4 -15z"/>
<path d="M1880 1000 c0 -5 5 -10 10 -10 6 0 10 5 10 10 0 6 -4 10 -10 10 -5 0
-10 -4 -10 -10z"/>
<path d="M1081 984 c-1 -12 -12 -26 -28 -34 -18 -8 -23 -14 -14 -17 19 -8 54
31 48 53 -4 17 -5 17 -6 -2z"/>
<path d="M1655 990 c3 -5 8 -10 11 -10 2 0 4 5 4 10 0 6 -5 10 -11 10 -5 0 -7
-4 -4 -10z"/>
<path d="M2030 991 c0 -6 4 -13 10 -16 6 -3 7 1 4 9 -7 18 -14 21 -14 7z"/>
<path d="M2563 970 c0 -23 3 -28 9 -16 5 9 5 23 0 32 -6 12 -9 7 -9 -16z"/>
<path d="M1171 981 c-9 -6 -6 -10 10 -14 28 -8 34 -3 16 11 -7 6 -19 7 -26 3z"/>
<path d="M1466 981 c-3 -5 8 -11 26 -13 28 -5 29 -4 13 9 -22 15 -32 16 -39 4z"/>
<path d="M2460 980 c0 -5 5 -10 11 -10 5 0 7 5 4 10 -3 6 -8 10 -11 10 -2 0
-4 -4 -4 -10z"/>
<path d="M2597 968 c-4 -12 -4 -34 0 -48 l6 -25 -24 20 c-13 11 -27 25 -31 30
-5 6 -8 5 -8 -2 0 -7 11 -20 25 -29 24 -16 37 -43 13 -28 -12 8 -7 -4 24 -48
20 -29 23 -48 8 -48 -5 0 -10 7 -10 15 0 8 -4 15 -9 15 -5 0 -13 12 -18 26 -8
24 -10 25 -23 10 -11 -15 -11 -17 1 -14 10 2 13 -5 11 -23 -3 -21 2 -28 22
-33 15 -3 26 -11 26 -17 0 -6 5 -7 10 -4 12 8 13 105 1 105 -5 0 -7 -10 -4
-22 4 -22 3 -22 -11 2 -13 22 -13 27 1 42 10 11 13 24 8 35 -5 10 -7 28 -6 41
3 28 -5 29 -12 0z m-12 -158 c3 -5 1 -10 -4 -10 -6 0 -11 5 -11 10 0 6 2 10 4
10 3 0 8 -4 11 -10z"/>
<path d="M918 967 c-16 -6 -28 -19 -28 -29 0 -21 -11 -23 -28 -6 -8 8 -12 8
-12 1 0 -12 23 -23 46 -23 8 0 14 7 14 15 0 8 5 15 11 15 5 0 7 5 3 12 -5 8 2
9 26 5 28 -6 31 -5 20 8 -14 17 -15 17 -52 2z"/>
<path d="M2530 970 c0 -5 5 -10 10 -10 6 0 10 5 10 10 0 6 -4 10 -10 10 -5 0
-10 -4 -10 -10z"/>
<path d="M775 961 c-3 -5 -2 -12 3 -15 5 -3 9 1 9 9 0 17 -3 19 -12 6z"/>
<path d="M1225 950 c3 -5 8 -10 11 -10 2 0 4 5 4 10 0 6 -5 10 -11 10 -5 0 -7
-4 -4 -10z"/>
<path d="M2053 948 c3 -9 -3 -28 -14 -42 -11 -14 -16 -26 -10 -26 18 0 41 54
29 71 -8 11 -9 11 -5 -3z"/>
<path d="M2170 937 c0 -9 -6 -17 -12 -17 -8 -1 -6 -6 4 -14 10 -7 15 -15 13
-18 -3 -3 2 -11 11 -19 16 -13 17 -12 10 11 -4 14 -9 33 -10 42 -3 24 -16 35
-16 15z"/>
<path d="M2203 932 c1 -14 5 -18 11 -12 7 7 6 14 -1 21 -9 9 -12 7 -10 -9z"/>
<path d="M801 924 c0 -11 3 -14 6 -6 3 7 2 16 -1 19 -3 4 -6 -2 -5 -13z"/>
<path d="M931 931 c-10 -6 -10 -10 -1 -16 13 -8 24 -1 19 14 -3 6 -10 7 -18 2z"/>
<path d="M962 935 c11 -11 60 -16 53 -5 -3 5 -18 10 -32 10 -15 0 -24 -2 -21
-5z"/>
<path d="M1175 910 c-4 -16 -4 -34 0 -40 3 -5 2 -10 -4 -10 -5 0 -12 6 -14 13
-3 6 -6 0 -6 -15 -1 -20 3 -26 14 -22 9 4 18 -3 25 -17 5 -13 15 -32 22 -41 7
-9 9 -21 5 -25 -5 -4 -12 -1 -17 7 -8 12 -10 10 -10 -8 0 -13 4 -20 10 -17 13
8 13 -21 -1 -46 -5 -11 -15 -16 -21 -13 -7 4 -8 3 -4 -4 4 -7 4 -12 -1 -12 -4
0 -8 -11 -8 -24 0 -13 3 -22 8 -19 4 2 7 -1 7 -7 0 -15 -43 -30 -51 -18 -4 6
-8 6 -10 2 -6 -13 -66 -54 -79 -54 -5 0 -10 -5 -10 -11 0 -7 7 -8 18 -3 9 4
27 7 40 7 17 -1 20 2 12 12 -8 9 -6 14 6 19 23 9 24 8 24 -18 0 -20 4 -22 27
-18 21 4 25 2 20 -12 -4 -9 -3 -16 2 -16 5 0 11 10 14 21 5 20 7 20 22 5 24
-24 29 -20 8 8 -16 21 -19 22 -31 7 -12 -15 -13 -15 -8 1 3 10 1 20 -5 23 -5
4 -8 1 -7 -6 5 -21 -19 -21 -25 1 -5 18 -1 20 30 18 19 -1 40 -10 47 -19 8
-12 16 -15 26 -8 8 5 11 9 6 9 -5 0 -3 6 3 14 7 9 8 17 3 20 -6 3 -12 -1 -16
-9 -5 -15 -27 -21 -25 -7 3 19 -2 23 -16 12 -10 -8 -15 -9 -15 -1 0 6 9 16 20
23 24 15 26 25 5 25 -8 0 -12 -4 -9 -9 3 -4 1 -8 -5 -8 -17 0 -23 20 -11 35 6
8 18 11 26 8 10 -4 12 0 8 11 -3 9 -1 37 5 62 11 43 10 49 -13 83 -13 20 -27
47 -31 61 -4 16 5 7 28 -25 19 -28 37 -60 40 -70 2 -11 5 3 6 32 0 28 4 58 7
67 4 10 0 18 -10 22 -24 9 -30 -1 -16 -26 6 -12 9 -24 6 -28 -4 -3 -13 13 -22
36 -21 52 -41 61 -49 22z"/>
<path d="M1056 914 c-11 -8 -16 -14 -10 -14 13 0 39 18 34 24 -3 2 -14 -2 -24
-10z"/>
<path d="M1725 920 c-3 -5 -2 -10 4 -10 5 0 13 5 16 10 3 6 2 10 -4 10 -5 0
-13 -4 -16 -10z"/>
<path d="M2256 898 c5 -7 2 -9 -9 -5 -15 6 -34 -20 -22 -31 3 -3 5 1 5 8 0 9
6 8 20 -5 11 -10 20 -13 20 -7 0 6 7 9 15 6 8 -4 15 -1 15 4 0 16 -18 24 -25
12 -3 -5 -11 -10 -18 -10 -8 0 -8 3 1 12 15 15 15 28 1 28 -5 0 -7 -5 -3 -12z"/>
<path d="M950 890 l-65 -7 73 -1 c42 -1 72 2 72 8 0 6 -3 9 -7 8 -5 -1 -37 -4
-73 -8z"/>
<path d="M2620 890 c0 -5 5 -10 10 -10 6 0 10 5 10 10 0 6 -4 10 -10 10 -5 0
-10 -4 -10 -10z"/>
<path d="M2040 865 c-11 -13 -10 -14 4 -9 9 3 16 10 16 15 0 13 -6 11 -20 -6z"/>
<path d="M1400 853 c0 -10 5 -34 10 -54 9 -31 13 -36 35 -31 33 6 32 12 -10
62 -25 31 -35 37 -35 23z m27 -55 c-3 -8 -6 -5 -6 6 -1 11 2 17 5 13 3 -3 4
-12 1 -19z"/>
<path d="M1057 851 c-24 -9 -21 -23 6 -38 12 -6 20 -15 17 -19 -3 -4 7 -8 22
-10 29 -3 46 10 28 21 -5 3 -10 2 -10 -4 0 -6 -13 -2 -30 7 -32 18 -36 27 -19
37 6 4 16 -1 24 -11 11 -15 16 -17 26 -6 11 10 10 12 -4 12 -9 0 -17 5 -17 10
0 11 -17 12 -43 1z"/>
<path d="M1986 813 c-9 -27 -21 -79 -26 -117 -11 -76 -35 -131 -27 -61 l5 40
-14 -30 c-7 -16 -11 -43 -8 -58 3 -15 2 -26 -3 -25 -4 2 -9 0 -10 -5 -2 -4
-10 -22 -20 -40 -9 -17 -18 -38 -19 -45 -4 -20 -9 -23 -28 -16 -11 4 -15 13
-11 22 3 9 3 13 -1 9 -4 -4 -13 1 -20 11 -8 9 -14 12 -14 5 0 -6 4 -14 9 -17
5 -3 12 -22 15 -41 7 -35 26 -49 26 -18 0 9 3 13 7 9 7 -6 43 53 107 177 19
37 30 65 25 61 -11 -6 -1 72 12 98 5 9 9 26 9 37 0 11 5 23 12 27 7 4 8 3 4
-4 -4 -7 -2 -12 4 -12 7 0 9 7 6 16 -3 9 -6 18 -6 20 0 2 -4 4 -9 4 -5 0 -16
-21 -25 -47z"/>
<path d="M2228 843 c6 -2 10 -8 8 -12 -3 -4 1 -8 9 -8 11 0 12 4 4 14 -6 7
-17 13 -23 12 -7 0 -6 -2 2 -6z"/>
<path d="M2280 836 c-9 -11 -9 -19 0 -33 11 -17 11 -17 6 1 -4 10 -1 25 5 32
6 8 9 14 6 14 -2 0 -10 -7 -17 -14z"/>
<path d="M633 823 c-3 -7 -11 -13 -19 -13 -8 0 -14 -4 -14 -10 0 -15 12 -11
43 14 20 16 24 23 12 23 -9 0 -19 -6 -22 -14z"/>
<path d="M805 830 c3 -5 11 -10 16 -10 6 0 7 5 4 10 -3 6 -11 10 -16 10 -6 0
-7 -4 -4 -10z"/>
<path d="M1648 801 c-4 -24 -3 -51 2 -60 17 -32 44 -138 57 -223 5 -31 3 -38
-11 -38 -9 0 -20 8 -23 18 -4 9 -11 20 -17 24 -7 5 -7 19 0 47 l11 41 -31 -1
c-17 0 -25 -3 -18 -6 6 -2 12 -13 12 -24 0 -12 -5 -16 -15 -13 -8 4 -15 10
-15 15 0 4 -14 31 -31 60 -16 28 -28 58 -25 65 3 8 0 11 -10 7 -18 -7 -18 -9
7 -49 11 -19 17 -34 12 -34 -4 0 -2 -4 5 -9 8 -5 12 -16 10 -25 -2 -13 -11 -6
-35 25 -25 32 -30 45 -22 56 15 17 -17 18 -52 1 -19 -9 -26 -19 -25 -40 1 -15
4 -28 7 -28 4 0 7 -11 7 -24 0 -21 -3 -23 -19 -13 -23 14 -31 34 -18 43 6 3 3
12 -8 20 -17 13 -17 14 0 8 13 -5 16 -2 11 10 -4 11 4 21 25 33 17 10 31 21
31 26 0 14 -55 -6 -68 -25 -7 -10 -19 -18 -27 -18 -14 0 -8 -19 30 -93 9 -16
13 -33 10 -38 -4 -5 1 -6 9 -3 9 3 21 -6 32 -25 10 -17 24 -31 30 -31 19 0 10
31 -16 50 -17 13 -20 19 -10 25 8 5 19 1 30 -13 11 -13 21 -17 30 -12 12 7 11
13 -5 30 -10 11 -26 18 -35 15 -13 -4 -16 4 -18 40 -1 24 3 47 8 50 15 9 60
-47 54 -67 -5 -17 27 -34 45 -24 14 9 71 -49 71 -72 0 -21 91 -80 137 -88 26
-5 28 -1 12 29 -15 27 -30 38 -46 32 -15 -5 -26 44 -17 81 4 16 3 25 -2 21
-10 -10 -53 136 -63 213 l-6 55 -7 -44z m126 -362 c-8 -13 -24 -1 -24 18 0 13
3 13 15 3 8 -7 12 -16 9 -21z"/>
<path d="M2521 797 c-1 -23 1 -38 4 -35 9 9 13 68 5 73 -3 2 -7 -15 -9 -38z"/>
<path d="M2650 798 c-1 -24 -4 -61 -8 -83 -5 -24 -1 -79 8 -140 l16 -100 7 82
c8 92 -1 271 -14 279 -5 3 -9 -14 -9 -38z"/>
<path d="M2190 801 c0 -41 -68 -153 -89 -146 -11 5 -12 3 -1 -10 8 -9 10 -27
6 -47 -4 -18 -9 -46 -12 -63 l-6 -30 15 26 c8 14 17 42 21 61 4 20 24 62 45
93 23 33 37 64 33 73 -3 10 -1 13 6 8 8 -4 8 3 2 25 -13 44 -20 48 -20 10z"/>
<path d="M1150 805 c6 -8 9 -19 5 -25 -3 -5 1 -10 9 -10 20 0 20 14 0 34 -19
20 -31 21 -14 1z"/>
<path d="M2043 808 c-18 -24 -24 -38 -16 -38 11 1 46 50 35 50 -5 0 -14 -6
-19 -12z"/>
<path d="M2365 779 c0 -32 2 -37 11 -25 6 9 15 12 19 8 4 -4 0 7 -11 23 -10
17 -18 31 -19 32 0 1 0 -16 0 -38z"/>
<path d="M1485 800 c-3 -5 -1 -10 4 -10 6 0 11 5 11 10 0 6 -2 10 -4 10 -3 0
-8 -4 -11 -10z"/>
<path d="M2245 799 c-4 -6 -5 -12 -2 -15 2 -3 7 2 10 11 7 17 1 20 -8 4z"/>
<path d="M1945 770 c-9 -16 -13 -30 -11 -30 3 0 12 14 21 30 9 17 13 30 11 30
-3 0 -12 -13 -21 -30z"/>
<path d="M2150 789 c0 -5 5 -7 10 -4 6 3 10 8 10 11 0 2 -4 4 -10 4 -5 0 -10
-5 -10 -11z"/>
<path d="M2304 782 c7 -12 -10 -52 -28 -64 -15 -10 5 -10 21 0 18 11 27 59 12
67 -8 5 -10 4 -5 -3z"/>
<path d="M567 759 c-4 -16 -3 -18 9 -8 16 13 19 29 5 29 -5 0 -11 -9 -14 -21z"/>
<path d="M957 759 c-4 -16 -3 -18 9 -8 7 6 11 15 8 20 -8 13 -11 11 -17 -12z"/>
<path d="M1273 769 c-5 -8 -16 -25 -23 -39 -12 -24 -12 -24 15 3 14 15 25 33
23 38 -2 7 -8 6 -15 -2z"/>
<path d="M1330 770 c0 -5 7 -7 15 -4 8 4 15 8 15 10 0 2 -7 4 -15 4 -8 0 -15
-4 -15 -10z"/>
<path d="M1520 770 c0 -5 5 -10 11 -10 5 0 7 5 4 10 -3 6 -8 10 -11 10 -2 0
-4 -4 -4 -10z"/>
<path d="M2055 727 c-27 -29 -58 -69 -68 -88 l-18 -34 21 25 c87 101 105 120
115 120 6 0 12 7 12 15 0 23 -8 18 -62 -38z"/>
<path d="M2132 771 c4 -13 -14 -51 -22 -46 -4 3 -10 -4 -13 -15 -3 -11 -4 -20
-4 -20 1 0 19 17 40 39 34 35 35 39 17 44 -10 3 -19 2 -18 -2z"/>
<path d="M2567 773 c-4 -3 -7 -31 -6 -62 1 -53 2 -54 10 -21 4 19 6 40 4 47
-2 6 0 13 5 15 5 2 6 9 1 16 -4 7 -10 9 -14 5z"/>
<path d="M1017 756 c-4 -9 -1 -15 6 -13 7 1 11 -6 9 -15 -2 -11 2 -16 10 -13
8 3 20 -11 30 -35 16 -39 16 -40 -9 -59 -13 -11 -22 -25 -18 -31 5 -8 11 -5
19 6 7 9 18 14 25 10 8 -5 10 7 9 42 -2 28 -6 48 -10 46 -7 -5 -39 49 -38 63
2 15 -28 14 -33 -1z"/>
<path d="M2330 765 c0 -5 5 -17 10 -25 5 -8 10 -10 10 -5 0 6 -5 17 -10 25 -5
8 -10 11 -10 5z"/>
<path d="M1390 741 c0 -12 -4 -21 -10 -21 -5 0 -10 -5 -10 -10 0 -6 8 -5 20 2
22 14 26 33 10 43 -5 3 -10 -3 -10 -14z"/>
<path d="M1445 750 c-4 -6 7 -10 25 -10 18 0 29 4 25 10 -3 6 -15 10 -25 10
-10 0 -22 -4 -25 -10z"/>
<path d="M2460 737 c0 -7 -7 -22 -15 -33 -12 -15 -16 -16 -24 -5 -5 8 -11 9
-15 3 -3 -5 2 -13 11 -17 12 -4 24 1 37 17 10 13 22 22 27 21 5 -2 6 4 3 12
-7 18 -24 20 -24 2z"/>
<path d="M2596 734 c-8 -22 -8 -54 2 -54 4 0 7 16 8 35 1 39 -1 42 -10 19z"/>
<path d="M541 724 c0 -11 3 -14 6 -6 3 7 2 16 -1 19 -3 4 -6 -2 -5 -13z"/>
<path d="M1580 718 c0 -13 5 -30 10 -38 7 -11 10 -7 10 17 0 17 -4 35 -10 38
-6 3 -10 -4 -10 -17z"/>
<path d="M1621 681 c-1 -47 2 -62 10 -54 8 8 8 27 1 64 l-10 54 -1 -64z"/>
<path d="M2219 729 c-1 -8 -3 -36 -5 -64 -3 -38 -1 -46 7 -35 9 12 9 11 4 -5
-4 -11 -12 -39 -18 -62 -6 -24 -14 -43 -19 -43 -4 0 -33 -39 -64 -87 -79 -123
-99 -143 -148 -144 l-41 -1 39 -8 c36 -7 41 -5 69 27 16 18 32 31 35 28 7 -7
-88 -105 -102 -105 -5 0 -1 9 8 19 18 20 18 20 -32 1 -43 -16 -66 -19 -146
-13 -71 4 -96 3 -96 -6 0 -9 44 -11 178 -8 182 4 242 12 254 31 14 20 8 28 -8
11 -12 -11 -19 -13 -24 -5 -5 8 -14 8 -35 0 -15 -6 -30 -8 -33 -6 -8 8 59 66
80 69 10 2 25 14 32 28 7 13 20 36 29 50 21 32 20 84 -1 66 -9 -7 -10 -13 -4
-15 14 -4 4 -32 -12 -32 -12 0 -70 -69 -63 -76 2 -2 10 2 17 11 7 8 18 15 24
15 6 0 0 -9 -13 -19 -14 -10 -30 -17 -37 -14 -14 5 82 153 99 153 4 0 5 5 2
10 -3 6 -2 10 4 10 5 0 14 12 19 28 9 23 11 19 11 -33 1 -33 6 -67 11 -75 7
-10 10 23 10 102 0 64 -4 119 -8 122 -4 2 -9 22 -10 42 -3 38 -11 60 -13 33z"/>
<path d="M2000 710 c-6 -11 -8 -20 -6 -20 3 0 10 9 16 20 6 11 8 20 6 20 -3 0
-10 -9 -16 -20z"/>
<path d="M2503 717 c-4 -8 -17 -19 -28 -26 -13 -7 -15 -11 -5 -10 30 3 38 -2
44 -26 4 -14 10 -25 15 -25 5 0 5 17 -1 38 -5 20 -10 43 -10 50 -2 15 -5 15
-15 -1z"/>
<path d="M1145 710 c3 -5 8 -10 11 -10 2 0 4 5 4 10 0 6 -5 10 -11 10 -5 0 -7
-4 -4 -10z"/>
<path d="M870 690 c-7 -13 -7 -20 -1 -20 6 0 15 9 21 20 7 13 7 20 1 20 -6 0
-15 -9 -21 -20z"/>
<path d="M1876 696 c3 -8 13 -17 22 -21 13 -5 13 -2 -3 15 -21 24 -26 25 -19
6z"/>
<path d="M2315 700 c-28 -4 -35 -9 -24 -14 8 -4 27 -2 41 3 14 5 29 7 34 3 4
-4 4 -1 0 6 -4 6 -8 11 -9 11 -1 -1 -20 -5 -42 -9z"/>
<path d="M1110 691 c0 -9 30 -24 36 -18 2 1 -6 8 -16 15 -11 7 -20 8 -20 3z"/>
<path d="M1780 695 c0 -15 18 -40 24 -34 3 3 -1 14 -9 25 -8 10 -14 15 -15 9z"/>
<path d="M960 680 c0 -5 7 -7 15 -4 8 4 15 8 15 10 0 2 -7 4 -15 4 -8 0 -15
-4 -15 -10z"/>
<path d="M2060 675 c-11 -13 -10 -14 4 -9 9 3 16 10 16 15 0 13 -6 11 -20 -6z"/>
<path d="M1041 664 c0 -11 3 -14 6 -6 3 7 2 16 -1 19 -3 4 -6 -2 -5 -13z"/>
<path d="M2447 663 c-11 -11 -8 -20 7 -20 8 0 12 6 9 14 -6 15 -7 15 -16 6z"/>
<path d="M2577 650 c-3 -11 -1 -23 4 -26 5 -3 9 6 9 20 0 31 -6 34 -13 6z"/>
<path d="M2600 651 c0 -11 4 -22 9 -25 4 -3 6 6 3 19 -5 30 -12 33 -12 6z"/>
<path d="M913 642 c15 -9 27 -23 27 -30 0 -7 -4 -11 -8 -8 -12 7 -38 -12 -28
-21 5 -4 11 -3 13 4 2 7 11 9 19 6 8 -3 17 3 20 13 4 11 13 26 20 34 11 13 10
16 -9 16 -12 0 -25 -5 -29 -10 -5 -7 -11 -7 -20 2 -6 6 -17 12 -22 12 -6 0 1
-8 17 -18z"/>
<path d="M2367 632 c-12 -12 -20 -14 -25 -6 -4 7 -15 8 -27 3 -19 -7 -18 -8 4
-8 19 -1 21 -4 12 -15 -8 -10 -9 -16 -1 -21 5 -3 10 1 10 9 0 9 6 16 14 16 15
0 42 28 34 35 -2 2 -12 -3 -21 -13z"/>
<path d="M1125 630 c-3 -5 -2 -10 4 -10 5 0 13 5 16 10 3 6 2 10 -4 10 -5 0
-13 -4 -16 -10z"/>
<path d="M1301 624 c0 -11 3 -14 6 -6 3 7 2 16 -1 19 -3 4 -6 -2 -5 -13z"/>
<path d="M1346 625 c-9 -26 -7 -32 5 -12 6 10 9 21 6 23 -2 3 -7 -2 -11 -11z"/>
<path d="M1480 625 c0 -5 5 -17 10 -25 5 -8 10 -10 10 -5 0 6 -5 17 -10 25 -5
8 -10 11 -10 5z"/>
<path d="M2400 615 c0 -8 2 -15 4 -15 2 0 6 7 10 15 3 8 1 15 -4 15 -6 0 -10
-7 -10 -15z"/>
<path d="M2060 573 c-17 -56 -24 -110 -13 -98 8 9 19 39 38 113 11 38 -13 24
-25 -15z"/>
<path d="M2571 594 c0 -11 3 -14 6 -6 3 7 2 16 -1 19 -3 4 -6 -2 -5 -13z"/>
<path d="M833 576 c7 -14 13 -23 15 -21 7 6 -9 45 -18 45 -4 0 -3 -11 3 -24z"/>
<path d="M1301 584 c0 -11 3 -14 6 -6 3 7 2 16 -1 19 -3 4 -6 -2 -5 -13z"/>
<path d="M1346 575 c-10 -14 -22 -23 -28 -19 -8 5 -9 1 -5 -10 4 -10 2 -26 -3
-37 -8 -14 -8 -24 0 -37 11 -16 11 -16 6 1 -3 9 -1 17 4 17 6 0 10 9 10 19 0
11 5 23 11 26 11 8 32 56 26 62 -3 2 -12 -8 -21 -22z"/>
<path d="M2441 595 c-1 -21 14 -34 29 -25 13 8 13 10 -2 10 -9 0 -19 6 -21 13
-3 6 -6 8 -6 2z"/>
<path d="M2503 572 c0 -16 2 -20 7 -12 5 8 10 9 14 2 10 -16 -36 -54 -58 -48
-14 4 -16 2 -7 -7 9 -9 16 -9 31 1 15 9 20 9 20 0 0 -6 3 -9 6 -6 3 4 5 9 5
12 -1 4 6 20 15 37 8 17 13 33 10 37 -3 3 -6 0 -6 -6 0 -7 -5 -12 -11 -12 -6
0 -9 6 -6 13 3 8 0 14 -6 14 -7 0 -13 -12 -14 -25z"/>
<path d="M2610 591 c0 -6 4 -13 10 -16 6 -3 7 1 4 9 -7 18 -14 21 -14 7z"/>
<path d="M2310 570 c0 -5 5 -10 11 -10 5 0 7 5 4 10 -3 6 -8 10 -11 10 -2 0
-4 -4 -4 -10z"/>
<path d="M867 557 c-11 -29 -9 -43 4 -30 6 6 9 19 7 29 -3 18 -4 18 -11 1z"/>
<path d="M980 560 c0 -5 5 -10 10 -10 6 0 10 5 10 10 0 6 -4 10 -10 10 -5 0
-10 -4 -10 -10z"/>
<path d="M1264 545 c-13 -27 -9 -36 12 -28 14 5 20 53 7 53 -5 0 -13 -11 -19
-25z"/>
<path d="M2336 555 c-3 -8 -1 -15 4 -15 6 0 10 7 10 15 0 8 -2 15 -4 15 -2 0
-6 -7 -10 -15z"/>
<path d="M2360 556 c0 -10 4 -15 9 -12 5 4 12 0 14 -6 4 -8 6 -9 6 -2 1 6 -6
17 -14 24 -12 10 -15 9 -15 -4z"/>
<path d="M2400 558 c0 -11 12 -10 30 2 12 7 10 9 -8 7 -12 0 -22 -5 -22 -9z"/>
<path d="M2580 559 c0 -5 5 -7 10 -4 6 3 10 8 10 11 0 2 -4 4 -10 4 -5 0 -10
-5 -10 -11z"/>
<path d="M805 551 c3 -6 -3 -14 -12 -20 -10 -6 -13 -10 -8 -10 6 0 18 6 28 13
16 12 16 14 2 20 -9 3 -13 2 -10 -3z"/>
<path d="M948 517 c-4 -40 6 -62 24 -51 8 5 12 -17 9 -43 -1 -7 3 -13 10 -13
7 0 9 12 5 38 -5 34 -4 35 5 10 13 -33 20 -35 44 -8 10 11 22 17 27 14 6 -4 5
4 -2 16 -15 29 -6 37 30 23 17 -6 30 -8 30 -3 0 4 -13 13 -29 18 -33 12 -58
-5 -47 -33 3 -9 0 -15 -9 -15 -8 0 -15 -8 -15 -17 -1 -11 -8 -5 -20 17 -11 19
-19 29 -20 22 0 -7 -5 -10 -11 -7 -6 4 -8 13 -5 21 3 8 1 14 -5 14 -6 0 -9 7
-6 15 4 8 2 17 -2 20 -5 3 -11 -14 -13 -38z m22 -37 c0 -5 -2 -10 -4 -10 -3 0
-8 5 -11 10 -3 6 -1 10 4 10 6 0 11 -4 11 -10z"/>
<path d="M2610 546 c0 -9 5 -16 10 -16 6 0 10 4 10 9 0 6 -4 13 -10 16 -5 3
-10 -1 -10 -9z"/>
<path d="M905 529 c-4 -11 -4 -23 -2 -26 9 -8 27 7 27 22 0 23 -18 27 -25 4z"/>
<path d="M1533 523 c-25 -25 -30 -43 -12 -43 5 0 7 -5 4 -10 -4 -6 -11 -8 -16
-5 -11 8 -12 -25 0 -44 7 -11 11 -10 18 5 13 25 37 114 32 117 -2 2 -14 -8
-26 -20z"/>
<path d="M2420 529 c0 -5 5 -7 10 -4 6 3 10 8 10 11 0 2 -4 4 -10 4 -5 0 -10
-5 -10 -11z"/>
<path d="M2570 531 c0 -7 -6 -11 -14 -8 -8 3 -16 -2 -19 -13 -3 -13 0 -17 9
-13 8 3 14 -1 15 -8 0 -8 5 -1 10 15 4 17 6 32 4 35 -3 2 -5 -1 -5 -8z"/>
<path d="M2006 513 c-6 -14 -5 -15 5 -6 7 7 10 15 7 18 -3 3 -9 -2 -12 -12z"/>
<path d="M2313 522 c-18 -2 -33 -7 -33 -12 0 -4 17 -6 39 -3 29 4 39 1 44 -10
4 -10 -1 -18 -12 -22 -13 -4 -17 -12 -14 -25 5 -19 6 -19 24 3 10 13 19 30 21
38 2 8 10 20 18 27 13 11 11 11 -8 2 -13 -6 -28 -8 -35 -3 -7 5 -27 7 -44 5z"/>
<path d="M598 500 c-7 -24 -3 -38 8 -28 3 4 4 17 2 30 l-3 23 -7 -25z"/>
<path d="M2625 500 c3 -6 -5 -14 -19 -20 -14 -5 -26 -14 -26 -20 0 -15 16 -12
30 5 7 8 16 12 21 9 5 -3 9 4 9 15 0 12 -5 21 -11 21 -5 0 -7 -5 -4 -10z"/>
<path d="M520 478 c0 -13 -3 -34 -7 -48 -3 -14 -3 -23 0 -20 11 10 25 90 16
90 -5 0 -9 -10 -9 -22z"/>
<path d="M742 480 c0 -14 2 -19 5 -12 2 6 2 18 0 25 -3 6 -5 1 -5 -13z"/>
<path d="M807 493 c-13 -13 -7 -33 11 -33 14 0 15 2 2 10 -10 6 -11 10 -2 10
6 0 12 5 12 10 0 11 -13 13 -23 3z"/>
<path d="M855 490 c-3 -5 1 -10 9 -10 9 0 16 5 16 10 0 6 -4 10 -9 10 -6 0
-13 -4 -16 -10z"/>
<path d="M1015 490 c4 -6 11 -8 16 -5 14 9 11 15 -7 15 -8 0 -12 -5 -9 -10z"/>
<path d="M1092 483 c4 -17 15 -20 47 -12 7 2 16 -2 19 -10 2 -8 0 -11 -6 -7
-6 3 -13 2 -17 -4 -3 -5 2 -10 12 -10 11 0 25 -6 32 -12 11 -11 13 -10 8 5 -7
20 2 49 13 42 4 -3 10 2 14 10 7 19 1 19 -29 -1 -18 -11 -25 -13 -25 -4 0 7
-7 10 -16 6 -8 -3 -25 -1 -36 5 -17 9 -19 8 -16 -8z"/>
<path d="M1235 487 c-27 -30 -27 -38 -1 -33 13 2 26 1 28 -4 2 -5 12 -2 22 6
19 13 18 14 -12 14 -24 0 -30 4 -26 15 7 18 3 19 -11 2z"/>
<path d="M1355 472 c-16 -15 -37 -26 -47 -24 -9 2 -19 -2 -23 -8 -14 -22 4
-22 49 1 25 12 44 25 41 27 -3 3 0 11 6 19 19 22 6 15 -26 -15z"/>
<path d="M2418 493 c-10 -2 -18 -11 -18 -19 0 -8 -3 -14 -8 -14 -4 0 -13 -10
-21 -22 -13 -21 -13 -22 3 -9 12 10 20 11 28 3 8 -8 14 -7 24 3 8 7 19 15 26
18 7 2 10 8 6 12 -4 4 -14 0 -23 -9 -19 -18 -37 -13 -28 9 5 14 17 19 36 16 4
0 7 4 7 9 0 10 -3 11 -32 3z"/>
<path d="M2460 480 c0 -3 5 -11 11 -17 8 -8 4 -15 -17 -27 -19 -10 -23 -15
-12 -16 9 0 20 5 23 10 4 6 11 7 17 4 6 -4 5 -10 -3 -16 -10 -6 -7 -7 9 -3 16
5 22 2 22 -9 0 -9 7 -16 15 -16 8 0 15 -9 15 -21 0 -11 -5 -17 -10 -14 -6 4
-8 9 -6 13 2 4 -7 8 -20 8 -24 2 -33 -19 -14 -31 6 -3 10 -1 10 4 0 6 5 11 11
11 6 0 9 -9 6 -20 -5 -18 -3 -18 18 -4 21 13 22 19 13 45 -5 16 -15 26 -21 22
-6 -3 -7 -1 -3 5 4 6 13 9 21 5 8 -3 15 0 15 6 0 6 -6 11 -12 11 -8 1 -6 6 5
14 20 15 22 28 5 24 -7 -1 -23 3 -35 10 -13 7 -23 9 -23 4 0 -6 9 -12 19 -15
14 -3 18 -11 14 -26 -6 -24 -8 -25 -33 -11 -11 6 -17 19 -16 33 2 14 -2 24
-11 24 -7 0 -13 -3 -13 -7z"/>
<path d="M905 469 c-10 -15 3 -25 16 -12 7 7 7 13 1 17 -6 3 -14 1 -17 -5z"/>
<path d="M1393 465 c0 -8 3 -14 6 -13 22 2 32 -6 40 -34 9 -32 9 -32 10 15 1
27 -3 47 -10 47 -5 0 -7 -4 -4 -10 8 -13 -1 -13 -24 -1 -13 7 -18 6 -18 -4z"/>
<path d="M840 466 c0 -2 7 -6 15 -10 8 -3 15 -1 15 4 0 6 -7 10 -15 10 -8 0
-15 -2 -15 -4z"/>
<path d="M1610 448 c-24 -20 -24 -20 -2 -14 12 4 22 3 22 -2 0 -10 -29 -26
-42 -24 -5 1 -8 -3 -8 -9 0 -6 -10 -25 -22 -42 l-22 -30 22 -15 c12 -8 22 -24
22 -35 0 -11 8 -26 18 -34 16 -14 16 -14 0 -9 -10 3 -18 1 -18 -5 0 -7 -10 -9
-25 -5 -14 4 -25 2 -25 -3 0 -9 158 -4 169 5 1 1 -22 17 -53 34 -95 54 -76 60
84 27 84 -18 238 -33 229 -23 -3 3 -55 13 -115 21 -137 19 -254 44 -254 55 0
4 7 11 16 14 10 4 14 14 11 26 -3 12 0 20 8 20 16 0 30 33 16 38 -5 2 -7 10
-4 18 7 19 3 17 -27 -8z m-21 -97 c-20 -28 -39 -40 -39 -26 0 9 53 65 58 61 2
-3 -6 -18 -19 -35z"/>
<path d="M2758 463 c6 -2 18 -2 25 0 6 3 1 5 -13 5 -14 0 -19 -2 -12 -5z"/>
<path d="M724 450 c3 -8 9 -23 12 -32 4 -10 10 -18 14 -18 10 0 22 31 15 38
-3 3 -5 -1 -5 -9 0 -9 -8 -5 -21 11 -11 14 -18 18 -15 10z"/>
<path d="M780 450 c0 -5 5 -10 11 -10 5 0 7 5 4 10 -3 6 -8 10 -11 10 -2 0 -4
-4 -4 -10z"/>
<path d="M1555 450 c-3 -5 -2 -10 4 -10 5 0 13 5 16 10 3 6 2 10 -4 10 -5 0
-13 -4 -16 -10z"/>
<path d="M2313 441 c2 -28 -19 -40 -26 -14 -3 10 -4 7 -4 -9 1 -21 5 -25 17
-18 16 8 22 10 43 10 8 0 9 3 1 8 -6 4 -16 16 -22 27 -11 19 -12 19 -9 -4z"/>
<path d="M445 440 c3 -5 8 -10 11 -10 2 0 4 5 4 10 0 6 -5 10 -11 10 -5 0 -7
-4 -4 -10z"/>
<path d="M1070 436 c6 -6 4 -17 -8 -29 -12 -15 -14 -21 -4 -24 6 -3 10 -9 6
-14 -3 -5 0 -9 5 -9 6 0 11 11 11 24 0 14 5 28 10 31 18 11 11 34 -10 32 -13
-1 -16 -5 -10 -11z"/>
<path d="M2718 443 c7 -3 16 -2 19 1 4 3 -2 6 -13 5 -11 0 -14 -3 -6 -6z"/>
<path d="M2771 428 c0 -14 -4 -35 -7 -45 -5 -17 -5 -17 6 0 6 10 9 30 7 45
l-4 27 -2 -27z"/>
<path d="M946 419 c-9 -13 -21 -19 -30 -16 -11 4 -16 1 -16 -10 0 -9 3 -13 7
-10 3 4 12 2 19 -4 16 -13 44 -5 44 11 0 6 -4 8 -10 5 -5 -3 -10 -1 -10 4 0 6
4 11 9 11 5 0 11 7 15 15 8 22 -11 18 -28 -6z"/>
<path d="M1205 430 c-3 -5 -1 -10 4 -10 6 0 11 5 11 10 0 6 -2 10 -4 10 -3 0
-8 -4 -11 -10z"/>
<path d="M1236 427 c3 -10 9 -15 12 -12 3 3 0 11 -7 18 -10 9 -11 8 -5 -6z"/>
<path d="M1370 430 c0 -5 5 -10 11 -10 5 0 7 5 4 10 -3 6 -8 10 -11 10 -2 0
-4 -4 -4 -10z"/>
<path d="M482 353 c-9 -61 -9 -78 1 -85 19 -12 27 -9 27 10 0 13 -2 14 -9 3
-5 -7 -11 -9 -14 -5 -8 14 4 65 14 58 8 -5 6 82 -3 91 -2 2 -9 -30 -16 -72z"/>
<path d="M1121 415 c0 -11 6 -31 14 -45 18 -31 18 -16 0 30 -9 23 -14 28 -14
15z"/>
<path d="M1470 402 c0 -29 2 -31 20 -20 12 8 15 15 8 19 -6 4 -14 13 -19 20
-6 10 -9 4 -9 -19z"/>
<path d="M2658 383 c-5 -54 1 -77 13 -47 11 27 11 94 0 94 -5 0 -11 -21 -13
-47z"/>
<path d="M345 410 c-3 -5 3 -10 14 -10 12 0 21 5 21 10 0 6 -6 10 -14 10 -8 0
-18 -4 -21 -10z"/>
<path d="M567 400 c-3 -11 -1 -20 4 -20 5 0 9 9 9 20 0 11 -2 20 -4 20 -2 0
-6 -9 -9 -20z"/>
<path d="M812 393 c-13 -14 -21 -28 -18 -31 7 -6 46 36 46 50 0 11 -1 10 -28
-19z"/>
<path d="M1146 406 c3 -8 12 -17 21 -20 11 -5 13 -2 9 10 -3 8 -6 18 -6 20 0
2 -7 4 -15 4 -8 0 -12 -6 -9 -14z"/>
<path d="M1539 403 c-13 -16 -12 -17 4 -4 16 13 21 21 13 21 -2 0 -10 -8 -17
-17z"/>
<path d="M2610 411 c-8 -6 -17 -8 -21 -5 -11 6 -18 -9 -21 -45 -1 -19 -8 -31
-16 -31 -27 0 -53 -42 -47 -74 6 -30 5 -30 -10 -11 -9 11 -14 30 -12 43 2 12
1 22 -3 22 -4 0 -11 12 -15 27 -3 15 -12 31 -18 35 -7 4 -12 13 -12 19 0 7 -6
14 -14 17 -10 3 -12 0 -8 -12 4 -10 7 -22 7 -27 0 -6 5 -7 12 -3 8 5 9 2 5
-10 -4 -10 -3 -15 3 -11 13 8 27 -30 25 -66 -1 -16 2 -26 7 -23 4 3 8 1 8 -5
0 -19 -19 -21 -29 -4 -6 10 -11 12 -11 6 0 -7 -11 -13 -25 -13 -14 0 -25 -4
-25 -10 0 -16 -40 -12 -57 6 -13 13 -18 13 -25 2 -7 -9 -8 -7 -4 7 2 11 7 35
11 52 4 18 12 36 18 40 7 5 18 22 26 38 12 28 14 28 22 10 4 -11 8 -17 8 -13
1 3 4 13 7 22 4 11 0 16 -12 16 -31 0 -102 -123 -103 -178 -1 -19 2 -21 17
-13 11 6 24 6 36 -1 10 -6 37 -7 63 -3 25 4 72 6 104 6 l59 0 -5 31 c-5 27 -4
30 10 18 12 -10 15 -10 15 1 0 9 3 10 11 2 15 -15 3 -34 -16 -26 -11 4 -13 1
-9 -11 3 -9 15 -16 25 -16 17 0 19 8 19 60 0 47 -3 58 -14 54 -8 -3 -17 0 -22
7 -4 7 -3 10 3 6 6 -4 9 4 7 21 -2 15 -1 20 2 12 6 -14 39 -50 46 -50 2 0 4 8
4 19 0 10 -6 17 -12 14 -21 -8 -27 18 -8 38 19 21 17 24 -6 10z m-12 -113 c2
-11 -5 -15 -25 -14 -21 1 -28 -4 -27 -17 1 -9 -2 -17 -8 -17 -5 0 -6 -5 -2
-12 4 -6 3 -8 -3 -5 -17 11 -21 52 -6 66 7 6 17 9 22 6 5 -3 13 -1 16 5 9 15
29 7 33 -12z"/>
<path d="M406 403 c-11 -11 -6 -23 9 -23 8 0 15 4 15 9 0 13 -16 22 -24 14z"/>
<path d="M600 400 c0 -5 7 -10 15 -10 8 0 15 5 15 10 0 6 -7 10 -15 10 -8 0
-15 -4 -15 -10z"/>
<path d="M775 400 c-3 -5 -1 -10 4 -10 6 0 11 5 11 10 0 6 -2 10 -4 10 -3 0
-8 -4 -11 -10z"/>
<path d="M870 390 c0 -19 3 -21 12 -12 9 9 9 15 0 24 -9 9 -12 7 -12 -12z"/>
<path d="M1103 393 c3 -12 0 -24 -7 -27 -6 -2 -3 -5 7 -5 19 -1 22 16 6 39 -9
12 -10 11 -6 -7z"/>
<path d="M1355 390 c-4 -11 -11 -18 -16 -14 -6 3 -5 -3 3 -15 13 -22 19 -17
32 27 4 12 3 22 -3 22 -5 0 -13 -9 -16 -20z"/>
<path d="M2240 374 c0 -21 -4 -33 -10 -29 -5 3 -10 2 -10 -4 0 -5 5 -13 10
-16 6 -3 10 -16 10 -28 0 -18 -2 -19 -10 -7 -8 13 -10 13 -10 -1 0 -9 7 -19
15 -23 13 -4 15 7 15 69 0 41 -2 75 -5 75 -3 0 -5 -16 -5 -36z"/>
<path d="M525 390 c-3 -5 -1 -10 4 -10 6 0 11 5 11 10 0 6 -2 10 -4 10 -3 0
-8 -4 -11 -10z"/>
<path d="M660 395 c0 -5 5 -17 10 -25 5 -8 10 -10 10 -5 0 6 -5 17 -10 25 -5
8 -10 11 -10 5z"/>
<path d="M1221 384 c0 -11 3 -14 6 -6 3 7 2 16 -1 19 -3 4 -6 -2 -5 -13z"/>
<path d="M1285 390 c-3 -5 -1 -10 4 -10 6 0 11 5 11 10 0 6 -2 10 -4 10 -3 0
-8 -4 -11 -10z"/>
<path d="M717 383 c-4 -3 -7 -14 -7 -24 0 -13 5 -16 16 -12 13 5 13 7 2 14
-10 7 -10 9 0 9 6 0 12 5 12 10 0 11 -13 13 -23 3z"/>
<path d="M1875 380 c3 -5 8 -10 11 -10 2 0 4 5 4 10 0 6 -5 10 -11 10 -5 0 -7
-4 -4 -10z"/>
<path d="M2298 379 c-10 -5 -18 -20 -17 -32 0 -15 2 -17 6 -7 3 8 15 23 27 32
23 19 12 24 -16 7z"/>
<path d="M833 365 c-16 -17 -17 -35 -2 -35 5 0 7 5 4 10 -3 6 1 13 9 16 9 3
16 10 16 15 0 13 -13 10 -27 -6z"/>
<path d="M1206 360 c12 -13 27 -21 33 -19 6 2 -4 12 -22 22 l-32 18 21 -21z"/>
<path d="M1500 370 c-8 -5 -10 -10 -5 -10 6 0 17 5 25 10 8 5 11 10 5 10 -5 0
-17 -5 -25 -10z"/>
<path d="M1640 373 c0 -13 19 -28 45 -36 20 -7 20 -7 1 8 -19 14 -19 15 10 15
16 0 46 -9 65 -19 29 -16 54 -19 128 -18 76 2 88 4 74 15 -9 6 -24 10 -32 8
-57 -17 -90 -16 -138 3 -61 24 -153 38 -153 24z"/>
<path d="M1950 370 c0 -5 5 -10 11 -10 7 0 18 -8 25 -17 7 -10 14 -13 14 -6 0
14 -27 43 -41 43 -5 0 -9 -4 -9 -10z"/>
<path d="M2716 371 c-7 -11 3 -41 13 -41 4 0 16 6 26 14 18 13 17 14 -10 9
-29 -5 -29 -5 -10 11 17 13 18 15 3 16 -9 0 -19 -4 -22 -9z"/>
<path d="M566 355 c-3 -8 -1 -15 4 -15 6 0 10 7 10 15 0 8 -2 15 -4 15 -2 0
-6 -7 -10 -15z"/>
<path d="M1420 360 c0 -5 5 -10 10 -10 6 0 10 5 10 10 0 6 -4 10 -10 10 -5 0
-10 -4 -10 -10z"/>
<path d="M605 350 c-3 -5 1 -10 9 -10 8 0 18 5 21 10 3 6 -1 10 -9 10 -8 0
-18 -4 -21 -10z"/>
<path d="M680 350 c-9 -6 -10 -10 -3 -10 6 0 15 5 18 10 8 12 4 12 -15 0z"/>
<path d="M1167 344 c4 -10 0 -22 -12 -30 -16 -12 -15 -13 10 -11 16 1 30 8 31
15 1 7 0 8 -3 2 -8 -18 -21 -11 -16 9 3 10 0 22 -6 25 -7 5 -8 1 -4 -10z"/>
<path d="M1316 328 c2 -44 3 -45 13 -30 9 14 3 62 -8 62 -4 0 -6 -15 -5 -32z"/>
<path d="M1498 341 c-15 -18 -15 -20 1 -35 11 -10 21 -12 31 -6 12 8 10 10 -7
10 -13 0 -23 4 -23 9 0 5 10 16 23 24 16 11 18 16 7 16 -9 1 -23 -8 -32 -18z"/>
<path d="M1104 335 c-3 -8 -4 -20 -2 -27 3 -7 7 -1 10 15 6 29 1 36 -8 12z"/>
<path d="M1270 346 c0 -2 7 -6 15 -10 8 -3 15 -1 15 4 0 6 -7 10 -15 10 -8 0
-15 -2 -15 -4z"/>
<path d="M530 321 c0 -25 6 -27 13 -6 4 8 2 17 -3 20 -6 4 -10 -3 -10 -14z"/>
<path d="M772 327 c-9 -11 -10 -17 -2 -22 15 -9 23 -1 18 21 -3 15 -4 16 -16
1z"/>
<path d="M1723 333 c9 -2 23 -2 30 0 6 3 -1 5 -18 5 -16 0 -22 -2 -12 -5z"/>
<path d="M427 316 c-6 -14 0 -26 13 -26 3 0 6 9 6 20 0 23 -11 27 -19 6z"/>
<path d="M620 320 c0 -5 4 -10 9 -10 6 0 13 5 16 10 3 6 -1 10 -9 10 -9 0 -16
-4 -16 -10z"/>
<path d="M681 298 c-7 -18 -25 -43 -40 -55 l-26 -23 48 0 c47 0 47 0 46 33 -1
17 -4 42 -7 55 -7 21 -8 21 -21 -10z"/>
<path d="M1420 319 c0 -5 4 -8 9 -4 5 3 12 1 16 -5 3 -5 14 -10 23 -10 11 0 6
6 -12 15 -34 18 -36 18 -36 4z"/>
<path d="M2682 305 c0 -16 3 -39 8 -50 9 -20 9 -20 8 0 0 11 -4 34 -8 50 l-8
30 0 -30z"/>
<path d="M735 293 c16 -39 17 -55 6 -63 -8 -4 4 -10 30 -14 23 -4 44 -4 47 -1
3 3 -4 5 -16 5 -20 0 -52 47 -52 77 0 7 -5 13 -11 13 -7 0 -8 -7 -4 -17z"/>
<path d="M1057 303 c-3 -5 -2 -16 2 -25 4 -12 10 -15 21 -8 12 8 12 10 -3 16
-9 3 -14 10 -11 15 3 5 3 9 0 9 -3 0 -7 -3 -9 -7z"/>
<path d="M1280 285 c-11 -13 -15 -13 -21 -3 -5 7 -9 9 -9 3 0 -27 16 -32 33
-9 20 26 17 33 -3 9z"/>
<path d="M816 275 c-3 -8 -1 -15 4 -15 6 0 10 7 10 15 0 8 -2 15 -4 15 -2 0
-6 -7 -10 -15z"/>
<path d="M1146 274 c-11 -10 -16 -11 -16 -3 0 7 -3 10 -6 6 -3 -3 -3 -15 1
-27 l7 -22 12 23 c7 13 18 23 25 21 7 -1 10 2 6 8 -8 13 -11 13 -29 -6z"/>
<path d="M1406 282 c-3 -5 1 -9 9 -9 8 0 15 4 15 9 0 4 -4 8 -9 8 -6 0 -12 -4
-15 -8z"/>
<path d="M620 269 c0 -5 5 -7 10 -4 6 3 10 8 10 11 0 2 -4 4 -10 4 -5 0 -10
-5 -10 -11z"/>
<path d="M541 254 c0 -11 3 -14 6 -6 3 7 2 16 -1 19 -3 4 -6 -2 -5 -13z"/>
<path d="M1185 260 c-4 -6 -12 -7 -18 -4 -8 5 -8 3 0 -6 20 -22 41 -21 36 1
-6 22 -9 23 -18 9z"/>
<path d="M1458 249 c-20 -21 -8 -25 23 -8 11 5 17 14 14 20 -9 13 -17 10 -37
-12z"/>
<path d="M836 245 c-11 -30 32 -35 319 -35 245 0 284 2 273 14 -7 8 -14 10
-16 5 -6 -15 -162 -11 -162 4 0 8 -4 7 -10 -3 -8 -13 -10 -13 -10 -1 0 12 -3
12 -12 3 -8 -8 -64 -12 -185 -12 -144 0 -173 2 -173 14 0 21 -17 29 -24 11z"/>
<path d="M1025 250 c-3 -5 -1 -10 4 -10 6 0 11 5 11 10 0 6 -2 10 -4 10 -3 0
-8 -4 -11 -10z"/>
<path d="M1300 251 c0 -6 4 -13 10 -16 6 -3 7 1 4 9 -7 18 -14 21 -14 7z"/>
<path d="M2190 245 c-14 -16 -10 -18 14 -9 9 3 16 10 16 15 0 14 -16 11 -30
-6z"/>
<path d="M2671 238 c-1 -10 -12 -18 -28 -21 -16 -2 51 -4 147 -3 166 0 167 1
33 3 -124 3 -142 6 -146 21 -4 15 -5 16 -6 0z"/>
<path d="M2130 230 c-12 -8 -9 -10 13 -10 15 0 27 5 27 10 0 13 -20 13 -40 0z"/>
<path d="M285 220 l-220 -6 273 -1 c151 -1 271 1 269 4 -8 8 -91 8 -322 3z"/>
<path d="M2218 213 c12 -2 30 -2 40 0 9 3 -1 5 -23 4 -22 0 -30 -2 -17 -4z"/>
<path d="M74 171 c-2 -2 -4 -8 -4 -13 0 -4 650 -8 1445 -8 950 0 1445 3 1445
10 0 10 -2876 20 -2886 11z"/>
</g>
</svg>
