<?xml version="1.0" standalone="no"?>
<!DOCTYPE svg PUBLIC "-//W3C//DTD SVG 20010904//EN"
 "http://www.w3.org/TR/2001/REC-SVG-20010904/DTD/svg10.dtd">
<svg version="1.0" xmlns="http://www.w3.org/2000/svg"
 width="300.000000pt" height="199.000000pt" viewBox="0 0 300.000000 199.000000"
 preserveAspectRatio="xMidYMid meet">
<metadata>
Created by potrace 1.10, written by Peter Selinger 2001-2011
</metadata>
<g transform="translate(0.000000,199.000000) scale(0.050000,-0.050000)"
fill="#000000" stroke="none">
<path d="M2744 3935 c-18 -38 -22 -39 -23 -8 -1 49 -50 30 -53 -21 -2 -43 -67
-144 -93 -145 -8 -1 -15 -12 -15 -26 -1 -33 -116 -107 -196 -124 -35 -8 -69
-23 -76 -34 -26 -43 15 -39 123 12 66 32 126 48 146 40 28 -12 28 -15 3 -23
-16 -5 -70 -28 -120 -51 -87 -41 -100 -45 -155 -52 -14 -2 -25 -21 -25 -42 0
-27 10 -36 30 -28 17 6 30 25 30 42 0 24 6 25 30 5 17 -14 30 -17 30 -7 0 9
18 29 40 42 22 14 39 19 38 10 -18 -111 49 -163 91 -70 11 23 35 41 54 39 31
-2 30 -10 -13 -66 -53 -69 -44 -89 45 -117 25 -7 45 -23 45 -34 0 -12 14 -16
31 -9 20 7 53 -14 92 -58 78 -90 265 -147 357 -109 6 2 17 3 25 1 68 -11 295
188 295 257 0 17 20 20 63 10 41 -9 58 -6 49 7 -20 33 26 50 59 23 20 -16 29
-17 29 -2 0 12 -31 36 -70 52 -38 16 -70 34 -70 40 0 19 97 -9 317 -92 127
-48 224 -74 250 -66 29 8 35 6 17 -7 -32 -21 344 -153 388 -136 18 7 28 -3 28
-29 0 -21 -9 -39 -20 -39 -11 0 -18 -22 -15 -50 2 -27 16 -50 31 -50 14 0 24
16 21 35 -10 59 19 88 62 61 29 -18 45 -18 67 1 22 18 32 18 38 2 8 -26 116
-5 116 23 0 10 12 18 28 18 51 0 78 54 32 66 -22 5 -40 2 -40 -8 0 -10 -17
-18 -39 -18 -21 0 -44 -9 -51 -20 -18 -30 -50 -4 -50 41 0 32 8 35 49 19 100
-38 46 73 -72 148 -92 59 -190 80 -146 31 34 -38 34 -39 -37 -39 -82 0 -111
-28 -59 -58 29 -17 22 -21 -35 -20 -38 1 -59 6 -45 11 35 14 31 47 -5 47 -17
0 -40 23 -50 50 -20 52 -105 71 -131 29 -7 -11 -31 -15 -53 -8 -23 7 -51 15
-63 18 -85 17 -210 59 -249 84 -26 16 -65 24 -90 17 -30 -9 -36 -7 -18 6 20
13 8 27 -46 53 -83 39 -83 83 0 77 52 -4 53 -3 18 23 -21 15 -42 25 -48 21
-41 -25 -140 102 -109 140 17 22 26 29 19 15 -8 -16 3 -25 30 -25 23 0 37 -8
31 -19 -7 -10 12 -17 42 -15 30 3 58 16 63 31 4 14 -4 24 -19 22 -49 -7 -70 1
-117 41 -25 21 -53 34 -63 28 -9 -6 -17 -1 -17 11 0 13 -58 21 -152 21 -112 0
-149 -6 -143 -25 5 -14 29 -22 53 -19 117 18 221 -145 222 -348 0 -139 -103
-265 -296 -358 -303 -146 -604 265 -409 557 51 75 176 160 208 141 7 -4 24 6
37 22 22 26 7 30 -114 30 -125 0 -142 -5 -162 -45z m1886 -644 c0 -44 -28 -58
-68 -33 -38 24 -11 87 33 78 19 -4 35 -24 35 -45z"/>
<path d="M5840 3942 c131 -69 160 -71 160 -13 0 49 -5 51 -115 50 l-115 -1 70
-36z"/>
<path d="M5097 3945 c14 -11 26 -25 25 -32 -3 -40 24 -75 40 -50 13 21 21 22
41 2 20 -20 19 -25 -3 -25 -22 0 -23 -5 -3 -25 20 -20 28 -19 41 3 14 22 21
20 37 -8 23 -42 123 -57 163 -24 22 19 30 18 37 -1 5 -14 16 -21 25 -15 9 5
12 -7 7 -27 -7 -27 3 -41 36 -50 74 -20 101 -16 84 12 -11 19 -8 20 14 2 16
-12 70 -29 119 -37 113 -19 189 -73 154 -110 -13 -14 1 -9 31 10 84 53 62 101
-50 109 -8 1 -62 18 -120 39 -58 20 -145 49 -195 63 -49 15 -96 35 -102 45 -7
10 -50 19 -95 21 -55 2 -83 12 -83 30 0 18 -14 24 -40 17 -22 -6 -40 -3 -40 6
0 8 -16 20 -35 25 -19 6 -53 17 -75 25 -28 10 -32 8 -13 -5z"/>
<path d="M5570 3943 c-22 -22 -8 -46 21 -35 18 6 26 3 19 -8 -7 -11 -3 -20 9
-20 11 0 21 11 21 25 1 19 4 19 17 -1 17 -27 203 -91 203 -71 0 7 13 1 30 -13
16 -13 26 -30 22 -37 -5 -7 13 -13 40 -13 31 0 48 12 48 32 0 35 -220 113
-256 91 -11 -7 -25 0 -30 15 -11 26 -125 55 -144 35z"/>
<path d="M1 3915 c5 -80 34 -106 57 -49 29 74 29 74 -18 74 -22 0 -39 -11 -39
-25z"/>
<path d="M2441 3921 c-26 -7 -52 -23 -56 -37 -6 -18 4 -19 44 -4 37 14 63 13
90 -4 29 -18 45 -18 69 2 44 37 20 64 -37 42 -27 -10 -51 -11 -55 -3 -3 9 -28
10 -55 4z"/>
<path d="M2195 3885 c-19 -4 -35 -16 -35 -26 0 -10 -13 -13 -28 -7 -15 6 -34
1 -42 -12 -10 -16 20 -21 98 -18 63 3 113 14 113 26 1 12 10 0 21 -28 16 -40
24 -43 38 -20 22 35 -3 65 -55 69 -19 2 -45 8 -55 13 -11 6 -36 7 -55 3z"/>
<path d="M1925 3771 c-58 -24 -98 -51 -90 -60 8 -9 -5 -10 -28 -3 -35 11 -43
6 -38 -22 7 -43 69 -38 105 7 13 17 33 25 44 18 11 -7 37 4 56 23 20 20 56 33
81 30 51 -8 61 25 13 44 -17 7 -33 11 -35 10 -1 -1 -50 -22 -108 -47z"/>
<path d="M5035 3807 c14 -6 20 -19 14 -28 -6 -10 3 -13 21 -6 17 6 29 4 26 -6
-6 -18 10 -27 49 -26 14 0 4 18 -22 40 -26 21 -62 38 -80 37 -21 -1 -24 -5 -8
-11z"/>
<path d="M3072 3785 c-22 -21 -12 -45 18 -45 17 0 30 -13 30 -30 0 -16 10 -30
22 -30 12 0 17 14 10 32 -7 17 -12 39 -12 47 0 22 -53 42 -68 26z"/>
<path d="M3243 3784 c5 -39 -6 -51 -23 -24 -17 26 -19 25 -20 -4 0 -18 9 -39
20 -46 11 -7 20 -2 20 11 0 13 14 18 30 12 18 -7 30 -1 30 15 0 15 -13 33 -30
39 -16 6 -29 5 -27 -3z"/>
<path d="M2905 3749 c-36 -15 -65 -30 -65 -35 0 -15 121 11 132 30 20 32 1 34
-67 5z"/>
<path d="M2200 3717 c0 -12 -16 -35 -35 -49 -23 -18 -26 -27 -9 -27 15 -1 4
-21 -24 -48 -39 -35 -45 -52 -27 -70 15 -15 16 -23 1 -23 -12 0 -25 -16 -31
-35 -10 -39 -200 -116 -234 -96 -12 8 -21 5 -21 -6 0 -25 -378 -152 -396 -134
-22 22 79 87 119 76 52 -13 141 12 126 36 -8 13 9 16 44 9 45 -10 50 -8 24 9
-21 13 -65 14 -128 3 -53 -10 -109 -13 -126 -7 -21 8 -26 3 -18 -19 9 -22 -9
-37 -64 -53 -109 -33 -139 -30 -128 14 7 26 -3 41 -31 48 -50 13 -61 115 -12
115 17 0 30 10 30 22 0 12 12 18 27 12 33 -13 81 15 70 41 -4 10 -112 -11
-247 -49 -225 -63 -439 -116 -720 -177 -66 -14 -178 -30 -250 -34 -161 -11
-187 -55 -56 -94 47 -14 95 -32 106 -41 60 -46 291 -79 505 -71 124 4 230 -1
236 -11 6 -10 2 -18 -9 -18 -11 0 -22 -34 -26 -75 l-6 -75 -130 7 c-275 13
-473 54 -538 110 -34 29 -150 73 -195 73 -19 0 -27 -29 -27 -100 0 -60 9 -100
22 -100 14 0 18 -19 10 -50 -9 -36 -5 -50 16 -50 16 0 33 16 38 35 7 26 10 24
12 -10 2 -53 17 -56 63 -14 32 29 37 25 66 -55 l32 -86 -12 98 c-10 75 -7 94
12 82 33 -20 6 73 -27 95 -14 9 -11 14 9 15 17 0 69 -28 115 -62 97 -71 104
-111 42 -227 l-42 -79 64 -58 64 -57 39 41 c49 53 71 53 88 0 9 -28 -1 -56
-31 -88 -50 -53 -44 -89 32 -201 40 -59 45 -78 25 -91 -21 -13 -22 -21 -2 -41
20 -20 25 -20 25 0 0 19 8 18 30 -4 16 -17 30 -44 30 -61 0 -16 22 -53 48 -82
112 -120 143 -274 58 -286 -32 -5 -52 10 -75 54 -17 33 -58 76 -91 95 -33 20
-60 47 -60 61 0 14 -16 26 -35 27 -21 0 -11 11 26 27 41 18 61 42 63 74 3 47
3 47 -26 -6 -18 -35 -39 -50 -58 -43 -35 13 -39 39 -10 57 36 22 21 46 -22 35
-38 -10 -40 -6 -20 32 13 24 33 43 44 43 12 0 33 13 49 28 24 24 17 27 -49 21
-75 -8 -76 -7 -73 60 3 48 -4 64 -23 57 -16 -7 -26 5 -26 32 0 23 -9 42 -20
42 -11 0 -19 -25 -16 -56 2 -30 -2 -65 -10 -77 -7 -12 16 -37 54 -57 65 -35
66 -37 35 -91 -28 -50 -28 -58 6 -110 33 -50 33 -54 2 -42 -25 9 -32 4 -27
-22 3 -19 28 -38 53 -42 41 -5 46 -14 35 -66 -12 -62 26 -217 54 -217 9 0 11
-9 4 -20 -31 -50 -90 35 -90 131 0 37 -11 49 -42 49 -37 0 -41 -8 -30 -63 6
-34 12 -123 12 -197 0 -148 18 -171 113 -147 44 11 49 21 43 91 l-6 79 120 51
c82 34 162 51 250 53 l130 3 -5 -99 c-6 -118 -73 -189 -180 -190 -44 -1 -65
-11 -65 -31 0 -31 121 -30 400 6 l110 14 -170 10 -170 10 64 39 c49 30 59 45
43 65 -37 44 18 31 64 -15 36 -36 44 -37 71 -10 24 24 25 31 4 32 -14 0 3 25
39 55 49 41 60 61 45 84 -17 26 -19 25 -20 -4 0 -30 -70 -96 -102 -96 -24 0 7
103 35 114 17 6 22 27 15 57 -19 76 14 102 43 33 23 -55 97 -102 122 -78 5 6
-12 45 -38 87 -61 97 -82 219 -50 292 29 64 85 77 65 15 -8 -25 -4 -40 11 -40
18 0 18 -7 -1 -30 -19 -23 -19 -30 -1 -30 17 0 20 -19 11 -61 -9 -42 -4 -73
15 -95 37 -44 57 -100 38 -108 -34 -14 -105 -299 -103 -410 5 -264 -26 -347
-195 -511 l-75 -73 -346 -4 c-405 -4 -383 -15 -394 209 -5 96 -15 184 -22 197
-8 13 -5 17 7 9 13 -8 30 37 45 118 29 151 16 194 -18 60 -35 -141 -46 -108
-31 95 9 117 5 239 -10 328 l-24 142 -62 -17 c-34 -10 -63 -16 -64 -14 0 3
-12 25 -26 49 -18 34 -19 48 -1 59 13 8 27 3 31 -9 13 -37 45 -28 46 11 1 25
8 21 23 -15 19 -43 23 -45 31 -14 6 24 20 33 41 25 28 -11 28 -8 -2 25 -61 67
-9 157 59 101 30 -24 31 -23 11 15 -15 29 -16 48 -1 63 14 14 15 33 1 56 -18
33 -21 32 -42 -8 -22 -41 -27 -42 -83 -13 -32 17 -63 31 -69 30 -44 -1 -47 4
-27 49 20 43 26 45 52 19 27 -27 34 -26 68 10 44 48 48 70 8 55 -17 -6 -35 -2
-42 8 -7 11 -1 18 12 14 13 -3 28 5 33 18 5 15 -17 22 -63 21 -46 -1 -71 -12
-71 -29 0 -15 -8 -22 -19 -16 -10 6 -24 -7 -31 -30 -11 -35 -18 -37 -45 -15
-28 23 -30 19 -17 -34 8 -33 26 -66 39 -75 17 -11 16 -19 -4 -32 -20 -13 -23
-46 -12 -131 19 -152 -26 -421 -65 -388 -15 12 -32 17 -38 11 -6 -6 17 -30 51
-54 33 -24 61 -54 61 -66 0 -16 -7 -16 -24 1 -39 39 -54 27 -38 -31 9 -30 14
-75 12 -99 -2 -24 10 -49 26 -55 22 -9 27 4 20 59 -4 38 -2 70 5 70 22 0 57
-94 49 -133 -4 -20 -18 -118 -31 -217 -13 -99 -49 -306 -81 -461 -65 -312 -74
-449 -31 -449 57 0 204 63 253 108 65 60 140 90 98 39 -24 -29 -24 -32 2 -24
74 24 48 123 -28 109 -98 -19 -90 6 28 83 57 37 100 80 100 100 0 34 221 42
533 20 l64 -5 -124 -136 -123 -135 -160 -7 c-242 -11 -257 -18 -65 -31 l174
-11 -108 -120 c-84 -93 -101 -122 -75 -127 21 -5 77 41 154 125 l120 133 240
-1 c244 0 437 53 312 85 -24 7 -39 2 -36 -12 3 -16 -68 -25 -233 -29 -270 -6
-264 -18 -90 172 102 113 78 107 437 103 83 0 180 3 216 9 37 5 64 2 60 -6
-79 -196 -163 -282 -277 -282 -32 0 -59 -10 -59 -21 0 -13 17 -16 40 -9 107
34 124 -3 60 -131 -68 -134 -69 -139 -35 -139 14 0 51 56 82 125 75 163 49
154 460 155 l356 0 -10 -55 c-38 -199 -38 -229 0 -222 28 6 42 36 57 131 11
68 25 127 30 132 31 27 703 29 713 2 6 -15 24 -28 39 -28 16 0 22 12 15 30
-10 26 22 30 216 30 125 1 286 6 357 12 l130 12 38 -67 c100 -175 164 -257
198 -257 41 0 31 22 -125 257 -39 59 -100 154 -135 210 -35 57 -72 117 -83
133 -16 26 2 30 127 30 80 0 136 -7 123 -15 -22 -14 -3 -23 33 -17 47 8 249
27 279 26 61 -2 24 58 -65 106 -24 13 -25 11 -5 -11 47 -51 25 -56 -200 -48
-124 4 -249 8 -279 9 -40 0 -68 20 -105 75 -69 100 -66 105 49 105 55 0 100 9
100 20 0 11 -53 20 -119 20 -108 0 -122 5 -160 58 -59 83 -55 87 84 81 265
-12 400 -1 388 31 -7 17 -2 30 10 30 12 0 17 -18 11 -40 -11 -42 34 -80 95
-80 24 0 31 22 31 96 0 120 34 319 65 380 28 56 0 81 -79 73 -48 -6 -46 -1 36
84 90 91 53 104 -40 14 -70 -69 -89 -60 -73 38 8 47 15 100 17 118 1 18 14 28
28 23 15 -6 26 4 26 23 0 18 -7 29 -15 24 -8 -5 -15 12 -15 39 0 35 9 45 33
37 19 -6 39 -2 45 8 18 29 -9 85 -33 70 -14 -9 -17 -1 -8 21 8 23 5 33 -10 28
-13 -5 -26 -25 -29 -45 -3 -20 -17 -44 -32 -53 -30 -19 -36 -58 -13 -89 32
-44 -6 -113 -56 -104 -36 7 -47 1 -47 -29 0 -25 9 -33 25 -24 14 8 10 -2 -8
-24 -32 -36 -1 -135 34 -111 41 27 49 -22 31 -183 -11 -96 -16 -187 -11 -201
6 -14 -10 -48 -35 -75 -49 -54 -38 -53 -376 -42 l-150 5 -65 99 c-73 111 -78
129 -35 113 17 -7 30 -1 30 13 1 17 5 17 15 2 16 -24 190 -36 249 -17 41 13
15 69 -31 69 -13 0 -9 -10 7 -21 21 -14 -29 -18 -165 -14 -107 3 -195 3 -195
1 0 -2 31 -56 70 -120 62 -103 66 -117 35 -129 -98 -39 -117 -24 -143 118 -31
170 -147 542 -157 504 -24 -87 -26 -90 -46 -58 -10 16 -19 49 -19 74 0 25 -9
45 -20 45 -31 0 -24 39 17 91 45 57 68 44 42 -24 -27 -71 -24 -107 9 -95 15 6
23 27 18 46 -5 20 9 66 32 103 37 61 38 71 10 101 -22 25 -24 38 -7 49 17 10
17 18 -2 29 -40 25 -5 84 46 76 37 -5 45 -19 45 -76 0 -68 3 -70 90 -81 67 -8
81 -16 55 -27 -20 -9 -57 -12 -83 -8 -47 10 -60 -23 -99 -256 -4 -23 -13 -51
-20 -63 -15 -24 176 -41 477 -43 110 0 208 -1 217 -1 26 -1 -5 -102 -48 -157
-40 -51 -54 -184 -19 -184 10 0 26 25 34 55 l14 55 11 -60 c9 -48 22 -60 61
-60 66 0 76 66 18 127 l-43 47 41 82 c31 60 36 89 21 108 -12 14 -16 26 -9 26
7 0 3 19 -10 43 -19 37 -18 41 11 30 21 -8 28 -5 20 9 -7 11 -25 16 -41 10
-22 -9 -72 47 -78 88 -1 6 -17 39 -36 74 -44 83 -43 90 11 82 29 -4 47 -22 51
-51 4 -25 15 -40 26 -34 10 6 24 -3 30 -20 16 -40 60 -40 76 1 17 45 16 48
-24 48 -45 0 -85 38 -82 79 1 21 4 23 11 6 20 -49 93 -74 78 -27 -8 25 -5 42
8 42 11 0 21 24 21 52 0 44 -7 51 -44 41 -24 -6 -57 0 -74 13 -24 20 -27 18
-17 -10 9 -24 5 -31 -14 -23 -42 16 -53 62 -14 60 20 -2 35 14 39 42 5 35 -3
45 -36 45 -23 0 -37 -8 -31 -19 6 -10 3 -24 -9 -31 -13 -8 -20 31 -20 105 0
64 -9 126 -21 138 -26 26 7 186 45 210 40 25 136 20 146 -8 25 -71 25 -144 1
-182 -35 -56 -7 -139 44 -129 28 6 34 25 30 100 -3 51 3 99 15 106 11 7 20 -1
20 -16 0 -40 71 -55 112 -25 30 22 31 36 10 120 -28 113 -11 144 90 163 85 16
128 -17 128 -97 0 -46 7 -57 32 -47 17 7 35 12 40 12 4 0 8 59 8 130 0 119
-19 161 -50 110 -25 -40 -50 -19 -50 42 0 49 -7 60 -32 50 -17 -7 -52 -12 -78
-12 -34 0 -49 -13 -54 -45 -13 -97 -135 -62 -136 40 0 51 -3 52 -105 24 -64
-18 -75 -29 -75 -77 0 -48 -7 -55 -47 -47 -27 5 -61 -5 -80 -25 -41 -41 -193
-66 -193 -33 0 13 20 23 45 23 54 1 125 39 75 40 -319 11 -441 18 -495 30 -51
12 -65 9 -65 -15 0 -44 -100 -105 -135 -83 -42 27 -29 59 21 51 41 -6 40 -4
-10 36 -63 49 -106 52 -426 26 -132 -11 -276 -21 -320 -23 -44 -1 -83 -12 -87
-22 -3 -11 -15 -20 -26 -20 -11 0 -14 9 -7 20 7 12 -13 20 -47 20 -47 0 -65
13 -86 60 -15 33 -34 60 -42 60 -21 0 -19 -14 9 -59 32 -50 26 -54 -99 -65
l-105 -10 0 64 c0 69 -56 110 -151 110 -42 0 -49 -9 -49 -65 -1 -148 -146
-158 -149 -10 -1 62 -5 65 -86 71 l-85 6 0 -83 0 -83 -100 14 -100 14 0 -78
c0 -43 -10 -88 -22 -100 -26 -26 -78 -13 -78 19 0 12 12 10 29 -4 24 -20 28
-11 27 59 0 52 -11 87 -29 94 -20 8 -22 18 -7 37 15 18 16 29 1 38 -31 19 -26
71 7 71 16 0 26 15 22 35 -4 19 -8 39 -8 44 -4 23 -61 -73 -61 -104 -1 -19
-14 -35 -30 -35 -23 0 -27 21 -17 102 8 71 4 107 -13 117 -18 12 -16 18 7 28
18 6 32 3 32 -8 0 -10 16 -20 35 -21 21 -1 25 -5 10 -11 -14 -6 -25 -28 -25
-50 0 -50 36 -29 61 35 35 93 59 50 60 -107 0 -116 5 -146 21 -120 11 19 15
44 8 56 -7 11 15 30 48 41 52 19 58 27 41 60 -17 32 -14 38 22 38 23 0 60 10
82 22 39 21 121 42 172 44 14 0 25 9 25 19 0 11 13 14 29 8 17 -6 35 -3 40 6
6 9 29 13 51 7 28 -7 40 -1 40 22 0 17 9 32 20 32 11 0 20 -18 20 -41 0 -40 1
-40 48 -5 26 20 44 43 39 51 -5 8 5 15 23 15 19 0 27 -9 18 -23 -9 -15 -5 -18
9 -9 13 8 19 22 13 32 -6 9 39 40 100 69 60 29 110 61 110 72 0 11 23 54 51
96 29 45 45 90 37 110 -7 18 -3 33 10 33 12 0 22 14 22 30 0 17 -9 30 -20 30
-11 0 -20 -10 -20 -23z m-1016 -352 c52 -60 56 -97 11 -100 -31 -2 -35 3 -18
20 35 35 28 47 -31 46 -37 -1 -57 11 -62 34 -5 24 6 35 31 35 22 0 52 -16 69
-35z m-199 -54 c15 -81 -43 -115 -210 -125 -80 -4 -190 -11 -245 -14 -118 -8
-350 34 -326 59 16 15 378 88 477 96 51 3 103 13 115 21 13 8 24 5 24 -7 0
-11 14 -21 30 -21 17 0 30 8 30 19 0 18 60 39 83 28 7 -4 17 -29 22 -56z
m1755 -512 c0 -23 9 -36 20 -29 28 18 25 -17 -5 -47 -20 -21 -14 -22 29 -5 68
26 85 4 67 -90 l-13 -70 -38 46 -39 46 0 -54 c-1 -56 -43 -100 -56 -60 -12 36
-37 29 -97 -26 -42 -39 -46 -50 -20 -50 18 0 39 -14 45 -31 7 -17 25 -27 40
-21 15 6 27 -2 27 -17 0 -15 -9 -31 -21 -35 -20 -6 -48 -154 -70 -361 -5 -52
-19 -118 -29 -146 -11 -28 -20 -73 -20 -99 0 -26 -11 -50 -24 -55 -13 -4 36
-7 110 -6 217 4 272 125 185 408 -38 124 -38 128 -1 200 53 103 58 119 21 74
-17 -21 -31 -30 -31 -20 1 33 38 79 63 79 18 0 24 34 22 110 -2 61 1 99 7 85
16 -35 68 -31 68 4 0 16 18 39 39 51 40 21 40 20 1 -69 -38 -89 -38 -91 0
-111 96 -51 131 29 71 165 -12 27 -6 35 24 35 22 0 51 14 65 30 65 79 93 26
113 -211 14 -171 -32 -253 -169 -300 -71 -25 -69 -19 -113 -309 -17 -110 -39
-229 -49 -264 -10 -35 -14 -83 -8 -105 12 -45 -28 -107 -56 -90 -16 10 -26
-18 -20 -56 4 -25 -48 -17 -89 14 -38 29 -38 30 1 31 30 0 33 5 13 18 -23 14
-21 22 10 39 20 12 27 22 15 22 -119 4 -144 -143 -33 -190 39 -16 65 -36 58
-43 -8 -7 -24 -3 -36 9 -12 12 -52 17 -90 11 -60 -10 -66 -7 -54 26 7 21 6 32
-2 24 -9 -8 -43 -1 -75 16 -57 29 -58 29 -37 -9 29 -55 26 -72 -6 -46 -15 13
-34 16 -43 8 -9 -8 -11 -6 -5 6 7 12 -6 33 -29 47 -43 27 -47 -182 -6 -283 12
-30 2 -35 -76 -35 -63 0 -93 9 -102 32 -18 47 11 488 32 488 10 0 14 -8 8 -17
-6 -10 5 -37 26 -61 37 -42 37 -42 35 36 -1 43 -7 76 -14 72 -6 -4 -24 1 -40
11 -20 13 -21 18 -4 19 14 0 25 17 25 39 0 21 9 44 20 51 32 19 24 69 -21 132
-23 32 -35 68 -27 81 9 14 25 2 46 -35 l31 -58 11 80 c14 110 1 109 -154 -15
l-136 -109 -2 -148 c-1 -98 -16 -183 -43 -253 -42 -106 -30 -153 25 -98 20 20
30 71 30 153 0 106 5 122 35 116 38 -7 41 -259 3 -273 -10 -3 -4 -20 12 -36
22 -22 25 -40 10 -67 -11 -21 -20 -65 -20 -99 0 -58 -4 -61 -85 -64 -62 -2
-47 -7 55 -17 160 -15 350 -3 350 23 0 84 83 -12 181 -209 67 -138 123 -226
144 -230 25 -5 31 2 23 25 -9 22 -4 28 18 20 22 -9 32 7 39 65 4 42 15 94 23
116 14 35 12 36 -11 8 -34 -40 -79 -27 -63 18 10 28 7 30 -16 8 -17 -16 -28
-66 -28 -125 0 -54 -5 -99 -12 -99 -12 0 -73 214 -93 328 l-10 58 91 -11 c67
-7 95 -2 102 18 8 20 -12 27 -86 27 -110 0 -122 15 -122 142 0 69 5 78 49 78
59 0 111 -68 111 -146 0 -31 9 -51 19 -45 11 7 14 26 7 44 -10 27 -6 27 30 5
23 -14 38 -31 35 -37 -13 -21 107 -11 129 11 16 16 13 29 -9 47 -48 40 -39
117 14 127 42 8 41 9 -6 11 -42 3 -55 18 -72 84 -12 44 -16 75 -9 68 6 -7 22
22 34 64 24 84 108 126 108 53 0 -20 32 -135 70 -256 39 -120 67 -229 62 -241
-4 -12 11 -34 34 -48 30 -19 44 -20 50 -4 9 28 162 30 204 3 17 -11 21 -20 10
-20 -11 0 -7 -9 9 -19 32 -20 47 -81 19 -81 -10 0 -18 -10 -18 -21 0 -12 8
-17 17 -11 25 15 70 -27 121 -111 56 -95 49 -97 -290 -103 l-255 -4 -13 50
c-8 28 -20 75 -27 105 l-14 55 211 0 c127 0 210 8 210 20 0 13 -61 16 -170 7
-127 -10 -170 -7 -170 11 0 15 -15 20 -38 13 -29 -10 -42 2 -59 48 -28 81 -43
77 -30 -6 7 -40 2 -74 -11 -82 -14 -8 -22 -86 -22 -204 0 -185 -1 -190 -45
-183 -25 3 -54 26 -65 51 -11 25 -26 45 -35 45 -27 0 -16 -42 26 -102 75 -105
165 -57 144 77 -10 68 52 98 87 41 27 -42 67 -245 52 -260 -14 -14 -701 -26
-713 -13 -12 14 26 263 42 275 24 17 32 362 9 362 -11 0 -22 -20 -26 -45 -4
-32 -19 -45 -51 -43 -25 0 -45 -6 -45 -15 0 -10 19 -17 43 -17 37 0 47 -157
12 -192 -3 -3 -130 -9 -283 -14 -152 -5 -268 -4 -258 3 53 35 74 121 72 298
-2 179 -1 184 38 163 61 -33 77 4 35 82 l-37 70 -1 -59 c-1 -43 -7 -53 -23
-37 -12 12 -21 90 -21 179 2 180 -11 248 -39 205 -10 -16 -18 -18 -18 -7 0 12
13 39 29 60 29 38 30 38 30 -6 1 -26 13 -45 30 -45 46 0 54 34 29 120 -27 87
-52 91 -156 25 -44 -27 -47 -27 -35 4 7 19 13 52 13 73 0 21 11 38 23 38 13 0
40 15 61 33 34 32 39 31 86 -13 61 -57 67 -18 9 56 -39 50 -39 53 -5 66 92 34
117 96 49 120 -35 12 -63 30 -63 39 0 10 16 12 35 5 19 -7 28 -5 20 4 -8 9 -4
29 8 44 12 15 17 33 10 40 -17 17 -116 -93 -103 -114 6 -10 5 -42 -2 -71 -25
-99 -58 -14 -58 149 0 117 -6 154 -25 147 -50 -19 -30 149 25 210 94 104 149
201 121 212 -14 5 -36 0 -49 -13 -43 -43 -21 5 25 55 53 57 77 66 60 21 -8
-21 2 -30 31 -30 54 0 54 -2 -21 -148 -35 -67 -76 -147 -92 -178 -27 -51 -26
-59 8 -85 35 -26 35 -27 -6 -20 -42 8 -50 -55 -15 -113 18 -28 68 -18 68 14 0
17 -9 30 -20 30 -11 0 -20 10 -20 22 0 12 13 17 29 11 21 -8 33 9 43 63 25
130 115 213 158 144 39 -62 119 86 97 177 -13 49 -11 51 22 24 42 -35 28 -180
-20 -207 -16 -9 -29 -24 -29 -34 0 -31 69 -32 94 -1 20 26 22 23 12 -17 -12
-48 -12 -49 36 -12 57 43 150 236 119 246 -32 11 -26 104 7 104 15 0 38 14 52
30 37 45 100 38 100 -11z m-411 -30 c-89 -69 -109 -73 -107 -25 0 25 6 35 11
21 8 -18 24 -14 62 15 28 22 56 36 62 30 5 -6 -7 -24 -28 -41z m-1629 -9 c29
16 51 17 64 4 26 -26 1 -104 -32 -104 -36 0 -136 89 -119 106 8 8 20 5 28 -8
10 -16 26 -16 59 2z m2759 -75 c-2 -86 -35 -187 -38 -115 -1 22 -7 74 -14 115
-10 61 -6 75 20 75 25 0 33 -18 32 -75z m-2436 -28 l5 -72 61 26 c63 26 74 29
115 29 19 0 19 5 0 24 -32 32 -30 56 5 56 15 0 34 -18 41 -40 7 -21 23 -37 35
-35 12 3 26 -12 31 -32 5 -25 -1 -34 -19 -28 -37 13 -97 -20 -97 -54 0 -17
-14 -23 -40 -17 -37 10 -49 31 -42 72 2 10 -6 11 -18 4 -11 -7 -15 -21 -9 -31
6 -11 -2 -19 -17 -19 -21 0 -29 -22 -27 -80 2 -49 13 -80 28 -80 23 0 34 -26
27 -65 -1 -8 12 -15 29 -15 17 0 26 -9 18 -21 -7 -11 -2 -33 11 -49 13 -16 18
-37 12 -47 -21 -33 34 -37 71 -6 25 22 30 38 15 55 -11 14 -22 63 -24 110 -2
51 -15 88 -31 94 -21 7 -24 -6 -13 -55 13 -62 12 -63 -30 -41 -24 13 -38 35
-33 51 7 16 1 23 -15 17 -15 -6 -32 4 -39 22 -10 26 -1 31 51 26 50 -5 69 4
87 40 22 43 26 44 56 14 39 -39 41 -54 9 -86 -19 -19 -17 -24 8 -24 17 0 36
-18 42 -40 6 -22 4 -40 -5 -40 -8 0 -14 -13 -14 -29 0 -23 8 -24 41 -7 40 21
40 20 10 -16 -57 -67 -61 -85 -18 -74 29 8 40 1 40 -24 0 -29 5 -31 31 -9 25
20 26 29 5 42 -18 12 -13 16 17 17 70 0 94 47 67 129 -12 39 -17 88 -11 109 7
21 3 44 -8 51 -99 62 12 235 146 227 107 -6 163 -92 90 -139 -19 -11 -20 -16
-3 -17 16 0 23 -38 22 -115 -1 -63 5 -137 13 -165 16 -49 15 -49 -16 -10 -32
40 -32 40 -32 -2 -1 -24 25 -62 59 -88 42 -32 57 -58 49 -83 -8 -25 -2 -37 20
-37 17 0 31 -14 31 -31 0 -17 -9 -26 -20 -19 -11 7 -20 -1 -20 -16 0 -16 -14
-41 -31 -55 -21 -17 -24 -32 -10 -46 34 -34 26 -44 -89 -101 -83 -40 -119 -49
-145 -33 -30 17 -31 20 -3 20 49 1 197 116 217 169 35 90 33 122 -5 119 -24
-2 -33 7 -26 25 13 33 -5 88 -29 88 -31 0 -44 -84 -16 -103 20 -14 17 -17 -13
-13 -22 3 -55 24 -74 46 -20 23 -35 30 -35 15 -1 -14 -14 -25 -31 -25 -26 0
-40 -37 -32 -85 1 -8 -7 -15 -18 -15 -11 0 -20 19 -20 43 0 24 -6 38 -13 31
-7 -8 -25 -4 -39 8 -19 16 -35 3 -66 -56 -40 -75 -40 -75 -41 -20 l-1 57 -53
-42 c-33 -25 -82 -41 -131 -41 l-78 0 4 -111 c4 -93 14 -119 56 -153 29 -23
37 -37 18 -30 -18 6 -45 -2 -60 -20 -31 -38 -51 71 -54 289 -1 86 -10 125 -27
125 -17 1 -15 7 5 20 27 18 27 22 0 40 -27 17 -27 19 0 20 27 1 27 3 0 20 -20
13 -22 19 -5 20 15 0 25 27 25 65 0 60 -5 65 -65 65 -97 0 -103 122 -7 146 58
15 106 104 55 104 -10 0 -15 20 -9 45 26 121 41 124 49 12z m1466 64 c17 -27
-10 -123 -30 -111 -9 6 -16 38 -15 70 2 59 23 78 45 41z m-1687 -167 c-16 -16
-22 -5 -22 39 0 79 28 107 37 36 3 -29 -4 -64 -15 -75z m2921 -58 c-1 -80 -5
-216 -9 -301 -5 -147 -3 -156 49 -200 76 -62 75 -115 -3 -115 -36 0 -60 -10
-60 -27 0 -29 -88 -119 -102 -104 -5 5 -44 13 -86 18 -75 8 -111 37 -112 89 0
15 -9 21 -20 14 -11 -7 -20 -4 -20 7 0 29 128 46 237 32 l98 -14 -7 148 c-5
81 -12 170 -16 197 -5 28 -2 89 7 136 9 50 8 120 -4 165 -23 90 -7 159 29 123
12 -12 21 -84 19 -168z m-143 136 c0 -15 -13 -38 -30 -52 -31 -26 -47 36 -17
67 23 22 47 15 47 -15z m-54 -229 c-8 -92 -4 -142 11 -151 16 -10 23 27 23
127 0 129 3 141 41 141 66 0 50 -380 -17 -410 -24 -11 -44 -26 -44 -35 0 -8
-13 -15 -28 -15 -32 0 -53 144 -27 190 10 17 10 30 1 30 -9 0 -15 47 -14 105
4 150 5 155 37 155 23 0 27 -26 17 -137z m-96 -118 c-6 -41 -14 -111 -17 -155
-5 -52 -17 -80 -35 -80 -33 0 -29 141 7 245 31 88 58 82 45 -10z m-2604 -5
c11 -43 0 -49 -44 -22 -16 10 -22 32 -15 51 15 41 44 26 59 -29z m-566 -309
c0 -6 -22 -11 -50 -11 -43 0 -50 9 -50 65 l0 65 50 -54 c28 -30 50 -59 50 -65z
m1453 39 c7 -24 -64 -78 -128 -98 -61 -20 -57 16 5 44 33 16 45 33 37 55 -10
25 -2 31 34 26 25 -4 49 -16 52 -27z m1046 -87 c2 -61 -49 -4 -52 59 l-4 68
28 -50 c15 -27 28 -62 28 -77z m-1159 78 c0 -24 -71 -64 -86 -48 -6 6 -6 24 0
39 12 31 86 39 86 9z m-365 -50 c46 -1 72 -131 26 -131 -11 0 -15 -13 -9 -28
12 -32 -28 -122 -46 -104 -7 6 -2 23 11 38 45 55 -45 233 -93 184 -6 -5 0 -10
13 -10 28 0 30 -78 3 -120 -16 -25 -19 -23 -20 10 0 22 -14 66 -30 97 -44 85
-38 98 35 81 36 -9 85 -16 110 -17z m531 -206 c-54 -165 -206 -267 -206 -139
0 15 7 15 22 0 24 -24 53 -3 118 81 26 34 21 33 -41 -5 -81 -49 -149 -56 -132
-13 6 15 0 33 -13 40 -13 6 -4 6 20 0 30 -8 74 11 140 60 124 91 130 89 92
-24z m546 -58 c-7 -16 -20 -25 -30 -18 -10 6 -23 -12 -30 -40 -7 -28 -22 -45
-33 -39 -38 24 -19 127 36 193 l55 65 6 -66 c4 -36 2 -79 -4 -95z m-432 -186
c0 -9 -28 -27 -62 -39 l-63 -22 14 -195 c8 -107 27 -252 42 -321 16 -70 29
-156 29 -191 0 -36 9 -74 19 -84 21 -21 -588 -38 -621 -18 -31 19 66 129 115
129 25 0 55 18 67 40 12 22 38 40 58 40 45 0 117 155 135 294 7 53 30 127 50
166 20 38 37 85 37 103 0 46 59 102 93 88 16 -5 34 3 40 19 11 30 47 23 47 -9z
m-1560 -769 c-24 -100 -61 -215 -82 -256 -43 -83 -50 -176 -14 -176 18 0 18
-6 2 -22 -78 -78 -90 143 -17 316 27 64 69 184 94 266 62 207 75 112 17 -128z
m2778 39 c30 -120 28 -131 -18 -131 -35 0 -40 13 -40 110 0 133 27 143 58 21z
m740 -262 c86 -167 91 -163 -275 -173 l-307 -8 56 41 c72 53 174 116 292 180
51 27 99 59 106 71 28 45 63 14 128 -111z m-1663 77 c-19 -5 -35 -17 -35 -27
0 -9 37 -4 83 12 80 28 237 40 237 18 0 -6 -14 -75 -32 -152 l-32 -141 -93 15
c-51 8 -106 15 -123 14 -16 -1 -113 -8 -215 -15 -155 -10 -183 -8 -174 16 9
22 -1 26 -42 19 -46 -9 -50 -6 -33 27 11 21 40 81 65 133 l45 95 192 -2 c106
-2 176 -7 157 -12z"/>
<path d="M2920 2481 c0 -38 62 -66 103 -48 38 17 36 21 -31 41 -39 12 -72 15
-72 7z"/>
<path d="M2214 2377 c-55 -31 -39 -74 41 -110 91 -40 46 -60 -67 -29 l-73 20
46 -49 c45 -48 45 -49 5 -49 -57 0 -74 -54 -26 -80 55 -30 229 142 212 210
-16 62 -94 112 -138 87z"/>
<path d="M2488 1617 c-8 -14 10 -43 44 -70 73 -59 106 -61 56 -3 -38 43 -37
43 22 -1 l59 -46 36 44 c39 48 32 78 -10 44 -27 -22 -102 -2 -124 34 -18 28
-65 27 -83 -2z"/>
<path d="M2434 1528 c-21 -21 -17 -108 5 -108 10 0 24 8 30 18 15 25 -17 107
-35 90z"/>
<path d="M2502 1474 c11 -25 36 -46 54 -46 19 0 53 -7 76 -15 30 -10 41 -5 41
17 0 16 -4 26 -9 21 -5 -5 -43 8 -86 30 -97 49 -102 49 -76 -7z"/>
<path d="M3066 1038 c24 -14 53 -14 90 -1 50 18 47 20 -36 21 -72 1 -83 -3
-54 -20z"/>
<path d="M2190 860 l-80 -14 106 -3 c67 -2 102 5 94 17 -7 11 -19 19 -26 17
-8 -1 -50 -9 -94 -17z"/>
<path d="M2599 607 c-29 -8 -79 -111 -79 -163 0 -25 123 -34 147 -10 7 7 -5
33 -28 58 -28 28 -33 44 -16 43 15 -1 50 0 77 2 l50 4 -50 39 c-27 22 -54 38
-60 37 -5 -1 -24 -5 -41 -10z"/>
<path d="M2802 532 c-2 -31 -13 -35 -72 -26 -83 14 -91 1 -17 -27 60 -23 120
15 101 64 -7 17 -11 14 -12 -11z"/>
<path d="M1554 2445 c14 -97 85 -220 86 -149 0 26 -13 60 -30 77 -16 16 -30
51 -30 77 0 26 -8 53 -19 59 -11 7 -14 -19 -7 -64z"/>
<path d="M1034 2180 c6 -22 19 -35 28 -29 10 6 18 3 18 -8 0 -11 -11 -24 -25
-29 -15 -6 -4 -18 25 -29 63 -26 69 -20 38 38 -47 88 -102 126 -84 57z"/>
<path d="M691 3675 c9 -23 -5 -35 -50 -45 -33 -7 -61 -20 -61 -29 0 -8 36 -6
80 6 87 23 96 35 50 73 -26 21 -29 20 -19 -5z"/>
<path d="M1166 3672 c-80 -28 -96 -44 -57 -59 17 -6 31 -3 31 9 0 11 11 18 25
17 56 -8 115 2 115 19 0 31 -48 37 -114 14z"/>
<path d="M1655 3686 c-51 -13 -43 -66 10 -66 36 1 39 4 15 20 -26 17 -25 19 5
20 19 0 35 -9 35 -20 0 -11 9 -20 20 -20 12 0 10 16 -5 40 -13 22 -29 39 -35
38 -5 -2 -26 -7 -45 -12z"/>
<path d="M2869 3560 c-82 -54 -101 -97 -59 -137 32 -31 33 -30 20 14 -13 42
-10 44 28 24 24 -13 42 -14 42 -4 0 11 28 37 62 58 34 22 55 44 45 49 -53 30
-87 29 -138 -4z"/>
<path d="M3095 3585 c-19 -4 -35 -15 -35 -24 0 -28 65 -44 87 -22 27 27 -6 57
-52 46z"/>
<path d="M3200 3568 c0 -6 20 -28 45 -49 25 -21 34 -38 20 -38 -58 -2 -19 -35
43 -37 94 -4 114 64 31 106 -57 30 -139 40 -139 18z"/>
<path d="M1370 3440 c-51 -13 -45 -16 45 -18 58 -1 105 7 105 18 0 23 -61 23
-150 0z"/>
<path d="M5740 3409 c39 -17 95 -42 125 -55 30 -13 55 -34 55 -47 0 -32 -63
-52 -87 -28 -12 12 -34 21 -51 21 -48 0 0 -35 78 -57 59 -16 62 -20 20 -22
l-50 -2 47 -27 c67 -37 18 -52 -141 -43 -125 7 -125 7 -56 -20 l70 -28 -123 4
c-68 3 -119 -1 -115 -9 15 -24 -71 -40 -158 -29 -46 6 -68 6 -49 0 54 -15 42
-43 -14 -32 -27 5 -48 19 -45 32 2 12 -16 25 -41 29 -25 4 -45 -2 -45 -13 0
-23 -78 -7 -119 25 -16 12 -8 -6 18 -41 73 -100 281 -100 651 -1 99 27 205 55
235 62 76 18 77 206 1 225 -25 6 -46 18 -46 27 0 8 -34 20 -75 25 -41 6 -93
17 -115 23 -22 7 -8 -2 30 -19z"/>
<path d="M2156 3353 c-199 -90 -258 -340 -83 -349 102 -6 211 73 169 123 -22
27 -22 34 5 44 23 9 26 24 13 59 -23 59 42 81 118 40 29 -16 39 -29 23 -29
-19 -1 -11 -13 20 -34 72 -48 99 -88 99 -146 1 -36 6 -43 18 -24 49 78 -112
322 -213 323 -19 0 -53 4 -75 9 -22 5 -64 -2 -94 -16z m54 -144 c21 -16 21
-28 -2 -58 -31 -43 -42 -39 -48 19 -8 67 2 125 14 90 6 -16 22 -39 36 -51z"/>
<path d="M3526 3288 c-77 -38 -118 -97 -136 -193 -14 -73 20 -125 42 -66 7 17
25 31 41 31 16 0 23 10 16 22 -10 15 -20 15 -35 0 -39 -39 -51 -23 -28 38 13
33 30 60 38 60 9 0 16 14 16 31 0 17 25 35 60 42 64 13 128 67 77 67 -15 -1
-56 -15 -91 -32z"/>
<path d="M3740 3282 c0 -72 26 -107 108 -144 45 -20 66 -37 46 -38 -20 0 -31
-8 -25 -18 6 -10 0 -23 -14 -29 -20 -8 -20 -10 0 -11 14 -1 25 -9 25 -19 0 -9
-29 -13 -65 -10 -62 7 -61 6 15 -20 158 -53 177 117 28 262 -74 73 -118 83
-118 27z"/>
<path d="M4100 3222 c0 -23 10 -42 21 -42 12 0 16 9 9 20 -7 11 1 15 17 8 16
-6 35 -1 42 11 7 11 5 21 -6 21 -11 0 -34 5 -51 12 -23 9 -32 0 -32 -30z"/>
<path d="M4220 3200 c0 -11 10 -20 21 -20 12 0 17 -8 11 -17 -6 -9 12 -29 40
-44 40 -21 54 -22 66 -2 9 14 31 19 54 11 36 -13 36 -12 -2 18 -26 20 -44 23
-53 10 -7 -13 -29 -4 -55 22 -45 45 -82 55 -82 22z"/>
<path d="M4880 3105 c-16 -6 -34 -16 -40 -23 -5 -7 -46 -32 -90 -56 -145 -79
-133 -267 14 -225 69 20 134 83 97 95 -12 4 -21 15 -21 25 0 35 56 -5 68 -47
8 -31 -2 -54 -33 -79 -25 -19 -35 -34 -22 -35 12 0 33 13 46 29 13 16 37 24
52 18 16 -6 29 -2 29 9 0 11 18 15 41 10 37 -10 38 -14 10 -45 -17 -19 -31
-67 -31 -108 0 -79 33 -101 44 -28 6 47 21 50 149 26 62 -12 71 -9 60 19 -16
40 181 25 217 -17 11 -13 57 -47 102 -76 68 -44 87 -71 107 -150 13 -54 36
-124 51 -157 40 -90 57 -190 32 -190 -12 0 -22 -13 -22 -30 0 -53 -39 -32 -68
38 -15 37 -38 73 -50 81 -12 7 -22 29 -22 49 0 19 -31 71 -69 116 -38 44 -64
86 -58 93 59 59 -168 208 -265 174 -7 -2 -21 7 -30 22 -29 46 -36 8 -12 -67
13 -41 39 -78 59 -83 19 -5 35 -20 35 -32 0 -13 -8 -18 -18 -12 -10 6 -14 -7
-8 -28 6 -22 28 -45 50 -52 22 -7 34 -24 28 -40 -6 -15 -2 -53 9 -83 41 -120
56 -393 24 -444 -26 -42 -26 -52 -2 -70 15 -12 48 -48 72 -80 l45 -57 0 52 c0
30 19 69 42 88 22 19 51 53 62 75 21 39 21 39 -19 4 -49 -44 -75 -15 -35 38
45 59 34 84 -11 28 -36 -45 -40 -46 -37 -10 2 22 -6 65 -19 96 -46 113 -31
118 63 24 69 -69 234 -105 234 -50 0 11 -11 20 -25 20 -101 0 -372 210 -328
254 15 14 161 -31 204 -63 37 -28 36 -30 -28 -30 -96 -1 -55 -44 87 -92 60
-20 110 -47 110 -58 0 -12 14 -47 30 -79 l30 -57 -84 11 c-47 6 -88 21 -92 33
-4 11 -15 21 -25 21 -9 0 -3 -25 15 -55 29 -52 186 -88 186 -43 0 7 40 9 89 3
l88 -10 1 388 c0 252 -6 371 -18 342 -10 -24 -18 -146 -17 -270 1 -199 -3
-226 -33 -232 -41 -8 -69 29 -70 92 0 43 27 61 45 30 5 -8 5 -1 0 15 -5 17
-13 52 -18 78 -5 27 -20 67 -33 90 -22 39 -32 81 -38 152 -2 17 4 68 12 115
15 82 14 85 -36 85 -29 0 -52 -10 -52 -23 0 -13 -5 -18 -12 -12 -44 45 84 200
154 187 6 -1 27 10 45 25 58 49 42 -71 -17 -125 -64 -60 -64 -75 5 -190 3 -5
23 8 45 28 35 32 40 61 40 245 l0 210 -95 -14 c-52 -8 -160 -32 -239 -54 -116
-31 -154 -34 -188 -16 -51 28 -223 13 -234 -19 -4 -12 -24 -22 -45 -22 -20 0
-47 -16 -59 -35 -15 -24 -26 -27 -32 -11 -6 13 -24 19 -39 13 -16 -6 -29 -2
-29 9 0 11 14 25 31 32 45 17 18 89 -59 157 -63 56 -79 60 -132 40z m732 -336
c-7 -27 -26 -49 -42 -49 -40 0 -38 40 4 99 38 54 57 29 38 -50z m-241 -251 c7
-12 5 -30 -5 -40 -26 -26 -86 -1 -86 34 0 33 72 38 91 6z m133 -178 l34 -60
-89 0 c-49 0 -89 9 -89 20 0 11 11 20 25 20 17 1 15 7 -5 20 -27 18 -27 22 0
40 52 34 89 22 124 -40z"/>
<path d="M3121 3041 c-43 -80 -8 -176 46 -122 17 17 16 27 -4 39 -19 12 -21
21 -5 31 27 16 29 91 3 91 -11 0 -29 -17 -40 -39z"/>
<path d="M4608 2800 c3 -71 -2 -143 -10 -160 -9 -16 -21 -55 -27 -86 -7 -31
-21 -50 -32 -43 -11 6 -15 20 -9 29 6 9 2 23 -10 30 -11 7 -20 1 -21 -14 0
-14 -14 -2 -30 28 -19 35 -40 50 -59 43 -21 -8 -30 2 -30 32 0 48 -60 52 -75
5 -5 -14 3 -23 18 -20 16 4 26 -10 24 -33 -7 -69 32 -116 86 -105 34 6 57 -3
72 -27 12 -19 35 -30 50 -24 21 8 26 -6 21 -57 -6 -68 -45 -88 -46 -23 0 58
-59 40 -66 -20 -6 -48 0 -55 47 -55 46 0 50 -4 29 -31 -23 -26 -30 -27 -58 -1
-22 20 -42 24 -62 11 -51 -32 -123 -22 -134 19 -6 24 -26 37 -55 35 -28 -2
-42 -13 -36 -29 7 -18 17 -19 35 -4 18 15 29 12 37 -10 9 -23 -4 -34 -45 -43
-42 -8 -55 -20 -48 -46 5 -19 -5 -49 -22 -67 -35 -34 -43 -94 -13 -94 10 0 32
19 48 42 26 36 42 41 105 29 71 -13 74 -12 47 21 -31 38 -34 38 74 -5 26 -11
31 -6 21 20 -12 32 -10 32 31 4 50 -35 83 -41 65 -11 -7 11 5 20 26 20 25 0
38 -13 36 -35 -1 -19 7 -35 18 -35 11 0 19 10 18 23 -34 316 -30 395 15 267
24 -68 57 -80 57 -21 0 68 37 65 50 -4 8 -43 1 -98 -21 -152 -22 -54 -30 -113
-23 -164 9 -73 -12 -111 -31 -54 -5 14 -25 -24 -45 -85 -20 -60 -51 -121 -68
-134 -18 -14 -22 -25 -9 -25 15 -1 20 -30 15 -83 -7 -71 -4 -79 22 -58 18 15
25 42 18 69 -18 72 62 287 89 237 15 -28 14 -53 -4 -88 -13 -26 -26 -66 -27
-88 -4 -50 -82 -235 -107 -250 -10 -7 -24 -77 -31 -156 -14 -145 -24 -159 -96
-132 -42 16 -41 60 2 77 29 11 30 16 7 30 -16 10 -30 34 -33 54 -5 35 -4 35
23 -1 26 -35 29 -35 41 -4 8 21 -1 45 -24 64 -37 30 -37 31 4 22 25 -5 41 2
41 18 0 15 -18 25 -41 22 -32 -3 -40 6 -36 36 4 22 7 56 6 75 0 20 7 32 15 27
19 -12 18 80 -2 99 -31 31 -89 -156 -73 -239 13 -76 7 -246 -14 -347 -5 -25
-22 -45 -37 -45 -49 0 -54 -37 -8 -62 35 -18 48 -17 65 5 14 18 42 24 74 18
l51 -11 5 -345 5 -345 -72 0 c-47 0 -76 -11 -84 -31 -24 -61 30 -78 255 -82
l222 -4 -14 53 c-7 30 -17 112 -22 184 -9 122 -44 234 -95 297 -55 70 -10 202
74 215 47 7 41 -25 -7 -38 -22 -6 -40 -21 -40 -33 0 -13 9 -18 20 -11 12 8 20
-33 20 -109 l0 -121 88 0 c107 0 115 18 72 160 -33 107 -35 108 -49 50 -24
-98 -29 -110 -49 -110 -13 0 -13 21 -3 55 10 30 23 81 30 112 7 32 19 52 26
45 7 -7 24 12 37 43 l25 55 1 -53 c1 -29 15 -78 32 -110 34 -65 40 -200 9
-211 -13 -4 -10 -56 10 -153 47 -223 36 -321 -52 -445 -46 -64 -6 -100 103
-95 55 2 100 13 100 24 0 11 15 36 33 56 58 64 37 724 -27 849 -30 59 -2 272
64 480 14 43 -31 54 -85 21 -46 -29 -25 19 30 69 l55 49 70 -69 c39 -38 55
-64 36 -56 -19 7 -41 2 -48 -10 -8 -12 -5 -17 6 -10 11 7 19 -14 19 -50 0 -58
-1 -59 -29 -24 -28 37 -29 37 -14 -2 49 -126 48 -270 -1 -270 -16 0 -29 -11
-29 -26 0 -17 24 -23 80 -17 60 5 83 -1 92 -25 26 -69 89 -38 77 39 -13 80 23
208 67 241 18 13 25 36 18 55 -15 39 -106 45 -120 8 -5 -14 -65 89 -133 228
l-123 253 -124 -9 c-68 -5 -144 -12 -169 -15 -25 -4 -45 0 -45 9 0 8 -23 20
-51 27 -52 14 -16 110 43 111 12 1 21 28 21 62 0 43 -8 58 -27 50 -20 -7 -22
-1 -9 24 10 19 16 91 15 160 -4 133 5 143 88 95 28 -16 61 -29 75 -29 51 -2
22 39 -55 79 -44 22 -80 32 -80 20 0 -11 -8 -20 -19 -20 -10 0 -17 17 -16 39
2 21 10 34 19 28 21 -12 20 -5 -6 70 -12 35 -29 63 -39 63 -9 0 -22 19 -30 43
-8 24 -37 65 -66 92 -29 26 -64 86 -77 132 l-24 83 6 -130z m128 -283 c-31
-19 -96 -22 -96 -4 0 32 71 63 96 42 21 -18 21 -24 0 -38z m184 -757 c0 -11
-13 -20 -30 -20 -16 0 -30 -10 -30 -23 0 -15 31 -18 95 -10 52 6 127 4 165 -6
39 -9 58 -18 43 -19 -23 -2 -24 -7 -1 -34 23 -28 20 -38 -17 -68 -24 -19 -37
-42 -29 -51 8 -8 2 -9 -12 0 -16 9 -44 -5 -74 -37 -43 -47 -44 -53 -14 -71 26
-15 14 -20 -51 -20 -89 -1 -117 30 -40 45 26 5 10 10 -35 11 -51 1 -70 -4 -53
-15 14 -9 25 -24 24 -33 -2 -10 31 -27 72 -39 67 -18 76 -29 79 -86 2 -42 -5
-63 -19 -57 -13 4 -21 18 -18 30 2 12 -13 31 -35 43 -52 28 -50 17 10 -72 59
-86 63 -119 17 -137 -45 -17 -67 24 -53 96 10 46 6 56 -14 43 -16 -10 -21 -8
-14 4 7 11 0 37 -15 58 -28 37 -28 37 -41 -2 -7 -22 -21 -55 -30 -72 -9 -18
-10 -65 -1 -105 10 -42 9 -78 -1 -84 -10 -6 -18 9 -18 33 l0 45 -53 -49 c-44
-40 -51 -42 -40 -11 11 31 6 36 -27 27 -22 -6 -40 -2 -40 8 0 10 8 18 18 18
10 0 23 23 30 51 7 27 47 87 87 132 65 71 69 81 29 68 -53 -16 -192 40 -173
70 6 11 46 19 88 19 52 0 81 10 89 32 9 24 4 29 -19 20 -19 -7 -26 -3 -18 10
7 11 -4 33 -24 48 -55 40 -16 61 43 22 44 -29 56 -30 91 -6 46 33 25 60 -65
81 -57 14 -59 73 -3 73 17 0 23 10 15 23 -8 13 -6 18 5 11 10 -6 32 -3 48 7
38 24 59 24 59 -1z m-61 -676 c0 -26 10 -41 21 -34 11 7 14 -1 8 -19 -27 -71
-71 18 -67 137 2 59 36 -16 38 -84z m-364 25 c-4 -55 -44 -66 -63 -17 -19 50
-15 59 28 62 30 3 38 -8 35 -45z m185 -734 c0 -8 -30 -15 -68 -15 l-67 0 31
69 32 70 36 -55 c20 -29 36 -61 36 -69z"/>
<path d="M5020 1630 c0 -22 11 -30 30 -23 17 7 30 3 30 -8 0 -10 -13 -19 -28
-19 -15 0 -67 -23 -115 -51 -77 -44 -80 -49 -27 -37 107 23 269 148 192 148
-10 0 -33 5 -50 12 -22 8 -32 1 -32 -22z"/>
<path d="M25 2746 c-18 -7 -25 -69 -25 -219 0 -220 15 -246 60 -103 15 47 35
96 44 108 10 13 5 32 -11 45 -14 12 -28 55 -29 96 -3 82 -5 85 -39 73z"/>
<path d="M126 2664 c5 -47 14 -91 21 -97 6 -7 -1 -42 -17 -80 -15 -37 -25 -67
-20 -67 4 0 0 -27 -10 -59 -12 -42 -9 -65 10 -81 37 -31 58 8 31 58 -31 58
-26 77 8 30 17 -25 47 -40 75 -36 25 2 53 5 61 6 8 1 15 16 15 34 0 21 -11 28
-32 20 -20 -8 -28 -3 -22 13 5 14 35 23 71 20 77 -6 78 0 5 81 -32 35 -78 87
-102 114 -36 42 -41 43 -30 10 33 -95 33 -99 2 -61 -18 21 -32 57 -32 80 0 22
-10 55 -21 71 -16 22 -19 8 -13 -56z m101 -198 c26 10 28 5 9 -36 -24 -54 -74
-82 -79 -44 -9 69 -9 85 -1 101 5 10 16 6 24 -8 9 -14 30 -19 47 -13z"/>
<path d="M5061 2628 c-1 -35 -19 -85 -41 -113 -51 -65 -50 -68 9 -83 54 -14
71 -67 77 -243 3 -70 -3 -98 -21 -94 -14 3 -25 -9 -25 -25 0 -16 10 -30 21
-30 12 0 16 -9 10 -19 -21 -33 12 -121 44 -121 23 0 27 14 18 62 -9 44 -6 59
12 52 14 -4 23 -28 20 -51 -3 -27 7 -43 25 -43 17 0 30 18 30 41 0 23 14 69
32 102 24 47 26 67 8 84 -13 13 -21 14 -19 3 8 -44 -2 -70 -30 -70 -21 0 -27
26 -25 108 2 82 -6 119 -34 150 -34 37 -34 42 -5 42 56 0 37 36 -27 50 -66 14
-97 47 -64 67 38 24 47 111 16 153 -30 38 -31 38 -31 -22z"/>
<path d="M3911 2521 c-6 -10 -3 -24 9 -31 30 -18 24 -50 -9 -50 -19 0 -25 -12
-18 -31 14 -36 78 -31 75 6 -1 14 -3 48 -5 75 -3 50 -30 66 -52 31z"/>
<path d="M5884 2505 c-18 -6 -20 -16 -4 -35 14 -17 15 -42 1 -78 -11 -28 -12
-52 -2 -52 17 0 52 156 38 169 -4 3 -19 1 -33 -4z"/>
<path d="M404 2471 c8 -9 2 -41 -14 -72 -27 -50 -26 -54 6 -46 41 11 55 98 19
119 -14 8 -19 7 -11 -1z"/>
<path d="M0 2143 c0 -78 8 -143 17 -143 19 0 15 255 -5 274 -6 7 -12 -52 -12
-131z"/>
<path d="M4900 2158 c0 -10 9 -18 20 -18 11 0 20 -18 20 -40 0 -35 5 -37 39
-16 27 17 33 32 19 48 -25 30 -98 50 -98 26z"/>
<path d="M4499 2038 c-29 -53 10 -107 42 -58 16 25 18 25 19 -5 0 -26 -16 -35
-60 -35 -54 0 -64 9 -58 53 3 24 -51 45 -64 24 -8 -12 -23 -9 -43 11 -38 38
-52 25 -40 -40 6 -29 20 -46 34 -41 33 13 77 -17 83 -55 2 -18 -4 -27 -14 -21
-10 6 -18 -4 -18 -22 0 -31 4 -31 50 -1 44 29 50 29 50 2 0 -16 17 -30 38 -30
56 0 82 156 32 192 -19 14 -28 35 -21 47 7 11 9 21 3 21 -6 0 -21 -19 -33 -42z"/>
<path d="M2 1865 c3 -114 3 -114 19 -35 23 110 23 150 -1 150 -11 0 -19 -50
-18 -115z"/>
<path d="M4952 1915 c-106 -69 -93 -99 20 -45 64 30 106 79 85 100 -5 4 -52
-20 -105 -55z"/>
<path d="M5220 1864 c0 -38 77 -82 99 -56 15 19 8 32 -30 49 -60 27 -69 28
-69 7z"/>
<path d="M5711 1715 c21 -69 47 -92 90 -81 78 21 41 115 -47 122 -50 3 -55 -1
-43 -41z"/>
<path d="M5527 1696 c-6 -10 -4 -43 4 -72 8 -30 13 -92 10 -138 -6 -119 23
-157 154 -205 63 -23 133 -51 155 -61 22 -11 65 -28 95 -39 l55 -20 0 259 0
260 -65 0 c-60 0 -68 -9 -105 -104 -54 -139 -77 -139 -129 1 -43 117 -136 180
-174 119z"/>
<path d="M3651 1418 c8 -12 2 -30 -13 -40 -17 -10 4 -12 52 -5 91 14 117 27
55 27 -24 0 -48 9 -55 20 -7 11 -21 20 -32 20 -11 0 -14 -10 -7 -22z"/>
<path d="M642 1293 c22 -19 198 -30 198 -13 0 11 -46 20 -103 20 -57 0 -100
-3 -95 -7z"/>
<path d="M0 1222 c0 -24 19 -42 51 -50 77 -20 102 8 47 50 -62 48 -98 48 -98
0z"/>
<path d="M795 1208 c-13 -13 -64 -24 -135 -28 -48 -3 -47 -4 10 -21 64 -20
117 -10 179 34 39 27 39 27 -1 27 -23 0 -47 -5 -53 -12z"/>
<path d="M1130 1179 c-84 -11 -89 -13 -30 -17 l70 -4 -69 -59 c-68 -58 -74
-59 -300 -60 -144 0 -220 -7 -201 -18 39 -23 239 -30 286 -11 20 9 46 6 57 -5
26 -26 -151 -144 -221 -147 -34 -2 -40 -6 -17 -12 46 -12 44 -31 -8 -63 -37
-23 -41 -23 -31 3 6 17 -6 46 -27 65 -20 18 -48 64 -60 102 -20 61 -64 77 -57
20 6 -49 -3 -75 -22 -63 -10 6 -4 -16 15 -50 19 -33 56 -67 83 -73 l48 -13
-58 -25 c-38 -17 -46 -26 -23 -27 19 -1 35 -12 35 -23 0 -12 41 12 91 53 90
74 90 74 314 82 274 11 309 26 58 26 -100 0 -183 6 -183 13 0 32 132 127 179
129 28 1 65 4 81 7 17 2 66 7 110 11 72 6 68 8 -37 18 l-118 12 54 54 c30 29
74 56 98 60 90 13 -18 27 -117 15z"/>
<path d="M5720 1102 c0 -9 -47 -17 -104 -19 -167 -6 -137 -23 40 -23 104 0
193 -12 244 -33 45 -17 87 -27 93 -20 7 6 -14 18 -46 26 l-57 15 60 14 c56 12
55 13 -20 16 -44 1 -109 10 -145 21 -36 10 -65 11 -65 3z"/>
<path d="M5500 1012 c0 -6 34 -29 75 -51 l75 -39 -68 -1 c-100 -1 -64 -21 50
-28 65 -4 139 -28 215 -69 119 -66 153 -76 153 -47 0 9 -47 38 -104 65 l-104
48 109 12 109 11 -136 4 c-87 2 -162 16 -210 40 -88 45 -164 70 -164 55z"/>
<path d="M4133 907 c-24 -25 -13 -47 22 -47 20 0 61 -23 92 -52 82 -76 82 -49
1 38 -71 75 -90 85 -115 61z"/>
<path d="M3940 880 c40 -26 166 -26 150 0 -7 11 -50 20 -96 20 -62 -1 -76 -6
-54 -20z"/>
<path d="M5320 832 c0 -5 47 -39 105 -75 l105 -67 -160 -10 c-202 -13 -149
-41 78 -42 173 -1 211 -15 437 -165 134 -89 127 -93 -178 -93 -272 0 -274 0
-371 63 -117 75 -149 64 -45 -15 65 -49 69 -58 36 -71 -29 -11 -25 -14 21 -16
38 -1 102 -37 190 -106 271 -216 303 -238 347 -231 37 5 16 27 -115 121 -88
63 -187 137 -220 164 l-60 50 255 1 255 0 0 58 c0 52 -17 67 -149 140 -202
111 -204 122 -12 122 108 0 161 8 161 23 0 17 -54 20 -194 10 l-193 -12 -138
79 c-138 80 -155 88 -155 72z"/>
<path d="M4080 340 c0 -11 54 -19 125 -18 93 1 112 6 75 18 -73 23 -200 23
-200 0z"/>
<path d="M2980 180 c-27 -21 -75 -44 -105 -51 -30 -7 -55 -20 -55 -30 0 -9 25
-6 55 7 88 39 185 94 185 105 0 19 -31 7 -80 -31z"/>
<path d="M3233 125 c18 -131 37 -150 104 -107 22 14 20 25 -15 60 -23 23 -42
60 -42 82 0 22 -13 40 -29 40 -21 0 -26 -18 -18 -75z"/>
</g>
</svg>
