<?xml version="1.0" standalone="no"?>
<!DOCTYPE svg PUBLIC "-//W3C//DTD SVG 20010904//EN"
 "http://www.w3.org/TR/2001/REC-SVG-20010904/DTD/svg10.dtd">
<svg version="1.0" xmlns="http://www.w3.org/2000/svg"
 width="300.000000pt" height="400.000000pt" viewBox="0 0 300.000000 400.000000"
 preserveAspectRatio="xMidYMid meet">
<metadata>
Created by potrace 1.10, written by Peter Selinger 2001-2011
</metadata>
<g transform="translate(0.000000,400.000000) scale(0.100000,-0.100000)"
fill="#000000" stroke="none">
<path d="M765 3978 c3 -13 9 -52 15 -88 22 -146 99 -267 187 -294 36 -11 18
19 -20 35 -35 15 -83 64 -93 94 -3 11 -17 43 -31 72 -16 34 -26 76 -30 127 -4
55 -10 76 -20 76 -9 0 -12 -8 -8 -22z"/>
<path d="M822 3982 c3 -12 1 -23 -5 -25 -6 -2 -4 -6 4 -9 9 -3 22 -3 29 2 9 6
7 13 -10 30 -23 23 -23 23 -18 2z"/>
<path d="M870 3991 c0 -6 5 -13 10 -16 6 -3 10 1 10 9 0 9 -4 16 -10 16 -5 0
-10 -4 -10 -9z"/>
<path d="M931 3984 c0 -11 3 -14 6 -6 3 7 2 16 -1 19 -3 4 -6 -2 -5 -13z"/>
<path d="M980 3979 c7 -11 9 -32 6 -45 -5 -17 -2 -23 6 -22 8 2 12 -5 10 -17
-1 -11 -3 -31 -4 -45 -1 -30 -35 -112 -51 -122 -9 -6 -8 -10 2 -17 11 -7 18 1
31 40 18 53 26 66 36 56 4 -4 1 -20 -6 -36 -6 -17 -10 -36 -8 -43 3 -7 10 4
17 25 24 72 42 32 20 -46 -8 -31 -7 -43 5 -62 14 -21 14 -24 0 -36 -13 -11
-17 -10 -25 2 -4 9 -17 27 -28 40 l-20 24 9 -35 c10 -36 42 -70 66 -70 8 0 11
7 8 18 -3 9 4 0 16 -20 16 -30 26 -38 49 -38 26 0 28 -3 30 -46 1 -28 9 -57
21 -74 11 -16 20 -32 20 -37 1 -11 50 -70 50 -60 0 5 -13 27 -29 50 -15 23
-31 53 -35 67 -18 62 -18 60 1 53 16 -6 17 -6 2 9 -19 20 -14 78 8 78 19 0
115 41 109 47 -2 3 -26 -5 -51 -16 -26 -12 -49 -21 -50 -21 -2 0 -7 55 -11
123 -4 67 -8 127 -9 132 -1 6 -3 45 -3 88 -2 64 -5 77 -18 77 -17 0 -16 -2 2
-77 5 -17 1 -22 -17 -25 -32 -4 -34 -29 -6 -62 19 -21 26 -45 31 -99 12 -114
12 -152 1 -152 -6 0 -9 27 -8 64 1 36 -3 59 -8 54 -9 -9 -16 -109 -9 -133 3
-9 -3 -16 -16 -18 -14 -2 -24 3 -27 15 -4 10 -12 26 -19 36 -11 16 -10 21 10
37 24 19 29 68 11 105 -7 15 -8 10 -5 -21 4 -46 -8 -76 -28 -68 -11 4 -13 18
-10 50 6 61 8 68 19 76 6 5 5 8 -2 8 -7 0 -13 5 -13 10 0 18 22 10 27 -9 3
-11 11 -22 19 -25 11 -4 11 1 -2 27 -10 17 -18 41 -20 52 -1 11 -5 27 -8 35
-4 9 2 25 14 38 11 12 16 22 10 22 -14 0 -13 33 2 48 9 9 9 12 1 12 -7 0 -19
-10 -27 -22 -9 -12 -19 -19 -22 -15 -4 4 -1 13 6 22 7 8 8 15 2 15 -5 0 -12
-7 -16 -15 -3 -8 -10 -15 -16 -15 -5 0 -10 7 -10 15 0 9 -9 15 -25 15 -23 0
-25 -2 -15 -21z m70 -24 c40 -9 38 -20 -4 -20 -21 0 -32 4 -29 11 2 7 0 15 -6
19 -6 3 -11 12 -11 18 0 7 5 4 10 -5 6 -9 24 -19 40 -23z m15 -36 c4 -6 5 -12
2 -15 -7 -7 -37 7 -37 17 0 13 27 11 35 -2z m-5 -40 c0 -11 -27 -12 -34 0 -3
4 -3 11 0 14 8 8 34 -3 34 -14z m100 -16 c0 -25 -1 -26 -16 -11 -9 9 -13 21
-10 27 13 20 26 11 26 -16z m-130 -18 c0 -8 -4 -15 -10 -15 -5 0 -10 7 -10 15
0 8 5 15 10 15 6 0 10 -7 10 -15z m22 -27 c-15 -15 -24 -6 -16 16 5 12 10 14
17 7 8 -8 8 -14 -1 -23z"/>
<path d="M1236 3985 c-11 -8 -15 -15 -10 -15 6 0 19 7 30 15 10 8 15 14 9 14
-5 0 -19 -6 -29 -14z"/>
<path d="M1320 3989 c0 -5 5 -7 10 -4 6 3 10 8 10 11 0 2 -4 4 -10 4 -5 0 -10
-5 -10 -11z"/>
<path d="M1360 3984 l-25 -15 25 7 c28 7 35 12 29 18 -2 2 -15 -2 -29 -10z"/>
<path d="M2319 3958 c0 -24 -2 -53 -3 -65 -1 -12 1 -28 6 -35 5 -9 8 -3 9 17
5 100 5 125 -3 125 -4 0 -8 -19 -9 -42z"/>
<path d="M1262 3970 c-55 -25 -54 -33 1 -12 48 18 52 20 46 26 -2 3 -23 -4
-47 -14z"/>
<path d="M1475 3980 c-8 -13 5 -13 25 0 13 8 13 10 -2 10 -9 0 -20 -4 -23 -10z"/>
<path d="M1731 3964 c0 -11 3 -14 6 -6 3 7 2 16 -1 19 -3 4 -6 -2 -5 -13z"/>
<path d="M2850 3976 c0 -2 7 -9 15 -16 9 -7 15 -8 15 -2 0 5 -7 12 -15 16 -8
3 -15 4 -15 2z"/>
<path d="M930 3898 c-3 -37 -1 -63 3 -59 4 4 7 35 5 67 l-3 59 -5 -67z"/>
<path d="M870 3946 c0 -3 9 -10 20 -16 11 -6 20 -8 20 -6 0 3 -9 10 -20 16
-11 6 -20 8 -20 6z"/>
<path d="M1335 3931 c-73 -27 -101 -40 -92 -40 12 -1 157 51 157 55 0 7 -14 4
-65 -15z"/>
<path d="M1390 3925 c-77 -29 -94 -37 -60 -29 14 3 36 8 49 11 18 4 22 3 16
-7 -5 -9 -4 -11 4 -6 6 4 9 12 6 17 -4 5 0 9 7 9 8 0 23 7 34 15 25 19 20 18
-56 -10z"/>
<path d="M1652 3934 c10 -10 20 -15 24 -12 3 4 -5 12 -18 18 -22 12 -22 12 -6
-6z"/>
<path d="M813 3925 c0 -7 6 -11 14 -8 7 3 13 6 13 8 0 2 -6 5 -13 8 -8 3 -14
-1 -14 -8z"/>
<path d="M1717 3925 c-7 -16 8 -29 23 -20 10 6 2 35 -10 35 -4 0 -10 -7 -13
-15z"/>
<path d="M2905 3920 c3 -5 11 -10 16 -10 6 0 7 5 4 10 -3 6 -11 10 -16 10 -6
0 -7 -4 -4 -10z"/>
<path d="M880 3910 c8 -5 10 -10 5 -10 -13 0 -19 -57 -7 -64 5 -3 7 6 4 21 -4
22 -2 25 13 19 15 -5 16 -4 5 9 -10 12 -10 15 1 15 11 0 11 2 -1 10 -8 5 -19
10 -25 10 -5 0 -3 -5 5 -10z"/>
<path d="M838 3903 c7 -3 16 -2 19 1 4 3 -2 6 -13 5 -11 0 -14 -3 -6 -6z"/>
<path d="M1640 3899 c0 -5 5 -7 10 -4 6 3 10 8 10 11 0 2 -4 4 -10 4 -5 0 -10
-5 -10 -11z"/>
<path d="M811 3886 c2 -2 13 -8 25 -14 16 -8 21 -8 21 1 0 7 -12 14 -25 15
-14 1 -24 0 -21 -2z"/>
<path d="M1340 3880 c-8 -5 -10 -10 -5 -10 6 0 17 5 25 10 8 5 11 10 5 10 -5
0 -17 -5 -25 -10z"/>
<path d="M1463 3883 c-13 -2 -23 -8 -23 -13 0 -5 15 -4 33 2 52 18 47 22 -10
11z"/>
<path d="M1710 3877 c0 -7 9 -13 21 -14 17 -2 18 1 9 13 -15 17 -30 18 -30 1z"/>
<path d="M950 3869 c0 -5 5 -7 10 -4 6 3 10 8 10 11 0 2 -4 4 -10 4 -5 0 -10
-5 -10 -11z"/>
<path d="M1650 3870 c0 -13 18 -22 24 -11 3 5 -1 11 -9 15 -8 3 -15 1 -15 -4z"/>
<path d="M823 3847 c2 -13 17 -27 29 -27 4 0 5 6 2 14 -7 18 -35 30 -31 13z"/>
<path d="M1358 3847 c-16 -6 -28 -14 -28 -19 0 -6 76 18 89 29 10 7 -36 0 -61
-10z"/>
<path d="M950 3839 c0 -5 5 -7 10 -4 6 3 10 8 10 11 0 2 -4 4 -10 4 -5 0 -10
-5 -10 -11z"/>
<path d="M1450 3830 c-30 -10 -49 -18 -42 -19 15 -1 112 29 112 35 0 6 -12 4
-70 -16z"/>
<path d="M1650 3824 c0 -8 6 -11 15 -8 8 4 15 9 15 13 0 4 -7 8 -15 8 -8 0
-15 -6 -15 -13z"/>
<path d="M1721 3824 c0 -11 3 -14 6 -6 3 7 2 16 -1 19 -3 4 -6 -2 -5 -13z"/>
<path d="M2477 3833 c-9 -9 -9 -71 1 -76 4 -3 7 15 7 39 0 24 0 44 -1 44 0 0
-4 -3 -7 -7z"/>
<path d="M1265 3814 l-30 -15 35 6 c19 3 39 10 44 15 15 15 -14 11 -49 -6z"/>
<path d="M870 3810 c0 -7 24 -20 36 -20 13 0 1 19 -16 23 -11 3 -20 2 -20 -3z"/>
<path d="M1498 3813 c7 -3 16 -2 19 1 4 3 -2 6 -13 5 -11 0 -14 -3 -6 -6z"/>
<path d="M1312 3788 c-34 -12 -60 -23 -58 -25 5 -6 118 28 131 39 14 12 -2 9
-73 -14z"/>
<path d="M921 3784 c0 -11 3 -14 6 -6 3 7 2 16 -1 19 -3 4 -6 -2 -5 -13z"/>
<path d="M1715 3790 c3 -5 8 -10 11 -10 2 0 4 5 4 10 0 6 -5 10 -11 10 -5 0
-7 -4 -4 -10z"/>
<path d="M2078 3758 c-5 -28 -4 -29 9 -13 15 22 16 32 4 39 -5 3 -11 -8 -13
-26z"/>
<path d="M2315 3771 c-3 -11 -14 -22 -23 -24 -15 -4 -14 -5 2 -6 17 -1 45 24
46 42 0 15 -19 6 -25 -12z"/>
<path d="M1315 3763 c-60 -21 -66 -35 -7 -16 29 9 52 20 52 25 0 4 -1 7 -2 7
-2 -1 -21 -8 -43 -16z"/>
<path d="M1130 3763 c0 -4 5 -15 10 -23 8 -13 10 -13 10 2 0 9 -4 20 -10 23
-5 3 -10 3 -10 -2z"/>
<path d="M1564 3755 c-5 -11 -10 -13 -19 -5 -13 11 -65 4 -65 -9 0 -3 4 -12 8
-18 10 -16 112 15 112 34 0 18 -29 16 -36 -2z m-30 -17 c-3 -4 -12 -8 -20 -8
-8 0 -13 4 -10 8 3 5 12 9 20 9 8 0 13 -4 10 -9z"/>
<path d="M1680 3761 c0 -6 4 -13 10 -16 6 -3 7 1 4 9 -7 18 -14 21 -14 7z"/>
<path d="M1718 3752 c-4 -16 -1 -25 12 -32 25 -13 30 -13 30 5 0 8 -6 15 -14
15 -8 0 -16 8 -18 18 -3 14 -5 13 -10 -6z"/>
<path d="M2236 3731 c-3 -5 3 -11 14 -14 13 -3 20 0 20 9 0 15 -26 19 -34 5z"/>
<path d="M2597 3733 c-10 -9 -9 -33 1 -33 4 0 8 9 8 20 0 23 0 22 -9 13z"/>
<path d="M2195 3720 c-4 -6 -9 -8 -13 -6 -4 2 -7 -20 -7 -50 0 -47 2 -52 13
-37 7 10 10 28 8 39 -4 13 0 27 9 34 8 7 15 16 15 21 0 12 -17 11 -25 -1z"/>
<path d="M2135 3712 c-13 -9 -19 -66 -7 -58 7 4 24 67 18 66 -1 0 -5 -4 -11
-8z"/>
<path d="M1623 3687 c-13 -5 -23 -14 -23 -19 0 -5 10 -2 22 6 12 9 26 12 32 7
14 -10 46 -22 46 -16 0 2 -12 11 -27 18 -21 11 -34 12 -50 4z"/>
<path d="M2000 3679 c-121 -38 -117 -36 -98 -44 9 -3 27 0 40 9 13 8 39 17 58
20 19 3 46 8 59 12 22 7 23 5 19 -24 -2 -17 -1 -29 3 -27 4 3 9 21 11 40 5 42
1 42 -92 14z"/>
<path d="M2281 3674 c0 -11 3 -14 6 -6 3 7 2 16 -1 19 -3 4 -6 -2 -5 -13z"/>
<path d="M1408 3673 c7 -3 16 -2 19 1 4 3 -2 6 -13 5 -11 0 -14 -3 -6 -6z"/>
<path d="M1562 3661 c-11 -7 -10 -9 3 -14 9 -4 14 -3 10 2 -3 5 1 12 7 14 7 3
9 6 3 6 -5 0 -16 -3 -23 -8z"/>
<path d="M1365 3650 c-3 -5 -2 -10 4 -10 5 0 13 5 16 10 3 6 2 10 -4 10 -5 0
-13 -4 -16 -10z"/>
<path d="M1330 3639 c0 -5 5 -7 10 -4 6 3 10 8 10 11 0 2 -4 4 -10 4 -5 0 -10
-5 -10 -11z"/>
<path d="M1510 3640 c-9 -6 -10 -10 -3 -10 6 0 15 5 18 10 8 12 4 12 -15 0z"/>
<path d="M1744 3641 c4 -6 12 -11 18 -11 6 0 34 -11 62 -24 28 -13 62 -26 76
-30 14 -3 -7 9 -47 28 -88 42 -118 52 -109 37z"/>
<path d="M1947 3633 c-8 -12 30 -29 40 -19 4 3 -1 6 -9 6 -9 0 -18 5 -20 12
-3 9 -6 9 -11 1z"/>
<path d="M2440 3626 c39 -13 116 -63 168 -108 18 -15 37 -28 43 -28 6 0 23 -9
39 -20 40 -29 217 -128 242 -136 19 -6 20 -5 8 7 -8 8 -31 22 -50 31 -19 10
-42 22 -50 27 -8 5 -64 37 -125 72 -60 34 -114 68 -118 75 -4 8 -12 14 -17 14
-5 0 -37 18 -71 40 -34 22 -72 40 -83 40 -14 -1 -10 -5 14 -14z"/>
<path d="M452 3605 c0 -16 2 -22 5 -12 2 9 2 23 0 30 -3 6 -5 -1 -5 -18z"/>
<path d="M1455 3620 c-16 -7 -17 -9 -3 -9 9 -1 20 4 23 9 7 11 7 11 -20 0z"/>
<path d="M2338 3613 c7 -3 16 -2 19 1 4 3 -2 6 -13 5 -11 0 -14 -3 -6 -6z"/>
<path d="M1385 3590 c-22 -10 -36 -19 -32 -19 12 -1 77 27 77 33 0 7 3 8 -45
-14z"/>
<path d="M2007 3599 c7 -7 15 -10 18 -7 3 3 -2 9 -12 12 -14 6 -15 5 -6 -5z"/>
<path d="M2130 3600 c-13 -8 -12 -10 3 -10 9 0 17 5 17 10 0 12 -1 12 -20 0z"/>
<path d="M2440 3600 c0 -5 5 -10 11 -10 5 0 7 5 4 10 -3 6 -8 10 -11 10 -2 0
-4 -4 -4 -10z"/>
<path d="M2488 3573 c6 -2 10 -9 7 -14 -4 -5 2 -6 11 -2 13 5 15 3 9 -7 -5 -8
-4 -11 3 -6 6 3 28 -12 50 -34 21 -23 59 -52 83 -66 24 -13 71 -39 103 -57 32
-17 66 -36 75 -42 93 -58 134 -76 144 -66 8 8 7 11 -5 11 -9 0 -49 19 -90 41
-40 23 -113 64 -163 92 -49 27 -108 67 -130 87 -47 44 -85 70 -100 69 -5 0 -4
-3 3 -6z"/>
<path d="M1265 3544 c-27 -13 -43 -22 -34 -20 66 18 99 30 99 38 0 12 -10 9
-65 -18z"/>
<path d="M1975 3550 c-16 -7 -17 -9 -3 -9 9 -1 20 4 23 9 7 11 7 11 -20 0z"/>
<path d="M1431 3521 c-8 -5 -9 -11 -3 -15 5 -3 12 1 16 9 6 17 6 18 -13 6z"/>
<path d="M1288 3448 c5 -5 16 -8 23 -6 8 3 3 7 -10 11 -17 4 -21 3 -13 -5z"/>
<path d="M2045 3430 c-27 -4 -77 -18 -110 -30 -33 -12 -71 -23 -85 -25 -14 -2
-52 -11 -85 -19 -33 -8 -63 -12 -67 -10 -5 3 -8 1 -8 -4 0 -5 -6 -9 -12 -9 -7
0 -33 -5 -57 -11 -25 -6 -49 -9 -53 -6 -4 3 -8 0 -8 -5 0 -6 -9 -11 -20 -11
-11 0 -20 -5 -20 -12 0 -6 -3 -9 -6 -6 -3 4 -20 0 -39 -7 -18 -8 -34 -13 -36
-11 -2 2 -10 -3 -18 -12 -13 -14 -12 -15 16 -9 24 5 35 1 49 -15 11 -12 13
-18 7 -14 -8 4 -13 1 -13 -8 0 -9 5 -16 11 -16 5 0 7 -4 4 -10 -3 -5 -18 -10
-33 -10 -15 0 -40 -7 -56 -15 -15 -8 -43 -15 -62 -15 -18 0 -36 -4 -39 -10 -9
-14 90 -12 145 3 42 11 48 18 54 56 2 8 10 19 19 26 9 7 17 18 17 26 0 8 -6 6
-15 -7 -11 -13 -14 -14 -13 -4 2 10 -4 14 -17 12 -13 -3 -17 0 -10 6 9 9 71
28 253 78 30 8 58 12 63 8 5 -3 9 0 9 5 0 6 5 11 10 11 6 0 10 -13 10 -30 0
-25 4 -30 23 -29 21 0 21 1 2 9 -15 6 -9 9 25 8 36 0 40 -2 20 -8 l-25 -7 30
-5 30 -5 -28 -2 c-16 0 -25 -5 -22 -11 3 -5 1 -10 -4 -10 -6 0 -11 5 -11 10 0
7 -6 7 -17 1 -10 -6 -39 -13 -65 -16 -77 -10 -70 -27 8 -21 38 3 77 5 87 5 9
1 17 8 17 16 0 13 8 15 38 10 68 -12 110 -25 119 -38 10 -12 25 -72 16 -63 -3
2 -20 -6 -38 -19 -49 -32 -151 -50 -292 -50 -66 0 -119 -3 -117 -7 11 -18 -14
-40 -65 -55 -78 -24 -316 -24 -381 0 -25 9 -66 17 -92 17 -41 0 -48 3 -48 20
0 13 7 20 20 20 15 0 20 7 20 28 0 26 3 28 148 68 l147 41 5 -31 c5 -31 5 -31
35 -16 38 19 37 53 -1 44 -19 -5 -23 -3 -19 9 5 12 -1 14 -32 10 -21 -2 -49
-5 -63 -6 -14 -1 -31 -8 -39 -15 -10 -9 -17 -10 -24 -3 -13 13 -30 15 -23 2 7
-10 -17 -21 -45 -21 -10 0 -19 -4 -19 -10 0 -5 -13 -8 -30 -6 -18 2 -27 -1
-23 -7 4 -6 0 -8 -11 -4 -9 4 -14 3 -11 -2 3 -5 -4 -12 -15 -16 -11 -4 -18
-11 -14 -16 3 -5 11 -6 17 -2 7 3 -2 -8 -20 -27 -32 -32 -32 -34 -16 -61 17
-28 49 -44 58 -29 12 20 98 -17 90 -39 -3 -8 0 -18 7 -23 20 -12 32 -10 20 5
-5 6 -6 21 -3 31 7 19 8 19 16 0 4 -10 7 -23 6 -27 0 -4 12 -1 28 8 35 18 41
18 41 4 0 -5 -4 -7 -10 -4 -6 4 -7 -1 -3 -11 4 -10 2 -15 -3 -11 -13 8 -41
-10 -31 -20 5 -4 12 -2 16 5 6 10 11 10 21 -3 12 -15 4 -20 -22 -16 -5 0 -8
-4 -8 -9 0 -13 6 -13 30 0 10 6 21 6 24 1 3 -4 18 -6 32 -3 19 3 25 1 20 -7
-4 -6 -16 -11 -27 -11 -11 0 -17 -4 -14 -10 3 -5 -3 -10 -14 -10 -12 0 -21 5
-21 11 0 5 5 7 12 3 6 -4 8 -3 5 4 -4 5 -16 8 -28 5 l-21 -6 21 -20 c20 -20
20 -20 56 -2 19 11 35 22 35 25 0 4 7 15 15 26 14 18 14 18 10 -4 -4 -20 -2
-22 10 -12 8 7 15 9 15 5 0 -4 21 12 47 35 26 22 53 38 60 36 13 -5 18 6 7 17
-8 7 -44 -13 -60 -33 -7 -8 -17 -16 -23 -16 -6 -1 -13 -3 -16 -4 -14 -7 -31
-5 -37 5 -5 6 -8 6 -8 -2 0 -6 -9 -9 -21 -6 -14 4 -26 0 -34 -10 -11 -15 -13
-14 -25 9 -12 21 -11 27 2 41 14 14 19 14 37 1 11 -8 18 -18 14 -21 -3 -4 -1
-7 5 -7 7 0 12 5 12 10 0 6 7 10 15 10 8 0 15 -5 15 -11 0 -5 15 1 33 14 18
14 60 29 97 36 36 7 74 18 85 25 26 16 75 26 75 15 0 -5 9 -9 20 -9 25 0 26
-12 0 -27 -13 -9 -21 -9 -26 -2 -4 8 -9 7 -14 -2 -6 -9 -12 -8 -27 6 -17 18
-18 18 -21 -20 -4 -41 -26 -67 -51 -57 -8 3 -12 1 -8 -5 7 -11 -36 -23 -84
-23 -16 0 -29 -4 -29 -10 0 -17 69 -11 109 10 21 10 52 31 70 45 17 15 31 22
31 16 0 -6 -6 -11 -12 -11 -10 0 -9 -3 1 -9 10 -6 6 -13 -18 -27 -17 -10 -31
-25 -31 -32 0 -11 -3 -12 -13 -4 -9 8 -25 7 -57 -3 -47 -14 -42 -16 37 -17 18
0 38 -7 44 -14 6 -8 19 -14 29 -14 13 0 16 -8 15 -32 -1 -18 -7 -34 -14 -36
-6 -2 -8 -8 -5 -13 3 -6 7 -50 8 -100 2 -73 0 -92 -13 -99 -12 -7 -9 -9 14
-10 21 0 26 -3 16 -9 -8 -5 -11 -16 -7 -27 6 -18 5 -18 -8 0 -12 14 -21 17
-43 10 l-28 -8 25 -4 c14 -2 30 -10 37 -19 6 -8 16 -12 22 -8 6 3 11 1 11 -4
0 -6 -6 -11 -14 -11 -22 0 -30 -20 -13 -33 16 -13 30 -106 16 -108 -5 -1 -14
-2 -21 -3 -6 0 -13 -6 -15 -12 -3 -9 26 -11 103 -9 67 2 102 0 93 -6 -11 -7
-9 -9 9 -9 13 0 20 -4 17 -10 -3 -6 -33 -10 -66 -10 -53 0 -59 -2 -59 -21 0
-18 5 -21 30 -17 17 3 30 1 30 -3 0 -10 -38 -22 -49 -15 -4 3 -16 -13 -24 -36
-9 -23 -16 -42 -14 -43 9 -5 106 9 102 15 -3 4 -23 6 -45 3 -22 -3 -40 -3 -40
1 0 13 34 45 43 39 5 -3 14 1 19 8 7 11 11 11 15 2 2 -7 9 -13 14 -13 6 0 5 9
-2 21 -13 25 4 42 32 34 12 -4 18 3 23 25 7 37 28 31 22 -6 -4 -22 -2 -24 40
-24 24 0 44 5 44 10 0 16 -33 26 -38 12 -6 -19 -22 -14 -22 7 0 36 -11 50 -35
45 -25 -4 -55 28 -69 73 -6 19 -2 25 19 33 35 13 38 13 31 -7 -4 -9 -1 -20 6
-24 10 -6 9 -11 -4 -21 -11 -8 -14 -18 -10 -25 5 -9 20 11 42 57 25 52 37 67
46 59 20 -16 28 9 9 27 -9 9 -14 23 -11 31 3 8 6 19 6 24 0 6 5 7 12 3 6 -4
17 1 25 11 7 11 13 15 13 10 0 -5 7 0 16 11 8 10 12 12 8 4 -7 -13 -5 -13 9
-1 10 8 17 9 17 3 0 -6 3 -17 6 -25 4 -12 -2 -14 -30 -10 -22 3 -36 0 -36 -6
0 -6 5 -11 10 -11 6 0 10 -9 10 -19 0 -20 18 -31 50 -31 25 0 33 40 18 95 -11
40 -28 62 -28 34 0 -5 -4 -8 -9 -4 -5 3 -10 51 -9 106 0 55 -3 103 -6 106 -3
4 -6 -10 -6 -30 0 -21 -4 -37 -10 -37 -5 0 -10 16 -10 35 0 19 -4 35 -10 35
-5 0 -10 -4 -10 -9 0 -5 -8 -8 -17 -6 -10 2 -21 4 -25 4 -5 1 -8 10 -8 22 0
11 -4 18 -9 14 -5 -3 -7 -21 -4 -40 5 -31 3 -35 -16 -35 -14 0 -21 6 -21 20 0
11 -6 23 -14 26 -7 3 -13 16 -13 30 0 22 8 29 29 25 4 0 7 9 5 20 -1 15 4 23
21 25 15 3 22 -1 22 -12 0 -10 -6 -14 -15 -10 -10 4 -15 -1 -15 -14 0 -11 5
-20 10 -20 6 0 10 6 10 13 0 8 4 7 10 -3 9 -13 10 -13 11 0 1 8 3 26 4 40 3
30 -22 83 -35 75 -6 -4 -10 -2 -10 2 0 5 -14 14 -31 20 -26 10 -30 10 -25 -3
3 -8 -1 -14 -9 -14 -8 0 -15 6 -15 13 0 25 25 44 73 56 26 6 66 16 90 21 23 6
53 13 67 15 14 3 35 16 47 30 12 14 29 25 37 25 26 0 46 12 46 27 0 10 -10 13
-36 11 -35 -3 -36 -2 -39 35 -3 31 -1 37 15 37 11 0 20 5 20 10 0 6 -7 10 -15
10 -20 0 -19 16 0 24 13 5 12 9 -6 27 -22 22 -19 39 5 20 11 -9 16 -9 22 0 5
8 3 9 -5 5 -8 -6 -11 -2 -9 10 2 11 -2 18 -9 17 -7 -2 -13 2 -13 8 0 8 -5 8
-15 -1 -12 -10 -15 -10 -15 0 0 10 -3 10 -15 0 -8 -7 -15 -9 -15 -5 0 5 -10 0
-22 -11 -21 -19 -21 -19 -14 0 7 19 6 19 -14 1 -11 -10 -20 -13 -20 -6 0 21
98 51 129 39 20 -7 22 -6 12 5 -6 8 -8 17 -4 20 3 4 4 6 2 6 -2 -1 -26 -5 -54
-9z m-115 -62 c0 6 5 12 11 12 5 0 7 -4 4 -10 -3 -5 0 -11 7 -12 7 0 20 -2 28
-3 8 -1 23 5 33 13 12 11 17 12 17 3 0 -7 5 -9 13 -4 6 4 20 9 31 10 15 3 16
1 7 -11 -14 -16 -18 -67 -7 -85 11 -17 -2 -13 -33 10 -16 12 -50 22 -84 26
-57 6 -64 12 -51 48 5 13 8 14 15 3 7 -10 9 -10 9 0z m-58 -40 c-9 -9 -15 -9
-24 0 -9 9 -7 12 12 12 19 0 21 -3 12 -12z m188 -202 c0 -2 -9 -6 -20 -9 -11
-3 -18 -1 -14 4 5 9 34 13 34 5z m-270 -58 c0 -5 -18 -8 -40 -8 -22 0 -40 4
-40 8 0 4 18 8 40 7 22 0 40 -3 40 -7z m-26 -29 c-4 -8 1 -9 16 -4 19 6 21 4
15 -17 -9 -30 -17 -36 -22 -20 -13 36 -18 -2 -15 -125 2 -106 7 -142 18 -154
13 -14 14 -36 10 -116 -2 -54 -5 -115 -5 -135 -1 -33 -4 -38 -23 -38 -22 0
-23 4 -20 57 1 32 2 103 1 158 -2 303 1 375 13 375 4 0 7 3 7 8 -2 12 1 22 7
22 3 0 2 -5 -2 -11z m-34 -38 c0 -6 -4 -13 -10 -16 -5 -3 -10 1 -10 9 0 9 5
16 10 16 6 0 10 -4 10 -9z m-30 -53 c-3 -50 -1 -60 10 -53 6 3 10 -1 10 -9 0
-9 -6 -13 -13 -10 -20 7 -22 -130 -2 -146 12 -10 15 -43 15 -156 l0 -144 -25
0 c-15 0 -23 5 -21 13 12 36 15 77 6 72 -12 -8 -12 -3 0 29 5 14 6 26 2 26 -5
0 -6 22 -2 50 3 27 3 53 -2 58 -12 12 2 302 14 302 5 0 9 -15 8 -32z m143 14
c2 7 7 10 11 7 4 -3 0 -12 -8 -18 -12 -10 -17 -8 -26 11 -10 21 -10 21 3 5 11
-13 16 -15 20 -5z m57 -12 c0 -11 -7 -20 -15 -20 -8 0 -15 9 -15 20 0 11 7 20
15 20 8 0 15 -9 15 -20z m-86 -28 c0 -12 -1 -56 -2 -97 -1 -42 -6 -75 -12 -75
-5 0 -10 16 -10 35 0 19 -4 35 -10 35 -5 0 -10 8 -9 18 0 10 3 12 6 4 11 -27
19 0 16 53 -2 41 1 55 10 52 6 -2 12 -13 11 -25z m-400 0 c3 -5 -1 -9 -9 -9
-8 0 -12 4 -9 9 3 4 7 8 9 8 2 0 6 -4 9 -8z m222 -48 c-3 -8 -10 -13 -15 -10
-5 4 -4 16 2 31 9 18 13 20 15 9 2 -8 1 -22 -2 -30z m148 21 c3 -8 1 -15 -4
-15 -6 0 -10 7 -10 15 0 8 2 15 4 15 2 0 6 -7 10 -15z m62 -12 c-10 -10 -19 5
-10 18 6 11 8 11 12 0 2 -7 1 -15 -2 -18z m-129 -65 c-3 -8 -6 -5 -6 6 -1 11
2 17 5 13 3 -3 4 -12 1 -19z m133 -68 c0 -45 -2 -47 -24 -24 -12 11 -13 20 -6
33 5 10 6 21 3 25 -3 3 1 6 10 6 13 0 17 -9 17 -40z m103 16 c-3 -15 -10 -23
-18 -20 -7 3 -15 -5 -18 -18 -6 -22 -5 -22 8 -4 11 14 15 16 15 5 0 -11 2 -12
9 0 5 8 16 11 29 7 17 -6 20 -15 18 -66 0 -33 -4 -60 -9 -60 -4 0 -13 -12 -19
-26 -8 -17 -18 -24 -30 -21 -10 3 -21 1 -24 -5 -3 -5 -17 -7 -30 -4 -19 5 -24
2 -24 -12 0 -10 3 -22 8 -26 10 -11 9 -30 -3 -39 -6 -5 0 -7 13 -4 27 6 28 -3
3 -48 l-18 -35 -8 58 c-9 70 -9 185 0 232 4 19 7 43 7 52 -1 33 18 29 19 -4 2
-30 2 -31 6 -5 2 15 8 27 13 27 5 0 12 9 15 20 3 11 14 20 24 20 14 0 17 -6
14 -24z m-113 -76 c0 -5 -7 -7 -15 -4 -8 4 -15 8 -15 10 0 2 7 4 15 4 8 0 15
-4 15 -10z m-173 -77 c-3 -10 -5 -2 -5 17 0 19 2 27 5 18 2 -10 2 -26 0 -35z
m366 -96 c4 3 7 2 7 -4 0 -15 -11 -22 -26 -16 -8 3 -14 12 -14 20 0 12 3 13
13 4 8 -6 17 -8 20 -4z m-200 -58 c-4 -16 -8 -17 -14 -7 -5 7 -4 14 1 16 6 2
7 9 4 14 -4 6 -2 8 4 5 5 -4 8 -16 5 -28z m-133 -63 c0 -24 28 -26 34 -3 5 22
5 22 20 2 15 -20 15 -20 16 0 0 17 2 17 10 5 5 -8 10 -20 10 -26 0 -16 -51
-24 -72 -13 -14 7 -18 6 -18 -6 0 -9 9 -15 25 -15 14 0 25 -5 25 -11 0 -6 -9
-8 -20 -4 -11 3 -20 2 -20 -3 0 -5 -7 -9 -15 -9 -11 0 -15 12 -15 49 0 26 5
48 10 48 6 0 10 -6 10 -14z m80 -57 c0 -15 -18 -19 -23 -6 -3 8 1 14 9 14 8 0
14 -4 14 -8z m30 -3 c0 -8 -6 -16 -14 -19 -10 -4 -12 0 -9 14 6 22 23 26 23 5z"/>
<path d="M2045 3360 c-3 -5 -12 -7 -20 -3 -8 3 -15 0 -15 -7 0 -6 5 -8 10 -5
6 3 10 2 10 -3 0 -17 26 -8 27 10 2 20 -3 23 -12 8z"/>
<path d="M1970 2709 c0 -19 -4 -21 -35 -16 -30 5 -35 3 -35 -14 0 -10 -6 -19
-13 -19 -9 0 -14 -12 -14 -32 0 -18 2 -27 5 -20 2 6 12 12 22 12 13 0 17 -6
14 -22 -4 -21 -4 -22 5 -3 5 11 10 35 10 53 1 44 21 41 21 -3 0 -22 5 -35 13
-35 9 0 14 19 15 60 1 33 0 60 -3 60 -3 0 -5 -10 -5 -21z"/>
<path d="M1875 2680 c-3 -5 -1 -10 4 -10 6 0 11 5 11 10 0 6 -2 10 -4 10 -3 0
-8 -4 -11 -10z"/>
<path d="M521 3414 c0 -11 3 -14 6 -6 3 7 2 16 -1 19 -3 4 -6 -2 -5 -13z"/>
<path d="M0 3417 c0 -5 55 -18 134 -33 15 -2 85 -18 156 -34 149 -35 151 -35
143 -14 -3 9 -9 11 -12 6 -4 -6 -34 -2 -81 10 -41 10 -84 21 -95 23 -11 3 -33
8 -50 11 -16 3 -34 9 -39 12 -5 3 -21 6 -35 7 -14 1 -47 5 -73 9 -27 5 -48 6
-48 3z"/>
<path d="M460 3376 c0 -13 -6 -27 -12 -29 -8 -3 -6 -6 5 -6 12 -1 17 7 17 29
0 17 -2 30 -5 30 -3 0 -5 -11 -5 -24z"/>
<path d="M0 3342 c0 -10 50 -23 147 -37 24 -4 44 -6 45 -5 2 1 16 -3 31 -9 29
-11 179 -39 250 -47 21 -2 43 -6 49 -10 5 -4 27 -8 47 -11 20 -2 43 -7 51 -10
18 -8 27 -10 40 -12 7 -1 8 -58 5 -168 -4 -93 -8 -330 -10 -528 -3 -378 -12
-702 -21 -771 -4 -37 -8 -41 -26 -36 -14 3 -26 -1 -34 -13 -8 -10 -26 -19 -41
-21 -16 -1 -48 -5 -73 -9 -25 -3 -61 -8 -80 -10 -19 -2 -46 -6 -60 -9 -14 -3
-88 -15 -165 -27 -77 -11 -144 -26 -150 -31 -7 -7 0 -9 20 -5 17 3 143 22 280
42 160 24 256 43 267 53 11 9 26 12 42 8 21 -5 26 -2 30 16 17 76 51 1507 36
1521 -4 5 -63 19 -131 32 -259 49 -505 96 -526 102 -13 3 -23 1 -23 -5z"/>
<path d="M507 3343 c-3 -5 -1 -17 4 -28 7 -17 8 -17 8 8 1 27 -4 34 -12 20z"/>
<path d="M1390 3340 c-8 -5 -10 -10 -5 -10 6 0 17 5 25 10 8 5 11 10 5 10 -5
0 -17 -5 -25 -10z"/>
<path d="M2207 3324 c-10 -13 -27 -24 -37 -24 -11 0 -20 -5 -20 -11 0 -13 39
-2 61 17 24 21 34 17 14 -6 -10 -11 -16 -22 -13 -25 3 -3 13 4 22 14 16 17 16
22 4 39 -13 19 -14 19 -31 -4z"/>
<path d="M461 3299 c8 -16 14 -18 22 -10 9 9 8 14 -3 21 -24 16 -31 11 -19
-11z"/>
<path d="M1773 3313 c9 -2 23 -2 30 0 6 3 -1 5 -18 5 -16 0 -22 -2 -12 -5z"/>
<path d="M2158 3313 c7 -3 16 -2 19 1 4 3 -2 6 -13 5 -11 0 -14 -3 -6 -6z"/>
<path d="M1145 3293 c-22 -8 -118 -39 -214 -68 -95 -29 -177 -57 -182 -62 -10
-10 -19 -253 -9 -253 3 0 14 -177 24 -392 20 -437 26 -541 32 -547 4 -5 7 77
4 123 -1 17 2 26 9 22 7 -5 7 3 0 24 -7 18 -8 56 -4 93 3 34 6 79 5 101 -1 36
1 38 25 34 14 -3 28 -1 31 4 3 5 13 3 22 -4 12 -10 16 -10 19 0 3 6 9 12 14
12 6 0 7 -4 4 -10 -3 -5 -1 -10 4 -10 6 0 11 5 11 10 0 6 5 10 11 10 6 0 7 -5
2 -12 -22 -35 -29 -74 -16 -87 12 -11 17 -10 31 1 14 12 36 13 113 7 142 -11
574 -17 649 -9 58 7 54 7 -30 5 -161 -4 -715 17 -725 27 -4 4 -8 39 -6 61 1
14 5 16 20 7 11 -5 81 -10 155 -10 116 0 135 2 130 15 -4 8 -10 12 -15 9 -5
-3 -9 6 -9 20 0 22 4 24 33 21 17 -2 26 -1 19 2 -6 2 -9 10 -6 15 4 6 2 8 -4
4 -6 -3 -19 5 -30 19 -11 14 -25 25 -32 25 -6 0 -8 5 -5 10 4 6 11 8 16 5 11
-7 1 65 -11 80 -8 9 -12 193 -7 277 1 21 -2 38 -8 38 -5 0 -10 -7 -10 -14 0
-8 -4 -18 -8 -22 -4 -4 -7 1 -7 10 0 10 -13 31 -30 47 -17 18 -27 36 -23 45 3
8 2 14 -3 13 -5 -1 -16 0 -24 3 -55 21 -110 32 -140 29 -30 -3 -32 -5 -15 -12
15 -7 10 -8 -18 -5 -31 4 -37 2 -28 -8 9 -10 7 -15 -9 -19 -12 -3 -24 1 -29
11 -5 9 -13 13 -17 9 -4 -4 0 -13 10 -20 16 -12 16 -14 -3 -34 -11 -11 -17
-25 -13 -29 4 -5 1 -4 -7 3 -8 7 -12 27 -10 56 3 32 1 43 -8 40 -7 -3 -11 -9
-8 -13 3 -4 -2 -13 -10 -20 -19 -16 -16 -100 4 -100 8 0 11 -6 6 -17 -10 -27
-7 -168 5 -199 6 -16 7 -30 2 -33 -6 -4 -4 -25 3 -53 6 -26 8 -45 3 -42 -4 3
-8 0 -8 -5 0 -6 4 -11 8 -11 5 0 7 -13 4 -30 -4 -25 -1 -30 16 -30 11 0 23 6
26 13 5 10 7 10 12 0 3 -7 11 -13 17 -13 7 1 3 8 -8 18 -26 22 -44 59 -49 100
-4 39 11 53 20 18 3 -13 12 -27 20 -30 17 -7 19 -46 2 -46 -7 0 -1 -12 15 -25
15 -13 27 -29 27 -35 0 -5 7 -10 17 -10 14 0 14 2 -2 20 -10 11 -13 20 -7 20
7 0 12 -5 12 -11 0 -5 5 -7 11 -3 7 4 6 12 -5 23 -15 14 -18 14 -26 1 -5 -8
-13 -11 -17 -6 -4 5 -2 11 5 13 6 3 10 9 7 14 -10 15 29 -3 48 -23 11 -11 26
-17 37 -13 12 4 24 -2 34 -17 14 -20 18 -21 26 -8 8 12 11 13 19 1 7 -11 10
-11 17 0 5 8 9 16 9 19 0 8 45 51 45 43 0 -4 11 9 25 28 l26 34 -2 -41 c-2
-30 -7 -40 -16 -37 -7 3 -13 -2 -13 -11 0 -12 7 -16 28 -14 25 3 27 0 30 -39
3 -40 1 -43 -22 -43 -13 0 -32 -3 -41 -6 -15 -6 -17 0 -13 55 2 38 -1 60 -7
58 -5 -2 -10 -17 -10 -33 0 -16 -7 -32 -15 -36 -12 -5 -12 -7 3 -7 9 -1 17 -6
17 -12 0 -5 -4 -7 -10 -4 -5 3 -10 -1 -10 -10 0 -10 -5 -13 -11 -9 -7 4 -36 6
-65 5 -30 -1 -54 1 -54 5 0 14 35 32 46 24 6 -6 23 -5 40 0 l29 10 -33 -3
c-24 -3 -37 2 -47 17 -8 11 -18 16 -22 12 -4 -4 -1 -11 7 -17 18 -12 -166 -8
-191 4 -11 5 -18 3 -22 -7 -4 -10 -1 -13 9 -9 7 3 14 1 14 -5 0 -6 10 -8 23
-6 16 4 13 1 -8 -9 -29 -14 -27 -14 35 -10 81 7 71 -12 -12 -22 -53 -6 -58 -5
-58 13 0 10 -3 22 -7 26 -10 10 -13 36 -3 36 9 0 6 82 -13 392 -9 150 -9 201
0 213 6 9 14 15 17 14 4 -1 34 4 68 11 44 10 56 15 42 20 -31 11 -144 -23
-144 -43 0 -7 -3 -7 -9 -2 -4 6 -6 27 -4 47 4 32 10 39 42 50 20 6 41 13 46
14 6 1 32 11 58 23 26 12 52 19 58 16 5 -4 15 -2 22 3 14 11 124 54 147 57 22
3 70 24 70 30 0 7 -8 5 -55 -12z m-82 -317 c96 -40 160 -190 136 -320 -17 -95
-58 -138 -146 -152 -52 -8 -87 10 -147 77 -62 69 -78 108 -78 196 0 65 3 78
33 124 18 28 47 60 63 70 36 22 94 24 139 5z m-293 -42 c0 -8 -4 -14 -10 -14
-5 0 -10 9 -10 21 0 11 5 17 10 14 6 -3 10 -13 10 -21z m50 5 c0 -5 -4 -9 -10
-9 -5 0 -10 7 -10 16 0 8 5 12 10 9 6 -3 10 -10 10 -16z m10 -39 c0 -5 -4 -10
-10 -10 -5 0 -10 5 -10 10 0 6 5 10 10 10 6 0 10 -4 10 -10z m33 -405 c4 -8 2
-17 -3 -20 -6 -4 -10 3 -10 14 0 25 6 27 13 6z m212 -14 c-8 -14 -25 -14 -25
0 0 5 5 7 10 4 6 -3 10 -1 10 6 0 7 3 10 6 6 3 -3 3 -10 -1 -16z m30 -1 c3 -5
1 -10 -4 -10 -6 0 -11 5 -11 10 0 6 2 10 4 10 3 0 8 -4 11 -10z m-182 -57 c-7
-2 -21 -2 -30 0 -10 3 -4 5 12 5 17 0 24 -2 18 -5z m61 -9 c4 -10 1 -14 -6
-12 -15 5 -23 28 -10 28 5 0 13 -7 16 -16z m-24 -114 c0 -5 -4 -10 -10 -10 -5
0 -10 5 -10 10 0 6 5 10 10 10 6 0 10 -4 10 -10z"/>
<path d="M1017 2939 c60 -29 95 -73 87 -107 -9 -36 -14 -43 -25 -36 -5 3 -7
10 -4 15 4 5 -13 10 -37 10 -44 1 -41 3 25 14 21 3 35 10 32 15 -3 5 -15 6
-28 1 -19 -7 -23 -5 -23 10 0 21 12 26 19 7 2 -7 8 -10 12 -6 8 8 -12 38 -25
38 -4 0 -18 -9 -31 -21 -13 -11 -19 -18 -13 -15 7 3 15 -1 18 -10 3 -8 2 -13
-3 -10 -16 11 -71 -51 -80 -90 -5 -22 -9 -33 -10 -26 -1 8 -10 25 -20 38 -11
14 -17 33 -14 45 4 16 8 18 14 7 6 -9 9 -3 9 17 0 50 10 72 37 84 32 15 42 7
14 -11 -12 -7 -21 -16 -21 -20 0 -9 58 -3 68 7 4 4 -4 4 -18 0 -24 -7 -24 -7
-5 8 11 9 22 11 23 6 2 -5 9 -9 15 -9 16 0 -12 24 -44 37 -38 16 -69 -3 -96
-57 -39 -77 -27 -200 16 -157 8 8 11 8 11 -2 0 -9 8 -11 25 -7 18 5 27 1 35
-14 7 -14 7 -20 0 -20 -5 0 -10 -4 -10 -9 0 -5 12 -8 26 -8 41 0 53 -21 26
-44 -19 -15 -28 -16 -44 -8 -11 6 -17 16 -15 24 3 7 0 12 -6 12 -33 -1 -47 4
-47 17 0 7 -7 19 -15 26 -26 21 -18 -11 15 -63 45 -72 115 -106 149 -74 11 9
12 9 7 0 -5 -10 -1 -11 16 -4 13 4 36 29 52 55 74 118 22 290 -103 342 -51 22
-61 17 -14 -7z m46 -148 c16 -18 32 -61 22 -61 -3 0 -11 13 -16 30 -13 37 -47
50 -66 24 -19 -26 -16 -61 7 -84 16 -16 25 -18 40 -10 11 6 20 7 20 1 0 -9
-23 -21 -40 -21 -36 0 -75 106 -46 122 9 5 14 13 12 17 -9 15 53 -1 67 -18z
m77 -20 c15 -63 0 -144 -35 -186 -13 -17 -24 -25 -25 -18 0 7 -7 10 -15 7 -8
-4 -15 -1 -15 5 0 6 -5 11 -11 11 -6 0 -9 -6 -6 -13 4 -10 -3 -12 -24 -9 -32
5 -53 25 -23 22 38 -4 64 11 64 37 0 14 12 39 26 56 21 25 25 38 21 69 -3 21
-2 38 3 38 8 0 20 -49 20 -86 0 -33 -30 -105 -41 -98 -5 3 -9 1 -9 -5 0 -24
21 -19 35 10 22 41 30 125 17 172 -6 20 -7 37 -2 37 4 0 13 -22 20 -49z m-80
-32 c0 -33 -22 -48 -45 -29 -18 15 -20 51 -3 68 19 19 48 -4 48 -39z m30 -23
c0 -3 -4 -8 -10 -11 -5 -3 -10 -1 -10 4 0 6 5 11 10 11 6 0 10 -2 10 -4z"/>
<path d="M1060 2648 c0 -9 5 -20 10 -23 13 -8 13 5 0 25 -8 13 -10 13 -10 -2z"/>
<path d="M940 2851 c0 -6 5 -13 12 -17 6 -4 8 -3 4 4 -3 6 2 13 11 15 14 4 13
5 -4 6 -13 0 -23 -3 -23 -8z"/>
<path d="M950 2690 c-11 -7 -12 -12 -4 -20 8 -8 13 -6 17 9 3 12 4 21 4 21 -1
0 -9 -5 -17 -10z"/>
<path d="M1758 3293 c12 -2 32 -2 45 0 12 2 2 4 -23 4 -25 0 -35 -2 -22 -4z"/>
<path d="M1685 3280 c28 -7 27 -8 -15 -10 -25 -1 -54 -5 -65 -10 -20 -9 40 -6
135 7 l45 6 -40 8 c-22 4 -51 8 -65 7 -23 0 -22 -1 5 -8z"/>
<path d="M2180 3240 c0 -11 4 -20 8 -20 4 0 8 9 9 20 1 11 -2 20 -8 20 -5 0
-9 -9 -9 -20z"/>
<path d="M2110 3238 c0 -5 9 -8 21 -8 11 0 17 -4 14 -10 -3 -5 1 -10 11 -10
13 0 14 3 5 13 -6 8 -8 16 -5 19 3 3 -6 5 -20 4 -14 0 -26 -4 -26 -8z"/>
<path d="M2210 3201 c0 -20 -6 -31 -17 -34 -11 -3 -7 -4 7 -4 23 1 25 5 22 34
-5 41 -12 43 -12 4z"/>
<path d="M1690 3210 c-77 -11 -142 -32 -141 -45 1 -15 72 -26 100 -16 25 9 25
9 -9 10 -24 1 -31 4 -21 10 7 5 22 6 34 3 14 -3 18 -1 13 6 -4 7 -3 12 2 12
14 0 21 -49 8 -54 -6 -2 41 -2 104 0 63 2 117 8 120 13 3 4 16 13 30 20 24 12
24 12 5 -5 -20 -16 -19 -16 7 -10 15 3 40 11 55 17 l28 11 -28 15 c-35 18
-214 26 -307 13z m135 -10 c3 -5 1 -10 -4 -10 -6 0 -11 5 -11 10 0 6 2 10 4
10 3 0 8 -4 11 -10z m65 -10 c0 -5 -9 -9 -20 -7 -30 5 -32 12 -5 15 14 1 25
-3 25 -8z m-45 -21 c7 -7 4 -8 -6 -4 -10 4 -20 2 -24 -4 -8 -14 -72 -14 -80
-1 -5 8 -11 7 -21 -1 -12 -10 -15 -10 -12 2 2 8 8 17 13 21 14 10 118 -1 130
-13z"/>
<path d="M2100 3210 c0 -5 5 -10 11 -10 5 0 7 5 4 10 -3 6 -8 10 -11 10 -2 0
-4 -4 -4 -10z"/>
<path d="M1333 3193 c9 -2 23 -2 30 0 6 3 -1 5 -18 5 -16 0 -22 -2 -12 -5z"/>
<path d="M1295 3169 c27 -7 26 -8 -12 -6 -24 2 -43 -1 -43 -5 0 -13 66 -9 101
7 l34 14 -55 -1 c-47 0 -51 -2 -25 -9z"/>
<path d="M2321 3154 c0 -11 3 -14 6 -6 3 7 2 16 -1 19 -3 4 -6 -2 -5 -13z"/>
<path d="M1117 3143 c-11 -10 -8 -53 4 -53 5 0 8 4 5 9 -3 5 8 14 24 21 17 7
30 17 30 22 0 6 -7 5 -15 -2 -11 -9 -18 -10 -28 -1 -8 6 -17 8 -20 4z"/>
<path d="M2210 3138 c-8 -204 -8 -358 0 -333 14 41 23 322 10 330 -6 3 -10 5
-10 3z"/>
<path d="M2289 3083 c-1 -32 -2 -69 -3 -83 -1 -14 1 -36 5 -50 4 -14 7 23 8
83 1 59 -1 107 -4 107 -3 0 -6 -26 -6 -57z"/>
<path d="M2167 3113 c-4 -3 -6 -63 -5 -132 l2 -126 3 119 c2 67 8 126 15 133
11 13 -3 19 -15 6z"/>
<path d="M2322 3100 c0 -14 2 -19 5 -12 2 6 2 18 0 25 -3 6 -5 1 -5 -13z"/>
<path d="M1245 3103 c-16 -3 -35 -9 -42 -15 -7 -5 -17 -7 -23 -3 -5 3 -10 2
-10 -3 0 -10 48 -22 89 -22 18 0 22 3 13 9 -9 5 3 10 34 15 54 7 71 1 25 -9
-63 -14 -29 -25 69 -24 55 1 100 5 100 8 0 4 16 7 35 7 19 0 40 5 46 11 24 24
-222 42 -336 26z m190 -23 c3 -5 1 -10 -4 -10 -6 0 -11 5 -11 10 0 6 2 10 4
10 3 0 8 -4 11 -10z m-40 -10 c4 -6 -6 -10 -22 -9 -25 0 -26 1 -8 9 11 5 21 9
22 9 1 1 5 -3 8 -9z"/>
<path d="M1063 3072 c-6 -4 5 -7 27 -7 21 0 36 3 34 7 -6 10 -45 10 -61 0z"/>
<path d="M1997 3063 c-5 -8 -17 -116 -21 -187 -1 -20 -8 -31 -23 -37 -36 -13
-27 -19 21 -13 43 6 44 6 54 -27 6 -19 9 -51 7 -71 -2 -22 1 -38 7 -38 7 0 9
24 6 70 -4 49 -2 68 6 63 7 -4 7 -1 -1 7 -6 7 -9 19 -6 27 4 11 0 14 -13 11
-10 -2 -18 -9 -17 -14 1 -6 -4 -11 -10 -11 -20 0 -15 51 6 55 9 2 17 -1 17 -7
0 -6 6 -11 13 -11 8 0 21 -8 29 -17 16 -18 16 -28 8 -375 0 -10 -14 -24 -32
-32 l-33 -14 36 2 c21 0 35 4 33 8 -2 3 0 18 6 32 7 20 20 188 20 274 0 6 4
12 10 12 5 0 6 -7 3 -17 -4 -11 -3 -14 5 -9 17 10 15 47 -2 40 -9 -4 -15 7
-20 35 -4 26 -13 44 -27 52 -16 8 -18 14 -10 22 6 6 11 15 11 21 0 5 -6 2 -12
-7 -11 -14 -15 -14 -32 -2 -15 12 -17 17 -7 29 10 12 8 15 -10 18 -29 4 -38
28 -10 28 17 0 19 5 14 38 -6 40 -17 59 -26 45z"/>
<path d="M790 3050 c0 -12 49 -15 125 -9 l70 5 -60 3 c-33 1 -77 3 -97 5 -21
2 -38 0 -38 -4z"/>
<path d="M1906 3035 c-3 -9 0 -15 8 -15 8 0 16 7 20 15 3 9 0 15 -8 15 -8 0
-16 -7 -20 -15z"/>
<path d="M1947 3043 c-4 -3 -7 -16 -7 -27 1 -21 1 -21 15 -2 8 11 15 23 15 28
0 10 -14 11 -23 1z"/>
<path d="M1550 2999 c-11 -7 -6 -8 19 -4 45 9 38 -14 -10 -31 -19 -7 -26 -13
-17 -13 33 -2 68 18 68 39 0 22 -34 28 -60 9z"/>
<path d="M2113 2989 c-15 -15 -4 -51 14 -45 8 3 17 6 19 6 2 0 4 5 4 11 0 8
-5 8 -15 -1 -11 -9 -15 -9 -15 -1 0 6 7 14 15 17 8 4 12 10 9 15 -7 12 -18 11
-31 -2z"/>
<path d="M1945 2971 c1 -9 -3 -19 -9 -23 -6 -5 -2 -8 12 -8 16 0 22 6 22 23 0
14 -6 24 -14 24 -7 0 -13 -7 -11 -16z"/>
<path d="M2312 2915 c0 -16 2 -22 5 -12 2 9 2 23 0 30 -3 6 -5 -1 -5 -18z"/>
<path d="M1940 2909 c0 -5 5 -7 10 -4 6 3 10 8 10 11 0 2 -4 4 -10 4 -5 0 -10
-5 -10 -11z"/>
<path d="M1370 2872 c-76 -34 -104 -91 -114 -224 -1 -21 1 -38 5 -38 4 0 11
-10 16 -22 7 -21 9 -29 12 -52 0 -5 8 -3 16 4 21 17 31 5 14 -17 -12 -17 -12
-17 5 -1 18 16 18 18 -3 61 -30 62 -31 130 -2 190 13 26 26 46 28 43 7 -6 33
20 33 32 0 11 30 25 38 17 3 -2 -3 -7 -12 -11 -25 -10 -19 -22 9 -16 14 2 35
-3 48 -11 30 -20 52 -107 44 -179 -3 -33 -2 -45 3 -33 5 11 9 31 10 45 l2 25
8 -25 c8 -24 8 -24 9 6 2 47 -37 156 -67 187 -26 27 -67 35 -102 19z m-69
-105 c-10 -9 -11 -8 -5 6 3 10 9 15 12 12 3 -3 0 -11 -7 -18z m-1 -170 c10
-31 10 -41 0 -50 -10 -9 -11 -9 -6 0 4 7 3 21 -2 30 -5 10 -12 32 -16 48 -10
42 8 20 24 -28z"/>
<path d="M1935 2860 c-3 -5 1 -10 9 -10 9 0 16 5 16 10 0 6 -4 10 -9 10 -6 0
-13 -4 -16 -10z"/>
<path d="M2312 2845 c0 -16 2 -22 5 -12 2 9 2 23 0 30 -3 6 -5 -1 -5 -18z"/>
<path d="M1522 2839 c15 -28 29 -39 39 -33 11 6 31 -23 39 -59 l8 -32 1 30 c0
17 -6 39 -14 49 -8 11 -12 28 -9 39 5 16 1 18 -23 16 -15 -2 -34 0 -41 5 -11
7 -11 4 0 -15z"/>
<path d="M2120 2809 c0 -5 5 -7 10 -4 6 3 10 8 10 11 0 2 -4 4 -10 4 -5 0 -10
-5 -10 -11z"/>
<path d="M1257 2793 c-4 -3 -7 -16 -6 -27 0 -19 1 -19 10 3 10 24 8 36 -4 24z"/>
<path d="M2201 2754 c0 -11 3 -14 6 -6 3 7 2 16 -1 19 -3 4 -6 -2 -5 -13z"/>
<path d="M1351 2721 c-23 -49 -17 -84 18 -114 26 -21 32 -55 9 -41 -7 5 -8 2
-3 -6 6 -10 13 -6 27 13 11 15 24 27 29 27 19 0 46 38 51 71 7 45 2 57 -32 74
-25 13 -28 13 -26 0 1 -8 6 -18 11 -22 4 -4 5 -2 1 5 -4 6 -3 12 2 12 5 0 13
-10 19 -23 12 -26 -10 -83 -40 -101 -15 -9 -22 -7 -38 13 -10 13 -19 32 -19
42 0 30 22 69 39 69 14 0 14 2 1 10 -24 15 -28 12 -49 -29z"/>
<path d="M1240 2729 c0 -5 5 -7 10 -4 6 3 10 8 10 11 0 2 -4 4 -10 4 -5 0 -10
-5 -10 -11z"/>
<path d="M1622 2713 c-1 -17 -6 -34 -11 -37 -5 -4 -12 -24 -16 -46 -4 -22 -15
-46 -24 -53 -12 -8 -16 -18 -11 -32 6 -17 9 -15 23 15 8 19 19 46 23 60 3 14
11 28 16 31 5 3 8 26 5 50 -3 33 -4 36 -5 12z"/>
<path d="M2951 2704 c0 -11 3 -14 6 -6 3 7 2 16 -1 19 -3 4 -6 -2 -5 -13z"/>
<path d="M1232 2670 c0 -14 2 -19 5 -12 2 6 2 18 0 25 -3 6 -5 1 -5 -13z"/>
<path d="M2026 2665 c-9 -26 -7 -32 5 -12 6 10 9 21 6 23 -2 3 -7 -2 -11 -11z"/>
<path d="M1500 2555 c-35 -57 -67 -76 -122 -74 -27 2 -54 -3 -60 -9 -14 -14
-11 -14 55 -13 39 0 48 -3 43 -15 -3 -9 -1 -12 4 -9 6 3 10 13 10 22 0 13 2
13 16 2 15 -12 16 -11 9 10 -6 18 -4 22 6 15 8 -5 28 -10 44 -10 17 -1 40 -5
53 -9 13 -4 22 -3 22 3 0 5 -12 13 -27 18 -41 11 -47 11 -61 1 -7 -6 -15 -7
-19 -3 -3 3 -1 6 6 6 7 0 9 5 6 10 -3 6 1 13 9 16 9 3 16 13 16 21 0 8 3 12 8
10 4 -3 7 6 7 19 0 13 -1 24 -2 24 -1 0 -11 -16 -23 -35z"/>
<path d="M1470 2570 c0 -5 5 -10 11 -10 5 0 7 5 4 10 -3 6 -8 10 -11 10 -2 0
-4 -4 -4 -10z"/>
<path d="M870 2544 c0 -8 5 -12 10 -9 6 3 10 10 10 16 0 5 -4 9 -10 9 -5 0
-10 -7 -10 -16z"/>
<path d="M1411 2526 c-9 -11 -9 -16 1 -22 7 -4 10 -4 6 1 -4 4 -3 14 3 22 6 7
9 13 6 13 -2 0 -10 -6 -16 -14z"/>
<path d="M1942 2513 c2 -10 9 -25 17 -33 12 -12 11 -16 -8 -28 -22 -15 -29
-42 -11 -42 6 0 10 5 10 12 0 6 3 8 6 5 4 -4 1 -13 -6 -22 -11 -13 -10 -14 4
-9 14 5 16 -4 16 -80 l0 -86 24 15 c46 30 86 -13 86 -92 0 -49 10 -37 12 15 1
23 5 39 10 36 4 -3 5 3 1 12 -5 13 -3 16 10 11 9 -3 17 -2 17 3 0 14 -18 21
-25 10 -4 -6 -16 -3 -32 10 -14 11 -39 20 -54 20 -25 0 -33 8 -31 31 1 3 2 24
3 47 2 22 5 40 8 40 19 -2 30 4 35 17 4 12 0 14 -19 11 -29 -5 -36 3 -29 31 4
15 12 20 27 17 12 -2 7 1 -10 8 -25 8 -33 17 -33 34 0 15 -6 24 -15 24 -10 0
-15 -7 -13 -17z"/>
<path d="M1611 2484 c0 -11 3 -14 6 -6 3 7 2 16 -1 19 -3 4 -6 -2 -5 -13z"/>
<path d="M970 2465 c0 -8 7 -15 16 -15 14 0 14 3 4 15 -7 8 -14 15 -16 15 -2
0 -4 -7 -4 -15z"/>
<path d="M1188 2436 c-4 -22 -3 -23 18 -14 19 9 21 13 9 24 -19 19 -22 18 -27
-10z"/>
<path d="M2113 2436 c0 -8 4 -13 9 -10 13 8 9 -11 -4 -25 -11 -10 -9 -11 6 -5
13 5 17 4 12 -4 -10 -16 -47 -15 -45 1 4 30 -3 40 -12 17 -8 -19 -6 -27 7 -37
23 -17 61 6 56 33 -5 26 -29 51 -29 30z"/>
<path d="M1323 2413 c1 -10 8 -27 15 -38 10 -18 11 -18 12 -2 0 9 -4 17 -10
17 -5 0 -7 6 -4 14 3 8 1 17 -5 21 -7 4 -10 -1 -8 -12z"/>
<path d="M1612 2421 c-10 -6 -10 -10 3 -21 19 -15 25 -11 16 12 -4 11 -11 14
-19 9z"/>
<path d="M1366 2404 c-8 -20 -8 -24 2 -24 4 0 8 9 9 20 2 24 -3 26 -11 4z"/>
<path d="M1543 2413 c18 -5 18 -5 0 -18 -10 -7 -14 -17 -10 -21 4 -4 20 4 35
19 l27 27 -35 -1 c-19 -1 -27 -3 -17 -6z"/>
<path d="M1398 2383 c7 -3 16 -2 19 1 4 3 -2 6 -13 5 -11 0 -14 -3 -6 -6z"/>
<path d="M1480 2379 c0 -5 5 -7 10 -4 6 3 10 8 10 11 0 2 -4 4 -10 4 -5 0 -10
-5 -10 -11z"/>
<path d="M1930 2360 c0 -23 15 -27 23 -6 3 8 -1 17 -9 20 -9 4 -14 -1 -14 -14z"/>
<path d="M1260 2335 c0 -24 2 -25 78 -27 42 -1 94 -2 115 -4 20 -1 37 2 37 7
0 5 -19 9 -42 10 -37 1 -39 2 -18 9 23 7 22 8 -10 10 -19 1 -51 3 -70 6 -22 2
-30 1 -21 -5 9 -6 10 -11 2 -15 -11 -7 -51 14 -51 26 0 5 -4 8 -10 8 -5 0 -10
-11 -10 -25z m127 -11 c-3 -3 -12 -4 -19 -1 -8 3 -5 6 6 6 11 1 17 -2 13 -5z"/>
<path d="M1615 2351 c-3 -6 -15 -11 -26 -11 -11 0 -17 -4 -14 -10 3 -5 1 -10
-4 -10 -6 0 -11 4 -11 9 0 5 -20 9 -44 9 -44 0 -44 0 -25 -19 24 -24 39 -24
39 -1 1 15 2 15 13 1 18 -22 57 -18 75 8 8 13 12 26 9 29 -3 3 -8 1 -12 -5z"/>
<path d="M1895 2351 c-3 -5 -1 -12 5 -16 5 -3 10 1 10 9 0 18 -6 21 -15 7z"/>
<path d="M1000 2335 c0 -8 9 -10 25 -7 14 2 25 8 25 12 0 4 -11 8 -25 8 -14 0
-25 -6 -25 -13z"/>
<path d="M1063 2337 c-3 -5 29 -7 71 -6 48 1 81 -2 88 -9 18 -18 27 -14 21 6
-4 16 -15 19 -90 18 -47 -1 -87 -5 -90 -9z"/>
<path d="M860 2330 c-11 -7 -12 -12 -3 -21 15 -15 48 -7 48 11 0 18 -24 24
-45 10z m35 -10 c3 -5 -1 -10 -9 -10 -9 0 -16 5 -16 10 0 6 4 10 9 10 6 0 13
-4 16 -10z"/>
<path d="M1946 2305 c-3 -8 -1 -15 4 -15 6 0 10 7 10 15 0 8 -2 15 -4 15 -2 0
-6 -7 -10 -15z"/>
<path d="M970 2270 c0 -5 7 -11 15 -11 8 -1 24 -3 35 -4 11 -1 38 -3 61 -4 24
0 38 -5 34 -11 -3 -5 -1 -10 4 -10 6 0 11 -7 11 -16 0 -8 -4 -12 -10 -9 -5 3
-10 1 -10 -4 0 -16 -36 -13 -54 4 -21 22 -32 18 -12 -4 17 -19 49 -26 153 -37
52 -6 99 8 88 27 -4 5 -1 9 4 9 6 0 10 6 8 13 -1 8 9 11 32 9 21 -2 31 0 27 7
-4 5 -13 8 -21 4 -8 -3 -15 0 -15 6 0 16 57 13 96 -5 19 -9 34 -23 34 -31 0
-12 -3 -13 -13 -4 -10 7 -17 7 -24 0 -8 -8 -13 -8 -17 0 -9 14 -83 14 -91 1
-3 -5 -3 -15 1 -21 5 -8 9 -8 14 1 5 8 12 7 24 -6 17 -16 17 -16 14 1 -5 30
19 28 43 -4 25 -34 46 -42 29 -12 -14 27 -13 31 6 24 9 -3 19 -15 23 -27 6
-14 8 -6 7 26 -1 54 4 62 34 53 16 -5 18 -10 10 -19 -14 -18 10 -64 33 -60 9
1 15 -1 12 -6 -3 -4 2 -13 10 -20 12 -10 15 -10 15 3 0 20 -29 49 -41 42 -5
-4 -9 -2 -9 4 0 5 6 12 13 14 7 3 4 6 -7 6 -14 1 -16 4 -7 14 6 8 8 17 4 20
-3 4 -1 7 5 7 6 0 13 -8 15 -17 4 -17 5 -17 6 0 0 10 6 15 11 12 6 -4 8 -11 5
-16 -4 -5 -2 -9 4 -9 5 0 13 9 16 20 3 11 11 20 16 20 6 0 7 -4 4 -10 -4 -6
12 -10 41 -10 44 0 46 -1 28 -15 -12 -9 -14 -14 -5 -15 10 0 10 -5 -3 -25 -9
-14 -12 -25 -6 -25 14 0 32 47 34 88 1 25 -2 31 -13 27 -19 -7 -293 -8 -370 0
-126 11 -351 15 -351 5z m310 -51 c0 -5 -11 -2 -25 7 -14 9 -25 20 -25 25 0 5
11 2 25 -7 14 -9 25 -20 25 -25z m-49 -9 c20 0 29 -5 29 -16 0 -11 -5 -14 -16
-10 -9 3 -36 6 -60 6 -34 0 -44 4 -44 16 0 13 7 15 31 10 17 -3 44 -6 60 -6z"/>
<path d="M940 2245 c-13 -16 -7 -45 9 -45 5 0 13 4 16 10 3 6 -1 7 -9 4 -19
-7 -22 16 -4 34 7 7 9 12 6 12 -3 0 -11 -7 -18 -15z"/>
<path d="M1384 2225 c22 -17 40 -20 32 -6 -3 5 -16 11 -28 14 -22 6 -22 5 -4
-8z"/>
<path d="M1988 2223 c-13 -13 -20 -14 -31 -5 -12 10 -13 8 -9 -15 3 -16 7 -22
9 -15 3 6 9 12 14 12 6 0 8 -4 5 -9 -4 -5 4 -7 16 -3 21 5 21 6 2 13 -19 7
-19 8 1 8 25 1 40 -9 48 -31 7 -20 -12 -25 -30 -7 -7 7 -17 8 -25 3 -7 -5 -34
-10 -60 -11 -36 -1 -48 2 -48 13 0 8 -4 14 -10 14 -5 0 -10 -10 -10 -22 0 -21
5 -23 49 -24 27 -1 64 -7 81 -14 25 -10 33 -11 40 -1 4 7 11 12 16 11 14 -1
17 40 4 55 -6 8 -9 18 -6 24 3 5 -1 12 -10 15 -23 9 -28 8 -46 -11z m29 -79
c-3 -4 -14 -3 -24 0 -15 6 -15 8 -3 16 16 10 39 -4 27 -16z"/>
<path d="M812 2205 c0 -16 2 -22 5 -12 2 9 2 23 0 30 -3 6 -5 -1 -5 -18z"/>
<path d="M1920 2210 c0 -11 4 -20 9 -20 5 0 7 9 4 20 -3 11 -7 20 -9 20 -2 0
-4 -9 -4 -20z"/>
<path d="M1010 2199 c0 -17 46 -46 57 -36 3 4 1 7 -6 7 -7 0 -21 10 -32 23
-14 17 -18 18 -19 6z"/>
<path d="M1477 2204 c-8 -13 2 -54 13 -54 5 0 10 -10 12 -22 2 -13 9 -22 15
-21 7 2 15 -6 18 -17 4 -11 11 -20 16 -20 6 0 5 8 -1 20 -6 11 -8 25 -4 31 4
7 -2 7 -16 -1 -16 -9 -20 -9 -15 -1 4 7 2 17 -3 24 -5 7 -14 25 -19 42 -5 16
-12 24 -16 19z"/>
<path d="M1634 2190 c0 -11 6 -20 13 -20 7 0 13 9 13 20 0 11 -6 20 -13 20 -7
0 -13 -9 -13 -20z"/>
<path d="M1825 2200 c-3 -5 -1 -10 4 -10 6 0 11 5 11 10 0 6 -2 10 -4 10 -3 0
-8 -4 -11 -10z"/>
<path d="M940 2165 c-9 -11 -7 -12 11 -8 16 4 20 2 17 -8 -3 -8 -12 -13 -19
-11 -11 3 -12 1 -1 -10 11 -11 14 -10 22 2 5 8 10 20 10 26 0 18 -27 24 -40 9z"/>
<path d="M1375 2170 c3 -6 -4 -15 -17 -20 -22 -10 -22 -10 -1 -6 12 2 32 -3
45 -12 l22 -16 -23 32 c-20 29 -41 46 -26 22z"/>
<path d="M695 2129 c-4 -6 -5 -12 -2 -15 2 -3 7 2 10 11 7 17 1 20 -8 4z"/>
<path d="M1191 2137 c3 -4 19 -7 37 -9 17 -1 29 -4 26 -7 -14 -14 -217 -24
-209 -10 4 6 -3 5 -15 -3 -18 -10 -24 -10 -27 -1 -4 10 -11 9 -33 -2 -25 -13
-28 -19 -28 -66 0 -31 4 -46 9 -38 4 7 11 10 15 6 4 -3 1 -14 -7 -24 -9 -11
-10 -14 -1 -9 7 4 12 2 13 -6 0 -7 4 -4 9 7 5 11 9 14 9 6 1 -10 4 -11 14 -3
7 7 30 10 50 9 21 -2 33 1 30 6 -4 6 5 8 21 5 14 -3 26 -1 26 3 0 5 21 10 48
10 26 1 61 5 77 10 33 9 -115 1 -202 -11 -63 -8 -70 -5 -76 37 -5 32 9 55 22
36 4 -6 49 -5 126 3 163 17 153 18 148 -10 -3 -13 0 -27 6 -30 15 -10 14 47
-1 62 -9 9 -4 11 22 7 22 -3 30 -1 23 6 -11 11 -142 26 -132 16z m-234 -69
c-3 -8 -6 -5 -6 6 -1 11 2 17 5 13 3 -3 4 -12 1 -19z"/>
<path d="M1820 2132 c0 -5 7 -9 15 -9 8 0 12 4 9 9 -3 4 -9 8 -15 8 -5 0 -9
-4 -9 -8z"/>
<path d="M1947 2108 c3 -17 2 -19 -5 -9 -7 9 -12 10 -16 2 -9 -14 -53 -15 -61
-1 -6 10 -55 -7 -66 -23 -3 -4 -12 -7 -19 -5 -8 2 -19 -12 -26 -32 -7 -19 -13
-31 -13 -26 -1 5 -12 -3 -26 -18 -13 -14 -28 -26 -33 -26 -5 0 -9 -7 -9 -15 0
-8 4 -15 9 -15 4 0 8 4 8 9 0 5 9 12 20 16 11 3 19 9 19 13 -3 18 2 35 7 29
11 -10 44 12 38 26 -3 8 13 23 38 37 27 15 43 19 46 12 2 -8 19 -9 48 -5 39 5
44 3 44 -13 0 -14 3 -16 9 -6 5 9 17 11 34 6 16 -3 27 -2 27 4 0 14 -24 22
-48 15 -16 -4 -19 -1 -15 21 3 14 1 26 -5 26 -6 0 -8 -10 -5 -22z"/>
<path d="M1350 2116 c0 -2 7 -6 15 -10 8 -3 15 -1 15 4 0 6 -7 10 -15 10 -8 0
-15 -2 -15 -4z"/>
<path d="M1620 2111 c0 -10 67 -8 77 3 3 3 -12 6 -35 6 -23 0 -42 -4 -42 -9z"/>
<path d="M1975 2110 c3 -5 8 -10 11 -10 2 0 4 5 4 10 0 6 -5 10 -11 10 -5 0
-7 -4 -4 -10z"/>
<path d="M2027 2113 c-12 -11 -8 -21 10 -27 10 -4 14 -4 10 0 -4 4 -2 13 4 21
9 10 8 13 -3 13 -8 0 -18 -3 -21 -7z"/>
<path d="M1397 2103 c-3 -5 12 -8 33 -8 21 -1 36 3 34 7 -6 10 -61 11 -67 1z"/>
<path d="M1572 2098 c23 -20 61 -95 53 -108 -3 -5 -1 -10 4 -10 16 0 14 22 -6
66 -9 22 -16 42 -15 47 1 4 -2 7 -7 7 -5 0 -18 3 -28 6 -17 5 -17 5 -1 -8z"/>
<path d="M1564 2066 c-14 -15 -11 -53 6 -69 10 -10 11 -8 3 7 -6 10 -8 27 -5
38 4 18 5 18 19 1 13 -16 13 -15 2 7 -6 14 -12 26 -13 26 0 1 -6 -3 -12 -10z"/>
<path d="M1086 2059 c-85 -9 -96 -13 -78 -31 9 -9 12 -9 12 0 0 8 10 9 32 5
22 -4 29 -3 24 5 -4 7 -2 12 3 12 6 0 11 -5 11 -11 0 -5 5 -7 12 -3 16 10 54
17 106 18 23 1 42 4 42 9 0 9 -57 7 -164 -4z"/>
<path d="M1908 2063 c6 -2 18 -2 25 0 6 3 1 5 -13 5 -14 0 -19 -2 -12 -5z"/>
<path d="M2081 2054 c0 -11 3 -14 6 -6 3 7 2 16 -1 19 -3 4 -6 -2 -5 -13z"/>
<path d="M1505 2050 c3 -5 11 -10 16 -10 6 0 7 5 4 10 -3 6 -11 10 -16 10 -6
0 -7 -4 -4 -10z"/>
<path d="M1795 2040 c-3 -5 -1 -10 4 -10 6 0 11 5 11 10 0 6 -2 10 -4 10 -3 0
-8 -4 -11 -10z"/>
<path d="M1980 2043 c8 -3 24 -10 35 -16 18 -9 19 -9 6 6 -7 10 -23 17 -35 16
-14 0 -16 -2 -6 -6z"/>
<path d="M1505 2020 c-3 -5 -1 -10 4 -10 6 0 11 5 11 10 0 6 -2 10 -4 10 -3 0
-8 -4 -11 -10z"/>
<path d="M1793 2014 c-18 -9 -31 -20 -30 -24 1 -5 -7 -16 -18 -25 -19 -15 -19
-16 5 -4 14 7 28 16 31 22 4 5 9 5 13 -2 7 -11 -32 -34 -76 -45 -16 -3 -28
-11 -28 -16 0 -15 16 -12 55 10 42 23 52 25 36 6 -9 -11 -7 -15 9 -19 26 -7
26 -27 0 -27 -11 0 -20 5 -20 11 0 5 -5 7 -11 3 -8 -4 -3 -11 12 -20 15 -8 28
-9 34 -3 15 15 38 11 31 -6 -7 -19 22 -20 47 -1 24 19 22 39 -3 31 -12 -4 -28
-1 -37 7 -14 11 -16 11 -8 -1 5 -9 4 -12 -3 -7 -6 4 -8 14 -5 24 6 15 5 15
-10 3 -9 -7 -17 -12 -18 -10 -7 34 -4 41 20 55 15 9 33 25 39 35 11 17 9 19
-10 19 -13 0 -37 -8 -55 -16z m37 -19 c-7 -8 -18 -15 -24 -15 -6 0 -2 7 8 15
25 19 32 19 16 0z m40 -116 c0 -14 -17 -10 -23 5 -4 10 -1 13 9 9 7 -3 14 -9
14 -14z"/>
<path d="M1903 2023 c31 -5 27 -23 -6 -23 -12 0 -31 -7 -41 -15 -26 -19 -8
-19 38 0 20 9 41 13 46 10 6 -3 7 1 4 9 -4 9 -1 16 6 16 6 0 14 -8 17 -18 5
-20 43 -48 43 -32 0 6 -7 13 -15 16 -21 8 -19 24 3 25 43 1 -26 18 -73 17 -27
-1 -38 -3 -22 -5z"/>
<path d="M1535 2003 c0 -10 4 -23 8 -29 7 -12 -1 -24 -15 -24 -5 0 -6 5 -3 10
8 12 3 13 -30 0 -34 -13 -51 -57 -30 -80 18 -20 10 -30 -23 -30 -42 0 -20 -8
36 -13 29 -3 49 -1 46 4 -3 5 2 9 11 9 8 0 18 6 21 14 4 10 14 12 40 6 19 -4
34 -6 34 -3 0 3 7 0 15 -7 10 -8 15 -9 15 -1 0 6 -10 13 -22 15 -13 3 -32 7
-43 9 -11 3 1 5 27 6 46 1 69 13 48 26 -5 3 -10 1 -10 -5 0 -7 -16 -10 -45 -7
-25 2 -42 0 -38 -6 3 -5 -3 -7 -13 -5 -11 2 -18 10 -16 16 1 7 -8 12 -20 12
l-23 -1 24 -20 c26 -21 26 -21 -6 -38 -19 -10 -23 -7 -37 21 -20 39 -20 38 2
38 13 0 14 2 3 9 -23 15 5 22 48 12 38 -8 41 -7 40 13 0 11 -3 15 -6 9 -8 -22
-19 -14 -21 14 -1 15 -6 31 -10 35 -5 5 -8 1 -7 -9z"/>
<path d="M1601 1995 c-1 -5 -4 -25 -6 -44 -3 -32 -2 -33 28 -27 38 8 44 13 30
27 -14 14 -36 2 -27 -14 5 -8 4 -9 -4 -2 -6 6 -12 24 -15 40 -2 17 -5 26 -6
20z"/>
<path d="M1177 1973 c-3 -3 -43 -7 -89 -9 -119 -4 -148 -12 -148 -38 0 -11 5
-28 10 -36 13 -21 -26 -41 -57 -29 -19 7 -23 5 -23 -10 0 -10 -9 -21 -20 -24
-17 -4 -20 0 -20 34 0 21 -3 39 -8 39 -4 0 -7 -20 -7 -45 0 -25 -3 -45 -7 -45
-5 0 -6 -16 -3 -36 3 -29 1 -35 -13 -32 -9 1 -23 -1 -31 -6 -7 -5 -16 -5 -20
1 -6 8 -11 9 -43 4 -32 -5 33 -20 89 -20 59 -1 63 -3 78 -31 9 -16 22 -30 31
-30 8 0 12 -4 9 -10 -3 -6 1 -7 9 -4 9 3 16 1 16 -5 0 -6 -11 -11 -24 -11 -19
0 -24 -5 -23 -20 2 -24 4 -24 23 -5 8 8 23 19 32 25 16 10 16 12 -2 23 -30 19
-96 81 -96 91 0 4 8 5 18 1 17 -8 110 -25 145 -28 9 -1 17 -7 17 -14 0 -7 5
-13 11 -13 5 0 8 4 5 8 -3 5 16 5 42 1 26 -4 54 -8 62 -9 11 0 12 -2 3 -8 -6
-4 7 -8 30 -8 23 0 85 -9 137 -21 52 -12 130 -29 173 -38 43 -9 74 -21 71 -26
-3 -6 5 -7 20 -3 15 3 57 -2 95 -12 59 -15 67 -19 55 -31 -17 -17 -17 -24 -4
-57 15 -42 49 -57 93 -44 50 15 47 24 -9 24 -39 -1 -50 3 -66 26 -33 42 -14
51 49 23 30 -14 65 -25 77 -24 19 0 19 1 -4 11 -14 6 -27 12 -30 13 -3 2 -15
6 -27 10 -13 4 -23 11 -23 16 0 13 12 11 54 -6 20 -9 40 -14 44 -11 4 2 41 -4
82 -15 41 -10 87 -19 103 -19 15 0 27 -6 27 -13 0 -9 11 -12 35 -9 42 5 41 24
-1 33 -298 67 -910 199 -1076 231 -181 35 -218 45 -218 60 0 17 51 35 68 24 5
-3 35 1 66 9 68 18 69 18 61 5 -3 -6 5 -10 18 -10 14 0 78 -9 144 -21 65 -12
133 -21 151 -21 17 0 32 -4 32 -9 0 -7 58 -2 68 6 1 1 -1 12 -6 25 -7 20 -10
21 -15 7 -6 -17 -47 -24 -47 -9 0 5 -6 9 -12 10 -45 4 -93 11 -93 12 0 1 -25
4 -55 6 -59 5 -113 10 -145 14 -17 1 147 40 183 42 13 1 17 18 4 18 -5 0 -59
-9 -121 -20 -135 -25 -151 -22 -151 26 0 31 3 34 20 29 19 -6 234 22 257 34 7
4 -7 7 -31 8 -24 1 -46 -1 -49 -4z m-207 -42 c0 -6 -4 -13 -10 -16 -5 -3 -10
1 -10 9 0 9 5 16 10 16 6 0 10 -4 10 -9z m-16 -86 c-4 -9 -18 -14 -38 -14 -27
2 -28 2 -6 6 14 3 29 9 35 14 13 13 15 11 9 -6z m386 -55 c0 -13 -11 -13 -30
0 -12 8 -11 10 8 10 12 0 22 -4 22 -10z"/>
<path d="M2089 1973 c0 -4 -2 -16 -4 -26 -2 -11 0 -16 3 -12 4 4 8 11 8 16 3
22 5 23 15 9 9 -12 10 -12 7 -1 -5 16 -28 28 -29 14z"/>
<path d="M793 1925 c0 -22 2 -30 4 -17 2 12 2 30 0 40 -3 9 -5 -1 -4 -23z"/>
<path d="M895 1953 c-28 -7 -36 -24 -18 -41 13 -13 17 -12 36 7 13 12 16 21 9
21 -7 0 -10 5 -7 10 3 6 5 9 3 9 -2 -1 -12 -4 -23 -6z m15 -23 c0 -5 -7 -10
-15 -10 -8 0 -15 5 -15 10 0 6 7 10 15 10 8 0 15 -4 15 -10z"/>
<path d="M1273 1945 c-3 -9 -3 -18 -1 -21 3 -3 8 4 11 16 6 23 -1 27 -10 5z"/>
<path d="M1846 1945 c-3 -8 -1 -15 4 -15 13 0 22 18 11 24 -5 3 -11 -1 -15 -9z"/>
<path d="M1928 1953 c6 -2 18 -2 25 0 6 3 1 5 -13 5 -14 0 -19 -2 -12 -5z"/>
<path d="M678 1943 c7 -3 16 -2 19 1 4 3 -2 6 -13 5 -11 0 -14 -3 -6 -6z"/>
<path d="M1241 1934 c0 -11 3 -14 6 -6 3 7 2 16 -1 19 -3 4 -6 -2 -5 -13z"/>
<path d="M1889 1941 c9 -6 10 -10 2 -14 -7 -3 -7 -4 1 -3 7 2 23 -1 36 -5 12
-5 22 -5 22 0 0 5 -14 14 -31 20 -38 13 -49 14 -30 2z"/>
<path d="M2180 1905 c-1 -27 -4 -72 -5 -98 -3 -55 -10 -66 -28 -47 -10 10 -9
11 3 5 13 -8 13 -6 2 7 -10 13 -10 17 0 21 8 4 7 6 -4 6 -12 1 -18 -6 -18 -19
0 -11 -7 -20 -15 -20 -36 0 -181 34 -187 44 -5 7 -8 3 -8 -9 0 -12 -3 -16 -8
-9 -7 12 -21 13 -119 15 -29 1 -50 5 -47 10 3 5 -3 9 -13 9 -10 0 -25 5 -33
11 -12 8 -9 9 10 4 14 -3 51 -8 83 -11 46 -3 57 -1 57 11 0 18 -16 20 -23 3
-3 -8 -6 -6 -6 5 -1 9 -6 17 -12 17 -5 0 -7 -4 -4 -10 4 -6 -12 -10 -39 -10
-29 0 -47 5 -48 13 0 6 -2 18 -2 26 -1 8 -8 16 -16 18 -12 4 -13 3 -1 -5 11
-8 10 -12 -5 -21 -11 -6 -14 -11 -6 -11 11 0 11 -2 0 -12 -7 -7 -33 -14 -58
-15 -25 -1 -72 -6 -105 -11 -55 -9 -49 -10 73 -11 72 0 132 -5 132 -9 0 -12
-22 -14 -112 -12 -50 1 -78 -3 -78 -9 0 -6 -4 -11 -10 -11 -5 0 -7 8 -3 18 6
15 4 15 -16 -2 -22 -20 -22 -20 -15 0 7 17 6 18 -11 4 -10 -8 -16 -10 -12 -3
5 7 1 11 -11 10 -10 0 -18 -9 -18 -19 0 -13 12 -19 53 -24 29 -3 59 -4 68 0 8
3 15 0 15 -7 0 -9 2 -9 8 -1 4 6 40 14 80 17 40 3 79 10 86 16 7 6 15 9 17 7
2 -2 31 -7 64 -10 53 -4 229 -28 310 -41 l30 -5 -3 -317 c-1 -174 1 -313 5
-309 8 8 21 312 21 481 0 126 -14 381 -18 320z"/>
<path d="M1210 1930 c0 -5 5 -10 10 -10 6 0 10 5 10 10 0 6 -4 10 -10 10 -5 0
-10 -4 -10 -10z"/>
<path d="M1083 1917 c-49 -7 -73 -15 -73 -24 0 -7 5 -13 11 -13 5 0 8 4 5 8
-3 4 10 9 27 9 18 1 46 4 62 8 17 4 40 6 53 6 12 0 22 4 22 9 0 11 -5 11 -107
-3z"/>
<path d="M1990 1926 c0 -2 7 -7 16 -10 8 -3 12 -2 9 4 -6 10 -25 14 -25 6z"/>
<path d="M1973 1898 c1 -7 -4 -12 -12 -10 -11 2 -12 0 -4 -10 6 -7 13 -29 15
-48 4 -34 4 -35 15 -10 7 18 7 30 -1 44 -8 14 -8 20 2 23 17 6 15 23 -3 23 -8
0 -14 -6 -12 -12z"/>
<path d="M2088 1893 c-26 -31 -27 -39 -3 -41 12 -1 29 6 36 16 11 14 11 15 -1
5 -8 -7 -20 -13 -27 -13 -11 0 -11 4 -1 19 7 11 16 17 22 14 5 -3 6 -1 2 5 -9
15 -10 15 -28 -5z"/>
<path d="M2020 1890 c-9 -6 -10 -10 -3 -10 6 0 15 5 18 10 8 12 4 12 -15 0z"/>
<path d="M715 1880 c3 -5 8 -10 11 -10 2 0 4 5 4 10 0 6 -5 10 -11 10 -5 0 -7
-4 -4 -10z"/>
<path d="M1913 1871 c-3 -12 -10 -18 -17 -14 -6 4 -6 1 2 -9 10 -13 8 -15 -15
-12 -16 2 -22 1 -15 -2 10 -5 9 -9 -5 -20 -16 -12 -16 -13 -1 -14 9 0 20 5 23
10 4 6 10 8 15 5 5 -3 12 7 16 22 4 15 11 31 17 34 5 4 4 9 -3 14 -7 4 -13 -1
-17 -14z"/>
<path d="M670 1870 c0 -5 7 -10 15 -10 8 0 15 5 15 10 0 6 -7 10 -15 10 -8 0
-15 -4 -15 -10z"/>
<path d="M1730 1871 c0 -5 14 -11 30 -13 17 -3 30 -1 30 4 0 4 -3 8 -7 9 -5 0
-18 2 -30 5 -13 2 -23 0 -23 -5z"/>
<path d="M690 1825 c0 -8 5 -15 11 -15 5 0 8 4 5 9 -4 5 0 12 6 14 8 3 6 6 -4
6 -10 1 -18 -6 -18 -14z"/>
<path d="M1368 1833 c7 -3 16 -2 19 1 4 3 -2 6 -13 5 -11 0 -14 -3 -6 -6z"/>
<path d="M1936 1825 c4 -8 8 -15 10 -15 2 0 4 7 4 15 0 8 -4 15 -10 15 -5 0
-7 -7 -4 -15z"/>
<path d="M965 1790 c-27 -7 -27 -7 8 -5 20 2 35 0 32 -4 -3 -7 38 -17 155 -38
8 -1 29 -5 45 -8 66 -13 80 -13 92 -3 7 6 13 16 13 22 0 6 -7 3 -14 -6 -7 -10
-16 -18 -19 -18 -4 0 -4 8 0 18 6 15 4 15 -18 -3 -13 -11 -18 -13 -11 -5 20
23 14 28 -28 25 -27 -2 -38 0 -34 7 4 7 2 8 -5 4 -6 -4 -9 -12 -6 -17 3 -5 -1
-6 -9 -3 -9 3 -13 11 -9 18 3 6 1 6 -8 -1 -15 -15 -33 -17 -24 -4 3 5 0 13 -6
17 -7 4 -9 3 -5 -4 3 -6 2 -13 -3 -16 -5 -3 -12 1 -15 9 -4 12 -10 13 -24 6
-11 -6 -23 -6 -28 -2 -15 14 -47 19 -79 11z"/>
<path d="M1403 1730 c-24 -30 -28 -40 -15 -40 8 0 46 60 40 64 -1 2 -13 -9
-25 -24z"/>
<path d="M1728 1740 c-7 -24 -3 -38 8 -28 3 4 4 17 2 30 l-3 23 -7 -25z"/>
<path d="M1760 1746 c0 -8 -3 -21 -6 -30 -3 -9 -2 -16 4 -16 13 0 22 49 11 56
-5 3 -9 -1 -9 -10z"/>
<path d="M1790 1748 c0 -9 -3 -23 -6 -32 -3 -9 -2 -16 4 -16 14 0 21 35 11 51
-7 11 -9 11 -9 -3z"/>
<path d="M543 1743 c9 -2 23 -2 30 0 6 3 -1 5 -18 5 -16 0 -22 -2 -12 -5z"/>
<path d="M1315 1730 c-10 -11 -14 -20 -9 -20 5 0 15 9 22 20 7 11 11 20 9 20
-2 0 -12 -9 -22 -20z"/>
<path d="M1345 1730 c-10 -11 -16 -20 -12 -20 3 0 12 -3 20 -6 10 -3 20 3 28
18 12 23 12 23 -10 4 -22 -20 -30 -9 -9 12 7 7 10 12 7 12 -3 0 -14 -9 -24
-20z"/>
<path d="M1460 1740 c12 -8 12 -11 -3 -28 -9 -10 -17 -22 -17 -26 0 -14 20 6
35 35 15 28 15 29 -7 29 -18 0 -20 -2 -8 -10z"/>
<path d="M1605 1740 c-3 -5 -1 -10 4 -10 6 0 11 5 11 10 0 6 -2 10 -4 10 -3 0
-8 -4 -11 -10z"/>
<path d="M1632 1734 c-8 -15 -15 -16 -55 -6 -25 7 -52 12 -59 12 -15 0 -53
-58 -45 -67 3 -3 13 9 22 27 11 21 21 30 31 26 9 -3 20 -6 26 -6 6 0 3 -11 -6
-25 -19 -28 -20 -35 -6 -35 6 0 10 6 10 13 0 26 24 47 47 41 21 -6 22 -8 7
-35 -8 -16 -10 -29 -5 -29 11 0 54 90 47 97 -2 3 -9 -3 -14 -13z"/>
<path d="M1666 1735 c-3 -8 -1 -15 4 -15 6 0 10 7 10 15 0 8 -2 15 -4 15 -2 0
-6 -7 -10 -15z"/>
<path d="M1697 1736 c-4 -10 -5 -21 -2 -24 9 -9 17 6 13 25 -3 17 -4 17 -11
-1z"/>
<path d="M1818 1723 c-2 -19 -10 -29 -28 -33 -15 -4 0 -7 35 -6 33 0 47 2 31
4 -25 3 -28 7 -24 33 3 16 1 29 -3 29 -4 0 -9 -12 -11 -27z"/>
<path d="M1850 1727 c0 -15 4 -27 8 -27 10 0 9 36 -1 46 -4 4 -7 -5 -7 -19z"/>
<path d="M458 1733 c7 -3 16 -2 19 1 4 3 -2 6 -13 5 -11 0 -14 -3 -6 -6z"/>
<path d="M1880 1725 c0 -8 5 -15 10 -15 6 0 10 7 10 15 0 8 -4 15 -10 15 -5 0
-10 -7 -10 -15z"/>
<path d="M1910 1730 c0 -5 5 -10 10 -10 6 0 10 5 10 10 0 6 -4 10 -10 10 -5 0
-10 -4 -10 -10z"/>
<path d="M1422 1710 c-7 -11 -9 -20 -4 -20 4 0 13 9 20 20 7 11 9 20 4 20 -4
0 -13 -9 -20 -20z"/>
<path d="M518 1713 c12 -2 32 -2 45 0 12 2 2 4 -23 4 -25 0 -35 -2 -22 -4z"/>
<path d="M733 1703 c-7 -2 -13 -18 -13 -35 0 -30 -3 -31 -57 -11 -7 3 -13 -2
-13 -11 0 -12 10 -16 38 -17 l37 -1 -33 -8 c-18 -4 -36 -11 -40 -15 -6 -6 48
-3 143 9 22 3 45 0 52 -6 9 -7 13 -7 13 1 0 6 -5 11 -10 11 -6 0 -8 10 -4 24
4 18 1 27 -14 35 -31 16 -41 14 -54 -14 -13 -28 -30 -34 -22 -7 5 14 4 15 -5
2 -15 -21 -14 -28 7 -32 14 -3 13 -5 -5 -10 -21 -6 -23 -3 -23 31 0 20 5 42
12 49 13 13 11 14 -9 5z m100 -40 c9 -9 -23 -44 -34 -37 -17 10 -10 44 9 44
10 0 22 -3 25 -7z"/>
<path d="M1512 1698 c-14 -14 -16 -28 -3 -28 9 0 24 30 18 36 -2 2 -9 -2 -15
-8z"/>
<path d="M1637 1676 l-16 -35 30 -6 c17 -4 33 -4 36 -1 4 3 -4 6 -16 6 -21 0
-23 3 -17 35 9 44 4 44 -17 1z"/>
<path d="M1571 1682 c-13 -25 -14 -32 -2 -32 9 0 23 41 16 48 -2 2 -8 -5 -14
-16z"/>
<path d="M1673 1680 c-12 -28 -8 -39 8 -23 6 6 9 19 6 29 -3 17 -5 16 -14 -6z"/>
<path d="M1707 1686 c-4 -10 -5 -21 -2 -24 9 -9 17 6 13 25 -3 17 -4 17 -11
-1z"/>
<path d="M1070 1686 c0 -2 9 -6 20 -9 11 -3 18 -1 14 4 -5 9 -34 13 -34 5z"/>
<path d="M1740 1680 c0 -5 5 -10 10 -10 6 0 10 5 10 10 0 6 -4 10 -10 10 -5 0
-10 -4 -10 -10z"/>
<path d="M2035 1661 c-3 -5 -2 -12 3 -15 5 -3 9 1 9 9 0 17 -3 19 -12 6z"/>
<path d="M576 1651 c-3 -5 0 -11 8 -14 15 -6 26 1 26 15 0 11 -27 10 -34 -1z"/>
<path d="M1870 1630 c-12 -8 -12 -10 5 -10 11 0 27 5 35 10 12 8 12 10 -5 10
-11 0 -27 -5 -35 -10z"/>
<path d="M624 1622 c5 -8 -2 -10 -24 -6 -20 4 -30 3 -30 -5 0 -8 8 -10 22 -6
17 6 20 4 15 -9 -5 -13 -3 -14 13 -3 23 14 25 23 8 33 -7 4 -8 3 -4 -4z"/>
<path d="M1730 1623 c-17 -7 78 -32 123 -33 15 0 35 -4 45 -10 20 -10 202 -50
233 -50 11 0 18 4 15 9 -3 5 -22 9 -41 9 -36 0 -164 27 -200 42 -11 5 -45 11
-75 14 -30 3 -56 10 -58 16 -4 11 -18 12 -42 3z"/>
<path d="M2001 1609 c-13 -5 -22 -12 -19 -14 8 -9 68 7 62 16 -6 11 -12 11
-43 -2z"/>
<path d="M800 1594 c-14 -7 -33 -14 -42 -14 -10 0 -18 -3 -18 -6 0 -11 45 -43
60 -43 9 0 6 5 -7 11 -13 6 -23 15 -23 20 0 5 9 4 20 -2 30 -16 64 4 50 30 -6
11 -12 20 -13 19 -1 -1 -13 -7 -27 -15z"/>
<path d="M630 1582 c0 -6 -6 -17 -14 -25 -15 -14 0 -15 79 -5 14 2 21 -5 26
-27 6 -27 7 -26 8 13 1 35 -2 42 -18 42 -10 0 -33 3 -50 6 -19 4 -31 2 -31 -4z
m35 -12 c3 -5 -1 -10 -9 -10 -9 0 -16 5 -16 10 0 6 4 10 9 10 6 0 13 -4 16
-10z"/>
<path d="M2100 1580 c-12 -8 -12 -10 5 -10 11 0 27 5 35 10 12 8 12 10 -5 10
-11 0 -27 -5 -35 -10z"/>
<path d="M835 1546 c-17 -13 -39 -25 -50 -27 -11 -3 -21 -13 -23 -24 -3 -20
-3 -20 13 -1 12 16 15 17 15 4 0 -9 7 -19 16 -22 14 -5 15 -4 5 7 -9 11 -8 17
4 27 13 10 15 9 15 -9 0 -17 6 -21 29 -21 42 0 59 53 20 63 -12 3 -18 10 -14
16 9 16 3 13 -30 -13z m31 -20 c20 -21 17 -28 -6 -14 -11 7 -20 16 -20 20 0
12 10 9 26 -6z"/>
<path d="M880 1560 c0 -5 6 -7 14 -4 21 8 38 -29 27 -58 -12 -29 -48 -60 -56
-48 -4 6 -14 10 -23 9 -14 0 -14 -2 -2 -6 19 -7 31 -26 22 -33 -4 -3 -13 -15
-20 -27 -10 -19 -10 -23 3 -23 8 0 15 -4 15 -10 0 -5 -7 -10 -15 -10 -8 0 -15
-5 -15 -10 0 -15 48 -58 74 -66 36 -10 95 -39 96 -46 0 -3 -13 -11 -30 -17
-16 -5 -30 -12 -30 -15 0 -4 90 23 99 30 2 2 -9 8 -24 14 -15 6 -25 13 -22 16
2 3 22 -2 43 -11 31 -13 36 -18 24 -25 -13 -9 -13 -10 0 -10 8 0 21 4 28 9 17
10 -80 54 -102 45 -8 -3 -23 -1 -33 6 -16 9 -15 10 7 5 22 -5 23 -4 7 5 -10 7
-25 9 -33 6 -9 -4 -12 -2 -8 5 3 6 -1 10 -12 9 -37 -4 -50 1 -27 10 17 7 45 1
112 -25 49 -18 97 -32 107 -30 11 2 27 4 37 4 10 1 15 6 12 11 -4 6 -12 7 -22
1 -17 -9 -66 3 -90 22 -7 5 -13 7 -13 4 0 -3 -28 5 -61 18 -44 18 -66 22 -79
15 -13 -7 -20 -6 -24 6 -4 11 -2 15 7 11 14 -5 54 20 45 29 -3 3 -12 -1 -19
-9 -11 -12 -16 -12 -27 -1 -11 12 -10 19 7 43 19 26 25 28 51 21 36 -10 40 -3
5 10 -25 9 -25 10 -8 44 15 32 15 37 -1 60 -16 25 -46 36 -46 16z m-16 -235
c3 -8 1 -15 -3 -15 -5 0 -11 7 -15 15 -3 8 -1 15 3 15 5 0 11 -7 15 -15z"/>
<path d="M643 1517 c-13 -5 -23 -16 -23 -24 0 -7 -4 -13 -10 -13 -5 0 -10 7
-10 16 0 14 -3 14 -15 4 -30 -25 -18 -29 65 -22 11 1 20 6 20 11 0 5 -10 7
-22 4 -22 -4 -22 -4 -4 11 18 14 21 14 38 -1 17 -15 18 -15 13 -1 -9 22 -26
27 -52 15z"/>
<path d="M1742 1508 c5 -15 28 -23 28 -10 0 5 -7 13 -16 16 -10 4 -14 1 -12
-6z"/>
<path d="M970 1486 c0 -2 7 -7 16 -10 8 -3 12 -2 9 4 -6 10 -25 14 -25 6z"/>
<path d="M1785 1480 c-8 -13 5 -13 25 0 13 8 13 10 -2 10 -9 0 -20 -4 -23 -10z"/>
<path d="M728 1473 c7 -3 16 -2 19 1 4 3 -2 6 -13 5 -11 0 -14 -3 -6 -6z"/>
<path d="M673 1463 c-7 -2 -9 -11 -6 -19 4 -10 23 -14 68 -14 54 0 63 -3 68
-20 3 -12 -1 -23 -10 -29 -13 -7 -13 -9 -1 -13 8 -4 21 6 31 24 14 25 15 30 2
34 -8 4 -13 10 -10 15 7 11 -33 32 -48 25 -7 -2 -4 -5 6 -5 9 -1 17 -4 17 -8
0 -13 -99 -9 -102 3 -2 6 -8 9 -15 7z"/>
<path d="M598 1434 c-16 -8 -28 -21 -28 -28 0 -9 -7 -12 -19 -9 -16 4 -228
-51 -240 -63 -10 -10 30 -2 130 24 l106 29 46 -53 c51 -58 56 -69 30 -77 -10
-2 -26 -8 -35 -12 -13 -5 -18 -2 -18 9 0 10 -9 16 -22 16 -13 0 -70 11 -127
25 -72 16 -110 21 -122 14 -10 -5 -26 -9 -37 -9 -10 0 -39 -13 -63 -30 -24
-16 -57 -30 -72 -30 -19 0 -27 -4 -24 -12 2 -7 15 -12 28 -11 57 6 67 8 63 15
-2 3 10 17 27 29 36 25 124 34 168 17 14 -5 37 -12 51 -14 14 -3 34 -7 45 -8
11 -2 40 -11 64 -19 44 -16 81 -11 96 12 8 14 45 14 45 1 0 -14 40 -28 61 -23
33 9 34 63 2 63 -12 0 -13 -3 -3 -15 13 -16 6 -35 -13 -35 -19 0 -50 58 -42
78 5 14 4 15 -7 4 -7 -7 -13 -20 -13 -29 0 -9 -6 -18 -12 -20 -7 -3 -13 0 -13
6 0 6 4 11 10 11 5 0 7 7 3 16 -4 11 1 22 12 30 16 12 16 14 3 14 -9 0 -20 -9
-23 -21 -5 -16 -10 -18 -21 -8 -8 6 -14 18 -14 25 0 7 -6 11 -14 8 -8 -3 -19
3 -26 15 -12 23 -8 26 21 11 10 -6 19 -7 19 -3 0 5 15 9 32 8 28 0 36 -6 56
-42 16 -29 28 -40 38 -36 12 4 11 8 -6 20 -26 19 -27 37 0 23 16 -8 20 -8 18
2 -2 7 -14 15 -28 18 -13 3 -29 14 -35 25 -11 22 -47 34 -43 14 2 -6 -3 -14
-11 -17 -10 -3 -12 0 -7 14 6 15 5 17 -5 7 -7 -7 -22 -13 -33 -13 -20 1 -20 1
-2 15 10 8 24 16 30 18 6 2 9 7 6 10 -3 3 -17 -1 -32 -9z"/>
<path d="M1955 1440 c8 -13 -63 -28 -76 -16 -9 8 -10 8 -5 -1 4 -7 -4 -18 -21
-27 -15 -8 -41 -28 -58 -44 -28 -29 -31 -30 -49 -14 -18 16 -18 16 -5 -5 7
-12 22 -21 33 -21 40 2 46 -2 47 -29 0 -27 1 -27 11 -6 8 16 6 29 -5 52 -18
36 -18 36 89 77 80 30 150 31 199 4 20 -11 34 -16 30 -11 -12 20 -71 40 -132
43 -34 2 -60 1 -58 -2z"/>
<path d="M975 1421 c6 -5 24 -13 40 -17 39 -9 30 0 -15 15 -19 6 -30 7 -25 2z"/>
<path d="M910 1404 c0 -8 5 -12 10 -9 6 4 8 11 5 16 -9 14 -15 11 -15 -7z"/>
<path d="M1960 1401 c0 -5 19 -9 43 -9 66 0 97 -4 97 -12 0 -4 10 -10 23 -13
22 -6 22 -6 -2 14 -13 11 -30 18 -37 15 -7 -3 -16 -1 -19 4 -8 12 -105 13
-105 1z"/>
<path d="M1050 1390 c0 -5 7 -10 16 -10 30 0 154 -41 154 -50 0 -5 7 -7 15 -4
22 9 50 -16 33 -28 -9 -7 -5 -8 12 -4 14 3 36 6 50 7 21 0 -249 99 -272 99 -5
0 -8 -4 -8 -10z"/>
<path d="M1885 1375 c-27 -14 -41 -22 -30 -19 11 4 28 7 37 8 9 0 14 5 11 10
-4 5 1 7 10 3 8 -3 21 1 27 9 18 20 2 17 -55 -11z"/>
<path d="M1500 1344 c-22 -20 -38 -39 -35 -42 2 -3 17 9 32 25 16 17 37 36 48
42 11 6 14 11 8 11 -7 0 -31 -16 -53 -36z"/>
<path d="M783 1325 c-3 -9 -3 -18 -1 -21 3 -3 8 4 11 16 6 23 -1 27 -10 5z"/>
<path d="M250 1320 c-21 -7 -21 -8 -5 -9 11 0 27 4 35 9 18 11 5 11 -30 0z"/>
<path d="M182 1309 c-13 -5 -28 -7 -33 -3 -5 3 -9 1 -9 -5 0 -5 -14 -12 -31
-16 -17 -4 -28 -9 -25 -12 5 -6 103 15 125 27 21 11 -1 19 -27 9z"/>
<path d="M813 1290 c1 -11 5 -20 9 -20 4 0 8 9 8 20 0 11 -4 20 -9 20 -6 0 -9
-9 -8 -20z"/>
<path d="M1401 1296 c-17 -10 -20 -15 -11 -21 8 -5 16 -1 22 9 5 9 14 14 20
10 6 -4 5 -10 -3 -15 -10 -6 -10 -9 -2 -9 18 0 24 16 10 28 -8 7 -19 6 -36 -2z"/>
<path d="M830 1253 c-25 -26 -25 -26 -1 -13 12 6 32 9 43 7 19 -5 19 -5 2 14
-9 10 -18 19 -18 18 -1 -1 -12 -12 -26 -26z"/>
<path d="M1298 1273 c6 -2 18 -2 25 0 6 3 1 5 -13 5 -14 0 -19 -2 -12 -5z"/>
<path d="M1238 1263 c7 -3 16 -2 19 1 4 3 -2 6 -13 5 -11 0 -14 -3 -6 -6z"/>
<path d="M1847 1255 c-4 -8 -2 -17 3 -20 6 -4 10 3 10 14 0 25 -6 27 -13 6z"/>
<path d="M26 1246 c4 -11 32 -29 69 -44 6 -3 -5 10 -24 27 -37 33 -54 40 -45
17z"/>
<path d="M1198 1253 c7 -3 16 -2 19 1 4 3 -2 6 -13 5 -11 0 -14 -3 -6 -6z"/>
<path d="M1158 1243 c7 -3 16 -2 19 1 4 3 -2 6 -13 5 -11 0 -14 -3 -6 -6z"/>
<path d="M1118 1233 c7 -3 16 -2 19 1 4 3 -2 6 -13 5 -11 0 -14 -3 -6 -6z"/>
<path d="M885 1220 c3 -6 -1 -13 -10 -16 -14 -6 -14 -9 -3 -16 9 -7 9 -11 2
-14 -6 -3 -20 -11 -30 -20 -15 -12 -12 -11 16 1 27 13 35 23 37 46 1 16 -2 29
-8 29 -6 0 -7 -5 -4 -10z"/>
<path d="M1368 1223 c7 -3 16 -2 19 1 4 3 -2 6 -13 5 -11 0 -14 -3 -6 -6z"/>
<path d="M1420 1211 c14 -5 40 -16 59 -25 18 -10 30 -13 26 -7 -8 14 -72 41
-94 40 -9 0 -5 -4 9 -8z"/>
<path d="M1856 1205 c4 -8 8 -15 10 -15 2 0 4 7 4 15 0 8 -4 15 -10 15 -5 0
-7 -7 -4 -15z"/>
<path d="M216 1195 c-9 -26 -7 -32 5 -12 6 10 9 21 6 23 -2 3 -7 -2 -11 -11z"/>
<path d="M817 1188 c18 -20 26 -19 18 4 -3 8 -12 15 -20 15 -13 0 -12 -4 2
-19z"/>
<path d="M995 1195 c-16 -8 -23 -14 -15 -14 8 0 26 6 40 14 32 18 15 18 -25 0z"/>
<path d="M910 1190 c0 -5 5 -10 11 -10 5 0 7 5 4 10 -3 6 -8 10 -11 10 -2 0
-4 -4 -4 -10z"/>
<path d="M1233 1175 c-66 -30 -70 -42 -5 -14 26 11 74 24 107 29 l60 7 -55 1
c-38 1 -71 -7 -107 -23z"/>
<path d="M656 1181 c-4 -6 -14 -8 -24 -5 -14 5 -14 4 1 -6 14 -9 22 -9 30 -1
6 6 8 13 5 16 -3 4 -9 2 -12 -4z"/>
<path d="M1410 1180 c19 -13 30 -13 30 0 0 6 -10 10 -22 10 -19 0 -20 -2 -8
-10z"/>
<path d="M1867 1173 c-2 -5 -1 -19 4 -33 7 -23 7 -23 8 8 1 31 -3 40 -12 25z"/>
<path d="M900 1155 c-14 -8 -20 -14 -15 -14 6 0 21 6 35 14 14 8 21 14 15 14
-5 0 -21 -6 -35 -14z"/>
<path d="M1458 1163 c7 -3 16 -2 19 1 4 3 -2 6 -13 5 -11 0 -14 -3 -6 -6z"/>
<path d="M1555 1130 c40 -41 59 -54 34 -23 -24 29 -60 63 -66 63 -4 0 11 -18
32 -40z"/>
<path d="M215 1152 c13 -12 73 -32 95 -32 33 0 29 25 -4 27 -17 1 -47 5 -66 8
-22 4 -31 3 -25 -3z"/>
<path d="M365 1151 c3 -6 31 -24 62 -42 30 -18 58 -41 61 -51 4 -15 10 -18 31
-13 14 4 31 8 38 9 35 6 22 17 -16 15 -29 -2 -46 1 -49 9 -2 7 -26 24 -52 37
-27 14 -51 29 -55 35 -3 5 -11 10 -16 10 -6 0 -8 -4 -4 -9z"/>
<path d="M1265 1153 c-34 -8 -158 -64 -186 -84 -14 -10 -29 -16 -33 -12 -3 3
-6 -1 -6 -11 0 -9 -7 -19 -15 -22 -15 -6 -45 -58 -45 -80 0 -7 -6 -19 -12 -26
-7 -7 -13 -24 -13 -38 0 -15 -5 -24 -12 -22 -7 1 -13 -2 -13 -7 0 -6 -12 -6
-29 -1 -38 11 -53 -6 -56 -62 -1 -24 -3 -51 -4 -60 0 -10 -9 -18 -18 -19 -14
0 -13 -3 5 -11 18 -9 26 -8 39 5 14 14 15 25 6 72 l-10 55 28 0 c25 0 27 -4
33 -53 11 -85 73 -204 119 -228 20 -11 20 -10 -3 16 l-25 28 40 -25 c22 -14
53 -33 69 -43 38 -23 190 -24 213 -2 10 10 25 8 18 -2 -3 -5 0 -13 6 -17 7 -4
9 -3 6 3 -4 6 1 19 9 29 9 10 13 13 9 7 -4 -9 -1 -11 9 -7 9 3 16 10 16 14 0
11 40 25 60 22 12 -2 12 -1 2 6 -10 7 -3 16 25 38 49 37 82 75 83 94 0 9 6 5
17 -10 17 -24 56 -61 95 -88 15 -11 17 -11 12 2 -3 7 -1 17 5 21 20 12 11 25
-11 20 -18 -4 -33 4 -65 36 -39 37 -58 70 -33 54 6 -4 10 -3 8 2 -1 4 2 36 6
70 8 65 -11 214 -24 193 -5 -8 -9 -6 -14 5 -3 9 -3 22 1 27 3 6 1 8 -4 5 -10
-6 -95 68 -87 76 2 1 -5 3 -14 4 -9 1 -35 8 -57 17 -39 15 -108 19 -150 9z
m174 -33 c50 -25 106 -84 132 -139 17 -35 23 -64 23 -121 0 -82 -13 -119 -62
-187 -43 -58 -197 -135 -283 -141 -103 -8 -190 40 -247 137 -24 41 -27 56 -27
136 0 81 3 95 29 143 36 65 78 102 159 144 122 62 196 70 276 28z"/>
<path d="M1229 1106 c-132 -55 -207 -123 -230 -210 -50 -185 62 -351 235 -349
113 1 270 93 317 185 29 57 35 143 14 214 -13 47 -27 69 -70 111 -80 77 -161
92 -266 49z m222 -42 c8 -8 21 -14 28 -14 8 0 11 -6 7 -16 -3 -9 -2 -12 5 -9
6 4 13 -2 16 -14 3 -12 9 -21 13 -21 13 0 31 -81 31 -136 0 -61 -24 -120 -68
-169 -38 -41 -81 -68 -99 -61 -10 4 -12 2 -8 -6 5 -8 2 -9 -10 -5 -9 4 -15 3
-12 -1 2 -4 -16 -16 -40 -26 -57 -23 -165 -15 -195 15 -10 10 -23 19 -28 19
-13 0 -67 100 -63 118 2 8 -1 11 -7 7 -7 -4 -11 9 -11 39 0 25 5 48 11 51 5 4
9 17 8 28 -2 35 0 49 9 43 8 -5 10 1 14 43 1 11 8 17 15 14 7 -3 13 0 13 5 0
15 45 62 59 62 6 0 11 5 11 10 0 6 4 10 10 10 5 0 7 -8 3 -17 -5 -14 -2 -14
13 3 10 12 43 32 72 46 53 25 54 25 120 11 37 -9 74 -22 83 -29z"/>
<path d="M2809 1143 c-13 -16 -12 -17 4 -4 9 7 17 15 17 17 0 8 -8 3 -21 -13z"/>
<path d="M1490 1146 c0 -2 7 -7 16 -10 8 -3 12 -2 9 4 -6 10 -25 14 -25 6z"/>
<path d="M67 1120 l-22 -18 28 -7 c15 -4 31 -5 34 -1 4 3 -3 6 -15 6 -12 0
-22 5 -22 11 0 8 13 10 38 6 22 -4 31 -3 23 2 -11 7 -11 9 0 13 8 3 1 5 -14 5
-15 0 -38 -8 -50 -17z"/>
<path d="M174 1126 c-25 -19 0 -31 26 -13 17 12 18 16 6 20 -8 3 -22 0 -32 -7z"/>
<path d="M800 1130 c-9 -6 -10 -10 -3 -10 6 0 15 5 18 10 8 12 4 12 -15 0z"/>
<path d="M1531 1119 c-1 -9 7 -23 17 -30 15 -12 16 -12 6 1 -6 8 -14 22 -17
30 -5 13 -6 12 -6 -1z"/>
<path d="M2766 1115 c-11 -8 -17 -17 -14 -20 2 -3 13 4 23 15 21 23 18 25 -9
5z"/>
<path d="M210 1100 c-13 -12 -30 -18 -37 -16 -7 3 -13 0 -13 -7 0 -8 -4 -7
-10 3 -9 13 -12 12 -25 -4 -8 -11 -15 -25 -15 -32 0 -16 28 -26 35 -13 4 5 14
8 23 7 11 -2 17 4 17 16 0 11 6 21 13 23 7 3 10 -1 6 -11 -3 -9 -1 -16 5 -16
6 0 11 5 11 11 0 5 5 7 11 3 8 -4 8 0 0 15 -9 16 -9 21 0 21 18 0 90 -80 83
-92 -5 -7 -1 -7 12 0 14 8 22 6 36 -10 10 -12 18 -17 18 -12 0 6 -6 16 -12 23
-11 11 -9 12 10 6 12 -3 22 -4 22 0 0 6 -45 25 -67 29 -7 1 -22 14 -33 29 -12
15 -28 27 -36 27 -8 0 -14 5 -14 10 0 16 -15 12 -40 -10z m-60 -50 c-19 -13
-30 -13 -30 0 0 6 10 10 23 10 18 0 19 -2 7 -10z"/>
<path d="M344 1106 c5 -15 2 -17 -14 -13 -18 5 -19 3 -9 -9 7 -9 26 -22 43
-31 l31 -16 -19 22 c-21 24 -6 29 18 6 8 -8 18 -15 23 -15 4 0 16 -7 26 -15
18 -13 17 -14 -13 -30 -18 -9 -29 -19 -26 -23 4 -3 12 0 18 6 14 14 42 16 34
4 -7 -12 110 -14 156 -3 l37 9 12 -54 c7 -30 15 -54 18 -54 4 0 15 -13 24 -30
10 -16 23 -30 28 -30 6 0 7 4 4 10 -3 5 -8 19 -10 31 -2 12 -12 27 -22 34 -16
12 -17 14 -2 20 15 5 13 10 -8 31 -21 21 -23 27 -11 41 7 9 9 14 3 11 -5 -3
-19 -2 -30 2 -11 4 -37 3 -59 -2 -32 -7 -41 -6 -48 6 -7 12 -13 13 -34 4 -18
-8 -21 -14 -12 -20 9 -5 9 -8 1 -8 -24 0 -42 12 -37 25 4 9 -16 28 -53 52 -32
21 -62 42 -66 48 -5 6 -6 2 -3 -9z m351 -166 c3 -5 1 -10 -4 -10 -6 0 -11 5
-11 10 0 6 2 10 4 10 3 0 8 -4 11 -10z"/>
<path d="M662 1109 c-13 -5 -28 -6 -33 -3 -5 3 -9 2 -8 -3 4 -21 -3 -33 -18
-34 -10 -1 -1 -6 19 -11 30 -8 41 -7 53 6 9 9 26 16 38 16 12 0 33 9 47 20 23
18 21 17 -40 -2 -36 -12 -68 -25 -71 -31 -4 -5 -9 -5 -13 2 -5 7 9 19 36 30
43 20 34 28 -10 10z"/>
<path d="M790 1100 c-9 -6 -10 -10 -3 -10 6 0 15 5 18 10 8 12 4 12 -15 0z"/>
<path d="M1908 1103 c9 -4 10 -9 2 -18 -8 -9 -7 -14 4 -18 11 -4 13 -1 9 10
-5 13 -2 15 18 10 13 -4 29 -7 34 -7 6 0 3 -5 -5 -10 -16 -11 -11 -12 57 -14
43 -1 35 4 -50 31 -65 21 -102 29 -69 16z"/>
<path d="M2145 1100 c6 -10 4 -12 -9 -7 -11 4 -15 3 -10 -4 4 -6 -1 -9 -12 -7
-11 1 -20 -1 -21 -5 -2 -4 -1 -7 2 -7 3 0 11 0 18 0 7 0 21 6 32 13 14 11 15
16 5 22 -9 6 -11 4 -5 -5z"/>
<path d="M2800 1099 c0 -5 5 -7 10 -4 6 3 10 8 10 11 0 2 -4 4 -10 4 -5 0 -10
-5 -10 -11z"/>
<path d="M2700 1058 l-24 -33 31 25 c31 25 41 40 25 40 -5 0 -19 -15 -32 -32z"/>
<path d="M2715 1039 l-60 -50 -6 43 c-5 37 -6 38 -7 11 -2 -38 -20 -57 -79
-84 -25 -11 -43 -22 -41 -24 4 -4 76 19 106 34 9 5 30 15 46 22 33 16 126 98
111 98 -5 0 -37 -22 -70 -50z"/>
<path d="M2140 1065 c-25 -14 -25 -14 -2 -15 12 0 22 5 22 11 0 8 6 7 17 -2
14 -12 16 -12 12 0 -7 21 -20 22 -49 6z"/>
<path d="M2093 1037 c0 -7 8 -13 18 -13 13 0 15 3 7 13 -6 7 -14 13 -18 13 -3
0 -7 -6 -7 -13z"/>
<path d="M5 1030 c-3 -5 1 -10 9 -10 9 0 16 5 16 10 0 6 -4 10 -9 10 -6 0 -13
-4 -16 -10z"/>
<path d="M1905 1020 c3 -5 14 -10 23 -10 15 0 15 2 2 10 -20 13 -33 13 -25 0z"/>
<path d="M23 1008 c-13 -6 -23 -15 -23 -20 0 -13 9 -10 32 12 24 22 23 23 -9
8z"/>
<path d="M183 995 c-10 -10 -9 -16 3 -26 22 -18 44 5 24 25 -13 12 -17 12 -27
1z m27 -15 c0 -5 -4 -10 -10 -10 -5 0 -10 5 -10 10 0 6 5 10 10 10 6 0 10 -4
10 -10z"/>
<path d="M795 987 c-6 -7 -15 -18 -19 -25 -7 -11 -4 -11 13 0 12 7 21 18 21
25 0 16 -2 16 -15 0z"/>
<path d="M423 968 c-3 -7 -1 -8 5 -4 7 4 12 1 12 -8 0 -9 7 -16 15 -16 8 0 15
6 15 14 0 17 -38 28 -47 14z"/>
<path d="M76 961 c-4 -6 -2 -11 3 -11 6 0 11 -5 11 -11 0 -5 -5 -7 -12 -3 -7
5 -8 3 -3 -5 12 -20 29 3 17 24 -6 12 -11 14 -16 6z"/>
<path d="M384 958 c-4 -6 1 -17 12 -25 16 -12 17 -15 4 -24 -13 -9 -13 -10 2
-6 19 7 64 -29 60 -48 -1 -7 7 -15 18 -18 26 -7 26 -21 -1 -33 -19 -9 -19 -10
12 -39 25 -24 29 -25 20 -8 -6 12 -16 24 -23 26 -10 4 -9 8 2 16 23 17 50 14
43 -5 -4 -10 -1 -15 8 -13 19 3 50 -11 44 -21 -2 -4 13 -26 34 -48 22 -22 51
-57 66 -76 15 -20 31 -33 36 -30 5 3 9 0 9 -6 0 -6 5 -8 10 -5 6 3 10 -1 10
-9 0 -9 3 -15 8 -14 15 4 80 -44 85 -62 8 -30 -3 -60 -22 -62 -9 0 -22 -2 -30
-2 -8 -1 -16 -7 -19 -14 -2 -6 -8 -9 -14 -6 -6 4 -13 3 -17 -2 -3 -5 -27 -20
-53 -33 -27 -13 -45 -28 -41 -34 4 -6 0 -8 -10 -4 -10 3 -17 3 -17 -1 0 -4
-17 -16 -37 -27 -21 -11 -59 -32 -85 -47 -27 -15 -48 -25 -48 -21 0 4 -10 -3
-22 -15 -13 -11 -57 -38 -98 -59 -41 -21 -77 -41 -78 -45 -2 -5 -13 -8 -23 -8
-11 0 -18 -4 -15 -9 4 -5 -7 -12 -24 -16 -16 -4 -30 -11 -30 -16 0 -6 -5 -7
-10 -4 -6 3 -10 2 -10 -2 0 -5 -16 -15 -35 -22 -19 -7 -35 -16 -35 -21 0 -5
-8 -11 -17 -13 -14 -4 -15 -5 -2 -6 8 0 41 15 73 34 32 19 61 35 65 35 4 0 27
-20 51 -45 24 -24 46 -42 49 -40 3 3 -14 25 -38 49 l-43 43 69 38 c37 21 91
50 118 65 89 48 189 102 220 120 52 30 168 93 207 112 73 36 62 88 -32 158
-37 27 -73 50 -79 50 -6 0 -11 6 -11 14 0 18 -279 296 -294 293 -6 -1 -10 4
-8 11 3 15 -5 16 -14 0z"/>
<path d="M810 960 c-9 -6 -10 -10 -3 -10 6 0 15 5 18 10 8 12 4 12 -15 0z"/>
<path d="M1886 947 c3 -10 9 -15 12 -12 3 3 0 11 -7 18 -10 9 -11 8 -5 -6z"/>
<path d="M250 934 c-46 -16 -50 -51 -5 -46 39 4 72 34 53 48 -9 7 -25 6 -48
-2z m36 -19 c-11 -8 -31 -15 -45 -15 -43 0 1 26 49 29 11 0 10 -4 -4 -14z"/>
<path d="M1850 926 c-5 -15 -14 -25 -19 -22 -5 4 -16 0 -23 -8 -8 -7 -23 -16
-35 -20 -12 -4 -27 -13 -33 -21 -11 -13 -6 -13 36 0 28 8 57 25 68 39 l19 25
91 -83 c51 -45 135 -115 189 -154 115 -86 196 -153 337 -281 58 -52 107 -97
109 -98 2 -2 2 -5 -1 -8 -8 -9 -141 51 -235 106 -49 28 -142 71 -208 95 -112
41 -213 98 -273 154 -23 21 -62 35 -62 22 0 -4 12 -15 28 -24 24 -14 39 -26
88 -67 24 -20 133 -70 219 -100 49 -18 142 -61 205 -97 64 -35 143 -74 175
-85 33 -11 72 -27 87 -35 15 -8 28 -11 28 -7 0 4 5 2 12 -5 16 -16 25 -15 31
2 4 10 1 13 -9 9 -21 -8 -17 9 12 42 14 17 37 45 52 63 15 18 39 45 54 61 15
16 25 31 22 34 -8 8 -64 -57 -64 -73 0 -8 -3 -10 -6 -7 -8 7 -46 -33 -72 -76
-9 -15 -19 -27 -22 -27 -3 0 -27 21 -55 46 -178 162 -315 278 -415 352 -104
77 -190 146 -244 195 -20 17 -20 17 0 18 16 0 15 2 -6 11 -14 6 -29 12 -33 12
-5 1 -15 10 -22 20 -14 18 -15 18 -25 -8z"/>
<path d="M1915 931 c12 -11 172 -74 270 -106 39 -13 95 -33 125 -44 30 -12 57
-21 60 -21 9 0 -42 32 -55 34 -7 1 -19 7 -26 13 -8 5 -25 13 -39 16 -51 11
-67 16 -160 53 -114 44 -188 68 -175 55z"/>
<path d="M2540 915 c-17 -21 -9 -27 13 -10 10 7 14 16 9 19 -5 3 -15 -1 -22
-9z"/>
<path d="M370 893 c0 -5 9 -18 20 -28 11 -10 20 -16 20 -13 0 3 -9 15 -20 28
-11 13 -20 19 -20 13z"/>
<path d="M133 883 c15 -2 27 -9 27 -15 0 -6 -13 -8 -29 -6 -21 3 -28 1 -24 -9
11 -27 63 -7 63 24 0 8 -12 12 -32 12 -31 -2 -31 -2 -5 -6z"/>
<path d="M1964 882 c3 -5 45 -23 93 -41 48 -18 99 -38 113 -45 14 -7 45 -19
69 -26 24 -8 45 -20 48 -27 3 -7 9 -10 14 -7 6 3 17 0 25 -7 8 -6 17 -9 21 -5
3 3 0 6 -8 6 -11 0 -12 2 -1 9 10 6 -11 17 -65 36 -43 16 -129 48 -191 72
-123 46 -126 47 -118 35z"/>
<path d="M287 863 c-13 -15 -13 -20 -1 -30 17 -17 29 -16 44 2 10 12 10 18 0
30 -16 19 -23 19 -43 -2z m43 -13 c0 -10 -26 -20 -34 -13 -11 12 -6 19 14 20
11 1 20 -2 20 -7z"/>
<path d="M2436 855 c-13 -19 -13 -23 -2 -19 8 3 16 14 19 25 7 25 3 24 -17 -6z"/>
<path d="M5 849 c-11 -17 1 -22 24 -9 13 7 21 7 21 1 0 -6 -12 -17 -27 -25
-17 -9 -22 -15 -12 -16 25 0 53 25 46 44 -7 18 -42 22 -52 5z"/>
<path d="M1747 811 c3 -12 11 -17 19 -14 11 4 11 7 -1 19 -19 19 -24 18 -18
-5z"/>
<path d="M2390 820 c-9 -6 -10 -10 -3 -10 6 0 15 5 18 10 8 12 4 12 -15 0z"/>
<path d="M175 811 c-8 -14 2 -31 18 -30 9 0 9 2 0 6 -7 2 -13 9 -13 14 0 12
27 11 33 -1 3 -6 4 -5 3 2 -3 17 -32 22 -41 9z"/>
<path d="M363 809 c-37 -11 -46 -21 -37 -44 5 -12 14 -15 33 -10 30 7 61 33
61 49 0 7 -3 7 -8 -1 -7 -12 -54 -33 -73 -33 -5 0 -9 5 -9 10 0 6 11 10 24 10
13 0 29 7 36 15 7 8 11 15 9 14 -2 0 -18 -5 -36 -10z"/>
<path d="M690 809 c0 -44 22 -78 62 -94 22 -9 43 -13 46 -10 3 3 0 5 -6 5 -17
0 -69 51 -87 86 -8 16 -15 22 -15 13z"/>
<path d="M740 812 c0 -5 18 -23 40 -41 45 -36 55 -28 12 10 -36 33 -52 42 -52
31z"/>
<path d="M2295 810 c3 -5 8 -10 11 -10 2 0 4 5 4 10 0 6 -5 10 -11 10 -5 0 -7
-4 -4 -10z"/>
<path d="M1625 800 c3 -5 8 -10 11 -10 2 0 4 5 4 10 0 6 -5 10 -11 10 -5 0 -7
-4 -4 -10z"/>
<path d="M49 770 l-24 -20 29 10 c16 6 31 8 34 5 10 -9 -32 -33 -48 -27 -11 4
-12 2 -4 -7 9 -10 17 -9 38 4 30 20 32 28 12 44 -10 9 -19 7 -37 -9z"/>
<path d="M1787 766 c10 -13 21 -22 25 -20 3 2 9 -2 11 -8 4 -9 6 -10 6 -1 1 6
-8 18 -19 26 -11 8 -17 17 -13 20 3 4 -1 7 -11 7 -16 0 -16 -2 1 -24z"/>
<path d="M232 756 c-22 -12 -23 -14 -7 -29 12 -13 21 -15 36 -7 10 6 19 15 19
21 0 6 -7 3 -16 -5 -8 -9 -20 -13 -26 -10 -7 5 -4 12 7 20 25 19 15 25 -13 10z"/>
<path d="M417 743 c-12 -11 -8 -23 7 -23 7 0 19 7 26 15 10 12 9 15 -7 15 -11
0 -23 -3 -26 -7z"/>
<path d="M2965 702 l-30 -37 32 25 c18 14 32 31 32 38 1 18 -1 16 -34 -26z"/>
<path d="M130 720 c-8 -5 -17 -7 -22 -4 -10 6 -30 -34 -23 -46 9 -14 47 -12
68 4 27 21 20 28 -13 11 -32 -16 -50 -19 -50 -7 0 4 17 14 38 22 20 9 32 19
26 22 -5 4 -16 3 -24 -2z"/>
<path d="M441 715 c-24 -9 -29 -14 -18 -18 9 -3 26 3 39 13 26 22 25 22 -21 5z"/>
<path d="M1821 710 c-9 -5 -5 -9 10 -13 28 -7 31 -6 14 10 -6 6 -18 8 -24 3z"/>
<path d="M2507 695 c3 -8 9 -12 14 -9 12 7 11 11 -5 17 -10 4 -13 1 -9 -8z"/>
<path d="M2947 645 c-27 -30 -45 -55 -40 -55 14 0 95 90 91 101 -2 5 -25 -15
-51 -46z"/>
<path d="M20 670 c0 -5 5 -10 11 -10 5 0 7 5 4 10 -3 6 -8 10 -11 10 -2 0 -4
-4 -4 -10z"/>
<path d="M250 672 c-33 -4 -55 -36 -36 -51 9 -8 24 -7 52 4 23 9 29 14 14 11
-14 -2 -33 -7 -44 -11 -14 -6 -17 -4 -14 5 2 8 19 19 38 25 37 12 31 23 -10
17z"/>
<path d="M1778 673 c7 -3 16 -2 19 1 4 3 -2 6 -13 5 -11 0 -14 -3 -6 -6z"/>
<path d="M40 650 c-12 -8 -10 -10 8 -10 13 0 20 4 17 10 -7 12 -6 12 -25 0z"/>
<path d="M1735 650 c-3 -6 1 -7 9 -4 18 7 21 14 7 14 -6 0 -13 -4 -16 -10z"/>
<path d="M2669 643 c-13 -16 -12 -17 4 -4 16 13 21 21 13 21 -2 0 -10 -8 -17
-17z"/>
<path d="M2868 599 c-32 -32 -58 -64 -58 -69 0 -6 11 0 25 14 14 14 25 27 25
30 0 3 16 21 37 41 20 19 34 37 32 39 -2 2 -30 -22 -61 -55z"/>
<path d="M472 635 c-12 -9 -27 -15 -34 -14 -26 3 -39 -1 -33 -11 8 -13 55 -13
55 1 0 5 4 8 9 4 5 -3 12 -1 16 5 3 5 13 10 22 10 14 0 14 -3 -2 -20 -10 -11
-27 -20 -37 -20 -17 0 -48 -21 -48 -33 0 -3 9 -7 20 -10 13 -3 25 2 34 15 9
13 19 17 28 12 7 -4 10 -4 6 1 -4 4 0 13 8 20 11 8 14 19 10 33 -9 26 -23 28
-54 7z"/>
<path d="M608 632 c-44 -27 -45 -45 -1 -27 65 27 48 6 -20 -25 -73 -33 -89
-46 -29 -25 20 8 49 16 64 19 15 3 34 14 43 23 16 15 16 18 1 28 -9 7 -13 15
-9 18 13 13 -23 5 -49 -11z"/>
<path d="M811 634 c0 -11 3 -14 6 -6 3 7 2 16 -1 19 -3 4 -6 -2 -5 -13z"/>
<path d="M2446 637 c3 -10 9 -15 12 -12 3 3 0 11 -7 18 -10 9 -11 8 -5 -6z"/>
<path d="M73 601 c8 -23 13 -28 15 -16 2 10 -3 25 -12 33 -14 15 -15 13 -3
-17z"/>
<path d="M2796 607 c3 -10 9 -15 12 -12 3 3 0 11 -7 18 -10 9 -11 8 -5 -6z"/>
<path d="M390 584 c0 -8 5 -12 10 -9 6 3 10 10 10 16 0 5 -4 9 -10 9 -5 0 -10
-7 -10 -16z"/>
<path d="M525 580 c-3 -6 1 -7 9 -4 18 7 21 14 7 14 -6 0 -13 -4 -16 -10z"/>
<path d="M1502 568 c10 -20 13 -21 16 -5 4 21 38 23 46 2 4 -10 -1 -15 -16
-15 -21 0 -21 0 -2 -15 28 -21 44 -18 44 9 0 19 4 23 28 20 16 -2 19 -1 7 2
-11 3 -24 10 -29 15 -6 5 -32 9 -58 9 -48 0 -48 -1 -36 -22z"/>
<path d="M10 570 c-8 -5 -12 -11 -9 -14 2 -3 11 -1 19 4 8 5 12 11 9 14 -2 3
-11 1 -19 -4z"/>
<path d="M2500 571 c0 -6 4 -13 10 -16 6 -3 7 1 4 9 -7 18 -14 21 -14 7z"/>
<path d="M2885 570 c-3 -5 -1 -10 4 -10 6 0 11 5 11 10 0 6 -2 10 -4 10 -3 0
-8 -4 -11 -10z"/>
<path d="M22 543 c-26 -28 -23 -45 3 -19 21 21 35 20 35 -1 0 -15 2 -15 9 -4
10 15 -3 52 -17 50 -4 -1 -17 -12 -30 -26z"/>
<path d="M287 550 c-9 -13 -20 -18 -31 -14 -11 4 -24 -2 -36 -16 -24 -28 -25
-31 -5 -24 8 4 15 10 15 15 0 5 7 9 15 9 20 0 19 -17 -2 -29 -10 -5 -15 -13
-11 -17 4 -4 18 0 31 9 30 19 58 24 77 13 12 -7 13 -6 3 4 -9 10 -8 16 4 28
14 14 13 17 -3 29 -25 18 -41 16 -57 -7z m43 -15 c0 -8 -3 -15 -7 -15 -5 0
-19 -3 -33 -7 l-25 -6 20 21 c24 25 45 28 45 7z"/>
<path d="M121 527 c-10 -26 3 -47 29 -47 28 0 42 23 26 45 -19 26 -46 27 -55
2z m36 -34 c-3 -3 -11 -2 -17 2 -8 5 -7 11 2 22 12 15 13 14 16 -1 2 -10 1
-20 -1 -23z"/>
<path d="M2785 521 c3 -6 -3 -15 -12 -21 -17 -10 -16 -11 2 -8 21 3 35 38 15
38 -6 0 -9 -4 -5 -9z"/>
<path d="M2974 493 c-35 -48 -38 -59 -6 -23 28 31 38 50 29 50 -2 0 -12 -12
-23 -27z"/>
<path d="M1550 490 c0 -5 5 -10 10 -10 6 0 10 5 10 10 0 6 -4 10 -10 10 -5 0
-10 -4 -10 -10z"/>
<path d="M2715 438 c-21 -24 -47 -53 -58 -65 -11 -13 -18 -26 -14 -29 7 -7 37
20 37 34 0 5 11 18 25 28 14 10 25 23 25 28 0 5 8 15 17 22 10 7 15 15 12 18
-3 3 -23 -13 -44 -36z"/>
<path d="M66 455 c-3 -9 -10 -13 -16 -10 -5 3 -10 1 -10 -4 0 -6 -10 -11 -22
-11 -20 -1 -21 -2 -6 -11 17 -10 58 7 58 23 0 5 7 8 15 8 20 0 19 -20 -2 -36
-10 -7 -13 -13 -8 -13 6 0 19 6 30 15 15 11 17 18 9 32 -15 23 -40 27 -48 7z"/>
<path d="M1526 453 c-24 -12 -76 -16 -270 -20 -132 -2 -243 -7 -246 -10 -3 -2
111 -3 252 -1 251 3 258 4 280 26 26 26 23 27 -16 5z"/>
<path d="M2625 460 c-3 -6 1 -7 9 -4 18 7 21 14 7 14 -6 0 -13 -4 -16 -10z"/>
<path d="M965 430 c-18 -8 -17 -9 8 -9 16 -1 26 3 22 9 -3 6 -7 10 -8 9 -1 0
-11 -4 -22 -9z"/>
<path d="M878 423 c7 -3 16 -2 19 1 4 3 -2 6 -13 5 -11 0 -14 -3 -6 -6z"/>
<path d="M27 391 c-16 -10 -25 -21 -19 -25 5 -3 20 6 32 19 28 30 25 31 -13 6z"/>
<path d="M2730 319 c0 -5 5 -7 10 -4 6 3 10 8 10 11 0 2 -4 4 -10 4 -5 0 -10
-5 -10 -11z"/>
<path d="M2705 299 c-4 -6 -5 -12 -2 -15 2 -3 7 2 10 11 7 17 1 20 -8 4z"/>
<path d="M2764 228 l-19 -23 23 19 c12 11 22 21 22 23 0 8 -8 2 -26 -19z"/>
<path d="M2598 231 c-1 -5 -45 -57 -97 -116 -51 -58 -91 -109 -87 -112 8 -8
11 -4 120 122 47 55 86 103 86 107 0 11 -18 10 -22 -1z"/>
<path d="M2690 211 c0 -5 5 -13 10 -16 6 -3 10 -2 10 4 0 5 -4 13 -10 16 -5 3
-10 2 -10 -4z"/>
<path d="M2614 188 l-19 -23 23 19 c12 11 22 21 22 23 0 8 -8 2 -26 -19z"/>
<path d="M2585 150 c3 -5 8 -10 11 -10 2 0 4 5 4 10 0 6 -5 10 -11 10 -5 0 -7
-4 -4 -10z"/>
<path d="M2544 108 l-19 -23 23 19 c12 11 22 21 22 23 0 8 -8 2 -26 -19z"/>
<path d="M2510 70 c-9 -6 -10 -10 -3 -10 6 0 15 5 18 10 8 12 4 12 -15 0z"/>
<path d="M7 15 c3 -8 9 -12 14 -9 12 7 11 11 -5 17 -10 4 -13 1 -9 -8z"/>
</g>
</svg>
