<?xml version="1.0" standalone="no"?>
<!DOCTYPE svg PUBLIC "-//W3C//DTD SVG 20010904//EN"
 "http://www.w3.org/TR/2001/REC-SVG-20010904/DTD/svg10.dtd">
<svg version="1.0" xmlns="http://www.w3.org/2000/svg"
 width="300.000000pt" height="200.000000pt" viewBox="0 0 300.000000 200.000000"
 preserveAspectRatio="xMidYMid meet">
<metadata>
Created by potrace 1.10, written by Peter Selinger 2001-2011
</metadata>
<g transform="translate(0.000000,200.000000) scale(0.100000,-0.100000)"
fill="#000000" stroke="none">
<path d="M2883 1962 c-12 -2 -27 -10 -33 -18 -7 -8 -20 -14 -29 -14 -49 -1
-89 -89 -51 -112 11 -7 20 -18 20 -25 0 -7 4 -13 9 -13 4 0 8 -17 8 -37 -1
-26 4 -39 14 -41 12 -2 15 10 15 58 0 57 -1 61 -20 56 -12 -3 -28 -1 -36 4
-12 8 -11 10 5 10 15 0 17 2 6 9 -26 16 -5 56 42 79 24 12 51 22 60 22 28 0
28 -18 0 -29 l-28 -11 31 4 c25 4 33 1 37 -14 3 -11 1 -20 -4 -20 -5 0 -9 -4
-9 -10 0 -20 27 -9 38 15 15 33 15 35 -2 35 -8 0 -17 9 -21 19 -8 26 -26 38
-52 33z m-53 -162 c0 -5 -5 -10 -11 -10 -5 0 -7 5 -4 10 3 6 8 10 11 10 2 0 4
-4 4 -10z"/>
<path d="M2830 1895 c-13 -14 -20 -28 -16 -32 4 -5 13 -1 19 8 11 14 14 14 30
-2 18 -17 18 -17 0 -22 -10 -3 -4 -5 14 -4 23 1 29 4 22 13 -6 8 -5 14 6 18
29 11 16 25 -15 16 -29 -8 -35 -3 -31 23 2 12 -4 8 -29 -18z"/>
<path d="M2979 1895 c-1 -3 -2 -8 -3 -12 -5 -22 -28 -53 -40 -53 -9 0 -13 -11
-12 -32 2 -35 -10 -65 -33 -84 -10 -8 -11 -13 -3 -18 7 -4 12 -2 12 3 0 6 18
11 40 11 22 0 40 -4 40 -10 0 -5 -16 -9 -35 -8 -19 1 -41 -5 -50 -12 -12 -10
-15 -10 -15 2 0 10 -8 13 -30 10 -30 -4 -39 -16 -21 -26 5 -4 12 0 14 6 4 10
8 9 16 -2 17 -24 13 -31 -14 -24 -18 4 -27 1 -31 -10 -3 -9 -10 -13 -15 -10
-13 8 -11 24 2 21 6 -1 14 4 16 11 5 14 -6 15 -27 2 -12 -7 -12 -12 -1 -34 12
-22 12 -29 -3 -51 -10 -15 -15 -29 -12 -32 3 -3 11 6 17 21 12 26 39 36 39 14
0 -6 -3 -9 -6 -5 -3 3 -17 -7 -31 -24 -20 -23 -28 -27 -39 -18 -8 6 -14 8 -14
4 0 -4 -6 -2 -13 4 -8 6 -17 9 -21 6 -3 -3 -3 -1 1 4 5 5 17 11 28 14 19 4 18
5 -2 6 -21 1 -53 -22 -53 -38 0 -5 11 -7 25 -6 14 2 25 0 25 -4 0 -5 16 -7 36
-5 34 2 36 1 20 -14 -12 -12 -19 -13 -28 -4 -8 8 -15 9 -25 1 -9 -8 -17 -8
-27 0 -12 10 -17 8 -26 -10 -11 -20 -10 -21 14 -15 15 4 26 2 26 -4 0 -5 -5
-10 -11 -10 -5 0 -7 -4 -4 -10 3 -5 -3 -10 -14 -10 -56 0 -43 95 21 156 51 48
96 144 67 144 -5 0 -7 -4 -4 -10 3 -5 1 -10 -4 -10 -6 0 -11 -7 -11 -15 0 -8
-11 -26 -25 -40 -14 -14 -23 -25 -19 -25 3 0 1 -7 -6 -15 -7 -8 -17 -12 -23
-8 -5 3 -7 1 -3 -5 3 -6 -3 -14 -15 -17 -11 -4 -18 -9 -15 -12 3 -3 1 -13 -4
-23 -5 -9 -12 -38 -15 -64 -6 -41 -25 -94 -77 -216 -6 -14 -10 -29 -9 -34 4
-16 -11 -46 -22 -46 -7 0 -30 16 -52 35 -22 19 -43 35 -47 35 -4 0 -5 7 -2 15
4 9 -10 31 -35 56 -23 23 -41 39 -41 36 0 -10 -91 41 -109 61 -9 10 -23 19
-31 20 -8 0 -42 3 -75 6 -51 4 -55 3 -25 -5 88 -25 108 -35 147 -72 39 -37 61
-77 43 -77 -14 0 -21 -33 -9 -41 6 -4 8 -12 4 -18 -5 -9 -10 -9 -20 -1 -10 8
-16 7 -24 -7 -9 -16 -10 -17 -11 -1 0 11 -5 15 -14 12 -7 -3 -16 3 -20 12 -9
24 -4 25 27 9 26 -13 28 -13 37 11 13 33 13 64 0 64 -5 0 -9 -8 -8 -17 1 -10
0 -27 -1 -38 -1 -19 -3 -19 -15 -3 -15 20 -56 14 -56 -9 0 -8 9 -33 20 -55 25
-52 25 -71 3 -65 -10 2 -29 -2 -43 -9 -29 -14 -68 -54 -53 -54 6 0 16 7 23 15
7 8 17 15 23 15 5 0 2 -10 -9 -22 l-19 -23 22 19 c13 10 20 22 18 26 -3 4 6
10 20 12 14 3 26 0 29 -8 8 -21 26 -17 26 6 0 11 4 20 9 20 16 0 18 -24 4 -38
-7 -7 -13 -21 -13 -30 1 -15 3 -14 15 2 8 11 15 18 16 15 0 -2 2 -26 5 -52 3
-26 13 -70 24 -97 11 -27 17 -57 13 -66 -4 -11 -2 -15 4 -11 7 5 9 -1 5 -15
-3 -14 -1 -19 6 -14 8 4 10 2 6 -8 -3 -8 2 -26 12 -41 l17 -26 20 45 c11 25
23 46 28 46 12 0 12 -2 -14 -58 l-23 -50 -28 21 -28 20 15 -29 c14 -26 13 -32
-5 -68 -11 -21 -17 -47 -15 -57 3 -11 2 -17 -2 -15 -4 3 -22 -24 -39 -60 l-32
-65 -53 5 c-28 3 -43 3 -32 0 11 -3 24 -10 29 -15 14 -13 56 -11 56 2 0 5 5 7
10 4 6 -3 10 1 10 11 0 13 3 14 15 4 12 -10 16 -9 21 3 3 9 3 21 -1 26 -6 10
20 71 31 71 2 0 0 -9 -6 -19 -13 -25 -13 -41 0 -21 5 8 22 51 36 95 15 44 40
107 55 139 31 64 33 70 21 62 -4 -2 -13 -1 -20 3 -8 5 -2 27 23 79 19 40 38
72 44 72 13 0 22 -29 14 -43 -4 -7 1 -6 10 2 9 7 17 10 17 6 0 -5 9 0 19 9 15
13 20 14 24 4 3 -7 5 -4 5 7 -1 28 19 75 32 75 6 0 9 4 6 9 -4 5 0 11 6 14 10
3 8 13 -6 40 -17 33 -21 35 -40 24 -11 -6 -24 -10 -28 -9 -4 1 -12 -7 -18 -18
-6 -11 -20 -20 -31 -20 -11 0 -17 -4 -14 -10 3 -5 -6 -12 -20 -16 -17 -4 -23
-10 -17 -16 6 -6 17 -6 29 0 12 7 25 7 34 1 7 -5 24 -9 37 -9 13 0 22 -6 22
-15 0 -17 -25 -20 -35 -5 -3 6 -11 10 -17 10 -7 0 -6 -6 2 -15 7 -8 20 -15 28
-15 12 0 13 -3 5 -11 -14 -14 -53 5 -53 26 0 11 -5 10 -20 -5 -22 -22 -34 -20
-100 23 -53 35 -100 84 -100 104 0 10 -6 12 -20 8 -15 -5 -20 -2 -20 13 0 11
7 23 16 26 21 8 26 8 20 -3 -3 -5 1 -12 10 -15 8 -3 12 -11 9 -17 -8 -12 23
-49 42 -49 7 0 13 -4 13 -10 0 -5 9 -1 20 10 24 24 25 31 5 24 -21 -9 -19 13
7 54 12 20 17 32 10 28 -7 -4 -14 3 -18 21 -4 15 -30 50 -58 78 l-51 49 50
-28 c70 -40 87 -57 81 -81 -3 -16 9 -30 59 -67 36 -27 68 -48 73 -48 5 0 15
14 23 31 l14 30 24 -20 24 -21 15 30 c8 16 19 30 24 30 6 0 8 11 6 24 -3 15 0
27 8 30 10 4 11 12 5 28 -7 18 -3 28 18 50 25 25 26 26 51 8 14 -9 42 -20 62
-24 30 -6 39 -3 47 13 9 16 4 25 -29 55 -22 20 -46 36 -53 36 -6 1 0 8 16 16
15 8 27 18 27 23 0 5 10 8 21 7 32 -2 49 31 26 48 -16 12 -15 14 12 19 25 5
30 12 36 46 6 39 33 59 52 40 6 -6 17 -2 27 10 17 18 17 20 -1 38 -10 10 -26
17 -36 15 -18 -4 -24 13 -7 23 6 3 10 18 10 33 0 16 8 32 19 39 20 13 35 53
19 53 -5 0 -6 5 -3 10 3 6 4 10 1 10 -3 0 -7 -2 -7 -5z m-84 -256 c-10 -15
-25 -10 -19 6 4 8 10 12 15 9 5 -3 7 -10 4 -15z m-35 -24 c0 -7 -10 -12 -25
-11 -29 1 -32 11 -8 25 20 11 33 6 33 -14z m0 -75 c0 -12 -8 -12 -35 0 -18 8
-17 9 8 9 15 1 27 -3 27 -9z m-97 -94 c34 -14 88 -66 69 -66 -6 0 -14 5 -17
10 -4 6 -10 8 -15 5 -15 -10 -60 14 -60 32 0 15 -2 16 -10 3 -8 -12 -10 -11
-10 8 0 26 1 26 43 8z m-89 -12 c20 -8 21 -34 1 -34 -16 0 -47 -63 -33 -68 17
-7 7 -22 -14 -22 -21 -1 -21 -2 -7 -13 15 -11 15 -16 3 -40 -16 -29 -22 -31
-42 -19 -10 7 -3 31 30 105 24 53 44 97 45 97 1 0 8 -3 17 -6z m-346 -154
c-15 -24 -22 -19 -13 9 3 12 11 19 16 16 5 -4 3 -14 -3 -25z m46 -60 c-13 -13
-28 3 -39 40 l-7 25 28 -27 c20 -20 25 -31 18 -38z m-44 0 c0 -10 6 -21 13
-23 8 -4 6 -6 -4 -6 -9 -1 -24 8 -35 20 -15 17 -16 22 -4 29 18 11 30 4 30
-20z m17 -66 c-9 -9 -28 6 -21 18 4 6 10 6 17 -1 6 -6 8 -13 4 -17z m263 -26
c0 -5 -16 -8 -35 -6 -37 2 -50 18 -15 18 11 0 20 5 20 11 0 8 5 8 15 -1 8 -7
15 -17 15 -22z m-231 -79 c14 -12 36 -25 49 -30 19 -7 22 -12 13 -23 -6 -7 -8
-16 -5 -19 3 -3 -3 -23 -14 -44 -11 -21 -23 -46 -26 -56 -8 -26 -29 -16 -40
19 -5 16 -15 45 -22 64 -8 19 -15 51 -16 70 -1 19 -5 40 -8 45 -4 6 -10 18
-13 28 -7 19 5 11 82 -54z m210 54 c3 -2 0 -7 -5 -12 -11 -10 -74 6 -74 19 0
8 69 2 79 -7z m-229 -403 c-12 -23 -23 -40 -25 -38 -3 2 5 23 17 46 11 24 23
41 25 38 2 -2 -5 -23 -17 -46z"/>
<path d="M2751 1426 c2 -2 15 -9 29 -16 23 -12 24 -12 11 3 -7 10 -20 17 -29
17 -8 0 -13 -2 -11 -4z"/>
<path d="M2823 1853 c-18 -7 -16 -23 2 -23 8 0 15 7 15 15 0 8 -1 15 -2 14 -2
0 -9 -3 -15 -6z"/>
<path d="M2873 1823 c-19 -4 -23 -11 -22 -41 0 -34 1 -35 11 -14 12 24 29 25
36 2 3 -7 0 -10 -6 -6 -6 3 -18 -8 -26 -25 -20 -39 -20 -40 -1 -33 8 4 15 12
15 20 0 8 4 14 9 14 13 0 22 30 14 43 -4 7 -6 20 -5 30 2 9 2 16 0 16 -2 -1
-13 -4 -25 -6z"/>
<path d="M1758 1711 c-32 -8 -58 -18 -58 -21 0 -8 52 -5 95 4 32 7 75 -10 83
-33 3 -9 -1 -11 -16 -7 -13 4 -36 -1 -59 -13 -21 -11 -32 -20 -24 -21 8 0 29
-11 48 -26 18 -14 33 -20 33 -15 0 6 -6 11 -12 11 -10 0 -10 2 0 9 10 6 4 10
-20 16 l-33 7 45 9 c49 10 87 0 115 -31 18 -20 26 -76 10 -73 -6 1 -10 -13 -9
-31 1 -20 -3 -33 -11 -33 -7 0 -10 8 -8 18 4 14 0 16 -15 12 -14 -3 -19 -10
-15 -21 5 -12 2 -14 -11 -9 -10 4 -15 3 -11 -3 3 -6 15 -10 26 -10 10 0 19 -5
19 -11 0 -5 -8 -9 -17 -8 -10 2 -34 -7 -53 -19 -19 -12 -43 -22 -53 -22 -10 0
-16 -4 -12 -9 9 -16 -69 9 -82 26 -9 11 -9 21 -2 34 7 14 6 19 -4 19 -8 0 -19
12 -26 27 -12 25 -13 26 -23 9 -10 -18 -3 -28 24 -38 4 -2 11 -25 14 -52 6
-39 4 -48 -7 -44 -8 3 -14 9 -15 14 -2 24 -18 43 -40 48 -13 4 -24 13 -24 21
0 9 -6 12 -15 8 -14 -5 -14 -7 0 -23 8 -9 12 -20 8 -25 -5 -4 1 -5 13 -1 13 4
26 1 34 -9 7 -8 9 -15 5 -15 -5 0 0 -9 9 -19 10 -11 15 -24 12 -29 -3 -6 2 -8
14 -5 11 3 17 10 13 17 -4 6 1 5 11 -3 13 -11 14 -16 4 -22 -6 -4 -15 -6 -19
-3 -4 2 -10 0 -14 -5 -3 -6 3 -8 15 -6 28 5 26 -19 -5 -59 -14 -18 -25 -36
-25 -40 0 -15 -30 -37 -42 -30 -10 5 -10 4 -1 -6 9 -10 9 -19 -2 -40 -8 -15
-11 -30 -8 -34 4 -3 3 -6 -1 -6 -4 0 -14 7 -22 15 -8 8 -23 20 -33 27 -10 7
-33 42 -50 78 -30 60 -39 88 -44 132 -1 9 -3 15 -6 12 -2 -2 -14 2 -26 10 -21
14 -25 13 -46 -11 -13 -15 -18 -23 -11 -19 11 7 12 0 7 -30 -11 -60 -12 -123
-3 -118 4 3 8 -6 8 -20 0 -14 -4 -28 -10 -31 -6 -4 -4 -15 5 -29 8 -12 12 -26
8 -30 -4 -4 -1 -11 6 -15 16 -10 5 -34 -12 -25 -7 3 -3 -2 8 -10 21 -17 42
-16 37 3 -1 6 4 11 10 11 7 0 5 5 -4 11 -21 12 -23 39 -5 59 10 12 9 12 -5 2
-22 -17 -27 -6 -22 51 3 43 1 48 -14 42 -12 -4 -11 0 6 15 24 23 28 31 11 28
-6 -2 -14 3 -17 11 -3 9 0 11 8 6 10 -6 12 -2 8 13 -4 12 -2 25 3 28 5 3 9 0
9 -7 0 -7 3 -10 6 -7 3 4 -2 18 -12 32 -19 31 -14 44 9 21 9 -8 20 -15 25 -15
5 0 7 -11 5 -24 -6 -31 60 -159 94 -181 13 -9 31 -32 39 -51 8 -19 19 -34 24
-34 6 0 9 -6 8 -12 -2 -7 4 -13 12 -13 12 0 14 10 12 48 -4 43 1 54 53 133 46
71 54 88 44 101 -15 17 -1 30 44 40 21 4 25 8 15 15 -9 6 -6 7 9 3 22 -6 88
27 76 38 -3 4 1 7 10 7 21 0 22 -33 2 -50 -8 -6 -22 -9 -32 -6 -10 3 -25 1
-33 -4 -11 -7 -7 -10 17 -10 17 0 35 -5 39 -11 8 -14 53 39 54 63 0 9 4 18 10
20 11 3 18 37 19 87 1 33 2 34 20 17 16 -14 23 -15 41 -6 16 9 28 8 52 -4 17
-9 41 -16 54 -16 12 0 33 -4 47 -9 18 -7 24 -6 24 5 0 8 -3 12 -5 9 -3 -3 -10
0 -17 5 -6 5 -26 11 -43 12 -25 2 -31 6 -27 18 5 11 3 12 -6 3 -12 -12 -42 -6
-34 7 3 5 -4 6 -15 3 -11 -3 -28 1 -37 8 -14 12 -16 12 -9 -1 4 -8 0 -6 -8 4
-9 11 -19 34 -22 53 -3 18 -10 30 -15 27 -5 -3 -9 0 -9 5 0 6 -6 11 -13 11 -7
0 -22 7 -33 16 -10 8 -12 12 -4 9 8 -4 -1 7 -20 23 -19 17 -36 29 -38 27 -3
-2 -12 -1 -21 3 -9 5 -42 1 -73 -7z m267 -201 c-3 -5 -11 -10 -16 -10 -6 0 -7
5 -4 10 3 6 11 10 16 10 6 0 7 -4 4 -10z m-79 -86 c-4 -9 -9 -15 -11 -12 -3 3
-3 13 1 22 4 9 9 15 11 12 3 -3 3 -13 -1 -22z m-203 -74 c3 -11 2 -20 -2 -20
-3 0 -12 9 -19 20 -10 16 -10 20 2 20 7 0 16 -9 19 -20z"/>
<path d="M2790 1690 c0 -5 5 -10 10 -10 6 0 10 5 10 10 0 6 -4 10 -10 10 -5 0
-10 -4 -10 -10z"/>
<path d="M1672 1664 c-18 -19 -15 -23 14 -20 34 4 51 30 21 32 -12 1 -28 -4
-35 -12z"/>
<path d="M1774 1665 c-4 -8 -10 -15 -16 -15 -5 0 -6 5 -2 12 5 7 3 8 -5 3 -9
-5 -10 -10 -2 -18 7 -7 15 -6 25 2 8 7 20 10 26 6 5 -3 10 -2 10 3 0 17 -30
22 -36 7z"/>
<path d="M1828 1673 c7 -3 16 -2 19 1 4 3 -2 6 -13 5 -11 0 -14 -3 -6 -6z"/>
<path d="M429 1653 c-31 -5 -109 -76 -110 -101 -1 -9 -2 -34 -3 -54 -1 -24
-10 -46 -26 -63 l-25 -27 34 20 c32 19 35 25 35 70 2 89 69 147 163 138 51 -5
64 -12 56 -31 -3 -8 0 -15 7 -15 6 0 8 5 5 10 -3 6 -2 10 3 10 12 0 30 -48 29
-77 -1 -19 -7 -23 -37 -25 -29 -1 -27 -2 14 -7 29 -4 51 -12 54 -20 4 -11 -17
-13 -113 -10 -88 3 -119 1 -122 -9 -3 -7 1 -10 10 -6 10 3 17 -1 20 -13 4 -16
5 -16 6 0 1 13 9 17 34 16 17 0 26 -3 20 -6 -7 -2 -13 -9 -13 -13 0 -11 31 -6
59 9 28 16 38 14 44 -9 3 -11 1 -20 -4 -20 -5 0 -9 -4 -9 -10 0 -5 7 -7 15 -4
8 4 15 11 15 18 0 6 9 17 20 24 26 16 46 6 29 -14 -6 -7 -9 -21 -5 -29 3 -8 1
-15 -4 -15 -6 0 -10 5 -10 10 0 6 -3 10 -8 10 -4 0 -6 -19 -4 -43 3 -33 -1
-47 -17 -61 -12 -11 -21 -25 -21 -32 0 -17 -35 -27 -65 -20 -13 3 -37 18 -54
32 -17 14 -31 21 -31 15 0 -6 12 -21 27 -34 50 -42 64 -58 58 -67 -10 -16 -25
-11 -25 7 0 13 -3 14 -12 5 -8 -8 -8 -15 2 -27 13 -16 40 -21 40 -7 0 4 14 23
31 41 17 19 34 44 39 55 8 20 9 20 19 -7 12 -31 14 -132 3 -158 -4 -9 -24 -35
-45 -59 l-37 -44 -55 27 c-45 22 -59 35 -81 79 -53 105 -61 150 -26 154 37 4
50 30 36 68 -8 21 -24 20 -40 -1 -16 -21 -18 -43 -4 -43 6 0 10 10 10 22 0 15
3 19 10 12 15 -15 1 -44 -20 -44 -11 0 -22 -5 -25 -10 -4 -6 -12 -10 -18 -9
-28 5 -87 -14 -87 -28 0 -12 3 -12 22 1 24 17 48 21 48 8 0 -5 -16 -14 -35
-22 -19 -7 -37 -22 -41 -32 -9 -28 -41 -21 -80 17 -19 19 -35 37 -35 40 0 2
-6 18 -12 35 -8 22 -17 30 -32 28 -18 -3 -20 -10 -18 -69 1 -51 7 -76 25 -105
39 -64 48 -90 35 -103 -6 -6 -17 -11 -23 -11 -23 0 -28 -41 -7 -61 17 -17 21
-17 47 -4 41 22 44 20 36 -29 -12 -82 -1 -257 18 -291 19 -31 49 -39 89 -24
12 5 6 8 -21 8 -62 1 -65 11 -66 217 0 139 -3 183 -13 187 -7 2 -23 26 -36 51
-14 25 -30 51 -38 57 -7 6 -13 18 -13 25 0 8 -3 14 -7 14 -5 0 -9 11 -9 25 -2
27 11 34 20 10 3 -8 11 -15 18 -15 7 0 1 12 -14 25 -28 24 -40 85 -18 85 6 0
10 -12 10 -27 0 -21 16 -42 62 -86 l62 -59 26 29 c14 16 42 41 62 56 l35 27 7
-46 c7 -58 8 -132 0 -161 -7 -24 -43 -38 -59 -22 -7 7 -4 8 10 3 18 -6 18 -5
-2 10 -23 17 -48 13 -57 -9 -7 -20 17 -35 58 -37 43 -2 51 5 63 52 14 54 73
50 73 -5 0 -29 -10 -38 -27 -24 -7 6 -13 8 -13 3 0 -5 23 -24 50 -41 43 -29
55 -32 95 -27 57 8 76 -6 73 -53 -2 -26 3 -39 21 -53 16 -11 22 -23 18 -34
-11 -27 -2 -18 38 39 36 53 65 75 50 38 -4 -10 -8 -24 -8 -30 0 -17 -14 -17
-20 0 -4 9 -6 9 -6 0 -1 -13 -90 -151 -147 -225 -19 -27 -43 -48 -52 -48 -10
0 -13 3 -6 8 5 4 36 43 69 87 32 44 63 86 69 94 8 10 4 18 -13 32 -12 10 -20
23 -16 29 3 5 1 10 -4 10 -6 0 -11 -7 -11 -15 0 -9 -9 -15 -25 -15 -31 0 -33
18 -2 29 19 7 23 16 22 47 0 37 -2 38 -38 42 -32 3 -37 1 -37 -17 0 -12 -3
-21 -6 -21 -11 0 -50 24 -102 63 -62 47 -72 42 -72 -37 0 -27 -5 -66 -12 -87
-6 -22 -9 -41 -7 -44 3 -2 22 0 43 5 48 11 122 63 120 85 -1 9 3 14 10 12 6
-3 10 -10 8 -16 -1 -6 -3 -17 -5 -23 -1 -7 -6 -16 -12 -20 -5 -4 0 -8 13 -8
13 0 21 -4 17 -10 -4 -6 -15 -6 -30 0 -14 5 -25 6 -25 2 0 -4 -14 -16 -31 -26
-17 -10 -29 -20 -26 -22 6 -7 67 8 63 15 -2 3 7 7 21 7 24 2 25 2 3 -13 -13
-10 -19 -21 -15 -33 5 -14 2 -17 -13 -13 -11 3 -22 -1 -25 -10 -5 -13 0 -14
24 -7 16 5 41 5 57 1 15 -4 33 -7 40 -5 7 1 8 0 2 -3 -5 -2 -10 -11 -10 -18 0
-7 -4 -15 -8 -17 -13 -5 -52 -65 -52 -80 0 -8 -8 -23 -18 -34 -10 -11 -17 -25
-14 -32 2 -6 -2 -12 -9 -12 -7 0 -9 -3 -6 -7 4 -3 2 -12 -4 -20 -6 -7 -8 -13
-4 -13 4 0 1 -10 -7 -22 -9 -14 -12 -31 -8 -43 7 -18 8 -16 14 10 4 17 20 58
36 93 25 51 34 62 54 62 24 0 122 78 111 88 -3 3 1 12 8 20 9 12 9 14 0 8 -17
-9 18 56 35 67 7 5 10 12 7 17 -3 5 6 17 20 28 13 11 21 22 18 26 -3 3 -1 6 5
6 7 0 12 -6 12 -14 0 -7 9 -25 21 -40 11 -14 18 -30 14 -36 -3 -6 1 -7 10 -4
10 4 27 -3 42 -17 14 -13 22 -17 18 -9 -8 13 -6 13 8 2 9 -8 20 -11 26 -8 5 3
12 0 15 -6 3 -7 5 -4 3 7 -1 13 -13 21 -34 26 -85 17 -120 76 -100 171 5 25
39 59 53 54 7 -3 18 3 26 12 12 16 11 16 -6 2 -17 -13 -18 -13 -15 5 3 11 12
20 21 20 25 0 72 45 60 57 -6 6 -8 18 -5 27 4 12 2 11 -9 -3 -15 -19 -16 -19
-27 2 -16 30 -14 35 11 29 14 -4 30 0 41 11 22 19 21 22 2 -45 -5 -18 -2 -21
17 -16 22 4 22 4 4 -11 -19 -15 -18 -16 16 -16 55 0 91 -18 121 -61 l27 -39
-27 5 -28 5 30 -14 c17 -9 39 -15 50 -15 11 -1 33 -15 48 -33 l28 -33 -7 35
c-12 55 -8 110 9 137 6 9 3 11 -7 7 -9 -3 -16 -13 -16 -22 0 -17 -41 -82 -51
-82 -4 0 -19 19 -34 43 -34 50 -72 85 -102 93 -13 4 -23 12 -23 20 0 17 8 17
39 0 23 -13 71 -10 71 4 0 13 -39 19 -43 6 -3 -7 -11 -5 -25 7 -11 11 -26 16
-31 12 -6 -3 -11 1 -11 10 0 9 -4 14 -9 10 -5 -3 -12 -1 -15 4 -4 5 2 12 13
16 11 3 25 13 33 22 11 15 11 16 -4 10 -29 -11 -20 1 13 18 36 19 54 15 61
-13 4 -15 2 -19 -8 -15 -16 6 -19 -13 -4 -22 5 -3 7 -12 4 -19 -3 -7 2 -16 10
-19 11 -5 16 0 16 13 0 11 -5 20 -11 20 -5 0 -7 5 -3 11 4 7 14 1 28 -16 22
-27 55 -32 63 -9 2 7 -5 10 -19 7 -28 -5 -63 29 -55 52 7 16 47 21 47 5 0 -5
-7 -7 -15 -4 -11 5 -13 2 -9 -10 8 -20 14 -20 30 2 12 16 13 15 24 -8 9 -22
10 -23 6 -2 -2 12 0 22 5 22 5 0 9 -4 9 -10 0 -11 70 -31 83 -23 8 5 5 -14
-10 -54 -3 -7 -1 -13 5 -13 5 0 13 20 16 44 6 37 10 43 26 39 21 -6 26 -18 11
-27 -4 -3 -6 -24 -4 -47 l4 -41 -38 7 c-20 4 -50 13 -65 21 -15 8 -35 14 -45
14 -16 -1 -16 -2 2 -15 11 -8 26 -19 33 -26 8 -6 27 -9 43 -5 16 3 29 1 29 -4
0 -6 -9 -10 -19 -10 -35 0 -31 -16 12 -57 57 -54 122 -89 182 -98 28 -4 65
-13 84 -21 30 -13 35 -12 47 3 7 10 14 14 14 9 0 -5 6 -4 13 2 15 13 32 3 32
-17 0 -8 6 -16 13 -18 7 -3 12 4 12 15 0 25 30 50 58 47 13 -1 25 2 28 7 3 4
-13 8 -35 8 -26 0 -41 5 -41 13 0 8 -4 7 -10 -3 -9 -13 -10 -13 -10 0 0 13 -2
13 -9 1 -5 -8 -7 -21 -3 -29 4 -11 1 -14 -10 -10 -9 4 -21 1 -28 -5 -10 -9
-11 -8 -7 8 3 11 9 37 13 58 6 37 17 47 29 27 4 -6 11 -7 17 -4 6 4 8 2 4 -4
-7 -12 10 -26 23 -18 5 4 4 16 -2 30 -7 13 -15 22 -20 19 -4 -3 -19 -2 -32 1
-28 7 -44 44 -24 57 11 6 4 18 -27 51 -23 24 -55 65 -71 91 l-30 49 -7 -42
c-4 -24 -2 -48 4 -58 9 -14 10 -13 6 8 -8 39 8 55 24 25 10 -19 11 -28 3 -36
-6 -6 -9 -18 -6 -27 5 -11 2 -13 -6 -7 -10 6 -11 3 -2 -14 7 -12 9 -25 7 -30
-3 -5 1 -12 10 -15 9 -4 14 -9 11 -12 -8 -8 18 -34 32 -34 6 0 11 7 11 15 0 9
-6 12 -17 8 -12 -5 -15 -2 -10 10 4 9 10 23 13 31 3 7 -2 16 -11 19 -12 5 -14
1 -9 -20 5 -18 3 -24 -4 -19 -12 7 -13 96 -1 96 7 0 15 -15 18 -35 1 -5 11
-13 22 -17 16 -6 19 -15 15 -52 -2 -28 0 -47 8 -49 6 -2 7 -8 3 -13 -4 -4 -17
-3 -27 4 -16 10 -18 9 -13 -4 5 -14 3 -14 -15 -3 -12 7 -19 15 -17 17 2 2 -1
10 -8 16 -8 10 -18 10 -39 2 -22 -8 -34 -7 -51 3 -22 14 -22 14 -3 -8 20 -22
54 -25 69 -6 4 6 10 0 13 -12 4 -13 13 -23 20 -23 8 0 14 -5 14 -10 0 -6 11
-8 25 -4 22 5 25 3 25 -22 0 -51 -12 -60 -62 -44 -24 8 -61 15 -83 17 -23 2
-46 11 -53 21 -7 9 -16 16 -20 15 -16 -5 -73 38 -66 50 4 6 4 9 -1 5 -8 -8
-35 9 -35 21 0 4 17 15 39 24 37 17 38 18 31 56 -5 29 -3 43 12 61 22 27 23
44 4 59 -8 7 -12 21 -9 31 3 12 -5 33 -20 54 -15 18 -23 37 -19 40 3 4 -2 4
-12 0 -12 -5 -17 -4 -13 3 9 14 -30 47 -73 63 -19 7 -44 22 -56 32 -21 19 -44
24 -44 9 0 -4 -21 -7 -47 -5 -36 3 -44 1 -33 -7 13 -9 13 -10 0 -6 -8 2 -20
13 -26 25 -8 17 -13 19 -23 9 -10 -9 -11 -9 -6 4 8 22 -8 31 -64 36 -31 2 -49
-1 -56 -10 -5 -7 -19 -19 -30 -25 -19 -11 -19 -11 -1 -12 17 0 17 -2 -4 -20
-15 -13 -18 -20 -9 -20 11 0 11 -2 -1 -10 -13 -9 -13 -10 0 -11 10 0 8 -3 -5
-9 -18 -8 -18 -9 5 -10 24 -1 23 -2 -7 -13 -17 -7 -35 -16 -40 -20 -4 -5 5 -3
20 2 43 17 68 14 37 -4 l-25 -14 28 -1 c16 0 30 -7 34 -16 3 -8 12 -13 19 -10
8 3 14 1 14 -5 0 -6 4 -8 9 -4 5 3 12 1 16 -5 3 -5 -2 -10 -12 -11 -11 0 -13
-3 -5 -6 7 -3 20 -2 28 1 14 5 14 9 3 22 -11 13 -11 15 2 14 29 -4 37 0 43 25
4 16 11 23 18 19 7 -4 8 -3 4 5 -4 6 -3 18 4 26 17 20 -5 27 -23 7 -9 -10 -18
-28 -20 -40 -2 -12 -7 -25 -12 -29 -4 -5 -5 -2 -1 5 11 18 -5 15 -19 -5 -17
-24 -58 -5 -80 36 -19 37 -19 35 -1 69 18 34 44 58 74 65 19 4 21 3 11 -9 -9
-11 -8 -19 6 -34 10 -11 15 -23 11 -27 -4 -4 -10 -3 -14 3 -16 25 -47 23 -65
-2 -18 -24 -18 -27 -2 -60 9 -18 20 -34 24 -34 16 0 31 27 25 44 -7 19 -16 20
-31 5 -9 -9 -11 5 -4 44 2 14 26 7 39 -13 7 -11 18 -20 26 -20 21 0 28 31 11
50 -19 21 -19 36 0 44 8 3 15 1 15 -4 0 -6 -6 -10 -12 -10 -7 0 -1 -8 12 -17
14 -9 29 -23 33 -30 11 -17 22 -16 41 3 9 8 16 11 16 5 0 -14 47 -14 55 -1 3
6 11 10 16 10 6 0 8 -4 5 -9 -8 -12 12 -26 62 -40 26 -7 48 -22 59 -39 10 -15
31 -39 46 -55 22 -20 28 -33 23 -51 -4 -15 0 -28 9 -36 22 -18 18 -27 -10 -27
-32 0 -41 13 -24 35 11 14 11 15 -1 5 -8 -7 -34 -14 -59 -14 l-46 -1 50 -13
c37 -9 45 -14 32 -20 -19 -8 -65 1 -84 17 -17 14 -4 38 21 38 19 1 19 2 3 11
-20 12 -37 4 -37 -17 0 -15 -12 -17 -58 -8 -22 5 -29 11 -25 23 4 14 3 14 -10
-2 -11 -13 -22 -15 -47 -10 -22 4 -31 3 -27 -4 7 -11 -41 -28 -51 -18 -3 3 0
5 7 5 7 0 9 5 6 10 -5 8 -11 7 -21 -1 -19 -16 -18 -43 1 -35 8 3 15 2 15 -3 0
-15 -45 -48 -75 -55 l-30 -8 28 30 c23 24 25 30 13 35 -11 4 -18 -1 -22 -18
-3 -14 -11 -25 -16 -25 -6 0 -7 11 -4 26 5 17 3 23 -4 19 -5 -3 -10 0 -10 7 0
7 -13 28 -28 46 -20 23 -36 32 -59 32 -17 0 -33 4 -35 10 -1 5 -15 11 -30 12
-15 1 -29 7 -31 13 -8 19 5 75 16 68 6 -3 7 -1 3 6 -4 6 -2 18 4 26 16 19 7
91 -14 114 -9 9 -16 24 -16 32 0 8 -5 20 -12 27 -7 7 -9 12 -5 12 4 0 3 6 -3
13 -6 6 -18 22 -28 34 -19 23 -89 36 -143 26z m401 -188 c-7 -9 -15 -13 -17
-11 -7 7 7 26 19 26 6 0 6 -6 -2 -15z m34 -120 c-4 -8 -11 -12 -16 -9 -6 4 -5
10 3 15 19 12 19 11 13 -6z m-112 -119 c24 -7 50 -62 50 -104 0 -20 8 -51 19
-71 22 -42 15 -60 -12 -29 -10 13 -17 16 -14 8 2 -8 -6 -23 -19 -32 -22 -16
-25 -16 -30 -2 -4 11 -2 15 8 11 10 -4 13 -1 9 9 -3 7 -10 14 -17 14 -7 0 -7
3 -1 8 11 8 35 48 35 58 0 4 -13 -7 -30 -24 -30 -32 -37 -52 -22 -66 7 -8 8
-13 11 -42 0 -8 6 -12 11 -9 15 10 12 -5 -5 -22 -20 -19 -20 -19 -32 42 -23
110 -57 221 -79 257 -13 21 -24 40 -24 42 0 2 28 -6 63 -19 34 -13 70 -26 79
-29z m-109 -46 c3 -10 -1 -24 -7 -29 -10 -8 -11 -3 -8 19 5 35 8 37 15 10z
m-273 -82 c0 -5 -4 -8 -10 -8 -5 0 -10 10 -10 23 0 18 2 19 10 7 5 -8 10 -18
10 -22z m290 21 c0 -5 -4 -7 -10 -4 -5 3 -10 2 -10 -4 0 -5 6 -14 14 -18 24
-14 22 -40 -5 -65 -27 -25 -49 -26 -49 -2 0 9 -4 12 -10 9 -16 -10 -12 5 10
32 11 14 20 34 20 44 0 12 7 19 20 19 11 0 20 -5 20 -11z m264 -44 c-4 -8 -10
-12 -15 -9 -11 6 -2 24 11 24 5 0 7 -7 4 -15z m-309 -85 c8 0 17 5 20 10 9 15
27 12 19 -2 -4 -8 -3 -10 2 -5 5 5 9 14 9 20 0 7 7 12 15 12 18 0 22 -56 6
-67 -7 -5 -7 -8 2 -8 23 0 12 -37 -22 -75 -26 -27 -36 -33 -42 -23 -13 20 -13
72 0 81 6 5 0 5 -13 2 -20 -6 -23 -4 -17 10 4 13 2 16 -9 11 -9 -3 -15 0 -15
8 0 17 -33 31 -38 17 -2 -6 -8 -8 -13 -5 -6 3 -18 -1 -27 -10 -24 -21 -50 -6
-28 16 8 9 12 18 9 22 -8 8 7 7 32 -3 13 -5 26 -2 39 11 19 17 20 17 38 -2 10
-11 25 -20 33 -20z m-472 10 c3 -11 1 -18 -3 -15 -5 3 -11 1 -15 -5 -8 -13
-55 -13 -55 0 0 37 64 54 73 20z m107 10 c0 -5 -4 -10 -10 -10 -5 0 -10 5 -10
10 0 6 5 10 10 10 6 0 10 -4 10 -10z m204 -14 c-3 -9 -10 -16 -15 -16 -14 0
-11 28 4 33 16 6 19 3 11 -17z m-94 -71 c0 -8 9 -15 20 -15 11 0 20 -6 20 -14
0 -7 10 -16 22 -19 18 -5 19 -9 9 -21 -12 -15 -90 -56 -105 -56 -4 0 -4 21 0
48 4 26 8 57 8 70 0 12 6 22 13 22 7 0 13 -7 13 -15z m185 -35 c7 -22 -29 -70
-52 -70 -16 0 -17 -1 7 48 23 46 35 52 45 22z m25 -145 c-14 -16 -95 -21 -104
-6 -3 5 5 16 19 25 27 18 70 22 60 6 -3 -5 -15 -10 -26 -10 -10 0 -19 -4 -19
-9 0 -16 51 2 62 23 11 19 12 19 16 3 2 -10 -2 -24 -8 -32z m20 -99 c0 -2 -8
-10 -17 -17 -16 -13 -17 -12 -4 4 13 16 21 21 21 13z"/>
<path d="M702 1195 c-7 -8 -8 -15 -3 -15 5 0 13 5 16 11 4 6 13 8 21 5 8 -3
14 -1 14 4 0 15 -33 11 -48 -5z"/>
<path d="M747 1130 c-40 -25 -43 -30 -16 -30 32 0 52 14 47 32 -3 13 -7 12
-31 -2z"/>
<path d="M630 1081 c0 -6 0 -14 1 -17 0 -4 -5 -10 -12 -15 -8 -4 -10 -11 -6
-15 4 -4 15 0 24 9 14 14 15 17 3 17 -12 0 -13 2 -1 9 9 6 10 11 2 15 -6 4
-11 2 -11 -3z"/>
<path d="M660 969 c0 -5 5 -7 10 -4 6 3 10 8 10 11 0 2 -4 4 -10 4 -5 0 -10
-5 -10 -11z"/>
<path d="M640 930 c0 -5 5 -10 10 -10 6 0 10 5 10 10 0 6 -4 10 -10 10 -5 0
-10 -4 -10 -10z"/>
<path d="M1627 1622 c-16 -17 -15 -18 14 -16 28 2 64 22 55 31 -2 3 -14 -1
-26 -7 -15 -8 -20 -8 -16 -1 11 18 -10 13 -27 -7z"/>
<path d="M1690 1606 c-13 -15 -20 -31 -16 -41 5 -14 12 -11 45 17 22 18 37 36
35 40 -10 16 -41 7 -64 -16z"/>
<path d="M426 1598 c-9 -12 -13 -24 -10 -27 3 -3 9 1 14 9 5 8 20 16 34 17 23
2 23 0 11 -24 -14 -27 -40 -48 -78 -62 -20 -8 -24 -6 -23 7 1 9 7 27 14 40 22
39 7 48 -16 10 -12 -19 -22 -49 -22 -67 0 -30 13 -41 25 -22 3 5 19 13 37 16
17 4 40 15 51 25 21 21 76 34 101 24 9 -3 16 -1 16 5 0 6 -7 11 -15 11 -8 0
-15 4 -15 10 0 6 -9 6 -26 0 -32 -13 -44 -13 -44 0 0 6 8 10 19 10 15 0 53 29
40 30 -79 11 -99 8 -113 -12z"/>
<path d="M1878 1609 c15 -16 16 -33 0 -23 -8 5 -9 2 -5 -10 5 -13 1 -19 -14
-23 -11 -3 -18 -11 -15 -19 3 -8 -10 -17 -36 -26 -66 -21 -59 -36 14 -32 34 1
64 8 66 13 2 6 8 11 14 11 16 0 49 41 42 52 -3 5 -13 0 -21 -11 -8 -12 -18
-19 -23 -16 -4 3 -10 -3 -13 -14 -2 -10 -14 -20 -25 -23 -15 -4 -19 -2 -15 8
3 8 9 14 15 14 5 0 7 4 4 9 -3 5 1 12 10 15 8 3 12 11 8 17 -4 8 1 9 17 5 19
-6 21 -5 7 3 -9 7 -14 19 -11 30 3 12 -2 21 -14 25 -14 6 -16 5 -5 -5z"/>
<path d="M2756 1603 c-6 -14 -5 -15 5 -6 7 7 10 15 7 18 -3 3 -9 -2 -12 -12z"/>
<path d="M1593 1585 c1 -5 -12 -10 -29 -10 -17 0 -31 -4 -31 -10 0 -5 22 -10
49 -10 37 0 52 5 59 18 6 9 9 17 7 18 -22 6 -56 2 -55 -6z"/>
<path d="M1910 1591 c0 -5 5 -13 10 -16 6 -3 10 -2 10 4 0 5 -4 13 -10 16 -5
3 -10 2 -10 -4z"/>
<path d="M1755 1583 c-11 -3 -24 -10 -30 -15 -7 -8 -4 -9 8 -4 10 3 34 6 53 6
21 0 33 4 29 10 -6 10 -25 11 -60 3z"/>
<path d="M1765 1547 c-27 -5 -67 -10 -87 -10 -21 -1 -38 -6 -38 -12 0 -5 -5
-3 -10 5 -8 13 -10 13 -10 -2 0 -9 -5 -18 -12 -20 -7 -3 -5 -7 6 -11 9 -4 15
-3 11 2 -3 5 8 12 24 16 22 5 35 1 50 -14 18 -18 22 -19 49 -6 16 8 37 24 47
35 10 11 22 17 26 14 5 -3 9 0 9 5 0 6 -3 10 -7 10 -5 -1 -30 -6 -58 -12z m-9
-22 c-10 -8 -23 -12 -29 -8 -11 7 12 23 33 23 12 -1 11 -4 -4 -15z"/>
<path d="M1549 1539 c-11 -7 -11 -9 4 -9 9 0 17 -4 17 -10 0 -12 27 -13 34 -1
8 13 -39 30 -55 20z"/>
<path d="M488 1503 c6 -2 18 -2 25 0 6 3 1 5 -13 5 -14 0 -19 -2 -12 -5z"/>
<path d="M1571 1482 c-8 -16 -5 -17 32 -13 23 2 35 6 27 9 -8 3 -23 9 -32 13
-12 7 -20 4 -27 -9z"/>
<path d="M2002 1455 c-31 -35 -32 -37 -16 -66 9 -19 13 -43 10 -62 -5 -26 -4
-28 4 -12 7 15 8 8 4 -25 -8 -58 -13 -65 -30 -43 -9 12 -16 15 -21 7 -5 -6
-18 -14 -30 -18 -23 -7 -63 -51 -63 -69 0 -6 9 -2 19 7 18 17 20 17 40 -3 13
-13 23 -17 27 -9 4 6 -3 19 -16 28 -21 16 -22 18 -5 27 13 8 22 6 34 -6 16
-15 15 -20 -8 -73 -19 -45 -29 -58 -46 -58 -22 0 -55 53 -55 90 0 10 -9 22
-20 25 -11 4 -28 18 -37 31 -20 31 -30 22 -37 -36 -11 -81 30 -118 135 -119
l47 -1 37 88 c45 104 56 186 30 225 -21 32 -12 50 41 82 36 22 37 24 14 25
-16 0 -37 -13 -58 -35z m-212 -290 c5 -14 13 -38 16 -53 7 -27 7 -27 -15 -8
-13 12 -21 31 -21 53 0 39 7 42 20 8z m40 -6 c0 -5 -4 -9 -8 -9 -5 0 -9 7 -9
15 0 8 4 12 9 9 4 -3 8 -9 8 -15z"/>
<path d="M375 1443 c4 -15 2 -23 -7 -23 -7 0 5 -9 26 -21 l39 -21 21 21 c18
19 18 21 3 21 -9 0 -17 -7 -17 -15 0 -8 -2 -15 -5 -15 -7 0 -41 35 -54 56 -11
17 -11 17 -6 -3z"/>
<path d="M1625 1440 c3 -5 11 -10 16 -10 6 0 7 5 4 10 -3 6 -11 10 -16 10 -6
0 -7 -4 -4 -10z"/>
<path d="M1820 1435 c-8 -9 -8 -15 -2 -15 12 0 26 19 19 26 -2 2 -10 -2 -17
-11z"/>
<path d="M547 1434 c-3 -4 -21 -10 -39 -14 l-33 -8 33 -1 c29 -1 32 -3 23 -20
-9 -15 -7 -20 11 -24 29 -8 47 4 21 14 -21 8 -24 23 -10 47 9 13 5 16 -6 6z"/>
<path d="M2026 1431 c-4 -5 12 -7 36 -4 57 8 61 13 10 13 -22 0 -43 -4 -46 -9z"/>
<path d="M1738 1413 c6 -2 18 -2 25 0 6 3 1 5 -13 5 -14 0 -19 -2 -12 -5z"/>
<path d="M280 1395 c-19 -23 -8 -25 14 -4 11 11 15 19 9 19 -6 0 -16 -7 -23
-15z"/>
<path d="M332 1393 c-6 -10 -13 -17 -16 -15 -3 1 -6 0 -6 -3 0 -3 0 -10 0 -17
0 -6 8 -4 19 6 15 13 20 14 24 4 2 -7 8 -10 12 -6 4 4 0 16 -8 28 -14 21 -16
21 -25 3z"/>
<path d="M2180 1406 c0 -2 9 -6 20 -9 11 -3 18 -1 14 4 -5 9 -34 13 -34 5z"/>
<path d="M1077 1393 c-4 -3 -26 -7 -50 -7 -35 -1 -43 -5 -45 -22 -2 -12 -14
-32 -28 -45 -13 -12 -24 -28 -24 -35 0 -15 -59 -46 -72 -38 -6 4 -5 -3 1 -14
9 -17 8 -23 -5 -30 -15 -8 -14 -10 2 -16 9 -4 22 -2 28 4 7 7 5 10 -5 10 -8 0
2 15 23 34 39 36 83 41 70 8 -5 -15 -4 -15 11 -3 21 16 13 31 -16 32 -12 0
-17 3 -10 5 7 3 9 12 6 20 -7 18 2 18 32 -2 14 -9 21 -22 18 -30 -3 -8 0 -14
6 -14 15 0 14 23 -4 46 -8 10 -14 28 -15 39 0 17 2 17 10 5 6 -10 10 -11 10
-2 0 6 5 12 10 12 6 0 10 -7 10 -15 0 -8 -5 -15 -11 -15 -6 0 -9 -5 -7 -12 5
-14 33 -15 62 -3 12 5 21 3 27 -6 14 -23 10 -41 -11 -46 -27 -7 -25 -23 3 -23
26 0 82 39 56 40 -9 0 -20 -7 -23 -16 -4 -9 -9 -14 -12 -11 -4 4 29 82 42 96
7 8 35 -31 31 -43 -4 -10 0 -12 14 -9 18 5 17 7 -9 38 -23 29 -35 36 -74 50
-5 1 -17 3 -29 4 -11 0 -17 6 -14 11 7 11 2 13 -8 3z m1 -28 c17 0 32 -3 32
-7 0 -4 9 -8 20 -8 24 0 25 -8 5 -34 -9 -12 -15 -15 -15 -7 0 10 -10 12 -36 8
-20 -3 -34 -3 -31 0 10 9 -13 43 -29 43 -8 0 -12 5 -9 10 4 7 11 7 18 2 7 -5
27 -8 45 -7z"/>
<path d="M1065 1351 c-3 -5 -1 -12 5 -16 5 -3 10 1 10 9 0 18 -6 21 -15 7z"/>
<path d="M1629 1377 c6 -8 7 -18 3 -23 -4 -5 -3 -5 2 -1 16 13 15 37 -1 37
-12 0 -13 -3 -4 -13z"/>
<path d="M2186 1353 c2 -21 3 -40 4 -43 0 -3 10 10 21 28 24 36 23 37 -7 46
-19 6 -21 3 -18 -31z"/>
<path d="M1963 1368 c-4 -7 -9 -29 -10 -48 -1 -28 0 -32 8 -17 6 10 8 23 6 30
-2 7 0 20 5 30 10 19 3 23 -9 5z"/>
<path d="M2103 1341 c-30 -31 -157 -266 -130 -241 8 8 35 54 60 102 24 47 59
105 76 127 38 47 34 54 -6 12z"/>
<path d="M283 1353 c4 -3 1 -13 -6 -22 -8 -9 -17 -24 -20 -33 -5 -14 0 -16 29
-14 19 2 38 7 42 11 4 5 1 5 -5 1 -18 -10 -16 9 2 28 8 8 15 18 15 23 -1 4
-11 -5 -24 -21 -13 -16 -29 -27 -36 -24 -9 3 -8 8 4 20 19 19 21 38 4 38 -6 0
-8 -3 -5 -7z"/>
<path d="M518 1343 c-38 -6 -35 -23 3 -23 17 0 28 4 24 10 -3 6 -1 10 6 10 6
0 9 -8 6 -20 -7 -25 5 -26 20 -1 10 16 9 20 -3 25 -9 3 -19 5 -22 5 -4 -1 -19
-4 -34 -6z"/>
<path d="M1771 1306 c-10 -11 -10 -19 -1 -33 9 -14 10 -14 7 -2 -3 9 0 22 6
28 6 6 8 13 5 16 -3 3 -11 -1 -17 -9z"/>
<path d="M1814 1308 c3 -12 0 -18 -9 -18 -8 0 -15 -4 -15 -10 0 -15 26 -12 40
5 7 9 21 13 31 10 11 -4 19 -2 19 3 0 6 -12 9 -27 7 -16 -1 -32 2 -36 9 -6 7
-7 4 -3 -6z"/>
<path d="M2115 1287 c-59 -63 -68 -81 -15 -30 30 29 52 54 49 57 -2 3 -18 -10
-34 -27z"/>
<path d="M460 1300 c20 -13 33 -13 25 0 -3 6 -14 10 -23 10 -15 0 -15 -2 -2
-10z"/>
<path d="M1906 1301 c-3 -5 1 -11 9 -15 8 -3 15 -1 15 4 0 13 -18 22 -24 11z"/>
<path d="M2157 1293 c-4 -3 -7 -11 -7 -17 0 -6 5 -5 12 2 6 6 9 14 7 17 -3 3
-9 2 -12 -2z"/>
<path d="M1055 1270 c-3 -5 -1 -10 4 -10 6 0 11 5 11 10 0 6 -2 10 -4 10 -3 0
-8 -4 -11 -10z"/>
<path d="M1230 1270 c-14 -9 -7 -15 15 -10 6 1 5 -4 -2 -11 -10 -10 -15 -10
-27 0 -11 10 -19 10 -33 1 -16 -9 -15 -10 6 -4 17 4 21 3 16 -6 -5 -9 -4 -11
3 -6 7 4 12 0 13 -11 0 -11 2 -13 6 -5 3 7 16 18 30 23 22 8 23 11 9 24 -17
18 -17 18 -36 5z"/>
<path d="M397 1238 c-4 -13 -2 -24 3 -26 6 -2 10 -10 10 -17 0 -8 4 -16 9 -20
18 -10 18 10 1 48 -16 36 -18 37 -23 15z"/>
<path d="M1795 1250 c3 -5 26 -9 50 -8 57 3 47 18 -11 18 -27 0 -43 -4 -39
-10z"/>
<path d="M2125 1250 c-3 -5 -1 -10 4 -10 6 0 11 5 11 10 0 6 -2 10 -4 10 -3 0
-8 -4 -11 -10z"/>
<path d="M355 1240 c3 -5 8 -10 11 -10 2 0 4 5 4 10 0 6 -5 10 -11 10 -5 0 -7
-4 -4 -10z"/>
<path d="M935 1230 c3 -5 11 -10 16 -10 6 0 7 5 4 10 -3 6 -11 10 -16 10 -6 0
-7 -4 -4 -10z"/>
<path d="M561 1218 c0 -10 -5 -18 -11 -18 -5 0 -10 -5 -10 -11 0 -5 5 -7 10
-4 6 3 10 -1 10 -9 0 -10 6 -13 15 -10 9 4 15 18 14 33 l-1 26 -8 -25 -7 -25
-5 30 c-3 17 -6 22 -7 13z"/>
<path d="M1830 1220 c-13 -8 -13 -10 2 -10 9 0 20 5 23 10 8 13 -5 13 -25 0z"/>
<path d="M2100 1220 c0 -5 5 -10 11 -10 5 0 7 5 4 10 -3 6 -8 10 -11 10 -2 0
-4 -4 -4 -10z"/>
<path d="M2410 1220 c0 -5 5 -10 11 -10 5 0 7 5 4 10 -3 6 -8 10 -11 10 -2 0
-4 -4 -4 -10z"/>
<path d="M2428 1187 c-57 -71 -58 -73 -43 -93 14 -18 14 -18 15 4 0 15 4 21
12 16 7 -4 8 -3 4 5 -4 6 -4 20 -1 31 5 16 9 18 25 7 15 -9 22 -9 32 1 10 10
8 16 -7 31 -20 19 -20 19 -37 -2z m22 -7 c0 -5 -5 -10 -11 -10 -5 0 -7 5 -4
10 3 6 8 10 11 10 2 0 4 -4 4 -10z"/>
<path d="M255 1168 c-19 -23 -23 -34 -14 -37 7 -2 15 1 17 8 2 6 9 8 15 4 7
-3 9 -2 4 2 -4 5 0 19 8 32 23 34 1 28 -30 -9z"/>
<path d="M2070 1185 c0 -8 4 -15 8 -15 5 0 9 7 9 15 0 8 -4 15 -9 15 -4 0 -8
-7 -8 -15z"/>
<path d="M84 1168 c-5 -8 -2 -9 10 -5 10 4 19 1 22 -8 4 -8 10 -15 15 -15 6 0
20 -9 32 -21 12 -11 35 -23 51 -26 17 -4 31 -14 34 -25 3 -12 10 -17 20 -13 8
3 21 0 28 -6 11 -9 14 -9 14 0 0 6 -9 15 -19 19 -11 4 -20 11 -20 16 0 5 -25
20 -55 32 -31 12 -68 32 -82 43 -31 24 -40 26 -50 9z"/>
<path d="M2030 1171 c0 -6 5 -13 10 -16 6 -3 10 1 10 9 0 9 -4 16 -10 16 -5 0
-10 -4 -10 -9z"/>
<path d="M435 1150 c3 -5 13 -10 21 -10 8 0 12 5 9 10 -3 6 -13 10 -21 10 -8
0 -12 -4 -9 -10z"/>
<path d="M490 1129 c-13 -24 -4 -41 10 -19 10 16 13 40 5 40 -2 0 -9 -9 -15
-21z"/>
<path d="M960 1132 c-12 -14 -11 -15 7 -10 15 4 20 2 17 -7 -5 -12 13 -31 21
-23 8 7 -7 47 -19 51 -6 2 -18 -2 -26 -11z"/>
<path d="M575 1130 c-3 -5 -1 -10 4 -10 6 0 11 5 11 10 0 6 -2 10 -4 10 -3 0
-8 -4 -11 -10z"/>
<path d="M1900 1130 c-8 -5 -11 -12 -8 -16 4 -3 14 1 23 10 18 17 9 21 -15 6z"/>
<path d="M123 1113 c9 -11 14 -23 10 -27 -5 -4 -1 -6 7 -4 9 2 15 -4 15 -14 0
-9 4 -20 9 -25 5 -4 6 -3 2 5 -4 6 -2 12 3 12 6 0 11 7 11 16 0 8 -4 13 -9 10
-5 -3 -11 1 -14 8 -3 8 -16 20 -29 27 -22 12 -23 11 -5 -8z"/>
<path d="M535 1120 c-3 -5 -2 -10 4 -10 5 0 13 5 16 10 3 6 2 10 -4 10 -5 0
-13 -4 -16 -10z"/>
<path d="M1732 1100 c0 -14 2 -19 5 -12 2 6 2 18 0 25 -3 6 -5 1 -5 -13z"/>
<path d="M2190 1107 c-8 -7 -24 -24 -35 -37 -18 -23 -17 -23 11 3 16 15 35 27
42 27 7 0 12 5 12 10 0 13 -12 12 -30 -3z"/>
<path d="M1770 1070 c12 -16 24 -30 26 -30 3 0 -4 14 -16 30 -12 17 -24 30
-26 30 -3 0 4 -13 16 -30z"/>
<path d="M2063 1072 c-31 -17 -31 -17 -16 -47 15 -28 15 -29 0 -16 -15 11 -18
10 -27 -13 -12 -33 -18 -33 -30 -1 l-10 26 -40 -21 c-27 -14 -42 -29 -46 -48
-10 -47 -11 -48 -19 -7 -13 70 -63 105 -99 69 -20 -19 -7 -49 26 -60 16 -5 27
-1 40 16 l18 22 0 -35 c0 -32 -3 -35 -34 -39 -41 -5 -56 0 -56 17 0 7 -7 18
-15 25 -13 11 -14 10 -9 -4 3 -9 1 -16 -5 -16 -6 0 -11 9 -11 21 0 24 -38 59
-56 52 -7 -2 -15 -12 -19 -21 -5 -14 -4 -15 6 -4 16 15 33 16 23 0 -5 -8 -2
-9 9 -5 12 4 17 1 17 -11 0 -10 7 -27 15 -38 8 -10 15 -27 15 -37 0 -23 42
-87 57 -87 6 0 25 11 41 25 17 14 33 25 36 25 3 0 14 -17 25 -37 11 -21 20
-32 21 -25 0 7 4 11 9 8 5 -3 14 1 20 8 8 9 8 16 2 20 -5 4 -12 2 -16 -4 -3
-5 -11 -10 -16 -10 -5 0 -2 12 8 26 17 27 17 27 -4 16 -19 -10 -24 -8 -42 16
-20 26 -20 26 -21 5 0 -13 -6 -23 -14 -23 -8 0 -16 -7 -20 -15 -3 -8 -15 -15
-27 -15 -18 0 -19 2 -9 15 11 13 10 15 -6 9 -18 -5 -18 -4 1 10 11 9 27 22 35
29 24 20 49 27 56 16 4 -6 11 -5 21 3 9 7 19 12 22 10 3 -2 7 2 10 9 2 6 -1 9
-7 5 -6 -3 -13 -2 -16 3 -7 10 13 9 31 -2 9 -5 9 0 3 23 -5 17 -5 28 0 25 4
-3 10 1 13 7 3 7 5 4 5 -7 -1 -11 2 -27 6 -36 4 -9 1 -21 -7 -27 -11 -10 -12
-19 -3 -47 12 -40 28 -44 50 -14 19 28 0 51 -35 42 -23 -6 -23 -6 -6 14 12 14
16 30 12 54 l-5 34 13 -29 14 -29 22 22 c11 11 28 21 37 21 11 0 14 6 8 22 -6
21 -5 22 11 8 17 -14 18 -13 12 3 -4 10 -7 21 -7 23 0 3 -4 3 -9 -1 -5 -3 -13
0 -17 6 -4 8 -3 9 4 5 7 -4 12 -1 12 6 1 7 9 -2 19 -20 15 -28 19 -31 29 -19
10 11 10 21 1 41 -14 30 -14 30 -56 8z m57 -34 c0 -4 -4 -8 -10 -8 -5 0 -10 4
-10 9 0 5 -3 18 -6 28 -5 16 -4 16 10 -1 9 -11 16 -23 16 -28z m-294 -54 c-30
-21 -44 -16 -17 7 13 11 27 17 30 13 3 -3 -3 -12 -13 -20z m99 -14 c3 -5 1
-10 -4 -10 -6 0 -11 5 -11 10 0 6 2 10 4 10 3 0 8 -4 11 -10z m-145 -94 c-7
-7 -14 -6 -22 2 -10 10 -10 15 2 22 17 11 34 -10 20 -24z"/>
<path d="M2181 1063 c-13 -36 -30 -57 -58 -72 -13 -6 -23 -16 -23 -22 0 -17
59 33 85 73 27 41 30 48 16 48 -5 0 -14 -12 -20 -27z"/>
<path d="M2211 1042 c-13 -20 -43 -52 -67 -71 -24 -18 -44 -37 -44 -42 0 -5
-6 -9 -12 -9 -15 0 -52 -38 -61 -62 -3 -10 -12 -18 -20 -18 -21 0 -59 -46 -55
-66 1 -10 16 -21 32 -25 34 -9 96 25 96 54 0 10 -3 16 -7 14 -5 -3 -8 7 -9 22
-1 25 6 30 60 52 34 13 66 24 72 24 17 0 45 26 39 35 -6 9 13 25 21 18 2 -3
-10 -31 -27 -62 -36 -68 -33 -87 4 -24 26 45 39 100 30 124 -5 13 -8 12 -24
-2 -11 -10 -19 -12 -19 -6 0 6 11 19 25 28 14 9 25 21 25 27 0 6 -11 0 -25
-13 -27 -26 -35 -17 -9 11 8 9 11 19 7 22 -5 3 -19 -11 -32 -31z m2 -43 c-6
-20 -132 -123 -141 -114 -6 6 34 41 70 60 14 8 36 28 48 45 25 35 30 37 23 9z
m22 -29 c-10 -11 -34 -29 -54 -40 -33 -18 -31 -16 14 24 49 44 75 54 40 16z
m-207 -169 c11 -30 7 -41 -14 -41 -13 0 -28 46 -19 60 11 18 23 11 33 -19z
m17 19 c3 -5 1 -10 -4 -10 -6 0 -11 5 -11 10 0 6 2 10 4 10 3 0 8 -4 11 -10z"/>
<path d="M1832 1045 c20 -14 41 -32 46 -41 8 -15 10 -15 15 0 4 11 -6 23 -37
41 -55 32 -72 32 -24 0z"/>
<path d="M1680 1058 c0 -2 13 -16 28 -31 17 -16 29 -22 29 -14 0 7 -6 18 -14
25 -7 7 -13 10 -13 6 0 -3 -7 -1 -15 6 -8 7 -15 10 -15 8z"/>
<path d="M1924 1040 c2 -16 20 -14 24 2 3 10 2 10 -6 -1 -7 -9 -11 -10 -15 -2
-4 7 -5 8 -3 1z"/>
<path d="M2010 1036 c0 -9 5 -16 10 -16 6 0 10 4 10 9 0 6 -4 13 -10 16 -5 3
-10 -1 -10 -9z"/>
<path d="M181 1033 c0 -4 4 -17 9 -28 8 -19 9 -19 9 2 1 12 -3 25 -9 28 -5 3
-10 3 -9 -2z"/>
<path d="M358 1033 c6 -2 18 -2 25 0 6 3 1 5 -13 5 -14 0 -19 -2 -12 -5z"/>
<path d="M1030 1030 c0 -5 4 -10 10 -10 5 0 16 -12 24 -27 8 -16 15 -22 16
-15 0 7 -7 24 -16 37 -17 25 -34 33 -34 15z"/>
<path d="M1110 1031 c0 -6 4 -13 10 -16 6 -3 7 1 4 9 -7 18 -14 21 -14 7z"/>
<path d="M1580 1026 c0 -2 7 -9 15 -16 13 -11 14 -10 9 4 -5 14 -24 23 -24 12z"/>
<path d="M848 975 c-35 -47 -75 -130 -71 -144 3 -7 19 13 37 47 17 33 39 74
49 91 21 37 10 41 -15 6z"/>
<path d="M1103 985 c0 -8 4 -15 9 -15 4 0 8 7 8 15 0 8 -4 15 -8 15 -5 0 -9
-7 -9 -15z"/>
<path d="M1190 985 c0 -6 9 -16 20 -23 11 -7 20 -21 20 -32 0 -11 6 -19 13
-17 6 1 11 -4 9 -11 -1 -8 2 -11 7 -8 5 4 11 2 13 -3 1 -5 17 -13 33 -16 29
-7 28 -6 -11 22 -22 15 -55 44 -72 63 -17 19 -32 30 -32 25z"/>
<path d="M2059 959 c-33 -36 -43 -59 -25 -59 15 0 37 23 40 42 1 7 5 19 10 26
15 25 1 20 -25 -9z"/>
<path d="M253 955 c0 -8 4 -15 8 -15 4 0 9 7 13 15 3 9 0 15 -8 15 -7 0 -13
-7 -13 -15z"/>
<path d="M960 961 c0 -5 15 -9 34 -8 19 1 32 5 29 10 -6 10 -63 9 -63 -2z"/>
<path d="M1677 956 c-4 -10 -5 -21 -2 -24 9 -9 17 6 13 25 -3 17 -4 17 -11 -1z"/>
<path d="M2290 955 c-1 -5 -1 -18 0 -28 3 -35 -34 -113 -88 -185 -30 -40 -62
-76 -71 -81 -9 -5 -13 -12 -9 -16 7 -7 148 150 148 165 0 6 9 29 20 53 15 32
18 49 11 72 -5 17 -10 26 -11 20z"/>
<path d="M1780 940 c0 -5 5 -10 11 -10 5 0 7 5 4 10 -3 6 -8 10 -11 10 -2 0
-4 -4 -4 -10z"/>
<path d="M1830 940 c0 -5 5 -10 10 -10 6 0 10 5 10 10 0 6 -4 10 -10 10 -5 0
-10 -4 -10 -10z"/>
<path d="M226 923 c-4 -9 -2 -21 4 -27 7 -7 10 -2 10 17 0 31 -5 34 -14 10z"/>
<path d="M762 895 c-12 -14 -18 -25 -13 -25 5 0 16 11 25 25 9 14 15 25 13 25
-2 0 -13 -11 -25 -25z"/>
<path d="M2460 911 c0 -5 5 -13 10 -16 6 -3 10 -2 10 4 0 5 -4 13 -10 16 -5 3
-10 2 -10 -4z"/>
<path d="M1186 902 c-3 -5 -3 -33 -1 -62 3 -52 5 -56 53 -90 27 -19 60 -48 74
-65 l26 -29 38 29 c22 16 58 47 82 69 45 41 57 39 20 -3 -13 -14 -6 -10 15 9
21 19 43 44 49 55 9 17 7 16 -16 -4 -14 -14 -26 -20 -26 -14 0 5 -6 10 -14 10
-8 0 -15 -3 -14 -6 2 -22 -7 -32 -47 -51 -26 -13 -54 -19 -67 -16 l-23 6 23
-11 c12 -7 22 -16 22 -21 0 -5 -4 -6 -10 -3 -5 3 -10 1 -10 -4 0 -6 -5 -11
-11 -11 -16 0 -39 26 -31 35 4 5 2 5 -4 2 -6 -4 -20 3 -30 14 -16 18 -16 19
-1 13 10 -4 17 -1 17 6 0 8 -9 11 -24 8 -19 -4 -23 -1 -18 11 3 9 2 13 -3 9
-12 -11 -42 9 -48 32 -3 11 -1 20 4 20 13 0 81 -37 88 -48 11 -17 48 -23 48
-8 0 8 -8 13 -19 11 -10 -2 -16 0 -13 4 6 10 -26 32 -75 51 -48 18 -55 26 -40
45 8 9 8 15 2 15 -6 0 -13 -4 -16 -8z"/>
<path d="M2182 888 c-6 -6 -22 -13 -34 -15 -13 -2 -30 -10 -38 -19 -13 -13
-13 -14 5 -11 38 7 72 25 78 41 8 19 5 20 -11 4z"/>
<path d="M1901 874 c0 -11 3 -14 6 -6 3 7 2 16 -1 19 -3 4 -6 -2 -5 -13z"/>
<path d="M2243 867 c-12 -26 -137 -124 -209 -164 -42 -24 -64 -43 -47 -43 4 0
23 9 41 20 18 11 37 18 42 15 12 -7 40 5 40 18 0 7 -4 7 -12 -1 -14 -14 -32
-16 -24 -3 4 5 44 34 90 65 59 39 86 63 90 82 9 34 2 40 -11 11z"/>
<path d="M1113 862 c10 -10 14 -22 10 -27 -5 -4 -2 -5 4 -1 10 5 10 11 0 26
-6 11 -16 20 -21 20 -5 0 -2 -8 7 -18z"/>
<path d="M1342 863 c2 -10 9 -17 15 -16 7 2 15 -6 18 -17 7 -22 13 -24 35 -10
13 8 12 10 -2 10 -10 0 -18 5 -18 10 0 17 53 11 87 -10 21 -12 35 -15 39 -9 3
6 4 11 3 13 -11 8 -90 26 -113 26 -15 0 -36 5 -48 11 -17 9 -19 8 -16 -8z"/>
<path d="M1656 847 l-38 -35 57 -17 c31 -9 66 -15 76 -13 17 3 18 5 5 30 -8
15 -12 29 -9 32 3 2 -4 2 -14 0 -13 -4 -22 2 -29 16 -9 21 -10 21 -48 -13z
m59 -19 c5 4 5 1 1 -6 -8 -14 -37 -12 -48 3 -11 16 16 26 28 10 6 -8 15 -11
19 -7z"/>
<path d="M2307 852 c3 -12 9 -25 14 -28 14 -8 11 10 -6 32 -13 18 -14 18 -8
-4z"/>
<path d="M2422 783 c-40 -86 -43 -119 -40 -348 4 -257 3 -268 -11 -282 -10
-11 -17 -11 -25 -3 -8 8 -7 13 4 20 11 7 12 13 2 35 -7 15 -8 24 -2 20 5 -3
10 -1 10 4 0 6 -6 11 -12 12 -62 4 -121 24 -143 49 -10 11 -24 20 -31 20 -7 0
-29 14 -49 31 -36 32 -121 64 -130 49 -3 -4 -14 -6 -24 -3 -22 5 -138 -43
-128 -54 4 -3 13 0 22 7 8 7 15 10 15 6 0 -4 15 1 33 11 17 9 42 16 54 14 11
-1 24 2 28 8 3 7 13 7 23 2 9 -5 30 -13 47 -18 17 -4 39 -23 50 -40 15 -24 28
-32 49 -33 22 0 26 -3 18 -13 -8 -9 -6 -16 8 -25 16 -10 18 -9 14 3 -8 21 96
-19 119 -46 23 -28 22 -36 -8 -43 -19 -5 -41 4 -89 34 -35 22 -67 40 -72 40
-5 0 -22 22 -37 50 -18 32 -37 52 -53 56 -74 19 -225 -23 -239 -66 -3 -11 -11
-19 -18 -17 -6 1 -11 -8 -12 -20 0 -27 -11 -27 -42 -3 -28 22 -29 52 -3 105
21 43 26 80 10 70 -5 -3 -14 -4 -20 0 -14 9 0 35 19 35 9 0 23 5 31 11 12 8
10 9 -10 5 -40 -8 -49 4 -48 69 1 33 -2 70 -6 82 -4 13 -2 32 6 45 13 25 38
91 35 94 -1 1 -17 5 -36 9 l-34 7 22 -23 c11 -12 21 -26 21 -31 0 -4 -36 -8
-81 -8 -51 0 -78 4 -74 10 3 6 4 10 1 10 -3 0 -21 -24 -39 -52 -60 -94 -156
-198 -183 -198 -17 0 -22 4 -18 15 4 9 -1 17 -10 20 -41 13 -47 14 -52 14 -4
0 -10 3 -13 8 -3 4 -28 19 -56 33 -27 13 -69 40 -92 60 -145 124 -164 136
-192 120 -45 -24 -112 -10 -159 34 -19 16 -22 17 -17 3 14 -36 74 -60 151 -62
57 -1 78 -6 96 -21 52 -44 51 -42 31 -74 -9 -16 -22 -30 -29 -30 -19 0 -79
-54 -82 -75 -3 -19 -3 -19 12 1 9 12 35 33 59 48 24 14 52 37 61 51 15 23 46
35 46 17 0 -4 -27 -33 -60 -65 -33 -31 -60 -61 -60 -67 0 -5 -14 -10 -30 -10
-26 0 -29 -2 -18 -14 11 -11 16 -11 34 0 11 8 24 11 28 7 4 -4 4 0 0 10 -4 12
1 20 17 26 13 6 17 10 9 11 -13 0 -13 2 0 9 8 6 18 7 24 4 5 -3 6 -1 2 5 -3 6
2 13 13 17 11 3 22 12 25 20 8 22 34 18 68 -10 16 -14 36 -25 44 -25 8 0 27
-11 42 -25 15 -14 33 -23 40 -20 8 3 10 0 6 -6 -4 -7 0 -9 12 -5 11 3 26 1 34
-5 13 -9 12 -10 -2 -5 -10 3 -18 2 -18 -3 0 -4 17 -13 39 -19 38 -12 39 -12
85 33 25 25 46 50 46 55 0 5 8 15 18 22 10 7 33 37 51 66 l33 52 47 -4 c25 -2
56 -4 69 -5 13 -1 20 -5 17 -11 -4 -6 -10 -8 -14 -6 -4 3 -7 -10 -7 -29 1 -18
4 -31 7 -30 3 2 5 -26 4 -63 -1 -37 1 -71 4 -77 5 -9 9 -43 13 -95 0 -8 -3
-40 -7 -70 -6 -50 -5 -58 17 -81 26 -28 58 -44 58 -28 0 21 35 3 57 -29 13
-18 23 -36 23 -41 0 -6 62 -99 87 -130 2 -2 5 -2 8 1 3 3 -18 43 -46 89 -29
46 -59 95 -68 109 -27 45 -7 105 33 95 12 -3 15 -2 8 1 -17 8 -5 24 19 24 10
0 29 6 40 12 19 12 26 7 76 -47 81 -88 102 -124 114 -195 11 -72 34 -122 25
-55 -3 22 -8 51 -11 65 -11 49 -23 125 -20 128 2 2 11 -5 21 -16 11 -10 37
-24 59 -30 49 -14 72 -29 62 -38 -3 -4 -13 -1 -21 6 -9 6 -21 10 -27 8 -6 -2
1 -12 16 -22 26 -17 27 -17 46 3 18 19 20 19 50 3 30 -17 31 -18 26 -79 -3
-35 -1 -63 4 -63 5 0 10 6 10 13 1 6 3 33 5 59 2 26 8 57 14 68 9 18 14 249 7
360 -2 19 0 40 3 45 3 6 5 19 5 30 0 11 5 26 9 34 6 9 5 12 -2 7 -14 -8 -12
34 2 53 8 11 8 13 -1 7 -20 -11 -16 29 6 72 20 40 43 112 35 112 -3 0 -22 -35
-42 -77z m-396 -451 c-3 -5 4 -15 15 -22 10 -8 19 -19 19 -24 0 -5 -11 1 -25
14 -21 20 -25 40 -9 40 3 0 3 -4 0 -8z m57 -20 c-2 -7 2 -12 8 -12 6 0 9 -9 6
-20 -3 -11 -1 -18 3 -15 13 8 28 -25 22 -47 -4 -16 -8 -14 -28 14 -13 17 -24
41 -24 53 0 12 -6 27 -12 34 -11 10 -9 12 7 9 11 -2 19 -10 18 -16z"/>
<path d="M195 801 c0 -24 4 -38 13 -38 9 0 11 9 6 31 -9 47 -19 50 -19 7z"/>
<path d="M927 828 c7 -8 10 -18 6 -22 -4 -3 12 -14 35 -23 23 -9 42 -19 42
-23 0 -8 18 -17 60 -30 18 -5 30 -3 40 8 13 14 12 15 -4 9 -10 -4 -24 -3 -30
1 -6 5 -24 12 -39 16 -16 4 -33 17 -39 31 -6 14 -17 26 -25 26 -22 2 -27 4
-43 14 -12 7 -13 6 -3 -7z"/>
<path d="M1570 821 c-6 -12 -7 -21 -1 -21 10 0 24 30 17 37 -2 3 -9 -5 -16
-16z"/>
<path d="M2130 821 c-8 -6 -18 -7 -24 -4 -5 4 -6 1 -1 -7 4 -7 2 -16 -6 -21
-8 -5 -9 -9 -4 -9 6 0 24 11 40 25 29 23 26 35 -5 16z"/>
<path d="M2271 793 c-29 -55 -122 -153 -150 -158 -13 -2 -40 -10 -59 -16 -32
-10 -37 -9 -52 11 -9 12 -23 21 -31 18 -10 -3 -8 -9 9 -23 12 -11 22 -27 22
-36 0 -9 12 -21 26 -27 15 -7 22 -17 18 -24 -5 -7 -3 -8 5 -4 8 5 14 0 18 -14
3 -12 11 -19 19 -16 7 3 20 -1 28 -9 8 -8 24 -15 34 -15 11 0 22 -5 24 -12 3
-8 6 -9 11 -1 4 6 -11 19 -37 32 -47 22 -116 77 -116 92 0 5 10 9 23 9 47 1
106 38 159 103 56 69 69 78 45 30 -25 -47 -88 -114 -136 -145 -49 -30 -41 -37
16 -13 19 8 44 15 55 15 11 0 36 16 55 35 32 32 34 37 32 97 -1 35 1 73 5 86
11 34 -1 26 -23 -15z m-2 -99 c-9 -11 -9 -18 -2 -22 8 -5 5 -15 -8 -31 -10
-13 -19 -20 -19 -16 0 4 -10 1 -22 -7 -57 -36 -57 -24 -3 31 59 58 80 76 54
45z"/>
<path d="M1103 801 c1 -12 6 -20 12 -18 14 5 13 29 -2 34 -7 3 -11 -4 -10 -16z"/>
<path d="M1156 795 c3 -11 7 -25 7 -32 0 -7 7 -15 15 -18 13 -5 12 -8 -2 -18
-16 -12 -14 -13 16 -9 23 2 38 -2 47 -12 9 -11 10 -16 2 -16 -6 0 -11 5 -11
10 0 6 -5 10 -12 10 -6 0 -3 -8 7 -20 21 -23 34 -18 32 12 -1 13 -17 31 -44
47 -23 14 -47 34 -53 46 -10 19 -10 19 -4 0z"/>
<path d="M1600 800 c0 -5 -7 -10 -17 -10 -9 0 -14 -3 -10 -6 10 -11 -31 -47
-44 -39 -8 5 -10 4 -5 -4 7 -11 -47 -84 -107 -143 -33 -34 -41 -35 -32 -7 6
19 5 20 -7 9 -8 -8 -15 -21 -15 -31 -1 -15 2 -16 27 -7 27 9 64 45 135 132 17
21 42 50 58 67 24 26 35 49 22 49 -3 0 -5 -4 -5 -10z"/>
<path d="M1783 785 c-3 -9 2 -35 11 -59 19 -51 87 -156 100 -156 23 0 175
-122 224 -180 60 -71 100 -100 136 -100 14 0 26 -3 29 -7 2 -5 2 -3 1 4 -2 7
3 10 10 7 7 -3 19 2 26 11 7 8 19 15 26 15 8 0 14 9 14 20 0 18 -1 18 -25 -4
-24 -22 -66 -36 -104 -36 -11 1 -8 5 9 15 l25 15 -28 -6 c-24 -5 -34 1 -75 42
-26 27 -62 66 -80 87 -17 20 -51 50 -75 65 -27 17 -42 33 -40 42 3 10 2 11 -4
3 -6 -8 -19 -2 -46 21 -20 17 -37 37 -37 43 0 6 -14 26 -31 44 -17 18 -32 41
-34 50 -2 10 -9 28 -15 40 -10 17 -9 23 1 30 11 7 11 9 1 9 -7 0 -15 -7 -19
-15z"/>
<path d="M687 783 c-4 -3 -7 -11 -7 -17 0 -6 5 -5 12 2 6 6 9 14 7 17 -3 3 -9
2 -12 -2z"/>
<path d="M1540 775 c-7 -9 -8 -15 -2 -15 5 0 12 7 16 15 3 8 4 15 2 15 -2 0
-9 -7 -16 -15z"/>
<path d="M1640 780 c34 -11 60 -11 35 0 -11 5 -29 8 -40 8 -16 0 -15 -2 5 -8z"/>
<path d="M1910 763 c0 -8 5 -13 12 -11 18 6 21 25 3 25 -8 0 -15 -7 -15 -14z"/>
<path d="M229 755 c-15 -8 -30 -26 -33 -41 -9 -34 -1 -41 20 -19 13 13 14 19
5 24 -9 6 -4 14 16 29 32 25 29 27 -8 7z"/>
<path d="M1350 760 c-13 -8 -13 -10 2 -10 9 0 20 5 23 10 8 13 -5 13 -25 0z"/>
<path d="M2049 743 c-13 -16 -12 -17 4 -4 9 7 17 15 17 17 0 8 -8 3 -21 -13z"/>
<path d="M1832 735 c3 -16 12 -21 53 -23 37 -2 55 -9 68 -25 10 -12 16 -16 12
-9 -4 7 3 15 16 20 15 6 19 11 11 16 -7 4 -10 12 -7 17 4 5 2 9 -4 9 -5 0 -13
-4 -16 -10 -3 -5 -1 -10 5 -10 6 0 8 -5 5 -10 -4 -7 -13 -6 -26 1 -16 8 -18
13 -8 25 10 12 9 13 -5 8 -9 -3 -16 -11 -16 -16 0 -15 -71 -2 -82 14 -6 9 -8
7 -6 -7z"/>
<path d="M2155 719 c-4 -6 -14 -8 -22 -5 -8 3 -12 2 -9 -3 8 -12 -24 -38 -57
-46 -15 -4 -26 -10 -23 -12 10 -11 74 19 101 47 16 17 26 30 22 30 -3 0 -9 -5
-12 -11z"/>
<path d="M273 696 c-25 -12 -31 -26 -10 -26 17 1 50 27 40 32 -4 2 -18 0 -30
-6z"/>
<path d="M333 703 c9 -2 23 -2 30 0 6 3 -1 5 -18 5 -16 0 -22 -2 -12 -5z"/>
<path d="M775 700 c-3 -5 -1 -10 4 -10 6 0 11 5 11 10 0 6 -2 10 -4 10 -3 0
-8 -4 -11 -10z"/>
<path d="M890 700 c-13 -9 -13 -10 0 -9 8 1 26 5 40 9 l25 8 -25 1 c-14 0 -32
-4 -40 -9z"/>
<path d="M1435 690 c-61 -40 -68 -45 -93 -67 -14 -13 -22 -23 -19 -23 10 0
122 77 136 94 18 21 12 20 -24 -4z"/>
<path d="M1278 690 c20 -23 15 -42 -10 -35 -16 4 -19 3 -9 -3 14 -10 -2 -28
-17 -18 -4 2 -14 0 -22 -6 -12 -8 -12 -9 3 -4 9 3 17 1 17 -4 0 -6 7 -10 16
-10 8 0 12 5 8 11 -4 8 1 9 16 4 18 -6 22 -4 17 8 -3 8 -1 19 4 24 6 6 1 17
-13 28 -13 11 -17 13 -10 5z"/>
<path d="M925 670 c-7 -12 2 -12 30 0 19 8 19 9 -2 9 -12 1 -25 -3 -28 -9z"/>
<path d="M1760 667 c0 -15 37 -53 44 -46 2 2 -7 17 -20 32 -14 16 -24 22 -24
14z"/>
<path d="M868 653 c7 -3 16 -2 19 1 4 3 -2 6 -13 5 -11 0 -14 -3 -6 -6z"/>
<path d="M1754 610 c0 -10 4 -16 9 -13 4 3 22 -1 38 -7 16 -7 32 -10 36 -7 3
4 -3 9 -13 13 -10 3 -30 12 -44 19 -23 12 -26 12 -26 -5z"/>
<path d="M2235 581 c-22 -15 -56 -32 -75 -38 l-35 -11 36 -1 c35 -1 94 33 112
64 11 20 9 19 -38 -14z"/>
<path d="M179 553 c-7 -21 -14 -51 -16 -67 -2 -24 -1 -26 11 -16 8 6 12 18 9
25 -2 8 1 30 7 50 7 20 10 39 7 41 -3 3 -11 -12 -18 -33z"/>
<path d="M1319 556 c29 -31 35 -33 22 -7 -6 10 -18 22 -28 25 -13 5 -11 1 6
-18z"/>
<path d="M1750 562 c0 -20 27 -31 89 -34 56 -2 66 -6 89 -33 13 -16 34 -31 46
-31 12 -1 30 -5 41 -9 20 -7 20 -6 1 9 -11 9 -28 16 -38 16 -11 0 -15 5 -12
15 4 9 -3 16 -20 21 -14 3 -26 12 -26 19 0 7 -7 16 -16 19 -28 11 -37 7 -23
-10 11 -13 9 -15 -12 -10 -13 3 -39 7 -57 10 -18 2 -40 10 -48 16 -8 7 -14 8
-14 2z"/>
<path d="M570 550 c0 -5 5 -10 11 -10 5 0 7 5 4 10 -3 6 -8 10 -11 10 -2 0 -4
-4 -4 -10z"/>
<path d="M212 515 c0 -16 2 -22 5 -12 2 9 2 23 0 30 -3 6 -5 -1 -5 -18z"/>
<path d="M505 520 c2 -27 10 -33 12 -10 1 11 -2 22 -6 24 -4 3 -7 -4 -6 -14z"/>
<path d="M955 530 c-3 -5 -2 -10 4 -10 5 0 13 5 16 10 3 6 2 10 -4 10 -5 0
-13 -4 -16 -10z"/>
<path d="M541 514 c0 -11 3 -14 6 -6 3 7 2 16 -1 19 -3 4 -6 -2 -5 -13z"/>
<path d="M1360 520 c0 -15 21 -23 32 -12 6 6 2 11 -11 15 -12 3 -21 1 -21 -3z"/>
<path d="M481 508 c-1 -10 -4 -18 -8 -18 -5 0 -13 -11 -19 -23 -11 -25 0 -29
39 -12 9 4 24 5 32 1 9 -3 15 0 15 9 0 10 -10 12 -36 9 -32 -4 -35 -3 -25 10
7 9 11 21 8 28 -4 8 -6 7 -6 -4z"/>
<path d="M2305 510 c-7 -12 12 -12 40 0 18 8 17 9 -7 9 -15 1 -30 -3 -33 -9z"/>
<path d="M2272 493 c-6 -10 -13 -17 -16 -15 -19 8 -26 1 -16 -17 14 -27 13
-31 -7 -31 -13 -1 -9 -5 10 -16 16 -9 26 -18 23 -21 -8 -9 -58 12 -106 45 -25
17 -46 29 -48 28 -7 -7 11 -35 19 -30 9 5 67 -30 80 -48 3 -5 23 -12 44 -15
33 -5 37 -4 32 10 -4 10 -2 17 3 17 6 0 10 10 10 22 0 17 -3 19 -12 10 -17
-17 -29 -15 -22 3 4 8 1 15 -5 15 -6 0 -11 5 -11 11 0 6 7 9 14 6 9 -4 17 2
21 14 9 27 0 35 -13 12z"/>
<path d="M2335 489 c-4 -6 -14 -8 -24 -4 -13 5 -14 4 -3 -6 10 -11 15 -10 29
4 10 9 14 17 11 17 -4 0 -10 -5 -13 -11z"/>
<path d="M1825 480 c-4 -6 8 -10 29 -10 20 0 36 5 36 10 0 6 -13 10 -29 10
-17 0 -33 -4 -36 -10z"/>
<path d="M2352 460 c0 -14 2 -19 5 -12 2 6 2 18 0 25 -3 6 -5 1 -5 -13z"/>
<path d="M1888 462 c-16 -2 -28 -7 -28 -11 0 -5 12 -6 26 -3 19 3 25 1 20 -7
-4 -6 -12 -9 -17 -6 -5 4 -9 1 -9 -4 0 -6 7 -11 15 -11 8 0 15 4 15 9 0 5 6
11 14 13 25 6 -7 23 -36 20z"/>
<path d="M196 444 c-5 -14 -4 -15 9 -4 17 14 19 20 6 20 -5 0 -12 -7 -15 -16z"/>
<path d="M1980 450 c0 -5 5 -10 11 -10 5 0 7 5 4 10 -3 6 -8 10 -11 10 -2 0
-4 -4 -4 -10z"/>
<path d="M153 407 c-1 -26 0 -28 7 -12 11 26 12 45 3 45 -5 0 -9 -15 -10 -33z"/>
<path d="M566 431 c-3 -5 1 -11 9 -14 9 -4 12 -1 8 9 -6 16 -10 17 -17 5z"/>
<path d="M946 425 c4 -8 11 -15 16 -15 6 0 5 6 -2 15 -7 8 -14 15 -16 15 -2 0
-1 -7 2 -15z"/>
<path d="M462 414 c-7 -8 -8 -14 -3 -14 10 0 25 19 20 25 -2 1 -10 -3 -17 -11z"/>
<path d="M496 422 c-10 -17 -15 -62 -5 -57 5 4 6 11 3 17 -5 8 1 9 17 5 22 -6
23 -5 5 8 -10 7 -15 18 -11 24 3 6 4 11 1 11 -3 0 -7 -4 -10 -8z"/>
<path d="M520 423 c0 -11 25 -35 50 -48 8 -4 6 1 -5 11 -11 10 -26 25 -32 33
-7 8 -13 10 -13 4z"/>
<path d="M780 420 c0 -5 5 -10 11 -10 5 0 7 5 4 10 -3 6 -8 10 -11 10 -2 0 -4
-4 -4 -10z"/>
<path d="M1000 423 c0 -5 21 -23 46 -42 24 -19 42 -36 40 -39 -3 -2 -24 10
-48 27 -38 28 -43 30 -50 14 -4 -12 -7 -13 -7 -4 -1 8 -4 12 -7 8 -3 -3 -3
-11 1 -17 5 -8 10 -8 20 0 20 17 39 2 24 -17 -11 -12 -10 -14 6 -11 10 1 20
-3 22 -9 3 -7 -2 -13 -10 -13 -8 0 -17 -7 -21 -15 -7 -18 -32 -20 -40 -2 -4 8
-5 7 -5 -3 2 -29 -1 -43 -8 -37 -7 8 -93 -73 -93 -87 0 -5 10 0 23 12 31 29
46 28 19 -1 -12 -13 -19 -27 -15 -31 5 -4 -5 -18 -22 -32 -26 -21 -27 -23 -6
-17 14 4 26 1 32 -8 6 -9 9 0 9 28 0 23 5 45 12 49 7 5 9 2 5 -8 -4 -11 0 -15
11 -14 9 2 17 9 17 17 0 8 10 14 24 14 14 0 27 7 29 14 3 10 0 12 -12 8 -10
-4 -15 -3 -11 3 11 18 -8 11 -32 -12 -13 -12 -23 -16 -23 -10 0 6 5 14 10 17
6 4 8 10 5 14 -5 8 77 71 92 71 4 -1 -5 -12 -22 -26 -16 -15 -23 -23 -15 -19
26 14 50 37 45 46 -3 4 8 17 25 29 l30 21 54 -58 c30 -32 85 -108 123 -170 37
-62 71 -112 76 -113 17 -1 5 36 -28 81 -22 31 -30 49 -22 53 7 2 6 5 -4 5 -9
1 -24 17 -35 38 -10 20 -29 47 -42 60 -13 13 -20 28 -16 35 4 6 3 8 -4 4 -6
-3 -25 11 -44 32 -18 21 -41 42 -51 45 -11 4 -15 12 -11 18 4 8 3 9 -4 5 -6
-3 -16 3 -22 15 -7 11 -14 18 -18 15 -3 -3 -16 1 -29 9 -13 9 -23 12 -23 8z"/>
<path d="M2333 415 c-3 -9 -3 -18 -1 -21 3 -3 8 4 11 16 6 23 -1 27 -10 5z"/>
<path d="M205 410 c-3 -5 -1 -10 4 -10 6 0 11 5 11 10 0 6 -2 10 -4 10 -3 0
-8 -4 -11 -10z"/>
<path d="M2130 415 c0 -2 10 -10 23 -16 20 -11 21 -11 8 4 -13 16 -31 23 -31
12z"/>
<path d="M762 394 c10 -10 20 -16 22 -13 3 3 -5 11 -17 18 -21 13 -21 12 -5
-5z"/>
<path d="M285 380 c3 -5 1 -10 -5 -10 -6 0 -8 -5 -4 -11 4 -8 9 -7 15 2 12 19
11 29 -2 29 -5 0 -7 -4 -4 -10z"/>
<path d="M436 381 c-5 -7 -3 -18 3 -24 14 -14 20 -6 11 17 -5 15 -9 16 -14 7z"/>
<path d="M200 370 c0 -5 5 -10 11 -10 5 0 7 5 4 10 -3 6 -8 10 -11 10 -2 0 -4
-4 -4 -10z"/>
<path d="M2314 358 l-19 -23 23 19 c21 18 27 26 19 26 -2 0 -12 -10 -23 -22z"/>
<path d="M545 360 c3 -5 11 -10 16 -10 6 0 7 5 4 10 -3 6 -11 10 -16 10 -6 0
-7 -4 -4 -10z"/>
<path d="M2195 357 c22 -18 65 -23 65 -7 0 6 -8 10 -17 10 -10 0 -29 3 -43 6
-24 6 -25 6 -5 -9z"/>
<path d="M141 353 c0 -6 -10 -15 -22 -18 -26 -9 -16 -18 39 -35 23 -7 42 -16
42 -19 0 -11 62 -31 73 -24 6 3 7 1 4 -5 -10 -15 86 -26 112 -12 17 9 21 8 21
-4 0 -20 -34 -29 -103 -29 -66 1 -186 31 -188 47 -1 6 -2 20 -3 30 -1 26 -26
33 -26 7 0 -11 -8 -36 -17 -56 -16 -33 -16 -36 0 -52 14 -14 17 -15 17 -3 1
11 4 10 15 -4 10 -14 15 -45 15 -98 0 -116 18 -95 22 26 1 57 6 107 9 110 10
11 39 -5 32 -18 -4 -6 0 -6 9 2 11 9 18 10 23 2 3 -5 26 -10 50 -10 36 0 48
-5 61 -25 9 -14 20 -25 25 -25 11 0 7 22 -4 31 -5 4 3 9 17 11 19 4 31 0 41
-16 8 -11 15 -15 15 -9 0 7 -4 14 -10 18 -17 11 1 33 23 28 22 -5 22 -5 2 10
-11 9 -15 17 -8 17 7 0 10 6 8 13 -7 17 -54 37 -61 26 -7 -12 -57 -12 -70 0
-5 5 -20 11 -34 13 -14 2 -24 9 -22 16 1 7 -9 12 -25 12 -47 0 -72 11 -76 34
-2 11 -5 16 -6 9z m-7 -138 c-4 -8 -12 -15 -19 -15 -7 0 -20 -3 -29 -6 -10 -4
-16 -1 -16 9 0 14 16 21 57 26 7 0 10 -5 7 -14z"/>
<path d="M341 356 c12 -10 59 -15 59 -6 0 5 -14 10 -32 10 -17 0 -29 -2 -27
-4z"/>
<path d="M424 341 c20 -22 26 -25 26 -13 0 4 -10 13 -22 21 -23 14 -23 14 -4
-8z"/>
<path d="M510 351 c0 -10 19 -25 25 -20 1 2 -3 10 -11 17 -8 7 -14 8 -14 3z"/>
<path d="M1761 331 c-6 -10 -7 -21 -4 -25 12 -12 18 -6 18 19 0 30 -1 31 -14
6z"/>
<path d="M1805 340 c3 -5 1 -10 -5 -10 -7 0 -10 -6 -7 -14 3 -7 0 -19 -6 -26
-10 -10 -8 -10 8 0 22 13 33 60 14 60 -5 0 -7 -4 -4 -10z"/>
<path d="M328 333 c6 -2 18 -2 25 0 6 3 1 5 -13 5 -14 0 -19 -2 -12 -5z"/>
<path d="M587 326 c-4 -10 -1 -13 8 -9 8 3 12 9 9 14 -7 12 -11 11 -17 -5z"/>
<path d="M356 321 c-16 -3 -31 -11 -33 -18 -5 -14 54 0 71 17 11 11 7 11 -38
1z"/>
<path d="M653 316 c4 -14 57 -21 57 -8 0 5 -14 12 -30 14 -19 3 -29 1 -27 -6z"/>
<path d="M272 306 c13 -14 28 -12 28 5 0 5 -9 9 -20 9 -17 0 -19 -2 -8 -14z"/>
<path d="M1074 304 c-18 -14 -18 -15 4 -4 12 6 22 13 22 15 0 8 -5 6 -26 -11z"/>
<path d="M410 296 c0 -9 5 -16 10 -16 6 0 10 4 10 9 0 6 -4 13 -10 16 -5 3
-10 -1 -10 -9z"/>
<path d="M528 303 c6 -2 18 -2 25 0 6 3 1 5 -13 5 -14 0 -19 -2 -12 -5z"/>
<path d="M2340 300 c0 -5 5 -10 11 -10 5 0 7 5 4 10 -3 6 -8 10 -11 10 -2 0
-4 -4 -4 -10z"/>
<path d="M1084 279 c-19 -22 -19 -22 3 -10 12 6 30 8 40 4 16 -6 16 -5 4 10
-18 22 -24 21 -47 -4z"/>
<path d="M625 280 c-3 -5 -23 -10 -43 -10 -23 0 -32 -3 -24 -8 18 -12 70 -2
76 14 6 16 0 19 -9 4z"/>
<path d="M508 263 c6 -2 18 -2 25 0 6 3 1 5 -13 5 -14 0 -19 -2 -12 -5z"/>
<path d="M765 260 c3 -5 8 -10 11 -10 2 0 4 5 4 10 0 6 -5 10 -11 10 -5 0 -7
-4 -4 -10z"/>
<path d="M630 250 l-35 -6 45 -6 c25 -3 52 -1 60 3 8 5 11 9 5 9 -5 1 -17 3
-25 4 -8 1 -31 -1 -50 -4z"/>
<path d="M1133 245 c-7 -8 -21 -18 -30 -24 -10 -5 -14 -13 -10 -17 5 -5 11 -4
15 2 15 23 50 26 71 5 19 -19 19 -19 -6 -41 -14 -12 -23 -24 -20 -26 8 -8 32
6 45 27 11 18 10 25 -13 55 -29 38 -34 40 -52 19z"/>
<path d="M489 231 c12 -8 51 -4 51 5 0 2 -15 4 -32 4 -23 0 -29 -3 -19 -9z"/>
<path d="M2271 205 c22 -22 37 -31 43 -25 7 7 6 14 -2 22 -9 9 -12 9 -12 -1 0
-8 -9 -2 -21 13 -11 14 -25 26 -31 26 -6 0 4 -16 23 -35z"/>
<path d="M760 215 c-10 -12 -10 -15 3 -15 8 0 20 7 27 15 10 12 10 15 -3 15
-8 0 -20 -7 -27 -15z"/>
<path d="M525 210 c-3 -5 -18 -10 -33 -11 -24 -1 -23 -2 8 -9 19 -5 37 -7 39
-4 2 2 -1 4 -8 4 -7 0 -9 5 -6 10 3 6 13 10 21 10 9 0 12 -5 8 -12 -4 -7 -3
-8 4 -4 7 4 17 4 23 0 8 -4 7 -9 -2 -15 -10 -6 -8 -9 8 -9 12 0 28 -3 37 -6 9
-3 16 -1 16 5 0 6 -9 11 -20 11 -11 0 -20 6 -20 14 0 21 -63 35 -75 16z"/>
<path d="M647 195 c-4 -8 -2 -17 3 -20 6 -4 10 -1 10 4 0 6 10 11 23 11 18 0
19 2 7 10 -21 14 -37 12 -43 -5z"/>
<path d="M717 204 c7 -3 10 -11 7 -19 -3 -7 0 -16 7 -21 8 -4 10 -3 5 4 -4 8
0 12 10 12 16 0 16 1 -2 15 -10 8 -23 14 -29 14 -5 0 -5 -3 2 -5z"/>
<path d="M1963 181 c0 -11 5 -18 9 -15 4 3 5 11 1 19 -7 21 -12 19 -10 -4z"/>
<path d="M770 170 c-23 -18 -24 -20 -5 -21 17 -1 16 -2 -5 -8 -14 -5 -33 -4
-42 1 -13 6 -18 5 -18 -6 0 -10 -6 -13 -17 -9 -11 4 -14 3 -9 -5 4 -8 0 -12
-11 -12 -11 0 -24 -5 -30 -11 -6 -6 -16 -8 -22 -4 -17 10 -3 25 17 18 13 -5
14 -3 6 6 -6 7 -18 13 -25 14 -8 2 -21 6 -29 11 -12 7 -13 6 -2 -5 6 -7 12
-18 12 -25 0 -16 -54 -37 -77 -30 -11 3 -40 0 -66 -8 -25 -7 -49 -11 -53 -7
-4 3 -4 1 -1 -5 4 -7 -3 -14 -18 -16 -14 -3 -25 -3 -25 -1 0 6 28 71 41 96 5
9 5 17 1 17 -10 0 -72 -129 -72 -148 0 -7 5 -12 10 -12 6 0 10 6 10 14 0 13 4
13 27 1 15 -8 30 -10 33 -6 6 11 80 42 80 35 0 -3 -10 -14 -22 -25 -13 -10
-17 -18 -10 -19 6 0 12 5 12 10 0 13 97 13 103 0 3 -6 4 -5 3 2 -3 13 30 48
45 48 4 0 11 -5 15 -12 4 -6 3 -8 -4 -4 -10 6 -28 -31 -19 -40 3 -3 22 5 43
18 22 12 72 39 111 59 83 42 85 28 6 -40 -28 -24 -41 -41 -32 -41 9 0 37 21
62 46 26 25 44 38 40 28 -4 -10 -2 -15 3 -11 6 3 16 -10 23 -29 7 -18 17 -34
22 -34 6 0 6 8 -1 20 -6 11 -8 20 -6 20 3 0 -3 15 -13 33 -14 25 -16 38 -9 51
8 15 7 17 -8 12 -120 -37 -197 -60 -233 -67 -24 -5 -50 -14 -58 -20 -10 -9
-20 -9 -38 1 -22 12 -32 11 -78 -8 -53 -22 -89 -29 -71 -14 23 21 104 41 157
40 32 -1 62 3 65 8 4 5 18 10 32 11 32 1 240 73 240 83 0 11 -54 -1 -62 -14
-4 -6 -10 -7 -14 -3 -4 3 -1 13 6 22 17 20 10 19 -20 -5z"/>
<path d="M656 155 c-11 -9 -14 -15 -7 -15 7 0 19 7 27 15 20 19 5 19 -20 0z"/>
<path d="M971 165 c0 -5 7 -26 14 -45 9 -23 14 -28 14 -15 0 11 -6 31 -14 45
-8 14 -14 21 -14 15z"/>
<path d="M311 134 c0 -11 3 -14 6 -6 3 7 2 16 -1 19 -3 4 -6 -2 -5 -13z"/>
<path d="M1135 120 c-3 -5 -1 -10 4 -10 6 0 11 5 11 10 0 6 -2 10 -4 10 -3 0
-8 -4 -11 -10z"/>
<path d="M286 93 c-6 -14 -5 -15 5 -6 7 7 10 15 7 18 -3 3 -9 -2 -12 -12z"/>
<path d="M1250 102 c0 -4 5 -13 11 -19 7 -7 5 -16 -8 -29 -14 -14 -15 -17 -2
-12 9 4 20 -2 28 -14 22 -36 23 -11 0 36 -20 44 -29 55 -29 38z"/>
<path d="M1007 83 c-3 -5 -2 -15 4 -23 5 -8 9 -11 9 -5 0 5 14 -5 30 -23 41
-45 37 -27 -4 22 -18 21 -36 34 -39 29z"/>
<path d="M1950 72 c0 -5 9 -17 20 -27 11 -10 20 -13 20 -8 0 6 -7 14 -16 17
-8 3 -12 10 -9 16 3 5 1 10 -4 10 -6 0 -11 -4 -11 -8z"/>
<path d="M977 29 c7 -7 15 -10 18 -7 3 3 -2 9 -12 12 -14 6 -15 5 -6 -5z"/>
<path d="M2103 21 c1 -12 7 -21 14 -21 17 0 16 15 -1 30 -12 9 -15 8 -13 -9z"/>
<path d="M6 17 c3 -10 9 -15 12 -12 3 3 0 11 -7 18 -10 9 -11 8 -5 -6z"/>
<path d="M2190 26 c0 -2 7 -7 16 -10 8 -3 12 -2 9 4 -6 10 -25 14 -25 6z"/>
<path d="M1010 10 c0 -5 5 -10 11 -10 5 0 7 5 4 10 -3 6 -8 10 -11 10 -2 0 -4
-4 -4 -10z"/>
</g>
</svg>
