<?xml version="1.0" standalone="no"?>
<!DOCTYPE svg PUBLIC "-//W3C//DTD SVG 20010904//EN"
 "http://www.w3.org/TR/2001/REC-SVG-20010904/DTD/svg10.dtd">
<svg version="1.0" xmlns="http://www.w3.org/2000/svg"
 width="300.000000pt" height="199.000000pt" viewBox="0 0 300.000000 199.000000"
 preserveAspectRatio="xMidYMid meet">
<metadata>
Created by potrace 1.10, written by Peter Selinger 2001-2011
</metadata>
<g transform="translate(0.000000,199.000000) scale(0.100000,-0.100000)"
fill="#000000" stroke="none">
<path d="M220 1980 c0 -5 20 -10 44 -10 25 0 48 5 51 10 4 6 -13 10 -44 10
-28 0 -51 -4 -51 -10z"/>
<path d="M1045 1945 c28 -24 59 -45 70 -47 15 -2 21 -13 25 -43 l6 -40 5 48
c2 26 1 51 -3 55 -3 4 -8 21 -10 37 -2 23 -8 31 -28 33 -15 2 -20 0 -13 -5 6
-5 15 -21 18 -36 10 -39 -15 -35 -54 8 -17 19 -38 35 -48 35 -13 0 -3 -14 32
-45z"/>
<path d="M2368 1946 c-16 -23 -39 -55 -52 -69 -14 -15 -24 -37 -23 -49 3 -40
-15 -138 -25 -138 -6 0 -8 7 -4 15 3 8 1 15 -4 15 -6 0 -10 -6 -11 -12 -1 -7
-2 -33 -4 -58 -2 -25 -6 -56 -11 -69 -5 -16 -4 -22 3 -18 6 4 11 -4 11 -18 0
-14 -6 -25 -13 -25 -11 0 -26 47 -48 155 -3 14 -5 12 -6 -7 0 -16 -6 -28 -13
-28 -6 0 -9 -3 -5 -6 8 -8 -25 -44 -35 -38 -4 3 -8 -9 -8 -25 0 -24 4 -31 20
-31 13 0 20 7 20 19 0 26 10 51 21 51 5 0 9 -21 9 -46 0 -37 6 -53 35 -88 19
-24 32 -45 29 -48 -3 -3 2 -31 11 -61 16 -55 14 -82 -12 -155 -12 -35 16 4 46
65 23 44 30 69 25 88 -4 15 -1 31 6 40 18 21 32 18 25 -5 -3 -11 -5 -20 -2
-20 4 0 98 117 111 139 6 9 1 8 -17 -3 -14 -10 -27 -25 -30 -35 -4 -18 -119
-65 -131 -54 -8 8 5 67 18 79 19 19 124 46 153 40 25 -6 33 -1 65 41 78 102
73 100 253 113 207 14 225 17 225 37 0 14 -9 15 -62 9 -35 -3 -119 -9 -188
-12 l-125 -6 -42 -41 c-24 -22 -45 -38 -48 -35 -12 12 7 75 29 99 12 13 25 33
30 44 7 20 8 20 22 1 13 -18 14 -17 14 22 0 27 4 42 13 42 6 0 90 7 185 17
132 13 172 20 172 30 0 11 -10 13 -42 8 -24 -3 -108 -12 -188 -21 -80 -8 -170
-19 -200 -24 -30 -5 -75 -9 -100 -9 -41 -1 -51 -6 -90 -46 -24 -25 -48 -45
-52 -45 -4 0 -8 13 -8 30 0 19 16 51 50 96 28 37 50 73 50 80 0 28 -26 13 -52
-30z m222 -102 c0 -3 -18 -31 -40 -64 -38 -56 -41 -58 -77 -53 -32 4 -47 -1
-100 -37 -35 -23 -66 -39 -71 -36 -4 2 -6 23 -4 46 3 31 10 43 26 50 11 4 42
26 67 48 43 38 51 41 115 45 38 1 72 4 77 5 4 1 7 0 7 -4z m-80 -201 l-5 -58
-45 -6 c-25 -4 -72 -16 -105 -27 -33 -11 -63 -18 -67 -16 -5 3 -8 25 -8 50 0
36 3 44 18 44 10 0 34 8 54 19 26 13 40 15 47 8 8 -8 11 -6 11 7 0 9 5 14 10
11 6 -3 10 1 10 9 0 12 11 16 43 16 l42 0 -5 -57z"/>
<path d="M2430 1980 c0 -11 78 -11 185 0 63 6 58 7 -57 8 -80 1 -128 -2 -128
-8z"/>
<path d="M1588 1965 c-1 -1 -37 -5 -78 -9 -69 -5 -147 -14 -288 -32 -42 -6
-51 -10 -47 -23 9 -31 23 -146 17 -155 -2 -5 1 -6 9 -4 8 3 12 12 10 19 -10
42 -12 127 -3 133 6 3 46 11 89 16 43 6 94 12 113 15 19 2 51 7 70 10 19 3 57
7 84 10 26 2 50 6 53 8 4 5 -23 17 -29 12z"/>
<path d="M745 1949 c-188 -23 -438 -37 -456 -26 -24 15 -32 5 -20 -24 14 -32
53 -431 45 -452 -7 -20 -6 -20 -38 -7 -18 7 -35 5 -61 -6 -19 -8 -35 -15 -35
-17 0 -6 169 -1 176 6 13 13 23 7 39 -24 18 -35 15 -45 -12 -34 -17 7 -272 8
-323 1 -14 -2 -33 -4 -42 -5 -11 -1 -18 -9 -18 -22 0 -21 2 -21 127 -15 131 6
216 8 265 7 22 -1 31 -9 43 -37 29 -69 27 -70 -92 -77 -58 -4 -152 -7 -209 -7
-104 0 -134 -5 -134 -21 0 -6 96 -7 234 -3 l234 7 16 -38 c9 -21 15 -39 14
-40 -11 -11 -169 -25 -270 -25 -160 0 -228 -8 -228 -27 0 -12 14 -14 82 -9 46
3 164 8 263 12 l181 7 11 -38 c11 -33 10 -38 -7 -42 -11 -3 -22 -14 -25 -24
-6 -18 -19 -19 -203 -20 -108 -1 -201 0 -207 1 -21 4 -95 -12 -95 -21 0 -6 84
-8 220 -5 121 2 223 0 226 -5 3 -5 0 -9 -5 -9 -6 0 -28 -16 -48 -35 l-37 -35
-178 0 c-112 0 -178 -4 -178 -10 0 -6 48 -10 123 -11 67 -1 127 -2 132 -4 6
-1 14 -3 19 -3 5 -1 -3 -11 -18 -23 -14 -11 -26 -28 -26 -36 0 -14 -14 -15
-115 -10 -70 4 -115 3 -115 -3 0 -11 47 -25 73 -21 35 5 15 -9 -28 -20 -27 -7
-45 -17 -45 -26 0 -9 6 -12 18 -9 23 7 213 46 224 46 5 0 6 11 2 25 -5 22 0
27 47 49 30 14 95 55 144 91 50 36 106 73 126 82 l36 17 -39 86 c-90 195 -189
440 -183 450 3 4 0 10 -7 12 -23 8 1 38 31 38 26 0 33 -6 59 -62 74 -159 212
-475 212 -486 0 -14 10 -15 28 -3 10 6 8 20 -13 67 -63 140 -175 405 -175 415
0 5 14 15 31 21 38 13 22 28 -31 28 -19 0 -42 4 -49 9 -22 14 6 18 234 31
l200 12 73 -25 c40 -13 76 -27 79 -30 3 -4 -6 -22 -20 -40 l-26 -34 64 -149
64 -149 186 -7 c102 -3 193 -9 202 -12 14 -6 14 -9 -2 -26 -19 -21 -18 -21 96
-14 63 3 141 10 174 16 165 25 195 31 195 38 0 13 -32 21 -44 12 -6 -5 -21 -9
-34 -10 l-23 -1 21 29 c25 35 27 64 2 33 -9 -12 -31 -27 -49 -34 -19 -6 -30
-16 -27 -23 3 -7 -7 -18 -21 -24 -27 -12 -32 -4 -16 26 4 9 11 34 15 55 9 51
-10 48 -24 -3 -13 -48 -27 -55 -130 -65 -58 -5 -84 -3 -112 9 -21 9 -60 16
-88 16 -27 0 -50 5 -50 10 0 6 9 10 19 10 30 0 51 28 51 66 0 27 4 34 20 34
11 0 20 -4 20 -8 0 -5 13 -18 29 -29 l28 -22 14 25 c11 21 10 27 -2 40 -20 19
-85 25 -119 10 -24 -10 -90 -76 -90 -90 0 -18 31 -2 47 24 18 31 43 40 43 17
0 -18 -39 -53 -70 -65 -32 -12 -227 -9 -239 3 -5 6 -30 58 -55 117 -45 105
-56 160 -36 173 6 3 10 15 10 25 0 29 31 82 73 123 21 20 36 37 33 37 -17 0
-56 -25 -56 -37 0 -20 -10 -17 -115 38 l-98 52 -261 -23 c-143 -12 -272 -23
-286 -24 -20 -1 -24 4 -26 31 -1 18 -4 39 -7 46 -4 11 37 19 211 37 120 13
253 24 297 24 78 1 82 0 159 -46 43 -27 85 -48 92 -48 9 0 14 -12 14 -36 0
-45 24 -42 28 4 3 29 -2 35 -88 92 -89 58 -93 60 -158 60 -66 0 -478 -34 -537
-45 -30 -5 -30 -5 -30 43 l1 47 89 7 c255 20 472 41 490 49 26 10 -55 9 -150
-2z m181 -250 c3 -6 43 -28 87 -50 45 -21 76 -39 69 -39 -6 0 -14 -11 -18 -25
-8 -31 -10 -31 -76 0 -37 17 -70 25 -111 25 -64 0 -456 -27 -499 -35 -24 -4
-27 -1 -26 23 0 15 -3 36 -6 47 -7 20 0 21 266 42 150 11 281 21 290 22 9 0
20 -4 24 -10z"/>
<path d="M0 1941 c0 -5 11 -8 25 -7 33 1 33 16 0 16 -14 0 -25 -4 -25 -9z"/>
<path d="M942 1933 c2 -10 13 -19 28 -21 14 -2 48 -25 75 -52 49 -48 105 -80
105 -60 0 6 -4 10 -10 10 -5 0 -38 29 -74 64 -40 41 -75 66 -96 71 -28 6 -31
4 -28 -12z"/>
<path d="M125 1929 c28 -4 63 -10 80 -13 16 -2 34 -2 39 2 17 10 -34 20 -104
20 l-65 -1 50 -8z"/>
<path d="M60 1888 c19 -5 46 -14 59 -19 18 -7 26 -6 32 3 9 14 -39 27 -96 26
l-30 0 35 -10z"/>
<path d="M1938 1733 c3 -17 7 -22 10 -13 2 8 11 21 20 28 14 10 12 12 -10 12
-22 0 -25 -3 -20 -27z"/>
<path d="M1517 1743 c-11 -10 -8 -25 3 -18 14 9 40 -13 51 -44 7 -17 13 -21
20 -14 12 12 -8 53 -25 53 -5 0 -17 7 -26 15 -9 8 -20 12 -23 8z"/>
<path d="M1743 1705 c0 -27 2 -38 4 -22 2 15 2 37 0 50 -2 12 -4 0 -4 -28z"/>
<path d="M1788 1630 c-3 -124 -20 -167 -26 -65 -4 72 -22 72 -22 0 0 -40 -4
-55 -14 -55 -16 0 -25 29 -27 85 l-1 40 -9 -32 c-5 -18 -13 -33 -18 -33 -16 0
-43 40 -38 55 5 11 0 15 -19 15 -14 0 -22 -4 -19 -10 8 -13 -7 -13 -40 0 -43
16 -155 23 -171 9 -8 -6 -25 -9 -41 -5 -18 4 -23 3 -14 -2 9 -7 1 -13 -30 -23
-40 -13 -43 -17 -54 -64 -6 -28 -14 -55 -17 -61 -4 -5 -3 -16 2 -24 15 -24 39
18 40 65 0 51 14 65 61 65 21 0 41 5 44 10 9 14 78 13 93 -2 8 -8 15 -8 27 2
25 20 81 -2 150 -59 48 -40 67 -51 97 -51 20 0 40 -4 43 -10 11 -18 54 -11
123 21 37 17 74 35 82 40 8 5 23 12 33 15 9 4 17 13 17 20 0 17 -17 18 -23 2
-4 -10 -8 -9 -16 2 -6 8 -18 15 -28 15 -14 0 -19 11 -24 55 l-6 55 -2 -60 c-5
-102 -5 -100 -25 -98 -11 1 -25 -6 -31 -14 -9 -11 -14 -13 -19 -5 -11 18 -24
14 -31 -8 -18 -56 -31 11 -29 153 1 42 -3 77 -7 77 -5 0 -10 -54 -11 -120z"/>
<path d="M1283 1720 c-13 -10 -23 -22 -23 -26 0 -4 5 -3 12 4 7 7 20 12 29 12
9 0 21 6 27 13 18 21 -19 18 -45 -3z"/>
<path d="M1684 1700 c0 -22 4 -40 8 -40 5 0 8 18 8 40 0 22 -4 40 -8 40 -5 0
-9 -18 -8 -40z"/>
<path d="M1893 1635 c0 -33 2 -45 4 -27 2 18 2 45 0 60 -2 15 -4 0 -4 -33z"/>
<path d="M1840 1612 c0 -22 5 -44 10 -47 7 -4 8 8 4 37 -9 57 -14 61 -14 10z"/>
<path d="M2865 1599 c-49 -4 -127 -7 -173 -8 -109 -1 -140 -22 -167 -111 l-7
-25 26 24 c14 14 26 30 26 37 0 32 34 39 229 49 174 9 196 12 199 28 3 12 -3
17 -20 15 -13 0 -63 -4 -113 -9z"/>
<path d="M2050 1578 c0 -10 4 -18 9 -18 5 0 16 -3 25 -6 12 -5 16 0 16 20 0
21 -4 25 -25 24 -17 -2 -25 -8 -25 -20z"/>
<path d="M2512 1544 c-7 -14 -8 -23 -2 -19 15 9 32 45 22 45 -5 0 -14 -12 -20
-26z"/>
<path d="M1507 1523 c-21 -49 -38 -115 -31 -122 2 -3 16 -7 29 -8 19 -3 30 4
45 29 11 18 20 44 20 58 0 24 -1 24 -19 -6 -40 -65 -56 -48 -21 21 17 33 18
42 7 53 -11 11 -16 6 -30 -25z"/>
<path d="M580 1547 c0 -2 31 -73 68 -158 38 -85 86 -196 108 -246 21 -51 44
-93 51 -93 15 0 17 12 4 26 -9 10 -173 383 -185 422 -7 21 -5 23 20 20 27 -3
34 -15 101 -168 39 -91 82 -187 94 -214 20 -44 20 -50 6 -61 -13 -9 -10 -11
19 -12 39 -1 39 0 20 30 -8 12 -51 105 -96 207 -45 102 -87 193 -92 203 -9 17
-7 18 21 12 19 -4 31 -3 31 4 0 5 -15 12 -32 15 -64 10 -138 17 -138 13z"/>
<path d="M790 1548 c3 -3 21 -13 40 -23 27 -13 32 -14 20 -2 -8 8 -26 18 -40
22 -14 4 -23 5 -20 3z"/>
<path d="M2655 1520 c-11 -4 -37 -24 -57 -44 -21 -20 -50 -39 -66 -42 -22 -5
-34 -17 -54 -60 -15 -30 -24 -54 -21 -54 3 0 24 19 47 43 23 23 73 70 111 105
37 34 66 62 64 61 -2 0 -13 -4 -24 -9z"/>
<path d="M790 1512 c0 -5 43 -102 95 -216 52 -114 95 -211 95 -216 0 -5 -13
-7 -30 -4 -18 4 -30 2 -30 -4 0 -12 267 -8 328 6 23 6 71 8 105 7 l62 -4 -60
9 c-33 5 -88 7 -122 4 -59 -6 -63 -5 -63 15 0 11 -4 21 -10 21 -5 0 -9 -10 -7
-22 2 -22 -2 -23 -75 -24 l-77 -1 -47 106 c-26 58 -64 142 -84 186 -20 44 -42
95 -49 113 -12 29 -31 44 -31 24z"/>
<path d="M888 1505 c13 -9 26 -14 29 -11 8 8 3 12 -27 21 l-25 7 23 -17z"/>
<path d="M2732 1481 c-8 -4 -13 -12 -13 -17 1 -5 -14 -11 -33 -14 -24 -4 -44
-17 -70 -48 -20 -24 -36 -46 -36 -49 0 -7 52 26 65 41 6 6 26 19 45 29 19 10
49 29 65 42 26 22 27 25 10 25 -11 0 -26 -4 -33 -9z"/>
<path d="M1740 1451 c0 -6 11 -34 24 -63 13 -29 29 -64 35 -78 9 -21 10 -17 5
25 -3 27 -12 61 -19 76 -16 30 -45 57 -45 40z"/>
<path d="M2759 1433 l-24 -26 40 23 c52 31 52 30 28 30 -11 0 -30 -12 -44 -27z"/>
<path d="M2823 1434 l-28 -25 31 15 c17 8 54 14 81 14 l51 -1 -62 -79 c-33
-44 -84 -107 -111 -141 -28 -34 -70 -87 -93 -117 -75 -99 -237 -293 -299 -357
-23 -25 -45 -53 -48 -63 -8 -25 -36 -33 -69 -20 -34 13 -36 12 -36 -1 0 -16
-26 -39 -45 -39 -9 0 -112 18 -228 41 -205 39 -260 49 -377 69 -169 29 -255
59 -247 85 2 5 31 10 65 11 34 0 65 3 68 7 4 4 -25 7 -65 7 -64 0 -73 -2 -78
-20 -3 -11 -12 -20 -19 -20 -24 0 -15 -20 9 -21 12 0 31 -4 42 -8 18 -7 17 -9
-13 -25 -17 -9 -32 -20 -32 -24 0 -4 100 -27 223 -52 122 -24 231 -48 242 -54
23 -13 65 -57 65 -69 0 -5 -25 -52 -55 -105 -30 -53 -55 -100 -55 -105 0 -16
-29 13 -36 36 -11 35 -28 45 -105 63 -197 45 -516 129 -624 163 -150 48 -277
70 -299 52 -11 -9 -101 -13 -345 -14 -308 -2 -331 -3 -331 -19 0 -16 11 -18
78 -19 42 -1 111 -3 152 -4 41 -2 80 1 85 5 6 4 48 8 95 10 47 1 96 2 110 3
62 2 111 -4 105 -13 -3 -5 -1 -10 4 -10 6 0 11 4 11 9 0 17 40 23 57 9 15 -11
16 -11 10 6 -7 17 -4 18 45 13 28 -4 55 -12 58 -18 5 -6 17 -8 29 -4 13 4 21
2 21 -5 0 -7 7 -9 16 -6 10 4 13 2 8 -6 -5 -8 2 -9 25 -5 18 4 30 3 27 -1 -3
-5 27 -18 67 -30 79 -24 538 -136 602 -147 33 -6 75 -33 75 -48 0 -8 -193 32
-311 63 -20 6 -43 10 -50 9 -16 -1 28 -16 86 -29 148 -33 301 -73 310 -81 14
-14 -15 -11 -134 11 -175 34 -241 50 -346 86 -55 19 -147 43 -203 54 -90 18
-312 73 -349 87 -8 3 -13 -3 -13 -15 0 -24 -23 -35 -39 -19 -14 14 -14 6 0
-29 10 -27 9 -27 -8 -12 -19 17 -114 30 -333 43 -61 4 -119 14 -138 23 -19 8
-53 14 -75 13 -23 -2 -50 -4 -59 -4 -10 -1 -18 -9 -18 -20 0 -13 5 -17 18 -12
11 3 52 1 93 -5 41 -6 132 -17 204 -25 72 -8 175 -21 230 -30 76 -12 135 -15
250 -10 167 7 282 -3 371 -35 84 -29 154 -103 154 -162 0 -22 1 -22 30 9 16
17 46 37 66 43 45 15 177 7 250 -15 27 -8 54 -15 60 -15 6 0 41 55 78 121 l68
121 42 -6 c197 -29 258 -34 403 -36 132 -1 163 2 157 12 -5 10 -4 11 7 0 14
-13 33 -17 26 -4 -3 4 26 6 64 6 38 -1 69 2 69 6 0 4 10 11 23 15 14 4 17 8 9
12 -7 3 -19 0 -27 -7 -10 -9 -16 -7 -23 7 -10 17 -11 17 -29 0 -25 -22 -92
-23 -108 0 -9 13 -14 13 -20 3 -5 -9 -4 -11 3 -6 7 4 12 2 12 -3 0 -6 -12 -11
-26 -11 -17 0 -23 4 -18 13 6 9 5 9 -7 0 -8 -7 -30 -12 -49 -13 -55 -1 -324
18 -355 26 -11 3 -40 6 -65 7 -50 3 -73 13 -65 28 4 5 -1 9 -10 9 -18 0 -66
51 -58 62 2 5 14 6 26 3 27 -5 74 -12 145 -21 29 -4 55 -11 58 -15 3 -5 25 -9
49 -9 24 0 47 -4 50 -10 3 -5 15 -10 27 -10 14 0 18 5 14 16 -3 9 -2 12 5 9
13 -9 139 25 139 36 0 5 7 9 15 9 8 0 15 7 15 15 0 8 9 15 20 15 14 0 19 6 17
22 -3 28 36 50 81 45 37 -3 41 3 12 21 -19 12 -19 14 -5 42 18 35 22 36 53 14
18 -12 22 -22 17 -44 -5 -24 -2 -28 21 -34 14 -4 49 -24 78 -45 55 -40 92 -59
80 -40 -4 6 0 15 7 20 11 7 9 9 -6 9 -11 0 -45 18 -75 40 -30 22 -63 43 -72
46 -21 7 -24 40 -5 47 6 3 -5 12 -25 21 -21 9 -38 20 -38 25 0 17 30 40 45 35
9 -4 15 0 15 10 0 14 21 15 205 10 183 -5 205 -4 205 10 0 14 -22 16 -179 16
-188 0 -200 3 -179 43 5 10 19 30 31 43 20 23 24 24 175 24 136 0 153 2 150
16 -3 14 -21 16 -140 15 -76 -1 -138 1 -138 4 0 9 70 96 89 113 9 7 47 12 103
12 83 0 88 1 88 21 0 21 -3 22 -80 16 -44 -3 -80 -3 -80 -1 0 2 27 36 60 76
33 39 60 75 60 80 0 4 9 8 20 8 13 0 20 7 20 20 0 18 -7 20 -74 20 -66 0 -78
-3 -103 -26z m-2103 -919 c12 -15 5 -39 -9 -30 -12 7 -21 45 -11 45 4 0 13 -7
20 -15z"/>
<path d="M2025 1430 c-25 -27 -12 -37 14 -11 12 12 21 23 21 26 0 11 -18 4
-35 -15z"/>
<path d="M1207 1414 c-4 -4 -7 -26 -6 -48 l1 -41 9 39 c10 42 8 62 -4 50z"/>
<path d="M2814 1382 c-50 -48 -108 -122 -97 -122 12 0 73 54 73 64 0 4 14 19
30 33 33 27 56 63 42 63 -5 0 -27 -17 -48 -38z"/>
<path d="M2439 1364 c-84 -196 -170 -481 -169 -561 0 -15 -3 -45 -6 -65 -8
-51 5 -48 41 10 31 50 130 183 193 260 20 25 32 43 25 39 -19 -12 -123 -143
-183 -229 -49 -72 -74 -102 -51 -61 5 10 5 26 0 41 -12 31 33 216 86 352 65
168 95 254 90 258 -2 3 -14 -17 -26 -44z"/>
<path d="M1613 1393 c-23 -9 -14 -31 14 -36 31 -6 48 10 31 30 -11 13 -24 15
-45 6z"/>
<path d="M2042 1388 c-19 -19 -14 -44 8 -45 17 -2 19 2 14 25 -9 34 -8 34 -22
20z"/>
<path d="M2680 1333 c-83 -72 -299 -351 -283 -367 4 -3 2 -6 -4 -6 -9 0 -93
-150 -93 -167 0 -4 21 26 46 67 57 92 161 222 288 359 53 57 93 107 90 110 -7
7 -98 -89 -202 -214 -88 -106 -104 -123 -72 -75 34 51 154 195 224 268 32 34
57 62 54 62 -2 0 -24 -17 -48 -37z"/>
<path d="M1696 1302 c-11 -26 -30 -61 -43 -78 -28 -37 -29 -48 -4 -35 10 6 31
35 46 66 16 30 34 60 42 66 7 6 10 15 7 20 -12 20 -30 6 -48 -39z"/>
<path d="M1996 1311 c-16 -17 -16 -26 -6 -78 15 -79 17 -83 34 -77 13 5 13 12
0 55 -11 36 -12 59 -5 84 11 39 3 44 -23 16z"/>
<path d="M2094 1303 c3 -10 28 -121 56 -248 28 -126 53 -231 55 -233 7 -8 15
74 10 111 -3 23 -7 62 -10 87 -2 25 -11 68 -20 95 -9 30 -11 51 -5 53 5 2 3
10 -5 18 -8 8 -12 21 -9 29 3 7 1 22 -5 32 -10 17 -10 17 -11 0 0 -28 19 -151
41 -265 11 -56 19 -108 17 -114 -2 -6 -19 58 -36 143 -18 85 -37 172 -43 194
-10 43 -17 82 -18 103 -1 6 -6 12 -12 12 -6 0 -8 -8 -5 -17z"/>
<path d="M2576 1295 c-16 -14 -32 -25 -36 -25 -18 0 -210 -325 -210 -356 0 -5
23 32 51 81 54 94 108 170 192 268 51 60 53 75 3 32z"/>
<path d="M1636 1282 c-4 -12 -21 -29 -37 -38 -28 -14 -31 -34 -5 -34 18 0 58
58 54 78 -3 14 -6 13 -12 -6z"/>
<path d="M1910 1280 c0 -11 5 -20 10 -20 6 0 10 9 10 20 0 11 -4 20 -10 20 -5
0 -10 -9 -10 -20z"/>
<path d="M1272 1244 c8 -9 26 -14 39 -12 20 2 18 5 -15 15 -36 11 -38 11 -24
-3z"/>
<path d="M2422 1218 c-13 -17 -79 -185 -87 -223 -6 -25 49 84 101 203 14 32 6
44 -14 20z"/>
<path d="M2226 1166 c-18 -28 -20 -36 -8 -36 10 0 35 50 29 57 -2 2 -12 -8
-21 -21z"/>
<path d="M2073 1053 c-7 -14 -10 -30 -6 -36 3 -5 -1 -13 -8 -18 -11 -7 -10 -9
4 -9 10 0 16 -4 12 -10 -9 -14 -32 -1 -38 22 -4 14 -11 18 -25 14 -10 -4 -39
2 -63 13 -24 10 -57 21 -74 25 -29 5 -29 5 -5 -6 109 -50 159 -78 196 -111
l43 -38 -6 53 c-3 29 -8 70 -12 90 l-6 37 -12 -26z"/>
<path d="M2480 953 c-102 -126 -153 -193 -146 -193 2 0 61 70 130 155 69 85
122 155 118 155 -4 0 -50 -53 -102 -117z"/>
<path d="M1586 1025 c7 -16 14 -18 38 -9 25 10 19 20 -14 22 -23 2 -28 -1 -24
-13z"/>
<path d="M1660 1021 c8 -6 23 -11 33 -11 11 0 15 -5 11 -11 -5 -8 -1 -8 14 0
29 16 42 14 43 -6 0 -15 2 -15 9 2 8 18 9 19 9 1 1 -11 6 -16 15 -13 8 3 20
-1 26 -8 8 -9 21 -13 36 -9 13 4 24 2 24 -4 0 -5 11 -13 25 -16 14 -4 25 -10
25 -15 0 -5 -8 -7 -19 -4 -10 3 -22 -1 -27 -8 -5 -9 -2 -11 9 -6 10 3 17 2 17
-4 0 -6 5 -7 10 -4 12 7 80 -15 80 -27 0 -4 6 -5 14 -2 8 3 28 -2 45 -11 34
-17 42 -28 14 -18 -24 8 -10 -5 55 -52 59 -42 55 -65 -7 -38 -115 50 -165 67
-258 87 -62 13 -101 25 -96 31 4 5 1 4 -8 -2 -11 -9 -45 -10 -131 -3 -94 8
-122 7 -143 -4 -23 -12 -24 -15 -8 -19 10 -3 74 -8 143 -12 160 -8 280 -22
354 -41 80 -20 177 -64 169 -77 -4 -6 -1 -7 6 -2 8 4 25 -1 42 -14 34 -25 39
-26 39 -6 0 8 -8 15 -19 15 -21 0 -45 23 -34 33 3 4 16 -1 27 -10 20 -18 20
-18 5 7 -9 14 -22 36 -30 50 -21 38 -61 80 -70 74 -4 -2 -29 12 -55 31 -64 49
-104 68 -204 99 -93 28 -216 46 -190 27z"/>
<path d="M1472 988 c3 -19 2 -25 -6 -20 -22 13 -58 13 -54 0 3 -8 24 -14 50
-16 42 -3 46 -1 41 17 -3 11 -12 26 -21 33 -13 11 -15 9 -10 -14z"/>
<path d="M675 951 c-63 -25 -146 -71 -275 -153 -38 -25 -41 -28 -16 -22 25 6
217 117 252 145 6 5 41 18 77 29 37 12 67 23 67 25 0 11 -40 2 -105 -24z"/>
<path d="M1039 939 c-6 -4 1 -6 15 -6 15 0 29 3 31 8 6 9 -31 8 -46 -2z"/>
<path d="M845 932 c-62 -20 -323 -159 -331 -176 -5 -11 -15 -22 -23 -24 -8 -3
-11 0 -7 7 4 6 2 11 -3 11 -6 0 -11 -4 -11 -8 0 -5 -6 -9 -12 -10 -7 0 -37 -4
-65 -8 -45 -6 -53 -4 -53 10 0 20 -4 20 -46 0 -48 -23 -43 -38 11 -31 37 5 43
4 38 -9 -7 -18 41 -13 161 18 76 20 80 20 92 3 13 -17 19 -18 81 -6 37 7 110
28 163 48 62 24 129 40 195 49 55 7 129 22 165 34 38 13 102 24 155 27 50 3
101 11 115 18 42 20 371 7 385 -15 3 -5 15 -6 27 -2 13 3 19 1 15 -5 -4 -7 4
-11 21 -12 54 -1 62 -2 58 -10 -3 -4 1 -8 9 -9 8 -1 22 -3 30 -4 8 -1 15 -4
15 -8 0 -6 44 -30 56 -30 19 0 -19 27 -70 50 -87 40 -194 59 -353 65 -76 3
-158 8 -183 10 -40 4 -43 3 -26 -10 17 -13 16 -14 -17 -20 -19 -4 -44 -2 -54
3 -11 6 -30 9 -44 8 -42 -6 -163 -38 -194 -52 -18 -7 -66 -13 -117 -13 -72 0
-94 -4 -140 -26 -135 -66 -203 -82 -303 -67 l-60 8 56 17 c31 9 62 23 68 31 7
8 24 17 39 21 15 3 43 18 62 33 19 15 59 38 88 51 66 31 71 53 7 33z"/>
<path d="M2618 835 c-9 -41 12 -55 86 -56 93 0 175 -7 188 -15 7 -4 8 -3 4 4
-5 9 9 12 48 12 31 0 56 4 56 10 0 6 -72 11 -182 12 l-183 3 -5 30 -6 30 -6
-30z"/>
<path d="M1610 810 c-11 -7 -5 -8 20 -4 43 8 51 14 19 14 -13 0 -31 -5 -39
-10z"/>
<path d="M1718 803 c12 -2 32 -2 45 0 12 2 2 4 -23 4 -25 0 -35 -2 -22 -4z"/>
<path d="M2948 763 c12 -2 30 -2 40 0 9 3 -1 5 -23 4 -22 0 -30 -2 -17 -4z"/>
<path d="M1950 740 c8 -5 24 -10 34 -10 26 0 18 6 -19 14 -22 5 -26 4 -15 -4z"/>
<path d="M2771 651 c2 -6 54 -49 114 -96 84 -63 111 -80 114 -67 2 9 -6 23
-18 32 -12 8 -49 36 -83 63 l-61 47 82 0 c47 0 81 4 81 10 0 6 -35 10 -84 10
-46 0 -98 3 -116 7 -23 4 -32 3 -29 -6z"/>
<path d="M705 582 c-12 -13 -2 -17 47 -20 28 -1 49 0 47 2 -8 9 -88 24 -94 18z"/>
<path d="M810 560 c0 -5 12 -12 28 -16 15 -3 42 -10 60 -16 18 -5 36 -8 39 -5
3 3 -15 11 -38 17 -24 6 -54 15 -66 20 -15 6 -23 6 -23 0z"/>
<path d="M1746 515 c-41 -64 -50 -80 -34 -65 17 17 62 90 55 90 -3 0 -12 -11
-21 -25z"/>
<path d="M2720 524 c0 -3 6 -11 13 -17 14 -14 49 -19 41 -6 -3 5 -12 9 -20 9
-8 0 -12 5 -9 10 3 6 -1 10 -9 10 -9 0 -16 -3 -16 -6z"/>
<path d="M1020 494 c83 -26 229 -58 236 -51 5 5 -279 78 -298 76 -7 -1 21 -12
62 -25z"/>
<path d="M0 325 c0 -10 10 -15 34 -15 18 0 103 -9 187 -21 132 -17 188 -19
389 -15 184 4 252 2 315 -10 44 -8 87 -17 95 -20 8 -3 15 -4 15 -2 0 1 21 -12
47 -30 48 -33 88 -80 88 -104 0 -20 45 -58 68 -58 11 0 22 -4 24 -10 2 -6 8
-6 18 0 13 8 12 10 -2 10 -10 0 -18 4 -18 8 0 10 75 54 110 65 42 13 170 8
290 -12 63 -10 219 -35 345 -54 127 -20 258 -41 291 -47 34 -5 180 -9 325 -9
167 1 247 4 219 10 -25 4 -87 8 -139 8 -52 1 -155 8 -230 16 -75 8 -158 16
-186 19 -50 4 -279 37 -390 56 -33 6 -125 22 -204 35 -225 39 -332 32 -410
-26 -16 -12 -32 -30 -34 -40 -8 -32 -21 -21 -40 31 -37 103 -129 165 -279 190
-74 12 -251 12 -358 1 -83 -9 -274 1 -448 24 -62 8 -115 15 -118 15 -2 0 -4
-7 -4 -15z"/>
<path d="M263 253 c9 -2 25 -2 35 0 9 3 1 5 -18 5 -19 0 -27 -2 -17 -5z"/>
<path d="M13 93 c9 -2 25 -2 35 0 9 3 1 5 -18 5 -19 0 -27 -2 -17 -5z"/>
<path d="M85 85 c31 -14 706 -75 695 -62 -7 8 -78 16 -190 23 -52 3 -146 11
-209 19 -118 15 -313 29 -296 20z"/>
<path d="M2 34 c4 -24 14 -25 263 -29 211 -3 193 3 -75 25 -80 6 -156 14 -168
17 -19 5 -23 2 -20 -13z"/>
</g>
</svg>
