<?xml version="1.0" standalone="no"?>
<!DOCTYPE svg PUBLIC "-//W3C//DTD SVG 20010904//EN"
 "http://www.w3.org/TR/2001/REC-SVG-20010904/DTD/svg10.dtd">
<svg version="1.0" xmlns="http://www.w3.org/2000/svg"
 width="300.000000pt" height="200.000000pt" viewBox="0 0 300.000000 200.000000"
 preserveAspectRatio="xMidYMid meet">
<metadata>
Created by potrace 1.10, written by Peter Selinger 2001-2011
</metadata>
<g transform="translate(0.000000,200.000000) scale(0.100000,-0.100000)"
fill="#000000" stroke="none">
<path d="M1993 1955 c0 -27 2 -38 4 -22 2 15 2 37 0 50 -2 12 -4 0 -4 -28z"/>
<path d="M2077 1948 c-43 -28 -76 -53 -73 -55 2 -3 15 1 28 8 12 7 26 13 30
14 4 0 16 7 27 17 12 10 22 13 28 7 13 -13 49 2 88 35 28 23 28 25 9 26 -12 0
-29 -11 -38 -25 -9 -14 -22 -25 -29 -25 -8 1 -7 5 3 13 16 13 25 37 13 36 -5
0 -43 -23 -86 -51z"/>
<path d="M2410 1990 c0 -13 -92 -100 -106 -100 -16 0 -62 -39 -47 -40 6 0 15
5 18 11 4 5 12 8 18 6 7 -2 18 3 25 12 8 9 11 11 8 4 -3 -6 2 -25 11 -42 20
-34 33 -37 110 -22 26 6 80 15 118 22 39 6 76 14 82 16 15 6 31 63 31 111 1
29 -1 30 -14 17 -9 -9 -15 -30 -14 -53 1 -20 2 -42 1 -49 -1 -10 -80 -33 -115
-33 -8 0 -31 16 -52 35 -43 38 -86 45 -120 20 -10 -8 -23 -15 -28 -15 -15 0
15 29 37 36 12 3 29 12 37 19 8 7 50 20 93 29 85 19 105 33 30 21 -27 -4 -54
-8 -60 -8 -7 0 -13 -4 -13 -9 0 -4 -7 -8 -16 -8 -10 0 -14 6 -10 15 3 9 0 15
-9 15 -8 0 -15 -4 -15 -10z m257 -62 c-3 -8 -6 -5 -6 6 -1 11 2 17 5 13 3 -3
4 -12 1 -19z m-218 -48 c24 -17 40 -31 35 -32 -5 0 -20 -2 -34 -3 -14 -1 -35
-5 -46 -8 -18 -6 -23 -3 -28 19 -6 24 7 54 23 54 3 0 26 -14 50 -30z"/>
<path d="M2606 1984 c-11 -8 -16 -14 -10 -14 13 0 39 18 34 24 -3 2 -14 -2
-24 -10z"/>
<path d="M2250 1951 c0 -17 -5 -33 -11 -37 -8 -5 -10 3 -7 24 2 17 1 29 -4 26
-4 -3 -8 -19 -8 -35 0 -18 -4 -28 -10 -24 -5 3 -10 -1 -10 -9 0 -23 -15 -19
-28 7 -10 21 -11 21 -11 -6 -1 -16 3 -26 8 -23 5 4 11 2 13 -4 1 -5 16 1 32
15 16 14 33 25 38 25 4 0 8 9 8 21 0 15 5 19 15 15 12 -4 13 -2 2 14 -17 28
-27 25 -27 -9z"/>
<path d="M2560 1970 c-9 -6 -10 -10 -3 -10 6 0 15 5 18 10 8 12 4 12 -15 0z"/>
<path d="M2190 1935 c-8 -9 -8 -15 -2 -15 12 0 26 19 19 26 -2 2 -10 -2 -17
-11z"/>
<path d="M2073 1899 c-24 -17 -43 -26 -43 -22 0 4 -5 1 -10 -7 -7 -11 -24 -14
-69 -12 -60 4 -107 -11 -95 -29 5 -9 11 -52 13 -101 1 -23 30 -50 50 -46 18 4
51 -20 51 -37 0 -5 -5 -3 -10 5 -8 12 -10 11 -10 -6 0 -12 3 -36 7 -55 5 -28
7 -30 14 -14 4 11 8 33 8 48 1 24 4 27 21 22 11 -4 20 -2 20 4 0 14 47 14 55
1 3 -5 14 -10 23 -10 23 0 92 -57 92 -76 0 -8 -4 -13 -8 -10 -5 3 -37 8 -73
12 -35 4 -75 14 -89 22 l-25 16 23 -26 c19 -20 37 -28 84 -33 32 -4 57 -9 55
-11 -2 -2 -46 -16 -98 -30 -52 -14 -119 -33 -149 -42 l-55 -17 3 -55 c4 -74
11 -93 29 -86 52 20 63 19 63 -9 0 -15 -8 -34 -17 -42 -11 -8 -12 -11 -3 -7
13 7 13 5 1 -9 -12 -15 -11 -17 3 -17 9 0 16 8 16 20 0 21 16 25 56 14 15 -4
20 -12 17 -23 -3 -11 2 -21 11 -24 8 -3 104 17 213 45 109 28 208 53 220 55
13 3 20 10 16 16 -4 6 0 8 10 4 10 -3 17 -2 17 3 0 6 8 10 18 11 11 1 8 4 -8
8 -14 4 -26 4 -28 -1 -5 -12 -28 -9 -41 5 -13 16 -12 16 73 20 49 2 63 -2 78
-18 10 -10 16 -25 14 -32 -3 -7 -2 -13 3 -13 5 0 11 -9 14 -20 4 -15 0 -20
-16 -21 -12 0 -33 -3 -47 -5 -13 -2 -31 -2 -40 1 -13 6 -13 8 0 18 8 7 21 23
28 36 12 21 12 22 -10 15 -13 -4 -28 -14 -34 -23 -7 -9 -26 -34 -43 -55 l-32
-40 38 -23 c52 -31 68 -29 18 3 -22 15 -32 24 -22 20 10 -3 17 0 17 8 0 16 52
26 142 26 59 0 74 4 127 36 62 37 87 59 54 47 -10 -3 -22 -9 -28 -14 -33 -24
-108 -60 -119 -56 -6 3 -13 19 -14 37 -1 17 -15 48 -29 67 l-27 35 -101 -6
-100 -6 100 35 c55 19 101 35 103 35 1 0 2 10 2 23 1 16 18 33 62 62 l61 40
-88 27 c-87 27 -88 27 -147 11 -47 -13 -64 -14 -79 -5 -25 16 -34 15 -20 -1 6
-8 8 -17 4 -20 -13 -14 -20 -6 -18 18 2 13 -3 29 -11 36 -15 12 -239 38 -339
39 -33 0 -77 3 -97 6 -40 7 -45 16 -50 104 l-2 45 34 0 c19 0 50 -3 69 -7 23
-4 38 -3 45 6 6 7 30 24 54 39 23 15 42 32 42 37 0 13 2 14 -47 -21z m108
-248 c1 -12 2 -12 6 2 8 31 23 18 23 -21 0 -21 5 -43 12 -50 6 -6 9 -14 6 -17
-3 -3 -30 18 -61 48 l-56 53 35 0 c24 0 34 -5 35 -15z m69 -12 c0 20 16 12 17
-9 1 -11 -2 -20 -8 -20 -5 0 -9 -10 -9 -22 -1 -23 -1 -23 -15 2 -8 14 -14 33
-15 44 0 15 3 16 15 6 10 -9 15 -9 15 -1z m50 7 c0 -3 -4 -8 -10 -11 -5 -3
-10 -1 -10 4 0 6 5 11 10 11 6 0 10 -2 10 -4z m44 -43 c8 -19 10 -17 -36 -30
-42 -12 -43 -12 -25 20 22 39 49 44 61 10z m333 -16 c2 -2 -29 -26 -68 -52
-58 -39 -94 -54 -183 -77 -61 -16 -112 -33 -114 -38 -2 -5 -9 -7 -17 -4 -7 3
-42 -2 -77 -11 -35 -10 -79 -21 -98 -25 -19 -4 -48 -11 -65 -15 -28 -7 -29 -7
-13 10 10 11 32 18 57 19 31 0 43 5 47 19 9 28 -2 31 -32 8 -15 -11 -36 -21
-48 -20 -11 0 -15 3 -8 6 6 2 12 14 12 26 0 12 9 28 20 35 19 12 20 11 15 -15
l-6 -28 14 30 14 30 12 -22 c13 -26 31 -30 31 -8 0 15 7 25 38 60 7 8 10 15 5
15 -4 0 0 7 10 14 10 8 26 12 35 10 9 -2 78 13 152 34 l135 38 64 -18 c35 -10
66 -19 68 -21z m-487 -66 c0 -21 -50 -43 -70 -31 -10 6 -4 13 21 23 41 18 49
20 49 8z m-143 -97 l-33 -69 -64 -17 c-43 -12 -66 -14 -70 -7 -4 5 -8 32 -9
59 l-1 48 52 15 c29 9 76 22 103 29 28 8 51 14 53 12 2 -1 -12 -33 -31 -70z
m543 72 c0 -2 -7 -7 -16 -10 -8 -3 -12 -2 -9 4 6 10 25 14 25 6z m-141 -62
c-7 -9 -23 -20 -36 -25 -31 -11 -29 -22 8 -53 19 -17 25 -26 15 -26 -8 0 -27
12 -41 27 -23 26 -31 23 -26 -9 3 -21 -20 -4 -25 18 -5 19 -9 22 -15 12 -7
-10 -9 -9 -9 5 0 19 26 23 33 5 3 -8 6 -5 6 5 1 10 6 15 11 12 6 -3 10 0 10 8
0 8 15 19 33 25 46 14 51 14 36 -4z m-211 -53 c8 -5 -3 -8 -30 -9 -24 -1 -56
-6 -73 -10 l-30 -9 28 -5 c16 -3 27 -1 27 5 0 8 4 7 11 0 6 -6 17 -9 23 -7 7
3 11 -10 11 -36 0 -39 -15 -57 -37 -43 -7 3 -8 1 -4 -6 6 -9 0 -10 -19 -5 -20
5 -31 1 -46 -15 -22 -23 -54 -29 -46 -8 6 15 -31 43 -52 38 -13 -2 -31 15 -31
32 0 4 10 7 23 7 31 0 109 25 102 32 -3 3 -24 2 -47 -4 -68 -15 -66 -3 3 14
156 40 167 42 187 29z m30 -50 c-2 -17 -1 -28 4 -25 4 3 8 -4 8 -14 0 -18 -18
-32 -41 -32 -10 0 -13 83 -2 93 18 18 35 6 31 -22z m75 1 c32 -34 33 -38 7
-45 -14 -4 -20 0 -20 11 0 10 -5 24 -11 32 -8 12 -9 7 -6 -17 2 -23 -1 -33
-10 -33 -7 0 -13 8 -13 18 0 9 -3 27 -6 40 -9 32 25 29 59 -6z"/>
<path d="M2505 1590 c-3 -5 -17 -10 -31 -10 -13 0 -24 -3 -24 -7 0 -5 -11 -9
-25 -9 -14 -1 -33 -5 -43 -9 -9 -4 -29 -7 -44 -6 -14 1 -29 -3 -33 -9 -4 -6
-16 -8 -28 -5 -19 5 -20 4 -5 -5 9 -6 15 -17 12 -25 -4 -8 -1 -15 6 -15 6 0 8
-4 5 -10 -3 -5 -1 -10 5 -10 6 0 9 -4 6 -9 -5 -8 91 12 99 21 2 2 -3 14 -11
28 l-14 25 3 -24 c3 -32 -21 -39 -32 -9 -6 13 -10 16 -11 8 0 -13 -1 -13 -10
0 -8 11 -9 8 -4 -12 4 -18 2 -28 -5 -28 -6 0 -11 16 -11 35 0 44 37 47 53 5 4
-10 6 -8 6 7 1 26 39 42 53 22 8 -11 9 -10 4 4 -3 9 -1 17 4 17 6 0 10 -9 10
-20 0 -11 7 -20 15 -20 8 0 15 7 15 15 0 8 -5 15 -11 15 -5 0 -7 5 -4 10 10
17 35 12 28 -6 -3 -9 0 -20 8 -24 18 -12 8 -20 -29 -23 -18 -1 -34 -7 -36 -14
-3 -7 0 -10 7 -8 93 29 117 38 117 47 0 6 -6 6 -15 -2 -12 -10 -18 -10 -29 0
-17 13 -11 39 12 58 9 6 11 12 5 12 -7 0 -15 -4 -18 -10z"/>
<path d="M2515 1567 c-4 -10 -5 -21 -1 -24 10 -10 18 4 13 24 -4 17 -4 17 -12
0z"/>
<path d="M2257 1500 c8 -30 21 -34 15 -5 -2 14 -8 25 -12 25 -5 0 -6 -9 -3
-20z"/>
<path d="M2210 1483 c0 -11 -6 -25 -12 -33 -11 -12 -10 -12 3 -2 9 6 19 9 22
5 4 -3 7 3 7 15 0 11 -4 24 -10 27 -5 3 -10 -2 -10 -12z"/>
<path d="M2240 1461 c0 -11 31 -24 39 -16 3 3 -1 10 -9 15 -19 12 -30 12 -30
1z"/>
<path d="M2081 1434 c0 -11 3 -14 6 -6 3 7 2 16 -1 19 -3 4 -6 -2 -5 -13z"/>
<path d="M2220 1430 c0 -5 5 -10 11 -10 5 0 7 5 4 10 -3 6 -8 10 -11 10 -2 0
-4 -4 -4 -10z"/>
<path d="M2025 1460 c-3 -5 -1 -10 4 -10 6 0 11 5 11 10 0 6 -2 10 -4 10 -3 0
-8 -4 -11 -10z"/>
<path d="M1957 1443 c-9 -2 -15 -9 -12 -14 4 -5 14 -5 26 1 16 9 21 7 29 -12
8 -22 9 -22 7 5 -1 27 -10 30 -50 20z"/>
<path d="M1910 1431 c0 -5 5 -13 10 -16 6 -3 10 -2 10 4 0 5 -4 13 -10 16 -5
3 -10 2 -10 -4z"/>
<path d="M1892 1386 c1 -14 6 -22 10 -20 12 7 10 44 -2 44 -5 0 -9 -11 -8 -24z"/>
<path d="M1935 1399 c-10 -15 3 -25 16 -12 7 7 7 13 1 17 -6 3 -14 1 -17 -5z"/>
<path d="M1970 1403 c0 -5 5 -15 10 -23 8 -12 10 -11 10 8 0 12 -4 22 -10 22
-5 0 -10 -3 -10 -7z"/>
<path d="M1955 1369 c-4 -6 -13 -8 -20 -5 -7 2 -16 -1 -19 -9 -4 -11 1 -12 25
-3 16 5 29 14 29 19 0 12 -7 11 -15 -2z"/>
<path d="M15 1899 c-9 -14 -2 -20 14 -10 8 6 9 11 3 15 -6 3 -14 1 -17 -5z"/>
<path d="M2141 1898 c0 -10 -5 -18 -11 -18 -5 0 -10 -7 -10 -15 0 -9 6 -12 15
-9 8 4 15 1 15 -6 0 -6 5 -8 10 -5 7 4 8 11 2 18 -6 7 -12 21 -15 32 -4 16 -5
17 -6 3z"/>
<path d="M50 1875 c0 -8 2 -15 4 -15 2 0 6 7 10 15 3 8 1 15 -4 15 -6 0 -10
-7 -10 -15z"/>
<path d="M80 1850 c-9 -6 -10 -10 -3 -10 6 0 15 5 18 10 8 12 4 12 -15 0z"/>
<path d="M2072 1844 c-12 -8 -27 -12 -34 -8 -6 4 -8 3 -5 -3 4 -6 33 -11 64
-13 32 -1 78 -3 102 -3 24 -1 46 -7 48 -14 3 -7 -3 -9 -18 -6 -17 5 -20 2 -16
-13 4 -10 9 -32 13 -48 6 -26 10 -28 44 -23 32 4 40 1 50 -19 10 -18 24 -24
66 -30 30 -3 54 -9 54 -13 0 -8 101 -3 109 5 2 2 -21 4 -52 4 -55 0 -58 1 -87
42 -32 44 -39 78 -16 78 8 0 17 -15 20 -35 8 -41 31 -66 52 -58 11 4 14 13 9
31 -5 22 -4 24 9 13 9 -8 16 -21 16 -29 0 -13 3 -12 14 4 13 16 17 17 28 5 11
-12 10 -13 -4 -8 -25 9 -22 0 10 -28 38 -34 57 -33 35 3 -25 40 -57 69 -71 64
-6 -2 -12 4 -12 13 0 11 5 15 16 11 8 -3 12 -2 9 4 -10 15 -33 12 -37 -5 -2
-13 -6 -12 -21 5 -17 20 -17 20 63 18 44 -1 80 -5 80 -8 0 -3 -7 -14 -15 -24
-13 -17 -15 -18 -15 -3 0 9 -4 17 -9 17 -5 0 -8 -8 -6 -17 2 -10 4 -21 4 -25
2 -16 73 -78 89 -78 76 1 84 45 20 107 l-43 41 -108 6 c-113 7 -115 6 -82 -34
7 -8 15 -28 17 -43 8 -40 -24 -32 -33 9 -9 45 -17 54 -50 54 -17 0 -32 6 -35
15 -4 8 -12 15 -20 15 -8 0 -19 9 -26 19 -11 18 -13 18 -37 3 -14 -10 -22 -12
-18 -4 5 6 4 12 -2 12 -5 0 -13 -4 -16 -10 -10 -17 -105 -12 -111 5 -8 19 -14
19 -42 -1z m28 -4 c0 -5 -5 -10 -11 -10 -5 0 -7 5 -4 10 3 6 8 10 11 10 2 0 4
-4 4 -10z m220 -40 c10 -6 11 -10 3 -10 -7 0 -13 -4 -13 -8 0 -5 13 -7 29 -6
22 1 29 -2 28 -15 -2 -31 13 -72 25 -65 7 4 8 3 4 -4 -11 -18 -56 -15 -56 3 0
8 -4 15 -8 15 -5 0 -18 18 -31 40 -12 22 -26 40 -32 40 -5 0 -9 5 -9 10 0 13
40 13 60 0z m-41 -49 c12 -21 5 -31 -20 -31 -15 0 -29 26 -29 58 0 18 36 -2
49 -27z m391 -10 c8 -8 16 -27 18 -43 4 -38 -18 -37 -58 4 -28 28 -30 34 -19
54 13 25 18 23 59 -15z"/>
<path d="M710 1820 c-9 -6 -10 -10 -3 -10 6 0 15 5 18 10 8 12 4 12 -15 0z"/>
<path d="M593 1806 c-13 -6 -23 -19 -23 -28 0 -25 13 -22 25 5 9 19 17 22 55
20 32 -2 41 1 30 7 -19 12 -59 11 -87 -4z"/>
<path d="M758 1813 c7 -3 16 -2 19 1 4 3 -2 6 -13 5 -11 0 -14 -3 -6 -6z"/>
<path d="M1946 1804 c-19 -18 -21 -55 -4 -72 19 -19 56 -14 68 8 10 18 8 20
-17 19 -15 0 -22 -3 -15 -6 17 -7 15 -23 -3 -23 -19 0 -37 34 -29 55 4 9 13
14 20 11 8 -3 14 -1 14 4 0 17 -19 20 -34 4z"/>
<path d="M425 1800 c3 -5 10 -10 16 -10 5 0 9 5 9 10 0 6 -7 10 -16 10 -8 0
-12 -4 -9 -10z"/>
<path d="M2037 1804 c-8 -9 3 -67 16 -79 7 -7 8 -4 4 8 -9 24 10 22 23 -3 12
-23 42 -28 34 -5 -8 19 10 19 26 0 17 -20 32 -8 24 18 -6 20 -3 19 25 -7 17
-17 31 -26 31 -22 0 21 -24 86 -31 86 -5 0 -4 -12 2 -27 l10 -28 -25 24 c-31
29 -40 24 -26 -15 11 -27 10 -27 -8 -11 -10 9 -21 14 -24 11 -3 -3 -5 2 -4 12
0 9 -5 19 -11 21 -9 3 -11 -4 -6 -29 6 -32 6 -32 -11 -15 -10 10 -16 21 -13
24 8 7 -11 43 -22 43 -4 0 -10 -3 -14 -6z m20 -36 c-3 -8 -6 -5 -6 6 -1 11 2
17 5 13 3 -3 4 -12 1 -19z"/>
<path d="M390 1785 c-7 -9 -8 -15 -2 -15 5 0 12 7 16 15 3 8 4 15 2 15 -2 0
-9 -7 -16 -15z"/>
<path d="M498 1793 c7 -3 16 -2 19 1 4 3 -2 6 -13 5 -11 0 -14 -3 -6 -6z"/>
<path d="M2680 1791 c0 -10 67 -56 98 -65 32 -10 27 -23 -13 -36 -19 -6 -35
-16 -35 -21 0 -5 16 -2 36 6 20 8 38 15 40 15 2 0 4 8 4 19 0 11 -9 21 -21 24
-13 4 -18 10 -13 18 4 8 3 10 -4 5 -6 -4 -29 5 -52 19 -22 14 -40 21 -40 16z"/>
<path d="M100 1780 c0 -5 7 -7 15 -4 8 4 15 8 15 10 0 2 -7 4 -15 4 -8 0 -15
-4 -15 -10z"/>
<path d="M185 1770 c-3 -5 -1 -10 4 -10 6 0 11 5 11 10 0 6 -2 10 -4 10 -3 0
-8 -4 -11 -10z"/>
<path d="M140 1744 c0 -14 3 -14 15 -4 8 7 15 14 15 16 0 2 -7 4 -15 4 -8 0
-15 -7 -15 -16z"/>
<path d="M550 1740 c0 -5 5 -10 10 -10 6 0 10 5 10 10 0 6 -4 10 -10 10 -5 0
-10 -4 -10 -10z"/>
<path d="M326 1732 c-3 -5 8 -9 24 -10 17 0 30 4 30 9 0 11 -47 12 -54 1z"/>
<path d="M240 1689 c-7 -11 -10 -23 -7 -25 2 -2 9 7 15 21 14 30 7 33 -8 4z"/>
<path d="M305 1700 c-3 -5 1 -10 9 -10 9 0 16 5 16 10 0 6 -4 10 -9 10 -6 0
-13 -4 -16 -10z"/>
<path d="M625 1700 c-3 -5 1 -10 9 -10 9 0 16 5 16 10 0 6 -4 10 -9 10 -6 0
-13 -4 -16 -10z"/>
<path d="M260 1680 c0 -5 7 -7 15 -4 8 4 15 8 15 10 0 2 -7 4 -15 4 -8 0 -15
-4 -15 -10z"/>
<path d="M257 1639 c-4 -16 -11 -19 -26 -14 -16 5 -19 3 -15 -8 3 -9 14 -12
30 -9 17 3 24 11 24 28 0 30 -6 31 -13 3z"/>
<path d="M760 1648 c0 -4 15 -8 33 -9 17 0 40 -2 51 -4 12 -2 15 0 9 6 -13 13
-93 19 -93 7z"/>
<path d="M160 1629 c0 -5 -4 -7 -10 -4 -5 3 -10 2 -10 -4 0 -5 5 -13 11 -16 6
-4 8 -13 5 -21 -3 -8 -2 -14 3 -14 12 0 28 21 35 50 6 19 5 21 -3 10 -7 -10
-11 -11 -11 -2 0 6 -4 12 -10 12 -5 0 -10 -5 -10 -11z m20 -19 c0 -5 -4 -10
-10 -10 -5 0 -10 5 -10 10 0 6 5 10 10 10 6 0 10 -4 10 -10z"/>
<path d="M975 1610 c3 -5 15 -10 26 -10 10 0 19 -7 19 -15 0 -17 25 -20 35 -5
3 6 0 10 -8 10 -8 0 -20 7 -27 15 -14 16 -55 21 -45 5z"/>
<path d="M1980 1570 c0 -6 7 -10 15 -10 8 0 15 2 15 4 0 2 -7 6 -15 10 -8 3
-15 1 -15 -4z"/>
<path d="M2953 1503 c9 -2 23 -2 30 0 6 3 -1 5 -18 5 -16 0 -22 -2 -12 -5z"/>
<path d="M974 1483 c6 -33 25 -69 25 -51 1 9 -4 20 -10 24 -8 5 -8 9 1 14 7 4
9 13 6 19 -11 17 -26 13 -22 -6z"/>
<path d="M1087 1486 c-4 -10 -6 -19 -5 -20 2 -1 19 -12 38 -24 l35 -23 -27 24
c-14 13 -28 33 -30 43 -4 19 -4 19 -11 0z"/>
<path d="M2910 1475 c-7 -9 -11 -17 -9 -20 3 -2 10 5 17 15 14 24 10 26 -8 5z"/>
<path d="M760 1419 c0 -5 5 -7 10 -4 6 3 10 8 10 11 0 2 -4 4 -10 4 -5 0 -10
-5 -10 -11z"/>
<path d="M2620 1406 c6 -6 18 -5 32 2 22 10 21 11 -9 9 -21 -1 -29 -5 -23 -11z"/>
<path d="M2680 1412 c0 -11 127 -72 134 -65 3 4 -24 21 -60 40 -73 36 -74 37
-74 25z"/>
<path d="M918 1383 c7 -3 16 -2 19 1 4 3 -2 6 -13 5 -11 0 -14 -3 -6 -6z"/>
<path d="M2653 1383 c9 -2 23 -2 30 0 6 3 -1 5 -18 5 -16 0 -22 -2 -12 -5z"/>
<path d="M2396 1253 c-6 -15 -9 -15 -17 -3 -9 12 -10 12 -5 -3 3 -10 6 -25 6
-33 0 -8 5 -14 12 -14 6 0 20 -7 30 -17 10 -9 18 -11 18 -5 0 6 -9 16 -21 22
-16 9 -19 17 -14 41 7 32 1 39 -9 12z"/>
<path d="M370 1253 c0 -11 -44 -33 -66 -33 -9 0 -32 -7 -51 -16 -25 -13 -37
-14 -46 -5 -15 15 -52 14 -64 -1 -19 -24 -23 -48 -9 -48 8 0 13 8 12 18 -1 21
53 30 64 11 6 -9 22 -7 66 11 40 17 59 20 62 12 2 -7 13 0 26 15 21 25 26 26
67 17 44 -10 46 -13 33 -49 -5 -15 -1 -13 18 8 23 26 27 27 67 18 33 -7 41 -7
32 2 -6 6 -32 12 -56 12 -25 0 -45 3 -45 7 0 8 -20 14 -72 24 -22 3 -38 2 -38
-3z"/>
<path d="M2320 1235 c-12 -33 -13 -42 -1 -47 5 -1 3 -12 -5 -22 -18 -25 -31
-13 -40 34 -4 26 -3 31 5 20 8 -11 11 -12 11 -2 0 7 5 10 10 7 6 -3 10 -2 10
3 0 5 -11 10 -25 10 -19 0 -25 -6 -25 -22 -1 -19 -2 -19 -11 -3 -11 19 -39 24
-39 6 0 -5 4 -8 9 -5 15 10 36 -25 34 -58 -2 -28 -1 -29 6 -6 l7 25 12 -22
c16 -28 32 -29 39 -3 5 17 8 18 21 8 13 -11 14 -10 8 10 -8 25 5 29 24 7 17
-20 30 -19 29 3 0 11 -2 13 -6 4 -4 -10 -9 -7 -20 8 -8 12 -21 19 -29 16 -9
-3 -14 2 -14 14 0 22 16 27 23 8 4 -8 6 -9 6 -2 1 6 -6 17 -14 24 -12 10 -16
8 -25 -15z"/>
<path d="M1965 1209 l-30 -6 28 -4 27 -4 -27 -30 c-37 -41 -53 -70 -45 -81 4
-5 24 -22 44 -37 34 -25 42 -27 74 -18 53 15 101 -14 93 -55 -7 -39 19 -53 96
-55 17 0 18 -2 5 -12 -18 -14 -15 -43 6 -51 10 -4 14 3 14 27 0 32 1 33 35 29
20 -2 35 0 35 6 0 6 -39 13 -86 17 -49 4 -87 12 -89 19 -2 6 -6 36 -8 67 l-5
57 81 -4 c148 -9 141 -5 188 -93 l42 -78 65 -7 c35 -4 67 -4 70 -1 3 3 -6 5
-20 5 -22 0 -31 11 -62 71 -32 65 -34 74 -21 93 18 25 19 56 3 56 -7 0 -5 5 5
11 9 5 43 9 75 7 l57 -3 3 -37 c3 -35 1 -37 -30 -41 l-33 -4 38 -1 37 -2 0 49
c0 27 -3 63 -6 80 -6 31 -8 31 -55 29 -56 -3 -61 -11 -19 -28 17 -7 30 -16 30
-21 0 -12 -14 -11 -26 1 -8 8 -18 8 -35 1 -13 -6 -89 -26 -169 -45 -145 -33
-228 -38 -257 -14 -18 15 -16 0 2 -19 8 -8 13 -19 10 -24 -4 -5 -1 -9 4 -9 6
0 11 -5 11 -11 0 -8 -4 -8 -14 0 -10 8 -30 10 -61 6 -38 -6 -51 -4 -80 16 -19
13 -35 29 -35 35 0 16 73 92 92 96 15 2 14 5 -5 13 -12 6 -35 8 -52 4z m457
-120 c-3 -22 0 -34 12 -41 9 -5 16 -22 16 -39 0 -17 3 -28 8 -26 4 3 13 -1 20
-9 8 -9 9 -14 2 -14 -6 0 -8 -5 -5 -10 4 -6 12 -7 18 -4 7 4 9 4 5 -1 -4 -4
-3 -14 3 -22 9 -10 6 -13 -17 -13 -18 0 -34 8 -42 20 -10 17 -10 20 3 20 8 0
15 4 15 10 0 5 -6 7 -14 4 -17 -7 -40 31 -30 48 4 6 3 8 -2 5 -6 -3 -15 3 -22
14 -10 16 -9 19 3 19 8 0 15 5 15 10 0 9 -14 14 -32 11 -5 0 -8 4 -8 10 0 6 9
8 21 4 19 -6 21 -4 16 14 -3 13 0 21 7 21 8 0 11 -11 8 -31z m-45 15 c-3 -3
-12 -4 -19 -1 -8 3 -5 6 6 6 11 1 17 -2 13 -5z m84 -7 c-6 -8 -9 -17 -6 -21 3
-3 -1 -1 -7 4 -10 9 -10 13 2 20 21 13 24 12 11 -3z m-124 -3 c-3 -3 -12 -4
-19 -1 -8 3 -5 6 6 6 11 1 17 -2 13 -5z"/>
<path d="M2158 1179 c3 -22 1 -30 -7 -25 -6 4 -11 2 -11 -3 0 -21 -18 -10 -24
14 -5 21 -12 25 -36 23 -30 -2 -42 -29 -20 -43 6 -3 10 -11 10 -17 0 -7 -6 -6
-15 2 -8 7 -15 19 -15 26 0 8 -4 14 -9 14 -12 0 -2 -82 12 -95 6 -7 7 0 3 20
-7 29 -7 29 8 10 11 -14 15 -16 16 -6 0 8 8 23 18 34 9 11 11 17 5 13 -9 -5
-13 0 -13 13 0 32 14 25 35 -16 14 -28 20 -33 22 -20 5 20 19 23 26 5 3 -7 6
8 6 35 1 26 -3 47 -7 47 -5 0 -6 -14 -4 -31z"/>
<path d="M423 1189 c-6 -6 -17 -11 -25 -13 -8 -1 -24 -10 -34 -21 -18 -18 -18
-18 10 -11 33 8 76 35 76 47 0 12 -14 11 -27 -2z"/>
<path d="M515 1180 c3 -5 16 -10 28 -10 18 0 19 2 7 10 -20 13 -43 13 -35 0z"/>
<path d="M590 1169 c0 -5 5 -7 10 -4 6 3 10 8 10 11 0 2 -4 4 -10 4 -5 0 -10
-5 -10 -11z"/>
<path d="M493 1147 c-45 -13 -71 -32 -60 -44 4 -3 13 1 20 11 7 10 17 16 22
15 12 -3 65 18 65 26 0 3 -1 5 -2 4 -2 -1 -22 -6 -45 -12z"/>
<path d="M725 1150 c-3 -5 -1 -10 4 -10 6 0 11 5 11 10 0 6 -2 10 -4 10 -3 0
-8 -4 -11 -10z"/>
<path d="M266 1128 c-6 -10 -19 -18 -28 -18 -10 0 -18 -5 -18 -11 0 -7 -7 -17
-16 -24 -14 -10 -11 -11 20 -11 20 1 36 4 36 9 0 4 -4 7 -10 7 -25 0 -6 20 35
37 25 10 45 20 45 23 0 13 -54 3 -64 -12z"/>
<path d="M94 1124 c-18 -15 -18 -15 6 -10 14 3 29 6 33 6 5 0 5 5 2 10 -9 14
-18 13 -41 -6z"/>
<path d="M335 1110 c3 -5 8 -10 11 -10 2 0 4 5 4 10 0 6 -5 10 -11 10 -5 0 -7
-4 -4 -10z"/>
<path d="M361 1116 c12 -10 59 -15 59 -6 0 5 -14 10 -32 10 -17 0 -29 -2 -27
-4z"/>
<path d="M153 1093 c-3 -10 -8 -21 -10 -25 -2 -5 2 -8 10 -8 9 0 15 10 15 25
0 29 -6 32 -15 8z"/>
<path d="M2915 1100 c-3 -5 -1 -10 4 -10 6 0 11 5 11 10 0 6 -2 10 -4 10 -3 0
-8 -4 -11 -10z"/>
<path d="M81 1081 c-8 -5 -9 -11 -3 -15 6 -3 13 -2 17 3 3 6 12 8 20 4 8 -3
15 0 15 6 0 13 -29 14 -49 2z"/>
<path d="M2740 1080 c0 -5 5 -10 11 -10 5 0 7 5 4 10 -3 6 -8 10 -11 10 -2 0
-4 -4 -4 -10z"/>
<path d="M2693 1073 c9 -2 23 -2 30 0 6 3 -1 5 -18 5 -16 0 -22 -2 -12 -5z"/>
<path d="M2955 1060 c-3 -5 3 -10 15 -10 12 0 18 5 15 10 -3 6 -10 10 -15 10
-5 0 -12 -4 -15 -10z"/>
<path d="M385 1051 c-3 -6 3 -9 14 -8 11 0 17 5 15 9 -7 11 -22 10 -29 -1z"/>
<path d="M2166 1035 c4 -8 8 -15 10 -15 2 0 4 7 4 15 0 8 -4 15 -10 15 -5 0
-7 -7 -4 -15z"/>
<path d="M2203 1043 c-7 -3 -13 -9 -13 -15 0 -6 6 -6 15 2 12 10 18 10 30 0
12 -10 15 -10 15 2 0 14 -24 20 -47 11z"/>
<path d="M2490 1040 c-12 -8 -11 -10 6 -10 16 0 33 -18 63 -66 35 -55 44 -64
56 -54 11 9 15 9 15 1 0 -6 -5 -11 -11 -11 -6 0 -8 -10 -5 -22 3 -13 3 -17 0
-10 -3 7 -25 12 -52 12 -46 1 -231 27 -203 29 8 1 12 4 8 7 -12 13 -49 -9 -58
-35 -9 -25 -26 -35 -94 -58 -16 -5 -29 -15 -27 -22 1 -7 -1 -10 -6 -7 -5 3
-24 -10 -42 -29 -39 -40 -34 -47 6 -10 31 29 49 33 36 8 -5 -10 -10 -38 -11
-63 -2 -25 -8 -48 -14 -52 -6 -4 -9 -9 -6 -12 3 -3 13 0 23 7 12 9 18 32 22
82 5 71 18 95 53 95 11 0 12 -3 5 -8 -16 -10 -23 -102 -8 -102 6 0 14 27 18
62 3 34 8 64 11 67 3 3 15 -4 26 -16 17 -16 19 -27 13 -58 -8 -42 -17 -53 -86
-97 -46 -29 -61 -48 -37 -48 6 0 28 14 49 30 37 29 64 38 73 23 3 -5 8 -23 12
-40 5 -26 3 -33 -8 -33 -14 0 -27 -28 -27 -62 0 -10 5 -18 10 -18 6 0 10 9 10
21 0 11 4 17 10 14 6 -4 8 -15 5 -25 -3 -10 -1 -21 5 -25 21 -13 10 -32 -15
-27 -23 4 -24 6 -8 17 14 10 9 11 -28 5 -24 -4 -57 -13 -74 -20 -16 -6 -60
-13 -97 -15 -81 -4 -88 -8 -88 -46 0 -28 -1 -29 -54 -29 -29 0 -69 -7 -89 -15
-31 -13 -36 -13 -47 0 -9 11 -33 15 -84 15 -69 0 -73 -1 -106 -35 -26 -27 -42
-35 -68 -35 -33 0 -34 1 -30 35 3 29 1 35 -15 35 -13 0 -17 -5 -13 -16 3 -9 6
-38 6 -65 0 -31 4 -48 10 -44 6 3 10 15 10 26 0 12 7 19 20 19 14 0 18 -5 13
-17 -5 -12 -2 -15 10 -10 20 8 29 -4 16 -23 -6 -10 -9 -11 -9 -2 0 16 -17 15
-23 -2 -7 -18 34 -13 83 12 22 11 40 16 40 11 0 -5 -23 -20 -51 -35 -28 -14
-49 -27 -47 -30 3 -2 19 3 37 12 17 9 38 17 44 18 7 1 24 12 37 24 28 25 60
29 60 6 0 -8 5 -12 11 -9 6 4 21 -3 33 -14 13 -13 30 -19 39 -16 10 4 20 -1
27 -15 6 -11 15 -18 21 -15 5 4 7 9 5 13 -2 4 21 7 52 6 51 -1 52 0 9 3 -30 3
-45 8 -41 15 4 6 -1 6 -14 -1 -28 -15 -33 -14 -30 7 4 23 19 32 44 26 12 -3
25 0 29 6 5 8 13 6 26 -6 13 -12 19 -13 19 -4 0 7 7 10 15 6 8 -3 15 -1 15 4
0 20 17 9 29 -17 10 -21 14 -24 21 -13 6 9 33 16 76 18 57 4 70 2 81 -14 12
-16 13 -16 13 9 0 31 -10 34 -179 41 -90 4 -117 2 -128 -10 -12 -12 -18 -12
-45 2 -22 11 -48 15 -85 12 -65 -6 -69 5 -7 22 41 12 48 11 72 -7 42 -30 52
-35 52 -24 0 5 -13 18 -30 28 -16 9 -30 20 -30 23 0 4 23 12 50 19 56 14 105
8 97 -13 -3 -7 -1 -19 4 -27 6 -9 9 10 9 54 l0 67 115 0 c85 0 115 -3 115 -12
0 -10 2 -10 8 -1 8 13 137 22 148 10 4 -4 0 -7 -10 -7 -14 0 -16 -6 -11 -37 9
-55 14 -65 25 -58 11 7 13 114 2 131 -4 6 -20 15 -36 21 -35 11 -45 39 -47
130 -1 56 2 68 37 124 22 34 44 61 49 60 6 0 11 -34 12 -74 2 -94 2 -94 13
-77 5 8 35 19 67 26 50 10 59 9 69 -5 11 -14 20 -14 83 -3 39 7 85 12 101 12
17 0 30 5 30 10 0 6 -3 9 -7 8 -5 -2 -28 11 -53 28 -61 42 -71 47 -69 37 6
-37 -1 -43 -58 -43 -31 0 -54 -3 -50 -6 10 -10 107 -9 111 1 3 6 5 3 5 -7 1
-9 7 -19 14 -22 6 -3 -5 -3 -26 0 -26 3 -37 2 -32 -5 3 -7 -2 -11 -14 -11 -12
0 -21 4 -21 9 0 15 -26 20 -64 11 -70 -16 -96 10 -82 84 6 34 8 34 79 46 85
14 107 24 107 48 0 13 9 18 32 20 37 3 52 12 19 12 -14 0 -20 4 -15 11 4 8 0
8 -15 0 -17 -10 -22 -9 -27 2 -3 8 -13 13 -23 10 -24 -6 -47 50 -27 66 7 6 15
9 17 6 3 -2 23 -5 44 -6 30 -2 48 -11 71 -35 18 -18 34 -30 38 -27 3 4 6 3 6
-1 0 -3 -10 -11 -22 -16 -23 -9 -23 -9 2 -9 54 -1 54 14 -2 61 -48 40 -61 46
-128 55 -41 6 -82 14 -90 17 -8 3 -22 1 -30 -4z m90 -32 c0 -4 -7 -8 -15 -8
-8 0 -15 4 -15 8 0 5 7 9 15 9 8 0 15 -4 15 -9z m-176 -131 c3 4 6 -8 6 -25 0
-22 -5 -32 -16 -32 -20 0 -45 25 -36 35 4 5 2 5 -4 2 -7 -4 -14 0 -17 7 -7 18
12 26 39 15 12 -4 25 -5 28 -2z m104 -15 c54 2 68 0 59 -8 -16 -15 -137 -28
-137 -15 0 5 -3 18 -6 28 -4 13 -3 14 4 5 7 -10 29 -13 80 -10z m-123 -55 c4
5 2 -2 -4 -15 -7 -13 -17 -20 -23 -16 -7 5 -9 2 -5 -9 7 -18 -8 -33 -18 -17
-9 14 14 52 27 44 7 -4 8 -3 4 4 -4 7 -13 12 -20 12 -17 0 -48 35 -39 43 4 4
21 -6 38 -23 17 -17 35 -27 40 -23z m320 -65 c-3 -3 7 -11 22 -18 l28 -12 -31
-1 c-20 -1 -34 5 -38 15 -10 25 -7 34 9 27 9 -3 13 -8 10 -11z m-428 -264 c-4
-13 -34 -18 -52 -9 -5 3 1 8 15 12 38 11 42 10 37 -3z m-574 -112 c12 12 89
14 110 2 19 -10 14 -13 -43 -34 -34 -13 -68 -24 -74 -23 -30 4 -44 -3 -49 -21
-3 -13 -10 -18 -21 -14 -25 10 -19 22 24 50 34 23 38 29 28 43 -11 14 -11 14
3 4 9 -7 19 -10 22 -7z m17 -76 c0 -5 -2 -10 -4 -10 -3 0 -8 5 -11 10 -3 6 -1
10 4 10 6 0 11 -4 11 -10z m103 -18 c9 -8 20 -12 25 -7 4 4 1 10 -5 12 -7 3
-13 9 -13 14 0 14 24 0 39 -23 11 -18 11 -20 -2 -15 -9 3 -17 1 -20 -6 -4 -12
-65 31 -66 46 -1 9 16 1 42 -21z m74 12 c-3 -3 -12 -4 -19 -1 -8 3 -5 6 6 6
11 1 17 -2 13 -5z"/>
<path d="M2277 1004 c-4 -21 -2 -43 3 -48 5 -5 7 1 4 15 -5 23 -5 23 10 5 16
-20 16 -20 16 0 -1 10 -7 30 -14 43 -13 23 -13 23 -19 -15z"/>
<path d="M2261 1014 c0 -11 3 -14 6 -6 3 7 2 16 -1 19 -3 4 -6 -2 -5 -13z"/>
<path d="M2340 1015 c0 -8 4 -15 10 -15 5 0 7 7 4 15 -4 8 -8 15 -10 15 -2 0
-4 -7 -4 -15z"/>
<path d="M2211 1013 c0 -5 4 -17 9 -28 8 -18 9 -17 9 8 1 15 -3 27 -9 27 -5 0
-10 -3 -9 -7z"/>
<path d="M2321 1005 c0 -11 4 -29 9 -40 9 -20 9 -20 9 0 0 11 -4 29 -9 40 -9
20 -9 20 -9 0z"/>
<path d="M520 996 c-6 -8 -24 -17 -38 -19 -24 -4 -24 -4 6 -6 20 0 39 6 52 19
14 14 16 20 6 20 -7 0 -19 -6 -26 -14z"/>
<path d="M575 1000 c-3 -5 1 -10 10 -10 9 0 13 5 10 10 -3 6 -8 10 -10 10 -2
0 -7 -4 -10 -10z"/>
<path d="M1922 970 c-34 -22 -68 -40 -75 -40 -7 -1 17 -15 53 -33 l65 -32 125
6 c69 3 119 6 113 7 -7 1 -13 10 -13 20 -1 16 -1 16 -14 -1 -20 -26 -205 -22
-258 6 l-38 19 50 34 c51 35 85 43 93 22 4 -10 8 -10 15 1 6 8 19 12 30 9 13
-4 23 0 26 8 4 11 -7 14 -52 14 -49 0 -66 -6 -120 -40z"/>
<path d="M2176 977 c3 -10 9 -15 12 -12 3 3 0 11 -7 18 -10 9 -11 8 -5 -6z"/>
<path d="M2350 985 c0 -5 5 -17 10 -25 5 -8 10 -10 10 -5 0 6 -5 17 -10 25 -5
8 -10 11 -10 5z"/>
<path d="M206 971 c-6 -9 72 -21 138 -21 56 0 38 11 -26 15 -29 2 -65 7 -80
10 -15 3 -29 1 -32 -4z"/>
<path d="M425 970 c-3 -5 1 -10 9 -10 9 0 16 5 16 10 0 6 -4 10 -9 10 -6 0
-13 -4 -16 -10z"/>
<path d="M652 964 c-11 -12 -9 -14 13 -15 37 -2 43 -3 51 -11 4 -5 11 -8 16
-8 5 0 3 7 -6 15 -8 8 -24 15 -34 15 -11 0 -22 4 -24 9 -1 5 -9 3 -16 -5z"/>
<path d="M2246 965 c-3 -8 -1 -15 4 -15 6 0 10 7 10 15 0 8 -2 15 -4 15 -2 0
-6 -7 -10 -15z"/>
<path d="M2590 971 c0 -6 4 -13 10 -16 6 -3 7 1 4 9 -7 18 -14 21 -14 7z"/>
<path d="M2650 973 c8 -3 19 -11 23 -17 6 -7 7 -6 4 4 -2 8 -12 16 -23 17 -13
2 -15 1 -4 -4z"/>
<path d="M30 960 c0 -13 11 -13 30 0 12 8 11 10 -7 10 -13 0 -23 -4 -23 -10z"/>
<path d="M100 958 c0 -11 78 -10 84 1 4 5 -14 9 -39 8 -25 -1 -45 -5 -45 -9z"/>
<path d="M574 959 c-3 -6 -1 -16 6 -22 10 -9 11 -9 5 2 -6 11 -3 13 13 9 25
-7 30 7 6 16 -21 8 -22 8 -30 -5z"/>
<path d="M2635 950 c3 -5 11 -10 16 -10 6 0 7 5 4 10 -3 6 -11 10 -16 10 -6 0
-7 -4 -4 -10z"/>
<path d="M513 915 c0 -8 6 -15 13 -15 8 0 11 6 8 15 -4 8 -9 15 -13 15 -4 0
-8 -7 -8 -15z"/>
<path d="M1953 913 c9 -14 47 -24 47 -12 0 5 -4 9 -9 9 -5 0 -17 3 -27 7 -11
4 -15 3 -11 -4z"/>
<path d="M2090 910 c0 -5 5 -10 11 -10 5 0 7 5 4 10 -3 6 -8 10 -11 10 -2 0
-4 -4 -4 -10z"/>
<path d="M651 901 c-10 -6 -10 -10 -1 -16 13 -8 24 -1 19 14 -3 6 -10 7 -18 2z"/>
<path d="M2038 903 c7 -3 16 -2 19 1 4 3 -2 6 -13 5 -11 0 -14 -3 -6 -6z"/>
<path d="M2948 903 c6 -2 18 -2 25 0 6 3 1 5 -13 5 -14 0 -19 -2 -12 -5z"/>
<path d="M2770 892 c-8 -3 -37 -27 -63 -54 -27 -28 -53 -46 -59 -42 -7 4 -8 3
-4 -4 10 -17 39 -2 96 52 52 48 58 58 30 48z"/>
<path d="M331 874 c0 -11 3 -14 6 -6 3 7 2 16 -1 19 -3 4 -6 -2 -5 -13z"/>
<path d="M2680 875 c-16 -19 -3 -19 30 0 24 13 24 14 4 15 -12 0 -27 -7 -34
-15z"/>
<path d="M770 870 c0 -5 5 -10 10 -10 6 0 10 5 10 10 0 6 -4 10 -10 10 -5 0
-10 -4 -10 -10z"/>
<path d="M458 843 c7 -3 16 -2 19 1 4 3 -2 6 -13 5 -11 0 -14 -3 -6 -6z"/>
<path d="M397 833 c-4 -3 -7 -11 -7 -17 0 -6 5 -5 12 2 6 6 9 14 7 17 -3 3 -9
2 -12 -2z"/>
<path d="M1553 833 c-13 -2 -23 -9 -23 -14 0 -13 13 -11 36 6 10 8 17 14 14
13 -3 0 -15 -3 -27 -5z"/>
<path d="M175 820 c-46 -5 -30 -7 69 -8 134 -2 169 5 56 11 -36 1 -92 0 -125
-3z"/>
<path d="M805 809 c-4 -6 -5 -12 -2 -15 2 -3 7 2 10 11 7 17 1 20 -8 4z"/>
<path d="M1790 810 c0 -5 5 -10 11 -10 5 0 7 5 4 10 -3 6 -8 10 -11 10 -2 0
-4 -4 -4 -10z"/>
<path d="M945 800 c-3 -5 -1 -10 4 -10 6 0 11 5 11 10 0 6 -2 10 -4 10 -3 0
-8 -4 -11 -10z"/>
<path d="M1928 803 c7 -3 16 -2 19 1 4 3 -2 6 -13 5 -11 0 -14 -3 -6 -6z"/>
<path d="M2898 803 c6 -2 18 -2 25 0 6 3 1 5 -13 5 -14 0 -19 -2 -12 -5z"/>
<path d="M1470 779 c0 -5 5 -7 10 -4 6 3 10 8 10 11 0 2 -4 4 -10 4 -5 0 -10
-5 -10 -11z"/>
<path d="M2555 779 c-4 -6 -5 -12 -2 -15 2 -3 7 2 10 11 7 17 1 20 -8 4z"/>
<path d="M2595 780 c3 -5 8 -10 11 -10 2 0 4 5 4 10 0 6 -5 10 -11 10 -5 0 -7
-4 -4 -10z"/>
<path d="M2621 754 c0 -11 3 -14 6 -6 3 7 2 16 -1 19 -3 4 -6 -2 -5 -13z"/>
<path d="M570 740 c0 -5 5 -10 11 -10 5 0 7 5 4 10 -3 6 -8 10 -11 10 -2 0 -4
-4 -4 -10z"/>
<path d="M2397 721 c-3 -13 -1 -18 9 -14 7 2 10 11 7 19 -7 19 -10 18 -16 -5z"/>
<path d="M2090 710 c0 -5 5 -10 10 -10 6 0 10 5 10 10 0 6 -4 10 -10 10 -5 0
-10 -4 -10 -10z"/>
<path d="M363 692 c-13 -2 -23 -8 -23 -13 0 -6 -4 -7 -10 -4 -6 4 -7 -1 -3
-11 5 -13 3 -15 -7 -9 -10 6 -12 4 -7 -8 8 -21 -12 -35 -59 -42 -21 -3 -55 -8
-74 -11 -19 -4 -48 -8 -65 -10 -69 -8 -115 -22 -115 -35 0 -6 8 -8 18 -5 23 7
184 33 255 41 50 6 57 9 57 29 0 12 6 30 13 41 12 16 22 17 78 11 35 -4 92
-11 126 -15 49 -5 68 -12 92 -35 17 -16 28 -33 25 -37 -3 -5 1 -6 8 -4 8 3 88
-22 179 -55 90 -33 171 -60 180 -60 8 0 33 8 55 19 21 10 84 27 139 36 56 11
109 26 120 35 11 10 27 15 35 13 46 -14 46 -14 26 -29 -22 -15 -10 -19 13 -5
20 13 -3 41 -33 41 -20 1 -20 1 -3 15 33 24 113 38 149 26 36 -13 43 -9 34 16
-6 14 -9 15 -15 4 -5 -8 -11 -9 -15 -3 -7 11 -75 10 -94 -1 -7 -5 -26 -9 -42
-9 -16 -1 -27 -4 -25 -8 9 -15 -45 -53 -87 -61 -24 -5 -74 -16 -113 -25 -38
-8 -78 -16 -87 -17 -9 -1 -14 -5 -12 -9 7 -12 -42 -21 -68 -12 -13 4 -23 5
-24 3 0 -2 -9 3 -19 11 -10 8 -23 15 -29 15 -30 1 -76 18 -76 27 0 6 -3 9 -6
6 -12 -12 -163 49 -200 80 -63 53 -62 52 -68 39 -3 -8 -11 -5 -22 11 -9 12
-24 22 -33 22 -14 0 -14 -2 -1 -10 24 -15 8 -19 -40 -9 -58 13 -100 16 -127
11z"/>
<path d="M2833 693 c9 -2 25 -2 35 0 9 3 1 5 -18 5 -19 0 -27 -2 -17 -5z"/>
<path d="M2908 693 c6 -2 18 -2 25 0 6 3 1 5 -13 5 -14 0 -19 -2 -12 -5z"/>
<path d="M2978 693 c7 -3 16 -2 19 1 4 3 -2 6 -13 5 -11 0 -14 -3 -6 -6z"/>
<path d="M2775 671 l-50 -6 61 -7 c73 -7 122 -30 134 -63 5 -14 15 -25 22 -25
7 0 24 -3 37 -7 17 -4 22 -2 19 7 -2 7 -12 14 -22 16 -29 4 -49 14 -43 21 9 9
-53 53 -75 53 -10 0 -18 5 -18 10 0 6 -3 9 -7 8 -5 0 -30 -4 -58 -7z"/>
<path d="M2293 640 c-1 -11 2 -22 8 -25 5 -4 9 3 9 14 0 26 -15 35 -17 11z"/>
<path d="M2372 588 c4 -47 10 -74 19 -77 7 -2 23 -14 35 -26 19 -20 32 -22 86
-20 74 3 101 12 94 31 -6 17 6 18 21 3 15 -15 -11 -44 -28 -33 -8 5 -9 3 -4
-6 6 -10 4 -12 -8 -7 -22 8 -22 -2 1 -19 24 -19 37 -17 21 3 -13 15 -12 15 8
4 13 -6 22 -16 20 -22 -1 -6 12 -13 28 -14 29 -4 29 -3 10 11 -11 8 -20 19
-20 25 0 5 -6 14 -14 18 -8 6 -9 11 -3 15 6 4 35 -14 64 -40 75 -66 77 -68 40
-50 -38 20 -58 16 -127 -27 l-50 -31 -260 0 c-143 0 -215 -1 -160 -3 97 -4
100 -4 113 -30 6 -15 12 -33 12 -39 0 -7 4 -15 9 -18 5 -4 7 11 4 34 l-6 40
50 0 c43 0 51 -3 64 -27 20 -36 14 -63 -12 -56 -14 4 -19 0 -19 -13 0 -16 2
-17 10 -4 5 8 10 10 10 4 0 -7 6 -14 14 -17 7 -3 13 0 13 6 -1 30 4 47 12 47
10 0 56 -71 53 -83 -1 -4 2 -7 7 -7 15 0 18 34 5 59 l-12 24 -5 -24 c-4 -24
-4 -24 -6 2 0 14 -8 34 -16 45 -13 16 -16 17 -25 4 -8 -12 -10 -11 -10 8 0 20
3 22 40 16 33 -5 40 -4 40 10 0 9 8 16 18 16 13 0 14 -2 3 -9 -7 -5 -10 -14
-7 -20 4 -6 12 -9 17 -5 16 9 59 -25 59 -46 0 -11 5 -20 10 -20 13 0 13 1 -5
44 -8 20 -21 36 -28 37 -6 0 -1 5 12 10 14 5 31 7 38 5 7 -3 13 -1 13 4 0 6
11 10 24 10 27 0 43 16 24 23 -8 2 -2 10 14 17 24 11 34 10 76 -7 48 -20 48
-20 49 0 1 11 -16 47 -38 80 -31 46 -37 62 -27 68 21 14 41 10 35 -6 -4 -8 -1
-17 5 -21 6 -4 8 -3 5 3 -4 6 0 14 9 17 8 3 12 10 9 16 -11 17 -58 11 -102
-14 -40 -23 -42 -23 -58 -6 -15 17 -13 18 32 28 l48 10 -63 -1 c-53 -2 -66 2
-78 18 -22 29 -18 33 41 40 30 4 55 11 55 16 0 5 10 19 22 31 19 19 19 21 2
14 -10 -5 -27 -11 -37 -14 -15 -4 -16 -7 -5 -13 10 -7 8 -9 -7 -10 -11 -1 -26
-1 -33 0 -8 1 -25 -5 -39 -14 -23 -16 -28 -15 -113 19 -48 20 -91 36 -95 36
-4 0 -5 -32 -3 -72z m72 31 c40 -20 43 -25 41 -55 -2 -19 1 -34 6 -34 5 0 7
11 3 24 -6 26 13 46 26 26 4 -6 10 -10 13 -8 7 4 51 -52 53 -69 1 -7 -6 -13
-17 -13 -11 0 -19 7 -19 16 0 9 5 12 13 8 7 -5 6 0 -3 11 -14 17 -15 17 -20
-11 -3 -20 -11 -30 -25 -31 -25 -3 -113 25 -121 39 -4 6 1 8 16 3 l22 -7 -21
21 c-14 14 -20 30 -17 46 3 14 1 25 -3 25 -4 0 -8 7 -8 15 0 20 8 19 61 -6z
m351 -239 c5 -8 -19 9 -53 39 -55 48 -60 55 -45 66 15 11 22 6 53 -39 20 -28
40 -58 45 -66z"/>
<path d="M2414 596 c-3 -8 -4 -23 -2 -33 3 -11 6 -6 9 15 6 34 2 42 -7 18z"/>
<path d="M2430 566 c0 -14 5 -26 10 -26 6 0 10 9 10 19 0 11 -4 23 -10 26 -6
4 -10 -5 -10 -19z"/>
<path d="M2450 525 c-11 -13 -10 -14 4 -9 9 4 18 0 22 -9 3 -8 13 -14 22 -12
9 2 22 4 27 4 6 1 3 5 -5 10 -8 6 -18 7 -24 4 -5 -3 -15 1 -21 11 -11 14 -14
15 -25 1z"/>
<path d="M2575 639 c-4 -6 -5 -12 -2 -15 2 -3 7 2 10 11 7 17 1 20 -8 4z"/>
<path d="M563 627 c5 -15 37 -22 37 -9 0 5 -9 12 -21 15 -13 3 -19 1 -16 -6z"/>
<path d="M2733 626 c7 -7 30 -15 52 -19 22 -3 57 -9 79 -13 30 -5 38 -4 34 6
-2 8 -10 16 -18 18 -7 3 -10 0 -6 -7 11 -17 -5 -13 -26 6 -24 21 -137 30 -115
9z"/>
<path d="M1628 605 c51 -24 62 -37 42 -50 -11 -7 -4 -25 10 -25 5 0 7 8 3 18
-5 14 -2 14 18 -4 13 -12 47 -27 74 -34 28 -7 76 -21 109 -31 57 -18 132 -23
141 -9 3 4 -19 10 -48 13 -125 13 -237 52 -288 101 -21 20 -42 36 -46 37 -5 0
-21 2 -38 4 -24 3 -19 -1 23 -20z"/>
<path d="M2234 619 c-3 -6 -2 -15 3 -20 5 -5 9 -1 10 11 2 22 -2 25 -13 9z"/>
<path d="M2700 615 c0 -16 16 -20 24 -6 3 5 -1 11 -9 15 -9 3 -15 0 -15 -9z"/>
<path d="M476 605 c-4 -12 3 -15 33 -15 22 0 48 -3 58 -6 10 -3 3 3 -15 15
-38 25 -68 27 -76 6z"/>
<path d="M2193 555 c0 -33 2 -48 4 -32 2 15 9 27 14 27 5 0 9 8 9 18 0 14 -2
14 -9 3 -7 -11 -10 -7 -14 15 -2 16 -4 2 -4 -31z"/>
<path d="M368 593 c12 -2 32 -2 45 0 12 2 2 4 -23 4 -25 0 -35 -2 -22 -4z"/>
<path d="M1552 580 c-12 -12 -22 -22 -22 -23 0 -2 15 -4 33 -5 17 -1 46 -4 62
-7 l30 -5 -30 15 c-16 8 -41 12 -53 9 -15 -3 -21 -1 -17 6 3 5 15 10 26 10 10
0 19 5 19 10 0 17 -25 11 -48 -10z"/>
<path d="M600 580 c0 -5 7 -10 16 -10 8 0 12 5 9 10 -3 6 -10 10 -16 10 -5 0
-9 -4 -9 -10z"/>
<path d="M1450 560 c0 -5 9 -10 19 -10 11 0 28 -3 38 -7 16 -6 16 -5 4 10 -14
18 -61 23 -61 7z"/>
<path d="M1368 543 c7 -3 16 -2 19 1 4 3 -2 6 -13 5 -11 0 -14 -3 -6 -6z"/>
<path d="M1540 531 c0 -10 30 -24 37 -17 3 2 -5 9 -16 16 -12 6 -21 7 -21 1z"/>
<path d="M2230 514 c0 -8 5 -12 10 -9 6 4 8 11 5 16 -9 14 -15 11 -15 -7z"/>
<path d="M1330 510 c0 -5 5 -10 10 -10 6 0 10 5 10 10 0 6 -4 10 -10 10 -5 0
-10 -4 -10 -10z"/>
<path d="M2825 399 c0 -66 -3 -123 -7 -126 -5 -2 -8 -9 -8 -14 0 -6 4 -8 9 -5
6 4 7 -46 4 -124 -4 -94 -3 -130 6 -130 6 0 11 10 11 23 1 12 1 76 1 142 0
174 -3 167 80 195 39 14 73 28 76 32 7 13 -16 9 -50 -8 l-32 -15 25 20 c14 11
33 23 43 27 15 5 25 24 11 24 -3 0 -32 -18 -65 -40 -32 -23 -59 -38 -59 -35 0
4 20 35 45 70 36 49 50 62 65 58 11 -3 20 0 20 6 0 6 -12 11 -27 11 -23 0 -35
-11 -65 -58 -20 -31 -40 -65 -43 -74 -12 -32 -23 -19 -19 22 2 22 6 58 8 80 3
32 1 40 -12 40 -15 0 -17 -15 -17 -121z"/>
<path d="M2870 510 c0 -5 14 -10 32 -10 36 0 35 4 -4 14 -17 4 -28 2 -28 -4z"/>
<path d="M1221 489 c-41 -10 -82 -26 -92 -35 -11 -9 -26 -13 -37 -9 -11 3 -23
1 -26 -4 -4 -6 -13 -8 -21 -4 -9 3 -15 -1 -15 -10 0 -12 8 -13 46 -6 25 5 50
6 56 3 5 -3 26 5 46 18 20 14 61 33 90 42 50 17 65 27 40 25 -7 0 -46 -9 -87
-20z"/>
<path d="M583 432 c-77 -2 -123 -7 -123 -13 0 -6 12 -9 28 -7 20 2 27 -1 26
-14 0 -10 -1 -39 -2 -64 -1 -25 -6 -43 -10 -40 -5 3 -19 32 -33 66 l-24 60
-60 -1 c-50 0 -56 -2 -35 -10 14 -6 37 -8 51 -5 23 4 29 -1 49 -45 13 -27 29
-54 36 -60 8 -6 11 -27 8 -55 -2 -26 0 -44 6 -44 10 0 14 18 10 59 -1 17 2 22
13 18 10 -4 14 6 16 41 6 102 3 96 39 99 17 2 32 0 32 -3 0 -4 -14 -31 -31
-61 -17 -30 -29 -57 -26 -60 6 -5 49 60 68 100 9 19 18 22 70 23 33 0 65 6 72
13 9 9 4 11 -23 9 -19 -2 -90 -4 -157 -6z"/>
<path d="M680 355 c-68 -47 -127 -90 -131 -96 -4 -6 -12 -9 -18 -5 -7 5 -9 1
-5 -8 8 -21 17 -20 32 4 10 16 16 18 32 10 23 -12 41 -13 21 -1 -17 11 -6 32
13 25 19 -7 369 137 358 148 -4 4 -19 3 -33 -3 -97 -43 -319 -136 -319 -133 0
10 202 136 212 131 7 -2 31 -1 53 3 37 7 34 8 -26 9 l-65 1 -124 -85z"/>
<path d="M2360 418 c0 -15 5 -30 10 -33 13 -8 13 25 0 45 -8 12 -10 9 -10 -12z"/>
<path d="M2088 423 c6 -2 12 -15 12 -28 0 -40 10 -57 26 -44 19 16 18 36 -3
48 -16 9 -16 12 -3 21 12 7 8 10 -15 9 -16 0 -24 -3 -17 -6z m42 -53 c0 -5 -2
-10 -4 -10 -3 0 -8 5 -11 10 -3 6 -1 10 4 10 6 0 11 -4 11 -10z"/>
<path d="M2152 388 l-2 -43 14 30 c7 17 11 36 8 43 -9 25 -18 11 -20 -30z"/>
<path d="M2190 402 c0 -20 -4 -31 -10 -27 -5 3 -10 1 -10 -4 0 -6 7 -11 15
-11 8 0 15 5 15 10 0 7 7 7 21 0 11 -6 28 -9 37 -7 16 4 16 5 0 6 -14 1 -16 7
-11 31 4 25 2 30 -13 30 -15 0 -16 -2 -5 -9 10 -6 11 -14 3 -26 -9 -17 -11
-15 -25 11 l-16 29 -1 -33z"/>
<path d="M2284 395 c1 -26 5 -35 18 -35 9 0 19 -6 21 -12 4 -10 6 -10 6 0 1 7
-5 15 -13 18 -8 3 -13 17 -12 35 1 16 -3 29 -9 29 -7 0 -11 -15 -11 -35z"/>
<path d="M2330 411 c0 -34 12 -51 34 -50 16 1 17 2 4 6 -12 3 -18 14 -18 34 0
16 -4 29 -10 29 -5 0 -10 -9 -10 -19z"/>
<path d="M262 400 c-12 -19 -14 -19 -42 -5 -49 25 -220 17 -220 -11 0 -18 8
-17 60 1 23 8 55 15 70 15 34 0 100 -27 100 -41 0 -5 4 -8 9 -4 6 3 34 -6 63
-20 89 -44 145 -63 159 -54 7 4 11 9 9 11 -3 2 -42 31 -87 66 -45 34 -88 62
-95 62 -7 0 -19 -9 -26 -20z m136 -75 c28 -19 52 -36 52 -39 0 -2 -41 16 -91
41 -77 37 -89 46 -79 58 11 13 16 12 39 -5 14 -11 50 -36 79 -55z"/>
<path d="M1021 388 c7 -13 14 -16 22 -10 13 10 107 -15 107 -28 0 -10 -52 -20
-101 -20 -21 0 -41 -4 -44 -10 -3 -5 -25 -10 -48 -11 -23 -1 -53 -5 -67 -10
-48 -16 236 11 305 29 20 6 52 2 100 -12 82 -23 82 -23 67 -38 -7 -7 -12 -8
-12 -2 0 7 -24 9 -62 7 -35 -2 -192 -4 -350 -6 -157 -1 -290 -5 -294 -9 -7 -8
24 -10 153 -12 58 -1 84 -9 71 -22 -4 -3 -16 0 -28 6 -12 6 -24 9 -26 7 -6 -6
54 -37 71 -37 15 0 25 -22 25 -56 0 -22 -4 -24 -44 -24 -25 0 -48 -5 -52 -11
-5 -9 1 -10 20 -5 18 4 25 3 21 -4 -3 -5 1 -10 10 -10 10 0 13 5 9 12 -5 8 -2
9 10 5 10 -4 20 -7 22 -7 2 0 5 -26 6 -57 1 -46 3 -37 8 37 4 52 7 112 5 132
-2 30 1 36 16 35 22 -1 25 -13 7 -20 -10 -3 -10 -7 -1 -17 6 -7 19 -10 30 -6
14 6 15 9 4 15 -11 7 -9 11 7 20 29 15 37 14 22 -4 -11 -14 -10 -14 13 -6 14
6 97 13 184 16 87 3 162 10 167 15 5 5 16 6 25 2 14 -5 13 -3 -2 12 -9 10 -15
21 -12 25 2 5 -6 12 -18 18 -12 5 -56 26 -97 45 -57 27 -88 36 -130 36 l-55 0
39 -14 c21 -7 43 -11 48 -8 12 7 68 -15 68 -27 0 -15 -42 -10 -100 12 -30 11
-72 24 -92 28 -35 8 -36 7 -27 -11z m-111 -148 c0 -11 -4 -20 -10 -20 -5 0
-10 2 -10 4 0 2 -3 11 -6 20 -4 11 -1 16 10 16 9 0 16 -8 16 -20z"/>
<path d="M1262 395 c2 -3 18 -6 34 -7 17 -1 49 -17 77 -41 61 -50 72 -42 15
12 -37 35 -49 41 -87 41 -24 0 -42 -2 -39 -5z"/>
<path d="M1390 392 c0 -4 14 -21 30 -37 17 -16 30 -36 30 -45 0 -9 5 -21 12
-28 7 -7 8 -12 3 -12 -4 0 0 -9 10 -20 17 -19 17 -21 -4 -69 -11 -27 -20 -67
-20 -88 1 -21 3 -29 6 -18 2 11 7 27 10 35 4 8 8 27 9 41 2 14 10 38 18 54 13
26 13 31 -3 54 -34 49 -35 54 -14 42 21 -11 33 -6 33 13 0 6 -5 4 -10 -4 -8
-13 -10 -12 -10 3 0 10 -8 17 -18 17 -10 0 -25 12 -32 26 -14 26 -50 52 -50
36z"/>
<path d="M1440 391 c0 -11 40 -22 53 -14 5 3 3 9 -4 14 -18 11 -49 11 -49 0z"/>
<path d="M1590 390 c-26 -5 -31 -9 -19 -14 9 -4 32 -3 50 1 42 11 17 21 -31
13z"/>
<path d="M1985 339 c-10 -15 3 -25 16 -12 7 7 7 13 1 17 -6 3 -14 1 -17 -5z"/>
<path d="M2705 342 c-6 -5 -32 -17 -60 -27 -48 -19 -49 -19 -21 -25 32 -6 64
-42 68 -78 2 -16 -6 -28 -30 -43 l-33 -22 -6 22 c-3 11 -10 21 -15 21 -5 0 -6
5 -3 10 10 16 -18 11 -40 -6 -12 -10 -14 -14 -5 -11 20 6 50 -10 50 -28 0 -7
-8 -16 -17 -18 -10 -2 -6 -3 10 -2 32 2 35 -5 7 -23 -19 -12 -19 -14 16 -60
20 -26 40 -48 45 -50 17 -7 -18 59 -40 75 l-23 16 47 29 c31 19 45 34 41 44
-3 7 -2 14 2 14 4 0 13 4 21 9 12 7 10 14 -8 37 l-23 29 33 7 c19 3 37 4 41 2
5 -3 8 0 8 7 0 8 -14 10 -43 7 -40 -5 -77 8 -77 26 0 3 32 6 70 6 49 0 70 -4
71 -12 0 -7 4 -4 8 7 7 16 2 22 -28 32 -43 15 -54 16 -66 5z"/>
<path d="M2917 344 c-8 -8 1 -24 14 -24 5 0 9 7 9 15 0 15 -12 20 -23 9z"/>
<path d="M2968 343 c-21 -5 -25 -48 -5 -57 10 -5 10 -7 0 -12 -7 -3 -13 -13
-12 -22 0 -11 2 -12 6 -4 6 15 24 16 21 1 -2 -6 2 -13 8 -16 7 -2 11 6 10 22
0 14 -4 25 -8 25 -4 0 -12 8 -17 19 -8 15 -7 18 6 17 10 0 19 7 21 17 4 17 1
18 -30 10z"/>
<path d="M48 311 c32 -15 27 -21 -13 -14 -23 4 -35 2 -35 -6 0 -7 23 -10 65
-10 36 1 71 -3 78 -8 23 -17 128 -55 134 -49 4 4 -1 14 -12 24 -10 9 -15 11
-11 5 9 -17 5 -16 -43 3 -22 9 -39 21 -38 27 1 6 -16 14 -38 18 -22 4 -56 9
-75 13 -28 5 -31 5 -12 -3z"/>
<path d="M190 290 c19 -16 40 -29 45 -29 6 0 -6 13 -25 29 -19 17 -39 30 -45
30 -5 0 6 -14 25 -30z"/>
<path d="M215 300 c19 -21 65 -28 65 -10 0 6 -11 10 -24 10 -14 0 -28 5 -31
10 -3 6 -11 10 -17 10 -6 0 -3 -9 7 -20z"/>
<path d="M284 303 c3 -10 5 -34 5 -53 -1 -19 -2 -63 -2 -97 -1 -44 -5 -63 -14
-63 -7 0 -13 -7 -13 -15 0 -8 6 -12 14 -9 11 4 16 -4 19 -33 l4 -38 1 38 c2
28 6 37 20 37 9 0 24 5 32 11 11 8 7 9 -18 5 l-33 -6 2 43 c3 81 10 106 33
110 17 3 16 5 -6 6 -23 1 -28 6 -28 26 0 22 3 24 19 16 14 -8 22 -7 31 4 11
13 8 15 -19 15 -17 0 -31 5 -31 10 0 6 -5 10 -11 10 -6 0 -8 -8 -5 -17z"/>
<path d="M2866 305 c-3 -9 -2 -14 3 -11 11 7 33 -18 24 -27 -3 -4 -1 -7 5 -7
18 0 14 25 -7 44 -17 15 -19 15 -25 1z"/>
<path d="M2922 280 c3 -21 0 -30 -11 -33 -13 -4 -13 -5 2 -6 14 -1 17 -11 17
-70 0 -38 3 -76 6 -84 4 -11 -1 -13 -21 -9 -31 5 -54 -20 -55 -58 0 -18 3 -21
9 -11 6 10 13 11 29 2 34 -18 52 -13 52 14 0 20 -5 25 -27 25 -26 0 -26 -1 -7
-15 22 -17 12 -20 -17 -4 -27 14 -15 29 23 29 l31 0 -6 103 c-4 56 -7 112 -7
125 0 12 -5 22 -11 22 -7 0 -10 -12 -7 -30z"/>
<path d="M360 275 c-7 -8 -8 -15 -2 -15 5 0 15 7 22 15 7 8 8 15 2 15 -5 0
-15 -7 -22 -15z"/>
<path d="M1425 280 c3 -5 11 -10 16 -10 6 0 7 5 4 10 -3 6 -11 10 -16 10 -6 0
-7 -4 -4 -10z"/>
<path d="M2344 256 c-3 -21 -4 -39 -1 -42 2 -3 8 11 11 32 4 20 5 38 2 41 -2
3 -8 -11 -12 -31z"/>
<path d="M1545 260 c-4 -11 -11 -18 -16 -15 -5 4 -9 1 -9 -4 0 -21 25 -11 37
14 6 14 7 25 3 25 -5 0 -12 -9 -15 -20z"/>
<path d="M2489 250 c3 -17 10 -30 15 -30 15 3 26 -24 13 -32 -8 -5 -6 -8 6 -8
22 0 21 0 -5 55 -25 52 -38 58 -29 15z"/>
<path d="M2520 258 c0 -12 3 -18 7 -14 11 10 12 36 2 36 -5 0 -9 -10 -9 -22z"/>
<path d="M2785 270 c-3 -5 -1 -10 4 -10 6 0 11 5 11 10 0 6 -2 10 -4 10 -3 0
-8 -4 -11 -10z"/>
<path d="M2855 270 c3 -5 8 -10 11 -10 2 0 4 5 4 10 0 6 -5 10 -11 10 -5 0 -7
-4 -4 -10z"/>
<path d="M466 239 c-8 -43 -8 -79 2 -79 4 0 8 25 9 55 3 62 -1 70 -11 24z"/>
<path d="M2010 259 c0 -5 5 -9 10 -9 6 0 10 -7 10 -15 0 -8 4 -15 8 -15 16 0
5 43 -11 46 -9 1 -17 -2 -17 -7z"/>
<path d="M2545 240 c-7 -21 0 -40 16 -40 5 0 9 14 9 30 0 34 -15 40 -25 10z"/>
<path d="M98 243 c6 -2 18 -2 25 0 6 3 1 5 -13 5 -14 0 -19 -2 -12 -5z"/>
<path d="M1730 236 c0 -2 9 -6 20 -9 11 -3 20 -1 20 4 0 5 -9 9 -20 9 -11 0
-20 -2 -20 -4z"/>
<path d="M55 220 c-3 -5 -1 -10 4 -10 6 0 11 5 11 10 0 6 -2 10 -4 10 -3 0 -8
-4 -11 -10z"/>
<path d="M436 221 c-4 -7 -5 -15 -2 -18 9 -9 19 4 14 18 -4 11 -6 11 -12 0z"/>
<path d="M2090 221 c0 -7 28 -11 72 -11 87 0 85 7 -5 15 -44 4 -67 2 -67 -4z"/>
<path d="M148 213 c6 -2 18 -2 25 0 6 3 1 5 -13 5 -14 0 -19 -2 -12 -5z"/>
<path d="M528 206 c-11 -8 -18 -26 -18 -45 0 -17 -5 -31 -11 -31 -5 0 -7 -5
-4 -10 4 -6 12 -7 18 -3 9 5 9 3 1 -8 -6 -8 -12 -35 -13 -61 -2 -38 1 -48 13
-48 14 0 16 15 16 98 0 63 4 102 12 110 16 16 7 15 -14 -2z"/>
<path d="M748 213 c7 -3 16 -2 19 1 4 3 -2 6 -13 5 -11 0 -14 -3 -6 -6z"/>
<path d="M1508 193 c-2 -45 -3 -51 -8 -56 -8 -8 1 -137 10 -137 13 0 18 40 17
127 -1 44 1 79 6 76 4 -2 7 1 7 6 0 25 -30 9 -32 -16z"/>
<path d="M1728 213 c7 -3 16 -2 19 1 4 3 -2 6 -13 5 -11 0 -14 -3 -6 -6z"/>
<path d="M1764 206 c-19 -14 -18 -15 3 -13 12 0 19 5 16 10 -3 5 5 6 18 2 19
-5 21 -4 9 4 -20 14 -23 14 -46 -3z"/>
<path d="M1855 210 c3 -6 -1 -10 -10 -10 -10 0 -13 -5 -9 -12 5 -7 0 -9 -14
-6 -13 4 -20 2 -19 -5 3 -17 -79 -35 -165 -36 -43 -1 -78 -5 -78 -10 0 -5 47
-6 105 -3 100 4 105 4 134 -21 16 -13 27 -28 23 -31 -3 -4 2 -4 11 0 16 6 14
9 -12 28 -17 11 -31 24 -31 28 0 3 20 19 45 35 49 30 53 38 29 47 -8 3 -12 2
-9 -4z"/>
<path d="M2240 209 c0 -5 5 -7 10 -4 6 3 10 8 10 11 0 2 -4 4 -10 4 -5 0 -10
-5 -10 -11z"/>
<path d="M2264 195 c-3 -14 -10 -22 -15 -20 -16 11 -22 -45 -6 -58 15 -12 21
-28 18 -54 0 -7 -12 -13 -26 -13 -35 0 -31 -16 6 -24 17 -3 35 -6 39 -6 13 0
-7 90 -24 109 -26 28 -1 42 62 34 29 -3 52 -9 52 -12 0 -3 -9 -35 -20 -71 -24
-78 -24 -80 -5 -80 11 0 15 11 15 38 0 20 5 44 10 52 7 11 10 0 10 -37 0 -31
4 -53 11 -53 6 0 8 8 5 18 -2 9 -6 39 -8 67 -2 42 0 50 15 53 10 2 25 -5 33
-15 10 -13 14 -14 12 -3 -2 12 7 15 47 13 l50 -1 -65 18 c-36 10 -91 22 -124
25 -45 6 -60 11 -63 26 -7 27 -21 24 -29 -6z"/>
<path d="M1867 171 l-57 -37 32 -24 c25 -18 29 -19 17 -4 -22 25 -14 50 9 32
15 -12 16 -11 3 5 -15 20 -2 23 19 5 12 -11 12 -10 2 3 -10 13 -7 18 16 29 15
7 43 15 62 17 50 6 50 13 -1 12 -33 0 -58 -9 -102 -38z"/>
<path d="M2070 191 c0 -8 79 -3 89 5 2 2 -17 4 -42 4 -26 0 -47 -4 -47 -9z"/>
<path d="M2755 190 c-3 -5 1 -10 9 -10 9 0 16 5 16 10 0 6 -4 10 -9 10 -6 0
-13 -4 -16 -10z"/>
<path d="M2180 179 c0 -5 5 -7 10 -4 6 3 10 8 10 11 0 2 -4 4 -10 4 -5 0 -10
-5 -10 -11z"/>
<path d="M250 169 c0 -5 5 -7 10 -4 6 3 10 8 10 11 0 2 -4 4 -10 4 -5 0 -10
-5 -10 -11z"/>
<path d="M605 170 c-3 -5 1 -10 10 -10 9 0 13 5 10 10 -3 6 -8 10 -10 10 -2 0
-7 -4 -10 -10z"/>
<path d="M968 163 c7 -3 16 -2 19 1 4 3 -2 6 -13 5 -11 0 -14 -3 -6 -6z"/>
<path d="M1068 163 c7 -3 16 -2 19 1 4 3 -2 6 -13 5 -11 0 -14 -3 -6 -6z"/>
<path d="M1328 153 c6 -2 18 -2 25 0 6 3 1 5 -13 5 -14 0 -19 -2 -12 -5z"/>
<path d="M1940 156 c0 -2 8 -10 18 -17 15 -13 16 -12 3 4 -13 16 -21 21 -21
13z"/>
<path d="M2543 153 c9 -2 23 -2 30 0 6 3 -1 5 -18 5 -16 0 -22 -2 -12 -5z"/>
<path d="M246 137 c3 -8 -4 -25 -15 -38 -11 -13 -20 -18 -21 -11 0 17 -20 15
-20 -3 0 -19 56 -21 57 -2 0 6 4 24 8 40 5 17 3 27 -4 27 -6 0 -8 -6 -5 -13z"/>
<path d="M2308 143 c-2 -5 -1 -26 3 -48 3 -22 7 -33 8 -25 9 59 9 70 1 75 -5
3 -10 2 -12 -2z"/>
<path d="M426 131 c-4 -6 -14 -8 -24 -5 -13 5 -14 4 -3 -4 18 -13 7 -44 -14
-36 -8 3 -15 2 -15 -4 0 -5 13 -12 30 -14 24 -4 27 -2 19 9 -9 10 -8 13 1 13
7 0 10 6 7 14 -3 8 -1 17 6 19 7 2 9 7 6 11 -4 4 -10 3 -13 -3z"/>
<path d="M601 131 c-9 -6 -7 -10 8 -14 12 -3 21 -1 21 3 0 14 -15 19 -29 11z"/>
<path d="M655 130 c-24 -10 -17 -12 78 -15 37 -1 67 1 67 5 0 3 -18 6 -40 7
-22 0 -50 3 -63 6 -12 3 -31 1 -42 -3z"/>
<path d="M942 70 c-2 -72 -1 -74 13 -46 17 31 20 81 6 71 -5 -3 -12 7 -14 22
-2 16 -5 -6 -5 -47z"/>
<path d="M1417 134 c-3 -4 -107 -6 -232 -7 -127 0 -222 -4 -217 -9 14 -14 82
-22 82 -10 0 7 10 8 28 3 47 -13 379 7 356 21 -6 4 -14 5 -17 2z"/>
<path d="M545 120 c-3 -5 1 -10 9 -10 8 0 18 5 21 10 3 6 -1 10 -9 10 -8 0
-18 -4 -21 -10z"/>
<path d="M1926 118 c3 -5 10 -6 15 -3 13 9 11 12 -6 12 -8 0 -12 -4 -9 -9z"/>
<path d="M333 113 c9 -2 23 -2 30 0 6 3 -1 5 -18 5 -16 0 -22 -2 -12 -5z"/>
<path d="M22 90 c-12 -5 -22 -11 -22 -14 0 -7 40 6 46 15 6 10 6 10 -24 -1z"/>
<path d="M60 85 c-9 -10 -9 -15 -1 -15 6 0 11 5 11 11 0 8 5 8 15 -1 12 -10
15 -10 15 4 0 20 -24 21 -40 1z"/>
<path d="M451 84 c0 -11 3 -14 6 -6 3 7 2 16 -1 19 -3 4 -6 -2 -5 -13z"/>
<path d="M638 93 c6 -2 18 -2 25 0 6 3 1 5 -13 5 -14 0 -19 -2 -12 -5z"/>
<path d="M783 93 c9 -2 23 -2 30 0 6 3 -1 5 -18 5 -16 0 -22 -2 -12 -5z"/>
<path d="M1150 45 c0 -39 2 -42 28 -42 27 0 27 1 18 42 -7 29 -15 41 -28 41
-14 0 -18 -8 -18 -41z m26 -12 c-11 -11 -19 6 -11 24 8 17 8 17 12 0 3 -10 2
-21 -1 -24z"/>
<path d="M1880 86 c0 -2 15 -13 33 -24 24 -15 51 -20 112 -21 94 -1 132 13 58
22 -26 3 -53 1 -59 -4 -6 -5 -15 -4 -23 4 -13 13 -63 18 -55 5 3 -4 -8 -1 -23
7 -28 15 -43 19 -43 11z m100 -26 c0 -5 -5 -10 -11 -10 -5 0 -7 5 -4 10 3 6 8
10 11 10 2 0 4 -4 4 -10z"/>
<path d="M115 71 c3 -6 -16 -11 -42 -13 l-48 -3 56 -5 c50 -4 55 -3 51 13 -2
9 -9 17 -14 17 -5 0 -7 -4 -3 -9z"/>
<path d="M146 65 c4 -8 12 -15 20 -15 8 0 11 6 8 15 -4 8 -12 15 -20 15 -8 0
-11 -6 -8 -15z"/>
<path d="M2413 44 l0 -40 23 23 c28 28 44 29 44 3 0 -18 6 -20 53 -19 28 1 43
3 32 6 -11 2 -30 6 -42 9 -14 3 -23 12 -23 24 0 11 -5 18 -12 16 -50 -16 -67
-15 -70 1 -3 10 -5 0 -5 -23z"/>
<path d="M2739 38 c9 -21 19 -38 22 -38 3 0 12 12 20 28 7 15 15 30 17 33 1 4
-14 8 -36 11 l-38 3 15 -37z"/>
<path d="M1860 51 c-15 -29 -13 -31 25 -31 41 0 45 11 10 34 -23 15 -25 15
-35 -3z"/>
<path d="M2140 50 c0 -5 5 -10 10 -10 6 0 10 5 10 10 0 6 -4 10 -10 10 -5 0
-10 -4 -10 -10z"/>
<path d="M2700 51 c0 -5 5 -13 10 -16 6 -3 10 -2 10 4 0 5 -4 13 -10 16 -5 3
-10 2 -10 -4z"/>
<path d="M745 40 c-16 -7 -17 -9 -3 -9 9 -1 20 4 23 9 7 11 7 11 -20 0z"/>
<path d="M2178 43 c7 -3 16 -2 19 1 4 3 -2 6 -13 5 -11 0 -14 -3 -6 -6z"/>
<path d="M2980 29 c-13 -24 -4 -41 10 -19 10 16 13 40 5 40 -2 0 -9 -9 -15
-21z"/>
<path d="M1760 26 c0 -8 5 -18 10 -21 6 -3 10 3 10 14 0 12 -4 21 -10 21 -5 0
-10 -6 -10 -14z"/>
<path d="M2691 19 c5 -10 16 -19 24 -19 23 0 18 14 -10 26 -23 11 -24 10 -14
-7z"/>
<path d="M1735 19 c-4 -6 -5 -12 -2 -15 2 -3 7 2 10 11 7 17 1 20 -8 4z"/>
<path d="M1975 20 c-4 -6 -11 -8 -16 -5 -5 4 -9 1 -9 -4 0 -6 17 -10 38 -10
26 1 30 3 13 6 -19 4 -21 7 -10 14 9 5 10 9 2 9 -6 0 -15 -5 -18 -10z"/>
<path d="M2056 12 c-2 -4 4 -9 15 -9 10 -1 19 2 19 8 0 11 -27 12 -34 1z"/>
<path d="M2100 11 c0 -6 33 -9 74 -9 41 1 73 5 70 10 -7 11 -144 10 -144 -1z"/>
<path d="M1908 3 c6 -2 18 -2 25 0 6 3 1 5 -13 5 -14 0 -19 -2 -12 -5z"/>
</g>
</svg>
