<?xml version="1.0" standalone="no"?>
<!DOCTYPE svg PUBLIC "-//W3C//DTD SVG 20010904//EN"
 "http://www.w3.org/TR/2001/REC-SVG-20010904/DTD/svg10.dtd">
<svg version="1.0" xmlns="http://www.w3.org/2000/svg"
 width="300.000000pt" height="209.000000pt" viewBox="0 0 300.000000 209.000000"
 preserveAspectRatio="xMidYMid meet">
<metadata>
Created by potrace 1.10, written by Peter Selinger 2001-2011
</metadata>
<g transform="translate(0.000000,209.000000) scale(0.100000,-0.100000)"
fill="#000000" stroke="none">
<path d="M2095 2080 c3 -5 10 -10 16 -10 5 0 9 5 9 10 0 6 -7 10 -16 10 -8 0
-12 -4 -9 -10z"/>
<path d="M2280 2080 c-15 -4 48 -8 150 -9 96 -1 186 -3 200 -5 14 -2 103 -7
198 -11 122 -5 172 -4 172 4 0 6 -3 11 -7 12 -93 11 -684 18 -713 9z"/>
<path d="M570 2071 c0 -6 4 -13 10 -16 6 -3 7 1 4 9 -7 18 -14 21 -14 7z"/>
<path d="M2208 2073 c6 -2 18 -2 25 0 6 3 1 5 -13 5 -14 0 -19 -2 -12 -5z"/>
<path d="M1070 2066 c0 -2 7 -7 16 -10 8 -3 12 -2 9 4 -6 10 -25 14 -25 6z"/>
<path d="M1437 2064 c-3 -3 -3 -13 0 -22 4 -10 2 -13 -5 -8 -7 4 -12 3 -12 -2
0 -6 7 -12 15 -16 11 -4 15 2 15 24 0 31 -2 35 -13 24z"/>
<path d="M365 2050 c-3 -5 -1 -10 4 -10 6 0 11 5 11 10 0 6 -2 10 -4 10 -3 0
-8 -4 -11 -10z"/>
<path d="M1795 2040 c-19 -8 -19 -9 3 -9 12 -1 22 4 22 9 0 6 -1 10 -2 9 -2 0
-12 -4 -23 -9z"/>
<path d="M1969 2045 c-5 -17 -7 -26 -8 -36 0 -5 -5 -7 -11 -4 -15 9 -12 0 11
-39 12 -20 25 -36 31 -36 10 0 3 16 -20 43 -8 9 -12 20 -8 24 4 5 21 -8 37
-27 32 -39 40 -33 9 7 -11 15 -18 28 -15 31 3 3 12 -3 19 -14 8 -10 20 -19 28
-19 7 -1 12 -6 11 -12 -1 -6 5 -10 15 -8 9 1 26 -5 36 -14 18 -15 19 -15 13 2
-21 58 -20 66 9 63 15 -2 33 -10 39 -20 15 -19 36 -22 29 -2 -3 8 3 15 13 18
30 7 52 -2 59 -25 4 -12 11 -25 16 -28 6 -4 8 -14 6 -23 -2 -14 -8 -12 -31 10
-21 19 -32 23 -40 15 -8 -8 -7 -11 6 -11 9 0 17 -5 17 -11 0 -5 6 -7 13 -3 9
5 9 4 1 -5 -9 -10 -21 -7 -53 14 l-42 26 17 -25 c16 -26 39 -35 148 -56 48
-10 60 -10 67 1 5 8 8 19 8 24 0 6 -3 4 -6 -2 -6 -15 -63 -18 -63 -3 0 6 8 10
18 11 14 0 14 2 -3 8 -19 8 -19 8 3 15 13 4 21 10 19 13 -8 7 -48 -17 -43 -25
3 -5 0 -14 -5 -22 -9 -13 -10 -13 -6 0 2 8 -2 31 -9 50 -7 19 -14 43 -16 53
-3 16 -16 18 -113 21 -60 1 -119 7 -130 11 -18 8 -18 7 3 -19 12 -16 22 -34
22 -40 0 -6 -9 0 -20 14 -17 21 -19 21 -14 5 5 -16 4 -17 -4 -5 -6 8 -9 17 -6
21 2 4 -2 11 -9 16 -16 13 -47 24 -48 18z"/>
<path d="M1895 2023 c19 -47 19 -46 -7 -41 -23 4 -25 3 -15 -14 7 -10 20 -21
29 -24 10 -3 15 -11 11 -20 -4 -11 0 -15 13 -14 33 4 44 0 44 -14 0 -8 -5 -18
-12 -22 -8 -5 -9 -2 -5 10 5 14 2 17 -15 14 -12 -2 -23 -10 -25 -18 -4 -12 -2
-12 5 -2 7 10 11 10 22 -3 9 -11 10 -18 1 -29 -9 -11 -5 -16 19 -26 17 -7 33
-10 37 -6 3 3 -1 6 -9 6 -26 0 -30 31 -8 55 19 20 19 23 4 36 -9 7 -22 14 -30
15 -7 1 -25 11 -39 22 -21 17 -22 21 -9 26 10 4 22 -1 31 -11 13 -16 13 -16 3
4 -5 12 -15 25 -20 28 -6 4 -8 15 -5 24 3 12 0 18 -10 18 -9 0 -14 -6 -10 -14z"/>
<path d="M406 2011 c-4 -5 3 -7 14 -4 23 6 26 13 6 13 -8 0 -17 -4 -20 -9z"/>
<path d="M770 2000 c0 -11 4 -20 9 -20 5 0 7 9 4 20 -3 11 -7 20 -9 20 -2 0
-4 -9 -4 -20z"/>
<path d="M1866 2006 c21 -15 30 -14 19 3 -3 6 -14 11 -23 11 -13 0 -13 -2 4
-14z"/>
<path d="M250 2000 c-12 -8 -10 -10 8 -10 13 0 20 4 17 10 -7 12 -6 12 -25 0z"/>
<path d="M655 2000 c-4 -6 -16 -8 -29 -4 -15 3 -27 -1 -37 -12 -13 -16 -12
-17 6 -10 11 4 36 10 55 12 40 5 46 9 26 17 -9 4 -18 2 -21 -3z"/>
<path d="M27 1989 c7 -7 15 -10 18 -7 3 3 -2 9 -12 12 -14 6 -15 5 -6 -5z"/>
<path d="M100 1984 c0 -8 5 -12 10 -9 6 4 8 11 5 16 -9 14 -15 11 -15 -7z"/>
<path d="M700 1989 c0 -5 5 -7 10 -4 6 3 10 8 10 11 0 2 -4 4 -10 4 -5 0 -10
-5 -10 -11z"/>
<path d="M1170 1990 c0 -5 5 -10 10 -10 6 0 10 5 10 10 0 6 -4 10 -10 10 -5 0
-10 -4 -10 -10z"/>
<path d="M1376 1991 c-4 -7 -5 -15 -2 -18 9 -9 19 4 14 18 -4 11 -6 11 -12 0z"/>
<path d="M298 1983 c7 -3 16 -2 19 1 4 3 -2 6 -13 5 -11 0 -14 -3 -6 -6z"/>
<path d="M340 1980 c0 -5 5 -10 11 -10 5 0 7 5 4 10 -3 6 -8 10 -11 10 -2 0
-4 -4 -4 -10z"/>
<path d="M1801 1977 c-1 -12 -6 -16 -13 -11 -7 4 -5 -1 4 -11 22 -24 31 -15
19 16 -7 18 -10 20 -10 6z"/>
<path d="M2550 1981 c0 -5 5 -13 10 -16 6 -3 10 -2 10 4 0 5 -4 13 -10 16 -5
3 -10 2 -10 -4z"/>
<path d="M1335 1970 c-3 -5 -1 -10 4 -10 6 0 11 5 11 10 0 6 -2 10 -4 10 -3 0
-8 -4 -11 -10z"/>
<path d="M1830 1961 c6 -12 7 -21 3 -21 -4 0 3 -9 17 -20 l25 -19 -30 2 c-30
2 -32 -2 -19 -38 7 -20 7 -20 -16 0 l-23 20 12 -22 c6 -13 20 -23 29 -23 10 0
24 -6 31 -12 11 -11 12 -10 6 2 -5 8 -17 28 -28 44 l-20 28 23 -12 c18 -9 24
-9 30 0 5 8 10 8 14 2 3 -5 -1 -13 -9 -16 -12 -4 -13 -9 -4 -24 11 -17 49 -25
49 -10 0 4 -7 8 -15 8 -11 0 -14 9 -13 32 2 24 -1 33 -12 33 -9 0 -14 8 -12
18 2 9 -2 17 -8 17 -5 0 -9 5 -7 12 1 6 -6 14 -16 16 -16 3 -17 1 -7 -17z"/>
<path d="M2120 1972 c0 -19 19 -52 30 -52 15 0 12 12 -10 40 -11 14 -20 19
-20 12z"/>
<path d="M450 1960 c0 -5 5 -10 10 -10 6 0 10 5 10 10 0 6 -4 10 -10 10 -5 0
-10 -4 -10 -10z"/>
<path d="M1760 1955 c0 -7 -6 -16 -12 -18 -8 -3 -7 -6 4 -6 37 -2 24 -17 -15
-18 -73 -1 -87 -3 -87 -13 0 -5 13 -7 29 -4 16 3 38 1 50 -5 16 -9 20 -9 15 2
-3 10 4 14 26 14 42 0 45 7 16 36 -16 16 -26 21 -26 12z"/>
<path d="M2481 1951 c-8 -6 -9 -11 -3 -15 6 -3 14 -1 17 5 9 14 2 20 -14 10z"/>
<path d="M830 1940 c0 -5 5 -10 11 -10 5 0 7 5 4 10 -3 6 -8 10 -11 10 -2 0
-4 -4 -4 -10z"/>
<path d="M2565 1940 c-3 -5 -1 -10 4 -10 6 0 11 5 11 10 0 6 -2 10 -4 10 -3 0
-8 -4 -11 -10z"/>
<path d="M2815 1940 c-3 -5 1 -10 10 -10 9 0 13 5 10 10 -3 6 -8 10 -10 10 -2
0 -7 -4 -10 -10z"/>
<path d="M71 1924 c0 -11 3 -14 6 -6 3 7 2 16 -1 19 -3 4 -6 -2 -5 -13z"/>
<path d="M280 1919 c0 -5 5 -7 10 -4 6 3 10 8 10 11 0 2 -4 4 -10 4 -5 0 -10
-5 -10 -11z"/>
<path d="M760 1917 c0 -7 7 -22 15 -33 13 -17 14 -16 4 14 -11 33 -19 41 -19
19z"/>
<path d="M868 1923 c6 -2 12 -11 12 -19 0 -10 9 -14 29 -12 16 1 36 -3 44 -10
12 -10 16 -9 21 4 4 12 2 15 -9 10 -8 -3 -15 -1 -15 5 0 7 -12 8 -32 4 -26 -6
-30 -5 -25 9 5 12 1 16 -16 15 -12 0 -16 -3 -9 -6z"/>
<path d="M1165 1920 c-3 -5 -1 -10 4 -10 6 0 11 5 11 10 0 6 -2 10 -4 10 -3 0
-8 -4 -11 -10z"/>
<path d="M2010 1910 c0 -11 2 -20 4 -20 2 0 6 9 9 20 3 11 1 20 -4 20 -5 0 -9
-9 -9 -20z"/>
<path d="M228 1913 c7 -3 16 -2 19 1 4 3 -2 6 -13 5 -11 0 -14 -3 -6 -6z"/>
<path d="M485 1910 c-3 -5 -2 -10 4 -10 5 0 13 5 16 10 3 6 2 10 -4 10 -5 0
-13 -4 -16 -10z"/>
<path d="M2425 1902 c2 -9 4 -23 4 -29 1 -7 5 -13 11 -13 5 0 7 6 4 14 -4 11
0 13 15 9 13 -3 21 -1 21 8 0 7 -3 9 -7 6 -3 -4 -16 0 -29 8 -20 13 -22 13
-19 -3z"/>
<path d="M450 1895 c0 -8 4 -15 10 -15 5 0 7 7 4 15 -4 8 -8 15 -10 15 -2 0
-4 -7 -4 -15z"/>
<path d="M2079 1897 c8 -10 20 -16 27 -13 8 3 11 0 8 -9 -4 -9 -13 -11 -32 -6
-15 5 -36 5 -47 1 -11 -4 -25 -3 -32 2 -8 6 -15 3 -22 -11 -13 -24 4 -33 34
-18 19 10 19 9 5 -8 -14 -17 -13 -18 3 -12 10 4 28 7 40 7 16 0 18 3 9 9 -9 5
0 8 24 7 36 -1 38 1 39 31 1 30 -12 39 -27 19 -4 -6 -14 -4 -25 5 -17 13 -17
13 -4 -4z"/>
<path d="M135 1889 c-15 -24 -15 -66 0 -79 8 -7 15 -9 16 -4 0 5 3 28 5 52 5
40 -6 56 -21 31z"/>
<path d="M595 1890 c-3 -5 14 -7 44 -3 37 4 57 2 75 -10 23 -16 25 -16 23 3
-1 18 -9 20 -69 20 -37 0 -69 -4 -73 -10z"/>
<path d="M1660 1878 l-25 -9 25 -14 c34 -19 43 -18 59 6 12 20 11 21 -8 16
-11 -2 -21 -1 -23 3 -2 4 -14 3 -28 -2z"/>
<path d="M2156 1856 c4 -18 1 -25 -18 -31 -13 -4 -30 -6 -37 -5 -13 2 -13 -1
-1 -15 9 -11 16 -13 18 -6 2 6 12 11 22 11 21 0 25 4 34 43 5 20 3 27 -9 27
-11 0 -14 -6 -9 -24z"/>
<path d="M2190 1870 c0 -5 5 -10 11 -10 5 0 7 5 4 10 -3 6 -8 10 -11 10 -2 0
-4 -4 -4 -10z"/>
<path d="M2271 1873 c4 -22 -3 -33 -18 -33 -29 0 -8 -9 33 -14 21 -3 31 -2 22
0 -17 5 -22 16 -19 42 1 6 -3 12 -9 12 -5 0 -9 -3 -9 -7z"/>
<path d="M66 1852 c-4 -13 -5 -26 -2 -29 10 -11 18 4 14 29 l-4 23 -8 -23z"/>
<path d="M646 1848 c-9 -12 -14 -23 -12 -25 7 -7 35 9 40 22 9 24 -12 26 -28
3z"/>
<path d="M1030 1860 c0 -5 5 -10 10 -10 6 0 10 5 10 10 0 6 -4 10 -10 10 -5 0
-10 -4 -10 -10z"/>
<path d="M2230 1860 c0 -5 5 -10 10 -10 6 0 10 5 10 10 0 6 -4 10 -10 10 -5 0
-10 -4 -10 -10z"/>
<path d="M2311 1856 c-10 -12 -8 -13 8 -9 12 3 18 9 15 14 -7 12 -10 11 -23
-5z"/>
<path d="M2389 1853 c-11 -13 -11 -17 -1 -20 6 -3 10 -8 8 -12 -3 -4 4 -7 14
-7 18 0 18 1 2 20 -9 11 -11 16 -4 12 6 -4 12 -3 12 3 0 18 -18 21 -31 4z"/>
<path d="M2476 1854 c-11 -7 -23 -11 -29 -7 -6 3 -7 1 -3 -5 10 -16 26 -15 46
3 16 15 18 14 22 -10 6 -29 -7 -43 -16 -19 -4 9 -11 12 -18 7 -7 -4 -16 -8
-20 -8 -15 0 -20 -15 -4 -15 10 0 14 -5 10 -12 -4 -7 -3 -8 5 -4 6 4 9 12 6
17 -4 5 -1 9 5 9 6 0 15 -12 21 -26 5 -15 11 -25 12 -23 2 2 9 13 17 23 12 16
12 18 1 12 -9 -6 -12 -4 -9 5 3 8 13 16 23 18 13 2 16 -1 12 -14 -4 -9 -3 -14
2 -10 5 3 12 -1 15 -7 3 -7 3 -3 0 9 -4 18 -1 20 16 16 16 -4 19 -2 14 11 -5
12 -10 13 -24 6 -13 -7 -21 -6 -26 2 -4 6 -3 8 4 4 6 -3 13 -2 17 4 6 9 -7 14
-27 11 -5 0 -8 2 -8 7 0 13 -45 10 -64 -4z m64 -14 c0 -5 -4 -10 -10 -10 -5 0
-10 5 -10 10 0 6 5 10 10 10 6 0 10 -4 10 -10z"/>
<path d="M302 1848 c-13 -13 -17 -15 -51 -17 -13 -1 -19 -8 -18 -20 1 -17 3
-17 23 -4 28 18 74 26 74 13 0 -16 20 -12 27 6 10 28 -33 44 -55 22z"/>
<path d="M1723 1854 c4 -4 17 -7 29 -8 16 -1 24 -8 26 -23 2 -12 10 -27 18
-33 20 -17 18 -36 -6 -53 -11 -8 -17 -17 -14 -20 4 -4 1 -13 -6 -22 -11 -13
-10 -14 5 -8 14 5 17 3 12 -10 -5 -12 -1 -17 13 -17 14 0 18 5 13 18 -4 9 -11
20 -17 24 -19 13 5 22 24 10 11 -7 20 -9 19 -5 -3 19 2 27 10 15 6 -11 10 -11
19 0 7 9 7 19 2 28 -8 13 -12 11 -25 -8 -9 -12 -21 -19 -27 -16 -6 4 -7 9 -1
13 6 3 13 24 16 46 5 31 5 35 -3 17 -11 -25 -35 -20 -25 5 8 24 -24 53 -58 53
-17 0 -27 -3 -24 -6z"/>
<path d="M2356 1851 c-4 -7 -5 -15 -2 -18 9 -9 19 4 14 18 -4 11 -6 11 -12 0z"/>
<path d="M895 1840 c28 -12 47 -12 40 0 -3 6 -18 10 -33 9 -24 0 -25 -1 -7 -9z"/>
<path d="M1614 1836 c-10 -10 -3 -13 35 -14 l46 0 -34 14 c-39 16 -33 16 -47
0z"/>
<path d="M2200 1842 c0 -5 7 -9 15 -9 8 0 12 4 9 9 -3 4 -9 8 -15 8 -5 0 -9
-4 -9 -8z"/>
<path d="M380 1832 c0 -6 9 -14 21 -17 19 -6 22 -30 3 -30 -5 0 -31 -13 -57
-28 -26 -16 -57 -30 -67 -32 -43 -8 -55 -31 -17 -31 12 0 44 15 72 34 27 18
61 36 77 39 32 6 59 62 30 61 -9 0 -27 3 -39 7 -14 5 -23 3 -23 -3z"/>
<path d="M706 1815 c-28 -26 -34 -45 -13 -45 12 0 22 14 45 63 6 13 -5 7 -32
-18z"/>
<path d="M1095 1830 c-3 -5 -2 -10 4 -10 5 0 13 5 16 10 3 6 2 10 -4 10 -5 0
-13 -4 -16 -10z"/>
<path d="M1750 1830 c-7 -4 -18 -6 -25 -4 -11 5 -42 -23 -34 -30 11 -9 59 -15
59 -7 0 5 -12 12 -27 14 -26 4 -26 4 5 6 21 1 32 -4 32 -13 0 -7 7 -19 15 -26
18 -15 18 -15 2 32 -10 27 -17 34 -27 28z"/>
<path d="M182 1814 c4 -21 22 -23 26 -1 2 10 -3 17 -13 17 -10 0 -15 -6 -13
-16z"/>
<path d="M1125 1820 c-3 -5 1 -10 10 -10 9 0 13 5 10 10 -3 6 -8 10 -10 10 -2
0 -7 -4 -10 -10z"/>
<path d="M2333 1818 c5 -15 0 -18 -28 -18 -18 0 -37 5 -40 10 -14 22 -105 4
-105 -21 0 -15 27 -10 45 7 11 12 19 14 27 6 6 -6 17 -8 24 -5 12 4 19 -11 16
-38 -1 -3 6 -6 14 -6 8 0 14 4 14 9 0 4 -4 8 -10 8 -5 0 -10 4 -10 9 0 4 11 6
24 4 13 -3 31 -1 39 4 14 7 14 10 0 28 -13 16 -15 17 -10 3z"/>
<path d="M1171 1804 c13 -16 39 -19 39 -5 0 5 -11 11 -25 13 -20 4 -23 3 -14
-8z"/>
<path d="M1564 1799 c-2 -4 13 -9 33 -12 21 -4 40 -3 43 2 3 5 14 11 25 14 11
3 -6 4 -38 4 -32 -1 -60 -4 -63 -8z"/>
<path d="M1872 1791 c-3 -8 0 -17 6 -19 7 -2 12 -10 12 -18 0 -8 5 -14 11 -14
5 0 7 5 4 10 -9 14 19 12 33 -2 7 -7 12 -8 12 -4 0 5 7 3 15 -4 26 -22 26 -5
0 18 -14 12 -25 18 -25 12 0 -5 -7 -7 -17 -3 -14 5 -13 8 5 14 16 6 32 2 59
-17 20 -13 43 -22 50 -20 17 7 16 1 -3 -64 -11 -38 -13 -55 -5 -58 12 -4 15
-23 4 -21 -21 3 -33 -2 -33 -16 0 -8 -5 -15 -11 -15 -5 0 -7 -5 -4 -10 4 -6
11 -7 17 -4 8 5 9 -1 4 -17 -4 -13 -10 -35 -12 -49 -3 -21 -3 -22 4 -6 9 22
21 11 17 -16 -2 -13 24 -37 29 -26 1 2 10 14 21 28 l20 25 -28 -24 c-15 -14
-27 -20 -28 -15 0 5 -2 23 -4 41 -4 27 -2 30 16 26 19 -5 18 -3 -6 21 -15 15
-24 30 -20 34 4 4 10 1 12 -5 3 -7 9 -13 15 -13 6 0 8 24 6 60 -2 37 1 59 7
56 6 -2 9 -12 8 -22 -1 -18 -1 -18 13 1 9 12 11 21 4 23 -5 2 -8 8 -5 13 4 5
-1 6 -9 3 -11 -4 -16 0 -16 11 0 10 5 13 12 9 7 -5 8 -3 4 5 -5 7 -1 18 10 25
20 15 13 31 -16 39 -11 3 -18 1 -14 -4 3 -5 12 -9 20 -9 8 0 14 -4 14 -9 0 -8
-21 -8 -40 -1 -3 1 -13 2 -22 1 -10 -1 -18 2 -18 7 0 11 -29 22 -83 32 -30 5
-40 3 -45 -9z"/>
<path d="M2070 1800 c0 -5 5 -10 11 -10 5 0 7 5 4 10 -3 6 -8 10 -11 10 -2 0
-4 -4 -4 -10z"/>
<path d="M2646 1799 c6 -8 10 -22 9 -31 -3 -15 16 -30 40 -32 6 -1 11 -10 11
-21 1 -11 3 -23 4 -27 1 -5 3 -11 5 -15 7 -26 18 -42 26 -37 5 3 6 -2 3 -10
-9 -23 9 -20 30 6 15 17 15 20 2 15 -12 -5 -18 3 -26 34 -11 41 -58 102 -94
121 -18 9 -19 9 -10 -3z"/>
<path d="M30 1796 c0 -2 9 -6 20 -9 11 -3 18 -1 14 4 -5 9 -34 13 -34 5z"/>
<path d="M480 1770 c-24 -33 -23 -44 4 -34 9 3 13 11 9 17 -4 7 0 8 12 3 10
-4 21 -3 24 2 3 5 16 12 28 16 19 6 21 4 18 -23 -6 -44 9 -46 24 -4 11 29 11
37 0 44 -18 11 -50 11 -69 -1 -9 -6 -17 -5 -21 1 -4 6 -16 -3 -29 -21z"/>
<path d="M2123 1785 c-6 -7 -9 -16 -5 -20 4 -4 -2 -13 -12 -21 -17 -12 -18
-16 -6 -27 7 -6 10 -7 7 -1 -3 6 3 16 13 24 10 8 16 18 13 23 -3 5 0 13 7 17
7 4 8 10 4 13 -5 3 -14 -1 -21 -8z"/>
<path d="M2592 1780 c-8 -13 -6 -21 9 -33 10 -9 19 -13 19 -7 0 5 -8 13 -17
19 -19 10 -17 11 27 23 10 3 8 6 -6 10 -13 3 -25 -1 -32 -12z"/>
<path d="M754 1774 c3 -9 6 -21 6 -27 0 -7 4 -7 9 2 10 16 4 41 -11 41 -6 0
-7 -7 -4 -16z"/>
<path d="M1314 1778 c-3 -5 -2 -8 3 -6 4 1 22 -1 38 -5 58 -14 75 -16 75 -8 0
11 -110 29 -116 19z"/>
<path d="M1655 1780 c-3 -5 3 -10 15 -10 12 0 19 -4 16 -8 -3 -5 -27 -7 -53
-6 -47 3 -48 2 -18 -10 17 -7 35 -11 40 -7 6 3 19 7 30 8 16 3 39 24 32 29
-13 9 -57 12 -62 4z"/>
<path d="M2010 1780 c0 -5 5 -10 10 -10 6 0 10 5 10 10 0 6 -4 10 -10 10 -5 0
-10 -4 -10 -10z"/>
<path d="M2431 1773 c-6 -10 -11 -13 -11 -8 0 10 -70 18 -70 9 0 -9 25 -29 38
-32 8 -1 11 2 7 8 -3 5 -2 10 4 10 19 0 21 -19 4 -30 -15 -10 -15 -11 -1 -6
28 8 28 -5 -1 -32 -15 -15 -23 -24 -18 -20 5 3 16 4 23 1 10 -4 12 0 7 13 -4
12 -3 15 5 10 7 -4 12 -2 12 3 0 6 9 11 20 11 11 0 20 5 20 11 0 6 -7 9 -15 5
-12 -4 -14 2 -10 29 5 39 1 43 -14 18z"/>
<path d="M2726 1781 c-8 -12 24 -45 34 -35 2 3 0 8 -6 12 -6 4 -13 14 -16 22
-3 11 -6 11 -12 1z"/>
<path d="M251 1764 c0 -11 3 -14 6 -6 3 7 2 16 -1 19 -3 4 -6 -2 -5 -13z"/>
<path d="M835 1770 c3 -5 8 -10 11 -10 2 0 4 5 4 10 0 6 -5 10 -11 10 -5 0 -7
-4 -4 -10z"/>
<path d="M1555 1770 c-8 -13 5 -13 25 0 13 8 13 10 -2 10 -9 0 -20 -4 -23 -10z"/>
<path d="M2198 1764 c-16 -8 -28 -22 -29 -32 0 -14 -2 -14 -9 3 -9 21 -9 21
-16 -12 -3 -17 0 -21 11 -17 10 4 15 0 15 -11 0 -9 -4 -14 -8 -11 -5 3 -9 -1
-9 -9 0 -16 34 -27 43 -14 3 6 0 16 -6 24 -10 12 -10 15 1 15 11 0 11 2 -1 10
-12 8 -13 11 -1 19 11 7 11 9 0 13 -9 3 -8 6 4 11 9 3 17 2 17 -3 0 -6 4 -10
9 -10 6 0 9 9 8 20 -1 11 -1 20 -2 20 0 -1 -12 -8 -27 -16z m-8 -94 c0 -5 -2
-10 -4 -10 -3 0 -8 5 -11 10 -3 6 -1 10 4 10 6 0 11 -4 11 -10z"/>
<path d="M50 1759 c0 -5 5 -7 10 -4 6 3 10 8 10 11 0 2 -4 4 -10 4 -5 0 -10
-5 -10 -11z"/>
<path d="M920 1761 c0 -6 4 -13 10 -16 6 -3 7 1 4 9 -7 18 -14 21 -14 7z"/>
<path d="M1735 1750 c-4 -11 -11 -17 -17 -14 -6 4 -9 1 -6 -7 3 -8 14 -15 26
-15 19 -1 20 1 10 14 -10 12 -10 16 0 19 14 5 16 23 3 23 -5 0 -13 -9 -16 -20z"/>
<path d="M2530 1764 c0 -13 29 -52 30 -39 0 6 5 3 10 -5 7 -12 9 -10 7 8 -1
20 -5 24 -23 21 -4 0 -11 5 -15 13 -5 7 -9 8 -9 2z"/>
<path d="M125 1751 c-3 -6 -11 -9 -16 -5 -5 3 -8 0 -7 -8 2 -8 -6 -13 -19 -13
-11 0 -25 -3 -29 -7 -4 -5 17 -7 47 -7 30 1 46 3 36 6 -14 4 -16 8 -6 19 6 8
9 17 6 20 -3 3 -8 0 -12 -5z"/>
<path d="M703 1733 c-20 -29 -23 -46 -10 -59 4 -4 7 2 7 14 0 15 6 22 20 22
15 0 20 7 20 25 0 33 -14 32 -37 -2z"/>
<path d="M782 1748 c3 -7 15 -15 28 -16 21 -3 22 -2 11 12 -16 19 -44 21 -39
4z"/>
<path d="M1111 1748 c0 -7 4 -22 8 -32 10 -25 22 -6 14 22 -6 23 -23 31 -22
10z"/>
<path d="M2315 1743 c-13 -30 -15 -52 -6 -58 5 -3 12 -1 16 5 3 5 1 10 -6 10
-7 0 -6 8 5 25 18 28 20 35 7 35 -5 0 -12 -8 -16 -17z"/>
<path d="M2465 1750 c3 -5 11 -10 16 -10 6 0 7 5 4 10 -3 6 -11 10 -16 10 -6
0 -7 -4 -4 -10z"/>
<path d="M15 1740 c-3 -5 1 -10 10 -10 9 0 13 5 10 10 -3 6 -8 10 -10 10 -2 0
-7 -4 -10 -10z"/>
<path d="M180 1740 c0 -13 11 -13 30 0 12 8 11 10 -7 10 -13 0 -23 -4 -23 -10z"/>
<path d="M1231 1739 c-13 -5 -22 -12 -19 -15 3 -3 21 2 39 10 37 16 19 21 -20
5z"/>
<path d="M2493 1734 c-16 -16 -17 -34 -3 -34 6 0 10 6 10 14 0 8 5 16 12 18 7
3 8 7 3 10 -6 3 -16 0 -22 -8z"/>
<path d="M403 1732 c-13 -4 -53 -35 -90 -69 -38 -34 -79 -71 -93 -82 -42 -33
-18 -32 50 2 69 33 126 39 235 23 49 -8 49 -8 27 9 -13 9 -29 14 -36 12 -8 -3
-18 -1 -24 5 -13 13 -111 12 -148 -2 -15 -6 -29 -8 -32 -5 -3 3 0 5 5 5 6 0
27 15 46 34 20 19 38 32 41 28 3 -3 6 -1 6 5 0 6 16 10 35 9 27 -1 35 2 33 14
-4 17 -23 21 -55 12z"/>
<path d="M1475 1730 c-7 -12 2 -12 30 0 19 8 19 9 -2 9 -12 1 -25 -3 -28 -9z"/>
<path d="M2004 1732 c3 -6 2 -13 -3 -17 -6 -3 -8 -12 -4 -20 7 -21 -3 -19 -24
4 -30 33 -68 36 -95 9 -12 -12 -27 -23 -32 -23 -5 0 -11 -6 -13 -12 -6 -18 24
-16 30 1 9 24 51 46 75 39 35 -9 26 -26 -11 -20 -29 5 -36 1 -51 -24 -10 -16
-22 -26 -28 -23 -7 4 -8 2 -4 -5 4 -6 11 -9 16 -6 5 3 19 0 30 -7 17 -11 22
-11 30 2 14 22 12 42 -2 34 -10 -5 -10 -3 0 7 11 12 14 12 22 -1 7 -11 10 -11
10 -2 0 9 5 10 18 3 10 -5 24 -6 32 -1 15 10 20 59 6 67 -5 3 -6 1 -2 -5z
m-107 -69 c-4 -3 -2 -12 4 -20 7 -8 8 -13 1 -13 -12 0 -23 26 -15 34 4 3 9 6
11 6 3 0 2 -3 -1 -7z"/>
<path d="M2766 1731 c-6 -9 -4 -18 7 -26 10 -7 17 -20 17 -29 0 -9 5 -16 11
-16 7 0 9 -13 5 -37 -6 -34 -5 -36 6 -16 7 12 16 21 20 20 15 -4 19 13 4 19
-9 3 -14 10 -11 14 3 5 1 11 -5 15 -5 3 -10 15 -10 27 0 13 -5 18 -14 15 -9
-4 -16 1 -18 11 -3 14 -5 14 -12 3z"/>
<path d="M757 1724 c-11 -11 3 -24 18 -18 8 4 12 10 9 15 -6 11 -18 12 -27 3z"/>
<path d="M1020 1720 c0 -5 5 -10 10 -10 6 0 10 5 10 10 0 6 -4 10 -10 10 -5 0
-10 -4 -10 -10z"/>
<path d="M1156 1715 c4 -8 10 -15 15 -15 4 0 6 7 3 15 -4 8 -10 15 -15 15 -4
0 -6 -7 -3 -15z"/>
<path d="M1274 1718 c-5 -8 0 -9 14 -6 16 4 22 2 22 -9 0 -13 3 -13 15 -3 8 7
12 16 9 21 -8 13 -52 11 -60 -3z"/>
<path d="M1520 1714 c-23 -14 -23 -14 -2 -9 12 4 22 2 22 -4 0 -6 8 -7 17 -4
13 5 15 2 10 -11 -4 -10 -7 -22 -7 -27 0 -6 -7 -6 -19 0 -18 10 -40 9 -73 -4
-10 -4 -18 -3 -18 3 0 12 24 22 58 23 15 0 20 3 12 6 -8 2 -22 7 -30 11 -8 3
-22 7 -30 8 -8 1 -28 5 -45 9 -21 5 -27 4 -20 -3 6 -5 19 -12 30 -14 22 -4 28
-32 8 -34 -7 -1 -16 -3 -20 -4 -5 -1 -12 -2 -18 0 -5 1 -5 -4 2 -11 10 -10 9
-15 -5 -27 -13 -11 -11 -10 8 1 14 9 24 21 22 27 -1 6 2 8 9 5 6 -4 23 -11 37
-16 l27 -9 -27 4 c-20 2 -32 -4 -48 -26 -11 -15 -16 -28 -11 -28 5 0 11 6 14
14 8 20 97 39 129 27 21 -8 28 -7 32 5 3 9 1 12 -4 9 -6 -3 -10 -2 -10 4 0 5
6 12 13 14 9 4 9 8 -2 15 -9 7 -10 12 -2 16 6 4 11 3 11 -3 0 -6 7 -8 15 -5 8
4 15 1 15 -5 0 -6 5 -11 10 -11 7 0 7 6 0 19 -7 13 -7 22 0 26 15 9 12 25 -5
25 -8 0 -12 -6 -9 -14 4 -11 -1 -14 -23 -11 -15 2 -35 4 -43 4 -13 1 -13 2 0
11 25 16 -3 11 -30 -6z m13 -71 c-7 -2 -19 -2 -25 0 -7 3 -2 5 12 5 14 0 19
-2 13 -5z"/>
<path d="M1653 1718 c-15 -21 -10 -40 17 -57 15 -10 21 -11 16 -3 -4 7 -2 20
5 30 10 12 6 11 -10 -3 l-23 -20 5 33 c6 35 4 38 -10 20z"/>
<path d="M2215 1712 c2 -9 4 -19 4 -22 1 -3 6 2 11 10 8 13 10 12 10 -3 0 -10
5 -15 10 -12 6 4 8 10 5 15 -3 4 0 11 5 13 6 3 5 4 -2 3 -7 -2 -20 1 -30 5
-12 7 -15 5 -13 -9z"/>
<path d="M810 1716 c0 -2 7 -6 15 -10 8 -3 15 -1 15 4 0 6 -7 10 -15 10 -8 0
-15 -2 -15 -4z"/>
<path d="M873 1706 c7 -18 -12 -26 -76 -28 -41 -1 -35 -3 28 -7 85 -6 105 -4
84 10 -15 9 4 13 48 10 11 -1 24 3 28 10 6 8 -5 10 -39 8 -25 -2 -46 -1 -46 3
0 5 -7 8 -16 8 -10 0 -14 -6 -11 -14z"/>
<path d="M1004 1703 c6 -18 3 -23 -10 -23 -10 0 -15 -3 -11 -6 3 -4 25 -6 49
-6 68 1 75 2 49 13 -13 5 -29 8 -35 6 -6 -2 -19 6 -30 17 l-18 21 6 -22z"/>
<path d="M2591 1703 c-1 -12 -4 -29 -8 -39 -4 -11 -3 -15 4 -11 6 4 14 0 17
-9 5 -13 16 -15 59 -10 28 3 54 6 57 6 3 0 -1 4 -9 9 -7 5 -25 4 -42 -2 -24
-9 -32 -8 -46 5 -14 15 -15 21 -4 44 10 24 10 26 -2 15 -12 -9 -16 -9 -20 1
-3 7 -6 3 -6 -9z"/>
<path d="M630 1701 c0 -5 5 -13 10 -16 6 -3 10 -2 10 4 0 5 -4 13 -10 16 -5 3
-10 2 -10 -4z"/>
<path d="M2370 1701 c0 -5 -8 -12 -17 -14 -15 -4 -15 -5 -2 -6 9 0 22 6 29 14
9 10 9 15 1 15 -6 0 -11 -4 -11 -9z"/>
<path d="M2635 1700 c-3 -5 -1 -19 6 -31 10 -19 12 -20 26 -6 9 9 13 23 10 31
-7 18 -32 21 -42 6z"/>
<path d="M2856 1666 c22 -24 45 -47 53 -50 17 -8 -7 22 -53 66 -43 43 -43 33
0 -16z"/>
<path d="M1712 1688 c-16 -16 -15 -35 3 -42 8 -3 15 -1 15 3 0 5 -6 11 -12 14
-10 3 -10 7 1 20 16 20 11 23 -7 5z"/>
<path d="M2120 1688 c0 -9 -6 -19 -12 -21 -8 -3 -7 -6 4 -6 22 -1 33 18 19 32
-8 8 -11 7 -11 -5z"/>
<path d="M2450 1692 c0 -11 22 -32 32 -32 5 0 4 9 -2 20 -11 20 -30 28 -30 12z"/>
<path d="M2502 1685 c-7 -8 -9 -15 -5 -15 4 0 2 -5 -5 -12 -9 -9 -15 -9 -24 0
-7 7 -19 12 -27 12 -10 -1 -7 -6 9 -15 14 -8 19 -14 13 -15 -7 0 -13 -7 -13
-16 0 -9 -6 -14 -13 -11 -10 4 -13 -2 -9 -19 2 -14 0 -24 -7 -24 -15 0 -10
-22 9 -38 13 -11 11 -12 -10 -7 -24 6 -24 5 3 -10 15 -9 32 -13 38 -9 6 4 16
0 21 -7 8 -12 9 -11 5 1 -2 9 -14 14 -28 13 -23 -3 -23 -2 -4 10 24 15 34 53
12 44 -9 -3 -18 1 -21 9 -8 20 20 61 44 67 11 3 20 12 20 21 0 9 5 16 10 16 6
0 10 5 10 10 0 14 -13 12 -28 -5z m-42 -146 c0 -5 -7 -6 -15 -3 -8 4 -15 13
-15 21 0 13 3 13 15 3 8 -7 15 -16 15 -21z"/>
<path d="M2210 1665 c0 -8 4 -15 10 -15 5 0 7 7 4 15 -4 8 -8 15 -10 15 -2 0
-4 -7 -4 -15z"/>
<path d="M2535 1671 c-3 -5 -1 -12 5 -16 5 -3 10 1 10 9 0 18 -6 21 -15 7z"/>
<path d="M30 1666 c0 -9 40 -13 46 -5 3 5 -6 9 -20 9 -14 0 -26 -2 -26 -4z"/>
<path d="M95 1660 c3 -5 16 -10 28 -9 21 0 21 1 2 9 -28 12 -37 12 -30 0z"/>
<path d="M158 1663 c7 -3 16 -2 19 1 4 3 -2 6 -13 5 -11 0 -14 -3 -6 -6z"/>
<path d="M195 1660 c3 -5 8 -10 11 -10 2 0 4 5 4 10 0 6 -5 10 -11 10 -5 0 -7
-4 -4 -10z"/>
<path d="M241 1662 c-7 -2 -44 -36 -82 -74 -38 -38 -75 -68 -81 -66 -7 3 -19
-1 -28 -9 -8 -7 -24 -19 -35 -27 -37 -26 -6 -29 34 -3 21 14 55 33 75 41 22 9
38 24 41 38 3 13 28 40 56 60 45 33 55 53 20 40z"/>
<path d="M1136 1647 l-21 -18 22 10 c12 6 36 11 54 11 38 0 31 13 -8 15 -14 0
-35 -8 -47 -18z"/>
<path d="M1748 1655 c5 -11 7 -27 5 -35 -4 -12 -3 -12 5 -1 17 24 25 -8 8 -34
-22 -34 -19 -45 4 -15 26 33 25 41 -6 76 -16 18 -22 22 -16 9z"/>
<path d="M2245 1660 c3 -5 10 -10 16 -10 5 0 9 5 9 10 0 6 -7 10 -16 10 -8 0
-12 -4 -9 -10z"/>
<path d="M2291 1657 c-6 -8 -8 -17 -4 -20 3 -4 -22 -5 -56 -2 -54 4 -61 2 -51
-10 14 -17 24 -20 15 -5 -3 6 5 10 18 10 23 0 43 -23 38 -43 -1 -5 3 -6 9 -2
8 5 7 11 -1 21 -9 11 -9 13 2 10 13 -5 69 35 69 49 0 10 -28 5 -39 -8z"/>
<path d="M715 1641 c28 -28 125 -22 125 8 0 3 -31 6 -70 6 -59 0 -67 -2 -55
-14z"/>
<path d="M916 1651 c-6 -8 39 -76 76 -118 16 -17 25 -20 50 -13 17 6 40 5 55
-1 16 -6 30 -6 35 -1 6 6 -8 16 -33 26 -34 14 -44 15 -52 4 -6 -9 -7 -8 -3 5
4 14 1 16 -17 12 -15 -4 -27 1 -37 15 -28 40 -69 79 -74 71z"/>
<path d="M1275 1650 c3 -5 8 -10 11 -10 2 0 4 5 4 10 0 6 -5 10 -11 10 -5 0
-7 -4 -4 -10z"/>
<path d="M1944 1645 c-10 -8 -14 -15 -8 -15 6 0 17 7 24 15 16 19 9 19 -16 0z"/>
<path d="M2345 1652 c11 -8 35 -48 35 -58 0 -4 -7 -1 -16 7 -13 11 -15 11 -14
-2 5 -36 0 -60 -12 -53 -8 5 -7 0 2 -11 14 -17 13 -18 -17 -12 -22 4 -33 3
-33 -5 0 -6 2 -9 6 -6 3 3 21 2 40 -2 35 -8 59 5 29 16 -12 5 -13 10 -4 20 6
7 8 18 4 25 -5 8 0 9 16 4 19 -5 21 -4 9 4 -12 8 -12 11 -1 11 11 0 11 3 0 17
-12 15 -12 16 5 10 16 -6 17 -5 6 8 -10 12 -10 15 4 15 9 0 16 5 16 10 0 19
-31 10 -39 -12 l-8 -22 -5 22 c-4 12 -12 22 -20 22 -8 0 -9 -3 -3 -8z"/>
<path d="M550 1640 c-8 -5 -10 -10 -5 -10 6 0 17 5 25 10 8 5 11 10 5 10 -5 0
-17 -5 -25 -10z"/>
<path d="M632 1638 c3 -7 9 -13 14 -13 5 0 14 -4 21 -8 6 -4 14 -3 18 3 3 6
-1 12 -9 15 -9 3 -23 7 -32 10 -10 3 -14 0 -12 -7z"/>
<path d="M1310 1646 c0 -9 30 -14 35 -6 4 6 -3 10 -14 10 -12 0 -21 -2 -21 -4z"/>
<path d="M1790 1646 c0 -2 7 -12 16 -20 12 -12 12 -16 2 -16 -10 0 -9 -3 2
-10 12 -8 13 -12 2 -19 -11 -6 -10 -10 4 -15 22 -9 28 -2 16 21 -5 10 -7 23
-5 30 2 6 -5 17 -16 23 -12 6 -21 9 -21 6z"/>
<path d="M2518 1632 c-4 -15 -2 -19 9 -15 11 4 14 2 11 -8 -3 -8 -11 -13 -17
-11 -6 1 -11 -2 -11 -8 0 -13 3 -13 32 3 l24 12 -21 23 c-22 23 -22 23 -27 4z"/>
<path d="M866 1633 c-11 -11 -6 -23 9 -23 8 0 15 4 15 9 0 13 -16 22 -24 14z"/>
<path d="M1035 1606 c37 -20 74 -36 82 -36 20 0 73 -54 73 -75 0 -14 5 -16 23
-10 25 9 58 10 142 3 58 -4 115 12 115 33 0 13 -18 11 -22 -3 -3 -8 -28 -11
-74 -10 -38 1 -90 2 -116 3 -32 1 -52 7 -65 20 -49 52 -58 59 -73 59 -23 0
-81 30 -76 39 3 4 -14 8 -36 10 l-41 2 68 -35z"/>
<path d="M1620 1630 c-9 -6 -10 -10 -3 -10 6 0 15 5 18 10 8 12 4 12 -15 0z"/>
<path d="M1646 1624 c-10 -25 1 -29 14 -5 6 12 7 21 1 21 -5 0 -12 -7 -15 -16z"/>
<path d="M1680 1625 c-8 -9 -8 -15 -2 -15 12 0 26 19 19 26 -2 2 -10 -2 -17
-11z"/>
<path d="M1964 1625 c-10 -8 -31 -15 -46 -15 -31 0 -36 -11 -13 -30 8 -7 15
-8 15 -3 0 5 18 17 40 27 22 10 40 22 40 27 0 13 -13 11 -36 -6z"/>
<path d="M2100 1620 c7 -13 6 -19 -5 -24 -10 -3 -13 -16 -10 -41 3 -21 1 -35
-6 -35 -5 0 -7 -4 -4 -10 3 -5 11 -10 16 -10 6 0 8 4 4 9 -3 5 3 16 13 23 11
7 20 16 21 21 0 4 3 7 6 7 3 0 10 0 16 0 6 0 8 -8 5 -17 -3 -10 -1 -25 5 -33
9 -12 10 -11 6 8 -4 17 0 23 20 28 18 5 21 9 12 15 -10 6 -11 11 -3 19 8 8 16
7 27 -4 9 -9 22 -16 29 -16 10 0 10 2 -1 9 -8 5 -16 17 -17 26 -1 9 -6 20 -10
23 -4 4 -4 -1 -1 -11 5 -14 2 -16 -16 -13 -13 2 -31 -2 -41 -10 -21 -15 -62
-1 -50 17 4 6 12 5 22 -3 15 -12 16 -11 1 11 -19 30 -54 39 -39 11z m20 -49
c0 -5 -6 -13 -13 -19 -10 -8 -13 -6 -13 9 0 10 6 19 13 19 7 0 13 -4 13 -9z
m60 -1 c0 -5 -5 -10 -11 -10 -5 0 -7 5 -4 10 3 6 8 10 11 10 2 0 4 -4 4 -10z"/>
<path d="M2326 1617 c3 -10 9 -15 12 -12 3 3 0 11 -7 18 -10 9 -11 8 -5 -6z"/>
<path d="M2475 1620 c-3 -6 1 -7 9 -4 18 7 21 14 7 14 -6 0 -13 -4 -16 -10z"/>
<path d="M2705 1620 c3 -5 0 -19 -8 -31 -11 -15 -16 -17 -20 -7 -4 9 -6 7 -6
-4 -1 -22 3 -22 33 -2 16 10 26 12 31 5 3 -6 12 -11 18 -11 9 0 9 2 1 8 -6 4
-14 17 -18 30 -4 12 -14 22 -22 22 -8 0 -12 -4 -9 -10z"/>
<path d="M1515 1610 c7 -12 -12 -50 -26 -50 -6 0 -7 5 -4 10 3 6 1 10 -5 10
-7 0 -10 -7 -6 -15 5 -14 -17 -21 -47 -16 -5 1 -6 -3 -3 -8 7 -11 78 6 87 21
4 7 9 6 13 -1 4 -6 -4 -16 -18 -22 -21 -10 -23 -14 -11 -25 15 -16 10 -90 -7
-112 -8 -10 -7 -11 8 -6 10 4 16 4 12 0 -7 -9 31 -50 39 -42 9 9 -6 38 -17 31
-5 -3 -10 -3 -11 2 0 4 -2 19 -4 33 -2 14 1 42 5 62 6 28 5 36 -4 31 -6 -4 -4
1 4 12 14 17 15 17 21 -11 7 -30 8 -28 14 18 3 20 -2 29 -16 33 -10 4 -19 11
-19 17 0 5 6 8 14 5 10 -4 12 0 9 14 -3 10 -12 19 -20 19 -8 0 -11 -4 -8 -10z"/>
<path d="M1703 1582 c-8 -30 -7 -39 3 -39 7 0 10 5 7 10 -3 6 1 15 9 21 13 10
14 15 3 29 -11 15 -14 13 -22 -21z"/>
<path d="M2295 1612 c-10 -7 -18 -32 -10 -32 2 0 9 9 15 20 12 22 11 24 -5 12z"/>
<path d="M2844 1609 c-4 -6 1 -9 12 -8 11 2 26 -1 34 -6 13 -8 13 -7 1 8 -15
19 -37 22 -47 6z"/>
<path d="M604 1598 c-3 -4 4 -8 15 -8 12 0 21 4 21 8 0 5 -7 9 -15 9 -9 0 -18
-4 -21 -9z"/>
<path d="M1448 1599 c-10 -5 -18 -17 -18 -25 0 -19 16 -10 30 17 12 22 11 22
-12 8z"/>
<path d="M1557 1598 c7 -8 11 -17 8 -19 -2 -3 5 -5 15 -6 26 -2 25 1 -7 23
-20 13 -25 13 -16 2z"/>
<path d="M1610 1601 c0 -6 4 -13 10 -16 6 -3 7 1 4 9 -7 18 -14 21 -14 7z"/>
<path d="M2484 1599 c-3 -6 -2 -15 3 -20 5 -5 9 -1 10 11 2 22 -2 25 -13 9z"/>
<path d="M738 1593 c-10 -2 -18 -10 -18 -18 0 -7 -7 -15 -15 -19 -8 -3 -12
-12 -9 -21 8 -19 24 -20 24 0 0 17 39 35 76 35 14 0 33 8 42 17 19 18 23 18
-50 -4 -15 -4 -19 -3 -14 5 7 12 -4 14 -36 5z"/>
<path d="M867 1584 c6 -15 23 -19 23 -5 0 5 -7 11 -14 14 -10 4 -13 1 -9 -9z"/>
<path d="M1664 1593 c4 -7 2 -13 -4 -13 -6 0 -8 -5 -4 -11 3 -6 0 -15 -7 -20
-12 -8 -12 -11 1 -19 13 -8 8 -14 -10 -12 -3 0 -7 -9 -7 -21 -2 -21 -1 -21 17
3 11 14 18 31 15 38 -2 6 -1 12 4 12 10 0 7 37 -4 47 -4 5 -5 2 -1 -4z"/>
<path d="M2817 1586 c-4 -10 0 -12 14 -9 10 3 19 1 19 -4 0 -5 12 -9 28 -10
15 0 19 1 10 4 -10 2 -18 9 -18 15 0 6 -3 8 -6 5 -4 -3 -15 -2 -24 3 -13 7
-20 6 -23 -4z"/>
<path d="M2926 1587 c34 -56 74 -87 74 -57 0 6 -5 9 -11 8 -6 -2 -14 3 -16 10
-3 6 2 12 11 12 9 0 16 5 16 10 0 6 -4 10 -10 10 -16 0 -23 2 -48 11 -17 7
-21 6 -16 -4z"/>
<path d="M2320 1575 c-7 -9 -8 -15 -2 -15 5 0 12 7 16 15 3 8 4 15 2 15 -2 0
-9 -7 -16 -15z"/>
<path d="M2583 1558 c0 -21 4 -38 8 -38 11 0 21 33 11 39 -5 3 -12 13 -15 21
-3 8 -5 -2 -4 -22z"/>
<path d="M2608 1578 c-9 -5 -6 -7 9 -5 12 2 25 6 28 8 8 9 -23 6 -37 -3z"/>
<path d="M2770 1580 c0 -5 5 -10 10 -10 6 0 10 5 10 10 0 6 -4 10 -10 10 -5 0
-10 -4 -10 -10z"/>
<path d="M1868 1563 c8 -14 9 -24 2 -28 -5 -3 -10 -12 -10 -18 0 -8 3 -7 9 2
5 8 23 15 41 16 18 2 39 10 48 19 15 14 13 15 -16 4 -28 -11 -34 -10 -42 2 -5
8 -10 11 -10 6 0 -5 -7 -2 -17 5 -15 13 -15 12 -5 -8z"/>
<path d="M2540 1570 c0 -5 5 -10 10 -10 6 0 10 5 10 10 0 6 -4 10 -10 10 -5 0
-10 -4 -10 -10z"/>
<path d="M487 1559 c-10 -6 -27 -9 -38 -6 -10 3 -19 1 -19 -4 0 -5 8 -9 18
-10 11 -1 9 -4 -8 -9 l-25 -8 25 -3 c14 -1 30 -3 37 -3 7 -1 18 -7 25 -14 15
-15 38 -16 38 -1 0 6 -7 9 -15 5 -8 -3 -14 0 -12 6 1 7 -4 12 -12 13 -27 0
-24 25 3 25 13 0 28 5 31 10 8 13 -25 12 -48 -1z"/>
<path d="M2281 1554 c0 -11 3 -14 6 -6 3 7 2 16 -1 19 -3 4 -6 -2 -5 -13z"/>
<path d="M2719 1563 c-1 -4 -1 -11 0 -15 1 -8 -85 -59 -96 -56 -12 3 -57 -23
-66 -38 -4 -8 -13 -14 -18 -14 -6 0 -8 4 -5 9 4 5 -4 7 -16 3 -16 -4 -19 -2
-13 8 5 9 4 11 -4 6 -14 -9 -5 -26 15 -26 8 0 14 -3 14 -7 0 -9 -83 -83 -93
-83 -5 0 -17 -10 -28 -22 -16 -20 -20 -21 -30 -8 -10 13 -10 13 -6 -1 5 -16
-40 -42 -65 -38 -7 1 -20 0 -28 -4 -8 -3 -27 -8 -42 -11 -18 -4 -28 -13 -28
-25 0 -10 -7 -24 -15 -31 -13 -11 -15 -8 -15 13 0 14 6 28 13 30 8 4 6 6 -4 6
-9 1 -24 -8 -35 -20 -16 -17 -16 -22 -4 -30 11 -6 5 -8 -17 -5 -18 2 -33 -1
-33 -5 0 -5 17 -9 38 -10 51 -1 83 -7 99 -20 7 -7 27 -9 43 -5 33 6 41 -12 15
-34 -12 -10 -18 -10 -30 0 -13 11 -101 23 -167 22 -28 0 -37 11 -18 23 6 3 10
11 10 18 0 6 -7 2 -15 -10 -8 -12 -23 -20 -32 -18 -10 2 -22 4 -26 4 -5 1 -6
5 -3 10 3 5 -2 8 -12 7 -11 -1 -16 5 -14 18 4 20 -13 36 -37 36 -11 0 -9 -4 5
-14 20 -15 17 -19 -31 -29 -15 -3 -13 -5 8 -6 17 -1 27 -7 27 -16 0 -8 5 -16
10 -16 6 -1 14 -2 19 -3 5 0 13 -4 17 -8 4 -5 18 -8 31 -8 12 0 23 -4 23 -9 0
-12 172 -112 185 -107 6 2 16 -7 22 -20 8 -18 8 -24 0 -24 -12 -1 52 -39 66
-40 4 0 7 15 8 33 l1 32 13 -40 13 -40 1 32 c1 29 -20 63 -38 63 -4 0 -6 -13
-3 -30 3 -18 0 -30 -7 -30 -6 0 -11 5 -11 11 0 5 -4 7 -10 4 -6 -3 -10 4 -10
17 0 18 2 20 10 8 8 -13 10 -13 10 2 0 19 -57 52 -63 35 -3 -10 -109 52 -121
72 -4 5 -13 8 -20 5 -7 -3 -19 2 -26 11 -22 26 74 19 186 -15 55 -16 113 -30
129 -30 87 0 98 -7 70 -44 -12 -15 -17 -17 -29 -7 -8 7 -12 19 -9 27 3 10 -2
14 -18 14 -13 0 -19 -4 -14 -8 18 -13 35 -62 35 -102 0 -22 3 -40 8 -40 4 0 6
19 5 43 l-3 42 15 -30 c26 -54 21 -63 -40 -67 -30 -1 -55 0 -55 5 0 4 -7 7
-15 7 -8 0 -12 -6 -9 -15 3 -8 9 -14 12 -13 22 2 32 -3 26 -14 -6 -10 -4 -10
8 0 8 7 24 9 33 5 13 -4 16 -3 11 5 -4 7 -2 12 3 12 14 0 14 -37 1 -45 -11 -7
-2 -35 12 -35 7 0 6 5 -1 14 -9 11 -8 15 4 20 11 4 14 12 10 27 -5 14 -3 19 3
15 6 -3 13 0 16 6 4 7 5 4 3 -8 -4 -20 15 -26 39 -12 12 8 34 5 52 -6 7 -4 16
-5 20 -1 3 3 0 10 -7 15 -11 6 -8 9 10 13 14 2 8 4 -14 4 -40 0 -57 13 -57 46
0 26 19 20 26 -8 7 -27 24 -34 24 -10 0 9 -7 29 -15 46 -9 16 -13 33 -10 38 2
5 -2 11 -10 15 -8 3 -15 1 -15 -5 0 -6 -7 -3 -16 5 -16 17 -11 55 10 68 21 15
106 8 133 -9 15 -10 45 -18 67 -18 21 0 41 -5 43 -11 6 -17 -27 -26 -43 -13
-11 9 -12 6 -3 -20 6 -17 9 -47 7 -66 -3 -25 0 -35 10 -35 10 0 12 11 8 45 -2
25 -1 47 4 50 13 8 30 -29 30 -64 0 -17 3 -31 8 -31 4 0 5 32 2 72 -4 65 -8
74 -30 85 l-24 12 29 11 c16 6 40 8 55 5 15 -3 47 -1 71 5 24 7 56 14 71 17
30 6 61 33 37 33 -8 0 -39 -7 -69 -16 -30 -8 -73 -16 -95 -17 -22 -1 -44 -5
-50 -9 -5 -3 -25 -9 -42 -13 -18 -3 -35 -10 -38 -15 -3 -4 -18 -3 -33 2 -27
11 -28 13 -24 67 2 31 9 65 15 76 10 20 10 20 18 0 4 -11 10 -37 14 -58 3 -21
10 -35 15 -32 5 3 5 19 0 37 -8 25 -6 34 7 43 10 7 22 11 29 8 6 -2 19 12 28
31 11 23 24 36 36 36 11 0 20 5 20 10 0 6 -13 10 -29 10 -23 0 -30 -6 -35 -25
-8 -30 -41 -46 -84 -39 -30 5 -31 3 -37 -41 -8 -53 -27 -59 -68 -21 -23 21
-34 66 -16 66 4 0 12 14 18 30 5 17 15 30 20 30 6 0 11 9 11 20 0 11 5 20 10
20 6 0 10 -4 10 -10 0 -5 11 -10 25 -10 14 0 25 4 25 8 0 12 39 12 46 1 7 -12
34 8 34 26 0 22 31 27 46 8 12 -16 13 -16 14 -2 0 30 -12 79 -21 79 -4 0 -11
-9 -14 -20 -12 -39 -28 -21 -22 25 4 28 2 47 -5 51 -7 4 -8 3 -4 -4 5 -8 2
-10 -8 -6 -28 11 -6 24 37 23 23 -1 32 -4 20 -6 -16 -3 -23 -11 -22 -26 1 -17
2 -18 6 -4 2 9 13 17 24 17 10 0 19 4 19 9 0 13 103 -10 123 -27 17 -15 25
-48 8 -38 -9 6 -27 -51 -19 -59 2 -3 14 15 25 39 l21 43 -24 27 c-14 14 -28
27 -32 27 -4 1 -20 2 -37 4 -60 5 -130 15 -147 21 -10 3 -19 2 -19 -3z m-9
-63 c0 -5 7 -7 15 -4 12 5 15 -4 15 -44 0 -28 -3 -57 -6 -66 -11 -29 -24 -5
-24 45 0 51 -14 67 -22 24 -3 -14 -1 -25 3 -25 20 0 7 -30 -21 -50 -32 -23
-36 -20 -42 30 -2 17 -8 24 -20 22 -20 -3 -25 23 -6 34 7 4 8 3 4 -4 -11 -18
8 -14 30 6 11 9 26 18 34 20 8 2 17 8 18 13 5 12 22 12 22 -1z m-122 -91 c2
-14 -2 -38 -9 -55 -10 -26 -12 -27 -18 -9 -6 15 -9 10 -14 -22 -8 -49 -27 -67
-27 -26 0 15 -4 33 -8 40 -4 6 -7 -13 -8 -43 0 -52 -7 -74 -21 -61 -3 4 -6 35
-7 69 -1 46 2 62 12 61 6 -2 12 3 12 11 0 25 22 30 38 10 14 -18 14 -18 10 2
-6 26 9 57 25 51 7 -2 13 -15 15 -28z m-142 -131 c-8 -18 -21 -60 -28 -92 -19
-86 -38 -85 -38 1 l0 68 -20 -42 c-34 -76 -43 -40 -14 56 3 11 7 11 19 1 12
-10 15 -9 15 9 0 24 10 27 28 9 9 -9 12 -8 12 8 0 11 5 25 12 32 21 21 30 -13
14 -50z m-123 -28 c-3 -11 -9 -20 -14 -20 -5 0 -9 9 -9 20 0 11 6 20 14 20 9
0 12 -7 9 -20z m-73 -25 c0 -13 -5 -27 -10 -30 -7 -4 -10 6 -8 29 2 38 18 39
18 1z m40 11 c0 -13 -9 -34 -21 -47 l-21 -24 6 25 c3 14 6 35 6 48 0 13 6 22
15 22 9 0 15 -9 15 -24z m237 -6 c1 -14 -4 -20 -18 -20 -17 0 -18 3 -7 20 7
11 15 20 18 20 3 0 6 -9 7 -20z m28 -43 c26 -12 65 -48 65 -59 0 -16 -23 -7
-42 17 -11 14 -24 22 -30 19 -6 -4 -5 -9 3 -15 17 -10 12 -14 -24 -23 -18 -4
-26 -3 -23 3 4 5 2 12 -4 16 -10 6 -14 -7 -11 -32 1 -6 -4 -15 -10 -19 -9 -5
-10 -2 -6 9 3 9 1 18 -6 21 -9 3 -9 7 -1 13 6 4 11 16 11 27 0 15 -6 12 -28
-15 -20 -24 -24 -35 -14 -37 14 -3 29 -32 17 -32 -5 0 -16 6 -26 13 -16 12
-16 15 3 58 11 24 23 48 27 52 9 8 70 -1 99 -16z m-184 -68 c22 -21 27 -29 14
-25 -11 4 -34 10 -52 13 -28 5 -31 8 -22 24 13 26 20 24 60 -12z m138 -189 c0
-47 -1 -52 -12 -35 -6 11 -12 22 -12 25 -1 3 -4 26 -9 52 -4 27 -4 53 0 60 13
21 33 -42 33 -102z"/>
<path d="M2652 1425 c1 -19 6 -35 10 -35 4 0 8 16 8 35 0 19 -5 35 -10 35 -6
0 -10 -16 -8 -35z"/>
<path d="M1605 1550 c3 -5 8 -10 11 -10 2 0 4 5 4 10 0 6 -5 10 -11 10 -5 0
-7 -4 -4 -10z"/>
<path d="M2493 1540 c1 -11 2 -20 4 -20 1 0 7 9 13 20 8 16 8 20 -4 20 -9 0
-14 -8 -13 -20z"/>
<path d="M2617 1541 c-4 -17 -3 -21 5 -13 5 5 8 16 6 23 -3 8 -7 3 -11 -10z"/>
<path d="M2645 1550 c3 -5 8 -10 11 -10 2 0 4 5 4 10 0 6 -5 10 -11 10 -5 0
-7 -4 -4 -10z"/>
<path d="M330 1546 c0 -2 7 -6 15 -10 8 -3 15 -1 15 4 0 6 -7 10 -15 10 -8 0
-15 -2 -15 -4z"/>
<path d="M2226 1539 c3 -5 9 -7 14 -4 5 3 14 -4 20 -16 8 -15 9 -19 1 -15 -6
4 -11 1 -11 -8 0 -27 19 -27 26 0 5 20 2 29 -12 37 -25 15 -46 18 -38 6z"/>
<path d="M1788 1515 c-4 -20 -3 -23 8 -14 8 6 11 16 7 22 -3 5 -1 7 5 3 6 -3
13 -2 17 4 3 5 -3 10 -13 10 -13 0 -21 -9 -24 -25z"/>
<path d="M1600 1519 c0 -5 5 -7 10 -4 6 3 10 8 10 11 0 2 -4 4 -10 4 -5 0 -10
-5 -10 -11z"/>
<path d="M2114 1518 c-4 -7 -3 -8 4 -4 7 4 12 2 12 -3 0 -6 4 -11 10 -11 5 0
7 7 4 15 -7 18 -20 19 -30 3z"/>
<path d="M219 1511 c7 -5 10 -14 7 -20 -4 -6 0 -11 8 -11 21 0 21 26 0 34 -23
9 -31 7 -15 -3z"/>
<path d="M1690 1494 c-13 -33 -13 -44 1 -44 6 0 9 6 6 14 -3 8 1 20 9 26 16
14 19 30 4 30 -6 0 -15 -12 -20 -26z"/>
<path d="M1815 1500 c-3 -11 -11 -20 -16 -20 -6 0 -4 -7 5 -15 21 -22 27 -19
20 10 -4 15 -2 25 5 25 6 0 11 5 11 10 0 18 -18 11 -25 -10z"/>
<path d="M1888 1504 c-3 -11 1 -29 8 -39 14 -18 14 -18 13 1 0 10 -4 28 -8 38
-7 20 -8 19 -13 0z"/>
<path d="M1952 1495 c-6 -14 -8 -25 -4 -25 4 0 12 11 19 25 6 14 8 25 4 25 -4
0 -13 -11 -19 -25z"/>
<path d="M764 1501 c6 -10 97 -41 118 -41 13 0 -101 50 -115 50 -5 0 -6 -4 -3
-9z"/>
<path d="M880 1496 c0 -8 6 -16 14 -19 10 -4 12 0 9 14 -6 22 -23 26 -23 5z"/>
<path d="M2540 1495 c-7 -8 -9 -15 -6 -15 4 0 14 7 22 15 9 8 11 15 6 15 -5 0
-15 -7 -22 -15z"/>
<path d="M2790 1500 c0 -7 7 -10 15 -6 10 4 19 -2 25 -17 9 -22 9 -22 10 3 1
23 2 23 10 5 5 -11 9 -14 9 -7 1 18 21 15 21 -3 0 -13 2 -14 14 -3 20 18 9 26
-51 34 -39 5 -53 3 -53 -6z"/>
<path d="M1458 1487 c-7 -7 -22 -19 -33 -26 -16 -10 -17 -11 -2 -7 10 3 15 2
12 -4 -9 -14 20 -72 54 -107 17 -18 31 -37 31 -42 0 -6 5 -11 10 -11 15 0 13
9 -11 46 -11 19 -26 34 -34 34 -19 0 -25 36 -8 59 17 25 6 28 -13 4 -12 -17
-12 -17 -9 2 2 11 4 27 4 35 1 13 2 13 11 0 5 -8 10 -13 11 -10 0 3 2 13 4 23
4 20 -8 22 -27 4z"/>
<path d="M2303 1483 c0 -8 9 -11 23 -9 17 3 21 1 17 -10 -3 -8 -9 -12 -13 -9
-4 3 -11 -2 -14 -11 -11 -29 1 -26 28 7 15 17 25 34 22 36 -11 12 -63 8 -63
-4z"/>
<path d="M2505 1490 c-3 -5 -1 -10 4 -10 6 0 11 5 11 10 0 6 -2 10 -4 10 -3 0
-8 -4 -11 -10z"/>
<path d="M140 1464 c-18 -18 -21 -24 -9 -24 20 0 61 35 52 44 -10 9 -16 7 -43
-20z"/>
<path d="M672 1465 c-26 -30 -28 -39 -6 -31 8 3 24 1 35 -4 11 -6 19 -7 19 -1
0 5 -7 12 -16 15 -12 5 -13 8 -2 20 11 12 14 12 21 0 4 -8 17 -19 29 -25 16
-9 19 -8 13 2 -6 9 -3 10 11 5 10 -4 25 -9 32 -10 15 -3 40 -26 27 -26 -5 0 0
-6 10 -14 11 -8 23 -12 27 -10 12 8 9 34 -4 34 -6 0 -19 6 -27 13 -9 8 -35 19
-58 26 -24 6 -43 16 -43 21 0 20 -47 9 -68 -15z"/>
<path d="M1083 1484 c5 -5 12 -9 15 -10 4 0 20 -4 35 -9 18 -5 33 -3 40 4 8 8
3 11 -18 11 -17 0 -41 3 -55 7 -15 3 -22 2 -17 -3z"/>
<path d="M2115 1470 c15 -18 16 -22 4 -18 -9 4 -16 1 -16 -7 0 -16 18 -15 29
0 12 16 9 24 -14 36 l-23 12 20 -23z"/>
<path d="M2184 1475 c-4 -8 -11 -12 -18 -8 -6 4 -5 -1 3 -10 15 -18 36 -24 26
-7 -4 6 -1 17 5 25 9 11 9 15 1 15 -6 0 -14 -7 -17 -15z"/>
<path d="M2380 1479 c0 -5 5 -7 10 -4 6 3 10 8 10 11 0 2 -4 4 -10 4 -5 0 -10
-5 -10 -11z"/>
<path d="M2429 1488 c-6 -22 -4 -35 6 -35 7 0 10 8 7 19 -4 16 -10 23 -13 16z"/>
<path d="M2458 1460 c2 -16 6 -30 8 -30 2 0 4 14 4 30 0 17 -4 30 -8 30 -5 0
-7 -13 -4 -30z"/>
<path d="M90 1470 c-8 -5 -12 -11 -9 -14 3 -3 14 1 25 9 21 16 8 20 -16 5z"/>
<path d="M612 1460 c0 -14 2 -19 5 -12 2 6 2 18 0 25 -3 6 -5 1 -5 -13z"/>
<path d="M926 1471 c15 -16 69 -30 84 -21 7 5 -2 10 -25 14 -20 4 -44 10 -53
13 -13 4 -14 3 -6 -6z"/>
<path d="M1540 1466 c0 -8 -6 -17 -12 -19 -8 -3 -6 -6 5 -6 11 -1 17 6 17 19
0 11 -2 20 -5 20 -3 0 -5 -6 -5 -14z"/>
<path d="M1767 1473 c-10 -10 -8 -33 2 -33 6 0 9 9 8 20 -1 23 -1 22 -10 13z"/>
<path d="M1850 1470 c-9 -6 -10 -10 -3 -10 6 0 15 5 18 10 8 12 4 12 -15 0z"/>
<path d="M2215 1470 c-3 -6 1 -7 9 -4 9 3 16 1 16 -5 0 -6 -6 -11 -14 -11 -8
0 -16 -6 -19 -13 -3 -8 1 -14 9 -14 7 0 11 4 8 9 -3 4 4 8 15 8 24 0 27 10 9
28 -15 15 -25 15 -33 2z"/>
<path d="M1917 1456 c-4 -9 -15 -12 -32 -8 l-27 5 23 -25 c13 -13 28 -22 32
-20 5 2 6 6 3 9 -3 3 4 13 16 23 18 14 19 18 5 23 -8 3 -18 0 -20 -7z"/>
<path d="M2077 1455 c-4 -8 -2 -17 3 -20 6 -4 10 3 10 14 0 25 -6 27 -13 6z"/>
<path d="M2910 1448 c0 -19 2 -20 10 -8 13 19 13 30 0 30 -5 0 -10 -10 -10
-22z"/>
<path d="M354 1444 c3 -7 -3 -10 -13 -7 -24 6 -234 -33 -263 -49 -13 -7 -27
-19 -31 -26 -5 -7 -12 -10 -18 -7 -14 9 -11 -4 4 -20 16 -15 32 -7 32 15 0 8
9 15 20 15 11 0 27 6 35 14 10 9 15 10 18 2 5 -14 32 -15 32 -1 0 6 7 10 17
10 9 0 14 -3 11 -6 -10 -9 40 -56 54 -51 10 4 10 6 1 6 -7 1 -13 6 -13 12 0 7
-8 18 -17 25 -36 26 21 45 140 46 24 0 41 6 44 15 5 12 8 12 22 0 19 -17 71
-31 71 -19 0 4 -13 16 -30 25 -33 20 -123 20 -116 1z"/>
<path d="M1575 1450 c-3 -5 -1 -10 4 -10 6 0 11 5 11 10 0 6 -2 10 -4 10 -3 0
-8 -4 -11 -10z"/>
<path d="M1976 1429 c-8 -41 0 -49 15 -15 9 18 9 30 2 37 -7 7 -12 0 -17 -22z"/>
<path d="M2286 1444 c-9 -8 -13 -21 -9 -27 4 -7 0 -8 -13 -4 -18 7 -18 6 -2
-6 10 -8 17 -16 15 -18 -1 -2 3 2 10 10 7 8 10 18 7 23 -3 5 0 15 6 23 17 20
5 19 -14 -1z"/>
<path d="M1310 1439 c0 -5 5 -7 10 -4 6 3 10 8 10 11 0 2 -4 4 -10 4 -5 0 -10
-5 -10 -11z"/>
<path d="M1653 1436 c15 -11 15 -15 3 -25 -8 -6 -19 -10 -26 -9 -7 2 -15 -4
-17 -12 -4 -13 -3 -13 6 0 9 12 11 13 11 1 0 -8 -8 -23 -17 -34 -18 -19 -17
-19 5 -6 12 8 22 19 22 24 0 23 22 34 46 23 13 -6 21 -14 19 -18 -3 -5 2 -10
10 -14 18 -7 20 5 3 22 -9 9 -9 12 0 12 7 0 12 7 12 15 0 9 -6 12 -15 9 -8 -4
-12 -10 -9 -15 3 -5 1 -9 -4 -9 -5 0 -15 11 -22 25 -7 14 -20 25 -29 25 -14
-1 -13 -3 2 -14z"/>
<path d="M1840 1443 c0 -5 10 -18 23 -29 l22 -19 -20 25 c-11 14 -21 27 -22
29 -2 2 -3 0 -3 -6z"/>
<path d="M2828 1419 c-3 -19 -8 -42 -13 -51 -5 -14 -2 -18 14 -18 23 0 28 -19
9 -39 -11 -11 -10 -13 2 -9 12 4 14 18 12 64 -4 72 -17 102 -24 53z"/>
<path d="M1353 1430 c-13 -5 -23 -14 -23 -20 0 -17 26 -11 45 10 19 21 13 24
-22 10z"/>
<path d="M1810 1421 c0 -11 -9 -23 -20 -26 -11 -3 -20 -11 -20 -16 0 -6 10 -3
22 5 25 18 42 21 34 7 -3 -5 1 -14 10 -21 11 -10 18 -10 26 -2 9 9 8 12 -5 12
-11 0 -20 11 -23 30 -7 33 -24 41 -24 11z"/>
<path d="M2391 1408 c-17 -29 -37 -39 -27 -13 8 22 -7 18 -21 -5 -14 -21 -73
-56 -73 -43 0 5 -5 1 -10 -7 -7 -11 -10 -12 -10 -2 0 10 -4 10 -16 -2 -8 -9
-23 -16 -32 -16 -13 0 -14 -2 -3 -12 10 -10 15 -10 18 -1 2 7 10 10 18 7 7 -3
26 2 42 11 19 12 22 12 10 2 -12 -10 -14 -17 -8 -22 6 -3 11 -1 11 4 0 6 7 11
16 11 11 0 14 5 10 16 -5 14 -4 15 9 4 13 -11 14 -10 9 4 -3 9 -1 16 4 16 6 0
12 -6 15 -12 2 -7 2 -3 0 9 -2 17 1 21 12 17 8 -4 22 -1 30 6 12 10 15 10 15
0 0 -10 3 -10 15 0 8 6 19 9 24 6 5 -4 13 -1 17 6 4 7 4 10 -1 6 -4 -4 -14 -3
-22 3 -10 9 -13 8 -13 0 0 -7 -4 -9 -10 -6 -15 9 -12 25 5 25 8 0 15 4 15 8 0
20 -34 6 -49 -20z"/>
<path d="M536 1415 c-3 -9 0 -15 9 -15 9 0 12 6 9 15 -4 8 -7 15 -9 15 -2 0
-5 -7 -9 -15z"/>
<path d="M1395 1420 c-3 -5 -1 -10 4 -10 6 0 11 5 11 10 0 6 -2 10 -4 10 -3 0
-8 -4 -11 -10z"/>
<path d="M2007 1424 c-4 -4 -7 -14 -7 -23 0 -11 3 -12 11 -4 6 6 10 16 7 23
-2 6 -7 8 -11 4z"/>
<path d="M2058 1423 c15 -6 16 -33 1 -33 -5 0 -7 5 -3 12 4 7 3 8 -5 4 -6 -4
-9 -11 -6 -16 3 -5 1 -11 -5 -15 -5 -3 -10 -11 -10 -18 0 -6 6 -3 13 7 9 13
27 18 60 19 25 0 44 4 42 8 -3 4 6 10 20 13 34 9 32 25 -2 21 -16 -1 -27 -8
-25 -14 4 -21 -49 -16 -61 5 -4 8 -13 14 -20 13 -9 0 -9 -2 1 -6z"/>
<path d="M931 1399 c-5 -13 -8 -25 -7 -26 1 -2 43 -4 93 -6 57 -2 97 -8 107
-16 14 -12 19 -11 34 1 9 8 32 20 49 28 18 7 30 16 27 21 -6 10 -46 2 -81 -16
-25 -13 -59 -10 -69 6 -8 14 -104 11 -104 -3 0 -6 -9 -1 -20 12 l-20 23 -9
-24z"/>
<path d="M1575 1410 c-3 -5 -1 -10 4 -10 6 0 11 5 11 10 0 6 -2 10 -4 10 -3 0
-8 -4 -11 -10z"/>
<path d="M2098 1413 c7 -3 16 -2 19 1 4 3 -2 6 -13 5 -11 0 -14 -3 -6 -6z"/>
<path d="M900 1400 c-9 -6 -10 -10 -3 -10 6 0 15 5 18 10 8 12 4 12 -15 0z"/>
<path d="M1279 1405 c-1 -3 -2 -9 -3 -15 0 -5 -10 -16 -21 -24 -17 -13 -17
-15 -3 -16 31 0 48 12 48 36 0 20 -17 35 -21 19z"/>
<path d="M1924 1399 c-4 -8 -3 -9 4 -5 7 4 12 2 12 -3 0 -6 5 -11 11 -11 13 0
7 22 -8 27 -6 2 -15 -1 -19 -8z"/>
<path d="M2202 1390 c-21 -13 -30 -25 -25 -33 5 -9 8 -8 11 5 2 9 14 19 28 22
13 4 24 11 24 16 0 13 0 13 -38 -10z"/>
<path d="M330 1389 c0 -5 5 -7 10 -4 6 3 10 8 10 11 0 2 -4 4 -10 4 -5 0 -10
-5 -10 -11z"/>
<path d="M662 1388 c3 -7 13 -15 23 -17 17 -3 17 -2 3 13 -20 19 -31 21 -26 4z"/>
<path d="M1360 1390 c0 -5 5 -10 10 -10 6 0 10 5 10 10 0 6 -4 10 -10 10 -5 0
-10 -4 -10 -10z"/>
<path d="M475 1380 c-3 -5 -3 -15 1 -21 3 -6 -18 -46 -47 -89 -41 -61 -56 -77
-66 -68 -7 5 -10 14 -7 19 3 5 -1 6 -9 3 -8 -3 -18 -1 -22 5 -3 6 -21 11 -40
11 -19 0 -49 9 -67 20 -23 13 -38 16 -48 10 -24 -15 -32 -12 -24 12 6 21 6 21
-10 5 -10 -9 -25 -17 -34 -17 -15 -1 -14 -3 3 -16 14 -10 32 -14 57 -10 25 4
41 1 51 -9 8 -8 35 -17 59 -21 58 -9 75 -19 82 -49 8 -32 19 -32 34 3 6 15 26
45 44 68 54 66 73 94 72 104 -1 6 -2 19 -2 30 -2 21 -17 27 -27 10z"/>
<path d="M1558 1365 c-6 -29 2 -38 22 -24 13 8 13 10 1 18 -7 5 -10 14 -7 20
4 6 3 11 -2 11 -5 0 -12 -11 -14 -25z"/>
<path d="M1863 1363 c-27 -28 -23 -29 22 -4 27 14 31 20 18 23 -10 2 -28 -7
-40 -19z"/>
<path d="M2871 1383 c0 -5 4 -17 8 -27 7 -18 8 -18 14 -3 4 10 1 17 -6 17 -8
0 -6 4 3 10 13 8 12 10 -2 10 -10 0 -18 -3 -17 -7z"/>
<path d="M763 1367 c-29 -13 -38 -36 -13 -34 11 1 17 3 15 6 -3 2 3 10 13 17
22 16 13 24 -15 11z"/>
<path d="M1765 1359 c-16 -11 -28 -19 -25 -20 3 -1 23 -2 46 -3 28 -2 41 2 41
11 0 9 -4 10 -14 1 -7 -6 -17 -8 -20 -4 -4 4 -1 11 6 15 7 5 9 11 5 13 -5 3
-22 -3 -39 -13z"/>
<path d="M1360 1364 c0 -15 22 -44 34 -44 7 0 42 -26 77 -58 92 -83 116 -97
146 -83 20 9 22 14 13 30 -7 14 -6 21 3 24 6 3 8 6 2 6 -5 0 -17 -4 -25 -10
-11 -8 -12 -12 -2 -16 23 -9 12 -23 -15 -19 -29 6 -91 60 -103 92 -5 12 -25
26 -50 34 -23 7 -46 22 -51 32 -9 17 -29 25 -29 12z"/>
<path d="M290 1351 c0 -10 20 -18 59 -26 29 -5 26 9 -4 23 -31 14 -55 15 -55
3z"/>
<path d="M550 1351 c0 -5 9 -7 20 -4 11 3 20 7 20 9 0 2 -9 4 -20 4 -11 0 -20
-4 -20 -9z"/>
<path d="M695 1350 c3 -5 8 -10 11 -10 2 0 4 5 4 10 0 6 -5 10 -11 10 -5 0 -7
-4 -4 -10z"/>
<path d="M1707 1349 c7 -7 15 -10 18 -7 3 3 -2 9 -12 12 -14 6 -15 5 -6 -5z"/>
<path d="M1895 1350 c-3 -5 -1 -10 4 -10 6 0 11 5 11 10 0 6 -2 10 -4 10 -3 0
-8 -4 -11 -10z"/>
<path d="M2076 1345 c-3 -9 0 -15 9 -15 16 0 20 16 6 24 -5 3 -11 -1 -15 -9z"/>
<path d="M2110 1349 c0 -5 5 -7 10 -4 6 3 10 8 10 11 0 2 -4 4 -10 4 -5 0 -10
-5 -10 -11z"/>
<path d="M2380 1349 c0 -5 5 -7 10 -4 6 3 10 8 10 11 0 2 -4 4 -10 4 -5 0 -10
-5 -10 -11z"/>
<path d="M445 1340 c3 -5 8 -10 11 -10 2 0 4 5 4 10 0 6 -5 10 -11 10 -5 0 -7
-4 -4 -10z"/>
<path d="M895 1340 c-3 -5 -1 -10 4 -10 6 0 11 5 11 10 0 6 -2 10 -4 10 -3 0
-8 -4 -11 -10z"/>
<path d="M1310 1342 c0 -5 7 -16 16 -23 14 -12 16 -11 13 5 -4 20 -29 35 -29
18z"/>
<path d="M390 1330 c0 -5 4 -10 9 -10 6 0 13 5 16 10 3 6 -1 10 -9 10 -9 0
-16 -4 -16 -10z"/>
<path d="M968 1323 c-2 -10 2 -28 9 -39 18 -28 22 -156 6 -161 -7 -2 -9 -11
-6 -19 3 -8 0 -14 -6 -14 -6 0 -11 -7 -11 -15 0 -14 -113 -131 -121 -125 -2 2
-14 -2 -26 -8 -14 -8 -24 -9 -28 -2 -4 6 -10 8 -15 5 -5 -3 -11 -1 -15 5 -3 6
4 10 17 10 31 0 50 14 43 31 -4 10 5 19 29 29 37 14 38 17 52 120 8 53 6 141
-2 149 -11 11 -18 -16 -20 -77 -5 -115 -9 -140 -29 -162 -15 -17 -26 -20 -54
-15 -29 5 -33 4 -27 -10 3 -9 6 -19 6 -21 0 -2 7 -4 15 -4 8 0 15 -5 15 -11 0
-8 -12 -10 -36 -6 -29 5 -37 3 -41 -11 -5 -19 -66 -42 -113 -42 -17 0 -43 8
-57 17 -26 17 -27 17 -20 0 4 -10 7 -20 7 -22 0 -7 66 -24 85 -21 11 1 33 8
48 16 25 12 37 12 89 -2 56 -14 62 -14 81 1 63 50 113 101 143 147 30 45 34
59 34 116 0 36 -3 68 -7 72 -4 3 -8 12 -9 19 -3 19 -23 67 -28 67 -3 0 -6 -8
-8 -17z"/>
<path d="M1255 1330 c-3 -5 1 -10 10 -10 9 0 13 5 10 10 -3 6 -8 10 -10 10 -2
0 -7 -4 -10 -10z"/>
<path d="M1645 1329 c-4 -5 -8 -25 -10 -42 -2 -18 -1 -24 1 -14 3 9 9 15 12
13 4 -2 7 9 7 25 1 32 -1 34 -10 18z"/>
<path d="M1933 1325 c0 -8 4 -15 9 -15 4 0 8 4 8 9 0 6 -4 12 -8 15 -5 3 -9
-1 -9 -9z"/>
<path d="M1966 1330 c5 -8 9 -18 10 -22 1 -5 2 -11 3 -14 0 -4 7 -2 14 4 6 6
17 10 22 11 6 0 11 8 12 18 2 15 1 15 -6 -2 -5 -11 -10 -14 -10 -6 -1 7 -7 11
-15 8 -7 -3 -19 0 -26 6 -10 9 -11 9 -4 -3z"/>
<path d="M2895 1331 c-3 -5 -1 -12 5 -16 5 -3 10 1 10 9 0 18 -6 21 -15 7z"/>
<path d="M1561 1321 c-7 -5 -11 -13 -7 -19 3 -6 2 -12 -4 -14 -5 -1 -7 -14 -3
-26 4 -18 8 -20 14 -10 5 7 9 23 9 35 0 12 8 27 18 32 13 8 14 10 2 11 -8 0
-21 -4 -29 -9z"/>
<path d="M1675 1320 c-3 -5 -3 -15 1 -21 6 -11 23 6 24 24 0 10 -18 9 -25 -3z"/>
<path d="M1881 1314 c0 -11 3 -14 6 -6 3 7 2 16 -1 19 -3 4 -6 -2 -5 -13z"/>
<path d="M1911 1314 c0 -11 3 -14 6 -6 3 7 2 16 -1 19 -3 4 -6 -2 -5 -13z"/>
<path d="M2133 1309 c-1 -12 1 -19 4 -15 3 3 13 0 21 -7 13 -9 14 -9 8 1 -4 6
-2 12 3 12 6 0 11 5 11 11 0 5 -4 8 -9 4 -5 -3 -12 -1 -16 5 -10 17 -21 11
-22 -11z"/>
<path d="M2680 1326 c0 -2 7 -7 16 -10 8 -3 12 -2 9 4 -6 10 -25 14 -25 6z"/>
<path d="M188 1313 c7 -3 16 -2 19 1 4 3 -2 6 -13 5 -11 0 -14 -3 -6 -6z"/>
<path d="M813 1287 c-30 -23 -44 -43 -52 -74 -17 -64 -45 -52 -57 25 -6 36 -4
42 11 42 9 0 15 5 13 12 -9 26 -24 16 -40 -29 -16 -45 -16 -47 5 -74 12 -15
28 -28 35 -28 6 -1 11 -4 11 -8 -3 -20 3 -22 26 -7 18 12 24 24 23 50 -1 37
18 65 64 92 16 9 28 20 28 24 0 16 -26 7 -67 -25z"/>
<path d="M1040 1316 c0 -2 7 -7 16 -10 8 -3 12 -2 9 4 -6 10 -25 14 -25 6z"/>
<path d="M1183 1296 c-21 -24 -19 -56 3 -56 8 0 14 5 14 11 0 8 13 9 40 5 32
-5 40 -3 40 9 0 15 -8 18 -45 16 -11 0 -14 2 -7 5 18 8 15 21 -7 27 -12 3 -26
-3 -38 -17z"/>
<path d="M1712 1308 c17 -44 17 -56 3 -68 -21 -18 -19 -40 5 -40 11 0 20 6 20
14 0 8 5 18 12 22 7 4 8 3 4 -4 -8 -13 3 -16 20 -4 19 13 23 40 7 46 -9 4 -18
4 -21 1 -3 -3 1 -5 8 -5 17 0 4 -13 -15 -16 -8 -1 -13 1 -10 6 3 5 -1 11 -7
13 -10 4 -10 7 -1 14 9 6 7 12 -9 22 -17 11 -20 11 -16 -1z"/>
<path d="M2057 1306 c-3 -8 1 -17 9 -20 9 -4 14 1 14 14 0 23 -15 27 -23 6z"/>
<path d="M527 1289 c-9 -32 -9 -39 2 -39 14 0 22 30 12 47 -6 12 -9 11 -14 -8z"/>
<path d="M590 1290 c-11 -7 -12 -12 -4 -20 8 -8 13 -6 17 9 3 12 4 21 4 21 -1
0 -9 -5 -17 -10z"/>
<path d="M647 1285 c3 -8 9 -12 14 -9 12 7 11 11 -5 17 -10 4 -13 1 -9 -8z"/>
<path d="M1580 1288 c0 -4 5 -8 11 -8 8 0 7 -6 -2 -17 -11 -15 -11 -16 1 -6
19 17 21 40 4 40 -8 0 -14 -4 -14 -9z"/>
<path d="M1822 1285 c-7 -8 -9 -15 -4 -15 5 0 15 7 22 15 16 19 -1 19 -18 0z"/>
<path d="M2615 1290 c4 -6 11 -8 16 -5 14 9 11 15 -7 15 -8 0 -12 -5 -9 -10z"/>
<path d="M1088 1283 c6 -2 18 -2 25 0 6 3 1 5 -13 5 -14 0 -19 -2 -12 -5z"/>
<path d="M2208 1283 c7 -3 16 -2 19 1 4 3 -2 6 -13 5 -11 0 -14 -3 -6 -6z"/>
<path d="M2580 1271 c-6 -12 -7 -21 -1 -21 10 0 24 30 17 37 -2 3 -9 -5 -16
-16z"/>
<path d="M1334 1264 c3 -9 6 -20 6 -25 0 -5 5 -9 11 -9 6 0 27 -14 47 -31 19
-17 37 -27 41 -22 3 5 14 12 24 16 25 9 12 27 -20 27 -14 0 -41 13 -60 30 -37
33 -59 39 -49 14z"/>
<path d="M1696 1265 c4 -8 8 -15 10 -15 2 0 4 7 4 15 0 8 -4 15 -10 15 -5 0
-7 -7 -4 -15z"/>
<path d="M1860 1253 c-14 -9 -37 -27 -52 -41 -20 -18 -44 -28 -85 -33 -32 -4
-71 -12 -87 -18 l-30 -12 45 -39 c50 -44 55 -46 63 -24 3 8 2 13 -3 10 -5 -3
-14 1 -21 9 -10 13 -7 16 19 21 17 4 34 11 38 17 4 6 0 8 -10 4 -8 -3 -33 -9
-54 -12 -36 -6 -37 -5 -18 10 14 11 37 15 80 13 52 -1 68 3 122 33 35 19 63
38 63 43 0 4 -11 1 -25 -8 -14 -9 -25 -12 -25 -7 0 24 43 32 133 26 51 -4 94
-11 97 -15 3 -5 12 -5 20 0 21 13 9 20 -56 30 -93 15 -186 13 -214 -7z"/>
<path d="M0 1252 c0 -5 16 -17 35 -28 19 -10 35 -21 35 -25 0 -9 77 -18 102
-11 21 5 21 6 2 13 -10 4 -33 8 -51 8 -30 1 -95 28 -101 44 -5 10 -22 9 -22
-1z"/>
<path d="M1667 1249 c7 -7 15 -10 18 -7 3 3 -2 9 -12 12 -14 6 -15 5 -6 -5z"/>
<path d="M570 1234 c0 -8 5 -12 10 -9 6 4 8 11 5 16 -9 14 -15 11 -15 -7z"/>
<path d="M1665 1220 c21 -24 26 -25 19 -6 -3 8 -13 17 -22 21 -13 5 -13 2 3
-15z"/>
<path d="M2585 1213 c3 -8 5 -17 5 -19 0 -2 5 -4 10 -4 6 0 10 8 10 18 0 10
-7 19 -15 19 -10 0 -14 -6 -10 -14z"/>
<path d="M0 1193 c0 -21 3 -24 9 -14 5 8 7 20 4 28 -8 21 -13 15 -13 -14z"/>
<path d="M600 1200 c0 -11 4 -20 8 -20 4 0 8 9 9 20 1 11 -2 20 -8 20 -5 0 -9
-9 -9 -20z"/>
<path d="M471 1194 c0 -11 3 -14 6 -6 3 7 2 16 -1 19 -3 4 -6 -2 -5 -13z"/>
<path d="M1285 1200 c-3 -5 -28 -10 -55 -10 -44 0 -51 -4 -79 -37 -17 -21 -38
-52 -47 -71 -8 -18 -28 -47 -44 -65 -20 -24 -26 -37 -19 -48 5 -7 9 -24 9 -35
0 -29 22 -36 50 -17 21 15 22 15 16 -8 -7 -23 -6 -23 8 -5 20 25 10 39 -20 32
-32 -8 -41 14 -21 51 8 15 28 54 44 87 36 76 104 121 119 81 4 -8 3 -35 0 -59
-5 -34 -18 -56 -56 -98 -52 -55 -56 -63 -41 -73 8 -4 8 -107 1 -125 -1 -3 -1
-14 0 -24 1 -13 -3 -17 -14 -13 -9 4 -16 2 -16 -3 0 -23 32 -8 41 19 7 18 16
28 24 25 21 -8 26 11 8 35 -24 35 -24 102 0 129 23 25 52 30 43 7 -3 -8 -1
-15 4 -15 14 0 13 27 -1 36 -6 3 -7 9 -3 13 13 9 37 79 44 126 4 31 9 39 23
37 11 -2 17 4 17 18 0 21 -24 28 -35 10z"/>
<path d="M2715 1200 c-3 -5 -1 -10 4 -10 6 0 11 5 11 10 0 6 -2 10 -4 10 -3 0
-8 -4 -11 -10z"/>
<path d="M2747 1181 c-4 -19 -5 -36 -2 -39 10 -11 16 7 13 40 l-3 33 -8 -34z"/>
<path d="M517 1180 c3 -11 7 -20 9 -20 2 0 4 9 4 20 0 11 -4 20 -9 20 -5 0 -7
-9 -4 -20z"/>
<path d="M223 1150 c-2 -22 2 -40 7 -40 6 0 10 18 10 40 0 52 -14 52 -17 0z"/>
<path d="M50 1160 c0 -5 5 -10 11 -10 5 0 7 5 4 10 -3 6 -8 10 -11 10 -2 0 -4
-4 -4 -10z"/>
<path d="M1342 1145 c-13 -13 -25 -41 -28 -62 -7 -47 -24 -84 -36 -77 -5 3 -7
-5 -4 -18 16 -79 17 -98 1 -104 -8 -3 -15 -14 -15 -23 0 -14 2 -14 10 -1 8 12
10 11 10 -6 0 -11 -3 -24 -7 -27 -8 -9 -43 22 -43 38 0 7 -7 15 -15 19 -20 7
-19 2 7 -44 20 -34 59 -57 78 -45 3 2 3 43 -1 92 -3 48 -2 97 2 108 7 17 8 17
8 3 1 -10 6 -18 12 -18 5 0 8 4 5 9 -7 11 13 123 24 134 4 5 16 -3 27 -16 14
-19 23 -23 35 -16 11 6 19 5 23 -1 3 -5 1 -10 -4 -10 -6 0 -11 -4 -11 -10 0
-5 7 -10 15 -10 8 0 15 5 15 10 0 6 8 5 20 -2 11 -7 20 -18 20 -25 0 -16 -12
-17 -26 -3 -7 7 -15 -3 -24 -32 -7 -24 -16 -47 -19 -53 -3 -5 -7 -19 -8 -30
-3 -20 -3 -20 12 -1 8 11 15 28 15 38 0 10 6 18 14 18 9 0 12 9 8 28 -4 27 -4
27 15 7 10 -11 38 -46 62 -77 45 -60 58 -67 80 -45 10 10 11 9 6 -5 -4 -10 -3
-18 1 -18 21 0 134 -123 159 -174 6 -11 19 -23 30 -25 17 -3 17 -1 6 12 -7 9
-10 21 -6 27 12 19 40 9 65 -24 36 -47 144 -138 149 -125 2 6 -2 15 -8 18 -6
4 -9 15 -5 24 5 13 2 16 -11 11 -23 -9 -68 45 -53 64 8 9 5 18 -12 34 -15 14
-19 23 -11 26 7 2 20 -3 30 -12 19 -18 41 -21 41 -7 0 6 -4 13 -10 16 -17 11
-11 24 18 39 l27 15 -26 1 c-15 0 -29 -6 -32 -14 -3 -7 -20 -16 -37 -20 -52
-10 -174 73 -155 104 8 13 42 13 50 0 3 -5 13 -10 21 -10 8 0 14 5 14 10 0 6
-7 10 -16 10 -14 0 -14 3 -4 15 21 25 2 31 -36 10 -34 -18 -34 -18 -55 4 -12
12 -18 25 -14 29 3 4 -9 12 -27 18 -27 10 -29 13 -10 13 12 1 22 7 22 15 0 9
-8 12 -24 9 -17 -4 -27 1 -35 16 -7 12 -16 21 -21 21 -18 0 59 -148 83 -158 4
-2 7 -9 7 -16 0 -18 65 -80 89 -86 19 -5 18 -6 -8 -21 -28 -16 -29 -16 -42 10
-8 14 -23 35 -34 46 -11 12 -37 41 -59 67 -31 37 -43 45 -65 42 -22 -3 -34 6
-71 53 -25 32 -47 61 -49 67 -3 8 56 -29 69 -44 13 -14 27 -8 23 10 -6 23 6
26 27 8 8 -7 7 -4 -2 6 -14 16 -20 17 -32 6 -11 -8 -16 -9 -16 -1 0 6 -11 11
-24 11 -16 0 -31 12 -50 41 -26 38 -29 66 -5 42 8 -8 20 -6 41 6 26 13 31 14
36 2 8 -23 71 -87 72 -73 0 7 -21 39 -47 72 -46 57 -68 74 -57 47 8 -21 -17
-36 -61 -38 -22 -1 -46 -7 -53 -13 -14 -10 -32 7 -32 30 0 28 -25 32 -48 9z
m571 -436 c3 -10 2 -19 -2 -19 -11 0 -31 23 -31 37 0 19 27 4 33 -18z"/>
<path d="M1859 1153 c-13 -15 -12 -16 6 -8 11 4 30 9 43 9 33 1 27 16 -7 16
-16 0 -35 -8 -42 -17z"/>
<path d="M286 1135 c-4 -14 -2 -33 3 -43 8 -13 10 -8 11 26 0 48 -5 54 -14 17z"/>
<path d="M90 1141 c0 -5 7 -11 15 -15 8 -3 15 -1 15 3 0 5 -7 11 -15 15 -8 3
-15 1 -15 -3z"/>
<path d="M810 1140 c0 -5 7 -7 15 -4 8 4 15 8 15 10 0 2 -7 4 -15 4 -8 0 -15
-4 -15 -10z"/>
<path d="M1090 1140 c0 -5 5 -10 11 -10 5 0 7 5 4 10 -3 6 -8 10 -11 10 -2 0
-4 -4 -4 -10z"/>
<path d="M10 1129 c0 -5 5 -7 10 -4 6 3 10 8 10 11 0 2 -4 4 -10 4 -5 0 -10
-5 -10 -11z"/>
<path d="M400 1130 c0 -5 4 -10 9 -10 6 0 13 5 16 10 3 6 -1 10 -9 10 -9 0
-16 -4 -16 -10z"/>
<path d="M367 1111 c-24 -25 -40 -81 -23 -81 14 0 31 31 40 73 7 31 7 32 -17
8z"/>
<path d="M499 1123 c-8 -52 -7 -62 4 -52 13 13 17 59 5 59 -5 0 -9 -3 -9 -7z"/>
<path d="M1744 1116 c-10 -8 -16 -17 -13 -20 3 -3 14 3 24 14 21 23 17 26 -11
6z"/>
<path d="M1853 1112 c-5 -11 -7 -11 -14 0 -7 10 -9 10 -9 -3 0 -27 13 -31 28
-7 13 22 13 22 7 -7 -5 -27 -4 -28 8 -13 8 10 17 15 20 12 3 -3 3 3 1 13 -6
23 -33 26 -41 5z"/>
<path d="M710 1103 c14 -9 27 -18 29 -19 1 -1 -1 -9 -5 -16 -5 -7 -9 -20 -11
-28 -1 -8 -9 -20 -17 -26 -20 -14 -20 -23 -1 -20 21 3 30 15 45 64 15 48 13
53 -32 58 l-33 4 25 -17z"/>
<path d="M1961 1099 c5 -11 12 -19 15 -19 3 0 3 4 -1 9 -3 5 3 11 12 13 13 3
10 6 -9 10 -24 4 -26 3 -17 -13z"/>
<path d="M2055 1103 c18 -17 80 -60 105 -73 35 -18 24 -8 -35 32 -58 40 -85
55 -70 41z"/>
<path d="M26 1081 c-3 -5 1 -11 9 -15 9 -3 15 0 15 9 0 16 -16 20 -24 6z"/>
<path d="M210 1075 c-7 -8 -18 -15 -26 -15 -7 0 -16 -10 -20 -22 -4 -13 -31
-50 -60 -82 -30 -33 -54 -62 -54 -66 0 -10 40 -50 50 -50 6 0 10 5 10 10 0 6
16 10 35 10 56 0 100 23 115 61 11 25 11 34 2 37 -7 2 -10 7 -8 10 2 4 -3 14
-12 22 -14 13 -15 12 -9 -4 19 -48 19 -66 2 -66 -9 0 -14 -4 -11 -9 8 -12 -20
-23 -81 -31 -35 -4 -53 -2 -52 4 0 17 112 159 128 164 10 3 12 0 8 -11 -3 -9
-2 -19 3 -22 6 -4 10 1 10 9 0 23 31 19 37 -4 6 -23 16 -25 32 -7 12 15 -3 37
-24 37 -7 0 -20 9 -30 20 -22 24 -29 25 -45 5z"/>
<path d="M1760 1082 c0 -7 -9 -12 -19 -12 -28 0 -37 -20 -12 -27 11 -3 23 -13
26 -23 3 -10 17 -21 31 -24 14 -4 45 -27 69 -51 24 -25 48 -45 54 -45 5 0 21
-5 35 -11 23 -11 23 -14 11 -33 -10 -15 -11 -25 -4 -36 9 -13 10 -12 5 3 -4
12 0 17 12 17 13 0 14 2 4 9 -11 6 -7 14 15 31 24 19 25 21 6 16 -24 -8 -77
20 -68 34 3 5 -2 13 -11 18 -11 6 -13 11 -5 16 6 4 11 4 11 -1 0 -4 4 -2 9 6
6 10 13 10 28 3 15 -9 19 -7 20 8 1 10 -5 21 -13 24 -9 3 -12 1 -9 -4 3 -6 -3
-10 -13 -10 -11 0 -25 -7 -32 -15 -7 -8 -22 -13 -34 -11 -11 3 -23 5 -26 5 -3
1 1 5 9 10 9 6 10 11 2 15 -6 4 -11 2 -11 -4 0 -6 -5 -8 -10 -5 -6 4 -8 11 -5
16 4 5 -1 9 -9 9 -9 0 -16 5 -16 10 0 6 -8 10 -17 8 -13 -2 -18 4 -18 24 -1
26 -15 54 -15 30z m154 -154 c-3 -5 -12 -4 -20 3 -19 16 -18 18 6 12 11 -3 17
-9 14 -15z"/>
<path d="M1798 1084 c-3 -5 3 -17 14 -26 10 -10 18 -13 18 -7 0 5 5 7 12 3 7
-5 8 -3 4 5 -5 7 -10 10 -14 7 -3 -3 -10 2 -17 11 -7 9 -14 12 -17 7z"/>
<path d="M1917 1074 c3 -7 9 -14 14 -14 14 0 10 17 -5 23 -10 4 -13 1 -9 -9z"/>
<path d="M92 1071 c4 -13 18 -16 19 -4 0 4 -5 9 -11 12 -7 2 -11 -2 -8 -8z"/>
<path d="M1540 1076 c0 -2 8 -10 18 -17 15 -13 16 -12 3 4 -13 16 -21 21 -21
13z"/>
<path d="M1990 1069 c0 -5 5 -7 10 -4 6 3 10 8 10 11 0 2 -4 4 -10 4 -5 0 -10
-5 -10 -11z"/>
<path d="M2635 1070 c-11 -4 -23 -6 -27 -4 -3 2 -9 -9 -13 -26 -4 -18 -13 -30
-22 -30 -11 0 -13 -3 -5 -12 6 -7 11 -17 12 -23 5 -25 20 -55 27 -55 5 0 7 30
5 67 -2 63 -1 67 13 48 9 -11 21 -39 27 -62 7 -29 16 -43 27 -43 11 0 12 3 4
8 -7 4 -13 33 -14 64 -2 67 -8 78 -34 68z"/>
<path d="M2854 1065 c-4 -8 -10 -13 -14 -10 -5 3 -6 -4 -3 -15 7 -25 23 -26
23 -2 0 10 5 23 12 30 9 9 9 12 0 12 -7 0 -15 -7 -18 -15z"/>
<path d="M2890 1030 c0 -36 -4 -52 -15 -56 -17 -7 -20 -24 -4 -24 25 0 51 111
29 125 -6 4 -10 -13 -10 -45z"/>
<path d="M1380 1060 c0 -5 5 -10 11 -10 5 0 7 5 4 10 -3 6 -8 10 -11 10 -2 0
-4 -4 -4 -10z"/>
<path d="M1355 1050 c3 -5 8 -10 11 -10 2 0 4 5 4 10 0 6 -5 10 -11 10 -5 0
-7 -4 -4 -10z"/>
<path d="M2808 1054 c-2 -5 -2 -35 0 -66 3 -44 7 -55 18 -51 8 3 14 15 14 27
0 28 -26 101 -32 90z"/>
<path d="M490 1033 c0 -23 16 -48 23 -37 5 10 -9 54 -18 54 -3 0 -5 -8 -5 -17z"/>
<path d="M1853 1043 c-20 -8 -15 -19 10 -20 12 0 16 1 9 4 -6 3 -10 9 -6 14 6
10 5 10 -13 2z"/>
<path d="M2056 1033 c-4 -10 -2 -19 3 -21 6 -2 9 -8 5 -13 -3 -5 0 -9 6 -9 6
0 8 10 4 28 -9 35 -10 36 -18 15z"/>
<path d="M1991 1026 c-7 -8 -8 -17 -3 -20 6 -3 13 1 16 10 9 23 2 28 -13 10z"/>
<path d="M2371 1031 c-10 -6 -10 -10 -1 -13 6 -2 13 -23 14 -46 5 -64 16 -63
16 1 0 58 -7 71 -29 58z"/>
<path d="M1383 1024 c3 -3 -3 -14 -14 -25 -21 -21 -25 -39 -9 -39 6 0 10 9 10
21 0 11 4 18 8 15 4 -2 14 -1 21 4 15 8 7 30 -11 30 -6 0 -9 -3 -5 -6z"/>
<path d="M2115 1021 c-3 -5 -2 -12 3 -15 5 -3 9 1 9 9 0 17 -3 19 -12 6z"/>
<path d="M1897 1009 c7 -7 15 -10 18 -7 3 3 -2 9 -12 12 -14 6 -15 5 -6 -5z"/>
<path d="M2202 1004 c10 -10 20 -16 22 -13 3 3 -5 11 -17 18 -21 13 -21 12 -5
-5z"/>
<path d="M2005 996 c-15 -18 -17 -39 -4 -30 9 5 10 2 6 -10 -4 -11 -3 -15 4
-11 6 4 8 13 5 21 -3 8 -1 14 4 14 6 0 10 -5 10 -12 0 -6 3 -9 6 -5 3 3 0 14
-8 25 -10 14 -16 16 -23 8z"/>
<path d="M2092 980 c0 -14 2 -19 5 -12 2 6 2 18 0 25 -3 6 -5 1 -5 -13z"/>
<path d="M2136 973 c-4 -10 -2 -19 3 -21 6 -2 11 -10 11 -18 0 -9 -4 -12 -10
-9 -6 3 -7 -1 -4 -9 9 -22 34 -20 34 3 0 10 -6 31 -14 45 -12 23 -14 25 -20 9z"/>
<path d="M1395 970 c3 -5 11 -10 16 -10 6 0 7 5 4 10 -3 6 -11 10 -16 10 -6 0
-7 -4 -4 -10z"/>
<path d="M986 955 c-10 -7 -16 -18 -13 -22 7 -11 -3 -25 -27 -38 -23 -13 -39
-52 -26 -60 6 -4 10 0 10 7 0 8 16 20 36 27 32 12 35 16 31 41 -5 22 -2 29 14
33 12 3 18 10 14 16 -8 14 -16 13 -39 -4z"/>
<path d="M1466 956 c3 -9 10 -14 14 -11 4 3 11 -2 14 -11 3 -8 2 -12 -4 -9
-17 11 -11 -32 7 -46 15 -12 16 -12 10 5 -6 16 -5 17 8 6 22 -18 18 2 -7 40
-25 36 -52 53 -42 26z"/>
<path d="M1610 961 c0 -5 7 -11 15 -15 9 -3 15 0 15 9 0 8 -7 15 -15 15 -8 0
-15 -4 -15 -9z"/>
<path d="M1376 944 c-3 -9 -3 -21 1 -27 4 -7 0 -7 -9 1 -14 11 -16 10 -13 -5
2 -10 4 -26 4 -35 1 -10 6 -18 12 -18 6 0 9 9 6 20 -3 11 -1 18 4 15 4 -3 8
10 7 30 -1 39 -3 42 -12 19z"/>
<path d="M2053 951 l-22 -6 23 -11 c21 -10 23 -9 18 5 -5 13 -3 14 9 4 10 -8
19 -9 29 -1 13 8 12 9 -1 5 -9 -3 -20 -2 -25 2 -5 5 -19 5 -31 2z"/>
<path d="M2208 943 c7 -3 16 -2 19 1 4 3 -2 6 -13 5 -11 0 -14 -3 -6 -6z"/>
<path d="M2271 941 c-11 -7 -11 -9 0 -13 9 -3 7 -10 -9 -26 -12 -12 -22 -27
-22 -33 0 -5 -4 -7 -10 -4 -5 3 -17 2 -25 -3 -13 -7 -12 -10 10 -20 15 -7 24
-8 20 -3 -10 18 16 23 34 7 20 -18 41 -21 41 -6 0 5 -6 7 -13 4 -7 -2 -21 4
-31 15 -17 18 -17 19 2 25 17 6 82 -19 82 -30 0 -3 -4 -3 -9 1 -5 3 -12 -3
-16 -14 -3 -11 -14 -22 -23 -24 -9 -3 -4 -5 12 -6 21 -1 27 3 22 14 -3 9 0 15
9 15 25 0 16 29 -11 36 -15 4 -23 12 -20 20 3 8 0 11 -9 8 -9 -4 -15 3 -17 20
-2 19 -7 23 -17 17z"/>
<path d="M1940 930 c0 -5 6 -10 14 -10 8 0 17 -6 19 -12 4 -10 6 -10 6 -1 1 7
-8 17 -19 23 -14 7 -20 7 -20 0z"/>
<path d="M2895 927 c-22 -5 -52 -12 -67 -17 -19 -6 -28 -5 -28 3 0 8 -3 8 -11
0 -7 -7 -30 -9 -59 -6 -42 4 -50 2 -59 -16 -8 -15 -9 -21 -1 -21 6 0 8 -5 4
-11 -4 -7 1 -7 15 1 19 10 20 14 9 27 -11 14 -11 15 7 6 11 -6 36 -11 55 -10
19 0 49 -3 66 -7 24 -5 32 -4 30 6 0 7 4 13 9 13 6 0 9 -6 9 -12 -1 -7 4 -13
12 -13 17 0 18 12 2 28 -8 8 -8 12 -1 12 15 0 34 -25 26 -34 -11 -11 -12 -36
-1 -36 6 0 8 -9 5 -20 -3 -11 -1 -20 3 -20 9 0 24 99 18 121 -2 11 -12 12 -43
6z"/>
<path d="M1320 898 c0 -23 3 -29 9 -19 8 12 4 51 -5 51 -2 0 -4 -15 -4 -32z"/>
<path d="M1440 915 c-7 -8 -9 -22 -6 -31 5 -14 4 -15 -9 -4 -12 10 -15 10 -15
-4 0 -9 4 -16 9 -16 5 0 9 -11 9 -25 0 -28 8 -42 18 -32 4 4 1 13 -6 22 -7 8
-9 15 -5 15 10 0 45 -40 45 -52 0 -4 6 -8 14 -8 7 0 19 -7 26 -15 7 -8 19 -15
28 -15 10 0 3 11 -19 30 -82 71 -85 77 -63 134 8 20 -10 21 -26 1z"/>
<path d="M2020 917 c0 -10 8 -17 18 -17 9 0 13 4 7 8 -5 4 -13 11 -17 16 -5 5
-8 2 -8 -7z"/>
<path d="M2190 926 c0 -2 7 -9 15 -16 9 -7 15 -8 15 -2 0 5 -7 12 -15 16 -8 3
-15 4 -15 2z"/>
<path d="M690 901 c-6 -11 -17 -18 -24 -15 -24 9 -26 -12 -3 -34 21 -20 28
-21 92 -13 23 3 -17 23 -48 24 l-36 1 26 22 c15 13 21 24 15 28 -6 4 -16 -2
-22 -13z"/>
<path d="M2638 914 c-4 -3 -4 -12 -1 -20 3 -9 -2 -14 -18 -15 -13 0 -18 -3
-11 -6 6 -2 10 -8 7 -13 -3 -4 4 -6 15 -3 22 6 37 40 23 54 -5 5 -12 7 -15 3z"/>
<path d="M2107 903 c-9 -8 12 -33 28 -33 8 0 16 -6 18 -12 5 -13 7 -7 7 19 0
4 -10 8 -23 8 -12 0 -21 6 -19 13 2 13 -1 15 -11 5z"/>
<path d="M506 883 c-6 -15 -8 -15 -16 -3 -6 9 -10 10 -10 3 0 -18 12 -22 38
-12 13 5 20 13 17 19 -9 15 -22 12 -29 -7z"/>
<path d="M2186 893 c-11 -11 -7 -20 9 -20 8 0 15 4 15 8 0 11 -16 20 -24 12z"/>
<path d="M315 870 c-8 -13 -1 -24 14 -19 6 3 7 10 2 18 -6 10 -10 10 -16 1z"/>
<path d="M420 870 c0 -5 5 -10 11 -10 5 0 7 5 4 10 -3 6 -8 10 -11 10 -2 0 -4
-4 -4 -10z"/>
<path d="M797 856 c-12 -17 -13 -27 -6 -32 7 -4 -6 -15 -30 -26 -45 -21 -54
-38 -18 -38 23 0 75 55 63 67 -3 3 1 11 9 17 9 7 11 16 6 24 -6 10 -12 7 -24
-12z"/>
<path d="M1341 857 c-1 -10 -5 -15 -11 -12 -17 10 -11 -3 12 -30 25 -29 42
-33 29 -7 -5 9 -14 28 -19 42 -8 19 -11 20 -11 7z"/>
<path d="M2000 851 c-13 -25 -13 -28 5 -28 8 0 12 4 9 8 -2 4 4 10 13 12 17 4
17 5 0 6 -10 0 -15 6 -12 11 3 6 4 10 1 10 -3 0 -10 -9 -16 -19z"/>
<path d="M2390 855 c-24 -14 -24 -14 -4 -15 12 0 24 7 28 15 6 18 7 18 -24 0z"/>
<path d="M2530 846 c8 -21 6 -27 -11 -36 -11 -6 -30 -8 -42 -5 -22 6 -22 6 1
-8 12 -7 20 -15 17 -18 -3 -3 2 -6 10 -6 8 0 12 4 9 9 -5 8 6 11 41 9 20 -1
20 -1 0 8 -20 8 -20 8 0 14 11 4 26 17 34 29 14 22 14 22 -12 5 -32 -21 -37
-21 -37 -3 0 8 -4 18 -10 21 -7 4 -7 -2 0 -19z"/>
<path d="M245 850 c-3 -5 -1 -10 4 -10 6 0 11 5 11 10 0 6 -2 10 -4 10 -3 0
-8 -4 -11 -10z"/>
<path d="M1059 840 c-2 -36 -4 -39 -23 -53 -12 -9 -17 -20 -13 -31 9 -23 27
-20 27 5 0 18 4 20 25 15 29 -7 31 1 11 49 -17 40 -25 44 -27 15z"/>
<path d="M2051 857 c2 -1 13 -9 24 -17 19 -14 19 -14 6 3 -7 9 -18 17 -24 17
-6 0 -8 -1 -6 -3z"/>
<path d="M2481 851 c-17 -11 -6 -31 17 -30 15 1 15 2 -1 6 -14 4 -16 8 -6 19
13 16 10 18 -10 5z"/>
<path d="M2752 834 c-7 -8 -8 -14 -3 -14 10 0 25 19 20 25 -2 1 -10 -3 -17
-11z"/>
<path d="M2867 844 c-3 -3 1 -13 9 -22 12 -12 18 -12 27 -2 9 10 9 11 0 6 -6
-3 -16 1 -20 9 -5 9 -12 13 -16 9z"/>
<path d="M1521 824 c0 -11 3 -14 6 -6 3 7 2 16 -1 19 -3 4 -6 -2 -5 -13z"/>
<path d="M1878 824 c12 -8 27 -12 32 -9 17 10 1 25 -28 25 l-26 0 22 -16z"/>
<path d="M2150 832 c0 -7 1 -12 3 -13 1 0 22 -2 47 -5 l45 -5 -29 16 c-33 18
-39 19 -31 5 9 -14 -8 -13 -23 2 -9 9 -12 9 -12 0z"/>
<path d="M2656 825 c-3 -8 -1 -15 4 -15 6 0 10 7 10 15 0 8 -2 15 -4 15 -2 0
-6 -7 -10 -15z"/>
<path d="M2816 831 c-4 -5 3 -7 14 -4 23 6 26 13 6 13 -8 0 -17 -4 -20 -9z"/>
<path d="M146 823 c-8 -9 -7 -23 2 -21 13 3 67 -15 82 -27 8 -7 22 -12 30 -12
8 0 26 -3 40 -7 l25 -7 -25 20 c-14 12 -43 26 -65 32 -22 6 -50 15 -62 19 -11
5 -24 6 -27 3z"/>
<path d="M892 801 c-8 -4 -12 -17 -10 -27 2 -11 -3 -19 -12 -19 -16 -1 -16
-14 2 -57 14 -36 26 -36 20 1 -2 16 5 45 17 70 21 41 15 53 -17 32z"/>
<path d="M1646 795 c25 -19 40 -19 24 0 -7 8 -20 15 -28 15 -13 0 -12 -3 4
-15z"/>
<path d="M2030 805 c0 -7 30 -13 34 -7 3 4 -4 9 -15 9 -10 1 -19 0 -19 -2z"/>
<path d="M2076 786 c-8 -29 -7 -41 2 -32 4 4 7 13 7 19 0 6 11 14 25 17 l25 6
-27 6 c-21 4 -28 1 -32 -16z"/>
<path d="M1193 776 c-13 -12 -23 -30 -23 -40 0 -25 -24 -46 -53 -46 -14 0 -27
-6 -30 -12 -4 -10 -7 -10 -18 0 -7 6 -21 12 -31 12 -17 0 -17 -2 3 -22 11 -13
25 -33 30 -45 5 -13 13 -23 19 -23 13 0 13 17 0 25 -18 11 -2 22 30 20 16 -1
30 2 30 8 0 5 9 20 19 33 15 19 20 21 24 10 4 -9 -2 -17 -14 -21 -10 -4 -19
-14 -19 -23 0 -13 2 -13 15 4 8 10 15 15 15 11 0 -11 40 12 40 23 0 6 -6 10
-14 10 -17 0 -29 27 -16 35 6 4 10 15 10 25 0 10 5 20 12 22 7 3 8 7 3 10 -6
3 -20 -4 -32 -16z"/>
<path d="M1585 790 c-10 -17 -16 -60 -8 -60 5 0 22 -12 38 -26 17 -15 40 -33
53 -41 12 -9 22 -19 22 -24 0 -5 14 -23 30 -41 17 -17 29 -36 27 -42 -10 -29
-128 -39 -197 -16 -37 12 -100 20 -100 12 0 -4 14 -23 31 -41 17 -19 35 -45
40 -58 7 -19 16 -23 48 -23 22 0 42 4 45 9 3 5 22 12 41 15 44 9 102 58 110
95 7 32 -17 64 -118 162 -40 39 -56 61 -51 73 7 18 -1 22 -11 6z m-15 -285 c6
-4 38 -6 70 -6 33 0 60 -2 60 -5 0 -17 -117 -39 -156 -29 -16 4 -44 41 -44 60
0 5 56 -11 70 -20z"/>
<path d="M2230 790 c0 -5 10 -10 23 -10 18 0 19 2 7 10 -19 13 -30 13 -30 0z"/>
<path d="M2412 775 c12 -14 23 -25 25 -25 8 0 -4 26 -17 37 -26 21 -31 14 -8
-12z"/>
<path d="M2635 790 c-3 -5 -2 -10 4 -10 5 0 13 5 16 10 3 6 2 10 -4 10 -5 0
-13 -4 -16 -10z"/>
<path d="M2816 784 c-4 -9 -4 -19 -1 -22 3 -3 5 0 5 6 0 7 5 12 11 12 5 0 8
-4 5 -8 -2 -4 4 -8 15 -8 23 0 23 1 3 20 -20 20 -30 20 -38 0z"/>
<path d="M2959 786 c-21 -6 -46 -19 -56 -28 -10 -10 -42 -23 -71 -29 -29 -7
-52 -17 -52 -22 0 -5 10 -7 23 -3 12 3 34 6 49 6 15 0 33 7 42 15 9 9 33 15
60 15 45 0 63 14 29 23 -17 4 -17 5 0 6 9 0 17 8 17 16 0 8 -1 15 -2 14 -2 -1
-19 -6 -39 -13z"/>
<path d="M1320 781 c0 -5 -3 -16 -6 -25 -4 -11 -1 -16 10 -16 9 0 16 -4 16 -8
0 -5 7 -9 15 -9 11 0 12 4 4 14 -19 22 38 16 60 -6 10 -10 29 -22 40 -26 12
-4 18 -11 15 -17 -5 -7 -1 -9 9 -5 15 6 67 -33 67 -50 0 -3 8 -12 18 -20 15
-12 6 -13 -66 -11 -45 2 -82 0 -82 -4 0 -5 12 -8 28 -9 36 -1 59 -4 107 -14
22 -4 51 -9 65 -10 14 -1 33 -6 43 -10 10 -4 17 -3 17 4 0 6 -13 14 -30 18
-22 4 -30 11 -30 26 0 11 -3 18 -6 14 -4 -3 -27 15 -53 41 -26 26 -49 47 -51
48 -3 1 -32 16 -65 35 -33 19 -63 33 -67 32 -4 -2 -19 2 -33 7 -14 5 -25 6
-25 1z"/>
<path d="M2148 783 c7 -3 16 -2 19 1 4 3 -2 6 -13 5 -11 0 -14 -3 -6 -6z"/>
<path d="M2280 783 c0 -5 12 -15 26 -21 14 -7 23 -8 20 -3 -4 5 -3 11 1 14 5
2 2 2 -6 0 -7 -2 -20 2 -27 8 -8 6 -14 7 -14 2z"/>
<path d="M2460 770 c6 -11 16 -20 22 -20 6 0 3 9 -7 20 -10 11 -20 20 -22 20
-2 0 1 -9 7 -20z"/>
<path d="M2588 783 c7 -3 16 -2 19 1 4 3 -2 6 -13 5 -11 0 -14 -3 -6 -6z"/>
<path d="M97 773 c-10 -10 -8 -23 4 -23 5 0 8 4 5 9 -4 5 0 12 6 14 7 3 8 6 2
6 -6 1 -14 -2 -17 -6z"/>
<path d="M2364 768 c-3 -4 2 -8 10 -8 8 0 17 4 20 8 3 5 -2 9 -10 9 -8 0 -17
-4 -20 -9z"/>
<path d="M2660 776 c0 -2 7 -7 16 -10 8 -3 12 -2 9 4 -6 10 -25 14 -25 6z"/>
<path d="M685 760 c-3 -5 1 -10 10 -10 9 0 13 5 10 10 -3 6 -8 10 -10 10 -2 0
-7 -4 -10 -10z"/>
<path d="M2115 760 c3 -5 8 -10 11 -10 2 0 4 5 4 10 0 6 -5 10 -11 10 -5 0 -7
-4 -4 -10z"/>
<path d="M2560 760 c-9 -6 -10 -10 -3 -10 6 0 15 5 18 10 8 12 4 12 -15 0z"/>
<path d="M18 753 c-10 -2 -18 -12 -18 -20 0 -15 2 -15 18 0 10 9 23 13 32 8 8
-5 44 -13 80 -20 36 -7 90 -17 120 -23 79 -15 138 -48 124 -69 -2 -4 5 -5 17
-2 19 5 19 7 -11 37 -16 18 -27 36 -23 40 4 4 0 4 -9 1 -9 -4 -37 1 -62 9 -26
9 -70 16 -99 16 -29 1 -70 7 -92 15 -41 15 -48 16 -77 8z"/>
<path d="M2780 756 c0 -2 7 -7 16 -10 8 -3 12 -2 9 4 -6 10 -25 14 -25 6z"/>
<path d="M2090 735 c0 -8 4 -15 10 -15 5 0 7 7 4 15 -4 8 -8 15 -10 15 -2 0
-4 -7 -4 -15z"/>
<path d="M2260 737 c0 -9 4 -18 9 -21 5 -4 8 1 7 9 -3 21 -16 31 -16 12z"/>
<path d="M2685 743 c-34 -8 -38 -20 -5 -15 16 2 30 8 30 13 0 5 -1 8 -2 8 -2
-1 -12 -3 -23 -6z"/>
<path d="M1031 729 c-13 -5 -22 -12 -19 -14 8 -8 128 7 128 16 0 12 -79 10
-109 -2z"/>
<path d="M2325 730 c-3 -6 1 -7 9 -4 18 7 21 14 7 14 -6 0 -13 -4 -16 -10z"/>
<path d="M2375 720 c-19 -21 -21 -19 31 -35 8 -3 12 0 9 5 -3 6 -16 10 -27 10
-20 0 -21 1 -3 20 10 11 16 20 13 20 -3 0 -13 -9 -23 -20z"/>
<path d="M2571 731 c-8 -6 -9 -11 -3 -15 6 -3 14 -1 17 5 9 14 2 20 -14 10z"/>
<path d="M2728 733 c6 -2 18 -2 25 0 6 3 1 5 -13 5 -14 0 -19 -2 -12 -5z"/>
<path d="M1295 720 c-3 -5 -17 -10 -31 -10 -25 0 -29 -7 -16 -25 10 -15 38
-12 35 3 -2 7 4 12 12 12 8 0 15 7 15 15 0 17 -6 19 -15 5z"/>
<path d="M2042 718 c3 -7 13 -15 24 -17 16 -3 17 -1 5 13 -16 19 -34 21 -29 4z"/>
<path d="M2125 720 c-3 -6 1 -7 9 -4 18 7 21 14 7 14 -6 0 -13 -4 -16 -10z"/>
<path d="M2528 723 c7 -3 16 -2 19 1 4 3 -2 6 -13 5 -11 0 -14 -3 -6 -6z"/>
<path d="M1706 707 c5 -13 55 -47 70 -47 5 0 -6 14 -24 30 -35 32 -55 39 -46
17z"/>
<path d="M2416 708 c3 -5 10 -6 15 -3 13 9 11 12 -6 12 -8 0 -12 -4 -9 -9z"/>
<path d="M2458 713 c7 -3 16 -2 19 1 4 3 -2 6 -13 5 -11 0 -14 -3 -6 -6z"/>
<path d="M2749 716 c-2 -3 -65 -12 -139 -20 -188 -21 -350 -52 -369 -71 -9 -9
-11 -15 -4 -15 7 0 14 4 17 9 3 5 72 18 153 30 82 12 176 26 209 31 34 6 77
10 97 10 20 0 39 5 42 11 7 11 2 23 -6 15z"/>
<path d="M395 690 c-3 -5 3 -10 15 -10 12 0 18 5 15 10 -3 6 -10 10 -15 10 -5
0 -12 -4 -15 -10z"/>
<path d="M1404 681 c20 -22 26 -25 26 -13 0 4 -10 13 -22 21 -23 14 -23 14 -4
-8z"/>
<path d="M2140 689 c0 -12 29 -31 39 -25 5 3 12 0 14 -6 4 -8 6 -7 6 3 1 19
33 30 51 19 14 -9 40 -3 40 9 0 4 -34 7 -75 6 -41 0 -75 -3 -75 -6z"/>
<path d="M2292 679 c-8 -12 -9 -19 -4 -15 5 3 25 6 45 8 20 1 34 5 31 10 -3 4
-11 5 -19 1 -8 -3 -15 0 -15 6 0 19 -24 12 -38 -10z"/>
<path d="M22 680 c-39 -16 -19 -37 29 -32 49 6 89 21 89 33 0 12 -88 11 -118
-1z"/>
<path d="M170 660 c17 -17 24 -19 30 -10 6 10 18 9 53 -6 35 -14 43 -22 35
-31 -7 -9 -7 -13 1 -13 6 0 11 5 11 10 0 6 7 10 15 10 8 0 15 -4 15 -10 0 -5
7 -10 15 -10 18 0 20 19 3 24 -7 2 -32 9 -56 15 -23 7 -40 16 -37 21 4 6 -2
10 -12 10 -10 0 -36 3 -57 7 l-39 6 23 -23z"/>
<path d="M1605 670 c3 -5 8 -10 11 -10 2 0 4 5 4 10 0 6 -5 10 -11 10 -5 0 -7
-4 -4 -10z"/>
<path d="M2015 670 c-3 -5 -2 -10 4 -10 5 0 13 5 16 10 3 6 2 10 -4 10 -5 0
-13 -4 -16 -10z"/>
<path d="M759 658 c15 -21 31 -23 31 -6 0 6 -3 8 -7 5 -3 -4 -13 -1 -22 6 -14
11 -14 10 -2 -5z"/>
<path d="M2210 660 c0 -5 7 -7 15 -4 8 4 15 8 15 10 0 2 -7 4 -15 4 -8 0 -15
-4 -15 -10z"/>
<path d="M2070 654 c0 -4 8 -13 18 -20 16 -12 15 -13 -5 -14 -13 0 -23 -4 -23
-9 0 -15 44 -21 58 -8 10 11 9 17 -6 35 -18 21 -42 30 -42 16z"/>
<path d="M1362 624 c-1 -13 3 -26 10 -30 7 -4 8 -3 4 4 -4 7 -1 12 8 12 21 0
20 13 -2 26 -15 10 -18 8 -20 -12z"/>
<path d="M1466 635 c4 -8 8 -15 10 -15 2 0 4 7 4 15 0 8 -4 15 -10 15 -5 0 -7
-7 -4 -15z"/>
<path d="M2205 630 c4 -6 11 -8 16 -5 14 9 11 15 -7 15 -8 0 -12 -5 -9 -10z"/>
<path d="M60 610 c-20 -12 -5 -24 16 -12 9 5 12 12 7 15 -5 3 -15 2 -23 -3z"/>
<path d="M590 605 l-35 -13 31 -1 c20 -1 34 5 38 14 3 8 4 15 3 14 -1 0 -18
-7 -37 -14z"/>
<path d="M760 607 c0 -5 -7 -7 -15 -3 -8 3 -14 1 -12 -5 2 -10 -68 -40 -76
-32 -2 2 -10 -3 -17 -12 -11 -13 -10 -14 4 -9 9 3 16 1 16 -5 0 -8 9 -7 29 3
16 9 31 13 34 10 2 -3 17 6 32 20 21 20 31 23 41 15 15 -13 34 -4 34 16 0 10
-11 14 -35 13 -19 -1 -35 -5 -35 -11z"/>
<path d="M845 560 c7 -65 -5 -82 -35 -55 -18 16 -18 16 -13 -3 6 -24 44 -37
55 -19 4 7 8 20 8 30 0 19 15 23 25 7 4 -7 12 -7 25 0 13 7 21 7 25 0 3 -5 13
-10 22 -10 28 0 81 -31 86 -51 3 -10 11 -19 17 -19 7 0 10 7 6 15 -7 19 0 19
49 -5 22 -11 48 -19 58 -20 17 0 26 -4 74 -28 16 -9 22 -8 26 3 6 14 -56 48
-109 61 -71 16 -154 49 -154 61 0 14 32 18 44 6 18 -18 72 -28 99 -18 21 7 30
7 36 -3 4 -8 24 -15 44 -16 20 -2 48 -11 62 -20 24 -16 25 -16 25 4 0 26 15
26 37 0 10 -11 32 -22 50 -25 18 -3 50 -8 71 -11 l37 -6 -45 46 c-25 24 -46
50 -46 55 -1 6 -2 15 -3 20 -2 13 -57 19 -75 9 -9 -5 -16 -16 -16 -23 0 -8 -5
-15 -10 -15 -6 0 -9 -4 -8 -9 3 -10 -10 -11 -29 -4 -6 3 -20 0 -32 -6 -26 -15
-31 -14 -31 5 0 10 6 14 15 10 8 -3 15 -2 15 3 0 16 -13 19 -36 9 -18 -9 -28
-8 -36 0 -9 9 -6 12 15 12 18 0 27 5 27 16 0 11 6 14 20 9 16 -5 20 -2 20 14
0 19 -4 20 -67 14 -39 -4 -74 -13 -83 -21 -13 -14 -9 -15 38 -9 35 4 51 3 46
-4 -3 -6 -8 -8 -11 -6 -2 3 -15 -5 -29 -18 l-25 -23 -67 25 c-37 14 -75 29
-84 34 -10 5 -24 9 -32 9 -8 0 -27 5 -43 12 -60 25 -65 21 -58 -42z m55 25 c6
-8 15 -14 18 -13 14 2 72 -24 72 -33 0 -8 -10 -7 -47 7 -10 4 -28 6 -40 5 -19
-2 -43 23 -43 43 0 12 28 6 40 -9z m510 -51 c0 -13 3 -24 8 -24 4 0 12 -8 19
-18 11 -18 5 -20 -37 -13 -3 1 -17 11 -31 24 -22 19 -24 24 -13 35 8 7 12 17
10 21 -3 5 6 6 19 3 18 -3 25 -11 25 -28z"/>
<path d="M1827 614 c-11 -11 3 -24 25 -24 17 0 18 2 8 15 -13 16 -23 19 -33 9z"/>
<path d="M105 600 c3 -5 8 -10 11 -10 2 0 4 5 4 10 0 6 -5 10 -11 10 -5 0 -7
-4 -4 -10z"/>
<path d="M1285 600 c3 -5 15 -10 26 -10 11 0 17 5 14 10 -3 6 -15 10 -26 10
-11 0 -17 -4 -14 -10z"/>
<path d="M476 583 c-6 -14 -5 -15 5 -6 7 7 10 15 7 18 -3 3 -9 -2 -12 -12z"/>
<path d="M2980 590 c0 -5 5 -10 11 -10 5 0 7 5 4 10 -3 6 -8 10 -11 10 -2 0
-4 -4 -4 -10z"/>
<path d="M357 579 c7 -7 15 -10 18 -7 3 3 -2 9 -12 12 -14 6 -15 5 -6 -5z"/>
<path d="M390 581 c0 -5 7 -12 16 -15 14 -5 15 -4 4 9 -14 17 -20 19 -20 6z"/>
<path d="M2705 580 c3 -5 10 -10 16 -10 5 0 9 5 9 10 0 6 -7 10 -16 10 -8 0
-12 -4 -9 -10z"/>
<path d="M1884 535 c20 -41 36 -58 36 -36 0 15 -41 81 -50 81 -4 0 2 -20 14
-45z"/>
<path d="M170 566 c0 -9 30 -14 35 -6 4 6 -3 10 -14 10 -12 0 -21 -2 -21 -4z"/>
<path d="M435 560 c-12 -20 73 -34 92 -15 11 12 7 13 -22 8 -20 -3 -41 -1 -49
6 -10 8 -16 9 -21 1z"/>
<path d="M2110 559 c0 -5 5 -7 10 -4 6 3 10 8 10 11 0 2 -4 4 -10 4 -5 0 -10
-5 -10 -11z"/>
<path d="M2163 553 c9 -9 19 -14 23 -11 10 10 -6 28 -24 28 -15 0 -15 -1 1
-17z"/>
<path d="M2291 560 c14 -4 95 -11 180 -15 85 -4 161 -8 169 -10 8 -1 93 -6
188 -10 123 -5 172 -4 172 4 0 6 -17 12 -37 13 -21 0 -63 2 -93 3 -30 2 -120
6 -200 10 -226 11 -408 14 -379 5z"/>
<path d="M2930 560 c0 -13 11 -13 30 0 12 8 11 10 -7 10 -13 0 -23 -4 -23 -10z"/>
<path d="M0 551 c0 -6 7 -11 15 -11 21 0 75 -28 103 -53 58 -53 -12 -96 -101
-62 -11 5 -17 2 -17 -7 0 -9 17 -20 40 -27 34 -10 46 -10 72 3 17 9 36 16 43
16 15 0 7 57 -13 88 -9 14 -10 22 -3 22 6 0 11 5 11 11 0 5 -4 7 -10 4 -5 -3
-18 -2 -27 4 -30 16 -113 25 -113 12z"/>
<path d="M790 549 c0 -5 5 -7 10 -4 6 3 10 8 10 11 0 2 -4 4 -10 4 -5 0 -10
-5 -10 -11z"/>
<path d="M2041 553 c3 -35 17 -48 51 -45 28 3 42 -3 61 -22 15 -14 31 -26 38
-26 7 0 9 -9 4 -27 -3 -14 -1 -46 6 -69 10 -33 20 -46 43 -56 17 -7 44 -26 61
-44 30 -31 75 -53 75 -37 0 4 -9 14 -19 20 -11 7 -22 25 -26 40 -8 36 -36 73
-42 56 -6 -15 -23 -17 -23 -3 0 6 -9 19 -20 30 -12 12 -20 15 -20 8 0 -14 -20
11 -20 25 0 12 52 -4 82 -24 38 -27 54 -23 27 6 -13 13 -28 25 -32 25 -14 0
-89 55 -128 93 -26 25 -40 32 -51 26 -11 -6 -24 -2 -42 12 -14 11 -26 17 -25
12z"/>
<path d="M2216 541 c-10 -15 22 -20 34 -5 10 11 9 14 -8 14 -12 0 -23 -4 -26
-9z"/>
<path d="M534 531 c3 -5 17 -11 32 -14 18 -3 22 -1 15 6 -13 13 -54 20 -47 8z"/>
<path d="M736 531 c-4 -7 -5 -15 -2 -18 9 -9 19 4 14 18 -4 11 -6 11 -12 0z"/>
<path d="M1997 523 c-4 -3 -7 -11 -7 -17 0 -6 5 -5 12 2 6 6 9 14 7 17 -3 3
-9 2 -12 -2z"/>
<path d="M657 508 c7 -8 10 -18 6 -22 -4 -4 1 -4 11 0 15 6 17 4 11 -6 -5 -9
-4 -11 4 -6 7 5 53 -13 108 -41 136 -69 148 -75 151 -85 2 -4 9 -5 15 -1 7 4
8 0 4 -12 -6 -14 -3 -16 13 -12 13 3 28 -2 40 -15 11 -12 25 -18 34 -15 9 4
16 2 16 -4 0 -6 13 4 30 22 l30 33 25 -24 c14 -13 25 -30 25 -39 0 -12 3 -12
12 -3 19 19 45 14 62 -10 9 -12 19 -19 22 -15 11 11 -49 62 -68 59 -11 -2 -18
3 -18 12 0 14 17 31 32 31 18 0 18 15 0 15 -12 0 -26 -9 -32 -20 -13 -25 -30
-26 -30 -2 0 10 -16 33 -35 52 -28 27 -35 30 -40 17 -4 -8 1 -27 10 -40 15
-24 15 -26 -13 -46 l-30 -21 -38 36 c-21 19 -50 37 -64 41 -14 3 -34 14 -45
23 -11 10 -39 24 -62 31 -24 7 -43 16 -43 21 0 4 -8 8 -19 8 -10 0 -24 6 -30
14 -6 8 -24 16 -39 18 -15 3 -36 9 -47 13 -17 8 -18 7 -8 -7z"/>
<path d="M1820 511 c0 -5 5 -13 10 -16 6 -3 10 -2 10 4 0 5 -4 13 -10 16 -5 3
-10 2 -10 -4z"/>
<path d="M2353 513 c9 -2 25 -2 35 0 9 3 1 5 -18 5 -19 0 -27 -2 -17 -5z"/>
<path d="M1955 500 c3 -5 8 -10 11 -10 2 0 4 5 4 10 0 6 -5 10 -11 10 -5 0 -7
-4 -4 -10z"/>
<path d="M2238 503 c7 -3 16 -2 19 1 4 3 -2 6 -13 5 -11 0 -14 -3 -6 -6z"/>
<path d="M2058 493 c-20 -5 -23 -18 -8 -28 6 -3 10 -2 10 4 0 6 7 8 15 5 11
-5 13 -2 9 10 -3 9 -7 15 -8 15 0 -1 -9 -3 -18 -6z"/>
<path d="M2678 493 c7 -3 16 -2 19 1 4 3 -2 6 -13 5 -11 0 -14 -3 -6 -6z"/>
<path d="M1747 459 c-15 -17 -27 -32 -27 -34 0 -4 99 3 131 10 15 3 30 13 33
22 9 23 -1 28 -21 11 -10 -9 -34 -18 -53 -19 -31 -3 -35 -1 -33 19 3 28 3 28
-30 -9z"/>
<path d="M2 460 c0 -14 2 -19 5 -12 2 6 2 18 0 25 -3 6 -5 1 -5 -13z"/>
<path d="M1975 470 c4 -6 11 -8 16 -5 14 9 11 15 -7 15 -8 0 -12 -5 -9 -10z"/>
<path d="M2320 469 c0 -5 4 -8 9 -5 5 4 12 -7 16 -24 4 -16 11 -30 16 -30 12
0 11 11 -3 43 -13 26 -38 37 -38 16z"/>
<path d="M2364 471 c3 -5 15 -7 26 -4 28 7 25 13 -6 13 -14 0 -23 -4 -20 -9z"/>
<path d="M705 460 c3 -5 11 -10 16 -10 6 0 7 5 4 10 -3 6 -11 10 -16 10 -6 0
-7 -4 -4 -10z"/>
<path d="M1930 450 c0 -5 5 -10 11 -10 5 0 7 5 4 10 -3 6 -8 10 -11 10 -2 0
-4 -4 -4 -10z"/>
<path d="M2726 448 c3 -5 30 -8 60 -7 34 1 50 5 42 10 -17 11 -109 8 -102 -3z"/>
<path d="M2050 440 c0 -5 5 -10 10 -10 6 0 10 5 10 10 0 6 -4 10 -10 10 -5 0
-10 -4 -10 -10z"/>
<path d="M2101 423 c15 -43 37 -69 49 -57 7 7 3 17 -10 32 -11 11 -20 28 -20
37 0 8 -7 15 -14 15 -12 0 -13 -6 -5 -27z"/>
<path d="M730 436 c0 -2 9 -6 20 -9 11 -3 20 -1 20 4 0 5 -9 9 -20 9 -11 0
-20 -2 -20 -4z"/>
<path d="M945 430 c3 -5 8 -10 11 -10 2 0 4 5 4 10 0 6 -5 10 -11 10 -5 0 -7
-4 -4 -10z"/>
<path d="M2427 427 c-4 -10 3 -12 27 -9 27 4 28 6 11 13 -29 11 -32 11 -38 -4z"/>
<path d="M970 426 c0 -9 39 -13 51 -5 10 6 4 9 -18 9 -18 0 -33 -2 -33 -4z"/>
<path d="M1871 417 c-7 -7 -30 -12 -51 -13 -43 0 -56 -7 -45 -24 4 -7 27 -8
63 -4 64 7 72 10 72 29 0 18 -25 26 -39 12z"/>
<path d="M1960 420 c-8 -5 -11 -12 -7 -16 4 -4 13 -2 19 4 15 15 7 24 -12 12z"/>
<path d="M2646 421 c-3 -4 6 -7 20 -5 35 3 43 14 11 14 -14 0 -28 -4 -31 -9z"/>
<path d="M1305 410 c3 -5 11 -10 16 -10 6 0 7 5 4 10 -3 6 -11 10 -16 10 -6 0
-7 -4 -4 -10z"/>
<path d="M2525 400 c-4 -6 13 -10 44 -10 28 0 51 5 51 10 0 6 -20 10 -44 10
-25 0 -48 -4 -51 -10z"/>
<path d="M440 392 c0 -4 9 -8 19 -8 11 0 17 4 15 8 -3 4 -12 8 -20 8 -8 0 -14
-4 -14 -8z"/>
<path d="M712 388 c2 -7 16 -16 33 -20 34 -7 48 -2 19 7 -10 4 -27 11 -37 16
-12 7 -16 6 -15 -3z"/>
<path d="M1475 390 c-3 -5 1 -10 9 -10 9 0 16 5 16 10 0 6 -4 10 -9 10 -6 0
-13 -4 -16 -10z"/>
<path d="M1983 385 c-26 -11 -31 -44 -8 -46 8 -1 20 -2 27 -3 13 -1 18 22 9
44 -5 12 -11 13 -28 5z"/>
<path d="M1283 377 c-19 -24 -23 -36 -14 -41 5 -3 16 5 25 19 16 24 6 45 -11
22z"/>
<path d="M1358 383 c-28 -7 -22 -33 7 -33 15 0 25 6 25 14 0 18 -10 24 -32 19z"/>
<path d="M1540 383 c0 -30 148 -63 157 -35 4 9 -5 11 -36 6 -33 -5 -41 -4 -41
9 0 11 -8 15 -27 13 -16 -1 -34 2 -40 7 -8 6 -13 6 -13 0z"/>
<path d="M2373 371 c-11 -17 -10 -21 7 -26 11 -4 20 -12 20 -19 0 -8 6 -19 14
-25 14 -12 14 -29 1 -63 -9 -22 11 -24 23 -2 8 13 10 14 21 0 10 -12 10 -19 0
-38 -7 -13 -12 -24 -11 -25 9 -13 -3 -23 -25 -23 -20 0 -24 -3 -14 -9 20 -13
58 7 66 33 14 47 15 -5 0 -60 -10 -37 -12 -60 -5 -62 5 -2 7 -15 4 -28 -6 -24
9 -34 21 -14 3 5 7 60 8 121 1 109 1 112 -25 134 -15 13 -24 25 -21 28 3 3 -2
16 -11 29 -9 12 -16 18 -16 13 0 -6 -5 -2 -11 9 -9 14 -8 20 2 27 9 6 10 9 2
9 -6 0 -17 2 -25 5 -7 3 -19 -4 -25 -14z"/>
<path d="M1417 374 c-3 -4 1 -17 10 -30 12 -19 12 -24 2 -24 -10 0 -10 -3 -2
-11 7 -7 18 -9 27 -6 13 5 13 9 0 36 -17 33 -28 44 -37 35z"/>
<path d="M2086 344 c-4 -15 -2 -32 3 -37 12 -12 12 -13 14 31 2 39 -8 42 -17
6z"/>
<path d="M180 350 c-12 -8 -10 -10 8 -10 13 0 32 -5 43 -10 24 -13 25 -2 2 16
-21 16 -33 17 -53 4z"/>
<path d="M515 350 c3 -5 11 -10 16 -10 6 0 7 5 4 10 -3 6 -11 10 -16 10 -6 0
-7 -4 -4 -10z"/>
<path d="M820 350 l-25 -8 28 -1 c15 -1 27 4 27 9 0 6 -1 10 -2 9 -2 -1 -14
-5 -28 -9z"/>
<path d="M1760 341 c0 -6 5 -12 10 -12 20 -3 25 -4 38 -12 6 -5 16 -6 21 -2 5
3 16 -2 24 -10 9 -8 22 -15 30 -15 8 0 20 -7 27 -15 17 -20 33 -19 61 5 l24
20 -38 -6 c-41 -7 -69 8 -60 32 4 12 -5 14 -43 13 -27 -1 -59 1 -71 5 -14 5
-23 3 -23 -3z"/>
<path d="M2166 336 c3 -9 -8 -27 -28 -45 -21 -20 -28 -31 -18 -31 9 0 24 9 33
21 10 11 25 18 33 15 18 -7 18 13 0 37 -16 21 -27 22 -20 3z"/>
<path d="M2516 342 c-8 -13 45 -22 64 -11 12 7 11 8 -7 9 -12 0 -28 3 -36 6
-8 3 -18 1 -21 -4z"/>
<path d="M1710 330 c0 -5 5 -10 10 -10 6 0 10 5 10 10 0 6 -4 10 -10 10 -5 0
-10 -4 -10 -10z"/>
<path d="M2830 326 c67 -12 93 -10 69 5 -8 5 -41 8 -74 8 l-60 -1 65 -12z"/>
<path d="M66 315 c-3 -9 0 -15 8 -15 7 0 13 7 13 15 0 8 -4 15 -8 15 -4 0 -9
-7 -13 -15z"/>
<path d="M96 322 c-3 -6 -3 -13 1 -15 19 -12 128 -35 137 -30 12 8 -49 31 -84
32 -15 1 -31 6 -37 12 -7 7 -13 7 -17 1z"/>
<path d="M870 301 c0 -25 6 -27 13 -6 4 8 2 17 -3 20 -6 4 -10 -3 -10 -14z"/>
<path d="M1355 310 c-3 -5 1 -10 9 -10 9 0 16 5 16 10 0 6 -4 10 -9 10 -6 0
-13 -4 -16 -10z"/>
<path d="M1550 310 l-25 -8 28 -1 c15 -1 27 4 27 9 0 6 -1 10 -2 9 -2 -1 -14
-5 -28 -9z"/>
<path d="M2350 314 c0 -7 9 -22 20 -35 10 -13 19 -19 20 -13 0 7 -9 22 -20 35
-10 13 -19 19 -20 13z"/>
<path d="M2508 298 c6 -6 18 -8 28 -6 14 3 12 5 -9 10 -19 3 -25 2 -19 -4z"/>
<path d="M2648 303 c7 -3 16 -2 19 1 4 3 -2 6 -13 5 -11 0 -14 -3 -6 -6z"/>
<path d="M2684 298 c-5 -7 -2 -9 8 -5 9 3 41 2 72 -2 56 -8 86 1 43 13 -38 10
-115 7 -123 -6z"/>
<path d="M2949 298 c23 -6 37 -6 44 1 8 8 -2 11 -33 10 l-45 -1 34 -10z"/>
<path d="M1590 290 c0 -5 7 -10 15 -10 8 0 15 5 15 10 0 6 -7 10 -15 10 -8 0
-15 -4 -15 -10z"/>
<path d="M1714 288 c-9 -15 2 -21 26 -13 12 4 19 10 15 13 -10 10 -35 11 -41
0z"/>
<path d="M1638 283 c6 -2 18 -2 25 0 6 3 1 5 -13 5 -14 0 -19 -2 -12 -5z"/>
<path d="M2050 276 c0 -9 -7 -16 -15 -16 -8 0 -15 -6 -15 -14 0 -19 17 -29 25
-16 3 5 17 10 31 10 19 0 25 5 22 18 -2 9 -8 17 -13 17 -6 0 -16 4 -22 8 -9 5
-13 3 -13 -7z"/>
<path d="M2847 279 c8 -8 16 -8 30 0 16 9 14 10 -11 11 -22 0 -27 -3 -19 -11z"/>
<path d="M815 254 c-16 -14 -29 -30 -28 -34 1 -4 -9 -11 -24 -14 -14 -4 -33
-14 -42 -23 -15 -16 -15 -16 2 -10 11 4 29 10 40 13 22 7 107 94 91 94 -5 0
-22 -12 -39 -26z"/>
<path d="M1532 250 c-13 -16 -32 -30 -43 -30 -11 0 -17 -4 -14 -10 4 -6 2 -17
-5 -24 -8 -11 -4 -19 21 -39 l32 -25 41 43 c72 78 77 85 51 85 -8 0 -15 -9
-15 -19 0 -28 -81 -74 -111 -63 -21 8 -20 10 17 32 50 31 64 45 64 64 0 24
-14 19 -38 -14z"/>
<path d="M1095 260 c3 -5 8 -10 11 -10 2 0 4 5 4 10 0 6 -5 10 -11 10 -5 0 -7
-4 -4 -10z"/>
<path d="M1423 258 c-14 -16 -3 -40 13 -30 6 4 8 15 5 25 -6 16 -9 17 -18 5z"/>
<path d="M2210 256 c0 -8 7 -21 15 -30 8 -8 15 -19 15 -24 0 -5 7 -23 15 -38
20 -39 19 -77 -5 -121 -22 -42 -20 -50 8 -32 25 16 43 83 34 124 -4 17 -20 54
-35 83 -26 50 -47 67 -47 38z"/>
<path d="M1010 250 c0 -5 5 -10 10 -10 6 0 10 5 10 10 0 6 -4 10 -10 10 -5 0
-10 -4 -10 -10z"/>
<path d="M1730 243 c-8 -9 -15 -23 -16 -31 -2 -7 -9 -21 -17 -30 -8 -10 -17
-25 -20 -35 -4 -9 -17 -21 -31 -27 -13 -5 -28 -15 -32 -22 -6 -10 -4 -10 9 1
9 7 23 11 32 8 10 -4 26 12 52 51 41 63 52 74 68 65 5 -4 1 3 -9 15 -11 12
-20 22 -20 22 -1 -1 -8 -8 -16 -17z"/>
<path d="M1210 239 c0 -4 9 -10 20 -14 16 -5 18 -12 13 -38 -3 -18 -10 -40
-14 -49 -6 -10 -5 -19 2 -24 18 -11 32 13 32 55 0 36 2 39 18 30 21 -11 25
-49 7 -67 -9 -9 -9 -12 1 -12 8 0 11 -7 8 -19 -2 -11 5 -31 19 -47 l24 -29 -6
31 c-3 17 -1 41 5 53 10 17 9 20 -4 15 -17 -7 -21 16 -4 33 12 12 -33 63 -56
63 -8 0 -15 4 -15 9 0 5 -11 11 -25 13 -14 3 -25 2 -25 -3z"/>
<path d="M1654 235 c-9 -22 1 -29 15 -11 8 10 9 16 1 21 -5 3 -13 -1 -16 -10z"/>
<path d="M1320 230 c0 -5 9 -10 20 -10 11 0 20 5 20 10 0 6 -9 10 -20 10 -11
0 -20 -4 -20 -10z"/>
<path d="M2145 230 c-3 -5 3 -10 14 -10 11 0 23 5 26 10 3 6 -3 10 -14 10 -11
0 -23 -4 -26 -10z"/>
<path d="M1800 215 c0 -17 2 -18 24 -9 18 7 12 24 -10 24 -8 0 -14 -7 -14 -15z"/>
<path d="M1850 211 c0 -25 6 -27 13 -6 4 8 2 17 -3 20 -6 4 -10 -3 -10 -14z"/>
<path d="M975 210 c3 -5 8 -10 11 -10 2 0 4 5 4 10 0 6 -5 10 -11 10 -5 0 -7
-4 -4 -10z"/>
<path d="M1040 212 c0 -5 7 -16 16 -23 14 -12 16 -11 13 5 -4 20 -29 35 -29
18z"/>
<path d="M0 199 c1 -23 75 -97 143 -142 l64 -42 159 3 c113 3 152 7 135 13
-14 5 -31 7 -39 4 -8 -3 -21 0 -29 7 -11 9 -16 9 -22 -1 -13 -21 -192 -11
-215 12 -10 9 -22 17 -27 17 -10 0 -26 11 -64 46 -13 12 -26 19 -29 16 -3 -3
-6 0 -6 7 0 12 -20 35 -52 60 -15 11 -18 11 -18 0z"/>
<path d="M1894 199 c-14 -18 -27 -57 -29 -88 0 -14 -5 -26 -10 -28 -6 -2 -17
-8 -25 -13 -13 -9 -13 -11 -1 -19 26 -17 51 10 51 53 0 22 7 47 16 57 9 10 14
25 12 35 -2 14 -5 15 -14 3z"/>
<path d="M2020 201 c0 -12 39 -21 45 -11 3 4 -2 11 -11 14 -22 8 -34 7 -34 -3z"/>
<path d="M2200 195 c0 -8 5 -15 10 -15 6 0 10 7 10 15 0 8 -4 15 -10 15 -5 0
-10 -7 -10 -15z"/>
<path d="M1167 181 c7 -26 30 -34 37 -14 7 19 8 19 -21 27 -18 6 -20 4 -16
-13z"/>
<path d="M1358 193 c7 -3 16 -2 19 1 4 3 -2 6 -13 5 -11 0 -14 -3 -6 -6z"/>
<path d="M2120 190 c-8 -5 -11 -12 -7 -16 4 -4 13 -2 19 4 15 15 7 24 -12 12z"/>
<path d="M2406 191 c-3 -5 1 -11 9 -15 8 -3 15 -1 15 4 0 13 -18 22 -24 11z"/>
<path d="M2630 190 c-12 -8 -11 -10 7 -10 12 0 25 5 28 10 8 13 -15 13 -35 0z"/>
<path d="M380 172 l-22 -18 41 -44 c24 -28 40 -39 41 -30 0 9 -6 22 -12 29
-11 10 -9 11 7 5 17 -7 18 -6 7 8 -7 8 -10 22 -6 31 3 9 -2 20 -14 26 -16 8
-25 7 -42 -7z m43 -9 c9 -9 -13 -34 -24 -27 -14 8 -11 34 4 34 8 0 17 -3 20
-7z"/>
<path d="M1599 154 c-36 -39 -35 -39 24 -9 20 10 37 25 37 32 0 23 -25 14 -61
-23z"/>
<path d="M1953 183 c-7 -3 -13 -11 -13 -19 0 -8 -7 -17 -15 -20 -8 -4 -15 -10
-15 -15 0 -6 10 -4 23 3 12 7 27 11 33 10 17 -3 25 25 11 36 -7 5 -18 7 -24 5z"/>
<path d="M2330 180 c0 -5 5 -10 10 -10 6 0 10 5 10 10 0 6 -4 10 -10 10 -5 0
-10 -4 -10 -10z"/>
<path d="M2570 180 c0 -5 7 -7 15 -4 8 4 15 8 15 10 0 2 -7 4 -15 4 -8 0 -15
-4 -15 -10z"/>
<path d="M2968 183 c6 -2 18 -2 25 0 6 3 1 5 -13 5 -14 0 -19 -2 -12 -5z"/>
<path d="M1387 162 c-25 -28 -20 -33 13 -14 16 9 30 20 30 25 0 14 -27 7 -43
-11z"/>
<path d="M1104 151 c20 -22 36 -27 36 -13 0 5 -12 14 -27 21 -28 13 -28 13 -9
-8z"/>
<path d="M660 149 c0 -3 -18 -12 -40 -19 -22 -7 -40 -17 -40 -22 0 -12 3 -11
65 16 58 26 68 36 35 33 -11 -1 -20 -4 -20 -8z"/>
<path d="M2020 150 c0 -5 5 -10 11 -10 5 0 7 5 4 10 -3 6 -8 10 -11 10 -2 0
-4 -4 -4 -10z"/>
<path d="M2172 140 c0 -14 2 -19 5 -12 2 6 2 18 0 25 -3 6 -5 1 -5 -13z"/>
<path d="M2370 141 c-6 -12 -7 -21 -1 -21 10 0 24 30 17 37 -2 3 -9 -5 -16
-16z"/>
<path d="M2663 152 c-6 -4 14 -7 45 -7 32 0 62 -4 69 -8 6 -5 21 -4 32 2 20
11 51 5 51 -10 0 -5 30 -9 67 -9 74 0 82 7 13 11 -25 1 -56 7 -70 12 -31 12
-191 19 -207 9z"/>
<path d="M1444 131 c15 -16 15 -19 1 -31 -15 -12 -15 -14 -1 -22 11 -6 14 -17
10 -37 -4 -16 -1 -32 5 -35 11 -7 14 3 14 62 0 20 4 32 13 32 8 0 4 9 -10 25
-13 14 -29 25 -36 25 -9 0 -8 -5 4 -19z"/>
<path d="M1800 140 c0 -5 5 -10 11 -10 5 0 7 5 4 10 -3 6 -8 10 -11 10 -2 0
-4 -4 -4 -10z"/>
<path d="M1740 130 c0 -5 7 -7 15 -4 8 4 15 8 15 10 0 2 -7 4 -15 4 -8 0 -15
-4 -15 -10z"/>
<path d="M2210 122 c0 -5 7 -16 16 -23 14 -12 16 -11 13 5 -4 20 -29 35 -29
18z"/>
<path d="M483 99 c1 -13 7 -15 29 -8 31 9 34 9 48 9 6 0 10 3 10 8 0 4 -20 7
-44 7 -35 0 -44 -4 -43 -16z"/>
<path d="M1365 79 c-1 -34 1 -38 18 -33 13 4 17 2 13 -5 -10 -16 3 -13 20 4
14 13 14 16 0 21 -8 3 -18 14 -21 24 -11 36 -30 29 -30 -11z"/>
<path d="M2128 113 c7 -3 16 -2 19 1 4 3 -2 6 -13 5 -11 0 -14 -3 -6 -6z"/>
<path d="M1706 101 c-7 -11 14 -20 32 -14 6 3 12 9 12 14 0 12 -37 12 -44 0z"/>
<path d="M1782 94 c-22 -15 -30 -44 -13 -44 10 0 45 50 39 56 -2 2 -14 -3 -26
-12z"/>
<path d="M2425 100 c3 -5 10 -10 16 -10 5 0 9 5 9 10 0 6 -7 10 -16 10 -8 0
-12 -4 -9 -10z"/>
<path d="M1524 92 c3 -6 0 -14 -7 -19 -17 -10 -30 -43 -17 -43 5 0 17 11 26
26 11 15 21 21 26 16 11 -11 48 -4 48 9 0 5 -8 9 -17 9 -10 0 -29 3 -42 7 -16
4 -22 3 -17 -5z"/>
<path d="M2151 83 c-9 -10 -10 -18 -2 -26 7 -7 12 -6 17 6 9 25 1 37 -15 20z"/>
<path d="M2320 93 c0 -5 4 -15 10 -23 11 -18 25 -7 17 15 -6 15 -27 21 -27 8z"/>
<path d="M1190 76 c0 -8 5 -18 10 -21 6 -3 10 1 10 9 0 8 -4 18 -10 21 -5 3
-10 -1 -10 -9z"/>
<path d="M2966 82 c-3 -5 1 -9 9 -9 8 0 15 4 15 9 0 10 -17 10 -24 0z"/>
<path d="M1968 63 c7 -3 16 -2 19 1 4 3 -2 6 -13 5 -11 0 -14 -3 -6 -6z"/>
<path d="M2665 60 c3 -5 8 -10 11 -10 2 0 4 5 4 10 0 6 -5 10 -11 10 -5 0 -7
-4 -4 -10z"/>
<path d="M2548 53 c6 -2 18 -2 25 0 6 3 1 5 -13 5 -14 0 -19 -2 -12 -5z"/>
<path d="M45 40 c-4 -7 3 -8 22 -4 38 9 42 14 10 14 -14 0 -29 -5 -32 -10z"/>
<path d="M620 41 c0 -5 -8 -12 -17 -14 -10 -3 -3 -5 16 -6 29 -1 32 1 21 14
-14 17 -20 19 -20 6z"/>
<path d="M765 40 c-8 -13 -1 -24 14 -19 6 3 7 10 2 18 -6 10 -10 10 -16 1z"/>
<path d="M1595 37 c-11 -8 -33 -19 -50 -25 -29 -10 -29 -10 -4 -11 14 -1 31 5
37 11 10 10 15 10 22 -1 7 -12 11 -12 25 2 11 12 25 15 42 11 19 -5 24 -3 21
7 -6 19 -68 23 -93 6z"/>
<path d="M1908 33 c-10 -2 -18 -9 -18 -14 0 -11 39 -2 55 12 9 9 -6 10 -37 2z"/>
<path d="M1990 30 c0 -5 5 -10 11 -10 5 0 7 5 4 10 -3 6 -8 10 -11 10 -2 0 -4
-4 -4 -10z"/>
<path d="M2118 33 c-10 -2 -18 -8 -18 -13 0 -5 7 -7 15 -4 8 4 22 1 30 -6 16
-14 18 -10 9 14 -3 9 -9 15 -13 15 -3 -1 -14 -3 -23 -6z"/>
<path d="M2868 33 c7 -3 16 -2 19 1 4 3 -2 6 -13 5 -11 0 -14 -3 -6 -6z"/>
<path d="M2920 32 c0 -4 17 -9 38 -10 29 -1 33 1 17 8 -26 11 -55 12 -55 2z"/>
<path d="M538 23 c6 -2 18 -2 25 0 6 3 1 5 -13 5 -14 0 -19 -2 -12 -5z"/>
<path d="M1272 18 c5 -15 28 -23 28 -10 0 5 -7 13 -16 16 -10 4 -14 1 -12 -6z"/>
<path d="M1817 23 c-12 -11 -8 -23 8 -23 8 0 15 7 15 15 0 16 -12 20 -23 8z"/>
<path d="M2321 14 c0 -11 3 -14 6 -6 3 7 2 16 -1 19 -3 4 -6 -2 -5 -13z"/>
<path d="M1705 10 c3 -5 18 -10 33 -10 21 0 24 2 12 10 -20 13 -53 13 -45 0z"/>
<path d="M2360 10 c0 -5 7 -10 15 -10 8 0 15 5 15 10 0 6 -7 10 -15 10 -8 0
-15 -4 -15 -10z"/>
<path d="M2416 8 c3 -5 10 -6 15 -3 13 9 11 12 -6 12 -8 0 -12 -4 -9 -9z"/>
</g>
</svg>
