<?xml version="1.0" standalone="no"?>
<!DOCTYPE svg PUBLIC "-//W3C//DTD SVG 20010904//EN"
 "http://www.w3.org/TR/2001/REC-SVG-20010904/DTD/svg10.dtd">
<svg version="1.0" xmlns="http://www.w3.org/2000/svg"
 width="300.000000pt" height="168.000000pt" viewBox="0 0 300.000000 168.000000"
 preserveAspectRatio="xMidYMid meet">
<metadata>
Created by potrace 1.10, written by Peter Selinger 2001-2011
</metadata>
<g transform="translate(0.000000,168.000000) scale(0.100000,-0.100000)"
fill="#000000" stroke="none">
<path d="M310 1669 c0 -5 5 -7 10 -4 6 3 10 8 10 11 0 2 -4 4 -10 4 -5 0 -10
-5 -10 -11z"/>
<path d="M468 1623 c-3 -50 7 -161 11 -125 1 9 11 12 31 8 17 -2 30 0 30 4 0
5 -12 10 -27 12 l-28 3 2 78 c3 89 -14 106 -19 20z"/>
<path d="M1093 1494 c0 -116 4 -180 9 -170 5 9 8 24 7 34 -1 9 -1 19 0 22 1 3
2 32 2 65 2 159 -2 235 -10 235 -5 0 -9 -82 -8 -186z"/>
<path d="M1260 1670 c0 -5 7 -7 15 -4 8 4 15 8 15 10 0 2 -7 4 -15 4 -8 0 -15
-4 -15 -10z"/>
<path d="M1740 1563 c0 -83 3 -113 10 -103 6 8 10 41 8 73 -1 41 3 61 12 67
12 7 11 10 -4 16 -14 5 -17 14 -12 35 3 16 1 29 -4 29 -6 0 -10 -48 -10 -117z"/>
<path d="M1777 1659 c4 -13 8 -18 11 -10 2 7 -1 18 -6 23 -8 8 -9 4 -5 -13z"/>
<path d="M2382 1409 c2 -149 6 -273 11 -276 4 -2 7 120 7 271 0 186 -3 276
-10 276 -8 0 -10 -87 -8 -271z"/>
<path d="M1175 1660 c3 -5 8 -10 11 -10 2 0 4 5 4 10 0 6 -5 10 -11 10 -5 0
-7 -4 -4 -10z"/>
<path d="M1319 1653 c-13 -16 -12 -17 4 -4 9 7 17 15 17 17 0 8 -8 3 -21 -13z"/>
<path d="M1460 1660 c0 -5 5 -10 11 -10 5 0 7 5 4 10 -3 6 -8 10 -11 10 -2 0
-4 -4 -4 -10z"/>
<path d="M1220 1649 c0 -5 5 -7 10 -4 6 3 10 8 10 11 0 2 -4 4 -10 4 -5 0 -10
-5 -10 -11z"/>
<path d="M2820 1649 c0 -5 5 -7 10 -4 6 3 10 8 10 11 0 2 -4 4 -10 4 -5 0 -10
-5 -10 -11z"/>
<path d="M43 1625 c0 -8 4 -15 9 -15 4 0 8 4 8 9 0 6 -4 12 -8 15 -5 3 -9 -1
-9 -9z"/>
<path d="M1318 1633 c-33 -8 -18 -20 26 -21 25 -1 48 3 52 10 5 7 1 9 -13 6
-11 -3 -26 -2 -34 2 -8 3 -22 5 -31 3z"/>
<path d="M655 1620 c-3 -5 1 -10 10 -10 9 0 13 5 10 10 -3 6 -8 10 -10 10 -2
0 -7 -4 -10 -10z"/>
<path d="M785 1620 c3 -5 8 -10 11 -10 2 0 4 5 4 10 0 6 -5 10 -11 10 -5 0 -7
-4 -4 -10z"/>
<path d="M1486 1621 c-4 -7 -5 -15 -2 -18 9 -9 19 4 14 18 -4 11 -6 11 -12 0z"/>
<path d="M2968 1623 c7 -3 16 -2 19 1 4 3 -2 6 -13 5 -11 0 -14 -3 -6 -6z"/>
<path d="M1420 1610 c0 -5 5 -10 10 -10 6 0 10 5 10 10 0 6 -4 10 -10 10 -5 0
-10 -4 -10 -10z"/>
<path d="M1685 1610 c4 -6 11 -8 16 -5 14 9 11 15 -7 15 -8 0 -12 -5 -9 -10z"/>
<path d="M1203 1593 c9 -9 20 -13 24 -9 4 4 1 11 -7 16 -25 16 -35 11 -17 -7z"/>
<path d="M1540 1599 c0 -5 5 -7 10 -4 6 3 10 8 10 11 0 2 -4 4 -10 4 -5 0 -10
-5 -10 -11z"/>
<path d="M70 1591 c0 -5 5 -13 10 -16 6 -3 10 -2 10 4 0 5 -4 13 -10 16 -5 3
-10 2 -10 -4z"/>
<path d="M38 1583 c7 -3 16 -2 19 1 4 3 -2 6 -13 5 -11 0 -14 -3 -6 -6z"/>
<path d="M651 1580 c-10 -5 -9 -9 3 -13 8 -3 18 -2 22 4 4 6 12 6 22 -3 14
-10 15 -10 5 2 -15 17 -36 21 -52 10z"/>
<path d="M1420 1559 c0 -5 5 -7 10 -4 6 3 10 8 10 11 0 2 -4 4 -10 4 -5 0 -10
-5 -10 -11z"/>
<path d="M1650 1566 c0 -2 7 -7 16 -10 8 -3 12 -2 9 4 -6 10 -25 14 -25 6z"/>
<path d="M1243 1545 c0 -8 6 -15 13 -15 20 0 26 17 8 24 -21 8 -21 8 -21 -9z"/>
<path d="M1298 1553 c7 -3 16 -2 19 1 4 3 -2 6 -13 5 -11 0 -14 -3 -6 -6z"/>
<path d="M1578 1553 c7 -3 16 -2 19 1 4 3 -2 6 -13 5 -11 0 -14 -3 -6 -6z"/>
<path d="M27 1518 c-7 -4 33 -8 87 -8 55 0 97 2 95 4 -8 9 -170 12 -182 4z"/>
<path d="M771 1525 c-1 -5 -33 -11 -72 -11 -61 -2 -92 -8 -78 -16 2 -2 63 -1
134 2 72 3 107 7 78 8 -30 1 -53 7 -56 15 -3 6 -6 8 -6 2z"/>
<path d="M2190 1526 c0 -2 7 -7 16 -10 8 -3 12 -2 9 4 -6 10 -25 14 -25 6z"/>
<path d="M248 1513 c7 -3 16 -2 19 1 4 3 -2 6 -13 5 -11 0 -14 -3 -6 -6z"/>
<path d="M280 1516 c0 -9 37 -12 55 -5 15 6 11 8 -17 8 -21 1 -38 -1 -38 -3z"/>
<path d="M385 1510 c-3 -5 -1 -10 4 -10 6 0 11 5 11 10 0 6 -2 10 -4 10 -3 0
-8 -4 -11 -10z"/>
<path d="M430 1509 c0 -5 5 -7 10 -4 6 3 10 8 10 11 0 2 -4 4 -10 4 -5 0 -10
-5 -10 -11z"/>
<path d="M1180 1507 c-22 -9 -23 -11 -6 -14 10 -3 23 0 29 6 16 16 5 20 -23 8z"/>
<path d="M568 1503 c7 -3 16 -2 19 1 4 3 -2 6 -13 5 -11 0 -14 -3 -6 -6z"/>
<path d="M898 1503 c7 -3 16 -2 19 1 4 3 -2 6 -13 5 -11 0 -14 -3 -6 -6z"/>
<path d="M1008 1503 c7 -3 16 -2 19 1 4 3 -2 6 -13 5 -11 0 -14 -3 -6 -6z"/>
<path d="M1383 1493 c9 -2 23 -2 30 0 6 3 -1 5 -18 5 -16 0 -22 -2 -12 -5z"/>
<path d="M1640 1472 c-13 -14 -12 -15 3 -9 10 4 20 0 26 -11 5 -9 12 -15 14
-12 3 3 -2 14 -12 26 -15 19 -18 19 -31 6z"/>
<path d="M1773 1475 c0 -9 4 -11 11 -6 6 5 27 11 46 14 31 3 30 4 -11 5 -34 2
-46 -2 -46 -13z"/>
<path d="M1908 1483 c12 -2 30 -2 40 0 9 3 -1 5 -23 4 -22 0 -30 -2 -17 -4z"/>
<path d="M1997 1483 c18 -2 50 -2 70 0 21 2 7 4 -32 4 -38 0 -55 -2 -38 -4z"/>
<path d="M2168 1483 c7 -3 16 -2 19 1 4 3 -2 6 -13 5 -11 0 -14 -3 -6 -6z"/>
<path d="M2220 1480 c-13 -8 -12 -10 3 -10 9 0 17 5 17 10 0 12 -1 12 -20 0z"/>
<path d="M2285 1480 c-3 -5 1 -10 9 -10 9 0 16 5 16 10 0 6 -4 10 -9 10 -6 0
-13 -4 -16 -10z"/>
<path d="M413 1465 c-18 -8 -33 -16 -33 -18 0 -3 21 -5 46 -5 57 -2 63 -6 29
-24 -23 -13 -25 -16 -11 -27 13 -11 21 -9 47 13 17 14 38 26 47 26 14 -1 13
-3 -4 -13 -85 -50 -104 -85 -97 -188 5 -78 5 -79 -19 -79 -18 0 -24 -5 -24
-22 0 -13 6 -29 13 -36 7 -7 13 -20 13 -29 0 -24 23 -9 31 20 4 16 3 25 -2 21
-5 -3 -9 6 -9 20 0 14 4 27 9 30 12 8 24 -59 16 -85 -9 -27 31 -85 72 -104 17
-8 47 -15 66 -15 l35 0 -14 -30 c-9 -16 -19 -30 -24 -30 -5 0 -30 -29 -56 -65
-34 -48 -60 -73 -96 -91 -48 -25 -67 -26 -54 -5 4 6 13 8 21 4 8 -3 15 0 15 6
0 6 -6 11 -14 11 -8 0 -13 7 -12 16 0 9 -5 19 -13 22 -9 3 -11 -1 -7 -16 6
-19 -15 -52 -33 -52 -7 0 -25 63 -37 132 -3 21 -10 35 -15 32 -5 -3 -7 -10 -4
-15 4 -5 -6 -9 -22 -9 -15 0 -46 -3 -68 -6 -39 -6 -40 -6 -17 10 23 18 29 36
11 36 -5 0 -8 -4 -5 -8 2 -4 -4 -8 -15 -8 -18 0 -19 2 -4 12 9 7 44 11 81 11
68 -2 85 7 32 17 -60 10 -159 -28 -142 -55 3 -5 -1 -9 -9 -9 -20 0 -60 -37
-52 -49 7 -13 -55 -53 -72 -46 -7 2 -13 0 -13 -4 0 -17 32 -21 58 -7 15 8 42
28 61 45 25 22 38 28 47 20 14 -12 6 -52 -10 -46 -6 2 -22 -4 -35 -14 -13 -11
-33 -19 -45 -19 -11 -1 -34 -7 -51 -15 l-30 -13 32 -1 c17 -1 60 8 94 19 35
10 64 18 65 17 3 -3 28 -116 45 -202 6 -33 18 -75 25 -93 8 -18 12 -38 9 -43
-4 -5 9 -8 27 -8 21 1 25 3 12 6 -17 3 -20 10 -17 31 4 20 2 23 -6 13 -11 -17
-8 -28 -42 164 -12 72 -28 135 -36 141 -19 16 -16 34 7 35 74 4 100 -4 100
-30 0 -9 6 -27 13 -41 11 -22 17 -24 67 -21 51 3 110 26 110 42 0 4 9 11 20
14 11 3 20 11 20 16 0 5 10 20 21 32 20 20 21 20 14 2 -5 -11 -10 -46 -11 -78
-1 -32 -5 -61 -8 -64 -3 -3 -2 -13 2 -22 4 -9 7 -25 7 -36 -1 -11 4 -27 11
-35 14 -18 44 -76 44 -86 0 -4 -7 1 -15 12 -8 10 -15 15 -15 10 0 -4 11 -21
25 -38 34 -41 33 -11 -2 62 -23 47 -26 68 -26 146 0 74 5 105 27 165 l27 75
46 -6 47 -5 4 -52 3 -52 -56 0 c-31 1 -59 -2 -63 -6 -4 -4 52 -5 123 -3 l130
4 -3 -46 c-4 -45 5 -71 44 -143 17 -31 13 -48 -36 -162 -16 -37 -24 -67 -50
-203 -13 -71 -14 -69 18 -75 26 -5 26 -4 6 9 -21 14 -21 16 -7 92 8 42 19 82
24 88 5 6 6 13 3 16 -9 9 23 76 50 105 14 15 26 32 26 37 0 6 -7 1 -15 -10
-12 -16 -14 -16 -15 -3 0 9 7 22 15 29 9 7 13 15 11 18 -3 2 -1 13 4 23 7 12
6 19 -3 22 -7 3 -5 6 6 6 10 1 20 -6 23 -14 4 -8 15 -15 26 -15 11 0 27 -4 36
-9 26 -13 93 -21 87 -10 -4 5 -15 9 -27 9 -30 0 -140 50 -160 73 -26 28 -22
44 5 20 12 -11 36 -23 52 -25 17 -3 39 -8 50 -13 17 -6 17 -5 5 5 -12 9 -9 11
15 7 17 -3 37 -8 45 -12 9 -3 24 0 33 8 16 11 13 13 -25 12 -24 0 -54 4 -67 9
-18 6 -22 5 -16 -5 6 -9 3 -11 -9 -6 -10 4 -27 7 -39 7 -19 0 -22 6 -23 40 -1
22 2 37 7 34 5 -3 9 -1 9 4 0 6 -7 12 -15 16 -16 6 -22 81 -7 90 5 3 9 22 10
42 2 44 -2 42 -20 -11 -8 -24 -11 -57 -8 -83 5 -29 2 -46 -7 -53 -7 -7 -13
-18 -13 -25 0 -8 -4 -14 -10 -14 -5 0 -10 8 -10 18 0 10 -5 23 -12 30 -8 8 -8
15 2 27 7 8 9 15 5 15 -4 0 -1 8 6 17 10 12 10 15 1 9 -8 -5 -14 2 -18 24 -6
29 -8 30 -25 14 -22 -19 -24 -13 -8 19 l12 22 -24 -20 c-13 -11 -28 -26 -32
-32 -8 -12 -47 -19 -47 -8 0 8 121 125 130 125 4 0 4 -17 -1 -37 -4 -21 -6
-39 -4 -42 6 -5 25 46 25 66 0 9 11 26 25 39 17 16 25 19 25 9 0 -8 -4 -17
-10 -20 -13 -8 -13 -35 0 -35 6 0 28 11 49 25 21 14 52 27 69 28 17 1 27 6 22
11 -12 12 -65 -2 -95 -26 -29 -22 -45 -18 -25 7 25 30 71 47 108 41 20 -3 38
-9 41 -13 9 -12 79 -63 87 -63 3 0 1 7 -6 15 -11 13 -10 14 4 9 9 -3 16 -3 16
0 0 4 -25 18 -54 32 -39 17 -53 29 -49 40 3 7 9 14 15 14 5 0 6 -4 3 -10 -3
-5 3 -10 14 -10 12 0 21 7 21 15 0 8 4 15 9 15 12 0 21 29 26 80 6 64 53 92
122 74 13 -4 20 -11 17 -16 -3 -5 3 -12 15 -15 12 -3 21 -12 21 -20 0 -23 -20
-54 -31 -48 -18 12 -9 -45 11 -65 13 -13 15 -20 8 -21 -7 -1 -3 -4 9 -7 20 -6
21 -9 10 -32 -21 -43 -90 -39 -133 7 -22 23 -24 24 -24 6 0 -26 48 -69 86 -77
25 -6 38 -2 59 16 22 20 30 39 41 106 13 71 13 86 0 116 -17 42 -52 66 -105
73 -83 11 -106 -9 -126 -107 -8 -40 -17 -56 -30 -58 -9 -2 -21 1 -25 8 -5 8
-10 3 -14 -14 -4 -17 -13 -26 -26 -26 -13 0 -18 5 -13 15 5 14 -8 15 -92 13
-68 -2 -100 -7 -103 -15 -2 -9 6 -13 25 -12 25 0 26 1 8 9 -14 6 3 9 53 9 39
1 72 -3 72 -7 0 -4 -21 -14 -46 -21 -25 -8 -48 -20 -51 -27 -2 -7 -11 -10 -18
-8 -7 3 -18 -3 -24 -14 -8 -16 -72 -62 -86 -62 -1 0 -5 7 -9 15 -6 17 15 67
51 115 24 34 25 39 19 140 -7 131 -18 170 -59 210 -45 45 -68 51 -171 49 -78
-2 -96 1 -126 19 -41 25 -62 27 -107 7z m356 -51 c11 -4 11 -7 -2 -17 -16 -11
-15 -15 4 -46 11 -18 23 -31 26 -28 11 12 55 -52 48 -72 -3 -11 -2 -22 4 -25
15 -10 6 -138 -12 -172 -10 -20 -39 -44 -74 -64 -32 -18 -60 -36 -63 -41 -7
-10 -28 -7 -56 8 -18 11 -57 20 -91 22 -17 1 -63 65 -68 93 -2 12 -6 46 -10
73 l-6 50 26 -38 c22 -32 31 -38 51 -33 14 4 24 2 24 -4 0 -5 5 -10 12 -10 9
0 9 3 0 12 -7 7 -12 21 -12 31 0 16 -6 18 -30 15 -29 -4 -30 -3 -30 33 0 48 8
69 27 69 8 0 11 -5 8 -10 -16 -26 -15 -58 3 -62 15 -4 18 -1 14 17 -2 12 3 29
12 38 15 14 14 16 -6 19 -28 4 -33 21 -12 42 9 9 14 19 11 22 -3 3 -17 -11
-30 -33 -13 -21 -31 -44 -40 -51 -8 -7 -13 -21 -10 -32 3 -11 0 -20 -6 -20 -6
0 -11 7 -11 16 0 8 -4 13 -9 10 -4 -3 -6 6 -3 19 2 14 7 23 11 21 4 -3 13 -1
21 5 12 7 10 9 -9 9 -20 0 -22 3 -16 27 3 14 13 36 22 47 13 18 15 18 9 2 -5
-13 3 -10 29 13 45 39 64 43 150 32 41 -5 74 -5 80 0 5 6 1 9 -10 9 -11 0 -27
5 -35 10 -11 8 -7 9 15 4 17 -3 36 -8 44 -10z m36 -54 c10 -11 14 -20 8 -20
-5 0 -18 9 -28 20 -10 11 -14 20 -8 20 5 0 18 -9 28 -20z m45 -50 c0 -5 -4
-10 -10 -10 -5 0 -10 5 -10 10 0 6 5 10 10 10 6 0 10 -4 10 -10z m-315 -169
c-3 -6 -11 -8 -17 -5 -6 4 -5 9 3 15 16 10 23 4 14 -10z m875 0 c0 -5 -3 -17
-6 -26 -5 -12 -9 -14 -14 -4 -5 7 -6 18 -3 26 6 15 23 18 23 4z m-30 -66 c0
-14 -4 -25 -10 -25 -5 0 -10 11 -10 25 0 14 5 25 10 25 6 0 10 -11 10 -25z
m-580 -114 c0 -5 -6 -11 -12 -14 -10 -3 -10 -11 -1 -36 14 -38 8 -61 -16 -61
-10 0 -17 9 -18 27 0 15 -6 29 -12 31 -18 6 -13 50 7 55 30 8 52 7 52 -2z
m-550 -124 c0 12 17 12 38 0 24 -16 11 -22 -47 -24 -46 -2 -60 0 -65 13 -5 13
-1 15 24 12 17 -3 30 0 30 6 0 6 5 4 10 -4 5 -8 10 -10 10 -3z m703 -149 c4
-12 4 -24 1 -27 -6 -7 -24 20 -24 37 0 21 17 13 23 -10z"/>
<path d="M548 1360 c-18 -16 -28 -30 -22 -30 5 0 20 9 32 21 13 11 31 21 42
22 26 2 26 17 0 17 -11 0 -34 -13 -52 -30z"/>
<path d="M641 1366 c8 -8 78 -10 85 -3 4 4 -14 7 -41 7 -27 0 -46 -2 -44 -4z"/>
<path d="M710 1306 c14 -18 13 -19 -4 -13 -16 6 -17 5 -6 -8 7 -9 10 -18 7
-21 -9 -10 -27 6 -27 24 0 13 -2 14 -12 3 -11 -10 -9 -15 6 -27 11 -8 16 -14
10 -14 -5 0 0 -7 10 -15 11 -8 14 -15 8 -15 -10 0 -10 -5 0 -22 7 -13 11 -27
10 -31 -1 -5 2 -6 7 -3 5 4 12 2 15 -3 4 -5 18 -8 31 -5 29 5 31 1 9 -20 -8
-9 -11 -16 -4 -16 23 0 34 49 23 103 -12 59 -10 69 7 36 16 -29 17 -116 2
-131 -14 -14 -16 -28 -3 -28 14 0 31 58 31 107 0 35 -6 49 -26 68 -32 29 -46
32 -38 8 5 -15 3 -15 -10 1 -9 11 -16 16 -16 11 0 -4 -10 0 -22 11 -22 19 -22
19 -8 0z m21 -73 l-4 -48 -8 35 c-4 21 -3 40 3 47 6 7 11 13 12 13 1 0 -1 -21
-3 -47z m37 -26 c2 -28 -1 -37 -12 -37 -12 0 -16 11 -16 41 0 52 24 48 28 -4z"/>
<path d="M585 1241 c-7 -12 3 -111 11 -111 3 0 15 10 27 21 l22 21 -23 -7
c-21 -6 -22 -4 -19 28 5 40 -6 67 -18 48z"/>
<path d="M629 1213 c-13 -16 -12 -17 4 -4 9 7 17 15 17 17 0 8 -8 3 -21 -13z"/>
<path d="M675 1110 c-7 -12 2 -12 30 0 19 8 19 9 -2 9 -12 1 -25 -3 -28 -9z"/>
<path d="M782 1074 c-7 -8 -18 -11 -24 -8 -7 4 -8 2 -4 -4 4 -7 2 -12 -4 -12
-6 0 -9 -4 -5 -9 3 -5 17 1 32 15 14 13 24 26 22 28 -2 2 -10 -2 -17 -10z"/>
<path d="M520 1046 c0 -24 28 -56 48 -56 15 0 16 56 2 65 -5 3 -19 8 -30 10
-15 3 -20 -2 -20 -19z m50 -42 c0 -2 -3 -4 -8 -4 -12 0 -33 40 -26 51 5 8 34
-32 34 -47z"/>
<path d="M800 1049 c-14 -11 -38 -26 -55 -34 -17 -7 -23 -14 -14 -14 15 -1 99
53 99 64 0 8 -3 6 -30 -16z"/>
<path d="M1278 1473 c7 -3 16 -2 19 1 4 3 -2 6 -13 5 -11 0 -14 -3 -6 -6z"/>
<path d="M2448 1473 c18 -2 45 -2 60 0 15 2 0 4 -33 4 -33 0 -45 -2 -27 -4z"/>
<path d="M2578 1473 c23 -2 59 -2 80 0 20 2 1 4 -43 4 -44 0 -61 -2 -37 -4z"/>
<path d="M2713 1469 c9 -6 21 -8 26 -4 5 3 12 -2 14 -10 4 -11 5 -11 3 2 -1
12 -11 18 -31 20 -25 2 -27 0 -12 -8z"/>
<path d="M2870 1464 c37 -8 88 -9 84 -2 -3 4 -26 7 -52 7 -26 -1 -40 -3 -32
-5z"/>
<path d="M1195 1450 c-3 -5 -2 -10 4 -10 5 0 13 5 16 10 3 6 2 10 -4 10 -5 0
-13 -4 -16 -10z"/>
<path d="M1435 1450 c-3 -5 -1 -10 4 -10 6 0 11 5 11 10 0 6 -2 10 -4 10 -3 0
-8 -4 -11 -10z"/>
<path d="M352 1438 c-6 -6 -12 -19 -12 -27 0 -14 -2 -14 -11 -1 -9 12 -10 11
-6 -6 2 -11 -2 -29 -9 -39 -17 -23 -17 -25 0 -48 8 -10 20 -15 30 -11 24 9 19
24 -9 24 -30 0 -32 11 -5 28 12 7 18 17 14 23 -3 6 2 19 11 29 20 22 17 48 -3
28z"/>
<path d="M1120 1440 c0 -5 4 -10 9 -10 6 0 13 5 16 10 3 6 -1 10 -9 10 -9 0
-16 -4 -16 -10z"/>
<path d="M836 1428 c3 -4 9 -8 15 -8 5 0 9 4 9 8 0 5 -7 9 -15 9 -8 0 -12 -4
-9 -9z"/>
<path d="M1716 1425 c-21 -7 -55 -30 -75 -49 -21 -20 -41 -33 -45 -29 -4 4 -4
0 0 -10 4 -11 0 -19 -9 -23 -9 -3 -13 -12 -10 -21 4 -11 2 -14 -6 -9 -6 4 -3
-8 8 -28 14 -25 17 -36 8 -40 -9 -3 -9 -7 -1 -13 6 -4 13 -15 16 -23 5 -13 7
-12 13 2 4 10 0 30 -8 46 -16 33 -12 86 9 103 8 6 14 9 14 5 0 -4 10 0 23 9
17 11 38 13 73 9 27 -3 57 -5 67 -5 9 0 17 -4 17 -10 0 -5 -5 -9 -11 -9 -8 0
-8 -5 1 -15 7 -8 16 -13 20 -10 5 3 6 -4 3 -15 -4 -16 -8 -18 -19 -9 -15 12
-19 1 -6 -16 5 -7 19 -5 42 8 19 10 27 16 18 13 -11 -3 -18 0 -18 9 0 7 -8 27
-17 43 -13 22 -27 32 -55 36 -21 4 -38 10 -38 15 0 14 58 34 72 25 7 -5 21 -7
31 -5 21 3 59 -27 51 -40 -9 -15 4 -10 22 9 17 16 18 16 11 -1 -5 -14 -2 -20
13 -24 19 -5 29 -33 12 -33 -5 0 -9 -7 -9 -15 0 -8 3 -12 7 -10 10 6 32 -44
25 -55 -3 -5 4 -19 16 -31 12 -12 17 -24 12 -28 -6 -3 -9 -16 -8 -28 2 -25 -3
-27 -24 -14 -11 7 -11 10 0 17 23 15 16 48 -15 67 -20 13 -32 15 -39 8 -14
-14 -67 -14 -67 -1 0 5 7 6 17 3 11 -4 14 -3 9 5 -4 7 -15 12 -24 12 -14 0
-17 -9 -15 -53 2 -86 3 -88 13 -82 6 3 10 -1 10 -9 0 -18 8 -20 29 -7 7 5 10
14 6 21 -4 7 1 13 14 17 24 6 25 33 2 41 -8 3 -11 0 -8 -5 3 -5 -2 -22 -12
-37 -21 -32 -34 -22 -23 18 9 34 61 70 79 54 19 -16 16 -31 -18 -96 -26 -51
-29 -63 -21 -93 l10 -34 1 35 c1 46 22 26 24 -24 1 -24 8 -38 20 -42 22 -7 22
-17 -3 -39 -21 -19 -28 -7 -8 13 9 9 9 12 0 12 -7 0 -17 -11 -23 -24 -6 -13
-20 -27 -31 -29 -10 -3 -17 -9 -16 -14 4 -14 -22 -53 -37 -53 -7 0 -29 10 -48
23 -30 19 -34 27 -32 57 3 37 -9 60 -31 60 -10 0 -13 -8 -8 -27 11 -48 28 -83
42 -83 7 0 10 -5 6 -12 -4 -6 -3 -8 3 -5 6 4 13 0 17 -8 4 -12 -5 -15 -49 -15
l-54 0 10 32 c14 52 9 57 -11 11 -11 -24 -25 -43 -32 -43 -9 0 -9 3 0 12 7 7
12 17 12 22 0 6 -7 2 -15 -8 -8 -11 -25 -21 -37 -23 -57 -9 -19 -13 115 -13
93 0 147 4 147 10 0 20 53 95 58 81 3 -9 12 -4 28 15 19 24 26 27 41 18 15
-10 18 -7 20 15 1 14 -5 33 -13 42 -11 13 -12 22 -4 44 7 20 7 31 -1 41 -7 9
-8 19 -2 27 5 6 8 37 6 67 -5 122 -9 170 -16 176 -4 4 -7 15 -7 25 0 18 -37
45 -47 35 -3 -3 -19 6 -35 19 -24 20 -40 25 -86 25 -31 -1 -74 -7 -96 -15z m2
-50 c-3 -3 -9 2 -12 12 -6 14 -5 15 5 6 7 -7 10 -15 7 -18z m252 -29 c0 -6 -5
-3 -11 7 -6 9 -14 15 -20 12 -5 -4 -9 2 -9 11 0 16 1 16 20 -1 11 -10 20 -23
20 -29z m-320 10 c0 -3 -4 -8 -10 -11 -5 -3 -10 -1 -10 4 0 6 5 11 10 11 6 0
10 -2 10 -4z m327 -67 c2 -21 1 -21 -12 -3 -18 24 -19 35 -2 28 7 -2 13 -14
14 -25z m13 -176 c0 -5 -5 -15 -10 -23 -8 -12 -11 -13 -22 -2 -11 11 -10 13 2
10 8 -2 14 3 13 10 -2 6 2 12 7 12 6 0 10 -3 10 -7z m-30 -87 c-1 -30 -1 -30
-15 9 -19 51 -18 65 0 41 8 -11 15 -34 15 -50z m24 19 c3 -8 1 -15 -4 -15 -6
0 -10 7 -10 15 0 8 2 15 4 15 2 0 6 -7 10 -15z"/>
<path d="M1620 1416 c7 -7 13 -7 20 0 6 6 3 10 -10 10 -13 0 -16 -4 -10 -10z"/>
<path d="M2040 1420 c-9 -6 -10 -10 -3 -10 6 0 15 5 18 10 8 12 4 12 -15 0z"/>
<path d="M2975 1400 c3 -5 8 -10 11 -10 2 0 4 5 4 10 0 6 -5 10 -11 10 -5 0
-7 -4 -4 -10z"/>
<path d="M1010 1389 c0 -5 5 -7 10 -4 6 3 10 8 10 11 0 2 -4 4 -10 4 -5 0 -10
-5 -10 -11z"/>
<path d="M1255 1390 c-3 -5 -1 -10 4 -10 6 0 11 5 11 10 0 6 -2 10 -4 10 -3 0
-8 -4 -11 -10z"/>
<path d="M2055 1389 c-4 -6 -5 -12 -2 -15 2 -3 7 2 10 11 7 17 1 20 -8 4z"/>
<path d="M360 1381 c0 -17 29 -33 50 -26 17 5 19 10 9 21 -12 15 -59 19 -59 5z"/>
<path d="M1305 1370 c-3 -5 -1 -10 4 -10 6 0 11 5 11 10 0 6 -2 10 -4 10 -3 0
-8 -4 -11 -10z"/>
<path d="M2681 1354 c0 -11 3 -14 6 -6 3 7 2 16 -1 19 -3 4 -6 -2 -5 -13z"/>
<path d="M2760 1360 c0 -5 5 -10 11 -10 5 0 7 5 4 10 -3 6 -8 10 -11 10 -2 0
-4 -4 -4 -10z"/>
<path d="M2875 1360 c-3 -5 -1 -10 4 -10 6 0 11 5 11 10 0 6 -2 10 -4 10 -3 0
-8 -4 -11 -10z"/>
<path d="M2975 1340 c-3 -5 1 -10 10 -10 9 0 13 5 10 10 -3 6 -8 10 -10 10 -2
0 -7 -4 -10 -10z"/>
<path d="M1511 1324 c0 -11 3 -14 6 -6 3 7 2 16 -1 19 -3 4 -6 -2 -5 -13z"/>
<path d="M1697 1333 c-4 -3 -7 -15 -7 -25 0 -15 -5 -18 -22 -12 -13 3 -29 11
-35 16 -10 8 -13 5 -13 -9 0 -26 10 -35 26 -22 9 7 19 7 33 -1 19 -9 21 -8 21
14 0 14 5 28 10 31 6 3 10 2 10 -3 0 -15 48 -43 55 -32 14 23 -58 64 -78 43z"/>
<path d="M280 1316 c0 -2 7 -7 16 -10 8 -3 12 -2 9 4 -6 10 -25 14 -25 6z"/>
<path d="M390 1305 c-10 -12 -10 -15 3 -15 8 0 17 7 21 15 3 8 2 15 -3 15 -5
0 -14 -7 -21 -15z"/>
<path d="M335 1289 c-16 -5 -65 -8 -107 -7 -43 1 -81 -2 -85 -5 -3 -4 30 -7
73 -7 49 0 85 -5 92 -12 9 -9 12 -8 12 5 0 11 8 17 25 17 14 0 25 5 25 10 0 6
-1 10 -2 9 -2 0 -16 -5 -33 -10z"/>
<path d="M2960 1289 c0 -5 5 -7 10 -4 6 3 10 8 10 11 0 2 -4 4 -10 4 -5 0 -10
-5 -10 -11z"/>
<path d="M1048 1279 c-18 -10 -25 -39 -10 -39 16 0 9 -30 -9 -35 -13 -5 -17
-17 -16 -65 l1 -60 72 3 c54 1 70 5 62 14 -5 6 -17 9 -26 6 -10 -4 -14 -2 -9
3 5 5 18 9 30 9 17 0 25 10 35 40 15 46 9 81 -20 113 -23 24 -79 30 -110 11z
m96 -37 c15 -18 15 -21 -5 -46 l-21 -27 26 7 c18 4 26 2 26 -7 0 -24 -14 -36
-45 -42 -16 -2 -45 -10 -63 -15 -29 -10 -32 -9 -22 3 10 12 10 15 -1 15 -7 0
-3 10 11 26 21 21 22 27 10 35 -11 8 -9 9 10 4 23 -5 23 -5 8 8 -22 18 -23 37
-2 37 9 0 18 -9 21 -20 3 -11 11 -20 19 -20 17 0 8 30 -14 48 -14 10 -13 12 5
12 11 0 27 -8 37 -18z m-99 -80 c-8 -8 -25 10 -19 20 4 6 9 5 15 -3 4 -7 6
-15 4 -17z"/>
<path d="M1130 1219 c0 -5 5 -7 10 -4 6 3 10 8 10 11 0 2 -4 4 -10 4 -5 0 -10
-5 -10 -11z"/>
<path d="M1090 1150 c0 -5 5 -10 10 -10 6 0 10 5 10 10 0 6 -4 10 -10 10 -5 0
-10 -4 -10 -10z"/>
<path d="M1140 1149 c0 -5 5 -7 10 -4 6 3 10 8 10 11 0 2 -4 4 -10 4 -5 0 -10
-5 -10 -11z"/>
<path d="M2126 1272 c-3 -5 1 -9 9 -9 8 0 12 4 9 9 -3 4 -7 8 -9 8 -2 0 -6 -4
-9 -8z"/>
<path d="M0 1265 c0 -15 26 -31 46 -27 17 3 24 -3 32 -27 6 -17 16 -31 22 -31
7 0 8 6 0 19 -14 27 -13 36 4 22 8 -6 16 -21 19 -32 3 -12 3 -18 0 -15 -4 3
-11 2 -17 -4 -7 -5 -33 -10 -59 -12 -29 -2 -47 -8 -47 -15 0 -7 5 -13 12 -13
9 0 9 -3 0 -12 -19 -19 -14 -29 8 -16 12 8 18 19 14 30 -6 19 20 26 31 8 3 -5
1 -10 -4 -10 -6 0 -11 -4 -11 -10 0 -5 7 -10 15 -10 8 0 15 6 15 14 0 16 41
29 64 20 12 -4 16 0 16 16 0 32 -38 80 -76 96 -33 14 -84 19 -84 9z"/>
<path d="M890 1258 c0 -4 28 -8 63 -8 40 1 57 4 47 9 -19 11 -110 10 -110 -1z"/>
<path d="M1210 1260 c0 -5 5 -10 11 -10 5 0 7 5 4 10 -3 6 -8 10 -11 10 -2 0
-4 -4 -4 -10z"/>
<path d="M2167 1246 c-14 -13 -27 -20 -29 -16 -2 5 -25 9 -53 10 -78 3 -87 -3
-15 -9 58 -5 65 -8 65 -28 0 -12 4 -25 8 -29 4 -4 2 -13 -4 -20 -6 -8 -7 -14
0 -18 6 -4 15 2 21 13 8 15 7 22 -5 28 -12 7 -12 13 -2 33 9 17 26 28 57 36
41 10 73 8 43 -3 -19 -7 -16 -30 5 -35 9 -3 26 -2 36 2 19 6 19 7 1 13 -10 4
-15 10 -12 13 3 3 19 -2 36 -11 24 -12 31 -22 31 -45 0 -25 -4 -30 -22 -30
-21 1 -21 2 -5 11 9 5 17 19 17 30 0 16 -4 18 -17 11 -10 -5 -24 -7 -30 -5
-16 6 -17 -12 -1 -37 10 -16 10 -24 -1 -41 -13 -21 -12 -21 19 1 44 32 57 15
29 -39 -16 -32 -20 -51 -15 -82 4 -22 2 -48 -4 -59 -10 -18 -7 -20 32 -20 32
0 39 3 28 10 -14 9 -7 15 14 11 5 -1 4 4 -3 12 -7 9 -9 28 -6 44 5 25 4 26 -4
6 -6 -13 -16 -23 -23 -23 -9 0 -9 3 -2 8 18 12 33 67 22 85 -6 11 -5 17 1 17
5 0 12 -6 14 -12 3 -7 6 -3 6 9 1 13 -7 28 -18 35 -14 9 -18 20 -14 48 4 29 0
42 -22 68 -25 30 -31 32 -89 32 -53 0 -67 -4 -89 -24z"/>
<path d="M2800 1252 c0 -11 3 -12 14 -3 11 9 15 9 19 -1 4 -9 6 -7 6 4 1 11
-6 16 -19 15 -11 -1 -20 -8 -20 -15z"/>
<path d="M1340 1256 c0 -9 30 -14 35 -6 4 6 -3 10 -14 10 -12 0 -21 -2 -21 -4z"/>
<path d="M1509 1249 c-10 -6 -4 -9 19 -9 17 0 32 2 32 4 0 9 -39 13 -51 5z"/>
<path d="M410 1240 c0 -5 -23 -10 -51 -10 -45 0 -50 -2 -39 -15 7 -8 19 -15
27 -15 28 0 9 -35 -22 -39 -30 -4 -30 -4 -5 -11 20 -5 12 -9 -39 -18 -36 -6
-67 -10 -69 -7 -3 2 15 7 39 11 24 4 38 9 31 12 -19 6 -115 -19 -130 -35 -18
-18 -9 -27 15 -15 10 5 51 13 91 17 64 6 71 5 66 -9 -3 -9 -1 -16 5 -16 6 0
11 9 11 19 0 21 41 71 57 71 6 0 16 7 23 15 7 9 8 15 2 15 -5 0 -8 9 -5 20 3
11 3 20 -1 20 -3 0 -6 -4 -6 -10z"/>
<path d="M1413 1243 c15 -2 39 -2 55 0 15 2 2 4 -28 4 -30 0 -43 -2 -27 -4z"/>
<path d="M1650 1235 c-24 -28 -5 -44 54 -44 31 0 56 4 56 9 0 12 -65 24 -87
16 -15 -5 -14 -3 2 9 12 10 29 14 43 10 15 -4 21 -2 17 5 -9 15 -71 12 -85 -5z"/>
<path d="M1526 1217 c3 -10 9 -15 12 -12 3 3 0 11 -7 18 -10 9 -11 8 -5 -6z"/>
<path d="M2493 1223 c9 -2 23 -2 30 0 6 3 -1 5 -18 5 -16 0 -22 -2 -12 -5z"/>
<path d="M2635 1220 c-4 -6 3 -10 14 -10 25 0 27 6 6 13 -8 4 -17 2 -20 -3z"/>
<path d="M2737 1212 c-10 -11 -22 -34 -27 -53 -9 -28 -7 -36 6 -44 9 -5 36
-24 59 -42 31 -22 46 -28 54 -20 7 7 7 14 0 24 -8 9 -8 13 -1 13 6 0 12 -4 14
-10 2 -6 9 -6 17 0 12 7 9 11 -12 21 -21 10 -30 10 -39 1 -18 -18 -32 -14 -17
4 12 15 11 16 -11 9 -14 -4 -22 -4 -18 0 10 10 -15 33 -29 28 -7 -3 -13 0 -13
6 0 6 5 11 11 11 5 0 8 4 4 9 -8 13 23 41 45 41 10 0 22 -5 26 -11 5 -8 -1
-10 -20 -7 -22 5 -26 2 -26 -19 0 -14 4 -21 10 -18 6 4 8 11 5 16 -4 5 5 9 19
9 14 0 28 5 31 10 12 19 35 10 35 -12 0 -19 -2 -20 -11 -8 -9 12 -10 11 -6 -7
3 -13 1 -26 -5 -29 -11 -7 9 -24 29 -24 9 0 11 12 8 43 -8 64 -8 64 -19 64 -6
0 -31 4 -56 7 -38 6 -48 4 -63 -12z"/>
<path d="M2698 1213 c7 -3 16 -2 19 1 4 3 -2 6 -13 5 -11 0 -14 -3 -6 -6z"/>
<path d="M2890 1216 c0 -2 14 -6 30 -8 17 -3 30 -1 30 4 0 4 -13 8 -30 8 -16
0 -30 -2 -30 -4z"/>
<path d="M2970 1210 c0 -6 7 -10 15 -10 8 0 15 2 15 4 0 2 -7 6 -15 10 -8 3
-15 1 -15 -4z"/>
<path d="M303 1187 c0 -7 9 -14 20 -14 11 -1 18 -1 16 0 -2 2 -11 8 -20 15
-12 9 -16 9 -16 -1z"/>
<path d="M1249 1180 c-21 -17 -21 -19 -4 -13 11 4 31 13 45 20 23 12 24 13 4
13 -12 0 -32 -9 -45 -20z"/>
<path d="M1926 1187 c3 -10 9 -15 12 -12 3 3 0 11 -7 18 -10 9 -11 8 -5 -6z"/>
<path d="M246 1175 c-3 -8 -1 -15 4 -15 6 0 10 7 10 15 0 8 -2 15 -4 15 -2 0
-6 -7 -10 -15z"/>
<path d="M2201 1181 c-23 -6 -23 -7 -7 -24 19 -18 56 -23 56 -7 0 6 -9 10 -21
10 -12 0 -17 4 -14 11 4 6 14 8 22 5 8 -3 11 -1 8 4 -7 11 -9 11 -44 1z"/>
<path d="M1290 1165 c-16 -19 -1 -19 24 0 16 12 17 15 4 15 -8 0 -21 -7 -28
-15z"/>
<path d="M1566 1161 c-12 -13 -14 -21 -6 -26 6 -4 9 -14 5 -24 -4 -10 -3 -12
3 -6 10 10 27 75 19 75 -2 0 -12 -9 -21 -19z"/>
<path d="M1622 1155 c-6 -14 -7 -25 -2 -25 9 0 25 39 18 46 -3 2 -10 -7 -16
-21z"/>
<path d="M1688 1173 c7 -3 16 -2 19 1 4 3 -2 6 -13 5 -11 0 -14 -3 -6 -6z"/>
<path d="M2791 1156 c-12 -14 -5 -26 16 -26 15 0 18 26 4 34 -5 3 -14 0 -20
-8z"/>
<path d="M1714 1131 c-10 -16 -22 -27 -28 -24 -6 4 -5 -1 3 -10 15 -19 41 -23
41 -7 0 6 7 10 15 10 8 0 15 5 15 10 0 6 -3 9 -7 9 -27 -4 -35 1 -23 16 7 9
10 18 7 21 -3 3 -13 -8 -23 -25z"/>
<path d="M1650 1124 c0 -12 -6 -15 -25 -12 -20 4 -25 1 -24 -16 0 -13 3 -16 6
-7 4 10 7 10 13 1 11 -18 50 -2 50 20 0 10 -4 22 -10 25 -5 3 -10 -1 -10 -11z"/>
<path d="M95 1120 c-7 -12 2 -12 30 0 19 8 19 9 -2 9 -12 1 -25 -3 -28 -9z"/>
<path d="M2121 1114 c0 -11 3 -14 6 -6 3 7 2 16 -1 19 -3 4 -6 -2 -5 -13z"/>
<path d="M2900 1095 l-23 -25 42 0 c29 0 40 4 35 12 -4 6 -3 9 2 6 5 -3 18 -2
29 3 16 6 11 8 -18 8 -23 1 -36 5 -32 11 12 20 -12 9 -35 -15z"/>
<path d="M2147 1098 c-9 -28 5 -48 33 -48 33 0 52 36 29 51 -21 13 -57 11 -62
-3z m62 -22 c-2 -2 -17 -2 -34 2 -30 6 -30 6 -5 12 23 6 50 -4 39 -14z"/>
<path d="M2235 1099 c-12 -18 3 -22 20 -5 14 14 14 16 1 16 -8 0 -18 -5 -21
-11z"/>
<path d="M2307 1092 c-10 -10 -17 -27 -17 -38 0 -11 -6 -29 -14 -39 -8 -11
-12 -24 -10 -30 2 -5 -1 -17 -6 -25 -9 -13 -12 -13 -25 4 -13 17 -11 21 17 48
17 16 28 32 24 35 -3 4 -12 -2 -20 -12 -7 -10 -44 -26 -82 -37 -61 -16 -63
-18 -22 -14 44 5 47 4 57 -24 5 -17 17 -30 26 -30 26 0 57 43 61 84 2 21 11
49 19 63 20 30 14 40 -8 15z"/>
<path d="M2554 1076 c-35 -32 -36 -35 -16 -33 13 2 27 9 31 16 5 7 12 13 17
13 5 0 8 5 6 11 -2 6 2 6 11 -1 11 -10 17 -9 27 3 7 8 20 15 29 15 11 0 7 -8
-14 -24 -17 -14 -33 -20 -36 -14 -3 5 -14 -7 -23 -26 -19 -40 -15 -56 15 -56
19 0 19 1 3 26 -13 19 -14 28 -5 37 8 8 11 8 11 -2 0 -8 12 -2 31 13 17 14 39
26 49 26 27 0 51 -11 45 -20 -3 -5 0 -12 6 -16 8 -5 9 -3 4 6 -5 9 -4 11 3 6
26 -16 9 -24 -43 -20 -35 3 -55 1 -55 -6 0 -6 -4 -9 -9 -5 -10 6 -26 -13 -19
-21 3 -2 21 3 42 11 24 10 42 12 54 7 9 -5 22 -7 29 -5 6 2 14 0 17 -5 3 -5
-16 -13 -42 -16 -26 -4 -72 -19 -102 -34 -50 -25 -56 -31 -66 -73 -7 -25 -17
-55 -23 -67 -15 -27 -14 -55 1 -46 7 4 8 3 4 -5 -4 -6 -3 -17 2 -24 18 -23 24
-67 8 -67 -40 0 -40 -56 1 -105 18 -22 22 -24 13 -7 -9 18 -8 23 4 28 10 4 13
15 10 37 -3 18 -6 42 -8 55 -2 16 5 29 25 43 18 13 32 35 39 62 6 23 18 67 28
97 9 30 16 60 16 67 -1 6 4 9 11 7 7 -3 16 -1 20 5 13 22 24 10 14 -15 -12
-33 -5 -43 11 -15 6 12 7 21 3 21 -15 1 39 40 55 40 8 0 31 -12 51 -27 35 -26
35 -26 16 -2 -32 41 -98 100 -129 116 -15 8 -52 17 -81 20 -50 5 -55 4 -91
-31z m82 -162 c4 -15 2 -30 -6 -37 -10 -10 -11 -6 -6 17 7 27 5 28 -19 22 -24
-6 -33 3 -18 17 16 16 43 6 49 -19z m-46 -30 c0 -8 4 -13 9 -9 17 10 23 -35
10 -85 -8 -32 -19 -50 -31 -53 -26 -7 -33 33 -17 91 7 26 12 53 11 60 -2 6 2
12 8 12 5 0 10 -7 10 -16z m-38 -249 c-5 -41 -22 -37 -22 6 0 17 5 29 13 29 9
0 12 -11 9 -35z"/>
<path d="M2600 859 c0 -2 -7 -25 -15 -51 -8 -27 -11 -48 -7 -48 10 0 35 91 27
98 -3 3 -5 3 -5 1z"/>
<path d="M56 1082 c-3 -3 -6 -13 -6 -23 0 -9 -6 -19 -14 -22 -15 -6 -29 -47
-16 -47 5 0 6 -22 3 -50 -4 -40 -2 -50 10 -50 11 0 15 11 13 43 -1 23 -5 48
-9 55 -5 6 -4 12 1 12 5 0 14 11 20 25 13 28 66 38 56 10 -4 -8 -16 -15 -29
-15 -22 0 -23 -3 -21 -61 1 -39 -3 -64 -11 -71 -7 -6 -10 -15 -6 -21 3 -6 1
-7 -5 -3 -10 6 -37 -63 -28 -72 8 -7 63 83 59 96 -3 6 2 12 10 12 7 0 30 16
50 35 34 33 37 40 37 93 l0 57 -54 2 c-30 0 -57 -1 -60 -5z m88 -90 c-9 -38
-25 -54 -46 -49 -10 3 -16 1 -12 -4 3 -5 0 -9 -5 -9 -14 0 -14 27 -1 35 5 3 7
12 3 20 -3 9 1 15 10 15 8 0 20 7 27 15 18 21 31 8 24 -23z"/>
<path d="M948 1083 c6 -2 18 -2 25 0 6 3 1 5 -13 5 -14 0 -19 -2 -12 -5z"/>
<path d="M310 1065 c-7 -8 -16 -13 -20 -10 -9 5 -130 -103 -130 -116 0 -5 5
-9 11 -9 5 0 7 5 4 10 -9 14 41 31 97 32 47 1 48 2 54 37 3 20 8 44 11 54 5
21 -10 22 -27 2z m-11 -52 c0 -11 -3 -13 -6 -5 -2 6 -10 9 -15 6 -7 -4 -8 -2
-4 4 11 18 26 14 25 -5z"/>
<path d="M366 1064 c-8 -21 -8 -24 4 -24 6 0 10 8 10 18 0 14 2 15 10 2 8 -13
10 -12 10 3 0 21 -26 23 -34 1z"/>
<path d="M1847 1067 c-2 -6 -1 -21 3 -32 6 -17 7 -16 12 8 5 28 -6 47 -15 24z"/>
<path d="M2025 1070 c-3 -5 -1 -10 4 -10 6 0 11 5 11 10 0 6 -2 10 -4 10 -3 0
-8 -4 -11 -10z"/>
<path d="M2095 1069 c-11 -17 1 -21 15 -4 8 9 8 15 2 15 -6 0 -14 -5 -17 -11z"/>
<path d="M2467 1068 c-18 -7 -26 -15 -23 -24 3 -8 1 -14 -3 -14 -5 0 -11 6
-14 13 -4 10 -7 10 -18 0 -11 -11 -10 -13 3 -13 10 0 15 -7 12 -17 -2 -10 -5
-38 -8 -63 -3 -35 -1 -41 8 -29 6 8 19 18 29 22 9 3 17 15 17 26 0 10 11 26
24 34 18 12 22 22 19 42 -7 32 -12 35 -46 23z m13 -43 c-7 -8 -19 -15 -27 -15
-8 0 -12 -4 -8 -9 3 -5 2 -12 -3 -15 -20 -12 -6 30 17 52 26 24 43 14 21 -13z"/>
<path d="M1610 1059 c-11 -8 -7 -9 18 -5 18 3 32 1 32 -4 0 -6 7 -10 15 -10 8
0 15 6 15 13 0 15 -60 20 -80 6z"/>
<path d="M2843 1050 l-22 -17 24 -23 c13 -12 29 -36 36 -53 7 -18 27 -51 46
-74 36 -45 41 -58 19 -50 -16 7 -28 -27 -15 -40 6 -6 5 -30 -2 -61 -9 -39 -17
-52 -30 -52 -17 0 -17 3 -3 35 8 20 14 50 13 68 -1 18 2 45 6 60 7 25 2 34
-49 83 -53 51 -96 69 -110 45 -3 -4 7 -7 22 -5 15 2 19 1 10 -2 -10 -3 -15
-11 -11 -20 3 -8 2 -14 -3 -13 -23 4 -34 -3 -53 -35 -12 -18 -21 -37 -21 -41
0 -9 37 31 42 45 2 4 14 10 28 12 21 2 25 -1 22 -20 -1 -16 2 -22 10 -19 7 2
12 10 11 16 -2 6 8 11 22 11 23 0 30 -10 25 -35 -1 -5 4 -5 11 2 18 18 -3 39
-46 47 -21 4 -35 13 -35 21 0 19 10 19 36 0 12 -8 24 -12 27 -9 8 8 46 -55 43
-69 -2 -7 -8 -25 -14 -40 -18 -42 -24 -107 -11 -107 8 0 8 -4 0 -13 -8 -10 -7
-18 2 -29 13 -16 48 -32 45 -20 0 4 6 23 15 42 17 38 23 27 8 -14 -7 -17 -7
-26 2 -29 6 -2 -6 -15 -28 -30 -21 -15 -42 -23 -45 -19 -7 10 -50 10 -44 0 7
-11 -9 -10 -40 2 -24 9 -25 8 -14 -9 9 -14 20 -18 46 -15 19 3 41 -1 50 -8 13
-11 14 -11 7 1 -5 9 -4 12 2 8 6 -4 29 11 51 32 33 32 42 49 47 88 3 26 8 62
10 78 3 20 -3 44 -16 65 -20 32 -20 35 -4 46 9 7 14 18 10 24 -4 6 -9 36 -11
66 -5 50 -3 56 15 61 23 6 29 33 7 33 -32 0 -49 -51 -31 -95 7 -19 7 -19 -7
-1 -8 10 -20 16 -26 12 -14 -8 -9 18 7 38 11 13 10 17 -5 22 -11 3 -28 9 -39
14 -14 5 -28 2 -42 -10z m73 -12 c5 4 -2 -5 -15 -21 -21 -23 -26 -25 -34 -12
-12 21 11 49 28 35 6 -5 16 -6 21 -2z m14 -89 c6 -11 9 -28 7 -37 -3 -13 -7
-9 -16 13 -7 16 -18 33 -24 37 -8 5 -6 8 5 8 10 0 22 -9 28 -21z m34 -183 c-3
-15 -8 -25 -11 -23 -2 3 -1 17 3 31 3 15 8 25 11 23 2 -3 1 -17 -3 -31z"/>
<path d="M223 1053 c9 -2 23 -2 30 0 6 3 -1 5 -18 5 -16 0 -22 -2 -12 -5z"/>
<path d="M1528 1033 c6 -2 18 -2 25 0 6 3 1 5 -13 5 -14 0 -19 -2 -12 -5z"/>
<path d="M1574 1032 c3 -5 2 -12 -4 -14 -5 -1 -6 -8 -2 -14 4 -7 15 -8 27 -3
18 7 18 8 2 8 -10 1 -16 5 -12 10 3 5 0 13 -6 17 -7 4 -9 3 -5 -4z"/>
<path d="M1697 1019 c-4 -13 1 -17 19 -15 34 4 36 10 9 22 -20 10 -24 8 -28
-7z"/>
<path d="M2160 1030 c0 -5 7 -10 15 -10 8 0 15 5 15 10 0 6 -7 10 -15 10 -8 0
-15 -4 -15 -10z"/>
<path d="M355 1010 c-4 -11 -6 -39 -5 -63 3 -61 0 -76 -9 -53 -4 12 -7 0 -7
-32 0 -42 2 -48 12 -34 7 9 10 20 7 24 -2 5 -1 18 3 30 6 21 7 21 20 3 14 -18
14 -18 14 1 0 10 -3 37 -7 59 -5 32 -8 36 -15 20 -5 -13 -6 -4 -2 23 6 44 0
56 -11 22z m25 -84 c0 -3 -4 -8 -10 -11 -5 -3 -10 -1 -10 4 0 6 5 11 10 11 6
0 10 -2 10 -4z"/>
<path d="M382 1008 c2 -13 9 -22 15 -21 7 1 9 -6 5 -19 -4 -16 -2 -19 9 -13
10 6 11 5 3 -4 -14 -15 -6 -68 12 -75 8 -3 21 -3 29 1 14 5 14 8 -2 25 -11 13
-18 36 -18 63 0 24 -3 39 -6 33 -3 -5 -9 0 -12 11 -7 29 -39 28 -35 -1z"/>
<path d="M1270 1010 c13 -11 25 -20 28 -20 3 0 -3 9 -13 20 -10 11 -23 20 -28
20 -6 0 0 -9 13 -20z"/>
<path d="M1638 1022 c-10 -2 -18 -7 -18 -12 0 -13 41 -23 51 -13 13 13 -11 31
-33 25z"/>
<path d="M2125 1020 c-3 -5 -1 -10 4 -10 6 0 11 5 11 10 0 6 -2 10 -4 10 -3 0
-8 -4 -11 -10z"/>
<path d="M2522 1000 c-12 -19 -23 -41 -23 -47 -4 -37 -20 -65 -35 -59 -8 3
-21 -12 -33 -38 -25 -51 -26 -56 -6 -56 10 0 15 10 15 31 0 16 4 28 9 25 5 -3
14 1 21 9 7 8 16 12 22 9 5 -3 0 -14 -11 -23 -11 -10 -25 -37 -31 -62 l-11
-44 -96 0 c-67 1 -98 5 -101 13 -2 7 -8 12 -13 12 -4 0 -6 -6 -4 -13 7 -16
-93 -14 -125 3 -19 10 -24 10 -32 -4 -7 -13 -13 -14 -23 -6 -16 13 -35 5 -35
-14 0 -7 -11 -25 -25 -40 -14 -15 -33 -54 -42 -87 -9 -32 -19 -59 -23 -59 -13
0 -19 -119 -5 -121 6 -1 13 15 16 36 4 21 14 44 23 51 13 9 14 13 4 17 -8 4
-7 6 5 6 18 1 25 31 7 31 -6 0 -4 15 5 36 8 20 15 44 15 54 0 16 18 30 40 30
11 0 22 -48 15 -69 -3 -10 -15 -23 -28 -30 -16 -8 -17 -10 -3 -6 11 3 24 0 29
-7 6 -10 7 -8 4 4 -3 9 1 22 9 29 10 8 14 24 12 40 -4 23 0 28 23 31 22 4 29
0 32 -16 3 -16 5 -15 6 6 1 30 -13 38 -50 28 -21 -6 -25 -4 -24 11 1 11 6 24
12 30 14 14 36 1 29 -17 -4 -11 3 -10 35 2 22 9 43 13 47 9 4 -3 7 -54 7 -112
0 -98 -2 -106 -24 -124 -13 -10 -35 -19 -50 -19 -31 0 -61 -42 -61 -84 0 -23
4 -26 33 -26 23 0 41 8 56 24 29 31 19 54 -11 26 -12 -11 -25 -17 -30 -14 -4
3 -8 0 -8 -5 0 -6 -4 -11 -9 -11 -11 0 -3 54 8 58 5 1 25 11 45 21 l36 19 0
-46 c0 -64 20 -173 36 -197 8 -11 14 -36 14 -57 0 -20 5 -40 10 -43 6 -4 22
-29 36 -58 l26 -51 16 30 c8 16 17 24 19 17 2 -6 -3 -25 -11 -42 -19 -35 -19
-41 -6 -41 5 0 16 16 25 36 11 28 12 39 3 54 -9 14 -15 16 -25 8 -8 -6 -15 -9
-17 -7 -41 54 -56 81 -56 103 0 15 -5 36 -11 47 -10 20 -37 147 -43 207 -3 19
1 35 9 40 8 4 14 10 14 15 1 4 1 10 2 15 0 4 1 50 2 102 l2 95 47 3 48 3 -3
-43 c-2 -24 -6 -48 -9 -53 -8 -15 -3 -47 13 -80 19 -39 77 -53 119 -28 16 9
27 20 24 25 -3 4 0 8 7 8 8 0 10 13 5 48 -16 103 -17 139 -3 165 8 15 17 24
21 20 4 -4 4 0 0 10 -3 10 -1 17 5 17 6 0 11 9 11 19 0 11 12 52 26 91 14 39
24 81 22 93 -3 20 -6 19 -26 -13z m-92 -307 c0 -21 5 -57 10 -81 9 -38 8 -45
-14 -68 -19 -22 -29 -25 -55 -19 -45 10 -55 42 -41 124 6 36 14 69 16 73 3 4
23 8 45 8 38 0 39 -1 39 -37z"/>
<path d="M2406 675 c-4 -20 -10 -43 -13 -51 -3 -8 -1 -14 5 -14 5 0 13 21 17
46 8 55 0 70 -9 19z"/>
<path d="M2392 580 c0 -14 2 -19 5 -12 2 6 2 18 0 25 -3 6 -5 1 -5 -13z"/>
<path d="M1470 1007 c27 -15 36 -14 25 2 -3 6 -16 11 -28 11 -21 0 -21 -1 3
-13z"/>
<path d="M1803 1006 c-13 -6 -23 -14 -23 -18 0 -5 0 -11 0 -15 0 -5 11 -8 24
-8 14 -1 22 3 20 7 -3 4 0 17 6 28 12 22 6 23 -27 6z"/>
<path d="M880 1000 c0 -5 5 -10 11 -10 5 0 7 5 4 10 -3 6 -8 10 -11 10 -2 0
-4 -4 -4 -10z"/>
<path d="M1180 1004 c0 -2 9 -8 20 -14 15 -8 18 -8 14 3 -4 11 -34 21 -34 11z"/>
<path d="M2030 993 c0 -5 11 -8 25 -8 14 0 25 3 25 8 0 4 -11 7 -25 7 -14 0
-25 -3 -25 -7z"/>
<path d="M1607 976 c-4 -9 -13 -16 -21 -16 -10 0 -13 -6 -10 -15 4 -8 1 -22
-6 -30 -7 -9 -14 -28 -15 -43 -3 -48 -5 -51 -25 -49 -13 1 -16 5 -10 11 12 12
13 29 1 22 -5 -3 -15 1 -22 10 -11 14 -11 18 3 28 12 9 14 16 6 30 -5 9 -7 20
-3 24 11 11 40 -15 37 -34 -2 -18 -2 -18 12 0 14 17 13 21 -6 38 -29 25 -47
23 -58 -7 -5 -14 -14 -25 -20 -25 -6 0 -8 -5 -4 -11 4 -8 9 -7 15 2 7 11 9 11
9 1 0 -27 -61 -68 -87 -58 -8 3 -24 0 -36 -6 -12 -7 -34 -13 -48 -14 -24 -1
-28 3 -33 35 -6 42 -49 90 -61 70 -6 -8 -4 -10 5 -4 9 5 11 4 6 -3 -4 -7 -14
-12 -21 -12 -9 0 -12 -6 -9 -15 5 -12 9 -13 21 -3 11 9 16 9 24 -3 11 -18 11
-29 0 -29 -5 0 -11 -8 -13 -17 -3 -14 -10 -9 -30 20 -16 24 -28 33 -30 25 -4
-11 -9 -11 -29 0 -36 19 -105 20 -94 2 3 -6 0 -13 -8 -16 -7 -2 -14 -10 -15
-17 -1 -18 -12 -70 -17 -86 -3 -7 0 -20 6 -27 6 -7 7 -19 3 -25 -4 -7 -3 -9 4
-5 6 3 13 2 17 -4 8 -13 65 -13 65 0 0 6 -10 10 -23 10 -13 0 -31 6 -41 13
-16 12 -18 22 -12 62 9 54 49 106 69 86 6 -6 18 -11 27 -11 10 0 21 -10 27
-22 8 -18 6 -26 -11 -40 -19 -15 -19 -19 -7 -39 11 -19 11 -23 -3 -31 -22 -12
-20 -23 5 -25 13 -1 23 5 26 18 3 10 11 19 19 19 16 0 9 -26 -14 -52 -8 -10
-11 -18 -6 -18 5 0 3 -4 -4 -9 -11 -7 -10 -9 3 -14 9 -4 14 -3 11 1 -3 5 7 9
23 9 16 0 28 -6 28 -14 0 -7 -5 -13 -11 -13 -7 0 -19 -9 -29 -20 -9 -11 -26
-20 -37 -20 -11 0 -20 -4 -20 -10 0 -11 46 4 67 22 10 8 13 6 13 -5 0 -9 -4
-18 -10 -22 -5 -3 -7 -11 -4 -18 2 -7 -8 -18 -23 -25 l-28 -12 27 4 c15 2 25
-2 23 -8 -2 -6 -6 -44 -9 -84 -3 -39 -10 -81 -16 -91 -5 -11 -10 -30 -10 -43
1 -15 6 -8 16 22 9 25 20 49 25 55 5 5 9 25 9 45 0 68 38 254 65 323 6 15 0
17 -53 17 -74 0 -95 23 -38 43 5 2 4 13 -3 25 -7 13 -8 22 -2 22 13 0 32 -35
24 -44 -3 -3 19 -6 50 -6 36 0 57 -4 57 -11 0 -8 4 -8 13 -1 6 6 37 15 67 20
30 6 56 15 58 21 2 6 15 11 28 11 19 0 24 -5 24 -25 0 -21 5 -25 30 -25 39 0
96 29 138 70 43 43 43 68 0 66 -24 -1 -35 5 -44 22 -9 19 -13 20 -17 8z m42
-52 c4 3 8 -1 8 -9 0 -8 -3 -12 -7 -10 -4 3 -18 -9 -30 -25 -21 -27 -50 -44
-35 -21 3 5 1 12 -5 16 -7 4 -7 13 0 26 6 11 15 17 19 14 5 -2 12 5 15 18 6
20 7 21 17 4 6 -9 14 -15 18 -13z m-431 -207 c-6 -20 -15 -37 -20 -37 -11 0
-10 2 8 45 19 47 27 41 12 -8z"/>
<path d="M327 963 c-4 -3 -7 -11 -7 -17 0 -6 5 -5 12 2 6 6 9 14 7 17 -3 3 -9
2 -12 -2z"/>
<path d="M463 963 c-18 -7 -16 -21 8 -55 12 -17 25 -44 30 -62 6 -28 7 -26 6
14 0 25 1 50 4 57 2 6 0 10 -4 10 -5 -1 -14 7 -20 19 -7 12 -18 19 -24 17z"/>
<path d="M505 960 c3 -5 8 -10 11 -10 2 0 4 5 4 10 0 6 -5 10 -11 10 -5 0 -7
-4 -4 -10z"/>
<path d="M1031 940 c-13 -11 -18 -20 -13 -20 6 0 14 5 17 11 4 6 17 14 29 19
12 5 15 9 6 9 -8 0 -26 -9 -39 -19z"/>
<path d="M2172 935 c-9 -19 -9 -25 1 -25 7 0 14 11 15 25 1 14 0 25 -2 25 -1
0 -8 -11 -14 -25z"/>
<path d="M195 940 c4 -6 11 -8 16 -5 14 9 11 15 -7 15 -8 0 -12 -5 -9 -10z"/>
<path d="M552 914 c-8 -9 -10 -20 -4 -29 6 -13 12 -10 29 13 18 24 18 28 4 29
-9 1 -22 -5 -29 -13z"/>
<path d="M2445 920 c-3 -5 -2 -10 4 -10 5 0 13 5 16 10 3 6 2 10 -4 10 -5 0
-13 -4 -16 -10z"/>
<path d="M1957 888 c-13 -18 -32 -45 -42 -60 -17 -27 -17 -28 4 -28 11 0 21 5
21 10 0 6 4 9 9 8 4 -2 26 17 48 41 32 36 43 43 54 34 8 -7 35 -30 60 -52 25
-23 48 -41 51 -41 3 0 5 17 4 38 l-1 37 63 5 c34 3 62 1 62 -3 0 -4 -7 -23
-14 -42 l-15 -35 35 0 c27 0 34 4 34 20 0 15 7 20 29 20 24 0 29 5 33 30 3 17
0 30 -6 31 -15 1 -81 0 -216 -5 -72 -3 -98 -2 -70 3 l45 8 -53 1 c-64 2 -83
-7 -112 -53 -12 -20 -25 -34 -27 -31 -3 3 4 17 14 33 31 44 34 51 24 57 -5 4
-21 -8 -34 -26z m423 -8 c0 -5 -9 -14 -20 -20 -15 -8 -20 -8 -20 3 0 8 3 17 7
20 10 10 33 8 33 -3z m-252 -11 c-2 -6 -8 -10 -13 -10 -5 0 -11 4 -13 10 -2 6
4 11 13 11 9 0 15 -5 13 -11z"/>
<path d="M2223 913 c15 -2 37 -2 50 0 12 2 0 4 -28 4 -27 0 -38 -2 -22 -4z"/>
<path d="M1783 895 c0 -8 4 -12 9 -9 5 3 6 10 3 15 -9 13 -12 11 -12 -6z"/>
<path d="M1220 880 c0 -5 5 -10 10 -10 6 0 10 5 10 10 0 6 -4 10 -10 10 -5 0
-10 -4 -10 -10z"/>
<path d="M2834 878 c4 -13 0 -18 -14 -18 -11 0 -20 -4 -20 -10 0 -5 19 -10 43
-10 33 1 38 3 25 11 -10 5 -22 17 -28 27 -11 16 -11 16 -6 0z"/>
<path d="M1072 867 c-16 -19 -27 -97 -14 -97 10 0 38 97 30 106 -3 2 -10 -1
-16 -9z"/>
<path d="M1901 847 c-30 -48 -26 -58 4 -12 15 20 24 39 22 42 -3 2 -14 -11
-26 -30z"/>
<path d="M2007 855 c-11 -15 -13 -26 -7 -30 6 -4 9 -1 8 6 -2 7 7 18 19 24 13
7 20 15 16 18 -10 11 -17 8 -36 -18z"/>
<path d="M2967 874 c-3 -5 3 -21 14 -34 13 -18 19 -20 19 -9 0 21 -25 54 -33
43z"/>
<path d="M2770 855 c0 -8 -4 -15 -9 -15 -10 0 -25 -89 -17 -98 4 -3 12 3 20
13 8 12 20 16 34 12 12 -3 25 -1 28 4 3 5 -11 9 -30 9 -25 0 -36 5 -36 15 0 8
6 12 13 9 9 -3 13 6 14 31 1 19 -3 35 -8 35 -5 0 -9 -7 -9 -15z"/>
<path d="M430 835 c0 -31 20 -75 34 -75 6 0 11 13 12 29 1 20 -4 28 -15 27
-11 -1 -15 6 -13 22 2 12 -2 22 -7 22 -6 0 -11 -11 -11 -25z"/>
<path d="M2064 853 c5 -9 1 -13 -12 -13 -11 0 -23 -7 -26 -16 -9 -23 -7 -34 4
-34 6 0 10 6 10 13 0 7 12 17 27 23 25 9 25 10 8 24 -11 9 -16 10 -11 3z"/>
<path d="M2170 850 c0 -6 7 -13 15 -16 8 -4 13 -10 10 -14 -3 -4 9 -13 25 -19
18 -6 30 -6 30 0 0 5 -9 9 -20 9 -31 0 -24 17 10 24 48 9 35 26 -20 26 -28 0
-50 -5 -50 -10z"/>
<path d="M400 830 c-6 -11 -8 -25 -5 -30 11 -18 21 -10 23 20 3 35 -3 38 -18
10z"/>
<path d="M1468 834 c-4 -3 -4 -12 -1 -20 4 -11 -5 -13 -38 -11 -32 1 -50 -3
-66 -17 -24 -20 -31 -46 -13 -46 14 0 13 -27 -2 -53 -12 -22 -14 -32 -17 -82
-1 -35 -16 -31 -29 8 l-10 32 -1 -30 c-1 -17 5 -37 12 -44 10 -11 10 -13 0 -7
-19 11 -16 -14 7 -59 19 -38 22 -76 7 -91 -4 -4 -7 -17 -7 -29 0 -26 -18 -45
-44 -45 -10 0 -17 -3 -13 -6 3 -3 19 -3 36 1 41 9 61 48 61 118 0 46 5 62 35
103 19 27 46 72 59 99 14 28 34 61 44 74 17 22 22 23 52 13 32 -12 50 -9 50 8
0 5 -17 11 -37 13 -21 2 23 4 97 4 116 1 289 -12 221 -16 -17 -1 -21 -5 -17
-17 3 -8 1 -25 -6 -37 -6 -12 -12 -53 -12 -91 -1 -52 -5 -70 -16 -73 -9 -3
-11 -1 -5 4 6 4 11 31 12 58 1 42 -1 47 -10 30 -7 -11 -28 -37 -48 -57 -29
-30 -44 -38 -71 -38 -58 0 -73 27 -73 128 0 58 4 87 12 89 9 3 13 -20 15 -83
2 -62 7 -89 16 -92 11 -3 12 0 3 16 -6 11 -11 46 -11 76 l0 56 63 2 c34 0 72
0 83 -1 12 -1 24 5 28 14 3 10 -1 15 -12 16 -9 1 -63 3 -118 5 -100 4 -102 3
-102 -19 0 -36 -31 -269 -37 -275 -3 -3 -2 21 1 54 4 38 1 70 -7 89 -7 17 -11
34 -10 38 1 5 -3 6 -9 2 -5 -3 -10 2 -10 12 0 14 -2 15 -9 4 -5 -7 -14 -11
-20 -7 -7 4 -9 1 -5 -8 3 -8 12 -17 20 -20 7 -3 11 -12 8 -21 -3 -8 -10 -12
-15 -9 -5 3 -9 -6 -9 -20 0 -13 -6 -26 -12 -29 -7 -2 -10 -8 -6 -12 4 -4 17 9
29 29 11 20 25 33 30 30 5 -3 9 -31 9 -63 0 -73 -31 -123 -132 -210 -80 -70
-114 -88 -139 -72 -9 5 -26 7 -38 4 -20 -5 -21 -1 -21 53 0 33 -5 66 -10 74
-7 11 -10 4 -10 -27 0 -25 -5 -43 -11 -43 -8 0 -9 -4 0 -13 6 -8 8 -17 4 -20
-9 -10 37 -56 51 -52 6 2 32 6 59 9 47 6 47 6 47 -25 0 -16 7 -44 16 -60 15
-29 22 -84 13 -94 -3 -2 -47 5 -99 15 -100 21 -138 25 -126 13 8 -8 24 -12 86
-20 25 -3 50 -9 55 -13 26 -20 111 -11 127 14 4 6 11 1 18 -14 10 -24 10 -24
4 5 -3 17 -9 55 -13 85 -5 30 -15 70 -22 88 -14 33 -13 35 19 63 17 16 32 33
32 37 0 12 97 112 108 112 5 0 19 -9 32 -20 25 -21 50 -26 50 -10 0 6 -7 10
-15 10 -8 0 -15 4 -15 10 0 5 -3 9 -7 9 -19 -3 -33 2 -33 12 0 6 7 9 15 5 8
-3 15 -1 15 4 0 6 -4 10 -9 10 -5 0 -8 15 -6 33 2 17 4 47 4 65 1 38 16 35 24
-5 7 -34 58 -67 88 -58 12 4 39 23 60 42 39 35 51 35 24 -1 -8 -10 -17 -38
-21 -62 -3 -24 -11 -44 -18 -44 -6 0 -5 -4 3 -9 7 -5 10 -14 7 -20 -13 -20
-26 -12 -26 16 0 20 -3 24 -11 16 -16 -16 -39 -5 -31 15 5 16 5 16 -11 1 -13
-14 -14 -23 -6 -53 9 -32 12 -35 25 -22 17 17 18 27 3 24 -6 -2 -13 2 -16 9
-2 7 4 11 16 10 11 0 18 -5 15 -9 -3 -4 3 -15 13 -25 10 -10 17 -27 15 -37 -3
-16 -10 -18 -46 -13 -54 8 -138 45 -137 61 1 3 -2 6 -6 5 -16 -2 -14 -8 6 -21
26 -16 26 -29 4 -49 -31 -27 -63 -69 -54 -69 5 0 23 16 40 35 33 38 41 42 41
22 0 -7 16 -61 35 -121 31 -98 87 -206 108 -206 9 0 -9 38 -30 62 -13 15 -13
16 9 11 12 -3 29 -10 36 -16 7 -5 54 -9 106 -8 92 1 94 1 100 -24 4 -14 11
-25 17 -25 6 0 8 7 5 16 -3 9 -6 24 -6 33 0 16 -9 17 -79 13 -80 -5 -175 11
-188 31 -4 7 12 8 53 3 56 -7 195 -8 202 -2 1 2 -2 23 -7 47 -9 40 -8 46 12
61 12 10 17 18 11 18 -6 0 -17 -7 -24 -15 -7 -8 -18 -15 -24 -15 -20 0 -56
-44 -56 -68 0 -18 -6 -22 -35 -22 -19 0 -35 4 -35 9 0 5 -13 7 -30 5 -23 -4
-29 -2 -24 9 6 16 74 20 74 5 0 -4 9 -8 21 -8 34 0 16 25 -22 28 -44 5 -60 19
-53 47 3 14 -1 34 -11 48 -21 33 -13 79 32 177 20 41 44 95 56 120 13 29 20
63 19 95 -1 28 5 64 13 80 9 18 13 21 9 8 -2 -12 1 -25 7 -29 8 -4 9 -3 5 4
-4 6 0 25 9 43 9 17 15 32 13 34 -2 2 -104 7 -226 11 -166 5 -222 10 -218 19
5 14 -8 38 -16 29z m8 -74 c13 0 12 -3 -2 -17 -18 -19 -67 -26 -57 -9 4 5 -1
7 -10 3 -10 -4 -17 -1 -17 6 0 8 -4 7 -11 -3 -8 -12 -9 -10 -7 10 3 21 9 26
43 30 27 3 41 1 43 -7 2 -7 10 -13 18 -13z m271 -26 c-3 -3 -12 -4 -19 -1 -8
3 -5 6 6 6 11 1 17 -2 13 -5z m-362 -51 c-17 -33 -42 -50 -42 -27 0 7 4 11 9
8 4 -3 8 2 8 10 0 15 29 50 36 43 2 -2 -3 -18 -11 -34z m45 -17 c0 -12 -13
-37 -30 -54 -16 -18 -30 -35 -30 -40 0 -4 -7 -17 -15 -28 -13 -17 -14 -15 -8
31 3 28 13 54 20 59 8 4 24 19 36 32 26 30 27 30 27 0z m380 -175 c0 -6 -4
-12 -8 -15 -5 -3 -9 1 -9 9 0 8 4 15 9 15 4 0 8 -4 8 -9z m-173 -150 c12 -6
36 -11 53 -11 18 0 33 -6 36 -15 5 -12 -26 -69 -46 -85 -4 -3 -10 -14 -13 -24
-10 -27 -16 -17 -36 61 -10 37 -21 77 -25 88 -5 11 -4 15 1 9 4 -6 18 -16 30
-23z m-251 -80 c-3 -4 3 -25 14 -46 13 -25 19 -56 18 -92 -2 -88 -14 -79 -32
26 -3 13 -9 28 -15 34 -15 15 -14 60 1 75 14 14 22 16 14 3z m354 -2 c0 -15
-33 -69 -42 -69 -4 0 -12 -15 -17 -32 l-9 -33 -1 29 c-1 16 11 48 27 72 26 43
42 55 42 33z m3 -104 c-15 -25 -33 -47 -40 -49 -20 -8 -6 31 29 81 42 62 53
33 11 -32z m187 -22 c0 -43 -5 -41 -13 5 -4 18 -2 32 3 32 6 0 10 -16 10 -37z
m-24 -30 c-11 -11 -19 6 -11 24 8 17 8 17 12 0 3 -10 2 -21 -1 -24z"/>
<path d="M986 821 c-4 -7 -5 -15 -2 -18 9 -9 19 4 14 18 -4 11 -6 11 -12 0z"/>
<path d="M2058 809 c-8 -6 4 -9 31 -9 24 0 41 3 37 7 -10 10 -53 11 -68 2z"/>
<path d="M2355 810 c-3 -5 1 -10 9 -10 9 0 16 5 16 10 0 6 -4 10 -9 10 -6 0
-13 -4 -16 -10z"/>
<path d="M2806 805 c-3 -8 -1 -15 4 -15 6 0 10 4 10 9 0 5 10 12 23 14 20 4
19 4 -4 6 -16 0 -29 -5 -33 -14z"/>
<path d="M1978 793 c7 -3 16 -2 19 1 4 3 -2 6 -13 5 -11 0 -14 -3 -6 -6z"/>
<path d="M351 774 c0 -11 3 -14 6 -6 3 7 2 16 -1 19 -3 4 -6 -2 -5 -13z"/>
<path d="M976 775 c4 -8 10 -15 15 -15 4 0 6 7 3 15 -4 8 -10 15 -15 15 -4 0
-6 -7 -3 -15z"/>
<path d="M2676 775 c-3 -8 -1 -15 3 -15 5 0 11 7 15 15 3 8 1 15 -3 15 -5 0
-11 -7 -15 -15z"/>
<path d="M2308 763 c23 -2 61 -2 85 0 23 2 4 4 -43 4 -47 0 -66 -2 -42 -4z"/>
<path d="M2805 740 c-17 -7 -14 -9 13 -9 20 -1 31 3 27 9 -7 12 -13 12 -40 0z"/>
<path d="M695 720 c3 -5 8 -10 11 -10 2 0 4 5 4 10 0 6 -5 10 -11 10 -5 0 -7
-4 -4 -10z"/>
<path d="M2745 705 c0 -14 3 -25 8 -25 4 0 7 7 7 15 0 8 5 15 11 15 5 0 7 -4
4 -10 -3 -5 -2 -10 4 -10 5 0 13 5 16 10 8 13 25 13 25 0 0 -6 -10 -15 -22
-20 -21 -8 -22 -9 -3 -11 14 -1 11 -4 -10 -9 -24 -6 -25 -8 -8 -9 28 -1 73 19
73 33 0 6 -5 5 -12 -2 -19 -19 -29 -14 -16 8 15 24 13 26 -37 34 -38 7 -40 6
-40 -19z"/>
<path d="M1576 698 c-3 -13 -5 -41 -5 -63 1 -33 3 -29 9 20 8 63 7 81 -4 43z"/>
<path d="M1633 660 c0 -36 2 -50 4 -32 2 17 2 47 0 65 -2 17 -4 3 -4 -33z"/>
<path d="M2140 709 c0 -5 5 -7 10 -4 6 3 10 8 10 11 0 2 -4 4 -10 4 -5 0 -10
-5 -10 -11z"/>
<path d="M2590 709 c0 -5 5 -7 10 -4 6 3 10 8 10 11 0 2 -4 4 -10 4 -5 0 -10
-5 -10 -11z"/>
<path d="M2660 711 c0 -5 4 -12 9 -16 5 -3 8 -19 6 -35 -3 -24 -2 -28 9 -18
10 9 11 20 4 40 -10 29 -28 47 -28 29z"/>
<path d="M1805 653 c-18 -35 -43 -65 -68 -81 -38 -25 -40 -26 -68 -10 -16 10
-29 13 -29 7 0 -10 42 -29 65 -29 25 0 85 61 111 113 14 27 24 51 22 52 -2 2
-17 -21 -33 -52z"/>
<path d="M1795 679 c-4 -6 -13 -8 -19 -6 -9 4 -11 -3 -8 -19 6 -31 8 -30 27 6
14 28 14 43 0 19z"/>
<path d="M650 670 c0 -5 5 -10 11 -10 5 0 7 5 4 10 -3 6 -8 10 -11 10 -2 0 -4
-4 -4 -10z"/>
<path d="M735 670 c-3 -6 1 -7 9 -4 18 7 21 14 7 14 -6 0 -13 -4 -16 -10z"/>
<path d="M1098 673 c7 -3 16 -2 19 1 4 3 -2 6 -13 5 -11 0 -14 -3 -6 -6z"/>
<path d="M1690 676 c0 -2 7 -6 15 -10 8 -3 15 -1 15 4 0 6 -7 10 -15 10 -8 0
-15 -2 -15 -4z"/>
<path d="M1884 646 c-3 -21 -4 -39 -1 -42 2 -3 8 11 11 32 4 20 5 38 2 41 -2
3 -8 -11 -12 -31z"/>
<path d="M2150 633 c-7 -27 -13 -51 -12 -54 1 -4 -7 -9 -18 -12 -16 -4 -18 -2
-10 13 17 33 11 36 -10 5 -11 -16 -27 -33 -37 -37 -16 -6 -16 -7 -1 -7 11 -1
15 -7 11 -22 -3 -11 -9 -16 -12 -11 -9 15 -51 25 -51 13 0 -6 6 -11 14 -11 7
0 17 -10 20 -22 l6 -23 18 20 c9 12 25 24 35 28 9 3 17 14 17 23 0 10 3 14 7
11 12 -12 32 29 39 81 8 65 0 67 -16 5z"/>
<path d="M2645 670 c3 -5 8 -10 11 -10 2 0 4 5 4 10 0 6 -5 10 -11 10 -5 0 -7
-4 -4 -10z"/>
<path d="M1745 639 c4 -25 3 -30 -4 -19 -8 11 -11 12 -11 2 0 -7 -7 -20 -15
-29 -23 -23 -11 -27 19 -8 27 18 36 67 15 81 -8 4 -9 -4 -4 -27z"/>
<path d="M2001 654 c0 -11 3 -14 6 -6 3 7 2 16 -1 19 -3 4 -6 -2 -5 -13z"/>
<path d="M2651 632 c-1 -18 31 -72 42 -72 5 0 6 -7 3 -16 -3 -8 -2 -12 3 -9 5
3 12 1 15 -4 6 -9 -47 -41 -68 -41 -6 0 -24 12 -39 26 -16 14 -30 24 -33 21
-9 -9 57 -56 94 -67 51 -14 62 -13 101 11 41 25 50 19 25 -18 -10 -15 -18 -31
-17 -35 6 -18 -27 -29 -59 -19 -29 8 -30 9 -8 11 23 1 23 2 5 9 -11 5 -25 4
-31 -1 -8 -5 -17 -3 -27 6 -8 8 -17 12 -21 9 -8 -8 -41 22 -87 80 -22 27 -39
43 -39 37 0 -14 58 -91 77 -103 6 -4 18 -13 25 -20 7 -8 18 -15 23 -17 28 -8
75 -35 75 -41 0 -11 61 11 87 31 12 10 20 20 17 23 -15 15 38 16 61 1 23 -15
25 -21 20 -63 -11 -101 -13 -141 -5 -141 5 0 11 43 15 95 7 84 5 98 -10 115
-10 11 -29 20 -42 20 -12 0 -23 5 -23 12 0 6 -7 3 -16 -8 -15 -18 -15 -18 -5
2 8 16 17 20 37 16 24 -4 26 -3 13 10 -7 9 -20 13 -26 11 -7 -3 -13 2 -13 11
0 13 5 14 26 5 15 -5 29 -7 32 -4 3 3 0 5 -6 5 -7 0 -12 6 -12 14 0 7 -6 19
-14 25 -11 9 -15 7 -19 -9 -3 -11 -13 -20 -24 -20 -15 0 -16 -2 -3 -10 28 -18
-9 -11 -48 9 -43 22 -77 56 -91 91 -5 14 -10 19 -10 12z m199 -92 c0 -5 -5
-10 -11 -10 -5 0 -7 5 -4 10 3 6 8 10 11 10 2 0 4 -4 4 -10z m-82 -40 c27 -1
-29 -29 -57 -30 -24 0 -24 0 -6 20 10 12 25 18 33 15 7 -3 21 -5 30 -5z"/>
<path d="M2701 603 c8 -10 20 -22 27 -26 7 -5 10 -12 7 -16 -7 -12 30 -20 45
-11 9 6 6 10 -9 15 -12 3 -33 17 -46 31 -28 28 -44 32 -24 7z"/>
<path d="M860 600 c0 -5 5 -10 11 -10 5 0 7 5 4 10 -3 6 -8 10 -11 10 -2 0 -4
-4 -4 -10z"/>
<path d="M28 583 c12 -2 32 -2 45 0 12 2 2 4 -23 4 -25 0 -35 -2 -22 -4z"/>
<path d="M140 579 c0 -5 11 -9 25 -9 14 0 25 2 25 4 0 2 -11 6 -25 8 -14 3
-25 1 -25 -3z"/>
<path d="M2896 571 c-4 -7 -5 -15 -2 -18 9 -9 19 4 14 18 -4 11 -6 11 -12 0z"/>
<path d="M1991 520 c-14 -65 -14 -94 2 -152 11 -45 12 -41 13 77 0 69 -1 125
-2 125 -1 0 -7 -23 -13 -50z"/>
<path d="M632 555 c8 -9 157 -12 152 -3 -3 4 -39 8 -81 8 -42 0 -74 -2 -71 -5z"/>
<path d="M848 543 c12 -2 30 -2 40 0 9 3 -1 5 -23 4 -22 0 -30 -2 -17 -4z"/>
<path d="M1460 520 c8 -5 20 -10 25 -10 6 0 3 5 -5 10 -8 5 -19 10 -25 10 -5
0 -3 -5 5 -10z"/>
<path d="M2905 520 c3 -5 8 -10 11 -10 2 0 4 5 4 10 0 6 -5 10 -11 10 -5 0 -7
-4 -4 -10z"/>
<path d="M1640 501 c5 -11 15 -23 21 -27 6 -3 3 5 -6 20 -20 30 -30 35 -15 7z"/>
<path d="M850 499 c0 -5 5 -7 10 -4 6 3 10 8 10 11 0 2 -4 4 -10 4 -5 0 -10
-5 -10 -11z"/>
<path d="M1743 497 c-4 -8 -15 -17 -23 -20 -10 -4 -8 -6 6 -6 12 -1 25 6 28
15 8 22 0 30 -11 11z"/>
<path d="M1950 478 c-1 -18 -3 -50 -4 -71 0 -20 -5 -37 -10 -37 -5 0 4 -12 19
-26 22 -21 25 -28 14 -35 -11 -6 -11 -11 -2 -20 7 -7 16 -10 19 -6 9 9 -5 77
-16 77 -5 0 -8 32 -5 75 3 41 1 75 -4 75 -4 0 -9 -15 -11 -32z"/>
<path d="M1436 485 c-3 -9 0 -15 9 -15 9 0 12 6 9 15 -4 8 -7 15 -9 15 -2 0
-5 -7 -9 -15z"/>
<path d="M710 480 c0 -5 5 -10 10 -10 6 0 10 5 10 10 0 6 -4 10 -10 10 -5 0
-10 -4 -10 -10z"/>
<path d="M2248 483 c18 -2 45 -2 60 0 15 2 0 4 -33 4 -33 0 -45 -2 -27 -4z"/>
<path d="M2480 476 c0 -2 9 -6 20 -9 11 -3 18 -1 14 4 -5 9 -34 13 -34 5z"/>
<path d="M599 446 c27 -29 33 -32 25 -13 -2 7 -14 19 -27 26 -21 13 -21 12 2
-13z"/>
<path d="M1630 460 c-13 -8 -11 -12 7 -25 12 -8 24 -28 26 -43 4 -25 4 -25 6
6 0 17 -4 32 -10 32 -5 0 -8 4 -5 8 9 15 -9 31 -24 22z"/>
<path d="M2907 459 c7 -7 15 -10 18 -7 3 3 -2 9 -12 12 -14 6 -15 5 -6 -5z"/>
<path d="M2348 453 c12 -2 32 -2 45 0 12 2 2 4 -23 4 -25 0 -35 -2 -22 -4z"/>
<path d="M2530 450 c0 -5 5 -10 11 -10 5 0 7 5 4 10 -3 6 -8 10 -11 10 -2 0
-4 -4 -4 -10z"/>
<path d="M2978 443 c7 -3 16 -2 19 1 4 3 -2 6 -13 5 -11 0 -14 -3 -6 -6z"/>
<path d="M2238 433 c6 -2 18 -2 25 0 6 3 1 5 -13 5 -14 0 -19 -2 -12 -5z"/>
<path d="M2466 432 c-3 -6 -2 -13 3 -17 6 -3 8 -12 4 -20 -3 -8 -1 -15 3 -16
5 0 17 -2 27 -4 11 -2 16 -1 13 2 -3 4 -1 11 4 18 6 8 5 18 -5 31 -12 14 -15
15 -14 4 3 -28 -1 -40 -12 -40 -5 0 -7 4 -4 10 3 5 2 17 -3 26 -6 11 -12 13
-16 6z"/>
<path d="M645 395 c5 -30 4 -36 -4 -25 -7 9 -11 10 -11 3 0 -6 5 -15 10 -18
15 -9 12 -27 -2 -19 -10 5 -10 4 -1 -6 9 -9 8 -22 -3 -53 -8 -22 -12 -42 -10
-45 3 -2 10 14 17 37 l12 41 56 2 56 2 -52 3 -53 4 0 42 c0 23 -5 49 -11 57
-7 11 -8 4 -4 -25z"/>
<path d="M2560 391 c0 -5 5 -13 10 -16 6 -3 10 -2 10 4 0 5 -4 13 -10 16 -5 3
-10 2 -10 -4z"/>
<path d="M310 380 c-9 -6 -10 -10 -3 -10 6 0 15 5 18 10 8 12 4 12 -15 0z"/>
<path d="M1372 370 c-7 -12 -10 -26 -6 -32 4 -6 3 -8 -3 -5 -6 4 -14 0 -17 -9
-4 -11 -13 -14 -31 -10 -14 4 -25 2 -25 -4 0 -11 2 -12 43 -14 19 -1 26 2 22
12 -3 7 0 10 6 6 6 -3 24 6 40 22 28 26 40 52 19 39 -5 -3 -10 -1 -10 4 0 18
-25 12 -38 -9z"/>
<path d="M1895 381 c3 -6 -2 -14 -11 -19 -9 -5 -14 -14 -10 -21 10 -15 23 -14
23 2 0 6 4 20 8 30 4 10 3 17 -5 17 -6 0 -9 -4 -5 -9z"/>
<path d="M2024 360 c3 -14 5 -28 5 -32 1 -4 10 -10 21 -13 11 -3 20 -14 20
-23 0 -13 2 -14 9 -4 6 10 10 10 21 -3 7 -8 9 -15 6 -15 -4 0 -2 -9 4 -20 6
-11 21 -20 35 -20 24 0 55 -23 55 -42 0 -6 3 -8 6 -5 13 12 -18 67 -38 67 -10
0 -21 8 -25 18 -3 9 -15 25 -27 34 -21 18 -21 18 0 18 11 0 25 5 32 12 21 21
13 27 -15 12 -33 -16 -72 -18 -93 -3 -11 8 -7 9 17 4 28 -6 93 16 93 31 0 2
-14 -3 -31 -12 -33 -16 -77 -12 -91 9 -5 7 -6 1 -4 -13z"/>
<path d="M190 352 c0 -6 -8 -13 -17 -15 -16 -4 -16 -5 -1 -6 18 -1 34 16 24
26 -3 4 -6 1 -6 -5z"/>
<path d="M328 353 c7 -3 16 -2 19 1 4 3 -2 6 -13 5 -11 0 -14 -3 -6 -6z"/>
<path d="M1810 350 c0 -5 5 -10 11 -10 5 0 7 5 4 10 -3 6 -8 10 -11 10 -2 0
-4 -4 -4 -10z"/>
<path d="M18 343 c6 -2 18 -2 25 0 6 3 1 5 -13 5 -14 0 -19 -2 -12 -5z"/>
<path d="M2288 333 c7 -3 16 -2 19 1 4 3 -2 6 -13 5 -11 0 -14 -3 -6 -6z"/>
<path d="M2590 329 c0 -5 5 -7 10 -4 6 3 10 8 10 11 0 2 -4 4 -10 4 -5 0 -10
-5 -10 -11z"/>
<path d="M2732 328 c-7 -7 -12 -18 -12 -25 0 -15 26 -17 35 -3 4 6 3 10 -2 9
-20 -3 -25 2 -13 16 15 18 9 20 -8 3z"/>
<path d="M1795 320 c-3 -5 -1 -10 4 -10 6 0 11 5 11 10 0 6 -2 10 -4 10 -3 0
-8 -4 -11 -10z"/>
<path d="M1857 316 c-4 -10 -1 -13 8 -9 8 3 12 9 9 14 -7 12 -11 11 -17 -5z"/>
<path d="M242 300 c7 -10 14 -18 15 -16 6 6 -9 36 -18 36 -5 0 -4 -9 3 -20z"/>
<path d="M1070 294 c-6 -14 -10 -33 -9 -42 1 -9 6 0 11 21 6 20 15 37 20 37 6
0 8 -10 4 -22 -3 -13 -6 -28 -6 -35 0 -6 -7 -19 -16 -27 -8 -9 -11 -16 -4 -16
6 0 15 12 21 28 6 15 15 34 19 43 5 10 4 21 -3 28 -17 17 -27 13 -37 -15z"/>
<path d="M183 282 c-30 -41 -65 -112 -54 -112 5 0 17 17 26 38 10 20 27 49 38
64 11 15 18 30 16 33 -3 3 -15 -8 -26 -23z"/>
<path d="M2020 275 c0 -24 5 -35 15 -35 8 0 15 -4 15 -9 0 -5 10 -12 23 -16
14 -4 17 -8 9 -12 -10 -4 -8 -10 7 -26 39 -42 71 -78 71 -82 0 -2 -13 -6 -29
-10 -16 -3 -32 -13 -35 -21 -3 -9 -10 -13 -15 -9 -5 3 -12 1 -16 -5 -9 -15 17
-12 39 5 24 18 63 19 69 3 3 -7 6 -3 6 10 1 13 -10 33 -22 45 -27 25 -47 59
-47 79 0 9 3 9 10 -2 5 -8 13 -15 17 -15 4 -1 20 -4 35 -8 20 -5 26 -12 21
-25 -3 -9 -3 -14 2 -10 4 4 15 2 24 -5 9 -6 4 4 -10 23 -15 19 -36 36 -47 38
-26 4 -109 76 -117 102 -10 32 -25 23 -25 -15z"/>
<path d="M65 290 l-60 -7 55 -1 c30 0 64 3 75 8 22 10 17 10 -70 0z"/>
<path d="M1453 284 c-3 -9 9 -61 27 -116 17 -55 30 -110 27 -123 -2 -14 0 -22
4 -19 5 3 9 0 9 -6 0 -6 5 -8 10 -5 6 4 8 11 5 16 -3 5 1 6 10 3 9 -4 14 -13
11 -20 -3 -9 2 -14 14 -14 16 0 18 4 11 22 -5 13 -13 22 -18 21 -4 0 -8 30 -9
68 -1 39 -6 75 -11 80 -8 8 -9 -3 -6 -33 4 -37 2 -45 -11 -45 -9 0 -16 6 -16
12 0 6 -12 40 -26 75 -14 35 -23 72 -21 82 6 22 -1 24 -10 2z m87 -205 c0 -5
-4 -9 -10 -9 -5 0 -10 7 -10 16 0 8 5 12 10 9 6 -3 10 -10 10 -16z"/>
<path d="M1152 260 c0 -19 2 -27 5 -17 2 9 2 25 0 35 -3 9 -5 1 -5 -18z"/>
<path d="M1870 270 c0 -5 5 -10 10 -10 6 0 10 5 10 10 0 6 -4 10 -10 10 -5 0
-10 -4 -10 -10z"/>
<path d="M2850 250 c-6 -11 -8 -20 -6 -20 3 0 10 9 16 20 6 11 8 20 6 20 -3 0
-10 -9 -16 -20z"/>
<path d="M265 250 c-3 -5 1 -10 9 -10 9 0 16 5 16 10 0 6 -4 10 -9 10 -6 0
-13 -4 -16 -10z"/>
<path d="M1511 244 c0 -11 3 -14 6 -6 3 7 2 16 -1 19 -3 4 -6 -2 -5 -13z"/>
<path d="M2687 219 c-8 -19 -21 -42 -29 -53 -14 -17 -16 -17 -46 -2 -18 9 -32
12 -32 6 0 -9 70 -44 76 -38 11 11 55 111 50 115 -2 3 -11 -10 -19 -28z"/>
<path d="M2950 240 c34 -11 60 -11 35 0 -11 5 -29 8 -40 8 -16 0 -15 -2 5 -8z"/>
<path d="M605 205 c-27 -75 -41 -103 -49 -98 -5 4 -6 1 -2 -6 5 -7 3 -25 -4
-41 -6 -16 -10 -37 -8 -47 3 -11 9 -2 17 27 7 25 24 71 38 103 13 33 22 64 20
70 -3 7 -8 3 -12 -8z"/>
<path d="M2757 199 c-6 -23 21 -118 39 -140 8 -8 14 -25 14 -37 0 -26 15 -29
24 -6 4 10 -1 25 -10 35 -10 11 -13 19 -8 19 5 0 1 5 -8 11 -10 5 -18 15 -18
20 0 6 4 7 10 4 6 -3 7 1 4 10 -4 9 -9 13 -12 10 -8 -8 -33 55 -26 66 3 5 17
9 31 9 32 0 27 7 -9 14 -20 3 -27 0 -31 -15z"/>
<path d="M2857 193 c-3 -16 -1 -35 4 -43 7 -11 8 -8 3 9 -4 16 -3 21 5 17 7
-5 11 2 11 18 0 35 -16 33 -23 -1z"/>
<path d="M257 198 c2 -5 13 -8 24 -8 10 0 19 3 19 8 0 4 -11 7 -24 7 -13 0
-22 -3 -19 -7z"/>
<path d="M1140 181 c0 -16 -6 -33 -12 -38 -18 -13 -68 -15 -68 -2 0 6 -7 3
-16 -6 -12 -11 -20 -13 -27 -6 -6 6 -18 11 -26 11 -12 0 -10 -3 4 -13 26 -18
134 -14 146 5 9 14 12 78 4 78 -3 0 -5 -13 -5 -29z"/>
<path d="M2004 182 c0 -11 8 -19 19 -19 18 -2 18 -1 2 18 -22 23 -21 23 -21 1z"/>
<path d="M2978 183 c7 -3 16 -2 19 1 4 3 -2 6 -13 5 -11 0 -14 -3 -6 -6z"/>
<path d="M106 144 c-8 -21 -8 -24 4 -24 6 0 10 6 10 14 0 8 6 17 13 19 7 4 6
6 -4 6 -9 1 -20 -6 -23 -15z"/>
<path d="M224 151 c7 -11 46 -35 46 -28 0 3 -12 12 -26 22 -15 9 -23 12 -20 6z"/>
<path d="M865 135 c4 -11 9 -29 12 -40 11 -53 27 -94 33 -90 4 3 2 22 -6 42
-7 21 -13 45 -14 54 0 8 -7 24 -16 35 -15 19 -16 19 -9 -1z"/>
<path d="M2150 140 c0 -5 5 -10 11 -10 5 0 7 5 4 10 -3 6 -8 10 -11 10 -2 0
-4 -4 -4 -10z"/>
<path d="M2543 139 c-7 -7 -8 -21 -3 -40 5 -16 6 -29 3 -29 -3 0 0 -7 7 -15 6
-8 8 -20 4 -26 -5 -8 -3 -9 6 -4 10 6 12 4 7 -8 -3 -10 -2 -17 3 -17 15 0 12
37 -6 72 -9 17 -14 41 -11 54 5 28 5 28 -10 13z"/>
<path d="M2693 143 c9 -2 25 -2 35 0 9 3 1 5 -18 5 -19 0 -27 -2 -17 -5z"/>
<path d="M2041 125 c-1 -24 14 -50 22 -38 3 4 -1 19 -9 33 -12 22 -13 23 -13
5z"/>
<path d="M1275 120 l-50 -7 47 -1 c26 -1 50 3 53 8 3 6 5 9 3 8 -2 0 -25 -4
-53 -8z"/>
<path d="M148 113 c7 -3 16 -2 19 1 4 3 -2 6 -13 5 -11 0 -14 -3 -6 -6z"/>
<path d="M641 115 c8 -7 139 -9 146 -1 3 3 -29 6 -72 6 -43 0 -76 -2 -74 -5z"/>
<path d="M1198 113 c7 -3 16 -2 19 1 4 3 -2 6 -13 5 -11 0 -14 -3 -6 -6z"/>
<path d="M1578 113 c6 -2 18 -2 25 0 6 3 1 5 -13 5 -14 0 -19 -2 -12 -5z"/>
<path d="M2869 110 c-3 -8 5 -31 18 -50 12 -19 23 -40 23 -47 0 -7 4 -13 10
-13 12 0 -5 48 -25 70 -7 8 -15 24 -17 35 -3 15 -5 16 -9 5z"/>
<path d="M95 100 c-3 -6 -3 -19 0 -30 9 -28 -4 -68 -16 -49 -7 11 -9 10 -9 -3
0 -10 4 -18 10 -18 16 0 30 36 28 74 -1 38 -3 42 -13 26z"/>
<path d="M977 103 c-3 -4 1 -19 9 -33 12 -22 13 -23 13 -5 1 24 -14 50 -22 38z"/>
<path d="M158 93 c7 -3 16 -2 19 1 4 3 -2 6 -13 5 -11 0 -14 -3 -6 -6z"/>
<path d="M1020 84 c0 -3 7 -12 15 -20 13 -13 15 -13 15 -1 0 8 -7 17 -15 21
-8 3 -15 3 -15 0z"/>
<path d="M2190 65 c0 -2 18 -14 40 -25 22 -11 40 -16 40 -10 0 5 -13 16 -30
25 -29 15 -50 19 -50 10z"/>
<path d="M1020 45 c0 -8 4 -15 10 -15 5 0 7 7 4 15 -4 8 -8 15 -10 15 -2 0 -4
-7 -4 -15z"/>
<path d="M1168 48 c5 -5 16 -8 23 -6 8 3 3 7 -10 11 -17 4 -21 3 -13 -5z"/>
<path d="M1210 40 c0 -5 3 -10 8 -10 4 0 24 -4 45 -9 21 -5 37 -5 37 0 0 5
-13 9 -29 9 -17 0 -33 5 -36 10 -3 6 -10 10 -16 10 -5 0 -9 -4 -9 -10z"/>
<path d="M2150 35 c0 -7 30 -13 34 -7 3 4 -4 9 -15 9 -10 1 -19 0 -19 -2z"/>
<path d="M1166 20 c6 -6 28 -13 50 -16 l39 -4 -45 15 c-54 18 -57 18 -44 5z"/>
<path d="M1465 20 c4 -6 11 -8 16 -5 14 9 11 15 -7 15 -8 0 -12 -5 -9 -10z"/>
<path d="M2210 26 c0 -2 7 -9 15 -16 9 -7 15 -8 15 -2 0 5 -7 12 -15 16 -8 3
-15 4 -15 2z"/>
<path d="M1318 13 c7 -3 16 -2 19 1 4 3 -2 6 -13 5 -11 0 -14 -3 -6 -6z"/>
<path d="M1388 3 c6 -2 18 -2 25 0 6 3 1 5 -13 5 -14 0 -19 -2 -12 -5z"/>
</g>
</svg>
